<?xml version="1.0" encoding="utf-8"?>
<!-- Generator: Adobe Illustrator 16.0.0, SVG Export Plug-In . SVG Version: 6.00 Build 0)  -->
<!DOCTYPE svg PUBLIC "-//W3C//DTD SVG 1.1//EN" "http://www.w3.org/Graphics/SVG/1.1/DTD/svg11.dtd">
<svg version="1.1" id="Layer_1" xmlns="http://www.w3.org/2000/svg" xmlns:xlink="http://www.w3.org/1999/xlink" x="0px" y="0px"
	 width="1280px" height="720px" viewBox="0 0 1280 720" enable-background="new 0 0 1280 720" xml:space="preserve">
<g id="sky">
	
		<linearGradient id="SVGID_1_" gradientUnits="userSpaceOnUse" x1="1027" y1="767.7969" x2="1027" y2="1159.0347" gradientTransform="matrix(1 0 0 -1 -387 1160.5)">
		<stop  offset="0" style="stop-color:#FFE899"/>
		<stop  offset="0.1062" style="stop-color:#FFE9CF"/>
		<stop  offset="0.2606" style="stop-color:#FFFFDB"/>
		<stop  offset="0.442" style="stop-color:#EDFFED"/>
		<stop  offset="0.6486" style="stop-color:#E0FFFA"/>
		<stop  offset="0.8342" style="stop-color:#DBFFFF"/>
		<stop  offset="1" style="stop-color:#B0E7FF"/>
	</linearGradient>
	<polygon fill="url(#SVGID_1_)" points="0,0 0,622.371 1280,615.5 1280,0 	"/>
</g>
<g id="cloud1_1_">
	
		<linearGradient id="SVGID_2_" gradientUnits="userSpaceOnUse" x1="1413.3594" y1="863.082" x2="1413.3594" y2="951.2012" gradientTransform="matrix(1 0 0 -1 -387 1160.5)">
		<stop  offset="0" style="stop-color:#9FC7D3"/>
		<stop  offset="0.3154" style="stop-color:#C0D5DF"/>
		<stop  offset="0.7674" style="stop-color:#E9E6EE"/>
		<stop  offset="1" style="stop-color:#F9EDF4"/>
	</linearGradient>
	<path fill="url(#SVGID_2_)" d="M1131.979,264.876c-1.627-3.062-3.574-6.06-5.758-6.553c-1.666-3.215-3.857-5.641-6.265-5.641
		c-2.667,0-5.066,2.155-6.797,5.981c-0.207-3.121-1.386-5.656-2.876-5.656c-0.601,0-1.128,0.43-1.591,1.078
		c-0.839-8.768-4.413-15.386-8.707-15.386c-1.087,0-2.12,0.479-3.087,1.251c0.658-2.606,1.062-5.545,1.062-8.723
		c0-10.102-3.771-18.292-8.421-18.292c-2.349,0-4.466,2.088-5.996,5.453c-0.575-1.237-1.289-2.159-2.078-2.74
		c0.151-1.979,0.078-4.274-0.506-5.883c-0.263-0.719-0.524-1.434-0.784-2.157c-0.693-1.889-1.389-3.356-2.538-4.005
		c-0.116-0.064-0.247-0.081-0.368-0.126c0.187-2.587-0.171-5.286-1.146-7.365c-0.256-0.549-0.515-1.097-0.77-1.647
		c-0.339-0.722-0.75-1.26-1.191-1.677c-0.475-1.166-1.004-2.228-1.553-3.226c-0.008-0.692-0.043-1.374-0.143-1.999
		c-0.682-4.336-2.961-7.596-5.226-6.096c-0.603,0.408-1.206,0.808-1.813,1.207c-0.016,0.016-0.029,0.031-0.046,0.041
		c-0.567-0.15-1.142-0.25-1.727-0.25c-0.172,0-0.339,0.055-0.511,0.063c-0.656-1.126-1.527-1.857-2.627-1.857
		c-2.144,0-3.438,2.699-3.9,5.964c-1.464,1.86-2.768,4.252-3.835,7.094c-0.215-0.06-0.421-0.134-0.652-0.134
		c-3.413,0-4.698,6.801-3.849,11.915c-1.269,0.059-2.375,1.392-3.101,3.411c-1.948-4.955-4.809-8.167-8.043-8.167
		c-5.592,0-10.172,9.428-10.562,21.359c-0.434-0.311-0.905-0.518-1.445-0.518c-0.756,0-1.392,0.36-1.938,0.936
		c-0.437-0.625-1.03-1.003-1.529-1.097c-0.192-0.421-0.41-0.796-0.68-1.079c-0.237-0.25-0.478-0.505-0.715-0.746
		c-0.72-0.762-1.521-1.077-2.317-0.623c-0.063,0.037-0.128,0.1-0.188,0.149c-0.181-0.19-0.368-0.342-0.57-0.428
		c-0.622-0.265-1.256-0.391-1.879-0.05c-0.108-0.346-0.226-0.678-0.374-0.979l-0.36-0.744c-0.199-0.409-0.437-0.729-0.687-1.002
		c-0.263-1.041-0.635-1.939-1.146-2.552c-0.645-0.776-1.595-1.1-2.318-0.624c-0.105,0.072-0.206,0.174-0.304,0.259
		c-0.084-0.403-0.167-0.795-0.248-1.192c-0.267-0.927-0.624-1.668-1.077-2.217c-0.443-0.685-1.019-1.166-1.567-1.355
		c-0.361-0.126-0.72-0.202-1.077-0.212c-1.588-2.33-3.498-3.688-5.559-3.688c-2.203,0-4.234,1.569-5.879,4.214
		c-0.079-0.008-0.153-0.048-0.237-0.048c-0.39,0-0.816,0.197-1.211,0.543c-0.946-0.791-2.001-0.566-2.883,0.688
		c-0.098,0.142-0.204,0.263-0.313,0.375c-0.583,0.539-1.097,1.362-1.427,2.526c-0.012,0.044-0.02,0.112-0.032,0.168
		c-1.064,0.724-1.791,2.367-2.052,4.381c-0.074,0.138-0.147,0.262-0.216,0.409c-0.115-0.045-0.227-0.115-0.344-0.136
		c-0.351-0.746-0.795-1.338-1.324-1.708c-0.592-0.41-1.185-0.822-1.776-1.233c-0.711-0.499-1.682-0.143-2.316,0.619
		c-0.094,0.115-0.182,0.273-0.274,0.42c-0.46,0.019-0.919,0.283-1.33,0.873c-0.865,1.229-1.775,2.292-2.731,3.202
		c-0.612,0.586-1.139,2.162-1.35,3.486c-0.795,0.314-1.518,1.218-1.88,2.822c-0.46,2.028-0.738,4.136-0.775,6.283
		c-0.361,0.063-0.714,0.275-1.05,0.596c-0.426-0.155-0.867-0.137-1.336,0.056c-0.674,0.277-1.348,0.554-2.021,0.833
		c-0.709,0.294-1.442,1.588-1.799,2.836c-0.125,0.443-0.213,0.963-0.285,1.509c-0.222,0.409-0.425,0.897-0.589,1.422
		c-0.081,0.104-0.169,0.198-0.248,0.299c-0.714-0.405-1.464-0.247-2.148,0.453c-0.558-0.022-1.119,0.226-1.592,0.801
		c-0.36,0.431-0.696,1.11-0.96,1.881c-0.127-0.028-0.252-0.073-0.381-0.059c-0.58,0.049-1.229,0.369-1.727,1.079
		c-0.619,0.197-1.293,0.985-1.675,1.777c-0.39,0.793-0.705,1.978-0.828,3.156c-0.121-0.105-0.241-0.191-0.372-0.25
		c-0.266-0.075-0.53-0.151-0.801-0.221c-0.541,0-1.047,0.284-1.519,0.844c-0.536,0.496-1.073,0.988-1.614,1.483
		c-0.566,0.53-1.066,1.958-1.301,3.207c-0.024,0.004-0.055,0.015-0.086,0.019c-0.747-1.243-1.707-1.74-2.608-1.359
		c-0.719-0.366-1.498-0.03-2.147,0.765c-0.107-0.171-0.224-0.314-0.345-0.446c-0.665-0.725-1.585-1.233-2.315-0.62
		c-0.263,0.22-0.528,0.375-0.803,0.507c-0.246,0.018-0.493,0.018-0.742-0.042c-0.464-0.101-1.012,0.269-1.477,0.82
		c-0.609-0.098-1.252,0.14-1.856,0.684c-1.783,1.582-3.447,4.979-4.987,7.406c-0.024,0-0.046,1.374-0.07,1.374h-0.501
		c-0.801,0-1.578-0.908-2.144,0.25c-0.028-0.02-0.052-0.862-0.075-0.88c-1.038-0.673-2.184-0.873-3.167,0.049
		c-0.522-0.351-1.097-0.615-1.687-0.304c-0.335,0.174-0.668,0.25-1.003,0.43c-0.1,0.049-0.199,0.154-0.297,0.312
		c-0.121-0.074-0.241-0.175-0.362-0.271c-0.588-0.479-1.438,1.978-2.048,2.528c-0.529,0.208-1.029,3.626-1.441,3.626h46.941h96.462
		h69.635C1132.606,268.792,1132.316,265.515,1131.979,264.876z"/>
</g>
<g id="cloud1">
	
		<linearGradient id="SVGID_3_" gradientUnits="userSpaceOnUse" x1="551.4043" y1="915.1064" x2="551.4043" y2="1037.9131" gradientTransform="matrix(1 0 0 -1 -387 1160.5)">
		<stop  offset="0" style="stop-color:#9FC7D3"/>
		<stop  offset="0.3154" style="stop-color:#C0D5DF"/>
		<stop  offset="0.7674" style="stop-color:#E9E6EE"/>
		<stop  offset="1" style="stop-color:#F9EDF4"/>
	</linearGradient>
	<path fill="url(#SVGID_3_)" d="M311.605,200.043c-2.267-4.268-4.982-8.445-8.025-9.133c-2.322-4.48-5.375-7.861-8.73-7.861
		c-3.717,0-7.061,3.004-9.473,8.336c-0.288-4.35-1.932-7.883-4.008-7.883c-0.837,0-1.572,0.6-2.217,1.502
		c-1.169-12.219-6.151-21.443-12.134-21.443c-1.515,0-2.956,0.668-4.302,1.744c0.916-3.632,1.479-7.729,1.479-12.156
		c0-14.078-5.255-25.493-11.735-25.493c-3.272,0-6.223,2.911-8.356,7.6c-0.802-1.724-1.798-3.009-2.897-3.819
		c0.211-2.758,0.11-5.957-0.705-8.199c-0.365-1.002-0.73-1.998-1.093-3.005c-0.965-2.633-1.934-4.678-3.537-5.583
		c-0.162-0.089-0.344-0.113-0.512-0.176c0.259-3.605-0.239-7.366-1.598-10.263c-0.358-0.766-0.718-1.53-1.073-2.296
		c-0.472-1.007-1.044-1.757-1.659-2.338c-0.663-1.624-1.4-3.104-2.166-4.496c-0.01-0.965-0.059-1.915-0.198-2.785
		c-0.95-6.043-4.126-10.586-7.282-8.496c-0.84,0.569-1.682,1.126-2.529,1.682c-0.02,0.022-0.041,0.044-0.063,0.057
		c-0.79-0.209-1.591-0.348-2.406-0.348c-0.239,0-0.473,0.076-0.712,0.089c-0.915-1.569-2.128-2.589-3.66-2.589
		c-2.988,0-4.793,3.761-5.437,8.313c-2.04,2.592-3.857,5.926-5.345,9.887c-0.299-0.084-0.586-0.188-0.909-0.188
		c-4.757,0-6.548,9.478-5.364,16.605c-1.767,0.083-3.309,1.94-4.32,4.754c-2.715-6.905-6.701-11.381-11.209-11.381
		c-7.793,0-14.177,13.14-14.72,29.767c-0.604-0.433-1.262-0.721-2.015-0.721c-1.052,0-1.938,0.502-2.701,1.303
		c-0.607-0.871-1.436-1.398-2.131-1.528c-0.268-0.587-0.572-1.109-0.947-1.504c-0.33-0.348-0.666-0.704-0.996-1.04
		c-1.003-1.062-2.121-1.5-3.23-0.868c-0.088,0.05-0.178,0.138-0.262,0.208c-0.253-0.265-0.514-0.477-0.795-0.597
		c-0.867-0.369-1.75-0.545-2.62-0.069c-0.149-0.482-0.313-0.945-0.521-1.365l-0.502-1.036c-0.277-0.571-0.607-1.016-0.957-1.397
		c-0.365-1.45-0.885-2.703-1.598-3.556c-0.898-1.083-2.221-1.534-3.23-0.87c-0.146,0.1-0.287,0.242-0.424,0.362
		c-0.116-0.562-0.232-1.109-0.346-1.663c-0.371-1.291-0.869-2.324-1.5-3.089c-0.618-0.955-1.42-1.625-2.184-1.889
		c-0.504-0.176-1.004-0.282-1.502-0.295c-2.213-3.247-4.874-5.141-7.746-5.141c-3.071,0-5.902,2.187-8.195,5.874
		c-0.109-0.013-0.213-0.068-0.33-0.068c-0.543,0-1.137,0.275-1.687,0.758c-1.319-1.102-2.788-0.789-4.017,0.959
		c-0.137,0.197-0.285,0.366-0.438,0.522c-0.813,0.751-1.528,1.899-1.988,3.521c-0.016,0.062-0.028,0.156-0.045,0.235
		c-1.482,1.009-2.496,3.299-2.859,6.106c-0.104,0.192-0.205,0.365-0.301,0.57c-0.161-0.063-0.316-0.16-0.479-0.189
		c-0.488-1.039-1.108-1.866-1.846-2.381c-0.824-0.573-1.65-1.146-2.475-1.719c-0.992-0.695-2.344-0.199-3.229,0.863
		c-0.13,0.16-0.253,0.381-0.382,0.586c-0.641,0.026-1.281,0.395-1.854,1.216c-1.206,1.713-2.473,3.193-3.806,4.463
		c-0.854,0.816-1.587,3.013-1.88,4.858c-1.109,0.438-2.117,1.697-2.621,3.934c-0.641,2.826-1.029,5.764-1.081,8.756
		c-0.504,0.087-0.995,0.382-1.462,0.829c-0.594-0.216-1.209-0.191-1.863,0.079c-0.938,0.386-1.878,0.771-2.815,1.16
		c-0.989,0.41-2.011,2.214-2.507,3.953c-0.174,0.618-0.297,1.342-0.397,2.104c-0.31,0.57-0.593,1.25-0.821,1.982
		c-0.113,0.145-0.236,0.276-0.346,0.416c-0.996-0.564-2.041-0.344-2.994,0.631c-0.777-0.031-1.56,0.315-2.219,1.117
		c-0.502,0.6-0.971,1.547-1.338,2.621c-0.176-0.039-0.351-0.102-0.531-0.082c-0.809,0.069-1.713,0.515-2.406,1.504
		c-0.863,0.275-1.802,1.373-2.334,2.477c-0.543,1.105-0.983,2.755-1.154,4.398c-0.168-0.146-0.336-0.265-0.519-0.348
		c-0.37-0.104-0.739-0.211-1.115-0.307c-0.754,0-1.459,0.396-2.116,1.177c-0.748,0.691-1.496,1.377-2.25,2.067
		c-0.789,0.738-1.487,2.73-1.814,4.469c-0.034,0.006-0.076,0.021-0.119,0.026c-1.041-1.732-2.38-2.425-3.635-1.894
		c-1.002-0.51-2.089-0.041-2.994,1.066c-0.148-0.239-0.311-0.438-0.479-0.621c-0.928-1.01-2.209-1.719-3.228-0.863
		c-0.366,0.306-0.736,0.522-1.118,0.707c-0.344,0.024-0.687,0.024-1.035-0.059c-0.646-0.141-1.411,0.375-2.057,1.143
		c-0.85-0.137-1.746,0.194-2.587,0.952c-2.486,2.206-4.805,6.939-6.952,10.322c-0.033,0-0.064,1.915-0.097,1.915h-0.699
		c-1.115,0-2.199-1.265-2.987,0.347c-0.039-0.027-0.072-1.2-0.104-1.226c-1.448-0.938-3.043-1.216-4.415,0.068
		c-0.727-0.489-1.528-0.857-2.35-0.424c-0.466,0.244-0.931,0.35-1.397,0.6c-0.139,0.068-0.278,0.215-0.414,0.436
		c-0.168-0.104-0.336-0.244-0.504-0.377c-0.821-0.668-2.005,2.756-2.855,3.523c-0.738,0.289-1.434,5.053-2.009,5.053h65.42h134.435
		h97.046C312.479,205.5,312.074,200.934,311.605,200.043z"/>
</g>
<g id="skyy">
	
		<linearGradient id="SVGID_4_" gradientUnits="userSpaceOnUse" x1="738.5605" y1="482.8887" x2="738.5603" y2="1051.9912" gradientTransform="matrix(1 0 0 -1 -387 1160.5)">
		<stop  offset="0" style="stop-color:#9FC7D3"/>
		<stop  offset="0.3154" style="stop-color:#C0D5DF"/>
		<stop  offset="0.7674" style="stop-color:#E9E6EE"/>
		<stop  offset="1" style="stop-color:#F9EDF4"/>
	</linearGradient>
	<path fill="url(#SVGID_4_)" d="M676.452,311.177c-7.855,0-14.771,3.952-18.677,9.815c-1.688,0.092-3.305,0.356-4.896,0.766
		c-1.188-12.302-13.229-22.267-25.784-22.267c-6.649,0-12.508,2.441-16.965,6.396c-0.56-0.051-1.129-0.062-1.705-0.062
		c-4.576,0-8.709,1.487-11.684,3.856c-1.295-7.347-9.188-13.435-19.965-16.062c-0.306-2.214-0.979-4.25-2.062-6.258
		c-1.045-3.122-2.829-5.669-5.353-7.95c-2.347-2.456-5.121-3.624-8.326-4.639c-3.082-1.577-6.406-1.284-9.97-1.284h-1.061
		c-0.761,0-1.514-0.836-2.257-0.772c-3.479-1.511-7.739-3.156-12.358-3.156c-4.843,0-9.293,0.924-12.854,2.563
		c-0.194-0.437-0.403-0.888-0.632-1.312c-1.043-3.123-2.827-5.82-5.354-8.104c-2.346-2.458-5.122-3.634-8.328-4.646
		c-3.084-1.582-6.401-1.566-9.969-1.566h-1.059c-4.668,0-9.022,0.562-13.062,2.842c-1.745,1.314-3.489,2.287-5.232,3.604
		c-3.205,3.145-5.429,6.75-6.652,11.016c-0.218,1.583-0.438,3.16-0.655,4.742c-0.146-0.146-0.298-0.212-0.455-0.354
		c-2.345-2.453-5.121-3.043-8.328-4.06c-3.084-1.579-6.401-0.787-9.968-0.787h-1.058c-4.67,0-9.024-0.226-13.062,2.054
		c-1.746,1.312-3.489,1.705-5.232,3.021c-2.659,2.604-4.626,5.395-5.929,8.771c-0.078,0-0.152-0.074-0.231-0.074
		c-2.629,0-5.146,0.385-7.493,1.01c-1.695-1.232-3.562-1.655-5.611-2.303c-3.083-1.578-6.401-3.477-9.968-1.477h-1.055
		c-4.671,0-9.025,0.436-13.062,2.711c-1.746,1.312-3.489,2.085-5.234,3.396c-3.207,3.145-5.429,6.759-6.657,11.021
		c-0.209,1.536-0.421,3.025-0.633,4.562c-0.477,0.427-0.936,0.845-1.372,1.306c-2.808-1.734-6.271-2.777-10.019-2.777
		c-0.68,0-1.352,0.032-2.008,0.102c-0.271-0.339-0.542-0.688-0.81-1.023c-3.229-3.122-7.036-5.281-11.419-6.479
		c-2.292-0.305-4.586-0.604-6.88-0.899c-2.055-0.077-4.021,0.146-5.913,0.633c-3.35-8.264-13.68-14.285-25.904-14.285
		c-8.48,0-16.047,2.896-21.006,7.426c-2.249-4.863-7.436-8.854-14.146-11c0.02-0.297,0.028-0.602,0.028-0.896
		c0-7.062-4.64-13.128-11.297-15.838c-3.575-9.417-15.189-16.319-28.963-16.319c-2.358,0-4.654,0.202-6.856,0.588
		c1.104-2.339,1.716-4.907,1.716-7.601c0-10.88-9.982-19.708-22.3-19.708c-0.459,0-0.907,0.036-1.36,0.062
		c-1.355-7.94-7.211-14.734-14.631-18.234c0.518-1.137,0.964-2.314,1.319-3.543c0.307-2.232,0.614-4.464,0.924-6.696
		c-0.015-4.548-1.193-8.791-3.534-12.72l-4.047-5.099c-2.001-2.099-4.324-3.668-6.959-4.716
		c-1.804-9.836-11.659-17.575-21.899-17.575c-7.857,0-14.416,3.957-18.326,9.818c-3.941,0.22-7.642,1.302-11.098,3.251
		c-1.675,1.26-3.35,2.521-5.025,3.779c-2.419,2.19-4.13,4.784-5.131,7.778c-1.554,2.882-2.267,5.986-2.137,9.313
		c-0.013,0.358-0.012,0.711-0.007,1.065c-0.416,0.249-0.832,0.505-1.232,0.777c-1.286-0.58-2.623-1.075-4.027-1.458
		c-2.293-0.298-4.586-0.601-6.879-0.898c-3.194-0.119-6.197,0.456-9.009,1.715c-0.995-0.091-2.002-0.152-3.029-0.152
		c-2.405,0-4.73,0.255-6.938,0.729c0.931-2.028,1.437-4.197,1.437-6.452c0-11.281-12.556-20.427-28.053-20.427
		c-10.561,0-19.743,4.252-24.531,10.526c-4.516-3.047-10.171-4.841-16.157-4.841c-7.6,0-15.322,0.561-19.843,5.238L6.756,720h696.07
		l-9.1-400.581C688.631,314.688,682.902,311.177,676.452,311.177z"/>
	
		<linearGradient id="SVGID_5_" gradientUnits="userSpaceOnUse" x1="4905.1826" y1="481.7363" x2="4905.1826" y2="1035.4102" gradientTransform="matrix(-1 0 0 -1 5854.5918 1160.5)">
		<stop  offset="0" style="stop-color:#9FC7D3"/>
		<stop  offset="0.3154" style="stop-color:#C0D5DF"/>
		<stop  offset="0.7674" style="stop-color:#E9E6EE"/>
		<stop  offset="1" style="stop-color:#F9EDF4"/>
	</linearGradient>
	<path fill="url(#SVGID_5_)" d="M640.22,317.995c7.438,0,13.979,3.74,17.672,9.288c1.598,0.087,3.122,0.337,4.638,0.725
		c1.123-11.64,12.519-21.063,24.396-21.063c6.297,0,11.835,2.311,16.053,6.051c0.528-0.043,1.066-0.059,1.612-0.059
		c4.329,0,8.24,1.401,11.056,3.646c1.229-6.944,8.692-12.707,18.895-15.19c0.284-2.1,0.924-4.021,1.95-5.926
		c0.983-2.949,2.677-5.361,5.062-7.521c2.217-2.324,4.847-3.354,7.879-4.313c2.916-1.49,6.062-1.14,9.438-1.14h0.999
		c0.719,0,1.432-0.866,2.135-0.808c3.293-1.43,7.323-3.026,11.693-3.026c4.58,0,8.791,0.854,12.16,2.41
		c0.188-0.413,0.386-0.853,0.602-1.254c0.986-2.956,2.675-5.515,5.062-7.671c2.226-2.326,4.852-3.323,7.883-4.284
		c2.921-1.496,6.062-2.367,9.435-1.367h0.997c4.418,0,8.537,0.416,12.354,2.569c1.65,1.244,3.307,2.104,4.954,3.35
		c3.033,2.977,5.138,6.357,6.296,10.395c0.207,1.498,0.414,2.978,0.619,4.475c0.146-0.139,0.283-0.207,0.436-0.346
		c2.218-2.319,4.845-2.809,7.88-3.77c2.917-1.494,6.061-1.673,9.431-0.673h1.002c4.419,0,8.538-0.288,12.355,1.865
		c1.647,1.243,3.304,1.575,4.955,2.815c2.516,2.467,4.377,5.083,5.604,8.278c0.075,0,0.147-0.081,0.226-0.081
		c2.483,0,4.863,0.358,7.09,0.951c1.604-1.167,3.372-1.199,5.31-1.812c2.916-1.49,6.062-4.021,9.435-1.021h0.998
		c4.419,0,8.536,0.037,12.355,2.193c1.651,1.237,3.304,1.783,4.954,3.024c3.034,2.978,5.134,6.3,6.298,10.337
		c0.198,1.453,0.396,2.816,0.602,4.271c0.445,0.401,0.886,0.771,1.299,1.213c2.651-1.641,5.932-2.64,9.477-2.64
		c0.646,0,1.278,0.021,1.898,0.085c0.258-0.32,0.515-0.648,0.769-0.976c3.057-2.954,6.656-5,10.805-6.134
		c2.17-0.285,4.342-0.568,6.513-0.854c1.938-0.07,3.804,0.137,5.596,0.602c3.167-7.819,12.938-13.521,24.511-13.521
		c8.021,0,15.185,2.74,19.875,7.027c2.127-4.604,7.034-8.379,13.384-10.408c-0.019-0.279-0.022-0.562-0.022-0.849
		c0-6.681,4.391-12.421,10.688-14.983c3.384-8.91,14.37-15.438,27.401-15.438c2.229,0,4.402,0.188,6.484,0.555
		c-1.045-2.211-1.623-4.643-1.623-7.188c0-10.296,9.443-18.647,21.102-18.647c0.437,0,0.854,0.034,1.287,0.06
		c1.279-7.513,6.82-13.939,13.844-17.253c-0.488-1.074-0.911-2.188-1.248-3.353c-0.291-2.112-0.582-4.224-0.875-6.336
		c0.016-4.303,1.132-8.317,3.346-12.035l3.829-4.824c1.896-1.986,4.092-3.472,6.584-4.462c1.707-9.307,11.03-16.629,20.721-16.629
		c7.437,0,13.643,3.743,17.341,9.289c3.729,0.208,7.229,1.231,10.5,3.076c1.586,1.191,3.17,2.385,4.756,3.575
		c2.289,2.072,3.906,4.526,4.854,7.359c1.471,2.728,2.146,5.663,2.021,8.812c0.014,0.339,0.012,0.673,0.007,1.008
		c0.396,0.235,0.786,0.479,1.166,0.735c1.218-0.548,2.479-1.017,3.812-1.379c2.17-0.282,4.339-0.567,6.511-0.85
		c3.021-0.112,5.861,0.431,8.521,1.622c0.94-0.086,1.896-0.144,2.865-0.144c2.271,0,4.477,0.241,6.562,0.69
		c-0.882-1.919-1.356-3.972-1.356-6.105c0-10.674,11.88-19.326,26.542-19.326c9.993,0,18.682,4.022,23.211,9.959
		c4.271-2.884,9.624-4.581,15.288-4.581c7.188,0,14.496,0.531,18.771,4.956V720H618.817l5.059-394.205
		C628.698,321.319,634.117,317.995,640.22,317.995z"/>
</g>
<g id="cloud4">
	
		<linearGradient id="SVGID_6_" gradientUnits="userSpaceOnUse" x1="1463.1631" y1="956.0479" x2="1463.1631" y2="1153.0728" gradientTransform="matrix(1 0 0 -1 -387 1160.5)">
		<stop  offset="0" style="stop-color:#9FC7D3"/>
		<stop  offset="0.3154" style="stop-color:#C0D5DF"/>
		<stop  offset="0.7674" style="stop-color:#E9E6EE"/>
		<stop  offset="1" style="stop-color:#F9EDF4"/>
	</linearGradient>
	<path fill="url(#SVGID_6_)" d="M1259.5,124.5c-0.598,0-1.235-2.291-1.982-3.117c-3.582-3.978-7.89-6.892-12.709-7.526
		c-3.686-4.178-8.514-6.851-13.836-6.851c-5.881,0-11.179,3.057-14.999,8.021c-0.458-4.048-3.062-7.219-6.354-7.219
		c-1.32,0-2.479,0.618-3.511,1.458c-1.854-11.385-9.739-19.955-19.215-19.955c-2.397,0-4.688,0.646-6.817,1.646
		c1.454-3.385,2.341-7.199,2.341-11.328c0-13.12-8.322-23.75-18.591-23.75c-5.183,0-9.854,2.719-13.235,7.087
		c-1.271-1.615-2.849-2.801-4.584-3.556c0.33-2.575,0.175-5.565-1.118-7.643c-0.58-0.935-1.164-1.869-1.739-2.801
		c-1.52-2.456-3.059-4.363-5.603-5.209c-0.253-0.086-0.54-0.102-0.808-0.158c0.41-3.362-0.377-6.87-2.527-9.571
		c-0.562-0.714-1.134-1.426-1.702-2.134c-0.749-0.938-1.651-1.636-2.627-2.177c-1.049-1.516-2.219-2.894-3.435-4.189
		c-0.021-0.906-0.099-1.796-0.312-2.598c-1.507-5.63-6.535-9.875-11.536-7.918c-1.33,0.521-2.668,1.043-4,1.57
		c-0.038,0.013-0.064,0.035-0.104,0.047c-1.257-0.199-2.521-0.322-3.817-0.322c-0.375,0-0.742,0.068-1.121,0.081
		c-1.447-1.465-3.369-2.411-5.801-2.411c-4.738,0-7.592,3.502-8.613,7.745c-3.228,2.417-6.113,5.521-8.461,9.213
		c-0.472-0.076-0.935-0.172-1.441-0.172c-7.534,0-10.368,8.834-8.507,15.47c-2.788,0.083-5.231,1.815-6.836,4.432
		c-4.296-6.439-10.609-10.603-17.759-10.603c-12.35,0-22.451,12.241-23.316,27.741c-0.953-0.402-1.994-0.674-3.188-0.674
		c-5.25,0-8.215,4.292-8.9,9.137c-0.81-0.086-1.63-0.137-2.453-0.137c-11.249,0-21.029,8.012-26.044,19.793
		c-1.688-1.898-3.883-3.081-6.314-3.081c-3.938,0-7.311,3.011-8.81,7.311c-1.212-0.88-2.664-1.43-4.39-1.506
		c-1.37-3.225-3.976-5.639-7.901-5.639c-6.859,0-9.796,7.308-8.85,13.634c-1.354-1.069-3.011-1.744-5.037-1.744
		c-3.009,0-5.271,1.414-6.78,3.531c-2.467-0.03-4.938,0.602-7.002,2.255c-0.177,0.147-0.352,0.284-0.521,0.431
		c-0.923-0.364-1.926-0.619-3.062-0.619c-1.764,0-3.247,0.524-4.486,1.358c-0.654,0.076-1.312,0.196-1.979,0.368
		c-1.166,0.296-2.339,0.592-3.515,0.889c-3.329,0.849-6.724,4.35-8.4,7.812c-0.272,0.571-0.333,1.211-0.552,1.846
		c-1.512-2.172-4.348-3.194-6.688-3.194c-3.343,0-5.691-2.298-7.128,4.924H1259.5V124.5z"/>
</g>
<g id="cloud2">
	
		<linearGradient id="SVGID_7_" gradientUnits="userSpaceOnUse" x1="813.8486" y1="992.3486" x2="813.8486" y2="1097.6162" gradientTransform="matrix(1 0 0 -1 -387 1160.5)">
		<stop  offset="0" style="stop-color:#9FC7D3"/>
		<stop  offset="0.3154" style="stop-color:#C0D5DF"/>
		<stop  offset="0.7674" style="stop-color:#E9E6EE"/>
		<stop  offset="1" style="stop-color:#F9EDF4"/>
	</linearGradient>
	<path fill="url(#SVGID_7_)" d="M556.648,129.279c-1.999-3.658-4.396-7.238-7.077-7.828c-2.047-3.84-4.739-6.738-7.698-6.738
		c-3.277,0-6.227,2.575-8.354,7.145c-0.254-3.729-1.701-6.757-3.532-6.757c-0.738,0-1.389,0.514-1.955,1.288
		c-1.031-10.474-5.424-18.38-10.702-18.38c-1.335,0-2.605,0.572-3.793,1.495c0.808-3.114,1.305-6.625,1.305-10.42
		c0-12.067-4.634-21.851-10.348-21.851c-2.884,0-5.487,2.495-7.369,6.514c-0.707-1.478-1.585-2.579-2.553-3.273
		c0.186-2.364,0.098-5.106-0.622-7.028c-0.322-0.859-0.645-1.712-0.963-2.576c-0.853-2.257-1.709-4.01-3.119-4.786
		c-0.145-0.076-0.305-0.097-0.451-0.15c0.228-3.09-0.211-6.314-1.411-8.797c-0.313-0.657-0.633-1.311-0.946-1.968
		c-0.417-0.863-0.921-1.506-1.461-2.004c-0.585-1.392-1.233-2.661-1.91-3.854c-0.011-0.827-0.054-1.642-0.175-2.387
		c-0.838-5.18-3.638-9.074-6.421-7.282c-0.741,0.488-1.482,0.965-2.229,1.441c-0.02,0.019-0.036,0.038-0.056,0.049
		c-0.695-0.179-1.401-0.298-2.122-0.298c-0.211,0-0.417,0.065-0.627,0.076c-0.807-1.345-1.876-2.219-3.228-2.219
		c-2.632,0-4.228,3.224-4.793,7.125c-1.799,2.222-3.401,5.08-4.713,8.475c-0.268-0.072-0.52-0.161-0.804-0.161
		c-4.192,0-5.772,8.125-4.729,14.233c-1.559,0.071-2.917,1.663-3.812,4.075c-2.394-5.918-5.906-9.755-9.884-9.755
		c-6.872,0-12.5,11.263-12.979,25.515c-0.532-0.372-1.113-0.618-1.776-0.618c-0.93,0-1.709,0.43-2.382,1.117
		c-0.536-0.747-1.271-1.198-1.879-1.31c-0.239-0.503-0.505-0.951-0.835-1.289c-0.291-0.299-0.587-0.604-0.878-0.892
		c-0.885-0.91-1.87-1.286-2.849-0.744c-0.079,0.043-0.157,0.118-0.231,0.178c-0.223-0.227-0.453-0.409-0.701-0.511
		c-0.765-0.316-1.543-0.467-2.311-0.06c-0.13-0.413-0.274-0.81-0.459-1.17l-0.442-0.888c-0.245-0.489-0.536-0.871-0.844-1.197
		c-0.322-1.243-0.782-2.317-1.41-3.048c-0.791-0.928-1.959-1.314-2.847-0.745c-0.131,0.085-0.255,0.207-0.375,0.31
		c-0.104-0.482-0.204-0.951-0.308-1.426c-0.327-1.106-0.764-1.992-1.323-2.647c-0.542-0.819-1.252-1.393-1.925-1.619
		c-0.442-0.151-0.885-0.242-1.325-0.253c-1.949-2.783-4.297-4.407-6.83-4.407c-2.708,0-5.205,1.875-7.226,5.035
		c-0.094-0.011-0.188-0.059-0.292-0.059c-0.479,0-1.002,0.236-1.487,0.65c-1.164-0.945-2.458-0.676-3.543,0.822
		c-0.122,0.169-0.25,0.314-0.386,0.447c-0.716,0.645-1.348,1.628-1.753,3.018c-0.014,0.053-0.022,0.134-0.04,0.202
		c-1.304,0.865-2.201,2.828-2.519,5.234c-0.092,0.165-0.181,0.313-0.268,0.489c-0.142-0.054-0.277-0.138-0.422-0.162
		c-0.43-0.891-0.977-1.599-1.628-2.041c-0.726-0.491-1.455-0.982-2.184-1.474c-0.875-0.595-2.066-0.17-2.847,0.74
		c-0.116,0.137-0.224,0.326-0.338,0.502c-0.566,0.022-1.128,0.339-1.634,1.042c-1.063,1.468-2.181,2.737-3.356,3.825
		c-0.753,0.7-1.399,2.583-1.659,4.165c-0.977,0.375-1.865,1.454-2.31,3.372c-0.567,2.422-0.907,4.94-0.953,7.505
		c-0.445,0.075-0.877,0.327-1.29,0.71c-0.525-0.185-1.066-0.164-1.642,0.068c-0.827,0.331-1.656,0.661-2.482,0.994
		c-0.871,0.352-1.772,1.897-2.21,3.389c-0.153,0.529-0.262,1.15-0.35,1.803c-0.274,0.488-0.524,1.071-0.723,1.699
		c-0.1,0.125-0.208,0.236-0.306,0.356c-0.877-0.483-1.8-0.295-2.64,0.541c-0.685-0.026-1.377,0.27-1.958,0.958
		c-0.443,0.515-0.856,1.326-1.181,2.247c-0.155-0.033-0.309-0.087-0.466-0.07c-0.715,0.059-1.511,0.441-2.121,1.289
		c-0.761,0.236-1.589,1.177-2.058,2.124c-0.479,0.947-0.867,2.361-1.018,3.77c-0.148-0.125-0.296-0.227-0.458-0.298
		c-0.326-0.089-0.652-0.181-0.983-0.263c-0.665,0-1.286,0.339-1.866,1.009c-0.66,0.592-1.319,1.18-1.984,1.772
		c-0.696,0.633-1.311,2.34-1.598,3.831c-0.03,0.005-0.067,0.018-0.105,0.022c-0.918-1.485-2.099-2.079-3.206-1.624
		c-0.885-0.438-1.844-0.035-2.64,0.914c-0.131-0.205-0.275-0.375-0.422-0.533c-0.818-0.865-1.948-1.473-2.846-0.739
		c-0.323,0.262-0.649,0.447-0.986,0.606c-0.303,0.021-0.607,0.021-0.913-0.051c-0.57-0.121-1.243,0.322-1.813,0.98
		c-0.752-0.118-1.54,0.166-2.283,0.816c-2.191,1.891-4.238,5.948-6.128,8.848c-0.029,0-0.057,1.641-0.088,1.641h-0.615
		c-0.983,0-1.938-1.084-2.633,0.297c-0.035-0.023-0.064-1.028-0.092-1.05c-1.274-0.804-2.683-1.043-3.893,0.058
		c-0.641-0.419-1.345-0.735-2.072-0.363c-0.412,0.208-0.821,0.299-1.231,0.514c-0.124,0.059-0.244,0.185-0.363,0.374
		c-0.147-0.089-0.297-0.209-0.446-0.323c-0.723-0.573-1.769,2.362-2.516,3.02c-0.65,0.248-1.264,4.332-1.771,4.332h57.685h118.542
		h85.572C557.418,133.957,557.061,130.043,556.648,129.279z"/>
</g>
<g>
	<path fill="#594A42" d="M173.04,293.203c-10.752,13.063-44.203,128.623-1.481,140.486c42.725,11.867,91.821,3.693,88.933-27.423
		c-2.443-26.317-11.859-81.101-22.271-96.994C213.778,271.967,183.904,280.003,173.04,293.203z"/>
	<path fill="#ECECEC" d="M204.944,352.825c9.821-9.293,20.499-17.518,31.379-25.381c13.755-9.942,29.125-19.702,45.761-18.662
		c4.786,0.299,10.717,3.128,10.221,8.163c-0.138,1.417-0.809,2.71-1.54,3.905c-2.808,4.59-6.746,8.402-11.318,10.954
		c6.803,2.018,12.994,6.279,17.495,12.031c2.306,2.948,4.243,6.92,2.913,10.477c-1.395,3.726-5.686,5.159-9.471,5.385
		c-5.073,0.307-10.216-0.718-14.833-2.956c1.656,5.512,3.311,11.019,4.969,16.529c0.834,2.778,1.683,5.658,1.41,8.564
		c-0.626,6.647-7.499,11.385-13.772,10.552c-6.273-0.832-11.447-6.157-13.769-12.37c1.922,7.509,2.66,15.357,2.17,23.116
		c-0.242,3.891-1.017,8.182-3.97,10.517c-2.813,2.226-6.76,1.949-10.109,0.83c-18.171-6.072-24.726-30.843-41.514-40.377"/>
	<path fill="#ECECEC" d="M192.515,355.12c-9.821-9.291-20.499-17.517-31.379-25.379c-13.755-9.941-29.125-19.702-45.761-18.661
		c-4.785,0.299-10.717,3.129-10.22,8.162c0.139,1.416,0.809,2.71,1.54,3.905c2.808,4.59,6.745,8.401,11.317,10.954
		c-6.803,2.019-12.994,6.278-17.496,12.031c-2.305,2.948-4.241,6.92-2.912,10.477c1.395,3.726,5.685,5.158,9.471,5.385
		c5.074,0.307,10.216-0.716,14.835-2.955l-4.969,16.528c-0.835,2.78-1.683,5.658-1.41,8.564c0.623,6.647,7.499,11.386,13.772,10.553
		c6.273-0.833,11.446-6.158,13.768-12.371c-1.921,7.509-2.66,15.357-2.172,23.117c0.244,3.891,1.02,8.181,3.974,10.516
		c2.812,2.226,6.759,1.951,10.107,0.83c18.172-6.072,24.726-30.84,41.515-40.377"/>
	<g>
		<path fill="#3D392F" d="M241.115,365.086c0,0,2.113-13.085,5.57-14.337c3.461-1.252,3.296,3.813,1.623,6.167
			c0,0,4.219-5.405,8.357-2.798c4.141,2.607,6.257,10.23-1.787,14.269c-8.047,4.043-10.379,3.346-10.379,3.346L241.115,365.086z"/>
	</g>
	<g>
		<path fill="#3D392F" d="M165.749,368.903c0,0-2.113-13.082-5.57-14.336c-3.46-1.252-3.296,3.81-1.623,6.168
			c0,0-4.218-5.405-8.358-2.802c-4.143,2.607-6.258,10.231,1.789,14.272c8.047,4.043,10.378,3.344,10.378,3.344L165.749,368.903z"/>
	</g>
	<path fill="#3D392F" d="M175.295,418.706c0,0-2.605,11.474,0.076,16.624c2.03,3.849,6.226,4.538,7.138,1.32
		c0.854-3.061-0.123-5.943-0.35-6.485c-1.753-4.302-0.689-9.16-0.689-9.16L175.295,418.706z"/>
	<path fill="#3D392F" d="M224.823,422.717c0,0-2.139,8.601-3.609,11.867c-1.676,3.732-3.729,8.314-8.364,9.754
		c-4.637,1.428-5.29-4.723-2.969-7.305c2.316-2.58,4.495-3.148,5.798-6.724c1.281-3.584,0.903-5.597,0.903-5.597L224.823,422.717z"
		/>
	<path fill="#71C1E8" d="M162.492,342.51c0,0,3.011-35.897,34.249-38.964c31.25-3.058,35.548,21.199,37.086,24.352
		c1.544,3.16,11.415,36.571,11.078,57.569c-0.352,21.021-6.175,38.965-30.817,43.181c-26.39,4.498-50.465-6.501-51.845-37.431
		C160.868,360.271,162.492,342.51,162.492,342.51z"/>
	<g>
		<g>
			<path fill="#594A42" d="M209.808,336.19c4.731,5.947,12.004,4.289,16.932-0.385c0.413-0.392-0.211-1.014-0.623-0.623
				c-4.616,4.378-11.308,5.887-15.686,0.385C210.078,335.122,209.458,335.751,209.808,336.19L209.808,336.19z"/>
		</g>
	</g>
	<g>
		<g>
			<path fill="#594A42" d="M193.648,337.167c-4.376,5.501-11.068,3.998-15.685-0.38c-0.413-0.391-1.036,0.231-0.623,0.621
				c4.928,4.675,12.2,6.327,16.932,0.381C194.621,337.351,194.002,336.722,193.648,337.167L193.648,337.167z"/>
		</g>
	</g>
	<path fill="#FCC8B1" d="M171.967,353.535c0.1,0.991,2.778,1.509,6.011,1.164c3.231-0.368,5.774-1.439,5.686-2.437
		c-0.087-1.007-2.779-1.532-5.998-1.18C174.432,351.441,171.89,352.527,171.967,353.535z"/>
	<path fill="#FCC8B1" d="M224.646,347.786c0.076,0.999,2.768,1.526,6.001,1.17c3.229-0.345,5.777-1.443,5.688-2.448
		c-0.087-0.981-2.783-1.511-6.011-1.164C227.101,345.7,224.544,346.8,224.646,347.786z"/>
	<path opacity="0.48" fill="#F9B2BD" enable-background="new    " d="M199.597,359.108c0.439,5.123,3.707,7.306,6.688,6.986
		c2.954-0.33,4.536-3.044,4.083-8.156c-0.451-5.118-3.433-2.073-6.413-1.744C200.974,356.528,199.146,353.997,199.597,359.108z"/>
	<g>
		<path fill="#594A42" d="M199.91,286.979c-20.09,0-35.241,14.551-36.103,38.364c25.837,1.562,36.102-16.074,36.102-16.074
			s11.66,14.193,37.5,12.629C236.545,298.087,219.998,286.979,199.91,286.979z"/>
		<path fill="#594A42" d="M165.164,325.438c0,0,22.814,1.913,34.764-16.166c0,0,8.51,11.287,31.595,12.723
			c0,0,2.984-3.125-1.062-9.541c0,0,1.084,3.743-0.387,7.438c1.77,0.137-21.831-2.668-30.165-17.741
			C199.91,302.151,189.632,322.014,165.164,325.438z"/>
	</g>
	<g>
		<path fill="#FFE400" d="M230.366,280.542l-9.52,4.262l-4.609-16.348l-9.972,13.472l-10.134-22.381l0,0l-8.33,23.294
			l-10.146-12.476l-3.169,16.727l-9.769-3.306l6.086,16.87c4.774-2.169,18.016-4.011,27.309-4.54
			c9.304-0.373,22.62,0.146,27.556,1.844L230.366,280.542z"/>
		<path fill="#00CDED" d="M196.004,246.317c1.091-3.666,6.104-6.114,8.27-2.094c2.041,3.799-0.79,10.824-8.004,15.5
			c0.1-0.063-9.884-4.605-8.919-12.769C188.179,239.937,195.118,242.662,196.004,246.317z"/>
		<path fill="#FFFFFF" d="M163.015,280.979c-1.48-1.324-3.571-1.247-4.298,1.173c-0.738,2.427,2.895,6.014,7.752,5.061
			c-0.037,0.064,3.298-5.373,0.69-8.798C164.906,275.472,162.451,279.004,163.015,280.979z"/>
		<path fill="#FFFFFF" d="M176.453,264.79c-1.137-1.773-3.244-2.326-4.569-0.142c-1.342,2.183,1.387,6.868,6.476,7.408
			c-0.064,0.054,4.608-4.325,2.854-8.546C179.696,259.894,176.381,262.662,176.453,264.79z"/>
		<path fill="#FFFFFF" d="M231.892,277.577c1.381-1.457,3.458-1.585,4.384,0.755c0.928,2.343-2.403,6.26-7.326,5.797
			c0.037,0.054-3.722-5.031-1.389-8.7C229.588,272.28,232.307,275.562,231.892,277.577z"/>
		<path fill="#FFFFFF" d="M217.213,262.778c1.003-1.878,3.058-2.646,4.549-0.596c1.5,2.055-0.841,6.979-5.852,8.022
			c0.048,0.053-4.948-3.864-3.533-8.237C213.592,258.211,217.125,260.65,217.213,262.778z"/>
		<polygon fill="#D682ED" points="197.347,276.781 193.337,284.169 197.898,290.533 201.808,283.746 		"/>
		<path fill="#FF8EBD" d="M183.781,288.696c0.463,1.916,0.113,3.703-0.829,3.978c-0.923,0.292-2.065-1.015-2.542-2.937
			c-0.476-1.916-0.113-3.694,0.829-3.984C182.167,285.462,183.304,286.79,183.781,288.696z"/>
		<path fill="#FF8EBD" d="M211.826,287.317c-0.323,1.945,0.187,3.692,1.142,3.892c0.939,0.184,1.98-1.232,2.306-3.188
			c0.311-1.947-0.188-3.693-1.142-3.877C213.18,283.944,212.152,285.359,211.826,287.317z"/>
	</g>
</g>
<g>
	<path fill="#E8E8E8" d="M1152.07,154.675c8.161-15.858,1.783-33.891-11.676-24.853c17.088-13.311,2.401-35.343-12.531-23.862
		c16.613-23.803-0.006-47.957-21.481-22.823c-31.851,37.272-14.029,104.923,5.63,102.317
		C1124.129,183.848,1145.753,166.947,1152.07,154.675z"/>
	<path fill="#F5F5F5" d="M1171.421,178.057c15.251-9.251,19.243-27.958,3.043-27.288c21.527-2.413,20.53-28.873,1.796-26.895
		c26.609-11.604,25.075-40.88-6.374-30.689c-46.638,15.117-66.824,82.1-48.705,90.159
		C1132.352,188.31,1159.621,185.212,1171.421,178.057z"/>
	<g>
		<path fill="#3D392F" d="M1108.678,234.881c0,0,2.227,5.709,0.74,11.266c-0.193,0.696-0.936,4.392,0.701,7.952
			c1.745,3.733,7.008,2.107,8.934-2.954c2.527-6.764-2.855-20.219-2.855-20.219L1108.678,234.881z"/>
		<path fill="#3D392F" d="M1064.24,245.973c0,0-0.126,2.517,2.152,6.631c2.31,4.1,5.207,4.386,8.643,7.088
			c3.438,2.703,3.692,10.302-2.517,9.437c-6.209-0.88-9.659-6.06-12.477-10.29c-2.463-3.697-6.738-13.749-6.738-13.749
			L1064.24,245.973z"/>
	</g>
	<path fill="#71C1E8" d="M1128.046,200.085c3.313,34.575-24.616,51.117-57.935,50.88c-31.086-0.22-41.205-19.09-45.035-42.336
		c-3.828-23.249,2.941-62.11,4.338-65.891c1.396-3.779,2.763-31.461,41.826-33.707c39.071-2.241,48.595,37.056,48.595,37.056
		S1124.729,165.502,1128.046,200.085z"/>
	<path fill="#533E29" d="M1153.346,238.172l30.849,9.882l16.312-43.612l-29.997-12.048l-5.681,15.153l-4.598-2.435l-6.616,15.47
		l5.549,2.077L1153.346,238.172z M1164.064,209.582l-4.107,10.956l-2.79-0.972l4.198-10.853L1164.064,209.582z"/>
	<path fill="#231F20" d="M1040.414,146.775c-1.154,0.31-1.57,2.534-0.926,4.975c0.645,2.438,2.105,4.165,3.263,3.854
		c1.155-0.31,1.57-2.537,0.925-4.975C1043.031,148.191,1041.57,146.464,1040.414,146.775z"/>
	<path fill="#231F20" d="M1070.141,139.989c-1.158,0.31-1.572,2.537-0.924,4.976c0.641,2.44,2.105,4.166,3.258,3.859
		c1.162-0.309,1.574-2.538,0.927-4.978C1072.759,141.405,1071.296,139.679,1070.141,139.989z"/>
	<path fill="#D93637" d="M1063.038,175.79c15.237-4.59,9.764-16.69,9.764-16.69c-10.729,0.663-26.296,7.132-26.296,7.132
		S1047.958,180.333,1063.038,175.79z"/>
	<g>
		<path fill="#3D392F" d="M1145.898,203.589c0,0-0.438,2.128,3.49,9.066c3.932,6.939,10.236,4.586,12.174,0.732
			c1.938-3.856-2.902-7.292-2.902-7.292c2.097,1.345,6.391,1.189,5.108-1.824c-1.282-3.013-12.473-4.103-12.473-4.103
			L1145.898,203.589z"/>
		<path fill="#E6E7E8" d="M1144.592,202.234c0,0,0.123,2.348,1.602,2.611c2.624,0.468,5.615-2.096,6.293-4.131
			c0.678-2.036-2.307-2.893-2.307-2.893L1144.592,202.234z"/>
		<path fill="#71C1E8" d="M1121.828,186.801c7.834,2.855,23.212,15.807,23.212,15.807l0.382-0.051
			c2.379-0.311,4.323-2.046,4.903-4.375l0,0c-9.208-22.69-26.447-27.812-26.447-27.812
			C1118.238,169.824,1113.994,183.947,1121.828,186.801z"/>
	</g>
	<g>
		<path fill="#3D392F" d="M1008.592,158.302c0,0,0.439-2.125-3.49-9.065c-3.93-6.939-10.236-4.586-12.175-0.731
			c-1.935,3.856,2.9,7.295,2.9,7.295c-2.096-1.349-6.387-1.194-5.105,1.822c1.282,3.013,12.472,4.102,12.472,4.102L1008.592,158.302
			z"/>
		<path fill="#E6E7E8" d="M1009.898,159.659c0,0-0.126-2.347-1.602-2.612c-2.625-0.465-5.617,2.096-6.296,4.131
			c-0.675,2.035,2.31,2.893,2.31,2.893L1009.898,159.659z"/>
		<path fill="#71C1E8" d="M1032.661,175.093c-7.833-2.857-23.211-15.809-23.211-15.809l-0.384,0.052
			c-2.378,0.31-4.324,2.043-4.901,4.373l0,0c9.208,22.691,26.447,27.814,26.447,27.814
			C1036.251,192.069,1040.496,177.946,1032.661,175.093z"/>
	</g>
</g>
<g>
	<path fill="#272A2B" d="M892.233,414.323H387.768c-5.685,0-10.294,4.146-10.294,9.26v275.51c0,5.112,4.609,9.259,10.294,9.259
		h504.466c5.684,0,10.293-4.146,10.293-9.259v-275.51C902.526,418.47,897.917,414.323,892.233,414.323z M538.096,455.071
		c-4.465,0-8.084-3.619-8.084-8.082c0-4.465,3.619-8.084,8.084-8.084s8.084,3.619,8.084,8.084
		C546.18,451.452,542.561,455.071,538.096,455.071z M767.001,454.155c-4.465,0-8.084-3.619-8.084-8.082
		c0-4.465,3.619-8.084,8.084-8.084s8.084,3.619,8.084,8.084C775.085,450.536,771.466,454.155,767.001,454.155z"/>
	<g>
		<g>
			<g>
				<path fill="#FFFFFF" d="M556.342,350.911c26.504,0,47.988,22.14,47.988,48.642c0,3.661-0.412,30.447-1.189,32.447h-6.366
					c0.892-2,1.37-28.766,1.37-32.447c0-23.087-18.715-42.129-41.803-42.129c-23.087,0-41.801,19.276-41.801,42.363
					c0,3.681,0.479,8.213,1.369,11.213h-6.365c-0.777-3-1.189-7.715-1.189-11.376C508.356,373.123,529.842,350.911,556.342,350.911z
					"/>
				<path fill="#FFFFFF" d="M556.342,357.096c23.088,0,41.803,18.87,41.803,41.957c0,3.682-0.479,29.947-1.37,31.947h-5.954
					c1.037-2,1.598-28.239,1.598-31.947c0-19.925-16.15-36.154-36.076-36.154c-19.923,0-36.072,16.34-36.072,36.264
					c0,3.707,0.558,7.838,1.597,10.838h-5.956c-0.891-3-1.369-7.194-1.369-10.876C514.541,376.037,533.255,357.096,556.342,357.096z
					"/>
				<g>
					<path fill="#FFFFFF" d="M556.342,362.822c19.926,0,36.076,16.306,36.076,36.23c0,3.708-0.561,29.947-1.598,31.947h-6.786
						c1.272-2,1.97-28.193,1.97-31.947c0-16.382-13.279-29.74-29.662-29.74c-16.381,0-29.66,13.468-29.66,29.85
						c0,3.756,0.698,7.838,1.971,10.838h-6.786c-1.039-3-1.597-7.167-1.597-10.876C520.27,379.199,536.419,362.822,556.342,362.822z
						"/>
					<path fill="#FFFFFF" d="M556.342,362.822c19.926,0,36.076,16.306,36.076,36.23c0,3.708-0.561,29.947-1.598,31.947h-6.786
						c1.272-2,1.97-28.193,1.97-31.947c0-16.382-13.279-29.74-29.662-29.74c-16.381,0-29.66,13.468-29.66,29.85
						c0,3.756,0.698,7.838,1.971,10.838h-6.786c-1.039-3-1.597-7.167-1.597-10.876C520.27,379.199,536.419,362.822,556.342,362.822z
						"/>
				</g>
				<path fill="#FFFFFF" d="M556.342,369.236c16.383,0,29.662,13.435,29.662,29.816c0,3.754-0.697,29.947-1.97,31.947h-7.021
					c1.647-2,2.579-28.109,2.579-31.947c0-12.839-10.409-23.328-23.25-23.328c-12.838,0-23.248,10.599-23.248,23.438
					c0,3.839,0.932,7.838,2.58,10.838h-7.021c-1.272-3-1.971-7.121-1.971-10.876C526.682,382.742,539.961,369.236,556.342,369.236z"
					/>
				<path fill="#FFFFFF" d="M556.342,375.649c12.841,0,23.25,10.564,23.25,23.403c0,3.838-0.932,29.947-2.579,31.947h-7.051
					c2.3-2,3.675-27.929,3.675-31.947c0-9.551-7.743-17.371-17.295-17.371c-9.55,0-17.292,7.93-17.292,17.48
					c0,4.02,1.375,7.838,3.675,10.838h-7.051c-1.648-3-2.58-7.038-2.58-10.876C533.094,386.285,543.504,375.649,556.342,375.649z"/>
			</g>
			<g>
				<path fill="#F9F9F7" d="M556.342,350.911c26.504,0,47.988,22.14,47.988,48.642c0,3.661-0.412,30.447-1.189,32.447h-6.366
					c0.892-2,1.37-28.766,1.37-32.447c0-23.087-18.715-42.129-41.803-42.129c-23.087,0-41.801,19.276-41.801,42.363
					c0,3.681,0.479,8.213,1.369,11.213h-6.365c-0.777-3-1.189-7.715-1.189-11.376C508.356,373.123,529.842,350.911,556.342,350.911z
					"/>
				<path fill="#FFE400" d="M556.342,357.096c23.088,0,41.803,18.87,41.803,41.957c0,3.682-0.479,29.947-1.37,31.947h-5.954
					c1.037-2,1.598-28.239,1.598-31.947c0-19.925-16.15-36.154-36.076-36.154c-19.923,0-36.072,16.34-36.072,36.264
					c0,3.707,0.558,7.838,1.597,10.838h-5.956c-0.891-3-1.369-7.194-1.369-10.876C514.541,376.037,533.255,357.096,556.342,357.096z
					"/>
				<g>
					<path fill="#71C1E8" d="M556.342,362.822c19.926,0,36.076,16.306,36.076,36.23c0,3.708-0.561,29.947-1.598,31.947h-6.786
						c1.272-2,1.97-28.193,1.97-31.947c0-16.382-13.279-29.74-29.662-29.74c-16.381,0-29.66,13.468-29.66,29.85
						c0,3.756,0.698,7.838,1.971,10.838h-6.786c-1.039-3-1.597-7.167-1.597-10.876C520.27,379.199,536.419,362.822,556.342,362.822z
						"/>
				</g>
				<path fill="#FFFFFF" d="M556.342,369.236c16.383,0,29.662,13.435,29.662,29.816c0,3.754-0.697,29.947-1.97,31.947h-7.021
					c1.647-2,2.579-28.109,2.579-31.947c0-12.839-10.409-23.328-23.25-23.328c-12.838,0-23.248,10.599-23.248,23.438
					c0,3.839,0.932,7.838,2.58,10.838h-7.021c-1.272-3-1.971-7.121-1.971-10.876C526.682,382.742,539.961,369.236,556.342,369.236z"
					/>
				<path fill="#FF8EBD" d="M556.342,375.649c12.841,0,23.25,10.564,23.25,23.403c0,3.838-0.932,29.947-2.579,31.947h-7.051
					c2.3-2,3.675-27.929,3.675-31.947c0-9.551-7.743-17.371-17.295-17.371c-9.55,0-17.292,7.93-17.292,17.48
					c0,4.02,1.375,7.838,3.675,10.838h-7.051c-1.648-3-2.58-7.038-2.58-10.876C533.094,386.285,543.504,375.649,556.342,375.649z"/>
			</g>
		</g>
		<g>
			<path fill="#F9F9F7" d="M563.688,425.265c-0.938-15.765,13.547-11.337,14.518-11.064c0.691-5.637,2.795-11.2,11.396-10.121
				c11.36,1.425,11.322,13.645,11.025,14.655c0.721-0.146,14.707,0.85,13.708,12.521c-0.534,6.239-5.224,12.745-11.484,12.745
				s-35.333,0-38.679,0c-4.004,0-7.172-3.416-7.346-8.604C556.58,428.024,563.719,425.783,563.688,425.265z"/>
			<ellipse fill="#FF91AD" cx="594.934" cy="432.709" rx="4.672" ry="3.002"/>
			<ellipse fill="#FF91AD" cx="578.915" cy="432.709" rx="4.672" ry="3.002"/>
			<path fill="none" stroke="#684C40" stroke-width="1.0558" stroke-linecap="round" stroke-miterlimit="10" d="M591.68,425.709
				c0,2.312,1.875,4.187,4.186,4.187c2.312,0,4.186-1.874,4.186-4.187"/>
			<path fill="none" stroke="#684C40" stroke-width="1.0558" stroke-linecap="round" stroke-miterlimit="10" d="M573.717,425.709
				c0,2.312,1.874,4.187,4.186,4.187c2.312,0,4.186-1.874,4.186-4.187"/>
		</g>
		<g>
			<g>
				<g>
					<path fill="#F9F9F7" d="M449.974,419.005c0,0-6.474,5.396-14.298,8.634c-7.825,3.237-15.649,2.698-14.57,7.555
						c1.078,4.856,5.396,8.363,5.396,8.363l29.408-14.031L449.974,419.005z"/>
					<path fill="#F9F9F7" d="M528.486,423.593c0,0,7.825,7.554,18.886,8.632c11.062,1.08,5.128,7.555,3.236,11.332
						c-1.887,3.778-30.485-10.521-30.485-10.521L528.486,423.593z"/>
					<path fill="#F9F9F7" d="M430.01,438.565c10.115-2.427,21.583-14.435,21.583-14.435S447,410,445.922,377.108
						c0.158,0.048,0.312,0.103,0.472,0.147c3.433,1.367,17.418,5.085,20.82,5.429c0.339,4.979,1.782,12.071,6.908,16.221
						c0,0,31.394-13.795,46.541-1.62c11.672,9.382,7.213,30.34,3.644,32.376c0,0,1.633,3.411,6.069,6.611
						c4.524,3.266,11.896,6.332,16.188,7.149c8.5,1.62,1.059,9.523-2.429,12.546c-4.046,3.508-26.306-4.047-34.398-16.998
						l-12.142-4.045c0,0-14.704,7.014-30.352,0.403c0,0-7.285,7.285-22.259,13.355c-14.972,6.069-18.615,5.261-20.639,0.809
						C422.32,445.042,419.893,440.994,430.01,438.565z"/>
				</g>
				<g>
					<g>
						<path fill="#F9F9F7" d="M417.463,371.232c3.295-1.613,6.833-2.703,10.155-4.27c3.67-1.727,20.71-12.128,20.734-12.375
							c-0.322-1.735-1.23-6.87-1.214-7.358c0.098-2.983,2.968-3.87,4.962-2.695c1.188,0.474,1.981,1.788,2.14,3.029
							c0.772,1.403,4.099,7.479,4.941,9.13c1.402,2.753,5.456,31.18,3.485,32.888c-0.791,2.599-19.034,6.038-19.81,6.187
							c-2.421,0.461-4.386,1.827-6.856,1.732c-2.067,0.38-6.899-0.904-9.25-1.5C426.875,396,414.875,372.5,417.463,371.232z"/>
						<path fill="#FFFFFF" d="M420.167,395.378c0.023,0.023,0.049,0.04,0.072,0.063C420.29,395.492,420.229,395.461,420.167,395.378
							z"/>
					</g>
				</g>
				<path fill="#71C1E8" d="M418.125,393.625c-1.967-2.02-3.861-4.152-5.25-6.625c-2.703-4.811,3.912-15.351,4.25-15.375
					c9.213-0.646,10.987,14.323,11.309,21.602C428.667,398.499,419.916,395.464,418.125,393.625z"/>
				<g>
					<path fill="#71C1E8" stroke="#7CC9E8" stroke-miterlimit="10" d="M436.761,361.462c0,0,9.521-0.311,11.266-5.868l-16.324-21.45
						L436.761,361.462z"/>
					
						<path fill="none" stroke="#7CC9E8" stroke-width="1.0014" stroke-linecap="round" stroke-linejoin="round" stroke-miterlimit="10" d="
						M436.257,358.123c0,0-0.506-1.99,2.191-3.338c2.698-1.35,4.824-3.206,4.283-6.173"/>
					
						<path fill="none" stroke="#7CC9E8" stroke-width="1.0014" stroke-linecap="round" stroke-linejoin="round" stroke-miterlimit="10" d="
						M434.536,349.387c0,0,0.809-1.247,2.428-1.786c1.619-0.54,2.226-1.483,2.226-3.643"/>
				</g>
				<path fill="#71C1E8" d="M543.325,403.561c0,0,6.776-2.896,10.927,3.035c3.082,4.405,7.916,2.738,10.523,0.605
					c0,0,2.967,13.692-14.975,15.312L543.325,403.561z"/>
				<path fill="#FFE400" d="M534.219,396.883c0,0,6.071-1.215,9.714,5.464c3.641,6.676,5.692,17.278,11.331,19.02
					c0,0-13.557,4.046-17.808-2.023C533.207,413.273,534.219,396.883,534.219,396.883z"/>
				<path fill="#71C1E8" d="M476.331,390.418c0,0,9.883,8.713,3.174,17.733c-6.713,9.023-15.126,20.408-8.896,23.845
					c4.766,2.629,8.516,0.254,8.972-3.362c0,0,3.769,7.696-2.347,12.205c-6.119,4.511-27.836,3.544-19.129-28.109L476.331,390.418z"
					/>
				<path fill="#FFE400" d="M468.047,366.603c0,0,10.322,9.016,9.746,19.84c-0.864,16.123-16.312,23.201-21.217,33.931
					c-1.229-3.271-0.534-14.962,7.46-29.771c4.13-7.66,3.42-16.756,3.42-16.756L468.047,366.603z"/>
				<path fill="#FF8EBD" d="M458.607,353.606c0,0,9.442,5.212,11.273,15.894c2.662,15.564-10.326,24.743-12.525,37.766
					c-1.938-3.313-5.79-10.648-1.045-26.693c2.465-8.346,2.346-19.696,2.346-19.696L458.607,353.606z"/>
				<path fill="#FF8EBD" d="M520.257,397.285c0,0,2.632-6.475,9.511-4.248s6.727,10.479,9.106,17.604
					c2.501,7.484,5.462,11.536,5.462,11.536s-13.102,1.184-16.793-11.738C524.709,400.523,520.257,397.285,520.257,397.285z"/>
				<path fill="none" stroke="#684C40" stroke-width="1.0014" stroke-linecap="round" stroke-miterlimit="10" d="M440.038,373.351
					c-1.077,2.457,0.042,5.322,2.498,6.397c2.457,1.076,5.322-0.043,6.398-2.501"/>
				<circle fill="#684C40" cx="420.852" cy="384.585" r="1.28"/>
			</g>
			<path fill="#71C1E8" d="M517.591,403c-3.187-1.622-4.482,1.481-4.482,1.481s0.944-3.228-2.552-3.97
				c-3.497-0.743-5.82,5.262-0.03,11.269C518.806,410.752,520.776,404.622,517.591,403z"/>
			<path fill="#FFE400" d="M518.832,413.479c-2.408,0.566-1.707,2.785-1.707,2.785s-0.943-2.128-3.123-0.957
				c-2.181,1.17-0.725,5.382,5.021,5.969C522.939,417.032,521.241,412.911,518.832,413.479z"/>
			<path fill="#FF8EBD" d="M510.533,417.975c-1.668-0.745-2.249,0.873-2.249,0.873s0.398-1.672-1.406-1.961
				c-1.804-0.288-2.834,2.837,0.277,5.752C511.354,421.9,512.201,418.72,510.533,417.975z"/>
		</g>
	</g>
	<text transform="matrix(1 0 0 1 568.0889 564.1035)" font-family="'MyriadPro-Regular'" font-size="38.0498">youtube</text>
	<g>
		<g>
			<g>
				<path fill="#FFFFFF" d="M752.271,349.911c-26.504,0-47.988,22.14-47.988,48.642c0,3.661,0.412,30.447,1.189,32.447h6.366
					c-0.892-2-1.37-28.766-1.37-32.447c0-23.087,18.715-42.129,41.803-42.129c23.087,0,41.801,19.276,41.801,42.363
					c0,3.681-0.479,8.213-1.369,11.213h6.365c0.777-3,1.188-7.715,1.188-11.376C800.257,372.123,778.771,349.911,752.271,349.911z"
					/>
				<path fill="#FFFFFF" d="M752.271,356.096c-23.088,0-41.803,18.87-41.803,41.957c0,3.682,0.479,29.947,1.37,31.947h5.954
					c-1.037-2-1.598-28.239-1.598-31.947c0-19.925,16.15-36.154,36.076-36.154c19.923,0,36.072,16.34,36.072,36.264
					c0,3.707-0.558,7.838-1.597,10.838h5.956c0.891-3,1.369-7.194,1.369-10.876C794.072,375.037,775.358,356.096,752.271,356.096z"
					/>
				<g>
					<path fill="#FFFFFF" d="M752.271,361.822c-19.926,0-36.076,16.306-36.076,36.23c0,3.708,0.561,29.947,1.598,31.947h6.786
						c-1.272-2-1.97-28.193-1.97-31.947c0-16.382,13.279-29.74,29.662-29.74c16.381,0,29.66,13.468,29.66,29.85
						c0,3.756-0.698,7.838-1.971,10.838h6.786c1.039-3,1.597-7.167,1.597-10.876C788.344,378.199,772.194,361.822,752.271,361.822z"
						/>
					<path fill="#FFFFFF" d="M752.271,361.822c-19.926,0-36.076,16.306-36.076,36.23c0,3.708,0.561,29.947,1.598,31.947h6.786
						c-1.272-2-1.97-28.193-1.97-31.947c0-16.382,13.279-29.74,29.662-29.74c16.381,0,29.66,13.468,29.66,29.85
						c0,3.756-0.698,7.838-1.971,10.838h6.786c1.039-3,1.597-7.167,1.597-10.876C788.344,378.199,772.194,361.822,752.271,361.822z"
						/>
				</g>
				<path fill="#FFFFFF" d="M752.271,368.236c-16.383,0-29.662,13.435-29.662,29.816c0,3.754,0.697,29.947,1.97,31.947h7.021
					c-1.647-2-2.579-28.109-2.579-31.947c0-12.839,10.409-23.328,23.25-23.328c12.838,0,23.248,10.599,23.248,23.438
					c0,3.839-0.932,7.838-2.58,10.838h7.021c1.272-3,1.971-7.121,1.971-10.876C781.932,381.742,768.652,368.236,752.271,368.236z"/>
				<path fill="#FFFFFF" d="M752.271,374.649c-12.841,0-23.25,10.564-23.25,23.403c0,3.838,0.932,29.947,2.579,31.947h7.051
					c-2.3-2-3.675-27.929-3.675-31.947c0-9.551,7.743-17.371,17.295-17.371c9.55,0,17.292,7.93,17.292,17.48
					c0,4.02-1.375,7.838-3.675,10.838h7.051c1.648-3,2.58-7.038,2.58-10.876C775.52,385.285,765.109,374.649,752.271,374.649z"/>
			</g>
			<g>
				<path fill="#F9F9F7" d="M752.271,349.911c-26.504,0-47.988,22.14-47.988,48.642c0,3.661,0.412,30.447,1.189,32.447h6.366
					c-0.892-2-1.37-28.766-1.37-32.447c0-23.087,18.715-42.129,41.803-42.129c23.087,0,41.801,19.276,41.801,42.363
					c0,3.681-0.479,8.213-1.369,11.213h6.365c0.777-3,1.188-7.715,1.188-11.376C800.257,372.123,778.771,349.911,752.271,349.911z"
					/>
				<path fill="#FFE400" d="M752.271,356.096c-23.088,0-41.803,18.87-41.803,41.957c0,3.682,0.479,29.947,1.37,31.947h5.954
					c-1.037-2-1.598-28.239-1.598-31.947c0-19.925,16.15-36.154,36.076-36.154c19.923,0,36.072,16.34,36.072,36.264
					c0,3.707-0.558,7.838-1.597,10.838h5.956c0.891-3,1.369-7.194,1.369-10.876C794.072,375.037,775.358,356.096,752.271,356.096z"
					/>
				<g>
					<path fill="#71C1E8" d="M752.271,361.822c-19.926,0-36.076,16.306-36.076,36.23c0,3.708,0.561,29.947,1.598,31.947h6.786
						c-1.272-2-1.97-28.193-1.97-31.947c0-16.382,13.279-29.74,29.662-29.74c16.381,0,29.66,13.468,29.66,29.85
						c0,3.756-0.698,7.838-1.971,10.838h6.786c1.039-3,1.597-7.167,1.597-10.876C788.344,378.199,772.194,361.822,752.271,361.822z"
						/>
				</g>
				<path fill="#FFFFFF" d="M752.271,368.236c-16.383,0-29.662,13.435-29.662,29.816c0,3.754,0.697,29.947,1.97,31.947h7.021
					c-1.647-2-2.579-28.109-2.579-31.947c0-12.839,10.409-23.328,23.25-23.328c12.838,0,23.248,10.599,23.248,23.438
					c0,3.839-0.932,7.838-2.58,10.838h7.021c1.272-3,1.971-7.121,1.971-10.876C781.932,381.742,768.652,368.236,752.271,368.236z"/>
				<path fill="#FF8EBD" d="M752.271,374.649c-12.841,0-23.25,10.564-23.25,23.403c0,3.838,0.932,29.947,2.579,31.947h7.051
					c-2.3-2-3.675-27.929-3.675-31.947c0-9.551,7.743-17.371,17.295-17.371c9.55,0,17.292,7.93,17.292,17.48
					c0,4.02-1.375,7.838-3.675,10.838h7.051c1.648-3,2.58-7.038,2.58-10.876C775.52,385.285,765.109,374.649,752.271,374.649z"/>
			</g>
		</g>
		<g>
			<path fill="#F9F9F7" d="M744.926,424.265c0.938-15.765-13.547-11.337-14.518-11.064c-0.691-5.637-2.795-11.2-11.396-10.121
				c-11.36,1.425-11.322,13.645-11.025,14.655c-0.721-0.146-14.707,0.85-13.708,12.521c0.534,6.239,5.224,12.745,11.484,12.745
				s35.333,0,38.679,0c4.004,0,7.172-3.416,7.346-8.604C752.033,427.024,744.895,424.783,744.926,424.265z"/>
			<ellipse fill="#FF91AD" cx="713.68" cy="431.709" rx="4.672" ry="3.002"/>
			<ellipse fill="#FF91AD" cx="729.698" cy="431.709" rx="4.672" ry="3.002"/>
			<path fill="none" stroke="#684C40" stroke-width="1.0558" stroke-linecap="round" stroke-miterlimit="10" d="M716.934,424.709
				c0,2.312-1.875,4.187-4.186,4.187c-2.312,0-4.186-1.874-4.186-4.187"/>
			<path fill="none" stroke="#684C40" stroke-width="1.0558" stroke-linecap="round" stroke-miterlimit="10" d="M734.896,424.709
				c0,2.312-1.874,4.187-4.186,4.187c-2.312,0-4.186-1.874-4.186-4.187"/>
		</g>
		<g>
			<g>
				<g>
					<path fill="#F9F9F7" d="M858.639,418.005c0,0,6.475,5.396,14.299,8.634s15.648,2.698,14.57,7.555s-5.396,8.363-5.396,8.363
						l-29.408-14.031L858.639,418.005z"/>
					<path fill="#F9F9F7" d="M780.127,422.593c0,0-7.825,7.554-18.886,8.632c-11.062,1.08-5.128,7.555-3.236,11.332
						c1.887,3.778,30.485-10.521,30.485-10.521L780.127,422.593z"/>
					<path fill="#F9F9F7" d="M878.604,437.565c-10.115-2.427-21.584-14.435-21.584-14.435s4.594-14.131,5.672-47.022
						c-0.158,0.048-0.312,0.103-0.472,0.147c-3.433,1.367-17.418,5.085-20.819,5.429c-0.34,4.979-1.782,12.071-6.908,16.221
						c0,0-31.395-13.795-46.541-1.62c-11.672,9.382-7.213,30.34-3.644,32.376c0,0-1.633,3.411-6.069,6.611
						c-4.524,3.266-11.896,6.332-16.188,7.149c-8.5,1.62-1.059,9.523,2.429,12.546c4.046,3.508,26.306-4.047,34.398-16.998
						l12.142-4.045c0,0,14.704,7.014,30.352,0.403c0,0,7.285,7.285,22.26,13.355c14.973,6.069,18.615,5.261,20.639,0.809
						C886.293,444.042,888.721,439.994,878.604,437.565z"/>
				</g>
				<g>
					<g>
						<path fill="#F9F9F7" d="M891.15,370.232c-3.295-1.613-6.833-2.703-10.156-4.27c-3.67-1.727-20.709-12.128-20.733-12.375
							c0.322-1.735,1.229-6.87,1.214-7.358c-0.098-2.983-2.969-3.87-4.962-2.695c-1.188,0.474-1.981,1.788-2.14,3.029
							c-0.772,1.403-4.1,7.479-4.941,9.13c-1.401,2.753-5.455,31.18-3.484,32.888c0.791,2.599,19.033,6.038,19.811,6.187
							c2.42,0.461,4.386,1.827,6.855,1.732c2.066,0.38,6.898-0.904,9.25-1.5C881.738,395,893.738,371.5,891.15,370.232z"/>
						<path fill="#FFFFFF" d="M888.445,394.378c-0.022,0.023-0.049,0.04-0.072,0.063
							C888.324,394.492,888.385,394.461,888.445,394.378z"/>
					</g>
				</g>
				<path fill="#71C1E8" d="M890.488,392.625c1.967-2.02,3.861-4.152,5.25-6.625c2.703-4.811-3.912-15.351-4.25-15.375
					c-9.213-0.646-10.986,14.323-11.309,21.602C879.945,397.499,888.697,394.464,890.488,392.625z"/>
				<g>
					<path fill="#71C1E8" stroke="#7CC9E8" stroke-miterlimit="10" d="M871.852,360.462c0,0-9.521-0.311-11.266-5.868l16.324-21.45
						L871.852,360.462z"/>
					
						<path fill="none" stroke="#7CC9E8" stroke-width="1.0014" stroke-linecap="round" stroke-linejoin="round" stroke-miterlimit="10" d="
						M872.356,357.123c0,0,0.506-1.99-2.191-3.338c-2.698-1.35-4.823-3.206-4.283-6.173"/>
					
						<path fill="none" stroke="#7CC9E8" stroke-width="1.0014" stroke-linecap="round" stroke-linejoin="round" stroke-miterlimit="10" d="
						M874.077,348.387c0,0-0.809-1.247-2.429-1.786c-1.618-0.54-2.226-1.483-2.226-3.643"/>
				</g>
				<path fill="#71C1E8" d="M765.288,402.561c0,0-6.776-2.896-10.927,3.035c-3.082,4.405-7.916,2.738-10.523,0.605
					c0,0-2.967,13.692,14.975,15.312L765.288,402.561z"/>
				<path fill="#FFE400" d="M774.395,395.883c0,0-6.071-1.215-9.714,5.464c-3.641,6.676-5.692,17.278-11.331,19.02
					c0,0,13.557,4.046,17.808-2.023C775.406,412.273,774.395,395.883,774.395,395.883z"/>
				<path fill="#71C1E8" d="M832.282,389.418c0,0-9.883,8.713-3.175,17.733c6.714,9.023,15.127,20.408,8.896,23.845
					c-4.766,2.629-8.516,0.254-8.972-3.362c0,0-3.769,7.696,2.347,12.205c6.119,4.511,27.837,3.544,19.129-28.109L832.282,389.418z"
					/>
				<path fill="#FFE400" d="M840.566,365.603c0,0-10.322,9.016-9.746,19.84c0.865,16.123,16.312,23.201,21.218,33.931
					c1.229-3.271,0.534-14.962-7.46-29.771c-4.13-7.66-3.42-16.756-3.42-16.756L840.566,365.603z"/>
				<path fill="#FF8EBD" d="M850.006,352.606c0,0-9.441,5.212-11.272,15.894c-2.662,15.564,10.325,24.743,12.525,37.766
					c1.938-3.313,5.79-10.648,1.045-26.693c-2.466-8.346-2.347-19.696-2.347-19.696L850.006,352.606z"/>
				<path fill="#FF8EBD" d="M788.356,396.285c0,0-2.632-6.475-9.511-4.248s-6.727,10.479-9.106,17.604
					c-2.501,7.484-5.462,11.536-5.462,11.536s13.102,1.184,16.793-11.738C783.904,399.523,788.356,396.285,788.356,396.285z"/>
				<path fill="none" stroke="#684C40" stroke-width="1.0014" stroke-linecap="round" stroke-miterlimit="10" d="M868.575,372.351
					c1.077,2.457-0.042,5.322-2.498,6.397c-2.456,1.076-5.321-0.043-6.397-2.501"/>
				<circle fill="#684C40" cx="887.761" cy="383.585" r="1.28"/>
			</g>
			<path fill="#71C1E8" d="M791.022,402c3.187-1.622,4.482,1.481,4.482,1.481s-0.944-3.228,2.552-3.97
				c3.498-0.743,5.82,5.262,0.03,11.269C789.808,409.752,787.837,403.622,791.022,402z"/>
			<path fill="#FFE400" d="M789.781,412.479c2.408,0.566,1.707,2.785,1.707,2.785s0.943-2.128,3.123-0.957
				c2.181,1.17,0.725,5.382-5.021,5.969C785.674,416.032,787.372,411.911,789.781,412.479z"/>
			<path fill="#FF8EBD" d="M798.08,416.975c1.668-0.745,2.25,0.873,2.25,0.873s-0.398-1.672,1.405-1.961
				c1.804-0.288,2.834,2.837-0.276,5.752C797.26,420.9,796.412,417.72,798.08,416.975z"/>
		</g>
	</g>
	<g>
		<g>
			<path fill="#F9F9F7" d="M588.389,370.236c-0.717-2.045-1.386-4.112-1.998-6.205c-1.924-6.572-3.512-13.241-5.336-19.838
				l-1.502,0.12c0,0-16.002,4.48-28.162,11.521l10.24,8.963l-1.279,17.281C560.352,382.078,573.858,375.499,588.389,370.236z"/>
			<polygon fill="#F9F9F7" points="576.354,366.396 588.388,370.236 583.074,357.115 			"/>
		</g>
		<g>
			<path fill="#F9F9F7" d="M709.612,370.236c0.715-2.045,1.386-4.112,1.997-6.205c1.923-6.572,3.513-13.241,5.337-19.838l1.502,0.12
				c0,0,16.001,4.48,28.162,11.521l-10.241,8.963l1.28,17.281C737.649,382.078,724.144,375.499,709.612,370.236z"/>
			<polygon fill="#F9F9F7" points="721.647,366.396 709.612,370.236 714.927,357.115 			"/>
		</g>
		<path fill="#F9F9F7" d="M649,323.378c-55.365,0-82.521,15.368-82.521,15.368l9.95,27.463c0,0,31.965-10.784,72.57-10.784
			c40.604,0,72.571,10.784,72.571,10.784l9.95-27.463C731.521,338.746,702.446,323.378,649,323.378z"/>
	</g>
</g>
</svg>
