<?xml version="1.0" encoding="utf-8"?>
<!-- Generator: Adobe Illustrator 16.0.0, SVG Export Plug-In . SVG Version: 6.00 Build 0)  -->
<!DOCTYPE svg PUBLIC "-//W3C//DTD SVG 1.1//EN" "http://www.w3.org/Graphics/SVG/1.1/DTD/svg11.dtd">
<svg version="1.1" id="Layer_1" xmlns="http://www.w3.org/2000/svg" xmlns:xlink="http://www.w3.org/1999/xlink" x="0px" y="0px"
	 width="1280px" height="720px" viewBox="0 0 1280 720" enable-background="new 0 0 1280 720" xml:space="preserve">
<g id="sky">
	
		<linearGradient id="SVGID_1_" gradientUnits="userSpaceOnUse" x1="783" y1="-101.7969" x2="783" y2="-493.0347" gradientTransform="matrix(1 0 0 1 -143 494.5)">
		<stop  offset="0" style="stop-color:#FFE899"/>
		<stop  offset="0.1062" style="stop-color:#FFE9CF"/>
		<stop  offset="0.2606" style="stop-color:#FFFFDB"/>
		<stop  offset="0.442" style="stop-color:#EDFFED"/>
		<stop  offset="0.6486" style="stop-color:#E0FFFA"/>
		<stop  offset="0.8342" style="stop-color:#DBFFFF"/>
		<stop  offset="1" style="stop-color:#B0E7FF"/>
	</linearGradient>
	<polygon fill="url(#SVGID_1_)" points="0,0 0,622.371 1280,615.5 1280,0 	"/>
</g>
<g id="cloud1_1_">
	
		<linearGradient id="SVGID_2_" gradientUnits="userSpaceOnUse" x1="1169.3574" y1="-197.082" x2="1169.3574" y2="-285.1963" gradientTransform="matrix(1 0 0 1 -143 494.5)">
		<stop  offset="0" style="stop-color:#9FC7D3"/>
		<stop  offset="0.3154" style="stop-color:#C0D5DF"/>
		<stop  offset="0.7674" style="stop-color:#E9E6EE"/>
		<stop  offset="1" style="stop-color:#F9EDF4"/>
	</linearGradient>
	<path fill="url(#SVGID_2_)" d="M1131.979,264.876c-1.627-3.062-3.573-6.06-5.758-6.553c-1.666-3.215-3.856-5.641-6.265-5.641
		c-2.667,0-5.066,2.155-6.797,5.981c-0.207-3.121-1.386-5.656-2.876-5.656c-0.602,0-1.128,0.43-1.591,1.078
		c-0.839-8.768-4.413-15.386-8.707-15.386c-1.087,0-2.12,0.479-3.087,1.251c0.657-2.606,1.062-5.545,1.062-8.723
		c0-10.102-3.771-18.292-8.421-18.292c-2.35,0-4.466,2.088-5.996,5.453c-0.575-1.237-1.289-2.159-2.078-2.74
		c0.151-1.979,0.078-4.274-0.506-5.883c-0.263-0.719-0.524-1.434-0.784-2.157c-0.692-1.889-1.389-3.356-2.538-4.005
		c-0.115-0.064-0.247-0.081-0.368-0.126c0.188-2.587-0.171-5.286-1.146-7.365c-0.256-0.549-0.516-1.097-0.771-1.647
		c-0.339-0.722-0.75-1.26-1.19-1.677c-0.476-1.166-1.004-2.228-1.553-3.226c-0.009-0.692-0.043-1.374-0.144-1.999
		c-0.682-4.336-2.961-7.596-5.226-6.096c-0.604,0.408-1.206,0.808-1.813,1.207c-0.016,0.016-0.028,0.031-0.046,0.041
		c-0.566-0.15-1.142-0.25-1.727-0.25c-0.172,0-0.34,0.055-0.512,0.063c-0.655-1.126-1.526-1.857-2.627-1.857
		c-2.144,0-3.438,2.699-3.899,5.964c-1.464,1.86-2.769,4.252-3.835,7.094c-0.215-0.06-0.421-0.134-0.652-0.134
		c-3.413,0-4.698,6.801-3.849,11.915c-1.27,0.059-2.375,1.392-3.102,3.411c-1.947-4.955-4.809-8.167-8.043-8.167
		c-5.592,0-10.172,9.428-10.562,21.359c-0.434-0.311-0.905-0.518-1.445-0.518c-0.756,0-1.392,0.36-1.938,0.937
		c-0.438-0.625-1.03-1.003-1.529-1.097c-0.191-0.421-0.41-0.796-0.68-1.079c-0.237-0.25-0.479-0.505-0.715-0.746
		c-0.721-0.762-1.521-1.077-2.317-0.623c-0.063,0.037-0.128,0.1-0.188,0.149c-0.181-0.19-0.367-0.342-0.569-0.428
		c-0.622-0.265-1.256-0.391-1.879-0.05c-0.108-0.346-0.227-0.678-0.374-0.979l-0.36-0.744c-0.199-0.409-0.437-0.729-0.687-1.002
		c-0.264-1.041-0.636-1.939-1.146-2.552c-0.645-0.776-1.595-1.1-2.318-0.624c-0.104,0.072-0.205,0.174-0.304,0.259
		c-0.084-0.403-0.167-0.795-0.248-1.192c-0.267-0.927-0.624-1.668-1.077-2.217c-0.442-0.685-1.019-1.166-1.566-1.355
		c-0.361-0.126-0.721-0.202-1.077-0.212c-1.588-2.33-3.498-3.688-5.56-3.688c-2.203,0-4.233,1.569-5.879,4.214
		c-0.079-0.008-0.152-0.048-0.236-0.048c-0.391,0-0.816,0.197-1.211,0.543c-0.946-0.791-2.002-0.566-2.884,0.688
		c-0.098,0.142-0.204,0.263-0.312,0.375c-0.583,0.539-1.097,1.362-1.427,2.526c-0.013,0.044-0.021,0.112-0.032,0.168
		c-1.064,0.724-1.791,2.367-2.052,4.381c-0.074,0.138-0.147,0.262-0.217,0.409c-0.115-0.045-0.227-0.115-0.344-0.136
		c-0.351-0.746-0.795-1.338-1.324-1.708c-0.592-0.41-1.185-0.822-1.775-1.233c-0.711-0.499-1.683-0.143-2.316,0.619
		c-0.094,0.115-0.182,0.273-0.273,0.42c-0.461,0.019-0.92,0.283-1.33,0.873c-0.865,1.229-1.775,2.292-2.731,3.202
		c-0.612,0.586-1.139,2.162-1.35,3.486c-0.795,0.314-1.519,1.218-1.88,2.822c-0.461,2.028-0.738,4.136-0.775,6.283
		c-0.361,0.063-0.714,0.275-1.05,0.596c-0.427-0.155-0.867-0.137-1.336,0.056c-0.675,0.277-1.349,0.554-2.021,0.833
		c-0.709,0.294-1.442,1.588-1.799,2.836c-0.125,0.443-0.213,0.963-0.285,1.509c-0.222,0.409-0.425,0.897-0.589,1.422
		c-0.081,0.104-0.169,0.198-0.248,0.299c-0.714-0.405-1.464-0.247-2.148,0.453c-0.558-0.022-1.118,0.226-1.592,0.801
		c-0.359,0.431-0.695,1.11-0.96,1.881c-0.127-0.028-0.252-0.073-0.381-0.059c-0.58,0.049-1.229,0.369-1.727,1.079
		c-0.619,0.197-1.293,0.985-1.675,1.777c-0.391,0.793-0.705,1.978-0.828,3.156c-0.121-0.105-0.241-0.191-0.372-0.25
		c-0.267-0.075-0.53-0.151-0.802-0.221c-0.541,0-1.047,0.284-1.519,0.844c-0.536,0.496-1.073,0.988-1.614,1.483
		c-0.565,0.53-1.065,1.958-1.301,3.207c-0.023,0.004-0.055,0.015-0.086,0.019c-0.747-1.243-1.707-1.74-2.607-1.359
		c-0.72-0.366-1.498-0.03-2.147,0.765c-0.107-0.171-0.224-0.314-0.345-0.446c-0.665-0.725-1.585-1.233-2.315-0.62
		c-0.263,0.22-0.528,0.375-0.803,0.507c-0.246,0.018-0.493,0.018-0.742-0.042c-0.464-0.101-1.012,0.269-1.477,0.82
		c-0.609-0.098-1.253,0.14-1.856,0.684c-1.783,1.582-3.447,4.979-4.987,7.406c-0.023,0-0.046,1.374-0.069,1.374h-0.501
		c-0.802,0-1.578-0.908-2.145,0.25c-0.028-0.02-0.052-0.862-0.075-0.88c-1.037-0.673-2.184-0.873-3.166,0.049
		c-0.522-0.351-1.098-0.615-1.688-0.304c-0.335,0.174-0.668,0.25-1.003,0.43c-0.101,0.049-0.199,0.154-0.297,0.312
		c-0.121-0.074-0.241-0.175-0.362-0.271c-0.588-0.479-1.438,1.978-2.048,2.528c-0.529,0.208-1.029,3.626-1.441,3.626h46.941h96.462
		h69.635C1132.605,268.792,1132.316,265.515,1131.979,264.876z"/>
</g>
<g id="cloud1">
	
		<linearGradient id="SVGID_3_" gradientUnits="userSpaceOnUse" x1="295.2817" y1="-287.0195" x2="295.2817" y2="-395.9277" gradientTransform="matrix(1 0 0 1 -143 494.5)">
		<stop  offset="0" style="stop-color:#9FC7D3"/>
		<stop  offset="0.3154" style="stop-color:#C0D5DF"/>
		<stop  offset="0.7674" style="stop-color:#E9E6EE"/>
		<stop  offset="1" style="stop-color:#F9EDF4"/>
	</linearGradient>
	<path fill="url(#SVGID_3_)" d="M288.948,167.263c-2.105-3.785-4.625-7.489-7.451-8.1c-2.156-3.973-4.99-6.972-8.105-6.972
		c-3.451,0-6.556,2.665-8.795,7.393c-0.268-3.857-1.794-6.991-3.721-6.991c-0.777,0-1.46,0.532-2.059,1.332
		c-1.085-10.836-5.711-19.016-11.266-19.016c-1.407,0-2.745,0.593-3.995,1.547c0.851-3.221,1.374-6.854,1.374-10.78
		c0-12.485-4.879-22.607-10.895-22.607c-3.038,0-5.778,2.581-7.758,6.739c-0.745-1.528-1.669-2.668-2.689-3.387
		c0.196-2.445,0.102-5.283-0.655-7.271c-0.338-0.889-0.678-1.772-1.015-2.666c-0.896-2.334-1.795-4.148-3.284-4.951
		c-0.151-0.079-0.32-0.1-0.476-0.156c0.241-3.197-0.222-6.532-1.483-9.102c-0.333-0.68-0.667-1.356-0.997-2.036
		c-0.438-0.893-0.969-1.558-1.541-2.073c-0.615-1.44-1.299-2.753-2.01-3.987c-0.01-0.855-0.055-1.698-0.184-2.47
		c-0.882-5.359-3.831-9.388-6.761-7.535c-0.78,0.505-1.561,0.999-2.348,1.492c-0.019,0.02-0.038,0.039-0.059,0.051
		c-0.733-0.186-1.477-0.309-2.234-0.309c-0.222,0-0.439,0.067-0.661,0.079c-0.85-1.392-1.976-2.296-3.398-2.296
		c-2.774,0-4.45,3.335-5.048,7.372c-1.894,2.299-3.581,5.255-4.962,8.768c-0.278-0.074-0.544-0.167-0.844-0.167
		c-4.417,0-6.08,8.405-4.98,14.726c-1.641,0.074-3.072,1.721-4.011,4.216c-2.521-6.123-6.222-10.093-10.407-10.093
		c-7.236,0-13.163,11.653-13.667,26.398c-0.561-0.384-1.171-0.64-1.871-0.64c-0.977,0-1.799,0.445-2.508,1.156
		c-0.564-0.772-1.333-1.24-1.979-1.355c-0.249-0.521-0.531-0.983-0.879-1.333c-0.307-0.309-0.619-0.625-0.925-0.922
		c-0.931-0.942-1.97-1.331-2.999-0.77c-0.082,0.044-0.166,0.123-0.244,0.185c-0.235-0.235-0.477-0.423-0.738-0.529
		c-0.805-0.328-1.625-0.483-2.432-0.062c-0.139-0.427-0.291-0.838-0.484-1.21l-0.466-0.919c-0.258-0.506-0.564-0.901-0.889-1.239
		c-0.339-1.286-0.822-2.397-1.484-3.153c-0.833-0.96-2.062-1.36-2.999-0.771c-0.136,0.088-0.267,0.214-0.394,0.321
		c-0.108-0.498-0.216-0.983-0.322-1.475c-0.344-1.145-0.807-2.061-1.393-2.739c-0.574-0.847-1.318-1.441-2.028-1.675
		c-0.468-0.156-0.932-0.25-1.394-0.262c-2.055-2.879-4.525-4.559-7.192-4.559c-2.851,0-5.479,1.939-7.608,5.209
		c-0.101-0.011-0.198-0.06-0.307-0.06c-0.504,0-1.056,0.244-1.566,0.672c-1.224-0.977-2.588-0.7-3.729,0.851
		c-0.127,0.175-0.265,0.325-0.407,0.463c-0.754,0.666-1.418,1.684-1.845,3.122c-0.015,0.055-0.026,0.139-0.042,0.208
		c-1.375,0.895-2.317,2.926-2.654,5.415c-0.096,0.17-0.19,0.323-0.279,0.505c-0.149-0.056-0.293-0.142-0.444-0.167
		c-0.454-0.921-1.029-1.655-1.714-2.112c-0.765-0.508-1.532-1.016-2.298-1.524c-0.921-0.616-2.176-0.176-2.998,0.766
		c-0.121,0.142-0.235,0.338-0.355,0.52c-0.595,0.023-1.189,0.351-1.721,1.078c-1.12,1.519-2.296,2.832-3.534,3.958
		c-0.793,0.724-1.474,2.672-1.746,4.309c-1.029,0.388-1.965,1.505-2.434,3.488c-0.595,2.506-0.955,5.112-1.003,7.765
		c-0.468,0.077-0.924,0.339-1.358,0.735c-0.551-0.192-1.123-0.169-1.729,0.07c-0.871,0.343-1.744,0.684-2.613,1.029
		c-0.918,0.364-1.868,1.963-2.328,3.506c-0.161,0.548-0.275,1.19-0.369,1.866c-0.288,0.505-0.55,1.108-0.762,1.758
		c-0.105,0.128-0.219,0.245-0.322,0.369c-0.924-0.5-1.895-0.305-2.779,0.56c-0.722-0.027-1.448,0.279-2.061,0.991
		c-0.466,0.532-0.901,1.372-1.242,2.325c-0.164-0.035-0.326-0.091-0.493-0.073c-0.75,0.061-1.59,0.456-2.233,1.333
		c-0.801,0.244-1.673,1.218-2.167,2.197c-0.504,0.98-0.913,2.443-1.071,3.9c-0.156-0.13-0.312-0.235-0.482-0.309
		c-0.344-0.092-0.687-0.187-1.035-0.272c-0.7,0-1.355,0.352-1.964,1.044c-0.695,0.612-1.389,1.221-2.089,1.833
		c-0.732,0.654-1.381,2.421-1.684,3.963c-0.032,0.005-0.071,0.019-0.11,0.023c-0.967-1.536-2.209-2.15-3.375-1.68
		c-0.931-0.453-1.939-0.037-2.78,0.945c-0.138-0.212-0.289-0.389-0.444-0.551c-0.862-0.896-2.051-1.524-2.997-0.766
		c-0.34,0.271-0.684,0.463-1.039,0.627c-0.319,0.021-0.638,0.021-0.961-0.052c-0.6-0.125-1.31,0.333-1.909,1.014
		c-0.79-0.122-1.621,0.172-2.402,0.845c-2.308,1.956-4.461,6.153-6.454,9.153c-0.031,0-0.06,1.698-0.09,1.698h-0.649
		c-1.035,0-2.042-1.122-2.773,0.308c-0.036-0.024-0.066-1.064-0.097-1.087c-1.344-0.832-2.825-1.079-4.099,0.06
		c-0.675-0.434-1.418-0.76-2.182-0.376c-0.433,0.216-0.864,0.311-1.297,0.532c-0.129,0.061-0.258,0.191-0.384,0.387
		c-0.156-0.093-0.312-0.216-0.468-0.334c-0.762-0.592-1.861,2.444-2.65,3.124c-0.685,0.256-1.332,4.481-1.865,4.481h60.738h124.814
		h90.101C289.759,172.102,289.383,168.053,288.948,167.263z"/>
</g>
<g id="skyy">
	
		<linearGradient id="SVGID_4_" gradientUnits="userSpaceOnUse" x1="493.5601" y1="183.1113" x2="493.5598" y2="-385.9897" gradientTransform="matrix(1 0 0 1 -143 494.5)">
		<stop  offset="0" style="stop-color:#9FC7D3"/>
		<stop  offset="0.3154" style="stop-color:#C0D5DF"/>
		<stop  offset="0.7674" style="stop-color:#E9E6EE"/>
		<stop  offset="1" style="stop-color:#F9EDF4"/>
	</linearGradient>
	<path fill="url(#SVGID_4_)" d="M675.452,311.177c-7.855,0-14.771,3.952-18.677,9.815c-1.688,0.092-3.306,0.355-4.896,0.766
		c-1.188-12.302-13.229-22.267-25.784-22.267c-6.648,0-12.508,2.441-16.965,6.396c-0.56-0.051-1.129-0.062-1.705-0.062
		c-4.576,0-8.709,1.486-11.684,3.855c-1.295-7.347-9.188-13.435-19.965-16.062c-0.307-2.214-0.979-4.25-2.062-6.258
		c-1.045-3.122-2.829-5.669-5.353-7.95c-2.348-2.456-5.121-3.624-8.326-4.639c-3.082-1.577-6.406-1.284-9.971-1.284h-1.061
		c-0.761,0-1.514-0.836-2.257-0.772c-3.479-1.511-7.739-3.156-12.358-3.156c-4.843,0-9.293,0.924-12.854,2.563
		c-0.194-0.437-0.403-0.888-0.632-1.312c-1.043-3.123-2.827-5.82-5.354-8.104c-2.346-2.458-5.122-3.634-8.328-4.646
		c-3.084-1.582-6.4-1.566-9.969-1.566h-1.059c-4.668,0-9.022,0.562-13.062,2.842c-1.745,1.314-3.489,2.287-5.232,3.604
		c-3.204,3.145-5.429,6.75-6.651,11.016c-0.218,1.583-0.438,3.16-0.655,4.742c-0.146-0.146-0.298-0.212-0.455-0.354
		c-2.345-2.453-5.121-3.043-8.328-4.06c-3.084-1.579-6.4-0.787-9.968-0.787h-1.058c-4.67,0-9.024-0.226-13.062,2.054
		c-1.746,1.312-3.488,1.705-5.231,3.021c-2.659,2.604-4.626,5.395-5.93,8.771c-0.077,0-0.151-0.074-0.23-0.074
		c-2.629,0-5.146,0.385-7.493,1.01c-1.695-1.232-3.562-1.655-5.611-2.303c-3.083-1.578-6.4-3.477-9.968-1.477h-1.055
		c-4.671,0-9.025,0.436-13.062,2.711c-1.746,1.312-3.489,2.085-5.234,3.396c-3.207,3.145-5.429,6.759-6.657,11.021
		c-0.209,1.536-0.421,3.025-0.633,4.562c-0.477,0.428-0.937,0.846-1.372,1.307c-2.808-1.734-6.271-2.777-10.019-2.777
		c-0.68,0-1.352,0.032-2.008,0.102c-0.271-0.339-0.542-0.688-0.81-1.023c-3.229-3.122-7.036-5.281-11.419-6.479
		c-2.292-0.305-4.586-0.604-6.88-0.899c-2.055-0.077-4.021,0.146-5.913,0.633c-3.35-8.264-13.68-14.285-25.904-14.285
		c-8.48,0-16.047,2.896-21.006,7.426c-2.249-4.863-7.436-8.854-14.146-11c0.021-0.297,0.028-0.602,0.028-0.896
		c0-7.062-4.64-13.128-11.297-15.838c-3.575-9.417-15.189-16.319-28.963-16.319c-2.358,0-4.654,0.202-6.856,0.588
		c1.104-2.339,1.716-4.907,1.716-7.601c0-10.88-9.982-19.708-22.3-19.708c-0.459,0-0.907,0.036-1.36,0.062
		c-1.355-7.94-7.211-14.734-14.631-18.234c0.518-1.137,0.964-2.314,1.319-3.543c0.307-2.232,0.614-4.464,0.924-6.696
		c-0.015-4.548-1.193-8.791-3.534-12.72l-4.047-5.099c-2.001-2.099-4.324-3.668-6.959-4.716
		c-1.804-9.836-11.659-17.575-21.899-17.575c-7.857,0-14.416,3.957-18.326,9.818c-3.941,0.22-7.642,1.302-11.098,3.251
		c-1.675,1.26-3.35,2.521-5.025,3.779c-2.419,2.19-4.13,4.784-5.131,7.778c-1.554,2.882-2.267,5.986-2.137,9.313
		c-0.013,0.358-0.012,0.711-0.007,1.065c-0.416,0.249-0.832,0.505-1.232,0.777c-1.286-0.58-2.623-1.075-4.027-1.458
		c-2.293-0.298-4.586-0.601-6.879-0.898c-3.194-0.119-6.197,0.456-9.009,1.715c-0.995-0.091-2.002-0.152-3.029-0.152
		c-2.405,0-4.73,0.255-6.938,0.729c0.931-2.028,1.437-4.197,1.437-6.452c0-11.281-12.556-20.427-28.053-20.427
		c-10.561,0-19.743,4.252-24.531,10.526c-4.516-3.047-10.171-4.841-16.157-4.841c-7.6,0-15.322,0.561-19.843,5.238L0,720h701.826
		l-9.101-400.581C687.631,314.688,681.902,311.177,675.452,311.177z"/>
	
		<linearGradient id="SVGID_5_" gradientUnits="userSpaceOnUse" x1="5151.1787" y1="184.2637" x2="5151.1787" y2="-369.4121" gradientTransform="matrix(-1 0 0 1 6099.5918 494.5)">
		<stop  offset="0" style="stop-color:#9FC7D3"/>
		<stop  offset="0.3154" style="stop-color:#C0D5DF"/>
		<stop  offset="0.7674" style="stop-color:#E9E6EE"/>
		<stop  offset="1" style="stop-color:#F9EDF4"/>
	</linearGradient>
	<path fill="url(#SVGID_5_)" d="M639.22,317.995c7.438,0,13.979,3.74,17.672,9.288c1.599,0.087,3.122,0.337,4.639,0.725
		c1.123-11.64,12.519-21.062,24.396-21.062c6.297,0,11.835,2.311,16.053,6.051c0.528-0.043,1.066-0.059,1.612-0.059
		c4.329,0,8.24,1.4,11.056,3.646c1.229-6.944,8.692-12.707,18.896-15.19c0.284-2.1,0.924-4.021,1.95-5.926
		c0.982-2.949,2.677-5.361,5.062-7.521c2.218-2.324,4.848-3.354,7.879-4.313c2.916-1.49,6.062-1.14,9.438-1.14h0.999
		c0.719,0,1.432-0.866,2.135-0.808c3.293-1.43,7.323-3.026,11.693-3.026c4.58,0,8.791,0.854,12.16,2.41
		c0.188-0.413,0.386-0.853,0.602-1.254c0.986-2.956,2.675-5.515,5.062-7.671c2.227-2.326,4.853-3.323,7.884-4.284
		c2.921-1.496,6.062-2.367,9.435-1.367h0.997c4.418,0,8.537,0.416,12.354,2.569c1.649,1.244,3.307,2.104,4.953,3.35
		c3.033,2.977,5.139,6.357,6.297,10.395c0.207,1.498,0.414,2.978,0.619,4.475c0.146-0.139,0.282-0.207,0.436-0.346
		c2.218-2.319,4.845-2.809,7.88-3.77c2.917-1.494,6.062-1.673,9.431-0.673h1.002c4.42,0,8.538-0.288,12.355,1.865
		c1.646,1.243,3.304,1.575,4.955,2.815c2.516,2.467,4.377,5.083,5.604,8.278c0.075,0,0.147-0.081,0.227-0.081
		c2.482,0,4.863,0.358,7.09,0.951c1.604-1.167,3.372-1.199,5.311-1.812c2.916-1.49,6.062-4.021,9.435-1.021h0.998
		c4.419,0,8.536,0.037,12.354,2.193c1.651,1.237,3.305,1.783,4.954,3.024c3.034,2.978,5.134,6.3,6.298,10.337
		c0.198,1.453,0.396,2.816,0.603,4.271c0.444,0.401,0.886,0.771,1.299,1.214c2.651-1.642,5.932-2.641,9.477-2.641
		c0.646,0,1.278,0.021,1.898,0.085c0.258-0.319,0.515-0.647,0.769-0.976c3.058-2.954,6.656-5,10.806-6.134
		c2.17-0.285,4.342-0.568,6.513-0.854c1.938-0.07,3.804,0.137,5.596,0.602c3.167-7.819,12.938-13.521,24.512-13.521
		c8.021,0,15.185,2.74,19.875,7.027c2.127-4.604,7.033-8.379,13.384-10.408c-0.02-0.279-0.022-0.562-0.022-0.849
		c0-6.681,4.392-12.421,10.688-14.983c3.384-8.91,14.37-15.438,27.4-15.438c2.229,0,4.402,0.188,6.484,0.555
		c-1.045-2.211-1.623-4.643-1.623-7.188c0-10.296,9.443-18.647,21.103-18.647c0.437,0,0.854,0.034,1.286,0.06
		c1.279-7.513,6.82-13.939,13.845-17.253c-0.488-1.074-0.911-2.188-1.248-3.353c-0.291-2.112-0.582-4.224-0.875-6.336
		c0.016-4.303,1.132-8.317,3.346-12.035l3.829-4.824c1.896-1.986,4.092-3.472,6.584-4.462c1.707-9.307,11.03-16.629,20.721-16.629
		c7.437,0,13.643,3.743,17.341,9.289c3.729,0.208,7.229,1.231,10.5,3.076c1.586,1.191,3.17,2.385,4.756,3.575
		c2.289,2.072,3.906,4.526,4.854,7.359c1.471,2.728,2.146,5.663,2.021,8.812c0.015,0.339,0.012,0.673,0.007,1.008
		c0.396,0.235,0.786,0.479,1.166,0.735c1.219-0.548,2.479-1.017,3.812-1.379c2.17-0.282,4.339-0.567,6.511-0.85
		c3.021-0.112,5.861,0.431,8.521,1.622c0.939-0.086,1.896-0.144,2.864-0.144c2.271,0,4.478,0.241,6.562,0.69
		c-0.882-1.919-1.356-3.972-1.356-6.105c0-10.674,11.881-19.326,26.542-19.326c9.993,0,18.683,4.022,23.212,9.959
		c4.271-2.884,9.623-4.581,15.287-4.581c7.188,0,14.496,0.531,18.771,4.956V720h-661.19l5.059-394.205
		C627.698,321.319,633.117,317.995,639.22,317.995z"/>
</g>
<g id="cloud4">
	
		<linearGradient id="SVGID_6_" gradientUnits="userSpaceOnUse" x1="1219.1621" y1="-290.0479" x2="1219.1621" y2="-487.0727" gradientTransform="matrix(1 0 0 1 -143 494.5)">
		<stop  offset="0" style="stop-color:#9FC7D3"/>
		<stop  offset="0.3154" style="stop-color:#C0D5DF"/>
		<stop  offset="0.7674" style="stop-color:#E9E6EE"/>
		<stop  offset="1" style="stop-color:#F9EDF4"/>
	</linearGradient>
	<path fill="url(#SVGID_6_)" d="M1259.5,124.5c-0.598,0-1.235-2.291-1.982-3.117c-3.582-3.978-7.89-6.892-12.709-7.526
		c-3.686-4.178-8.514-6.851-13.836-6.851c-5.881,0-11.179,3.057-14.999,8.021c-0.458-4.048-3.062-7.219-6.354-7.219
		c-1.32,0-2.479,0.618-3.511,1.458c-1.854-11.385-9.739-19.955-19.216-19.955c-2.396,0-4.688,0.646-6.816,1.646
		c1.454-3.385,2.341-7.199,2.341-11.328c0-13.12-8.322-23.75-18.591-23.75c-5.184,0-9.854,2.719-13.235,7.087
		c-1.271-1.615-2.849-2.801-4.584-3.556c0.33-2.575,0.175-5.565-1.118-7.643c-0.58-0.935-1.164-1.869-1.739-2.801
		c-1.52-2.456-3.059-4.363-5.603-5.209c-0.253-0.086-0.54-0.102-0.808-0.158c0.41-3.362-0.377-6.87-2.527-9.571
		c-0.562-0.714-1.134-1.426-1.702-2.134c-0.749-0.938-1.651-1.636-2.627-2.177c-1.049-1.516-2.219-2.894-3.435-4.189
		c-0.021-0.906-0.1-1.796-0.312-2.598c-1.507-5.63-6.535-9.875-11.536-7.918c-1.33,0.521-2.668,1.043-4,1.57
		c-0.038,0.013-0.063,0.035-0.104,0.047c-1.257-0.199-2.521-0.322-3.817-0.322c-0.375,0-0.742,0.068-1.121,0.081
		c-1.447-1.465-3.369-2.411-5.801-2.411c-4.738,0-7.592,3.502-8.613,7.745c-3.228,2.417-6.113,5.521-8.461,9.213
		c-0.472-0.076-0.935-0.172-1.441-0.172c-7.533,0-10.367,8.834-8.507,15.47c-2.788,0.083-5.23,1.815-6.836,4.432
		c-4.296-6.439-10.608-10.603-17.759-10.603c-12.35,0-22.451,12.241-23.316,27.741c-0.953-0.402-1.994-0.674-3.188-0.674
		c-5.25,0-8.215,4.292-8.9,9.137c-0.81-0.086-1.63-0.137-2.453-0.137c-11.249,0-21.028,8.012-26.044,19.793
		c-1.688-1.898-3.883-3.081-6.313-3.081c-3.938,0-7.312,3.011-8.811,7.311c-1.212-0.88-2.664-1.43-4.39-1.506
		c-1.37-3.225-3.976-5.639-7.901-5.639c-6.858,0-9.796,7.308-8.85,13.634c-1.354-1.069-3.011-1.744-5.037-1.744
		c-3.009,0-5.271,1.414-6.78,3.531c-2.467-0.03-4.938,0.602-7.002,2.255c-0.177,0.147-0.352,0.284-0.521,0.431
		c-0.923-0.364-1.926-0.619-3.062-0.619c-1.764,0-3.247,0.524-4.486,1.358c-0.653,0.076-1.312,0.196-1.979,0.368
		c-1.166,0.296-2.339,0.592-3.515,0.889c-3.329,0.849-6.725,4.35-8.4,7.812c-0.272,0.571-0.333,1.211-0.552,1.846
		c-1.512-2.172-4.348-3.194-6.688-3.194c-3.343,0-5.69-2.298-7.128,4.924H1259.5V124.5z"/>
</g>
<g id="cloud2">
	
		<linearGradient id="SVGID_7_" gradientUnits="userSpaceOnUse" x1="601.3442" y1="-326.3486" x2="601.3442" y2="-431.6167" gradientTransform="matrix(1 0 0 1 -143 494.5)">
		<stop  offset="0" style="stop-color:#9FC7D3"/>
		<stop  offset="0.3154" style="stop-color:#C0D5DF"/>
		<stop  offset="0.7674" style="stop-color:#E9E6EE"/>
		<stop  offset="1" style="stop-color:#F9EDF4"/>
	</linearGradient>
	<path fill="url(#SVGID_7_)" d="M588.147,129.279c-1.999-3.658-4.396-7.238-7.077-7.828c-2.047-3.84-4.739-6.738-7.698-6.738
		c-3.277,0-6.227,2.575-8.354,7.145c-0.254-3.729-1.7-6.757-3.531-6.757c-0.738,0-1.39,0.514-1.955,1.288
		c-1.031-10.474-5.424-18.38-10.702-18.38c-1.335,0-2.605,0.572-3.793,1.495c0.808-3.114,1.305-6.625,1.305-10.42
		c0-12.067-4.634-21.851-10.348-21.851c-2.884,0-5.487,2.495-7.369,6.514c-0.707-1.478-1.585-2.579-2.553-3.273
		c0.186-2.364,0.098-5.106-0.622-7.028c-0.322-0.859-0.646-1.712-0.963-2.576c-0.854-2.257-1.709-4.01-3.119-4.786
		c-0.146-0.076-0.306-0.097-0.451-0.15c0.228-3.09-0.211-6.314-1.411-8.797c-0.312-0.657-0.633-1.311-0.946-1.968
		c-0.417-0.863-0.921-1.506-1.461-2.004c-0.585-1.392-1.232-2.661-1.91-3.854c-0.011-0.827-0.054-1.642-0.175-2.387
		c-0.838-5.18-3.638-9.074-6.421-7.282c-0.741,0.488-1.481,0.965-2.229,1.441c-0.021,0.019-0.036,0.038-0.057,0.049
		c-0.694-0.179-1.4-0.298-2.122-0.298c-0.211,0-0.417,0.065-0.627,0.076c-0.807-1.345-1.876-2.219-3.228-2.219
		c-2.632,0-4.229,3.224-4.793,7.125c-1.799,2.222-3.401,5.08-4.713,8.475c-0.269-0.072-0.521-0.161-0.805-0.161
		c-4.191,0-5.771,8.125-4.729,14.233c-1.56,0.071-2.917,1.663-3.812,4.075c-2.394-5.918-5.905-9.755-9.884-9.755
		c-6.872,0-12.5,11.263-12.979,25.515c-0.532-0.372-1.113-0.618-1.776-0.618c-0.93,0-1.709,0.43-2.382,1.117
		c-0.536-0.747-1.271-1.198-1.879-1.31c-0.239-0.503-0.505-0.951-0.835-1.289c-0.291-0.299-0.587-0.604-0.878-0.892
		c-0.885-0.91-1.87-1.286-2.85-0.744c-0.079,0.043-0.156,0.118-0.23,0.178c-0.223-0.227-0.453-0.409-0.701-0.511
		c-0.765-0.316-1.543-0.467-2.311-0.06c-0.131-0.413-0.274-0.81-0.459-1.17l-0.442-0.888c-0.245-0.489-0.536-0.871-0.844-1.197
		c-0.322-1.243-0.782-2.317-1.41-3.048c-0.791-0.928-1.959-1.314-2.847-0.745c-0.132,0.085-0.256,0.207-0.375,0.31
		c-0.104-0.482-0.204-0.951-0.309-1.426c-0.327-1.106-0.764-1.992-1.323-2.647c-0.542-0.819-1.252-1.393-1.925-1.619
		c-0.441-0.151-0.885-0.242-1.325-0.253c-1.948-2.783-4.297-4.407-6.83-4.407c-2.708,0-5.205,1.875-7.226,5.035
		c-0.094-0.011-0.188-0.059-0.292-0.059c-0.479,0-1.002,0.236-1.487,0.65c-1.164-0.945-2.458-0.676-3.543,0.822
		c-0.122,0.169-0.25,0.314-0.386,0.447c-0.716,0.645-1.348,1.628-1.753,3.018c-0.014,0.053-0.022,0.134-0.04,0.202
		c-1.304,0.865-2.201,2.828-2.519,5.234c-0.092,0.165-0.181,0.313-0.268,0.489c-0.142-0.054-0.277-0.138-0.422-0.162
		c-0.43-0.891-0.977-1.599-1.628-2.041c-0.726-0.491-1.455-0.982-2.184-1.474c-0.875-0.595-2.066-0.17-2.847,0.74
		c-0.116,0.137-0.224,0.326-0.338,0.502c-0.566,0.022-1.128,0.339-1.634,1.042c-1.063,1.468-2.181,2.737-3.356,3.825
		c-0.753,0.7-1.399,2.583-1.659,4.165c-0.977,0.375-1.865,1.454-2.31,3.372c-0.567,2.422-0.907,4.94-0.953,7.505
		c-0.445,0.075-0.877,0.327-1.29,0.71c-0.525-0.185-1.066-0.164-1.642,0.068c-0.827,0.331-1.656,0.661-2.482,0.994
		c-0.871,0.352-1.771,1.897-2.21,3.389c-0.153,0.529-0.262,1.15-0.35,1.803c-0.274,0.488-0.524,1.071-0.723,1.699
		c-0.1,0.125-0.208,0.236-0.306,0.356c-0.877-0.483-1.8-0.295-2.64,0.541c-0.685-0.026-1.377,0.27-1.958,0.958
		c-0.443,0.515-0.856,1.326-1.181,2.247c-0.155-0.033-0.309-0.087-0.466-0.07c-0.715,0.059-1.511,0.441-2.121,1.289
		c-0.761,0.236-1.589,1.177-2.058,2.124c-0.479,0.947-0.867,2.361-1.018,3.77c-0.148-0.125-0.296-0.227-0.458-0.298
		c-0.326-0.089-0.652-0.181-0.983-0.263c-0.665,0-1.286,0.339-1.866,1.009c-0.66,0.592-1.319,1.18-1.984,1.772
		c-0.696,0.633-1.311,2.34-1.598,3.831c-0.03,0.005-0.067,0.018-0.105,0.022c-0.918-1.485-2.099-2.079-3.206-1.624
		c-0.885-0.438-1.844-0.035-2.64,0.914c-0.131-0.205-0.275-0.375-0.422-0.533c-0.818-0.865-1.948-1.473-2.846-0.739
		c-0.323,0.262-0.649,0.447-0.986,0.606c-0.303,0.021-0.607,0.021-0.913-0.051c-0.57-0.121-1.243,0.322-1.812,0.98
		c-0.752-0.118-1.54,0.166-2.283,0.816c-2.191,1.891-4.238,5.948-6.128,8.848c-0.029,0-0.057,1.641-0.088,1.641h-0.615
		c-0.983,0-1.938-1.084-2.633,0.297c-0.035-0.023-0.064-1.028-0.092-1.05c-1.274-0.804-2.683-1.043-3.893,0.058
		c-0.641-0.419-1.345-0.735-2.072-0.363c-0.412,0.208-0.821,0.299-1.231,0.514c-0.124,0.059-0.244,0.185-0.363,0.374
		c-0.146-0.089-0.297-0.209-0.446-0.323c-0.723-0.573-1.769,2.362-2.516,3.02c-0.65,0.248-1.264,4.332-1.771,4.332h57.685h118.542
		h85.572C588.917,133.957,588.559,130.043,588.147,129.279z"/>
</g>
<g>
	<g>
		<path fill="#E8E8E8" d="M1200.055,160.284c8.238-16.013,1.798-34.223-11.792-25.095c17.254-13.441,2.424-35.695-12.651-24.095
			c16.776-24.036-0.006-48.425-21.691-23.045c-32.161,37.635-14.165,105.947,5.685,103.315
			C1171.841,189.741,1193.677,172.675,1200.055,160.284z"/>
		<path fill="#F5F5F5" d="M1219.595,183.893c15.4-9.341,19.432-28.23,3.072-27.555c21.735-2.436,20.731-29.153,1.813-27.157
			c26.866-11.717,25.32-41.275-6.437-30.988c-47.095,15.264-67.476,82.901-49.182,91.038
			C1180.145,194.247,1207.68,191.119,1219.595,183.893z"/>
		<g>
			<path fill="#3D392F" d="M1156.239,241.272c0,0,2.249,5.765,0.748,11.376c-0.193,0.703-0.942,4.435,0.703,8.03
				c1.764,3.769,7.077,2.128,9.022-2.983c2.551-6.831-2.882-20.423-2.882-20.423L1156.239,241.272z"/>
			<path fill="#3D392F" d="M1111.369,252.472c0,0-0.123,2.542,2.175,6.696c2.334,4.14,5.256,4.428,8.727,7.156
				c3.475,2.723,3.729,10.396-2.541,9.529c-6.271-0.889-9.753-6.119-12.598-10.39c-2.487-3.74-6.805-13.885-6.805-13.885
				L1111.369,252.472z"/>
		</g>
		<path fill="#71C1E8" d="M1175.797,206.136c3.344,34.907-24.856,51.616-58.499,51.376c-31.39-0.222-41.611-19.276-45.474-42.748
			c-3.866-23.475,2.966-62.716,4.376-66.534c1.413-3.818,2.791-31.768,42.235-34.035c39.453-2.263,49.069,37.411,49.069,37.411
			S1172.447,171.216,1175.797,206.136z"/>
		<path fill="#533E29" d="M1201.343,244.595l31.148,9.979l16.472-44.037l-30.289-12.165l-5.735,15.3l-4.64-2.459l-6.682,15.622
			l5.602,2.101L1201.343,244.595z M1212.167,215.726l-4.147,11.062l-2.819-0.981l4.238-10.959L1212.167,215.726z"/>
		<path fill="#231F20" d="M1087.31,152.306c-1.165,0.313-1.585,2.553-0.935,5.017c0.649,2.461,2.126,4.206,3.295,3.892
			c1.167-0.313,1.588-2.562,0.935-5.023C1089.952,153.736,1088.479,151.993,1087.31,152.306z"/>
		<path fill="#231F20" d="M1117.327,145.455c-1.17,0.312-1.588,2.555-0.934,5.018c0.647,2.465,2.126,4.207,3.29,3.897
			c1.177-0.312,1.593-2.562,0.94-5.026C1119.971,146.883,1118.492,145.141,1117.327,145.455z"/>
		<path fill="#D93637" d="M1110.156,181.604c15.385-4.634,9.856-16.853,9.856-16.853c-10.834,0.669-26.554,7.202-26.554,7.202
			S1094.928,186.192,1110.156,181.604z"/>
		<g>
			<path fill="#3D392F" d="M1193.823,209.674c0,0-0.442,2.148,3.525,9.155c3.965,7.007,10.332,4.637,12.291,0.738
				c1.957-3.894-2.931-7.364-2.931-7.364c2.118,1.358,6.455,1.201,5.158-1.842c-1.294-3.042-12.594-4.143-12.594-4.143
				L1193.823,209.674z"/>
			<path fill="#E6E7E8" d="M1192.505,208.306c0,0,0.121,2.371,1.616,2.636c2.654,0.473,5.67-2.116,6.353-4.171
				c0.684-2.056-2.33-2.921-2.33-2.921L1192.505,208.306z"/>
			<path fill="#71C1E8" d="M1169.518,192.723c7.911,2.882,23.437,15.961,23.437,15.961l0.39-0.051
				c2.402-0.314,4.364-2.072,4.947-4.417l0,0c-9.295-22.914-26.705-28.09-26.705-28.09
				C1165.894,175.58,1161.607,189.841,1169.518,192.723z"/>
		</g>
		<g>
			<path fill="#3D392F" d="M1055.178,163.945c0,0,0.443-2.145-3.523-9.16c-3.965-7.001-10.333-4.631-12.294-0.736
				c-1.953,3.887,2.928,7.366,2.928,7.366c-2.116-1.362-6.451-1.207-5.154,1.836c1.294,3.04,12.593,4.141,12.593,4.141
				L1055.178,163.945z"/>
			<path fill="#E6E7E8" d="M1056.496,165.316c0,0-0.125-2.376-1.616-2.637c-2.654-0.471-5.672,2.109-6.357,4.165
				c-0.68,2.055,2.334,2.927,2.334,2.927L1056.496,165.316z"/>
			<path fill="#71C1E8" d="M1079.481,180.9c-7.909-2.891-23.437-15.963-23.437-15.963l-0.392,0.051
				c-2.4,0.313-4.365,2.063-4.947,4.415l0,0c9.295,22.913,26.705,28.086,26.705,28.086
				C1083.107,198.042,1087.394,183.781,1079.481,180.9z"/>
		</g>
	</g>
	<path fill="#533E29" d="M1123.158,194.946l1.969,3.537l-6.352,6.352c0,0-8.372,13.979,23.725,25.666l3.547,11.898l-15.788,2.969
		c-33.474-21.439-18.383-41.276-18.383-41.276l-0.702-4.024l1.882-2.817L1123.158,194.946z"/>
</g>
<g>
	<path fill="#5FBBE8" d="M297.812,109.065c0,0,10.879,2.641,17.553,1.834c6.673-0.807,13.305-3.269,12.481-1.908
		c-0.823,1.362-11.309,4.138-13.7,5.317c-2.392,1.179-13.945,1.952-17.996-0.128C292.099,112.101,297.812,109.065,297.812,109.065z"
		/>
	<path fill="#E8E8E8" d="M266.219,128.649c9.177-1.788,6.979-34.697-12.853-46.569c-13.373-8.006-17.172,5.284-6.169,13.426
		c-8.4-2.887-11.657,9.165-2.021,12.547c-7.372-2.018-7.511,6.999-1.483,12.86C248.36,125.448,260.562,129.752,266.219,128.649z"/>
	<path fill="#3D392F" d="M279.27,141.916c0,0-0.401,5.135-0.946,7.157c-0.621,2.312-1.388,5.145-4.03,6.472
		c-2.644,1.319-3.672-2.114-2.542-3.839c1.133-1.723,2.381-2.286,2.796-4.465c0.401-2.182-0.032-3.287-0.032-3.287L279.27,141.916z"
		/>
	<path fill="#3D392F" d="M299.152,141.173c0,0-0.402,5.135-0.941,7.156c-0.625,2.312-1.392,5.145-4.037,6.471
		c-2.644,1.321-3.671-2.113-2.537-3.839c1.128-1.723,2.379-2.285,2.793-4.465c0.405-2.182-0.029-3.288-0.029-3.288L299.152,141.173z
		"/>
	<path fill="#71C1E8" d="M257.468,106.524c0,0-1.648-18.992,16.15-23.859c17.793-4.865,22.562,7.301,23.754,8.779
		c1.195,1.478,10.058,17.829,11.836,28.794c1.78,10.964,0.092,20.916-13.766,25.684c-14.855,5.11-29.821,1.914-33.534-14.036
		C258.197,115.935,257.468,106.524,257.468,106.524z"/>
	<polygon fill="#D6A332" points="341.802,103.314 347.917,103.336 342.92,106.879 343.054,104.917 	"/>
	<g>
		<g>
			<path fill="#604D40" d="M329.546,104.6c-2.018-1.813-4.556-9.984-7.878-16.778c-3.323-6.794-10.84-5.437-10.84-5.437
				s-0.576-4.541-2.851-3.916c-2.28,0.625-0.777,6.135,0.901,5.819c1.68-0.316,6.683-0.781,9.86,2.438
				c3.176,3.22,4.461,15.758,6.031,19.165c0.305,0.652,0.622,1.194,0.939,1.63c-0.212,0.499-0.397,1.098-0.543,1.803
				c-0.74,3.679,0.898,16.174-1.451,20.041c-2.347,3.865-7.323,4.565-9.031,4.646c-1.708,0.08-1.899,5.788,0.462,5.872
				c2.358,0.083,1.868-4.468,1.868-4.468s7.63-0.413,9.293-7.789c1.668-7.377,2.777-15.436,4.323-17.667
				C331.803,108.285,331.062,105.962,329.546,104.6z"/>
			<path fill="none" stroke="#604D40" stroke-width="0.3125" stroke-miterlimit="10" d="M308.58,82.784
				c0,0,2.823,23.327,0.498,26.811c-2.32,3.484-2.196-3.687,1.886,3.04c4.076,6.725,4.827,22.769,4.827,22.769"/>
			
				<rect x="304.316" y="109.977" transform="matrix(-0.9539 0.3 -0.3 -0.9539 669.0005 118.0945)" fill="#7A4927" width="42.236" height="0.856"/>
			<polygon fill="#D6A332" points="303.468,114.3 305.638,116.3 311.498,114.485 309.334,112.578 308.795,113.245 307.136,113.221 
				306.834,113.965 305.355,113.765 305.099,114.517 			"/>
		</g>
		<polygon fill="#D6A332" points="305.25,119.748 305.865,116.863 311.697,114.958 311.032,117.765 310.206,117.53 308.868,118.509 
			308.19,118.077 307.099,119.095 306.455,118.628 		"/>
	</g>
	<path fill="#5FBBE8" d="M314.642,113.553c0,0-11.229,4.776-14.184,4.071c-2.958-0.705-9.485-8.235-11.893-8.193
		c-2.408,0.042-4.752,5.27-0.065,9.068c4.688,3.798,13.164,8.016,17.46,5.308c4.297-2.707,9.387-5.599,10.216-9.388
		C316.764,111.724,314.642,113.553,314.642,113.553z"/>
	<path fill="#3D392F" d="M312.018,114.623c0,0,2.268,2.447,3.09,2.115c0.819-0.333,1.846-2.635,3.222-2.453
		c1.375,0.182,0.089-2.183-0.85-2.623c-0.938-0.44-2.667-0.072-3.511,0.691C313.123,113.116,312.018,114.623,312.018,114.623z"/>
	<path fill="#D93637" d="M294.798,109.816c0,0,0.941,1.552,2.786,0.69c1.846-0.86,0.784-3.041,0.784-3.041"/>
	
		<ellipse transform="matrix(-0.0069 1 -1 -0.0069 386.0468 -185.4374)" fill="#231F20" cx="285.105" cy="98.978" rx="1.983" ry="1.499"/>
	
		<ellipse transform="matrix(-0.0069 1 -1 -0.0069 392.2881 -200.1129)" fill="#231F20" cx="295.513" cy="94.74" rx="1.983" ry="1.499"/>
	<path fill="#F5F5F5" d="M261.804,129.084c6.882-6.324-12.197-33.225-35.309-32.975c-15.586,0.169-11.874,13.483,1.761,14.672
		c-8.667,1.93-5.139,13.905,4.843,11.749c-7.334,2.135-2.746,9.895,5.46,11.737C244.907,135.693,257.559,132.981,261.804,129.084z"
		/>
</g>
<g>
	<path fill="#272A2B" d="M939.406,343.322H340.593c-6.748,0-12.22,4.922-12.22,10.992v327.037c0,6.068,5.472,10.99,12.22,10.99
		h598.815c6.746,0,12.219-4.92,12.219-10.99V354.314C951.625,348.244,946.154,343.322,939.406,343.322z M519.035,391.692
		c-5.3,0-9.596-4.297-9.596-9.594c0-5.301,4.296-9.596,9.596-9.596s9.596,4.295,9.596,9.596
		C528.631,387.396,524.335,391.692,519.035,391.692z M790.754,390.604c-5.301,0-9.596-4.295-9.596-9.594s4.295-9.596,9.596-9.596
		c5.299,0,9.596,4.297,9.596,9.596S796.053,390.604,790.754,390.604z"/>
	<g>
		<g>
			<g>
				<path fill="#FFFFFF" d="M540.694,268.051c31.461,0,56.963,26.281,56.963,57.74c0,4.346-0.489,36.141-1.412,38.516h-7.556
					c1.059-2.375,1.626-34.146,1.626-38.516c0-27.406-22.216-50.01-49.621-50.01s-49.619,22.883-49.619,50.287
					c0,4.369,0.568,9.748,1.625,13.311h-7.556c-0.923-3.562-1.411-9.158-1.411-13.504
					C483.733,294.418,509.237,268.051,540.694,268.051z"/>
				<path fill="#FFFFFF" d="M540.694,275.393c27.405,0,49.621,22.398,49.621,49.805c0,4.371-0.568,35.547-1.626,37.922h-7.067
					c1.23-2.375,1.896-33.521,1.896-37.922c0-23.652-19.171-42.916-42.824-42.916c-23.648,0-42.816,19.396-42.816,43.047
					c0,4.4,0.661,9.303,1.895,12.865h-7.07c-1.057-3.562-1.625-8.541-1.625-12.91C491.075,297.877,513.289,275.393,540.694,275.393z
					"/>
				<g>
					<path fill="#FFFFFF" d="M540.694,282.189c23.652,0,42.822,19.355,42.822,43.006c0,4.402-0.665,35.549-1.896,37.922h-8.055
						c1.51-2.373,2.338-33.465,2.338-37.922c0-19.445-15.763-35.301-35.209-35.301c-19.445,0-35.208,15.986-35.208,35.432
						c0,4.459,0.829,9.305,2.341,12.865h-8.056c-1.233-3.561-1.896-8.508-1.896-12.91
						C497.875,301.631,517.045,282.189,540.694,282.189z"/>
					<path fill="#FFFFFF" d="M540.694,282.189c23.652,0,42.822,19.355,42.822,43.006c0,4.402-0.665,35.549-1.896,37.922h-8.055
						c1.51-2.373,2.338-33.465,2.338-37.922c0-19.445-15.763-35.301-35.209-35.301c-19.445,0-35.208,15.986-35.208,35.432
						c0,4.459,0.829,9.305,2.341,12.865h-8.056c-1.233-3.561-1.896-8.508-1.896-12.91
						C497.875,301.631,517.045,282.189,540.694,282.189z"/>
				</g>
				<path fill="#FFFFFF" d="M540.694,289.805c19.446,0,35.209,15.945,35.209,35.391c0,4.457-0.828,35.549-2.338,37.922h-8.335
					c1.956-2.373,3.062-33.365,3.062-37.922c0-15.24-12.355-27.691-27.598-27.691c-15.239,0-27.597,12.582-27.597,27.822
					c0,4.557,1.107,9.305,3.062,12.865h-8.333c-1.511-3.561-2.341-8.453-2.341-12.91
					C505.486,305.836,521.249,289.805,540.694,289.805z"/>
				<path fill="#FFFFFF" d="M540.694,297.416c15.242,0,27.598,12.539,27.598,27.779c0,4.557-1.105,35.549-3.062,37.922h-8.369
					c2.729-2.373,4.362-33.152,4.362-37.922c0-11.338-9.191-20.619-20.529-20.619c-11.336,0-20.526,9.414-20.526,20.75
					c0,4.77,1.632,9.303,4.362,12.863h-8.37c-1.955-3.561-3.062-8.354-3.062-12.91C513.098,310.041,525.455,297.416,540.694,297.416
					z"/>
			</g>
			<g>
				<path fill="#F9F9F7" d="M540.694,268.051c31.461,0,56.963,26.281,56.963,57.74c0,4.346-0.489,36.141-1.412,38.516h-7.556
					c1.059-2.375,1.626-34.146,1.626-38.516c0-27.406-22.216-50.01-49.621-50.01s-49.619,22.883-49.619,50.287
					c0,4.369,0.568,9.748,1.625,13.311h-7.556c-0.923-3.562-1.411-9.158-1.411-13.504
					C483.733,294.418,509.237,268.051,540.694,268.051z"/>
				<path fill="#FFE400" d="M540.694,275.393c27.405,0,49.621,22.398,49.621,49.805c0,4.371-0.568,35.547-1.626,37.922h-7.067
					c1.23-2.375,1.896-33.521,1.896-37.922c0-23.652-19.171-42.916-42.824-42.916c-23.648,0-42.816,19.396-42.816,43.047
					c0,4.4,0.661,9.303,1.895,12.865h-7.07c-1.057-3.562-1.625-8.541-1.625-12.91C491.075,297.877,513.289,275.393,540.694,275.393z
					"/>
				<g>
					<path fill="#71C1E8" d="M540.694,282.189c23.652,0,42.822,19.355,42.822,43.006c0,4.402-0.665,35.549-1.896,37.922h-8.055
						c1.51-2.373,2.338-33.465,2.338-37.922c0-19.445-15.763-35.301-35.209-35.301c-19.445,0-35.208,15.986-35.208,35.432
						c0,4.459,0.829,9.305,2.341,12.865h-8.056c-1.233-3.561-1.896-8.508-1.896-12.91
						C497.875,301.631,517.045,282.189,540.694,282.189z"/>
				</g>
				<path fill="#FFFFFF" d="M540.694,289.805c19.446,0,35.209,15.945,35.209,35.391c0,4.457-0.828,35.549-2.338,37.922h-8.335
					c1.956-2.373,3.062-33.365,3.062-37.922c0-15.24-12.355-27.691-27.598-27.691c-15.239,0-27.597,12.582-27.597,27.822
					c0,4.557,1.107,9.305,3.062,12.865h-8.333c-1.511-3.561-2.341-8.453-2.341-12.91
					C505.486,305.836,521.249,289.805,540.694,289.805z"/>
				<path fill="#FF8EBD" d="M540.694,297.416c15.242,0,27.598,12.539,27.598,27.779c0,4.557-1.105,35.549-3.062,37.922h-8.369
					c2.729-2.373,4.362-33.152,4.362-37.922c0-11.338-9.191-20.619-20.529-20.619c-11.336,0-20.526,9.414-20.526,20.75
					c0,4.77,1.632,9.303,4.362,12.863h-8.37c-1.955-3.561-3.062-8.354-3.062-12.91C513.098,310.041,525.455,297.416,540.694,297.416
					z"/>
			</g>
		</g>
		<g>
			<path fill="#F9F9F7" d="M549.413,356.311c-1.112-18.713,16.082-13.457,17.234-13.133c0.819-6.691,3.317-13.295,13.526-12.014
				c13.485,1.691,13.44,16.197,13.087,17.396c0.856-0.174,17.459,1.008,16.272,14.861c-0.634,7.407-6.2,15.13-13.632,15.13
				c-7.431,0-41.941,0-45.913,0c-4.753,0-8.513-4.055-8.72-10.214C540.977,359.586,549.45,356.926,549.413,356.311z"/>
			<ellipse fill="#FF91AD" cx="586.503" cy="365.147" rx="5.547" ry="3.563"/>
			<ellipse fill="#FF91AD" cx="567.489" cy="365.147" rx="5.545" ry="3.563"/>
			<path fill="none" stroke="#684C40" stroke-width="1.2533" stroke-linecap="round" stroke-miterlimit="10" d="M582.641,356.838
				c0,2.746,2.226,4.971,4.97,4.971s4.969-2.225,4.969-4.971"/>
			<path fill="none" stroke="#684C40" stroke-width="1.2533" stroke-linecap="round" stroke-miterlimit="10" d="M561.318,356.838
				c0,2.746,2.225,4.971,4.97,4.971c2.744,0,4.969-2.225,4.969-4.971"/>
		</g>
		<g>
			<g>
				<g>
					<path fill="#F9F9F7" d="M414.433,348.881c0,0-7.686,6.404-16.973,10.248c-9.289,3.842-18.574,3.203-17.295,8.969
						c1.279,5.763,6.405,9.927,6.405,9.927l34.909-16.655L414.433,348.881z"/>
					<path fill="#F9F9F7" d="M507.629,354.326c0,0,9.287,8.967,22.417,10.246c13.131,1.283,6.088,8.97,3.842,13.452
						c-2.24,4.484-36.187-12.489-36.187-12.489L507.629,354.326z"/>
					<path fill="#F9F9F7" d="M390.734,372.099c12.007-2.882,25.62-17.136,25.62-17.136s-5.452-16.771-6.732-55.814
						c0.188,0.057,0.371,0.121,0.561,0.174c4.076,1.623,20.677,6.035,24.714,6.443c0.402,5.912,2.116,14.33,8.2,19.256
						c0,0,37.266-16.375,55.246-1.924c13.854,11.137,8.562,36.016,4.324,38.432c0,0,1.938,4.049,7.205,7.848
						c5.37,3.876,14.12,7.515,19.215,8.485c10.09,1.924,1.258,11.305-2.883,14.893c-4.803,4.164-31.226-4.803-40.831-20.178
						l-14.413-4.8c0,0-17.455,8.325-36.028,0.479c0,0-8.647,8.647-26.422,15.851c-17.772,7.205-22.097,6.246-24.5,0.963
						S378.726,374.981,390.734,372.099z"/>
				</g>
				<g>
					<g>
						<path fill="#F9F9F7" d="M375.841,292.174c3.911-1.916,8.111-3.209,12.055-5.07c4.356-2.049,24.584-14.396,24.611-14.689
							c-0.382-2.06-1.459-8.154-1.441-8.734c0.117-3.54,3.524-4.593,5.891-3.198c1.41,0.562,2.352,2.122,2.541,3.595
							c0.916,1.666,4.865,8.879,5.863,10.838c1.665,3.27,6.477,37.012,4.138,39.039c-0.938,3.086-22.594,7.168-23.515,7.344
							c-2.873,0.547-5.207,2.17-8.139,2.057c-2.453,0.451-8.188-1.074-10.979-1.781
							C387.013,321.572,372.769,293.678,375.841,292.174z"/>
						<path fill="#FFFFFF" d="M379.051,320.834c0.028,0.029,0.058,0.049,0.086,0.076
							C379.196,320.971,379.124,320.934,379.051,320.834z"/>
					</g>
				</g>
				<path fill="#71C1E8" d="M376.627,318.754c-2.335-2.396-4.583-4.93-6.231-7.863c-3.209-5.711,4.643-18.223,5.045-18.252
					c10.936-0.768,13.041,17.002,13.423,25.643C389.141,324.539,378.753,320.936,376.627,318.754z"/>
				<g>
					<path fill="#71C1E8" stroke="#7CC9E8" stroke-width="1.187" stroke-miterlimit="10" d="M398.748,280.576
						c0,0,11.302-0.369,13.374-6.967l-19.377-25.461L398.748,280.576z"/>
					
						<path fill="none" stroke="#7CC9E8" stroke-width="1.1887" stroke-linecap="round" stroke-linejoin="round" stroke-miterlimit="10" d="
						M398.149,276.611c0,0-0.6-2.361,2.602-3.961c3.203-1.604,5.726-3.807,5.083-7.328"/>
					
						<path fill="none" stroke="#7CC9E8" stroke-width="1.1887" stroke-linecap="round" stroke-linejoin="round" stroke-miterlimit="10" d="
						M396.107,266.242c0,0,0.96-1.48,2.882-2.121s2.643-1.76,2.643-4.323"/>
				</g>
				<path fill="#71C1E8" d="M525.243,330.547c0,0,8.042-3.436,12.97,3.604c3.659,5.229,9.396,3.25,12.491,0.719
					c0,0,3.522,16.252-17.775,18.176L525.243,330.547z"/>
				<path fill="#FFE400" d="M514.433,322.621c0,0,7.207-1.441,11.531,6.486c4.322,7.924,6.757,20.51,13.45,22.576
					c0,0-16.093,4.803-21.138-2.4C513.232,342.076,514.433,322.621,514.433,322.621z"/>
				<path fill="#71C1E8" d="M445.719,314.947c0,0,11.731,10.342,3.768,21.049c-7.968,10.711-17.955,24.225-10.56,28.305
					c5.657,3.121,10.109,0.303,10.65-3.99c0,0,4.473,9.135-2.786,14.487c-7.263,5.354-33.042,4.207-22.706-33.366L445.719,314.947z"
					/>
				<path fill="#FFE400" d="M435.886,286.678c0,0,12.252,10.703,11.568,23.551c-1.025,19.139-19.363,27.539-25.185,40.277
					c-1.46-3.883-0.634-17.76,8.854-35.34c4.902-9.092,4.061-19.891,4.061-19.891L435.886,286.678z"/>
				<path fill="#FF8EBD" d="M424.681,271.25c0,0,11.207,6.188,13.381,18.867c3.16,18.475-12.258,29.371-14.867,44.828
					c-2.301-3.932-6.873-12.639-1.241-31.684c2.927-9.908,2.785-23.381,2.785-23.381L424.681,271.25z"/>
				<path fill="#FF8EBD" d="M497.86,323.098c0,0,3.123-7.686,11.289-5.041c8.166,2.643,7.986,12.438,10.81,20.895
					c2.969,8.885,6.483,13.693,6.483,13.693s-15.552,1.406-19.934-13.932C503.146,326.941,497.86,323.098,497.86,323.098z"/>
				<path fill="none" stroke="#684C40" stroke-width="1.1887" stroke-linecap="round" stroke-miterlimit="10" d="M402.638,294.688
					c-1.277,2.916,0.051,6.318,2.966,7.594c2.917,1.277,6.317-0.051,7.594-2.969"/>
				<circle fill="#684C40" cx="379.863" cy="308.023" r="1.52"/>
			</g>
			<path fill="#71C1E8" d="M494.695,329.883c-3.782-1.926-5.319,1.758-5.319,1.758s1.119-3.832-3.03-4.713
				c-4.151-0.883-6.907,6.246-0.034,13.377C496.138,339.084,498.477,331.807,494.695,329.883z"/>
			<path fill="#FFE400" d="M496.169,342.32c-2.859,0.672-2.026,3.307-2.026,3.307s-1.12-2.527-3.707-1.137
				c-2.589,1.389-0.86,6.391,5.96,7.086C501.044,346.539,499.028,341.646,496.169,342.32z"/>
			<path fill="#FF8EBD" d="M486.317,347.658c-1.979-0.885-2.669,1.035-2.669,1.035s0.472-1.984-1.669-2.328
				c-2.142-0.342-3.365,3.369,0.328,6.828C487.292,352.316,488.298,348.541,486.317,347.658z"/>
		</g>
	</g>
	<text transform="matrix(1 0 0 1 554.6387 521.1172)" font-family="'MyriadPro-Regular'" font-size="45.1661">youtube</text>
	<g>
		<g>
			<g>
				<path fill="#FFFFFF" d="M773.27,266.864c-31.463,0-56.965,26.28-56.965,57.739c0,4.346,0.49,36.141,1.412,38.516h7.557
					c-1.059-2.375-1.627-34.146-1.627-38.516c0-27.404,22.217-50.008,49.623-50.008c27.404,0,49.617,22.881,49.617,50.285
					c0,4.369-0.568,9.75-1.625,13.311h7.557c0.922-3.561,1.41-9.158,1.41-13.504C830.229,293.23,804.725,266.864,773.27,266.864z"/>
				<path fill="#FFFFFF" d="M773.27,274.205c-27.408,0-49.623,22.4-49.623,49.805c0,4.371,0.57,35.549,1.627,37.922h7.068
					c-1.232-2.373-1.896-33.521-1.896-37.922c0-23.652,19.168-42.916,42.82-42.916c23.65,0,42.82,19.396,42.82,43.047
					c0,4.4-0.662,9.303-1.896,12.865h7.07c1.057-3.562,1.625-8.541,1.625-12.91C822.887,296.689,800.674,274.205,773.27,274.205z"/>
				<g>
					<path fill="#FFFFFF" d="M773.27,281.004c-23.654,0-42.824,19.354-42.824,43.004c0,4.402,0.666,35.549,1.896,37.922h8.055
						c-1.51-2.373-2.338-33.465-2.338-37.922c0-19.445,15.762-35.301,35.211-35.301c19.443,0,35.205,15.986,35.205,35.432
						c0,4.459-0.828,9.305-2.338,12.865h8.055c1.232-3.561,1.895-8.508,1.895-12.91C816.088,300.443,796.918,281.004,773.27,281.004
						z"/>
					<path fill="#FFFFFF" d="M773.27,281.004c-23.654,0-42.824,19.354-42.824,43.004c0,4.402,0.666,35.549,1.896,37.922h8.055
						c-1.51-2.373-2.338-33.465-2.338-37.922c0-19.445,15.762-35.301,35.211-35.301c19.443,0,35.205,15.986,35.205,35.432
						c0,4.459-0.828,9.305-2.338,12.865h8.055c1.232-3.561,1.895-8.508,1.895-12.91C816.088,300.443,796.918,281.004,773.27,281.004
						z"/>
				</g>
				<path fill="#FFFFFF" d="M773.27,288.617c-19.449,0-35.211,15.947-35.211,35.391c0,4.457,0.826,35.549,2.338,37.922h8.334
					c-1.953-2.373-3.061-33.365-3.061-37.922c0-15.24,12.355-27.691,27.6-27.691c15.238,0,27.594,12.582,27.594,27.822
					c0,4.557-1.105,9.305-3.061,12.865h8.334c1.51-3.561,2.338-8.453,2.338-12.91C808.477,304.648,792.713,288.617,773.27,288.617z"
					/>
				<path fill="#FFFFFF" d="M773.27,296.229c-15.244,0-27.6,12.539-27.6,27.779c0,4.557,1.107,35.549,3.061,37.922h8.371
					c-2.73-2.373-4.363-33.15-4.363-37.922c0-11.336,9.191-20.619,20.531-20.619c11.336,0,20.523,9.414,20.523,20.75
					c0,4.771-1.631,9.303-4.361,12.865h8.371c1.955-3.562,3.062-8.355,3.062-12.91C800.865,308.854,788.508,296.229,773.27,296.229z
					"/>
			</g>
			<g>
				<path fill="#F9F9F7" d="M773.27,266.864c-31.463,0-56.965,26.28-56.965,57.739c0,4.346,0.49,36.141,1.412,38.516h7.557
					c-1.059-2.375-1.627-34.146-1.627-38.516c0-27.404,22.217-50.008,49.623-50.008c27.404,0,49.617,22.881,49.617,50.285
					c0,4.369-0.568,9.75-1.625,13.311h7.557c0.922-3.561,1.41-9.158,1.41-13.504C830.229,293.23,804.725,266.864,773.27,266.864z"/>
				<path fill="#FFE400" d="M773.27,274.205c-27.408,0-49.623,22.4-49.623,49.805c0,4.371,0.57,35.549,1.627,37.922h7.068
					c-1.232-2.373-1.896-33.521-1.896-37.922c0-23.652,19.168-42.916,42.82-42.916c23.65,0,42.82,19.396,42.82,43.047
					c0,4.4-0.662,9.303-1.896,12.865h7.07c1.057-3.562,1.625-8.541,1.625-12.91C822.887,296.689,800.674,274.205,773.27,274.205z"/>
				<g>
					<path fill="#71C1E8" d="M773.27,281.004c-23.654,0-42.824,19.354-42.824,43.004c0,4.402,0.666,35.549,1.896,37.922h8.055
						c-1.51-2.373-2.338-33.465-2.338-37.922c0-19.445,15.762-35.301,35.211-35.301c19.443,0,35.205,15.986,35.205,35.432
						c0,4.459-0.828,9.305-2.338,12.865h8.055c1.232-3.561,1.895-8.508,1.895-12.91C816.088,300.443,796.918,281.004,773.27,281.004
						z"/>
				</g>
				<path fill="#FFFFFF" d="M773.27,288.617c-19.449,0-35.211,15.947-35.211,35.391c0,4.457,0.826,35.549,2.338,37.922h8.334
					c-1.953-2.373-3.061-33.365-3.061-37.922c0-15.24,12.355-27.691,27.6-27.691c15.238,0,27.594,12.582,27.594,27.822
					c0,4.557-1.105,9.305-3.061,12.865h8.334c1.51-3.561,2.338-8.453,2.338-12.91C808.477,304.648,792.713,288.617,773.27,288.617z"
					/>
				<path fill="#FF8EBD" d="M773.27,296.229c-15.244,0-27.6,12.539-27.6,27.779c0,4.557,1.107,35.549,3.061,37.922h8.371
					c-2.73-2.373-4.363-33.15-4.363-37.922c0-11.336,9.191-20.619,20.531-20.619c11.336,0,20.523,9.414,20.523,20.75
					c0,4.771-1.631,9.303-4.361,12.865h8.371c1.955-3.562,3.062-8.355,3.062-12.91C800.865,308.854,788.508,296.229,773.27,296.229z
					"/>
			</g>
		</g>
		<g>
			<path fill="#F9F9F7" d="M764.549,355.123c1.115-18.713-16.08-13.457-17.232-13.133c-0.82-6.689-3.318-13.295-13.527-12.014
				c-13.484,1.691-13.439,16.197-13.086,17.396c-0.857-0.174-17.459,1.008-16.271,14.863c0.633,7.406,6.199,15.128,13.631,15.128
				s41.941,0,45.912,0c4.754,0,8.514-4.055,8.721-10.212C772.986,358.4,764.512,355.74,764.549,355.123z"/>
			<ellipse fill="#FF91AD" cx="727.459" cy="363.96" rx="5.547" ry="3.563"/>
			<ellipse fill="#FF91AD" cx="746.475" cy="363.96" rx="5.545" ry="3.563"/>
			<path fill="none" stroke="#684C40" stroke-width="1.2533" stroke-linecap="round" stroke-miterlimit="10" d="M731.322,355.65
				c0,2.746-2.227,4.971-4.969,4.971c-2.744,0-4.969-2.225-4.969-4.971"/>
			<path fill="none" stroke="#684C40" stroke-width="1.2533" stroke-linecap="round" stroke-miterlimit="10" d="M752.645,355.65
				c0,2.746-2.227,4.971-4.969,4.971c-2.744,0-4.969-2.225-4.969-4.971"/>
		</g>
		<g>
			<g>
				<g>
					<path fill="#F9F9F7" d="M899.529,347.693c0,0,7.688,6.406,16.973,10.248c9.289,3.844,18.576,3.203,17.297,8.969
						c-1.281,5.765-6.406,9.927-6.406,9.927l-34.908-16.655L899.529,347.693z"/>
					<path fill="#F9F9F7" d="M806.334,353.139c0,0-9.289,8.967-22.418,10.246c-13.131,1.283-6.086,8.97-3.842,13.452
						c2.24,4.484,36.188-12.487,36.188-12.487L806.334,353.139z"/>
					<path fill="#F9F9F7" d="M923.229,370.913c-12.006-2.882-25.621-17.136-25.621-17.136s5.455-16.773,6.734-55.816
						c-0.188,0.057-0.371,0.121-0.561,0.174c-4.076,1.623-20.676,6.037-24.713,6.443c-0.404,5.912-2.115,14.33-8.201,19.256
						c0,0-37.266-16.375-55.244-1.922c-13.855,11.137-8.562,36.014-4.326,38.43c0,0-1.938,4.051-7.203,7.848
						c-5.371,3.878-14.121,7.517-19.217,8.485c-10.09,1.924-1.256,11.305,2.885,14.893c4.803,4.164,31.225-4.803,40.83-20.176
						l14.412-4.802c0,0,17.455,8.325,36.029,0.479c0,0,8.648,8.647,26.424,15.853c17.773,7.203,22.096,6.246,24.5,0.961
						C932.355,378.601,935.238,373.796,923.229,370.913z"/>
				</g>
				<g>
					<g>
						<path fill="#F9F9F7" d="M938.121,290.986c-3.91-1.916-8.109-3.209-12.055-5.07c-4.357-2.049-24.582-14.395-24.611-14.688
							c0.383-2.06,1.459-8.155,1.441-8.735c-0.117-3.539-3.525-4.592-5.891-3.197c-1.41,0.562-2.352,2.122-2.539,3.594
							c-0.916,1.666-4.867,8.879-5.867,10.84c-1.662,3.268-6.475,37.01-4.135,39.037c0.939,3.086,22.594,7.168,23.516,7.344
							c2.873,0.547,5.207,2.17,8.139,2.057c2.451,0.451,8.188-1.072,10.98-1.779C926.949,320.387,941.193,292.49,938.121,290.986z"
							/>
						<path fill="#FFFFFF" d="M934.91,319.648c-0.025,0.027-0.057,0.047-0.086,0.074C934.768,319.783,934.84,319.746,934.91,319.648
							z"/>
					</g>
				</g>
				<path fill="#71C1E8" d="M937.336,317.566c2.334-2.396,4.582-4.928,6.232-7.863c3.209-5.711-4.645-18.223-5.045-18.252
					c-10.936-0.766-13.041,17.004-13.426,25.643C924.82,323.352,935.209,319.75,937.336,317.566z"/>
				<g>
					<path fill="#71C1E8" stroke="#7CC9E8" stroke-width="1.187" stroke-miterlimit="10" d="M915.213,279.389
						c0,0-11.301-0.369-13.371-6.966l19.377-25.462L915.213,279.389z"/>
					
						<path fill="none" stroke="#7CC9E8" stroke-width="1.1887" stroke-linecap="round" stroke-linejoin="round" stroke-miterlimit="10" d="
						M915.812,275.426c0,0,0.602-2.363-2.602-3.963c-3.203-1.604-5.725-3.806-5.084-7.328"/>
					
						<path fill="none" stroke="#7CC9E8" stroke-width="1.1887" stroke-linecap="round" stroke-linejoin="round" stroke-miterlimit="10" d="
						M917.855,265.055c0,0-0.961-1.48-2.883-2.12c-1.922-0.642-2.643-1.76-2.643-4.323"/>
				</g>
				<path fill="#71C1E8" d="M788.721,329.361c0,0-8.045-3.438-12.971,3.602c-3.658,5.23-9.396,3.25-12.492,0.719
					c0,0-3.521,16.252,17.775,18.176L788.721,329.361z"/>
				<path fill="#FFE400" d="M799.529,321.434c0,0-7.205-1.441-11.531,6.486c-4.32,7.926-6.756,20.51-13.449,22.578
					c0,0,16.094,4.803,21.139-2.402C800.73,340.891,799.529,321.434,799.529,321.434z"/>
				<path fill="#71C1E8" d="M868.244,313.76c0,0-11.732,10.342-3.77,21.051c7.971,10.709,17.957,24.223,10.561,28.303
					c-5.658,3.121-10.109,0.303-10.65-3.99c0,0-4.475,9.135,2.785,14.487c7.264,5.355,33.043,4.207,22.707-33.364L868.244,313.76z"
					/>
				<path fill="#FFE400" d="M878.078,285.49c0,0-12.254,10.703-11.57,23.551c1.027,19.139,19.363,27.541,25.188,40.277
					c1.459-3.883,0.633-17.76-8.855-35.34c-4.902-9.092-4.061-19.889-4.061-19.889L878.078,285.49z"/>
				<path fill="#FF8EBD" d="M889.281,270.063c0,0-11.207,6.187-13.379,18.866c-3.16,18.475,12.256,29.371,14.867,44.828
					c2.301-3.932,6.873-12.639,1.24-31.684c-2.928-9.908-2.785-23.381-2.785-23.381L889.281,270.063z"/>
				<path fill="#FF8EBD" d="M816.102,321.912c0,0-3.125-7.688-11.289-5.043c-8.166,2.643-7.984,12.438-10.809,20.896
					c-2.969,8.883-6.484,13.693-6.484,13.693s15.553,1.406,19.934-13.934C810.818,325.756,816.102,321.912,816.102,321.912z"/>
				<path fill="none" stroke="#684C40" stroke-width="1.1887" stroke-linecap="round" stroke-miterlimit="10" d="M911.324,293.5
					c1.279,2.918-0.049,6.318-2.965,7.594c-2.916,1.277-6.316-0.051-7.594-2.969"/>
				<circle fill="#684C40" cx="934.098" cy="306.836" r="1.52"/>
			</g>
			<path fill="#71C1E8" d="M819.266,328.695c3.783-1.926,5.32,1.758,5.32,1.758s-1.119-3.832,3.029-4.713
				c4.152-0.883,6.91,6.246,0.037,13.377C817.826,337.896,815.486,330.621,819.266,328.695z"/>
			<path fill="#FFE400" d="M817.795,341.133c2.857,0.674,2.025,3.307,2.025,3.307s1.119-2.525,3.707-1.137s0.859,6.391-5.961,7.086
				C812.918,345.352,814.934,340.459,817.795,341.133z"/>
			<path fill="#FF8EBD" d="M827.645,346.471c1.98-0.883,2.672,1.035,2.672,1.035s-0.475-1.984,1.668-2.326
				c2.141-0.342,3.363,3.367-0.328,6.826C826.672,351.131,825.664,347.355,827.645,346.471z"/>
		</g>
	</g>
	<g>
		<g>
			<path fill="#F2F2F2" d="M564.361,286.694c-1.099-3.135-2.124-6.303-3.063-9.511c-2.947-10.074-5.383-20.296-8.178-30.407
				l-2.303,0.183c0,0-24.527,6.867-43.166,17.66l15.696,13.737l-1.961,26.489C521.387,304.846,542.089,294.761,564.361,286.694z"/>
			<polygon fill="#F9F9F7" points="545.914,280.809 564.359,286.694 556.216,266.582 			"/>
		</g>
		<g>
			<path fill="#F2F2F2" d="M750.172,286.694c1.096-3.135,2.123-6.303,3.061-9.511c2.947-10.074,5.383-20.296,8.18-30.407
				l2.303,0.183c0,0,24.525,6.867,43.166,17.66l-15.697,13.737l1.961,26.489C793.145,304.846,772.443,294.761,750.172,286.694z"/>
			<polygon fill="#F9F9F7" points="768.617,280.809 750.172,286.694 758.316,266.582 			"/>
		</g>
		<path fill="#F2F2F2" d="M653.266,214.871c-84.863,0-126.487,23.556-126.487,23.556l15.251,42.095c0,0,48.997-16.53,111.234-16.53
			c62.238,0,111.236,16.53,111.236,16.53l15.25-42.095C779.754,238.427,735.188,214.871,653.266,214.871z"/>
	</g>
	<g>
		<g>
			<path d="M550.641,258.539c0.15-0.11,0.052-1.297-0.143-1.892c-0.06-0.184-0.024-0.399,0.126-0.639
				c0.15-0.239,0.359-0.43,0.625-0.573c0.238-0.128,0.468-0.18,0.688-0.156s0.37,0.11,0.448,0.257
				c0.016,0.029,0.023,0.044,0.039,0.073c0.318,1.105-0.29,3.108-0.142,3.481c0.167,0.422,2.059,1.611,2.807,3.007
				c0.688,1.286,1.11,2.6,1.277,3.938c0.166,1.339-0.172,2.289-0.803,2.873c-0.032,0.03-0.088,0.073-0.167,0.116
				c-0.222,0.123-0.45,0.188-0.667,0.18c-0.225-0.008-0.542-0.087-0.934-0.217s-0.893-0.3-1.507-0.509s-1.166-0.375-1.638-0.504
				c-1.436-0.39-2.888-0.441-3.009-0.243c-0.06,0.099,0.132,0.584,0.33,0.918c0.248,0.418,0.547,0.844,0.892,1.277
				c0.345,0.434,0.629,0.769,0.856,1.005c0.132,0.135,0.197,0.202,0.33,0.336c0.007,0.012,0.02,0.025,0.037,0.039
				c0.017,0.014,0.03,0.027,0.037,0.039c0.085,0.144,0.093,0.32,0.025,0.53c-0.068,0.21-0.196,0.41-0.386,0.583
				c-0.111,0.1-0.199,0.166-0.25,0.197c-0.425,0.254-0.777,0.272-1.019,0.053c-0.041-0.037-0.167-0.169-0.38-0.39
				c-0.212-0.22-0.505-0.564-0.876-1.03c-0.371-0.465-0.693-0.922-0.967-1.374c-0.194-0.321-0.316-0.574-0.373-0.748
				c-0.241-0.744-0.163-1.428,0.291-2.024c0.201-0.266,0.448-0.486,0.741-0.66c0.545-0.323,1.115-0.515,1.703-0.576
				c0.588-0.061,1.078-0.05,1.468,0.03c0.391,0.08,0.963,0.233,1.704,0.468c0.341,0.108,0.848,0.284,1.512,0.525
				s1.275,0.471,1.283,0.465c0.177-0.136-0.524-2.74-1.272-4.104c-0.541-0.986-1.773-2.348-1.984-2.308
				c-0.491,0.092-2.298,2.667-3.988,3.655c-1.637,0.957-2.99,1.348-4.082,1.151c-0.453-0.081-0.789-0.3-1.007-0.656
				c-0.384-0.627-0.293-1.429,0.286-2.403c0.58-0.974,1.401-1.872,2.446-2.602c0.335-0.234,0.61-0.402,0.803-0.514
				C547.493,258.639,550.364,258.742,550.641,258.539z M549.967,260.342c-0.094-0.229-2.427-0.097-3.726,0.654
				c-0.246,0.143-0.426,0.257-0.542,0.339c-0.668,0.475-1.155,0.96-1.44,1.453s-0.367,0.84-0.245,1.043
				c0.064,0.107,0.226,0.188,0.458,0.212c0.605,0.064,1.447-0.232,2.46-0.823C548.284,262.434,550.021,260.476,549.967,260.342z"/>
			<path d="M543.646,247.098c0.091-0.32,0.312-0.577,0.665-0.77c0.088-0.048,0.132-0.071,0.22-0.119
				c0.367-0.201,0.647-0.204,0.839-0.03c0.141,0.127,0.367,0.466,0.664,1.016c0.681,1.258,1.001,2.097,0.966,2.51
				c-0.025,0.297-0.159,0.511-0.404,0.645c-0.115,0.063-0.25,0.103-0.402,0.115s-0.278,0.014-0.376,0.004
				c-0.055-0.018-0.082-0.026-0.137-0.043c-0.041-0.041-0.35-0.515-0.928-1.426c-0.578-0.91-0.912-1.413-1.001-1.506
				C543.71,247.336,543.688,247.255,543.646,247.098z"/>
			<path d="M557.054,258.734c-0.247,0.097-0.47,0.13-0.668,0.1c-0.198-0.029-0.335-0.119-0.412-0.266
				c-0.032-0.062-0.05-0.114-0.056-0.158c-0.141-1.088,0.047-2.197,0.604-3.3c0.557-1.102,1.389-2.006,2.478-2.671
				c0.268-0.164,0.462-0.272,0.576-0.328c1.46-0.71,2.875-0.763,4.222-0.164c1.347,0.599,2.425,1.818,3.257,3.637
				c0.462,1.011,0.759,1.964,0.881,2.85c0.173,1.262,0.015,2.414-0.455,3.441c-0.471,1.027-1.182,1.768-2.141,2.235
				c-0.056,0.027-0.083,0.041-0.138,0.068c-0.678,0.301-1.278,0.377-1.802,0.228c-0.523-0.15-0.911-0.472-1.16-0.969
				c-0.106-0.211-0.181-0.426-0.218-0.638c-0.035-0.199,0.03-0.418,0.19-0.654c0.16-0.235,0.368-0.417,0.625-0.543
				c0.016-0.008,0.025-0.012,0.041-0.02c0.235-0.101,0.457-0.132,0.66-0.093s0.343,0.135,0.416,0.284
				c0.031,0.062,0.042,0.112,0.043,0.141c0.007,0.133,0.057,0.274,0.112,0.386c0.104,0.212,0.242,0.338,0.411,0.378
				c0.169,0.041,0.314,0.033,0.435-0.026c0.053-0.026,0.124-0.076,0.213-0.15c0.089-0.073,0.192-0.201,0.312-0.382
				c0.12-0.181,0.226-0.39,0.312-0.624c0.087-0.234,0.145-0.544,0.175-0.936c0.03-0.391,0.008-0.819-0.055-1.276
				c-0.107-0.775-0.369-1.64-0.806-2.57c-0.401-0.855-0.853-1.551-1.354-2.09c-0.502-0.539-0.996-0.886-1.483-1.038
				s-0.927-0.224-1.32-0.211c-0.394,0.013-0.759,0.103-1.097,0.268c-0.028,0.014-0.065,0.036-0.111,0.066
				c-0.046,0.031-0.079,0.05-0.091,0.057c-0.514,0.281-0.961,0.819-1.312,1.499c-0.35,0.68-0.462,1.436-0.378,2.232
				c0.021,0.206-0.048,0.426-0.202,0.653c-0.153,0.227-0.361,0.406-0.622,0.541C557.104,258.709,557.087,258.717,557.054,258.734z"
				/>
			<path d="M572.923,260.148c-1.553-3.55-2.329-5.325-3.881-8.875c-0.345-0.789-0.681-1.288-0.994-1.453
				c-0.125-0.065-0.217-0.147-0.262-0.25c-0.106-0.241-0.036-0.505,0.191-0.789c0.142-0.178,0.349-0.334,0.622-0.452
				c0.302-0.131,0.563-0.162,0.782-0.089c0.536,0.178,1.047,0.845,1.537,1.995c0.522,1.227,1.115,2.601,1.779,4.122
				s1.226,2.819,1.226,2.819c0.045-0.003,0.445-1.402,0.691-1.942c0.732-1.601,2.181-3.015,2.292-3.436
				c0.184-0.694-1.148-3.313-1.627-5.205c-0.047-0.185,0.014-0.401,0.168-0.626c0.154-0.225,0.358-0.395,0.614-0.51
				c0.026-0.01,0.039-0.015,0.065-0.025c0.247-0.096,0.476-0.123,0.686-0.078c0.209,0.046,0.344,0.147,0.404,0.303
				c0.006,0.016,0.008,0.023,0.014,0.039c0.173,0.663,0.401,1.552,0.687,2.671s0.502,1.928,0.646,2.423
				c0.102-0.04,0.152-0.06,0.254-0.099c0.778-0.302,1.487-0.361,2.122-0.178c0.634,0.184,1.121,0.489,1.461,0.91
				c0.341,0.422,0.62,0.927,0.837,1.514c0.116,0.313,0.191,0.634,0.235,0.957c0.102,0.755-0.042,1.462-0.443,2.11
				c-0.401,0.648-0.966,1.114-1.705,1.4c-0.41,0.159-0.781,0.219-1.113,0.178c-0.332-0.04-0.625-0.189-0.878-0.447
				c-0.253-0.258-0.476-0.554-0.666-0.89c-0.19-0.335-0.391-0.767-0.602-1.296c-0.268-0.67-0.613-1.631-0.627-1.634
				c-0.108-0.024-0.934,1.147-1.277,1.888c-0.498,1.075-0.965,2.459-1.403,4.11c-0.122,0.458-0.356,0.764-0.694,0.91
				c-0.122,0.053-0.277,0.073-0.465,0.064c-0.188-0.009-0.348-0.03-0.477-0.066C573.042,260.19,573.003,260.176,572.923,260.148z
				 M579.656,254.095c0.252,0.647,0.5,1.14,0.743,1.478s0.413,0.522,0.514,0.558c0.101,0.036,0.187,0.042,0.256,0.015
				c0.083-0.032,0.169-0.09,0.265-0.171c0.095-0.082,0.184-0.252,0.266-0.514c0.082-0.261,0.1-0.572,0.042-0.918
				c-0.039-0.234-0.112-0.484-0.21-0.744c-0.577-1.519-1.338-2.102-2.28-1.736c-0.101,0.039-0.151,0.06-0.252,0.099
				C579.2,252.841,579.419,253.486,579.656,254.095z"/>
			<path d="M591.609,234.65c0.045-0.014,0.068-0.022,0.114-0.036c0.273-0.082,0.523-0.09,0.749-0.027
				c0.225,0.063,0.363,0.184,0.414,0.357c0.002,0.008,0.002,0.011,0.004,0.019c0.498,1.968,1.419,5.223,2.761,9.765
				c0.43,1.455,0.645,2.182,1.074,3.637c0.075,0.253,0.118,0.452,0.129,0.593c0.076,0.944-0.303,1.814-1.139,2.613
				c-0.835,0.8-1.945,1.418-3.334,1.869c-3.571,1.16-5.617,1.021-6.179-0.563c-0.27-0.759-0.659-1.901-1.169-3.43
				s-0.881-2.619-1.113-3.274c-0.148-0.419-0.314-0.795-0.498-1.128c-0.184-0.333-0.335-0.574-0.454-0.723
				c-0.119-0.149-0.22-0.231-0.286-0.253c-0.166-0.056-0.283-0.171-0.33-0.302c-0.089-0.248-0.012-0.503,0.221-0.764
				c0.188-0.21,0.438-0.376,0.746-0.485s0.568-0.119,0.773-0.049c0.451,0.154,0.822,0.439,1.077,0.873s0.523,1.064,0.807,1.892
				c0.234,0.684,0.597,1.79,1.088,3.317s0.868,2.665,1.125,3.414c0.145,0.421,0.512,0.628,1.103,0.625s1.562-0.23,2.92-0.669
				c1.792-0.579,2.661-1.365,2.559-2.336c-0.018-0.166-0.044-0.297-0.072-0.39c-0.447-1.458-0.672-2.188-1.119-3.646
				c-1.384-4.515-2.384-7.792-2.866-9.754c-0.049-0.199,0.016-0.421,0.188-0.647C591.074,234.919,591.31,234.755,591.609,234.65z"/>
			<path d="M607.646,237.643c-0.22,0.27-0.527,0.464-0.929,0.558c-0.223,0.052-0.423,0.058-0.586,0.01
				c-0.051-0.015-0.13-0.034-0.237-0.051c-0.106-0.017-0.2-0.034-0.283-0.05c-0.083-0.016-0.159-0.031-0.224-0.042
				c-1.167-0.204-2.273-0.153-3.226,0.091c-1.043,0.267-1.728,0.657-2.054,1.161c-0.168,0.261-0.208,0.559-0.118,0.895
				c0.108,0.402,0.458,0.765,1.048,1.09c0.589,0.325,1.451,0.562,2.58,0.72c1.597,0.224,2.837,0.642,3.722,1.231
				c0.884,0.59,1.407,1.269,1.583,2.026c0.041,0.176,0.062,0.365,0.065,0.562c0.011,0.729-0.25,1.44-0.803,2.114
				c-0.552,0.674-1.282,1.125-2.2,1.355c-1.37,0.344-2.628,0.284-3.723-0.215c-0.173-0.079-0.284-0.204-0.328-0.365
				c-0.062-0.228,0.019-0.472,0.243-0.713c0.197-0.212,0.454-0.359,0.753-0.438c0.285-0.075,0.525-0.058,0.714,0.029
				c0.7,0.323,1.476,0.371,2.272,0.172c0.285-0.071,0.542-0.226,0.769-0.468c0.228-0.241,0.324-0.573,0.306-0.976
				c-0.006-0.14-0.016-0.253-0.035-0.334c-0.124-0.513-0.535-0.997-1.235-1.446s-1.741-0.763-3.095-0.946
				c-1.313-0.178-2.386-0.506-3.195-0.968s-1.31-1.017-1.493-1.672c-0.172-0.615-0.057-1.254,0.352-1.914
				c0.708-1.143,1.96-1.959,3.746-2.414c1.41-0.359,2.918-0.432,4.42-0.157c0.099,0.018,0.405,0.061,0.866,0.161
				c0.261,0.057,0.426,0.209,0.476,0.426C607.846,237.276,607.79,237.467,607.646,237.643z"/>
			<path d="M620.086,241.081c0.226,0.086,0.357,0.227,0.39,0.418c0.033,0.192-0.053,0.399-0.255,0.614
				c-1.91,2.03-3.689,3.219-5.324,3.552c-0.095,0.019-0.142,0.028-0.236,0.048c-0.825,0.126-1.489,0.033-1.993-0.286
				c-0.504-0.318-0.82-0.768-0.947-1.352c-0.059-0.271-0.073-0.545-0.042-0.822c0.02-0.188,0.139-0.378,0.357-0.567
				c0.219-0.188,0.466-0.312,0.743-0.37c0.018-0.004,0.027-0.005,0.045-0.009c0.235-0.035,0.445-0.009,0.631,0.08
				c0.185,0.089,0.296,0.214,0.33,0.377c0.014,0.068,0.018,0.125,0.012,0.168c-0.024,0.176-0.019,0.352,0.018,0.528
				c0.056,0.272,0.179,0.464,0.368,0.574c0.188,0.11,0.398,0.149,0.632,0.116c0.017-0.003,0.026-0.005,0.043-0.008
				c1.011-0.205,2.233-1.115,3.715-2.665c0.213-0.223,0.507-0.368,0.874-0.433C619.694,241.001,619.909,241.013,620.086,241.081z
				 M618.934,234.747c0.242,0.072,0.389,0.236,0.427,0.454c0.031,0.178-0.036,0.374-0.202,0.563
				c-1.896,2.16-3.766,3.422-5.419,3.758c-0.088,0.018-0.133,0.027-0.222,0.045c-0.85,0.131-1.516,0.03-2.005-0.306
				c-0.489-0.335-0.801-0.801-0.93-1.398c-0.056-0.258-0.072-0.572-0.036-0.929c0.019-0.187,0.145-0.379,0.371-0.569
				c0.226-0.19,0.48-0.316,0.766-0.376c0.018-0.004,0.027-0.005,0.045-0.009c0.243-0.036,0.46-0.01,0.651,0.078
				s0.301,0.214,0.334,0.378c0.014,0.068,0.017,0.125,0.012,0.168c-0.031,0.253-0.021,0.464,0.01,0.613
				c0.059,0.286,0.187,0.498,0.385,0.635s0.389,0.193,0.57,0.17c0.018-0.003,0.026-0.005,0.044-0.009
				c0.921-0.186,2.152-1.132,3.647-2.821c0.219-0.247,0.523-0.414,0.916-0.483C618.494,234.675,618.716,234.682,618.934,234.747z"/>
			<path d="M625.949,245.325c-0.043,0.006-0.065,0.008-0.108,0.015c-0.258,0.039-0.481,0.01-0.672-0.087s-0.302-0.236-0.33-0.415
				c-0.001-0.008,0-0.012-0.002-0.021c-0.475-4.396-0.769-7.021-0.899-7.873c-0.208-1.359-0.449-2.27-0.721-2.733
				c-0.022-0.039-0.037-0.093-0.047-0.161c-0.049-0.315,0.124-0.586,0.502-0.815c1.257-0.761,3.273-1.373,6.023-1.712
				c1.222-0.151,2.274-0.008,3.146,0.42c0.872,0.429,1.356,1.137,1.458,2.118c0.021,0.207,0.068,0.992,0.142,2.353
				c0.074,1.361,0.165,2.552,0.272,3.574c0.108,1.036,0.238,1.986,0.387,2.851c0.001,0.008,0.002,0.012,0.003,0.021
				c0.02,0.194-0.06,0.384-0.237,0.57c-0.177,0.186-0.425,0.338-0.692,0.387c-0.013,0.002-0.05,0.009-0.106,0.022
				c-0.057,0.014-0.094,0.021-0.108,0.023c-0.245,0.027-0.457-0.006-0.634-0.098c-0.179-0.091-0.288-0.225-0.321-0.401
				c-0.166-0.883-0.302-1.867-0.424-2.93c-0.121-1.048-0.226-2.257-0.314-3.624s-0.142-2.134-0.161-2.3
				c-0.132-1.159-0.983-1.652-2.545-1.457c-1.608,0.201-3.854,0.64-3.973,0.891c-0.078,0.163,0.361,1.386,0.516,2.472
				c0.126,0.88,0.458,3.578,0.823,7.924c0.016,0.192-0.076,0.395-0.266,0.597C626.47,245.137,626.233,245.267,625.949,245.325z"/>
			<path d="M638.405,234.824c-0.468-0.062-0.726-0.245-0.754-0.563c-0.005-0.055,0.009-0.167,0.063-0.299
				c0.376-0.926,1.149-1.778,2.057-2.448c0.907-0.669,1.937-1.108,3.058-1.28c0.332-0.051,0.581-0.079,0.734-0.088
				c1.75-0.105,3.213,0.424,4.359,1.572c1.146,1.149,1.74,2.764,1.81,4.832c0.063,1.902-0.418,3.453-1.42,4.661
				c-1.002,1.209-2.315,1.948-3.928,2.201c-0.313,0.049-0.551,0.077-0.71,0.087c-1.386,0.088-2.579-0.204-3.597-0.881
				c-1.017-0.677-1.584-1.598-1.688-2.774c-0.064-0.733,0.117-1.386,0.552-1.889c0.234-0.271,0.521-0.483,0.821-0.63
				c0.414-0.202,0.85-0.316,1.297-0.349c0.654-0.048,1.337,0.065,2.017,0.297c0.282,0.096,0.442,0.266,0.458,0.515
				c0.011,0.166-0.063,0.323-0.194,0.471c-0.222,0.25-0.56,0.413-1.017,0.444c-0.192,0.013-0.355-0.003-0.492-0.049
				c-0.379-0.127-0.713-0.18-0.993-0.159c-0.026,0.002-0.04,0.004-0.066,0.006c-0.029,0.016-0.062,0.056-0.103,0.122
				c-0.039,0.065-0.074,0.178-0.107,0.334c-0.032,0.156-0.042,0.322-0.028,0.502c0.066,0.859,0.445,1.505,1.129,1.942
				c0.684,0.438,1.436,0.631,2.265,0.58c0.159-0.01,0.285-0.028,0.37-0.045c0.377-0.074,0.766-0.198,1.127-0.398
				c0.361-0.2,0.716-0.488,1.064-0.859c0.348-0.372,0.619-0.889,0.818-1.552c0.198-0.662,0.281-1.423,0.243-2.283
				c-0.042-0.958-0.206-1.797-0.495-2.521c-0.29-0.724-0.657-1.272-1.102-1.646c-0.445-0.374-0.897-0.644-1.357-0.806
				s-0.921-0.228-1.378-0.199c-0.046,0.003-0.099,0.01-0.159,0.021c-0.061,0.011-0.105,0.015-0.135,0.018
				c-1.289,0.148-2.434,1.064-3.096,2.455c-0.08,0.167-0.224,0.32-0.441,0.442c-0.217,0.122-0.455,0.194-0.71,0.216
				C638.556,234.832,638.466,234.832,638.405,234.824z"/>
			<path d="M664.07,230.168c0.046,0.001,0.069,0.002,0.115,0.004c0.276,0.009,0.506,0.079,0.693,0.211
				c0.187,0.132,0.277,0.287,0.271,0.468c0,0.008-0.001,0.011-0.001,0.02c-0.151,2.024-0.267,4.237-0.354,6.638
				c-0.033,0.916-0.052,1.375-0.085,2.291c-0.01,0.278-0.032,0.484-0.066,0.622c-0.224,0.91-0.843,1.606-1.85,2.099
				c-1.007,0.493-2.22,0.727-3.649,0.712c-3.64-0.038-5.473-0.825-5.499-2.506c-0.013-0.806-0.016-2.015-0.011-3.626
				s0.002-2.763-0.009-3.458c-0.007-0.444-0.044-0.852-0.11-1.226s-0.133-0.652-0.197-0.832c-0.064-0.179-0.135-0.288-0.189-0.33
				c-0.138-0.105-0.211-0.254-0.214-0.393c-0.005-0.264,0.149-0.481,0.449-0.653c0.242-0.139,0.527-0.216,0.85-0.22
				s0.57,0.069,0.739,0.2c0.374,0.29,0.628,0.678,0.73,1.171s0.155,1.176,0.16,2.051c0.004,0.723-0.006,1.887-0.027,3.491
				s-0.026,2.802-0.022,3.593c0.002,0.445,0.267,0.759,0.791,0.946s1.485,0.279,2.882,0.295c0.989,0.012,1.71-0.092,2.167-0.318
				c0.456-0.226,0.752-0.585,0.857-1.063c0.036-0.162,0.055-0.303,0.058-0.415c0.024-0.917,0.035-1.375,0.06-2.291
				c0.063-2.402,0.123-4.669,0.287-6.684c0.017-0.205,0.146-0.39,0.373-0.55C663.494,230.254,663.763,230.172,664.07,230.168z"/>
			<path d="M679.398,231.438c0.243,0.039,0.442,0.124,0.598,0.259s0.224,0.278,0.208,0.43c-0.006,0.055-0.022,0.099-0.035,0.123
				c-0.854,1.587-1.462,3.937-2.104,6.13c-0.273,0.934-0.427,1.46-0.464,1.567c-0.44,1.262-0.751,2.148-0.993,2.543
				c-0.583,0.949-1.425,1.375-2.521,1.286c-0.23-0.019-0.439-0.067-0.629-0.145s-0.353-0.164-0.482-0.256
				c-0.131-0.093-0.248-0.239-0.357-0.436s-0.193-0.359-0.249-0.489s-0.116-0.33-0.177-0.599c-0.062-0.269-0.103-0.473-0.122-0.614
				s-0.047-0.373-0.09-0.696s-0.076-0.549-0.096-0.675c-0.241-1.583-0.393-3.516-0.505-5.734c-0.052-1.032-0.442-2.075-0.554-2.082
				c-0.063-0.004-0.339,0.335-0.528,0.574s-0.332,0.437-0.433,0.598c-0.061,0.105-0.09,0.158-0.15,0.263
				c-0.203,0.364-0.603,0.529-1.19,0.498c-0.072-0.004-0.107-0.006-0.18-0.01c-0.21-0.024-0.377-0.095-0.5-0.213
				c-0.123-0.117-0.181-0.252-0.173-0.405c0.005-0.097,0.035-0.177,0.057-0.227c0.023-0.056,0.054-0.163,0.105-0.286
				s0.172-0.338,0.363-0.649c0.191-0.31,0.403-0.582,0.638-0.812c0.234-0.23,0.553-0.436,0.954-0.615
				c0.402-0.178,0.842-0.252,1.317-0.222c0.429,0.027,0.793,0.125,1.089,0.291c0.296,0.167,0.524,0.353,0.686,0.56
				s0.286,0.48,0.376,0.821c0.089,0.341,0.146,0.627,0.167,0.858s0.041,0.535,0.058,0.912c0.095,2.178,0.251,4.056,0.462,5.615
				c0.179,1.32,0.583,2.62,0.603,2.622c0.091,0.007,0.838-1.795,1.474-3.992c0.654-2.263,1.302-4.423,2.052-6.234
				c0.07-0.171,0.241-0.319,0.492-0.434c0.25-0.115,0.513-0.159,0.787-0.131C679.369,231.436,679.38,231.437,679.398,231.438z"/>
			<path d="M682.894,235.574c-0.444-0.156-0.664-0.385-0.627-0.703c0.007-0.055,0.045-0.16,0.124-0.278
				c0.557-0.831,1.485-1.51,2.511-1.982c1.025-0.471,2.125-0.692,3.26-0.634c0.336,0.017,0.585,0.041,0.737,0.062
				c1.738,0.251,3.065,1.068,3.958,2.426c0.893,1.358,1.15,3.06,0.799,5.099c-0.323,1.875-1.112,3.294-2.342,4.274
				c-1.229,0.98-2.663,1.439-4.297,1.359c-0.317-0.016-0.56-0.035-0.718-0.058c-1.377-0.195-2.487-0.722-3.347-1.592
				c-0.859-0.87-1.23-1.887-1.093-3.06c0.086-0.731,0.395-1.332,0.923-1.736c0.284-0.218,0.608-0.371,0.934-0.454
				c0.447-0.114,0.899-0.136,1.344-0.078c0.651,0.085,1.296,0.336,1.915,0.701c0.258,0.151,0.381,0.348,0.346,0.595
				c-0.023,0.165-0.128,0.304-0.286,0.422c-0.269,0.2-0.632,0.291-1.087,0.229c-0.191-0.026-0.35-0.076-0.475-0.148
				c-0.346-0.201-0.661-0.318-0.94-0.354c-0.026-0.003-0.04-0.006-0.066-0.01c-0.032,0.01-0.071,0.044-0.124,0.1
				c-0.052,0.056-0.11,0.157-0.174,0.303s-0.106,0.308-0.129,0.487c-0.109,0.854,0.129,1.563,0.711,2.13
				c0.581,0.567,1.284,0.909,2.107,1.026c0.158,0.022,0.283,0.031,0.37,0.032c0.386,0.004,0.79-0.04,1.186-0.163
				c0.396-0.123,0.802-0.33,1.22-0.624c0.417-0.294,0.789-0.745,1.119-1.354c0.329-0.608,0.564-1.336,0.702-2.187
				c0.153-0.946,0.163-1.802,0.026-2.57c-0.138-0.767-0.388-1.379-0.748-1.836c-0.361-0.457-0.753-0.812-1.171-1.063
				s-0.855-0.411-1.31-0.476c-0.046-0.006-0.098-0.01-0.159-0.012c-0.062-0.001-0.109-0.007-0.139-0.009
				c-1.294-0.117-2.602,0.548-3.532,1.775c-0.112,0.148-0.283,0.269-0.521,0.344c-0.238,0.075-0.487,0.098-0.742,0.067
				C683.039,235.613,682.951,235.595,682.894,235.574z"/>
			<path d="M699.586,236.167c-0.171-0.152-0.236-0.335-0.199-0.527c0.043-0.218,0.202-0.386,0.474-0.502
				c1.298-0.557,2.48-0.731,3.523-0.509c1.677,0.357,2.607,1.494,2.75,3.36c0.075,0.981-0.051,2.147-0.36,3.487
				s-0.768,2.511-1.358,3.515c-1.269,2.155-2.74,3.051-4.458,2.69c-0.455-0.096-0.863-0.291-1.227-0.583
				c-0.362-0.293-0.664-0.666-0.909-1.117c-0.245-0.452-0.443-0.877-0.591-1.273c-0.146-0.396-0.287-0.864-0.427-1.396
				c-0.129-0.49-0.355-1.715-0.696-3.67c-0.008-0.044-0.006-0.1,0.007-0.168c0.03-0.164,0.136-0.307,0.318-0.428
				c0.184-0.122,0.409-0.179,0.646-0.197c0.091-0.007,0.23,0,0.408,0.033c0.503,0.095,0.785,0.311,0.843,0.631
				c0.349,1.957,0.537,3.175,0.638,3.585c0.201,0.815,0.488,1.541,0.825,2.156c0.337,0.616,0.637,1.016,0.772,1.024
				c0.046,0.003,0.174-0.073,0.338-0.173c0.163-0.1,0.391-0.3,0.681-0.6c0.29-0.3,0.547-0.657,0.773-1.058
				c0.525-0.932,0.944-2.017,1.217-3.251c0.278-1.261,0.382-2.33,0.306-3.198c-0.053-0.608-0.194-1.076-0.422-1.402
				s-0.462-0.514-0.701-0.564c-0.346-0.073-0.885,0.054-1.599,0.348c-0.301,0.124-0.621,0.149-0.95,0.083
				C699.968,236.413,699.751,236.315,699.586,236.167z"/>
			<path d="M709.451,240.428c-0.426-0.21-0.616-0.465-0.54-0.776c0.013-0.054,0.064-0.155,0.158-0.263
				c0.657-0.755,1.668-1.312,2.749-1.653c1.08-0.34,2.204-0.423,3.329-0.223c0.333,0.059,0.58,0.114,0.729,0.155
				c1.704,0.467,2.929,1.444,3.653,2.904c0.725,1.46,0.772,3.183,0.171,5.163c-0.553,1.821-1.515,3.129-2.862,3.948
				c-1.348,0.819-2.836,1.094-4.456,0.81c-0.315-0.055-0.555-0.105-0.709-0.147c-1.351-0.365-2.394-1.026-3.145-1.997
				c-0.751-0.97-0.994-2.027-0.713-3.173c0.176-0.715,0.558-1.274,1.134-1.609c0.311-0.181,0.652-0.292,0.986-0.333
				c0.46-0.058,0.914-0.022,1.351,0.091c0.64,0.166,1.253,0.494,1.826,0.934c0.238,0.183,0.337,0.393,0.271,0.634
				c-0.044,0.161-0.167,0.288-0.339,0.385c-0.292,0.165-0.668,0.208-1.114,0.09c-0.188-0.05-0.339-0.119-0.454-0.206
				c-0.32-0.243-0.617-0.4-0.892-0.471c-0.026-0.007-0.04-0.01-0.066-0.017c-0.033,0.006-0.076,0.035-0.136,0.084
				c-0.059,0.049-0.129,0.144-0.211,0.28c-0.081,0.137-0.145,0.292-0.189,0.467c-0.214,0.834-0.062,1.566,0.448,2.202
				c0.51,0.636,1.167,1.062,1.975,1.282c0.155,0.042,0.282,0.067,0.368,0.079c0.384,0.053,0.792,0.061,1.202-0.012
				c0.409-0.072,0.84-0.23,1.293-0.469c0.452-0.239,0.879-0.638,1.283-1.201c0.403-0.562,0.727-1.256,0.969-2.083
				c0.269-0.92,0.385-1.769,0.342-2.548c-0.043-0.779-0.218-1.417-0.521-1.916c-0.305-0.499-0.648-0.9-1.035-1.203
				s-0.807-0.514-1.252-0.635c-0.045-0.012-0.098-0.024-0.158-0.034c-0.062-0.009-0.104-0.02-0.133-0.026
				c-1.278-0.277-2.665,0.22-3.744,1.322c-0.13,0.133-0.318,0.23-0.564,0.276c-0.246,0.045-0.494,0.038-0.745-0.025
				C709.592,240.484,709.507,240.456,709.451,240.428z"/>
			<path d="M723.088,244.628c-0.228-0.087-0.397-0.214-0.512-0.381c-0.115-0.167-0.149-0.331-0.1-0.49
				c0.013-0.04,0.047-0.096,0.102-0.165c0.651-0.819,1.606-1.413,2.802-1.762c1.194-0.349,2.375-0.363,3.531-0.042
				c0.124,0.042,0.188,0.065,0.312,0.107c0.985,0.338,1.662,0.879,2.027,1.613c0.364,0.734,0.374,1.571,0.035,2.512
				c-0.075,0.209-0.143,0.364-0.191,0.462c-1.379,2.77-2.386,5.306-3.12,7.358c-0.109,0.306-0.163,0.459-0.272,0.766
				c-0.065,0.184-0.226,0.321-0.478,0.416s-0.518,0.106-0.804,0.036c-0.066-0.023-0.102-0.035-0.168-0.058
				c-0.248-0.087-0.438-0.215-0.566-0.377c-0.13-0.163-0.165-0.327-0.105-0.498c0.109-0.315,0.164-0.472,0.273-0.787
				c0.736-2.126,1.727-4.705,3.077-7.488c0.048-0.099,0.11-0.25,0.179-0.446c0.229-0.656,0.251-1.162,0.065-1.52
				c-0.187-0.358-0.448-0.597-0.784-0.711c-0.035-0.012-0.055-0.017-0.09-0.029c-0.491-0.138-1.108-0.105-1.851,0.102
				s-1.352,0.6-1.828,1.175c-0.133,0.161-0.336,0.265-0.606,0.309s-0.543,0.021-0.818-0.067
				C723.153,244.648,723.132,244.642,723.088,244.628z"/>
			<path d="M732.711,257.189c-0.041-0.016-0.061-0.025-0.102-0.041c-0.246-0.096-0.429-0.233-0.549-0.413s-0.147-0.354-0.083-0.523
				c0.003-0.008,0.005-0.012,0.008-0.02c1.771-4.052,2.82-6.475,3.129-7.279c0.493-1.284,0.731-2.194,0.723-2.733
				c0-0.044,0.018-0.099,0.042-0.164c0.114-0.298,0.401-0.447,0.849-0.456c1.486-0.03,3.564,0.45,6.163,1.538
				c1.155,0.484,2.016,1.136,2.574,1.947c0.559,0.812,0.632,1.669,0.233,2.572c-0.084,0.19-0.433,0.895-1.045,2.112
				c-0.612,1.218-1.125,2.296-1.54,3.237c-0.42,0.953-0.779,1.842-1.078,2.667c-0.003,0.007-0.007,0.013-0.01,0.021
				c-0.079,0.178-0.241,0.301-0.491,0.373c-0.25,0.072-0.547,0.08-0.809-0.013c-0.013-0.004-0.048-0.017-0.104-0.034
				c-0.058-0.017-0.092-0.029-0.105-0.035c-0.23-0.1-0.402-0.233-0.514-0.402c-0.112-0.169-0.141-0.343-0.082-0.513
				c0.293-0.849,0.662-1.771,1.084-2.754c0.416-0.97,0.924-2.072,1.526-3.302c0.603-1.229,0.937-1.921,1.003-2.074
				c0.461-1.072-0.045-1.928-1.522-2.544c-1.521-0.634-3.723-1.38-3.951-1.222c-0.147,0.103-0.372,1.382-0.775,2.401
				c-0.327,0.827-1.379,3.334-3.221,7.287c-0.081,0.175-0.262,0.304-0.53,0.385C733.266,257.288,732.99,257.282,732.711,257.189z"/>
			<path d="M748.317,254.424c-0.218-0.116-0.374-0.264-0.469-0.445c-0.095-0.181-0.107-0.347-0.038-0.499
				c0.018-0.038,0.057-0.091,0.119-0.152c0.751-0.73,1.781-1.196,3.021-1.389c1.239-0.193,2.425-0.054,3.545,0.415
				c0.119,0.058,0.178,0.088,0.297,0.146c0.947,0.464,1.562,1.089,1.841,1.867c0.276,0.777,0.188,1.611-0.265,2.502
				c-0.101,0.198-0.189,0.345-0.25,0.436c-1.717,2.574-3.031,4.965-4.015,6.911c-0.146,0.29-0.22,0.434-0.366,0.724
				c-0.088,0.174-0.266,0.291-0.529,0.353c-0.265,0.062-0.534,0.037-0.812-0.069c-0.063-0.032-0.098-0.047-0.161-0.079
				c-0.239-0.119-0.41-0.27-0.521-0.448s-0.126-0.347-0.046-0.51c0.147-0.299,0.22-0.448,0.367-0.747
				c0.994-2.019,2.299-4.452,3.987-7.045c0.06-0.092,0.143-0.233,0.235-0.42c0.309-0.622,0.393-1.124,0.249-1.504
				c-0.144-0.381-0.379-0.649-0.702-0.807c-0.034-0.017-0.051-0.025-0.085-0.042c-0.476-0.201-1.101-0.25-1.869-0.139
				c-0.77,0.11-1.427,0.423-1.974,0.934c-0.153,0.143-0.366,0.219-0.643,0.228s-0.547-0.049-0.812-0.171
				C748.381,254.453,748.359,254.443,748.317,254.424z"/>
			<path d="M773.363,261.715c0.135,0.233,0.152,0.442,0.059,0.596c-0.102,0.166-0.284,0.247-0.526,0.264
				c-0.968,0.066-2.597,0.257-2.708,0.433c-0.206,0.323,0.013,2.448-0.707,3.635c-0.216,0.356-0.451,0.679-0.696,0.968
				c-0.51,0.599-1.115,1.244-1.822,1.929c-0.706,0.686-1.272,1.219-1.702,1.601c-0.431,0.382-0.679,0.581-0.719,0.604
				c-0.354,0.203-0.806,0.249-1.31-0.047c-0.039-0.023-0.058-0.033-0.097-0.056c-0.199-0.134-0.33-0.286-0.394-0.46
				c-0.063-0.173-0.057-0.328,0.021-0.46c0.035-0.06,0.072-0.103,0.105-0.131c1.642-1.386,3.039-2.764,4.066-4.037
				c0.295-0.365,0.492-0.647,0.591-0.814c0.403-0.682,0.693-2.121,0.647-2.155c-0.269-0.203-3.529,1.324-5.25,2.231
				s-3.258,2.163-4.368,2.758c-0.457,0.245-1.065,0.198-1.432-0.001c-0.262-0.143-0.394-0.396-0.41-0.745
				c-0.015-0.306,0.099-1.11,0.347-2.403c0.247-1.293,0.557-2.531,0.937-3.692c0.144-0.44,0.295-0.808,0.451-1.103
				c0.857-1.621,2.189-2.554,4.005-2.771c1.475-0.176,2.965,0.15,4.442,0.99c1.201,0.683,2.263,2.371,2.672,2.558
				c0.368,0.168,1.756-0.327,2.366-0.384c0.328-0.031,0.659,0.056,0.974,0.247C773.097,261.382,773.259,261.534,773.363,261.715z
				 M767.787,261.859c0.09-0.198-0.992-1.466-1.829-1.94c-0.77-0.436-1.55-0.625-2.325-0.584c-1.394,0.074-2.455,0.77-3.17,2.089
				c-0.179,0.33-0.319,0.657-0.425,0.978c-0.304,0.921-0.89,3.453-0.89,3.453C759.354,265.996,767.573,262.333,767.787,261.859z"/>
		</g>
	</g>
</g>
</svg>
