<?xml version="1.0" encoding="utf-8"?>
<!-- Generator: Adobe Illustrator 16.0.0, SVG Export Plug-In . SVG Version: 6.00 Build 0)  -->
<!DOCTYPE svg PUBLIC "-//W3C//DTD SVG 1.1//EN" "http://www.w3.org/Graphics/SVG/1.1/DTD/svg11.dtd">
<svg version="1.1" id="Layer_1" xmlns="http://www.w3.org/2000/svg" xmlns:xlink="http://www.w3.org/1999/xlink" x="0px" y="0px"
	 width="1280px" height="720px" viewBox="0 0 1280 720" enable-background="new 0 0 1280 720" xml:space="preserve">
<g id="sky">
	
		<linearGradient id="SVGID_1_" gradientUnits="userSpaceOnUse" x1="783" y1="-101.7969" x2="783" y2="-493.0347" gradientTransform="matrix(1 0 0 1 -143 494.5)">
		<stop  offset="0" style="stop-color:#FFE899"/>
		<stop  offset="0.1062" style="stop-color:#FFE9CF"/>
		<stop  offset="0.2606" style="stop-color:#FFFFDB"/>
		<stop  offset="0.442" style="stop-color:#EDFFED"/>
		<stop  offset="0.6486" style="stop-color:#E0FFFA"/>
		<stop  offset="0.8342" style="stop-color:#DBFFFF"/>
		<stop  offset="1" style="stop-color:#B0E7FF"/>
	</linearGradient>
	<polygon fill="url(#SVGID_1_)" points="0,0 0,622.371 1280,615.5 1280,0 	"/>
</g>
<g id="cloud1_1_">
	
		<linearGradient id="SVGID_2_" gradientUnits="userSpaceOnUse" x1="1169.3574" y1="-197.082" x2="1169.3574" y2="-285.1963" gradientTransform="matrix(1 0 0 1 -143 494.5)">
		<stop  offset="0" style="stop-color:#9FC7D3"/>
		<stop  offset="0.3154" style="stop-color:#C0D5DF"/>
		<stop  offset="0.7674" style="stop-color:#E9E6EE"/>
		<stop  offset="1" style="stop-color:#F9EDF4"/>
	</linearGradient>
	<path fill="url(#SVGID_2_)" d="M1131.979,264.876c-1.627-3.062-3.573-6.06-5.758-6.553c-1.666-3.215-3.856-5.641-6.265-5.641
		c-2.667,0-5.066,2.155-6.797,5.981c-0.207-3.121-1.386-5.656-2.876-5.656c-0.602,0-1.128,0.43-1.591,1.078
		c-0.839-8.768-4.413-15.386-8.707-15.386c-1.087,0-2.12,0.479-3.087,1.251c0.657-2.606,1.062-5.545,1.062-8.723
		c0-10.102-3.771-18.292-8.421-18.292c-2.35,0-4.466,2.088-5.996,5.453c-0.575-1.237-1.289-2.159-2.078-2.74
		c0.151-1.979,0.078-4.274-0.506-5.883c-0.263-0.719-0.524-1.434-0.784-2.157c-0.692-1.889-1.389-3.356-2.538-4.005
		c-0.115-0.064-0.247-0.081-0.368-0.126c0.188-2.587-0.171-5.286-1.146-7.365c-0.256-0.549-0.516-1.097-0.771-1.647
		c-0.339-0.722-0.75-1.26-1.19-1.677c-0.476-1.166-1.004-2.228-1.553-3.226c-0.009-0.692-0.043-1.374-0.144-1.999
		c-0.682-4.336-2.961-7.596-5.226-6.096c-0.604,0.408-1.206,0.808-1.813,1.207c-0.016,0.016-0.028,0.031-0.046,0.041
		c-0.566-0.15-1.142-0.25-1.727-0.25c-0.172,0-0.34,0.055-0.512,0.063c-0.655-1.126-1.526-1.857-2.627-1.857
		c-2.144,0-3.438,2.699-3.899,5.964c-1.464,1.86-2.769,4.252-3.835,7.094c-0.215-0.06-0.421-0.134-0.652-0.134
		c-3.413,0-4.698,6.801-3.849,11.915c-1.27,0.059-2.375,1.392-3.102,3.411c-1.947-4.955-4.809-8.167-8.043-8.167
		c-5.592,0-10.172,9.428-10.562,21.359c-0.434-0.311-0.905-0.518-1.445-0.518c-0.756,0-1.392,0.36-1.938,0.937
		c-0.438-0.625-1.03-1.003-1.529-1.097c-0.191-0.421-0.41-0.796-0.68-1.079c-0.237-0.25-0.479-0.505-0.715-0.746
		c-0.721-0.762-1.521-1.077-2.317-0.623c-0.063,0.037-0.128,0.1-0.188,0.149c-0.181-0.19-0.367-0.342-0.569-0.428
		c-0.622-0.265-1.256-0.391-1.879-0.05c-0.108-0.346-0.227-0.678-0.374-0.979l-0.36-0.744c-0.199-0.409-0.437-0.729-0.687-1.002
		c-0.264-1.041-0.636-1.939-1.146-2.552c-0.645-0.776-1.595-1.1-2.318-0.624c-0.104,0.072-0.205,0.174-0.304,0.259
		c-0.084-0.403-0.167-0.795-0.248-1.192c-0.267-0.927-0.624-1.668-1.077-2.217c-0.442-0.685-1.019-1.166-1.566-1.355
		c-0.361-0.126-0.721-0.202-1.077-0.212c-1.588-2.33-3.498-3.688-5.56-3.688c-2.203,0-4.233,1.569-5.879,4.214
		c-0.079-0.008-0.152-0.048-0.236-0.048c-0.391,0-0.816,0.197-1.211,0.543c-0.946-0.791-2.002-0.566-2.884,0.688
		c-0.098,0.142-0.204,0.263-0.312,0.375c-0.583,0.539-1.097,1.362-1.427,2.526c-0.013,0.044-0.021,0.112-0.032,0.168
		c-1.064,0.724-1.791,2.367-2.052,4.381c-0.074,0.138-0.147,0.262-0.217,0.409c-0.115-0.045-0.227-0.115-0.344-0.136
		c-0.351-0.746-0.795-1.338-1.324-1.708c-0.592-0.41-1.185-0.822-1.775-1.233c-0.711-0.499-1.683-0.143-2.316,0.619
		c-0.094,0.115-0.182,0.273-0.273,0.42c-0.461,0.019-0.92,0.283-1.33,0.873c-0.865,1.229-1.775,2.292-2.731,3.202
		c-0.612,0.586-1.139,2.162-1.35,3.486c-0.795,0.314-1.519,1.218-1.88,2.822c-0.461,2.028-0.738,4.136-0.775,6.283
		c-0.361,0.063-0.714,0.275-1.05,0.596c-0.427-0.155-0.867-0.137-1.336,0.056c-0.675,0.277-1.349,0.554-2.021,0.833
		c-0.709,0.294-1.442,1.588-1.799,2.836c-0.125,0.443-0.213,0.963-0.285,1.509c-0.222,0.409-0.425,0.897-0.589,1.422
		c-0.081,0.104-0.169,0.198-0.248,0.299c-0.714-0.405-1.464-0.247-2.148,0.453c-0.558-0.022-1.118,0.226-1.592,0.801
		c-0.359,0.431-0.695,1.11-0.96,1.881c-0.127-0.028-0.252-0.073-0.381-0.059c-0.58,0.049-1.229,0.369-1.727,1.079
		c-0.619,0.197-1.293,0.985-1.675,1.777c-0.391,0.793-0.705,1.978-0.828,3.156c-0.121-0.105-0.241-0.191-0.372-0.25
		c-0.267-0.075-0.53-0.151-0.802-0.221c-0.541,0-1.047,0.284-1.519,0.844c-0.536,0.496-1.073,0.988-1.614,1.483
		c-0.565,0.53-1.065,1.958-1.301,3.207c-0.023,0.004-0.055,0.015-0.086,0.019c-0.747-1.243-1.707-1.74-2.607-1.359
		c-0.72-0.366-1.498-0.03-2.147,0.765c-0.107-0.171-0.224-0.314-0.345-0.446c-0.665-0.725-1.585-1.233-2.315-0.62
		c-0.263,0.22-0.528,0.375-0.803,0.507c-0.246,0.018-0.493,0.018-0.742-0.042c-0.464-0.101-1.012,0.269-1.477,0.82
		c-0.609-0.098-1.253,0.14-1.856,0.684c-1.783,1.582-3.447,4.979-4.987,7.406c-0.023,0-0.046,1.374-0.069,1.374h-0.501
		c-0.802,0-1.578-0.908-2.145,0.25c-0.028-0.02-0.052-0.862-0.075-0.88c-1.037-0.673-2.184-0.873-3.166,0.049
		c-0.522-0.351-1.098-0.615-1.688-0.304c-0.335,0.174-0.668,0.25-1.003,0.43c-0.101,0.049-0.199,0.154-0.297,0.312
		c-0.121-0.074-0.241-0.175-0.362-0.271c-0.588-0.479-1.438,1.978-2.048,2.528c-0.529,0.208-1.029,3.626-1.441,3.626h46.941h96.462
		h69.635C1132.605,268.792,1132.316,265.515,1131.979,264.876z"/>
</g>
<g id="cloud1">
	
		<linearGradient id="SVGID_3_" gradientUnits="userSpaceOnUse" x1="295.2817" y1="-287.0195" x2="295.2817" y2="-395.9277" gradientTransform="matrix(1 0 0 1 -143 494.5)">
		<stop  offset="0" style="stop-color:#9FC7D3"/>
		<stop  offset="0.3154" style="stop-color:#C0D5DF"/>
		<stop  offset="0.7674" style="stop-color:#E9E6EE"/>
		<stop  offset="1" style="stop-color:#F9EDF4"/>
	</linearGradient>
	<path fill="url(#SVGID_3_)" d="M288.948,167.263c-2.105-3.785-4.625-7.489-7.451-8.1c-2.156-3.973-4.99-6.972-8.105-6.972
		c-3.451,0-6.556,2.665-8.795,7.393c-0.268-3.857-1.794-6.991-3.721-6.991c-0.777,0-1.46,0.532-2.059,1.332
		c-1.085-10.836-5.711-19.016-11.266-19.016c-1.407,0-2.745,0.593-3.995,1.547c0.851-3.221,1.374-6.854,1.374-10.78
		c0-12.485-4.879-22.607-10.895-22.607c-3.038,0-5.778,2.581-7.758,6.739c-0.745-1.528-1.669-2.668-2.689-3.387
		c0.196-2.445,0.102-5.283-0.655-7.271c-0.338-0.889-0.678-1.772-1.015-2.666c-0.896-2.334-1.795-4.148-3.284-4.951
		c-0.151-0.079-0.32-0.1-0.476-0.156c0.241-3.197-0.222-6.532-1.483-9.102c-0.333-0.68-0.667-1.356-0.997-2.036
		c-0.438-0.893-0.969-1.558-1.541-2.073c-0.615-1.44-1.299-2.753-2.01-3.987c-0.01-0.855-0.055-1.698-0.184-2.47
		c-0.882-5.359-3.831-9.388-6.761-7.535c-0.78,0.505-1.561,0.999-2.348,1.492c-0.019,0.02-0.038,0.039-0.059,0.051
		c-0.733-0.186-1.477-0.309-2.234-0.309c-0.222,0-0.439,0.067-0.661,0.079c-0.85-1.392-1.976-2.296-3.398-2.296
		c-2.774,0-4.45,3.335-5.048,7.372c-1.894,2.299-3.581,5.255-4.962,8.768c-0.278-0.074-0.544-0.167-0.844-0.167
		c-4.417,0-6.08,8.405-4.98,14.726c-1.641,0.074-3.072,1.721-4.011,4.216c-2.521-6.123-6.222-10.093-10.407-10.093
		c-7.236,0-13.163,11.653-13.667,26.398c-0.561-0.384-1.171-0.64-1.871-0.64c-0.977,0-1.799,0.445-2.508,1.156
		c-0.564-0.772-1.333-1.24-1.979-1.355c-0.249-0.521-0.531-0.983-0.879-1.333c-0.307-0.309-0.619-0.625-0.925-0.922
		c-0.931-0.942-1.97-1.331-2.999-0.77c-0.082,0.044-0.166,0.123-0.244,0.185c-0.235-0.235-0.477-0.423-0.738-0.529
		c-0.805-0.328-1.625-0.483-2.432-0.062c-0.139-0.427-0.291-0.838-0.484-1.21l-0.466-0.919c-0.258-0.506-0.564-0.901-0.889-1.239
		c-0.339-1.286-0.822-2.397-1.484-3.153c-0.833-0.96-2.062-1.36-2.999-0.771c-0.136,0.088-0.267,0.214-0.394,0.321
		c-0.108-0.498-0.216-0.983-0.322-1.475c-0.344-1.145-0.807-2.061-1.393-2.739c-0.574-0.847-1.318-1.441-2.028-1.675
		c-0.468-0.156-0.932-0.25-1.394-0.262c-2.055-2.879-4.525-4.559-7.192-4.559c-2.851,0-5.479,1.939-7.608,5.209
		c-0.101-0.011-0.198-0.06-0.307-0.06c-0.504,0-1.056,0.244-1.566,0.672c-1.224-0.977-2.588-0.7-3.729,0.851
		c-0.127,0.175-0.265,0.325-0.407,0.463c-0.754,0.666-1.418,1.684-1.845,3.122c-0.015,0.055-0.026,0.139-0.042,0.208
		c-1.375,0.895-2.317,2.926-2.654,5.415c-0.096,0.17-0.19,0.323-0.279,0.505c-0.149-0.056-0.293-0.142-0.444-0.167
		c-0.454-0.921-1.029-1.655-1.714-2.112c-0.765-0.508-1.532-1.016-2.298-1.524c-0.921-0.616-2.176-0.176-2.998,0.766
		c-0.121,0.142-0.235,0.338-0.355,0.52c-0.595,0.023-1.189,0.351-1.721,1.078c-1.12,1.519-2.296,2.832-3.534,3.958
		c-0.793,0.724-1.474,2.672-1.746,4.309c-1.029,0.388-1.965,1.505-2.434,3.488c-0.595,2.506-0.955,5.112-1.003,7.765
		c-0.468,0.077-0.924,0.339-1.358,0.735c-0.551-0.192-1.123-0.169-1.729,0.07c-0.871,0.343-1.744,0.684-2.613,1.029
		c-0.918,0.364-1.868,1.963-2.328,3.506c-0.161,0.548-0.275,1.19-0.369,1.866c-0.288,0.505-0.55,1.108-0.762,1.758
		c-0.105,0.128-0.219,0.245-0.322,0.369c-0.924-0.5-1.895-0.305-2.779,0.56c-0.722-0.027-1.448,0.279-2.061,0.991
		c-0.466,0.532-0.901,1.372-1.242,2.325c-0.164-0.035-0.326-0.091-0.493-0.073c-0.75,0.061-1.59,0.456-2.233,1.333
		c-0.801,0.244-1.673,1.218-2.167,2.197c-0.504,0.98-0.913,2.443-1.071,3.9c-0.156-0.13-0.312-0.235-0.482-0.309
		c-0.344-0.092-0.687-0.187-1.035-0.272c-0.7,0-1.355,0.352-1.964,1.044c-0.695,0.612-1.389,1.221-2.089,1.833
		c-0.732,0.654-1.381,2.421-1.684,3.963c-0.032,0.005-0.071,0.019-0.11,0.023c-0.967-1.536-2.209-2.15-3.375-1.68
		c-0.931-0.453-1.939-0.037-2.78,0.945c-0.138-0.212-0.289-0.389-0.444-0.551c-0.862-0.896-2.051-1.524-2.997-0.766
		c-0.34,0.271-0.684,0.463-1.039,0.627c-0.319,0.021-0.638,0.021-0.961-0.052c-0.6-0.125-1.31,0.333-1.909,1.014
		c-0.79-0.122-1.621,0.172-2.402,0.845c-2.308,1.956-4.461,6.153-6.454,9.153c-0.031,0-0.06,1.698-0.09,1.698h-0.649
		c-1.035,0-2.042-1.122-2.773,0.308c-0.036-0.024-0.066-1.064-0.097-1.087c-1.344-0.832-2.825-1.079-4.099,0.06
		c-0.675-0.434-1.418-0.76-2.182-0.376c-0.433,0.216-0.864,0.311-1.297,0.532c-0.129,0.061-0.258,0.191-0.384,0.387
		c-0.156-0.093-0.312-0.216-0.468-0.334c-0.762-0.592-1.861,2.444-2.65,3.124c-0.685,0.256-1.332,4.481-1.865,4.481h60.738h124.814
		h90.101C289.759,172.102,289.383,168.053,288.948,167.263z"/>
</g>
<g id="skyy">
	
		<linearGradient id="SVGID_4_" gradientUnits="userSpaceOnUse" x1="493.5601" y1="183.1113" x2="493.5598" y2="-385.9897" gradientTransform="matrix(1 0 0 1 -143 494.5)">
		<stop  offset="0" style="stop-color:#9FC7D3"/>
		<stop  offset="0.3154" style="stop-color:#C0D5DF"/>
		<stop  offset="0.7674" style="stop-color:#E9E6EE"/>
		<stop  offset="1" style="stop-color:#F9EDF4"/>
	</linearGradient>
	<path fill="url(#SVGID_4_)" d="M675.452,311.177c-7.855,0-14.771,3.952-18.677,9.815c-1.688,0.092-3.306,0.355-4.896,0.766
		c-1.188-12.302-13.229-22.267-25.784-22.267c-6.648,0-12.508,2.441-16.965,6.396c-0.56-0.051-1.129-0.062-1.705-0.062
		c-4.576,0-8.709,1.486-11.684,3.855c-1.295-7.347-9.188-13.435-19.965-16.062c-0.307-2.214-0.979-4.25-2.062-6.258
		c-1.045-3.122-2.829-5.669-5.353-7.95c-2.348-2.456-5.121-3.624-8.326-4.639c-3.082-1.577-6.406-1.284-9.971-1.284h-1.061
		c-0.761,0-1.514-0.836-2.257-0.772c-3.479-1.511-7.739-3.156-12.358-3.156c-4.843,0-9.293,0.924-12.854,2.563
		c-0.194-0.437-0.403-0.888-0.632-1.312c-1.043-3.123-2.827-5.82-5.354-8.104c-2.346-2.458-5.122-3.634-8.328-4.646
		c-3.084-1.582-6.4-1.566-9.969-1.566h-1.059c-4.668,0-9.022,0.562-13.062,2.842c-1.745,1.314-3.489,2.287-5.232,3.604
		c-3.204,3.145-5.429,6.75-6.651,11.016c-0.218,1.583-0.438,3.16-0.655,4.742c-0.146-0.146-0.298-0.212-0.455-0.354
		c-2.345-2.453-5.121-3.043-8.328-4.06c-3.084-1.579-6.4-0.787-9.968-0.787h-1.058c-4.67,0-9.024-0.226-13.062,2.054
		c-1.746,1.312-3.488,1.705-5.231,3.021c-2.659,2.604-4.626,5.395-5.93,8.771c-0.077,0-0.151-0.074-0.23-0.074
		c-2.629,0-5.146,0.385-7.493,1.01c-1.695-1.232-3.562-1.655-5.611-2.303c-3.083-1.578-6.4-3.477-9.968-1.477h-1.055
		c-4.671,0-9.025,0.436-13.062,2.711c-1.746,1.312-3.489,2.085-5.234,3.396c-3.207,3.145-5.429,6.759-6.657,11.021
		c-0.209,1.536-0.421,3.025-0.633,4.562c-0.477,0.428-0.937,0.846-1.372,1.307c-2.808-1.734-6.271-2.777-10.019-2.777
		c-0.68,0-1.352,0.032-2.008,0.102c-0.271-0.339-0.542-0.688-0.81-1.023c-3.229-3.122-7.036-5.281-11.419-6.479
		c-2.292-0.305-4.586-0.604-6.88-0.899c-2.055-0.077-4.021,0.146-5.913,0.633c-3.35-8.264-13.68-14.285-25.904-14.285
		c-8.48,0-16.047,2.896-21.006,7.426c-2.249-4.863-7.436-8.854-14.146-11c0.021-0.297,0.028-0.602,0.028-0.896
		c0-7.062-4.64-13.128-11.297-15.838c-3.575-9.417-15.189-16.319-28.963-16.319c-2.358,0-4.654,0.202-6.856,0.588
		c1.104-2.339,1.716-4.907,1.716-7.601c0-10.88-9.982-19.708-22.3-19.708c-0.459,0-0.907,0.036-1.36,0.062
		c-1.355-7.94-7.211-14.734-14.631-18.234c0.518-1.137,0.964-2.314,1.319-3.543c0.307-2.232,0.614-4.464,0.924-6.696
		c-0.015-4.548-1.193-8.791-3.534-12.72l-4.047-5.099c-2.001-2.099-4.324-3.668-6.959-4.716
		c-1.804-9.836-11.659-17.575-21.899-17.575c-7.857,0-14.416,3.957-18.326,9.818c-3.941,0.22-7.642,1.302-11.098,3.251
		c-1.675,1.26-3.35,2.521-5.025,3.779c-2.419,2.19-4.13,4.784-5.131,7.778c-1.554,2.882-2.267,5.986-2.137,9.313
		c-0.013,0.358-0.012,0.711-0.007,1.065c-0.416,0.249-0.832,0.505-1.232,0.777c-1.286-0.58-2.623-1.075-4.027-1.458
		c-2.293-0.298-4.586-0.601-6.879-0.898c-3.194-0.119-6.197,0.456-9.009,1.715c-0.995-0.091-2.002-0.152-3.029-0.152
		c-2.405,0-4.73,0.255-6.938,0.729c0.931-2.028,1.437-4.197,1.437-6.452c0-11.281-12.556-20.427-28.053-20.427
		c-10.561,0-19.743,4.252-24.531,10.526c-4.516-3.047-10.171-4.841-16.157-4.841c-7.6,0-15.322,0.561-19.843,5.238L0,720h701.826
		l-9.101-400.581C687.631,314.688,681.902,311.177,675.452,311.177z"/>
	
		<linearGradient id="SVGID_5_" gradientUnits="userSpaceOnUse" x1="5151.1787" y1="184.2637" x2="5151.1787" y2="-369.4121" gradientTransform="matrix(-1 0 0 1 6099.5918 494.5)">
		<stop  offset="0" style="stop-color:#9FC7D3"/>
		<stop  offset="0.3154" style="stop-color:#C0D5DF"/>
		<stop  offset="0.7674" style="stop-color:#E9E6EE"/>
		<stop  offset="1" style="stop-color:#F9EDF4"/>
	</linearGradient>
	<path fill="url(#SVGID_5_)" d="M639.22,317.995c7.438,0,13.979,3.74,17.672,9.288c1.599,0.087,3.122,0.337,4.639,0.725
		c1.123-11.64,12.519-21.062,24.396-21.062c6.297,0,11.835,2.311,16.053,6.051c0.528-0.043,1.066-0.059,1.612-0.059
		c4.329,0,8.24,1.4,11.056,3.646c1.229-6.944,8.692-12.707,18.896-15.19c0.284-2.1,0.924-4.021,1.95-5.926
		c0.982-2.949,2.677-5.361,5.062-7.521c2.218-2.324,4.848-3.354,7.879-4.313c2.916-1.49,6.062-1.14,9.438-1.14h0.999
		c0.719,0,1.432-0.866,2.135-0.808c3.293-1.43,7.323-3.026,11.693-3.026c4.58,0,8.791,0.854,12.16,2.41
		c0.188-0.413,0.386-0.853,0.602-1.254c0.986-2.956,2.675-5.515,5.062-7.671c2.227-2.326,4.853-3.323,7.884-4.284
		c2.921-1.496,6.062-2.367,9.435-1.367h0.997c4.418,0,8.537,0.416,12.354,2.569c1.649,1.244,3.307,2.104,4.953,3.35
		c3.033,2.977,5.139,6.357,6.297,10.395c0.207,1.498,0.414,2.978,0.619,4.475c0.146-0.139,0.282-0.207,0.436-0.346
		c2.218-2.319,4.845-2.809,7.88-3.77c2.917-1.494,6.062-1.673,9.431-0.673h1.002c4.42,0,8.538-0.288,12.355,1.865
		c1.646,1.243,3.304,1.575,4.955,2.815c2.516,2.467,4.377,5.083,5.604,8.278c0.075,0,0.147-0.081,0.227-0.081
		c2.482,0,4.863,0.358,7.09,0.951c1.604-1.167,3.372-1.199,5.311-1.812c2.916-1.49,6.062-4.021,9.435-1.021h0.998
		c4.419,0,8.536,0.037,12.354,2.193c1.651,1.237,3.305,1.783,4.954,3.024c3.034,2.978,5.134,6.3,6.298,10.337
		c0.198,1.453,0.396,2.816,0.603,4.271c0.444,0.401,0.886,0.771,1.299,1.214c2.651-1.642,5.932-2.641,9.477-2.641
		c0.646,0,1.278,0.021,1.898,0.085c0.258-0.319,0.515-0.647,0.769-0.976c3.058-2.954,6.656-5,10.806-6.134
		c2.17-0.285,4.342-0.568,6.513-0.854c1.938-0.07,3.804,0.137,5.596,0.602c3.167-7.819,12.938-13.521,24.512-13.521
		c8.021,0,15.185,2.74,19.875,7.027c2.127-4.604,7.033-8.379,13.384-10.408c-0.02-0.279-0.022-0.562-0.022-0.849
		c0-6.681,4.392-12.421,10.688-14.983c3.384-8.91,14.37-15.438,27.4-15.438c2.229,0,4.402,0.188,6.484,0.555
		c-1.045-2.211-1.623-4.643-1.623-7.188c0-10.296,9.443-18.647,21.103-18.647c0.437,0,0.854,0.034,1.286,0.06
		c1.279-7.513,6.82-13.939,13.845-17.253c-0.488-1.074-0.911-2.188-1.248-3.353c-0.291-2.112-0.582-4.224-0.875-6.336
		c0.016-4.303,1.132-8.317,3.346-12.035l3.829-4.824c1.896-1.986,4.092-3.472,6.584-4.462c1.707-9.307,11.03-16.629,20.721-16.629
		c7.437,0,13.643,3.743,17.341,9.289c3.729,0.208,7.229,1.231,10.5,3.076c1.586,1.191,3.17,2.385,4.756,3.575
		c2.289,2.072,3.906,4.526,4.854,7.359c1.471,2.728,2.146,5.663,2.021,8.812c0.015,0.339,0.012,0.673,0.007,1.008
		c0.396,0.235,0.786,0.479,1.166,0.735c1.219-0.548,2.479-1.017,3.812-1.379c2.17-0.282,4.339-0.567,6.511-0.85
		c3.021-0.112,5.861,0.431,8.521,1.622c0.939-0.086,1.896-0.144,2.864-0.144c2.271,0,4.478,0.241,6.562,0.69
		c-0.882-1.919-1.356-3.972-1.356-6.105c0-10.674,11.881-19.326,26.542-19.326c9.993,0,18.683,4.022,23.212,9.959
		c4.271-2.884,9.623-4.581,15.287-4.581c7.188,0,14.496,0.531,18.771,4.956V720h-661.19l5.059-394.205
		C627.698,321.319,633.117,317.995,639.22,317.995z"/>
</g>
<g id="cloud4">
	
		<linearGradient id="SVGID_6_" gradientUnits="userSpaceOnUse" x1="1219.1621" y1="-290.0479" x2="1219.1621" y2="-487.0727" gradientTransform="matrix(1 0 0 1 -143 494.5)">
		<stop  offset="0" style="stop-color:#9FC7D3"/>
		<stop  offset="0.3154" style="stop-color:#C0D5DF"/>
		<stop  offset="0.7674" style="stop-color:#E9E6EE"/>
		<stop  offset="1" style="stop-color:#F9EDF4"/>
	</linearGradient>
	<path fill="url(#SVGID_6_)" d="M1259.5,124.5c-0.598,0-1.235-2.291-1.982-3.117c-3.582-3.978-7.89-6.892-12.709-7.526
		c-3.686-4.178-8.514-6.851-13.836-6.851c-5.881,0-11.179,3.057-14.999,8.021c-0.458-4.048-3.062-7.219-6.354-7.219
		c-1.32,0-2.479,0.618-3.511,1.458c-1.854-11.385-9.739-19.955-19.216-19.955c-2.396,0-4.688,0.646-6.816,1.646
		c1.454-3.385,2.341-7.199,2.341-11.328c0-13.12-8.322-23.75-18.591-23.75c-5.184,0-9.854,2.719-13.235,7.087
		c-1.271-1.615-2.849-2.801-4.584-3.556c0.33-2.575,0.175-5.565-1.118-7.643c-0.58-0.935-1.164-1.869-1.739-2.801
		c-1.52-2.456-3.059-4.363-5.603-5.209c-0.253-0.086-0.54-0.102-0.808-0.158c0.41-3.362-0.377-6.87-2.527-9.571
		c-0.562-0.714-1.134-1.426-1.702-2.134c-0.749-0.938-1.651-1.636-2.627-2.177c-1.049-1.516-2.219-2.894-3.435-4.189
		c-0.021-0.906-0.1-1.796-0.312-2.598c-1.507-5.63-6.535-9.875-11.536-7.918c-1.33,0.521-2.668,1.043-4,1.57
		c-0.038,0.013-0.063,0.035-0.104,0.047c-1.257-0.199-2.521-0.322-3.817-0.322c-0.375,0-0.742,0.068-1.121,0.081
		c-1.447-1.465-3.369-2.411-5.801-2.411c-4.738,0-7.592,3.502-8.613,7.745c-3.228,2.417-6.113,5.521-8.461,9.213
		c-0.472-0.076-0.935-0.172-1.441-0.172c-7.533,0-10.367,8.834-8.507,15.47c-2.788,0.083-5.23,1.815-6.836,4.432
		c-4.296-6.439-10.608-10.603-17.759-10.603c-12.35,0-22.451,12.241-23.316,27.741c-0.953-0.402-1.994-0.674-3.188-0.674
		c-5.25,0-8.215,4.292-8.9,9.137c-0.81-0.086-1.63-0.137-2.453-0.137c-11.249,0-21.028,8.012-26.044,19.793
		c-1.688-1.898-3.883-3.081-6.313-3.081c-3.938,0-7.312,3.011-8.811,7.311c-1.212-0.88-2.664-1.43-4.39-1.506
		c-1.37-3.225-3.976-5.639-7.901-5.639c-6.858,0-9.796,7.308-8.85,13.634c-1.354-1.069-3.011-1.744-5.037-1.744
		c-3.009,0-5.271,1.414-6.78,3.531c-2.467-0.03-4.938,0.602-7.002,2.255c-0.177,0.147-0.352,0.284-0.521,0.431
		c-0.923-0.364-1.926-0.619-3.062-0.619c-1.764,0-3.247,0.524-4.486,1.358c-0.653,0.076-1.312,0.196-1.979,0.368
		c-1.166,0.296-2.339,0.592-3.515,0.889c-3.329,0.849-6.725,4.35-8.4,7.812c-0.272,0.571-0.333,1.211-0.552,1.846
		c-1.512-2.172-4.348-3.194-6.688-3.194c-3.343,0-5.69-2.298-7.128,4.924H1259.5V124.5z"/>
</g>
<g id="cloud2">
	
		<linearGradient id="SVGID_7_" gradientUnits="userSpaceOnUse" x1="601.3442" y1="-326.3486" x2="601.3442" y2="-431.6167" gradientTransform="matrix(1 0 0 1 -143 494.5)">
		<stop  offset="0" style="stop-color:#9FC7D3"/>
		<stop  offset="0.3154" style="stop-color:#C0D5DF"/>
		<stop  offset="0.7674" style="stop-color:#E9E6EE"/>
		<stop  offset="1" style="stop-color:#F9EDF4"/>
	</linearGradient>
	<path fill="url(#SVGID_7_)" d="M588.147,129.279c-1.999-3.658-4.396-7.238-7.077-7.828c-2.047-3.84-4.739-6.738-7.698-6.738
		c-3.277,0-6.227,2.575-8.354,7.145c-0.254-3.729-1.7-6.757-3.531-6.757c-0.738,0-1.39,0.514-1.955,1.288
		c-1.031-10.474-5.424-18.38-10.702-18.38c-1.335,0-2.605,0.572-3.793,1.495c0.808-3.114,1.305-6.625,1.305-10.42
		c0-12.067-4.634-21.851-10.348-21.851c-2.884,0-5.487,2.495-7.369,6.514c-0.707-1.478-1.585-2.579-2.553-3.273
		c0.186-2.364,0.098-5.106-0.622-7.028c-0.322-0.859-0.646-1.712-0.963-2.576c-0.854-2.257-1.709-4.01-3.119-4.786
		c-0.146-0.076-0.306-0.097-0.451-0.15c0.228-3.09-0.211-6.314-1.411-8.797c-0.312-0.657-0.633-1.311-0.946-1.968
		c-0.417-0.863-0.921-1.506-1.461-2.004c-0.585-1.392-1.232-2.661-1.91-3.854c-0.011-0.827-0.054-1.642-0.175-2.387
		c-0.838-5.18-3.638-9.074-6.421-7.282c-0.741,0.488-1.481,0.965-2.229,1.441c-0.021,0.019-0.036,0.038-0.057,0.049
		c-0.694-0.179-1.4-0.298-2.122-0.298c-0.211,0-0.417,0.065-0.627,0.076c-0.807-1.345-1.876-2.219-3.228-2.219
		c-2.632,0-4.229,3.224-4.793,7.125c-1.799,2.222-3.401,5.08-4.713,8.475c-0.269-0.072-0.521-0.161-0.805-0.161
		c-4.191,0-5.771,8.125-4.729,14.233c-1.56,0.071-2.917,1.663-3.812,4.075c-2.394-5.918-5.905-9.755-9.884-9.755
		c-6.872,0-12.5,11.263-12.979,25.515c-0.532-0.372-1.113-0.618-1.776-0.618c-0.93,0-1.709,0.43-2.382,1.117
		c-0.536-0.747-1.271-1.198-1.879-1.31c-0.239-0.503-0.505-0.951-0.835-1.289c-0.291-0.299-0.587-0.604-0.878-0.892
		c-0.885-0.91-1.87-1.286-2.85-0.744c-0.079,0.043-0.156,0.118-0.23,0.178c-0.223-0.227-0.453-0.409-0.701-0.511
		c-0.765-0.316-1.543-0.467-2.311-0.06c-0.131-0.413-0.274-0.81-0.459-1.17l-0.442-0.888c-0.245-0.489-0.536-0.871-0.844-1.197
		c-0.322-1.243-0.782-2.317-1.41-3.048c-0.791-0.928-1.959-1.314-2.847-0.745c-0.132,0.085-0.256,0.207-0.375,0.31
		c-0.104-0.482-0.204-0.951-0.309-1.426c-0.327-1.106-0.764-1.992-1.323-2.647c-0.542-0.819-1.252-1.393-1.925-1.619
		c-0.441-0.151-0.885-0.242-1.325-0.253c-1.948-2.783-4.297-4.407-6.83-4.407c-2.708,0-5.205,1.875-7.226,5.035
		c-0.094-0.011-0.188-0.059-0.292-0.059c-0.479,0-1.002,0.236-1.487,0.65c-1.164-0.945-2.458-0.676-3.543,0.822
		c-0.122,0.169-0.25,0.314-0.386,0.447c-0.716,0.645-1.348,1.628-1.753,3.018c-0.014,0.053-0.022,0.134-0.04,0.202
		c-1.304,0.865-2.201,2.828-2.519,5.234c-0.092,0.165-0.181,0.313-0.268,0.489c-0.142-0.054-0.277-0.138-0.422-0.162
		c-0.43-0.891-0.977-1.599-1.628-2.041c-0.726-0.491-1.455-0.982-2.184-1.474c-0.875-0.595-2.066-0.17-2.847,0.74
		c-0.116,0.137-0.224,0.326-0.338,0.502c-0.566,0.022-1.128,0.339-1.634,1.042c-1.063,1.468-2.181,2.737-3.356,3.825
		c-0.753,0.7-1.399,2.583-1.659,4.165c-0.977,0.375-1.865,1.454-2.31,3.372c-0.567,2.422-0.907,4.94-0.953,7.505
		c-0.445,0.075-0.877,0.327-1.29,0.71c-0.525-0.185-1.066-0.164-1.642,0.068c-0.827,0.331-1.656,0.661-2.482,0.994
		c-0.871,0.352-1.771,1.897-2.21,3.389c-0.153,0.529-0.262,1.15-0.35,1.803c-0.274,0.488-0.524,1.071-0.723,1.699
		c-0.1,0.125-0.208,0.236-0.306,0.356c-0.877-0.483-1.8-0.295-2.64,0.541c-0.685-0.026-1.377,0.27-1.958,0.958
		c-0.443,0.515-0.856,1.326-1.181,2.247c-0.155-0.033-0.309-0.087-0.466-0.07c-0.715,0.059-1.511,0.441-2.121,1.289
		c-0.761,0.236-1.589,1.177-2.058,2.124c-0.479,0.947-0.867,2.361-1.018,3.77c-0.148-0.125-0.296-0.227-0.458-0.298
		c-0.326-0.089-0.652-0.181-0.983-0.263c-0.665,0-1.286,0.339-1.866,1.009c-0.66,0.592-1.319,1.18-1.984,1.772
		c-0.696,0.633-1.311,2.34-1.598,3.831c-0.03,0.005-0.067,0.018-0.105,0.022c-0.918-1.485-2.099-2.079-3.206-1.624
		c-0.885-0.438-1.844-0.035-2.64,0.914c-0.131-0.205-0.275-0.375-0.422-0.533c-0.818-0.865-1.948-1.473-2.846-0.739
		c-0.323,0.262-0.649,0.447-0.986,0.606c-0.303,0.021-0.607,0.021-0.913-0.051c-0.57-0.121-1.243,0.322-1.812,0.98
		c-0.752-0.118-1.54,0.166-2.283,0.816c-2.191,1.891-4.238,5.948-6.128,8.848c-0.029,0-0.057,1.641-0.088,1.641h-0.615
		c-0.983,0-1.938-1.084-2.633,0.297c-0.035-0.023-0.064-1.028-0.092-1.05c-1.274-0.804-2.683-1.043-3.893,0.058
		c-0.641-0.419-1.345-0.735-2.072-0.363c-0.412,0.208-0.821,0.299-1.231,0.514c-0.124,0.059-0.244,0.185-0.363,0.374
		c-0.146-0.089-0.297-0.209-0.446-0.323c-0.723-0.573-1.769,2.362-2.516,3.02c-0.65,0.248-1.264,4.332-1.771,4.332h57.685h118.542
		h85.572C588.917,133.957,588.559,130.043,588.147,129.279z"/>
</g>
<g>
	<g>
		<path fill="#E8E8E8" d="M1200.055,160.284c8.238-16.013,1.798-34.223-11.792-25.095c17.254-13.441,2.424-35.695-12.651-24.095
			c16.776-24.036-0.006-48.425-21.691-23.045c-32.161,37.635-14.165,105.947,5.685,103.315
			C1171.841,189.741,1193.677,172.675,1200.055,160.284z"/>
		<path fill="#F5F5F5" d="M1219.595,183.893c15.4-9.341,19.432-28.23,3.072-27.555c21.735-2.436,20.731-29.153,1.813-27.157
			c26.866-11.717,25.32-41.275-6.437-30.988c-47.095,15.264-67.476,82.901-49.182,91.038
			C1180.145,194.247,1207.68,191.119,1219.595,183.893z"/>
		<g>
			<path fill="#3D392F" d="M1156.239,241.272c0,0,2.249,5.765,0.748,11.376c-0.193,0.703-0.942,4.435,0.703,8.03
				c1.764,3.769,7.077,2.128,9.022-2.983c2.551-6.831-2.882-20.423-2.882-20.423L1156.239,241.272z"/>
			<path fill="#3D392F" d="M1111.369,252.472c0,0-0.123,2.542,2.175,6.696c2.334,4.14,5.256,4.428,8.727,7.156
				c3.475,2.723,3.729,10.396-2.541,9.529c-6.271-0.889-9.753-6.119-12.598-10.39c-2.487-3.74-6.805-13.885-6.805-13.885
				L1111.369,252.472z"/>
		</g>
		<path fill="#71C1E8" d="M1175.797,206.136c3.344,34.907-24.856,51.616-58.499,51.376c-31.39-0.222-41.611-19.276-45.474-42.748
			c-3.866-23.475,2.966-62.716,4.376-66.534c1.413-3.818,2.791-31.768,42.235-34.035c39.453-2.263,49.069,37.411,49.069,37.411
			S1172.447,171.216,1175.797,206.136z"/>
		<path fill="#533E29" d="M1201.343,244.595l31.148,9.979l16.472-44.037l-30.289-12.165l-5.735,15.3l-4.64-2.459l-6.682,15.622
			l5.602,2.101L1201.343,244.595z M1212.167,215.726l-4.147,11.062l-2.819-0.981l4.238-10.959L1212.167,215.726z"/>
		<path fill="#231F20" d="M1087.31,152.306c-1.165,0.313-1.585,2.553-0.935,5.017c0.649,2.461,2.126,4.206,3.295,3.892
			c1.167-0.313,1.588-2.562,0.935-5.023C1089.952,153.736,1088.479,151.993,1087.31,152.306z"/>
		<path fill="#231F20" d="M1117.327,145.455c-1.17,0.312-1.588,2.555-0.934,5.018c0.647,2.465,2.126,4.207,3.29,3.897
			c1.177-0.312,1.593-2.562,0.94-5.026C1119.971,146.883,1118.492,145.141,1117.327,145.455z"/>
		<path fill="#D93637" d="M1110.156,181.604c15.385-4.634,9.856-16.853,9.856-16.853c-10.834,0.669-26.554,7.202-26.554,7.202
			S1094.928,186.192,1110.156,181.604z"/>
		<g>
			<path fill="#3D392F" d="M1193.823,209.674c0,0-0.442,2.148,3.525,9.155c3.965,7.007,10.332,4.637,12.291,0.738
				c1.957-3.894-2.931-7.364-2.931-7.364c2.118,1.358,6.455,1.201,5.158-1.842c-1.294-3.042-12.594-4.143-12.594-4.143
				L1193.823,209.674z"/>
			<path fill="#E6E7E8" d="M1192.505,208.306c0,0,0.121,2.371,1.616,2.636c2.654,0.473,5.67-2.116,6.353-4.171
				c0.684-2.056-2.33-2.921-2.33-2.921L1192.505,208.306z"/>
			<path fill="#71C1E8" d="M1169.518,192.723c7.911,2.882,23.437,15.961,23.437,15.961l0.39-0.051
				c2.402-0.314,4.364-2.072,4.947-4.417l0,0c-9.295-22.914-26.705-28.09-26.705-28.09
				C1165.894,175.58,1161.607,189.841,1169.518,192.723z"/>
		</g>
		<g>
			<path fill="#3D392F" d="M1055.178,163.945c0,0,0.443-2.145-3.523-9.16c-3.965-7.001-10.333-4.631-12.294-0.736
				c-1.953,3.887,2.928,7.366,2.928,7.366c-2.116-1.362-6.451-1.207-5.154,1.836c1.294,3.04,12.593,4.141,12.593,4.141
				L1055.178,163.945z"/>
			<path fill="#E6E7E8" d="M1056.496,165.316c0,0-0.125-2.376-1.616-2.637c-2.654-0.471-5.672,2.109-6.357,4.165
				c-0.68,2.055,2.334,2.927,2.334,2.927L1056.496,165.316z"/>
			<path fill="#71C1E8" d="M1079.481,180.9c-7.909-2.891-23.437-15.963-23.437-15.963l-0.392,0.051
				c-2.4,0.313-4.365,2.063-4.947,4.415l0,0c9.295,22.913,26.705,28.086,26.705,28.086
				C1083.107,198.042,1087.394,183.781,1079.481,180.9z"/>
		</g>
	</g>
	<path fill="#533E29" d="M1123.158,194.946l1.969,3.537l-6.352,6.352c0,0-8.372,13.979,23.725,25.666l3.547,11.898l-15.788,2.969
		c-33.474-21.439-18.383-41.276-18.383-41.276l-0.702-4.024l1.882-2.817L1123.158,194.946z"/>
</g>
<g>
	<path fill="#5FBBE8" d="M297.812,109.065c0,0,10.879,2.641,17.553,1.834c6.673-0.807,13.305-3.269,12.481-1.908
		c-0.823,1.362-11.309,4.138-13.7,5.317c-2.392,1.179-13.945,1.952-17.996-0.128C292.099,112.101,297.812,109.065,297.812,109.065z"
		/>
	<path fill="#E8E8E8" d="M266.219,128.649c9.177-1.788,6.979-34.697-12.853-46.569c-13.373-8.006-17.172,5.284-6.169,13.426
		c-8.4-2.887-11.657,9.165-2.021,12.547c-7.372-2.018-7.511,6.999-1.483,12.86C248.36,125.448,260.562,129.752,266.219,128.649z"/>
	<path fill="#3D392F" d="M279.27,141.916c0,0-0.401,5.135-0.946,7.157c-0.621,2.312-1.388,5.145-4.03,6.472
		c-2.644,1.319-3.672-2.114-2.542-3.839c1.133-1.723,2.381-2.286,2.796-4.465c0.401-2.182-0.032-3.287-0.032-3.287L279.27,141.916z"
		/>
	<path fill="#3D392F" d="M299.152,141.173c0,0-0.402,5.135-0.941,7.156c-0.625,2.312-1.392,5.145-4.037,6.471
		c-2.644,1.321-3.671-2.113-2.537-3.839c1.128-1.723,2.379-2.285,2.793-4.465c0.405-2.182-0.029-3.288-0.029-3.288L299.152,141.173z
		"/>
	<path fill="#71C1E8" d="M257.468,106.524c0,0-1.648-18.992,16.15-23.859c17.793-4.865,22.562,7.301,23.754,8.779
		c1.195,1.478,10.058,17.829,11.836,28.794c1.78,10.964,0.092,20.916-13.766,25.684c-14.855,5.11-29.821,1.914-33.534-14.036
		C258.197,115.935,257.468,106.524,257.468,106.524z"/>
	<polygon fill="#D6A332" points="341.802,103.314 347.917,103.336 342.92,106.879 343.054,104.917 	"/>
	<g>
		<g>
			<path fill="#604D40" d="M329.546,104.6c-2.018-1.813-4.556-9.984-7.878-16.778c-3.323-6.794-10.84-5.437-10.84-5.437
				s-0.576-4.541-2.851-3.916c-2.28,0.625-0.777,6.135,0.901,5.819c1.68-0.316,6.683-0.781,9.86,2.438
				c3.176,3.22,4.461,15.758,6.031,19.165c0.305,0.652,0.622,1.194,0.939,1.63c-0.212,0.499-0.397,1.098-0.543,1.803
				c-0.74,3.679,0.898,16.174-1.451,20.041c-2.347,3.865-7.323,4.565-9.031,4.646c-1.708,0.08-1.899,5.788,0.462,5.872
				c2.358,0.083,1.868-4.468,1.868-4.468s7.63-0.413,9.293-7.789c1.668-7.377,2.777-15.436,4.323-17.667
				C331.803,108.285,331.062,105.962,329.546,104.6z"/>
			<path fill="none" stroke="#604D40" stroke-width="0.3125" stroke-miterlimit="10" d="M308.58,82.784
				c0,0,2.823,23.327,0.498,26.811c-2.32,3.484-2.196-3.687,1.886,3.04c4.076,6.725,4.827,22.769,4.827,22.769"/>
			
				<rect x="304.316" y="109.977" transform="matrix(-0.9539 0.3 -0.3 -0.9539 669.0005 118.0945)" fill="#7A4927" width="42.236" height="0.856"/>
			<polygon fill="#D6A332" points="303.468,114.3 305.638,116.3 311.498,114.485 309.334,112.578 308.795,113.245 307.136,113.221 
				306.834,113.965 305.355,113.765 305.099,114.517 			"/>
		</g>
		<polygon fill="#D6A332" points="305.25,119.748 305.865,116.863 311.697,114.958 311.032,117.765 310.206,117.53 308.868,118.509 
			308.19,118.077 307.099,119.095 306.455,118.628 		"/>
	</g>
	<path fill="#5FBBE8" d="M314.642,113.553c0,0-11.229,4.776-14.184,4.071c-2.958-0.705-9.485-8.235-11.893-8.193
		c-2.408,0.042-4.752,5.27-0.065,9.068c4.688,3.798,13.164,8.016,17.46,5.308c4.297-2.707,9.387-5.599,10.216-9.388
		C316.764,111.724,314.642,113.553,314.642,113.553z"/>
	<path fill="#3D392F" d="M312.018,114.623c0,0,2.268,2.447,3.09,2.115c0.819-0.333,1.846-2.635,3.222-2.453
		c1.375,0.182,0.089-2.183-0.85-2.623c-0.938-0.44-2.667-0.072-3.511,0.691C313.123,113.116,312.018,114.623,312.018,114.623z"/>
	<path fill="#D93637" d="M294.798,109.816c0,0,0.941,1.552,2.786,0.69c1.846-0.86,0.784-3.041,0.784-3.041"/>
	
		<ellipse transform="matrix(-0.0069 1 -1 -0.0069 386.0468 -185.4374)" fill="#231F20" cx="285.105" cy="98.978" rx="1.983" ry="1.499"/>
	
		<ellipse transform="matrix(-0.0069 1 -1 -0.0069 392.2881 -200.1129)" fill="#231F20" cx="295.513" cy="94.74" rx="1.983" ry="1.499"/>
	<path fill="#F5F5F5" d="M261.804,129.084c6.882-6.324-12.197-33.225-35.309-32.975c-15.586,0.169-11.874,13.483,1.761,14.672
		c-8.667,1.93-5.139,13.905,4.843,11.749c-7.334,2.135-2.746,9.895,5.46,11.737C244.907,135.693,257.559,132.981,261.804,129.084z"
		/>
</g>
<g>
	<path fill="#272A2B" d="M939.406,352.369H340.593c-6.748,0-12.22,4.922-12.22,10.992v327.037c0,6.068,5.472,10.99,12.22,10.99
		h598.815c6.746,0,12.219-4.92,12.219-10.99V363.361C951.625,357.291,946.154,352.369,939.406,352.369z M519.035,400.739
		c-5.3,0-9.596-4.297-9.596-9.594c0-5.301,4.296-9.596,9.596-9.596s9.596,4.295,9.596,9.596
		C528.631,396.442,524.335,400.739,519.035,400.739z M790.754,399.651c-5.301,0-9.596-4.295-9.596-9.594s4.295-9.596,9.596-9.596
		c5.299,0,9.596,4.297,9.596,9.596S796.053,399.651,790.754,399.651z"/>
	<g>
		<g>
			<g>
				<path fill="#FFFFFF" d="M540.694,277.098c31.461,0,56.963,26.281,56.963,57.74c0,4.346-0.489,36.141-1.412,38.516h-7.556
					c1.059-2.375,1.626-34.146,1.626-38.516c0-27.406-22.216-50.01-49.621-50.01s-49.619,22.883-49.619,50.287
					c0,4.369,0.568,9.748,1.625,13.311h-7.556c-0.923-3.562-1.411-9.158-1.411-13.504
					C483.733,303.465,509.237,277.098,540.694,277.098z"/>
				<path fill="#FFFFFF" d="M540.694,284.439c27.405,0,49.621,22.398,49.621,49.805c0,4.371-0.568,35.547-1.626,37.922h-7.067
					c1.23-2.375,1.896-33.521,1.896-37.922c0-23.652-19.171-42.916-42.824-42.916c-23.648,0-42.816,19.396-42.816,43.047
					c0,4.4,0.661,9.303,1.895,12.865h-7.07c-1.057-3.562-1.625-8.541-1.625-12.91C491.075,306.924,513.289,284.439,540.694,284.439z
					"/>
				<g>
					<path fill="#FFFFFF" d="M540.694,291.236c23.652,0,42.822,19.355,42.822,43.006c0,4.402-0.665,35.549-1.896,37.922h-8.055
						c1.51-2.373,2.338-33.465,2.338-37.922c0-19.445-15.763-35.301-35.209-35.301c-19.445,0-35.208,15.986-35.208,35.432
						c0,4.459,0.829,9.305,2.341,12.865h-8.056c-1.233-3.561-1.896-8.508-1.896-12.91
						C497.875,310.678,517.045,291.236,540.694,291.236z"/>
					<path fill="#FFFFFF" d="M540.694,291.236c23.652,0,42.822,19.355,42.822,43.006c0,4.402-0.665,35.549-1.896,37.922h-8.055
						c1.51-2.373,2.338-33.465,2.338-37.922c0-19.445-15.763-35.301-35.209-35.301c-19.445,0-35.208,15.986-35.208,35.432
						c0,4.459,0.829,9.305,2.341,12.865h-8.056c-1.233-3.561-1.896-8.508-1.896-12.91
						C497.875,310.678,517.045,291.236,540.694,291.236z"/>
				</g>
				<path fill="#FFFFFF" d="M540.694,298.852c19.446,0,35.209,15.945,35.209,35.391c0,4.457-0.828,35.549-2.338,37.922h-8.335
					c1.956-2.373,3.062-33.365,3.062-37.922c0-15.24-12.355-27.691-27.598-27.691c-15.239,0-27.597,12.582-27.597,27.822
					c0,4.557,1.107,9.305,3.062,12.865h-8.333c-1.511-3.561-2.341-8.453-2.341-12.91
					C505.486,314.883,521.249,298.852,540.694,298.852z"/>
				<path fill="#FFFFFF" d="M540.694,306.463c15.242,0,27.598,12.539,27.598,27.779c0,4.557-1.105,35.549-3.062,37.922h-8.369
					c2.729-2.373,4.362-33.152,4.362-37.922c0-11.338-9.191-20.619-20.529-20.619c-11.336,0-20.526,9.414-20.526,20.75
					c0,4.77,1.632,9.303,4.362,12.863h-8.37c-1.955-3.561-3.062-8.354-3.062-12.91C513.098,319.088,525.455,306.463,540.694,306.463
					z"/>
			</g>
			<g>
				<path fill="#F9F9F7" d="M540.694,277.098c31.461,0,56.963,26.281,56.963,57.74c0,4.346-0.489,36.141-1.412,38.516h-7.556
					c1.059-2.375,1.626-34.146,1.626-38.516c0-27.406-22.216-50.01-49.621-50.01s-49.619,22.883-49.619,50.287
					c0,4.369,0.568,9.748,1.625,13.311h-7.556c-0.923-3.562-1.411-9.158-1.411-13.504
					C483.733,303.465,509.237,277.098,540.694,277.098z"/>
				<path fill="#FFE400" d="M540.694,284.439c27.405,0,49.621,22.398,49.621,49.805c0,4.371-0.568,35.547-1.626,37.922h-7.067
					c1.23-2.375,1.896-33.521,1.896-37.922c0-23.652-19.171-42.916-42.824-42.916c-23.648,0-42.816,19.396-42.816,43.047
					c0,4.4,0.661,9.303,1.895,12.865h-7.07c-1.057-3.562-1.625-8.541-1.625-12.91C491.075,306.924,513.289,284.439,540.694,284.439z
					"/>
				<g>
					<path fill="#71C1E8" d="M540.694,291.236c23.652,0,42.822,19.355,42.822,43.006c0,4.402-0.665,35.549-1.896,37.922h-8.055
						c1.51-2.373,2.338-33.465,2.338-37.922c0-19.445-15.763-35.301-35.209-35.301c-19.445,0-35.208,15.986-35.208,35.432
						c0,4.459,0.829,9.305,2.341,12.865h-8.056c-1.233-3.561-1.896-8.508-1.896-12.91
						C497.875,310.678,517.045,291.236,540.694,291.236z"/>
				</g>
				<path fill="#FFFFFF" d="M540.694,298.852c19.446,0,35.209,15.945,35.209,35.391c0,4.457-0.828,35.549-2.338,37.922h-8.335
					c1.956-2.373,3.062-33.365,3.062-37.922c0-15.24-12.355-27.691-27.598-27.691c-15.239,0-27.597,12.582-27.597,27.822
					c0,4.557,1.107,9.305,3.062,12.865h-8.333c-1.511-3.561-2.341-8.453-2.341-12.91
					C505.486,314.883,521.249,298.852,540.694,298.852z"/>
				<path fill="#FF8EBD" d="M540.694,306.463c15.242,0,27.598,12.539,27.598,27.779c0,4.557-1.105,35.549-3.062,37.922h-8.369
					c2.729-2.373,4.362-33.152,4.362-37.922c0-11.338-9.191-20.619-20.529-20.619c-11.336,0-20.526,9.414-20.526,20.75
					c0,4.77,1.632,9.303,4.362,12.863h-8.37c-1.955-3.561-3.062-8.354-3.062-12.91C513.098,319.088,525.455,306.463,540.694,306.463
					z"/>
			</g>
		</g>
		<g>
			<path fill="#F9F9F7" d="M549.413,365.357c-1.112-18.713,16.082-13.457,17.234-13.133c0.819-6.691,3.317-13.295,13.526-12.014
				c13.485,1.691,13.44,16.197,13.087,17.396c0.856-0.174,17.459,1.008,16.272,14.861c-0.634,7.407-6.2,15.13-13.632,15.13
				c-7.431,0-41.941,0-45.913,0c-4.753,0-8.513-4.055-8.72-10.214C540.977,368.633,549.45,365.973,549.413,365.357z"/>
			<ellipse fill="#FF91AD" cx="586.503" cy="374.194" rx="5.547" ry="3.563"/>
			<ellipse fill="#FF91AD" cx="567.489" cy="374.194" rx="5.545" ry="3.563"/>
			<path fill="none" stroke="#684C40" stroke-width="1.2533" stroke-linecap="round" stroke-miterlimit="10" d="M582.641,365.885
				c0,2.746,2.226,4.971,4.97,4.971s4.969-2.225,4.969-4.971"/>
			<path fill="none" stroke="#684C40" stroke-width="1.2533" stroke-linecap="round" stroke-miterlimit="10" d="M561.318,365.885
				c0,2.746,2.225,4.971,4.97,4.971c2.744,0,4.969-2.225,4.969-4.971"/>
		</g>
		<g>
			<g>
				<g>
					<path fill="#F9F9F7" d="M414.433,357.928c0,0-7.686,6.404-16.973,10.248c-9.289,3.842-18.574,3.203-17.295,8.969
						c1.279,5.763,6.405,9.927,6.405,9.927l34.909-16.655L414.433,357.928z"/>
					<path fill="#F9F9F7" d="M507.629,363.373c0,0,9.287,8.967,22.417,10.246c13.131,1.283,6.088,8.97,3.842,13.452
						c-2.24,4.484-36.187-12.489-36.187-12.489L507.629,363.373z"/>
					<path fill="#F9F9F7" d="M390.734,381.146c12.007-2.882,25.62-17.136,25.62-17.136s-5.452-16.771-6.732-55.814
						c0.188,0.057,0.371,0.121,0.561,0.174c4.076,1.623,20.677,6.035,24.714,6.443c0.402,5.912,2.116,14.33,8.2,19.256
						c0,0,37.266-16.375,55.246-1.924c13.854,11.137,8.562,36.016,4.324,38.432c0,0,1.938,4.049,7.205,7.848
						c5.37,3.876,14.12,7.515,19.215,8.485c10.09,1.924,1.258,11.305-2.883,14.893c-4.803,4.164-31.226-4.803-40.831-20.178
						l-14.413-4.8c0,0-17.455,8.325-36.028,0.479c0,0-8.647,8.647-26.422,15.851c-17.772,7.205-22.097,6.246-24.5,0.963
						S378.726,384.028,390.734,381.146z"/>
				</g>
				<g>
					<g>
						<path fill="#F9F9F7" d="M375.841,301.221c3.911-1.916,8.111-3.209,12.055-5.07c4.356-2.049,24.584-14.396,24.611-14.689
							c-0.382-2.06-1.459-8.154-1.441-8.734c0.117-3.54,3.524-4.593,5.891-3.198c1.41,0.562,2.352,2.122,2.541,3.595
							c0.916,1.666,4.865,8.879,5.863,10.838c1.665,3.27,6.477,37.012,4.138,39.039c-0.938,3.086-22.594,7.168-23.515,7.344
							c-2.873,0.547-5.207,2.17-8.139,2.057c-2.453,0.451-8.188-1.074-10.979-1.781
							C387.013,330.619,372.769,302.725,375.841,301.221z"/>
						<path fill="#FFFFFF" d="M379.051,329.881c0.028,0.029,0.058,0.049,0.086,0.076
							C379.196,330.018,379.124,329.98,379.051,329.881z"/>
					</g>
				</g>
				<path fill="#71C1E8" d="M376.627,327.801c-2.335-2.396-4.583-4.93-6.231-7.863c-3.209-5.711,4.643-18.223,5.045-18.252
					c10.936-0.768,13.041,17.002,13.423,25.643C389.141,333.586,378.753,329.982,376.627,327.801z"/>
				<g>
					<path fill="#71C1E8" stroke="#7CC9E8" stroke-width="1.187" stroke-miterlimit="10" d="M398.748,289.623
						c0,0,11.302-0.369,13.374-6.967l-19.377-25.461L398.748,289.623z"/>
					
						<path fill="none" stroke="#7CC9E8" stroke-width="1.1887" stroke-linecap="round" stroke-linejoin="round" stroke-miterlimit="10" d="
						M398.149,285.658c0,0-0.6-2.361,2.602-3.961c3.203-1.604,5.726-3.807,5.083-7.328"/>
					
						<path fill="none" stroke="#7CC9E8" stroke-width="1.1887" stroke-linecap="round" stroke-linejoin="round" stroke-miterlimit="10" d="
						M396.107,275.289c0,0,0.96-1.48,2.882-2.121s2.643-1.76,2.643-4.323"/>
				</g>
				<path fill="#71C1E8" d="M525.243,339.594c0,0,8.042-3.436,12.97,3.604c3.659,5.229,9.396,3.25,12.491,0.719
					c0,0,3.522,16.252-17.775,18.176L525.243,339.594z"/>
				<path fill="#FFE400" d="M514.433,331.668c0,0,7.207-1.441,11.531,6.486c4.322,7.924,6.757,20.51,13.45,22.576
					c0,0-16.093,4.803-21.138-2.4C513.232,351.123,514.433,331.668,514.433,331.668z"/>
				<path fill="#71C1E8" d="M445.719,323.994c0,0,11.731,10.342,3.768,21.049c-7.968,10.711-17.955,24.225-10.56,28.305
					c5.657,3.121,10.109,0.303,10.65-3.99c0,0,4.473,9.135-2.786,14.487c-7.263,5.354-33.042,4.207-22.706-33.366L445.719,323.994z"
					/>
				<path fill="#FFE400" d="M435.886,295.725c0,0,12.252,10.703,11.568,23.551c-1.025,19.139-19.363,27.539-25.185,40.277
					c-1.46-3.883-0.634-17.76,8.854-35.34c4.902-9.092,4.061-19.891,4.061-19.891L435.886,295.725z"/>
				<path fill="#FF8EBD" d="M424.681,280.297c0,0,11.207,6.188,13.381,18.867c3.16,18.475-12.258,29.371-14.867,44.828
					c-2.301-3.932-6.873-12.639-1.241-31.684c2.927-9.908,2.785-23.381,2.785-23.381L424.681,280.297z"/>
				<path fill="#FF8EBD" d="M497.86,332.145c0,0,3.123-7.686,11.289-5.041c8.166,2.643,7.986,12.438,10.81,20.895
					c2.969,8.885,6.483,13.693,6.483,13.693s-15.552,1.406-19.934-13.932C503.146,335.988,497.86,332.145,497.86,332.145z"/>
				<path fill="none" stroke="#684C40" stroke-width="1.1887" stroke-linecap="round" stroke-miterlimit="10" d="M402.638,303.734
					c-1.277,2.916,0.051,6.318,2.966,7.594c2.917,1.277,6.317-0.051,7.594-2.969"/>
				<circle fill="#684C40" cx="379.863" cy="317.07" r="1.52"/>
			</g>
			<path fill="#71C1E8" d="M494.695,338.93c-3.782-1.926-5.319,1.758-5.319,1.758s1.119-3.832-3.03-4.713
				c-4.151-0.883-6.907,6.246-0.034,13.377C496.138,348.131,498.477,340.854,494.695,338.93z"/>
			<path fill="#FFE400" d="M496.169,351.367c-2.859,0.672-2.026,3.307-2.026,3.307s-1.12-2.527-3.707-1.137
				c-2.589,1.389-0.86,6.391,5.96,7.086C501.044,355.586,499.028,350.693,496.169,351.367z"/>
			<path fill="#FF8EBD" d="M486.317,356.705c-1.979-0.885-2.669,1.035-2.669,1.035s0.472-1.984-1.669-2.328
				c-2.142-0.342-3.365,3.369,0.328,6.828C487.292,361.363,488.298,357.588,486.317,356.705z"/>
		</g>
	</g>
	<text transform="matrix(1 0 0 1 554.6387 530.1641)" font-family="'MyriadPro-Regular'" font-size="45.1661">youtube</text>
	<g>
		<g>
			<g>
				<path fill="#FFFFFF" d="M773.27,275.911c-31.463,0-56.965,26.28-56.965,57.739c0,4.346,0.49,36.141,1.412,38.516h7.557
					c-1.059-2.375-1.627-34.146-1.627-38.516c0-27.404,22.217-50.008,49.623-50.008c27.404,0,49.617,22.881,49.617,50.285
					c0,4.369-0.568,9.75-1.625,13.311h7.557c0.922-3.561,1.41-9.158,1.41-13.504C830.229,302.277,804.725,275.911,773.27,275.911z"
					/>
				<path fill="#FFFFFF" d="M773.27,283.252c-27.408,0-49.623,22.4-49.623,49.805c0,4.371,0.57,35.549,1.627,37.922h7.068
					c-1.232-2.373-1.896-33.521-1.896-37.922c0-23.652,19.168-42.916,42.82-42.916c23.65,0,42.82,19.396,42.82,43.047
					c0,4.4-0.662,9.303-1.896,12.865h7.07c1.057-3.562,1.625-8.541,1.625-12.91C822.887,305.736,800.674,283.252,773.27,283.252z"/>
				<g>
					<path fill="#FFFFFF" d="M773.27,290.051c-23.654,0-42.824,19.354-42.824,43.004c0,4.402,0.666,35.549,1.896,37.922h8.055
						c-1.51-2.373-2.338-33.465-2.338-37.922c0-19.445,15.762-35.301,35.211-35.301c19.443,0,35.205,15.986,35.205,35.432
						c0,4.459-0.828,9.305-2.338,12.865h8.055c1.232-3.561,1.895-8.508,1.895-12.91C816.088,309.49,796.918,290.051,773.27,290.051z
						"/>
					<path fill="#FFFFFF" d="M773.27,290.051c-23.654,0-42.824,19.354-42.824,43.004c0,4.402,0.666,35.549,1.896,37.922h8.055
						c-1.51-2.373-2.338-33.465-2.338-37.922c0-19.445,15.762-35.301,35.211-35.301c19.443,0,35.205,15.986,35.205,35.432
						c0,4.459-0.828,9.305-2.338,12.865h8.055c1.232-3.561,1.895-8.508,1.895-12.91C816.088,309.49,796.918,290.051,773.27,290.051z
						"/>
				</g>
				<path fill="#FFFFFF" d="M773.27,297.664c-19.449,0-35.211,15.947-35.211,35.391c0,4.457,0.826,35.549,2.338,37.922h8.334
					c-1.953-2.373-3.061-33.365-3.061-37.922c0-15.24,12.355-27.691,27.6-27.691c15.238,0,27.594,12.582,27.594,27.822
					c0,4.557-1.105,9.305-3.061,12.865h8.334c1.51-3.561,2.338-8.453,2.338-12.91C808.477,313.695,792.713,297.664,773.27,297.664z"
					/>
				<path fill="#FFFFFF" d="M773.27,305.275c-15.244,0-27.6,12.539-27.6,27.779c0,4.557,1.107,35.549,3.061,37.922h8.371
					c-2.73-2.373-4.363-33.15-4.363-37.922c0-11.336,9.191-20.619,20.531-20.619c11.336,0,20.523,9.414,20.523,20.75
					c0,4.771-1.631,9.303-4.361,12.865h8.371c1.955-3.562,3.062-8.355,3.062-12.91C800.865,317.9,788.508,305.275,773.27,305.275z"
					/>
			</g>
			<g>
				<path fill="#F9F9F7" d="M773.27,275.911c-31.463,0-56.965,26.28-56.965,57.739c0,4.346,0.49,36.141,1.412,38.516h7.557
					c-1.059-2.375-1.627-34.146-1.627-38.516c0-27.404,22.217-50.008,49.623-50.008c27.404,0,49.617,22.881,49.617,50.285
					c0,4.369-0.568,9.75-1.625,13.311h7.557c0.922-3.561,1.41-9.158,1.41-13.504C830.229,302.277,804.725,275.911,773.27,275.911z"
					/>
				<path fill="#FFE400" d="M773.27,283.252c-27.408,0-49.623,22.4-49.623,49.805c0,4.371,0.57,35.549,1.627,37.922h7.068
					c-1.232-2.373-1.896-33.521-1.896-37.922c0-23.652,19.168-42.916,42.82-42.916c23.65,0,42.82,19.396,42.82,43.047
					c0,4.4-0.662,9.303-1.896,12.865h7.07c1.057-3.562,1.625-8.541,1.625-12.91C822.887,305.736,800.674,283.252,773.27,283.252z"/>
				<g>
					<path fill="#71C1E8" d="M773.27,290.051c-23.654,0-42.824,19.354-42.824,43.004c0,4.402,0.666,35.549,1.896,37.922h8.055
						c-1.51-2.373-2.338-33.465-2.338-37.922c0-19.445,15.762-35.301,35.211-35.301c19.443,0,35.205,15.986,35.205,35.432
						c0,4.459-0.828,9.305-2.338,12.865h8.055c1.232-3.561,1.895-8.508,1.895-12.91C816.088,309.49,796.918,290.051,773.27,290.051z
						"/>
				</g>
				<path fill="#FFFFFF" d="M773.27,297.664c-19.449,0-35.211,15.947-35.211,35.391c0,4.457,0.826,35.549,2.338,37.922h8.334
					c-1.953-2.373-3.061-33.365-3.061-37.922c0-15.24,12.355-27.691,27.6-27.691c15.238,0,27.594,12.582,27.594,27.822
					c0,4.557-1.105,9.305-3.061,12.865h8.334c1.51-3.561,2.338-8.453,2.338-12.91C808.477,313.695,792.713,297.664,773.27,297.664z"
					/>
				<path fill="#FF8EBD" d="M773.27,305.275c-15.244,0-27.6,12.539-27.6,27.779c0,4.557,1.107,35.549,3.061,37.922h8.371
					c-2.73-2.373-4.363-33.15-4.363-37.922c0-11.336,9.191-20.619,20.531-20.619c11.336,0,20.523,9.414,20.523,20.75
					c0,4.771-1.631,9.303-4.361,12.865h8.371c1.955-3.562,3.062-8.355,3.062-12.91C800.865,317.9,788.508,305.275,773.27,305.275z"
					/>
			</g>
		</g>
		<g>
			<path fill="#F9F9F7" d="M764.549,364.17c1.115-18.713-16.08-13.457-17.232-13.133c-0.82-6.689-3.318-13.295-13.527-12.014
				c-13.484,1.691-13.439,16.197-13.086,17.396c-0.857-0.174-17.459,1.008-16.271,14.863c0.633,7.406,6.199,15.128,13.631,15.128
				s41.941,0,45.912,0c4.754,0,8.514-4.055,8.721-10.212C772.986,367.447,764.512,364.787,764.549,364.17z"/>
			<ellipse fill="#FF91AD" cx="727.459" cy="373.007" rx="5.547" ry="3.563"/>
			<ellipse fill="#FF91AD" cx="746.475" cy="373.007" rx="5.545" ry="3.563"/>
			<path fill="none" stroke="#684C40" stroke-width="1.2533" stroke-linecap="round" stroke-miterlimit="10" d="M731.322,364.697
				c0,2.746-2.227,4.971-4.969,4.971c-2.744,0-4.969-2.225-4.969-4.971"/>
			<path fill="none" stroke="#684C40" stroke-width="1.2533" stroke-linecap="round" stroke-miterlimit="10" d="M752.645,364.697
				c0,2.746-2.227,4.971-4.969,4.971c-2.744,0-4.969-2.225-4.969-4.971"/>
		</g>
		<g>
			<g>
				<g>
					<path fill="#F9F9F7" d="M899.529,356.74c0,0,7.688,6.406,16.973,10.248c9.289,3.844,18.576,3.203,17.297,8.969
						c-1.281,5.765-6.406,9.927-6.406,9.927l-34.908-16.655L899.529,356.74z"/>
					<path fill="#F9F9F7" d="M806.334,362.186c0,0-9.289,8.967-22.418,10.246c-13.131,1.283-6.086,8.97-3.842,13.452
						c2.24,4.484,36.188-12.487,36.188-12.487L806.334,362.186z"/>
					<path fill="#F9F9F7" d="M923.229,379.96c-12.006-2.882-25.621-17.136-25.621-17.136s5.455-16.773,6.734-55.816
						c-0.188,0.057-0.371,0.121-0.561,0.174c-4.076,1.623-20.676,6.037-24.713,6.443c-0.404,5.912-2.115,14.33-8.201,19.256
						c0,0-37.266-16.375-55.244-1.922c-13.855,11.137-8.562,36.014-4.326,38.43c0,0-1.938,4.051-7.203,7.848
						c-5.371,3.878-14.121,7.517-19.217,8.485c-10.09,1.924-1.256,11.305,2.885,14.893c4.803,4.164,31.225-4.803,40.83-20.176
						l14.412-4.802c0,0,17.455,8.325,36.029,0.479c0,0,8.648,8.647,26.424,15.853c17.773,7.203,22.096,6.246,24.5,0.961
						C932.355,387.647,935.238,382.843,923.229,379.96z"/>
				</g>
				<g>
					<g>
						<path fill="#F9F9F7" d="M938.121,300.033c-3.91-1.916-8.109-3.209-12.055-5.07c-4.357-2.049-24.582-14.395-24.611-14.688
							c0.383-2.06,1.459-8.155,1.441-8.735c-0.117-3.539-3.525-4.592-5.891-3.197c-1.41,0.562-2.352,2.122-2.539,3.594
							c-0.916,1.666-4.867,8.879-5.867,10.84c-1.662,3.268-6.475,37.01-4.135,39.037c0.939,3.086,22.594,7.168,23.516,7.344
							c2.873,0.547,5.207,2.17,8.139,2.057c2.451,0.451,8.188-1.072,10.98-1.779C926.949,329.434,941.193,301.537,938.121,300.033z"
							/>
						<path fill="#FFFFFF" d="M934.91,328.695c-0.025,0.027-0.057,0.047-0.086,0.074C934.768,328.83,934.84,328.793,934.91,328.695z
							"/>
					</g>
				</g>
				<path fill="#71C1E8" d="M937.336,326.613c2.334-2.396,4.582-4.928,6.232-7.863c3.209-5.711-4.645-18.223-5.045-18.252
					c-10.936-0.766-13.041,17.004-13.426,25.643C924.82,332.398,935.209,328.797,937.336,326.613z"/>
				<g>
					<path fill="#71C1E8" stroke="#7CC9E8" stroke-width="1.187" stroke-miterlimit="10" d="M915.213,288.436
						c0,0-11.301-0.369-13.371-6.966l19.377-25.462L915.213,288.436z"/>
					
						<path fill="none" stroke="#7CC9E8" stroke-width="1.1887" stroke-linecap="round" stroke-linejoin="round" stroke-miterlimit="10" d="
						M915.812,284.473c0,0,0.602-2.363-2.602-3.963c-3.203-1.604-5.725-3.806-5.084-7.328"/>
					
						<path fill="none" stroke="#7CC9E8" stroke-width="1.1887" stroke-linecap="round" stroke-linejoin="round" stroke-miterlimit="10" d="
						M917.855,274.102c0,0-0.961-1.48-2.883-2.12c-1.922-0.642-2.643-1.76-2.643-4.323"/>
				</g>
				<path fill="#71C1E8" d="M788.721,338.408c0,0-8.045-3.438-12.971,3.602c-3.658,5.23-9.396,3.25-12.492,0.719
					c0,0-3.521,16.252,17.775,18.176L788.721,338.408z"/>
				<path fill="#FFE400" d="M799.529,330.48c0,0-7.205-1.441-11.531,6.486c-4.32,7.926-6.756,20.51-13.449,22.578
					c0,0,16.094,4.803,21.139-2.402C800.73,349.938,799.529,330.48,799.529,330.48z"/>
				<path fill="#71C1E8" d="M868.244,322.807c0,0-11.732,10.342-3.77,21.051c7.971,10.709,17.957,24.223,10.561,28.303
					c-5.658,3.121-10.109,0.303-10.65-3.99c0,0-4.475,9.135,2.785,14.487c7.264,5.355,33.043,4.207,22.707-33.364L868.244,322.807z"
					/>
				<path fill="#FFE400" d="M878.078,294.537c0,0-12.254,10.703-11.57,23.551c1.027,19.139,19.363,27.541,25.188,40.277
					c1.459-3.883,0.633-17.76-8.855-35.34c-4.902-9.092-4.061-19.889-4.061-19.889L878.078,294.537z"/>
				<path fill="#FF8EBD" d="M889.281,279.11c0,0-11.207,6.187-13.379,18.866c-3.16,18.475,12.256,29.371,14.867,44.828
					c2.301-3.932,6.873-12.639,1.24-31.684c-2.928-9.908-2.785-23.381-2.785-23.381L889.281,279.11z"/>
				<path fill="#FF8EBD" d="M816.102,330.959c0,0-3.125-7.688-11.289-5.043c-8.166,2.643-7.984,12.438-10.809,20.896
					c-2.969,8.883-6.484,13.693-6.484,13.693s15.553,1.406,19.934-13.934C810.818,334.803,816.102,330.959,816.102,330.959z"/>
				<path fill="none" stroke="#684C40" stroke-width="1.1887" stroke-linecap="round" stroke-miterlimit="10" d="M911.324,302.547
					c1.279,2.918-0.049,6.318-2.965,7.594c-2.916,1.277-6.316-0.051-7.594-2.969"/>
				<circle fill="#684C40" cx="934.098" cy="315.883" r="1.52"/>
			</g>
			<path fill="#71C1E8" d="M819.266,337.742c3.783-1.926,5.32,1.758,5.32,1.758s-1.119-3.832,3.029-4.713
				c4.152-0.883,6.91,6.246,0.037,13.377C817.826,346.943,815.486,339.668,819.266,337.742z"/>
			<path fill="#FFE400" d="M817.795,350.18c2.857,0.674,2.025,3.307,2.025,3.307s1.119-2.525,3.707-1.137s0.859,6.391-5.961,7.086
				C812.918,354.398,814.934,349.506,817.795,350.18z"/>
			<path fill="#FF8EBD" d="M827.645,355.518c1.98-0.883,2.672,1.035,2.672,1.035s-0.475-1.984,1.668-2.326
				c2.141-0.342,3.363,3.367-0.328,6.826C826.672,360.178,825.664,356.402,827.645,355.518z"/>
		</g>
	</g>
	<g>
		<g>
			<path fill="#F2F2F2" d="M564.361,295.741c-1.099-3.135-2.124-6.303-3.063-9.511c-2.947-10.074-5.383-20.296-8.178-30.407
				l-2.303,0.183c0,0-24.527,6.867-43.166,17.66l15.696,13.737l-1.961,26.489C521.387,313.893,542.089,303.808,564.361,295.741z"/>
			<polygon fill="#F9F9F7" points="545.914,289.855 564.359,295.741 556.216,275.629 			"/>
		</g>
		<g>
			<path fill="#F2F2F2" d="M750.172,295.741c1.096-3.135,2.123-6.303,3.061-9.511c2.947-10.074,5.383-20.296,8.18-30.407
				l2.303,0.183c0,0,24.525,6.867,43.166,17.66l-15.697,13.737l1.961,26.489C793.145,313.893,772.443,303.808,750.172,295.741z"/>
			<polygon fill="#F9F9F7" points="768.617,289.855 750.172,295.741 758.316,275.629 			"/>
		</g>
		<path fill="#F2F2F2" d="M653.266,218.495c-84.863,0-126.487,27.654-126.487,27.654l15.251,49.419
			c0,0,48.997-19.406,111.234-19.406c62.238,0,111.236,19.406,111.236,19.406l15.25-49.419
			C779.754,246.149,735.188,218.495,653.266,218.495z"/>
	</g>
	<g>
		<g>
			<path d="M560.576,244.63c0.157-0.059,0.359-1.224,0.324-1.848c-0.011-0.193,0.074-0.387,0.267-0.574
				c0.193-0.187,0.427-0.311,0.701-0.374c0.245-0.056,0.464-0.042,0.657,0.042s0.311,0.208,0.347,0.371
				c0.007,0.033,0.01,0.049,0.017,0.082c0.03,1.146-0.998,2.871-0.952,3.293c0.051,0.473,1.496,2.116,1.846,3.66
				c0.322,1.422,0.39,2.799,0.214,4.128c-0.177,1.33-0.729,2.149-1.46,2.529c-0.038,0.02-0.1,0.045-0.184,0.064
				c-0.237,0.056-0.466,0.055-0.666-0.015c-0.207-0.071-0.479-0.237-0.808-0.473s-0.748-0.542-1.26-0.919s-0.977-0.693-1.377-0.953
				c-1.218-0.791-2.535-1.263-2.691-1.121c-0.082,0.075-0.03,0.596,0.064,0.973c0.118,0.472,0.276,0.965,0.479,1.48
				c0.203,0.515,0.377,0.919,0.523,1.211c0.086,0.167,0.13,0.25,0.216,0.418c0.003,0.014,0.01,0.029,0.022,0.048
				c0.012,0.018,0.021,0.034,0.024,0.047c0.04,0.162,0.001,0.334-0.117,0.513c-0.118,0.18-0.29,0.331-0.511,0.438
				c-0.129,0.063-0.227,0.1-0.282,0.114c-0.459,0.115-0.788,0.027-0.951-0.254c-0.028-0.048-0.109-0.211-0.246-0.485
				c-0.136-0.273-0.311-0.688-0.526-1.242c-0.215-0.554-0.389-1.086-0.519-1.598c-0.092-0.363-0.137-0.642-0.142-0.824
				c-0.023-0.78,0.229-1.404,0.796-1.834c0.252-0.192,0.532-0.329,0.843-0.406c0.579-0.144,1.146-0.158,1.698-0.043
				c0.552,0.115,0.997,0.27,1.334,0.459c0.337,0.19,0.823,0.501,1.443,0.938c0.286,0.201,0.706,0.514,1.257,0.934
				c0.551,0.419,1.062,0.812,1.067,0.81c0.192-0.076,0.2-2.771-0.151-4.286c-0.254-1.096-1.059-2.751-1.249-2.768
				c-0.445-0.04-2.752,1.89-4.54,2.329c-1.731,0.425-3.06,0.384-3.994-0.137c-0.388-0.216-0.634-0.526-0.738-0.93
				c-0.183-0.713,0.106-1.443,0.876-2.19c0.77-0.746,1.735-1.35,2.857-1.732c0.359-0.123,0.652-0.203,0.854-0.252
				C557.706,243.824,560.308,244.73,560.576,244.63z M559.53,246.16c-0.028-0.26-2.177-0.792-3.537-0.46
				c-0.258,0.063-0.451,0.117-0.576,0.161c-0.722,0.253-1.282,0.567-1.665,0.949s-0.545,0.689-0.488,0.918
				c0.031,0.121,0.153,0.245,0.358,0.339c0.529,0.244,1.368,0.216,2.437-0.046C557.483,247.672,559.549,246.331,559.53,246.16z"/>
			<path d="M566.32,246.498c-0.231,0.037-0.437,0.01-0.613-0.08c-0.177-0.089-0.282-0.215-0.318-0.378
				c-0.009-0.041-0.01-0.105,0.001-0.192c0.141-1.031,0.643-2.016,1.452-2.908c0.809-0.892,1.766-1.488,2.864-1.788
				c0.122-0.025,0.182-0.038,0.304-0.062c0.968-0.2,1.785-0.075,2.446,0.373c0.66,0.448,1.086,1.164,1.282,2.145
				c0.043,0.218,0.066,0.385,0.075,0.494c0.264,3.084,0.709,5.773,1.138,7.911c0.064,0.319,0.095,0.478,0.159,0.796
				c0.038,0.191-0.024,0.391-0.187,0.601c-0.163,0.209-0.38,0.356-0.654,0.44c-0.067,0.014-0.1,0.021-0.167,0.034
				c-0.252,0.051-0.474,0.039-0.664-0.036c-0.191-0.075-0.304-0.2-0.34-0.377c-0.067-0.326-0.101-0.489-0.168-0.815
				c-0.453-2.204-0.917-4.923-1.198-8.006c-0.01-0.109-0.032-0.271-0.074-0.475c-0.139-0.68-0.374-1.128-0.703-1.344
				c-0.33-0.216-0.66-0.29-0.991-0.221c-0.035,0.007-0.052,0.012-0.087,0.019c-0.469,0.126-0.96,0.462-1.466,1.01
				c-0.507,0.548-0.814,1.19-0.925,1.925c-0.031,0.206-0.147,0.394-0.35,0.565s-0.438,0.287-0.709,0.346
				C566.384,246.484,566.363,246.489,566.32,246.498z"/>
			<path d="M582.401,252.243c-0.224,0.144-0.438,0.228-0.606,0.259c-0.365,0.067-0.644,0.007-0.836-0.162
				c-0.646-0.569-1.163-1.636-1.471-3.203c-1.004-5.109-1.557-7.861-1.661-8.252c-0.001-0.008-0.001-0.011-0.003-0.019
				c-0.036-0.191,0.028-0.388,0.193-0.589c0.165-0.2,0.395-0.372,0.648-0.438c0.026-0.007,0.064-0.016,0.106-0.031
				c0.042-0.015,0.077-0.023,0.107-0.028c0.246-0.045,0.466-0.03,0.66,0.047c0.194,0.078,0.316,0.205,0.362,0.378
				c0.108,0.414,0.646,3.207,1.632,8.342c0.246,1.281,0.625,2.165,1.126,2.591c0.082,0.07,0.14,0.173,0.164,0.31
				C582.876,251.748,582.732,252.03,582.401,252.243z"/>
			<path d="M594.036,244.719c1,1.311,2.262,2.554,3.619,3.746c0.066,0.059,0.109,0.145,0.125,0.255
				c0.039,0.275-0.111,0.52-0.436,0.736c-0.157,0.104-0.35,0.176-0.575,0.208c-0.339,0.049-0.603-0.003-0.781-0.16
				c-0.896-0.788-2.762-3.078-2.852-3.07c-0.556,0.052-3.098,4.512-4.617,4.765c-0.437,0.072-0.839-0.003-1.21-0.229
				c-0.371-0.226-0.677-0.529-0.916-0.911c-0.239-0.382-0.463-0.878-0.67-1.491c-0.208-0.612-0.371-1.177-0.489-1.692
				s-0.235-1.114-0.354-1.799c-0.368-2.135-0.503-4.019-0.413-5.637c0.011-0.198,0.117-0.386,0.318-0.562
				c0.202-0.175,0.44-0.286,0.716-0.332c0.247-0.042,0.462-0.018,0.648,0.07c0.187,0.089,0.294,0.216,0.321,0.38
				c0.002,0.014,0.002,0.033-0.002,0.055c-0.004,0.021-0.004,0.039-0.003,0.051c0.086,1.519,0.029,3.517,0.351,5.435
				c0.502,3,1.432,5.151,1.845,5.162c0.258,0.007,1.01-0.789,1.675-1.634c0.664-0.845,1.844-2.329,1.798-2.888
				c-0.001-0.015-0.043-0.057-0.07-0.095c-0.028-0.038-0.049-0.062-0.065-0.073c-0.163-0.202-0.246-0.304-0.409-0.506
				c-1.341-1.745-2.096-3.065-2.24-3.97c-0.026-0.165-0.036-0.403-0.024-0.712c0.025-0.647,0.317-1.223,0.866-1.71
				s1.297-0.803,2.243-0.946c0.975-0.147,1.72-0.017,2.231,0.385s0.815,0.941,0.913,1.615c0.099,0.688,0.012,1.454-0.254,2.3
				c-0.267,0.846-0.62,2.073-1.227,3.076c-0.009,0.016-0.026,0.042-0.043,0.08c-0.016,0.038-0.022,0.063-0.021,0.077
				C594.035,244.706,594.035,244.71,594.036,244.719z M592.934,243.664c0.231-0.029,0.967-3.109,0.815-4.126
				c-0.069-0.466-0.222-0.785-0.455-0.954c-0.233-0.168-0.56-0.222-0.98-0.158c-0.493,0.075-0.81,0.188-0.95,0.335
				s-0.229,0.414-0.236,0.773c-0.004,0.191,0.013,0.365,0.034,0.502C591.321,241.066,592.934,243.664,592.934,243.664z"/>
			<path d="M610.809,247.878c-0.068,0.022-0.169,0.038-0.297,0.052c-0.481,0.053-0.773-0.079-0.881-0.383
				c-0.119-0.333-0.274-1.29-0.452-2.863c-0.08-0.704-0.195-1.824-0.347-3.358c-0.151-1.535-0.26-2.599-0.327-3.192
				c-0.019-0.166-0.027-0.247-0.046-0.413c-1.067,0.833-1.894,1.366-2.411,1.621c-0.299,0.147-0.585,0.257-0.846,0.289
				c-0.376,0.045-0.583-0.096-0.624-0.427c-0.005-0.041-0.008-0.151,0.004-0.316c0.015-0.194,0.021-0.373,0.002-0.524
				c-0.057-0.469-0.243-0.81-0.557-1.023s-0.631-0.3-0.952-0.26c-0.043,0.005-0.065,0.009-0.108,0.014
				c-0.188,0.038-0.395,0.151-0.621,0.341c-0.227,0.19-0.468,0.477-0.721,0.86s-0.432,0.933-0.536,1.646s-0.096,1.531,0.026,2.454
				c0.109,0.826,0.283,1.559,0.52,2.201c0.237,0.641,0.481,1.139,0.737,1.491c0.255,0.353,0.529,0.633,0.816,0.848
				s0.525,0.354,0.713,0.414c0.188,0.061,0.344,0.083,0.472,0.067c0.009-0.001,0.013-0.001,0.021-0.002
				c0.028-0.003,0.064-0.015,0.105-0.034c0.041-0.019,0.093-0.061,0.158-0.125c0.064-0.063,0.117-0.143,0.163-0.24
				c0.045-0.096,0.081-0.224,0.105-0.38s0.023-0.331,0-0.524c-0.022-0.179,0.053-0.36,0.226-0.542s0.394-0.303,0.662-0.363
				c0.06-0.007,0.089-0.012,0.149-0.019c0.242-0.029,0.447,0.001,0.617,0.093c0.17,0.092,0.267,0.22,0.286,0.386
				c0.083,0.704-0.079,1.353-0.481,1.946c-0.403,0.595-1.047,0.966-1.839,1.171c-0.081,0.021-0.216,0.048-0.4,0.071
				c-1.23,0.156-2.292-0.293-3.199-1.349s-1.505-2.6-1.783-4.636c-0.264-1.926-0.066-3.521,0.601-4.78
				c0.666-1.258,1.706-2.03,3.035-2.357c0.099-0.024,0.251-0.055,0.456-0.08c0.802-0.1,1.482,0.057,2.034,0.466
				s0.933,1.545,0.937,1.547c0.097,0.042,1.412-1.099,2.319-1.944c0.333-0.31,0.633-0.49,0.896-0.519
				c0.176-0.019,0.33,0.021,0.466,0.117c0.136,0.097,0.226,0.199,0.267,0.306c0.025,0.073,0.038,0.109,0.063,0.182
				c0.003,0.028,0.011,0.071,0.024,0.125c0.013,0.055,0.021,0.102,0.027,0.143c0.079,0.592,0.185,1.302,0.27,2.089
				c0.065,0.608,0.167,1.629,0.308,3.067c0.14,1.438,0.243,2.466,0.31,3.087c0.158,1.464,0.315,2.351,0.369,2.6
				c0.002,0.012,0.005,0.033,0.015,0.053c0.009,0.02,0.016,0.037,0.017,0.05c0.018,0.166-0.047,0.33-0.194,0.492
				C611.232,247.674,611.041,247.802,610.809,247.878z"/>
			<path d="M607.903,251.353c-0.125-0.097-0.195-0.208-0.21-0.333c-0.028-0.235,0.089-0.456,0.35-0.649
				c0.632-0.469,1.273-0.733,1.88-0.801c0.184-0.021,0.379-0.025,0.579-0.003c0.358,0.039,0.646,0.181,0.856,0.409
				c0.21,0.229,0.332,0.494,0.365,0.798c0.025,0.235,0.051,0.542,0.078,0.924c0.027,0.381,0.05,0.656,0.068,0.821
				c0.034,0.317,0.086,0.612,0.158,0.884c0.003,0.025,0.005,0.038,0.007,0.063c0.018,0.166-0.045,0.329-0.189,0.492
				s-0.343,0.271-0.565,0.344c-0.053,0.018-0.123,0.035-0.207,0.044c-0.209,0.023-0.395-0.004-0.559-0.084s-0.261-0.191-0.292-0.325
				c-0.072-0.309-0.153-0.792-0.226-1.441c-0.059-0.521-0.088-0.784-0.147-1.306c-0.017-0.152-0.052-0.259-0.074-0.263
				c-0.102-0.02-0.367,0.153-0.562,0.315c-0.156,0.13-0.366,0.208-0.633,0.24C608.287,251.516,608.06,251.474,607.903,251.353z"/>
			<path d="M618.859,247.032c-0.23,0.244-0.545,0.384-0.927,0.419c-0.213,0.02-0.393-0.008-0.542-0.076
				c-0.56-0.257-0.975-0.667-1.224-1.243s-0.422-1.362-0.518-2.357c-0.464-4.797-0.764-7.504-0.897-8.119
				c-0.002-0.025-0.004-0.037-0.007-0.062c-0.019-0.193,0.063-0.38,0.245-0.558s0.425-0.292,0.685-0.368
				c0.055-0.016,0.13-0.035,0.218-0.043c0.248-0.023,0.465,0.009,0.649,0.097c0.185,0.087,0.292,0.222,0.325,0.398
				c0.137,0.75,0.431,3.504,0.866,8.248c0.071,0.774,0.211,1.386,0.417,1.833c0.206,0.448,0.399,0.714,0.576,0.796
				c0.224,0.103,0.346,0.261,0.365,0.468C619.106,246.661,619.028,246.854,618.859,247.032z M624.062,246.433
				c-0.202,0.131-0.432,0.22-0.688,0.24c-0.312,0.024-0.575-0.045-0.767-0.21c-0.645-0.554-1.048-1.782-1.2-3.623
				c-0.389-4.706-0.644-7.346-0.765-7.922c-0.002-0.025-0.004-0.038-0.006-0.062c-0.016-0.194,0.066-0.374,0.244-0.542
				c0.177-0.168,0.408-0.288,0.676-0.369c0.057-0.017,0.145-0.032,0.262-0.041c0.234-0.019,0.439,0.021,0.617,0.118
				c0.176,0.098,0.291,0.232,0.329,0.393c0.127,0.545,0.295,2.386,0.535,5.474c0.08,1.03,0.119,1.545,0.199,2.576
				c0.045,0.582,0.125,1.099,0.24,1.549c0.114,0.451,0.22,0.774,0.321,0.968c0.101,0.194,0.19,0.323,0.267,0.386
				c0.106,0.089,0.166,0.211,0.177,0.363C624.523,246.007,624.361,246.238,624.062,246.433z"/>
			<path d="M629.874,246.278c-0.138,0.038-0.246,0.058-0.317,0.062c-0.497,0.031-0.816-0.121-0.928-0.441
				c-0.019-0.053-0.068-0.233-0.152-0.534c-0.084-0.3-0.181-0.742-0.291-1.327c-0.11-0.584-0.184-1.139-0.219-1.666
				c-0.025-0.374-0.019-0.654,0.009-0.835c0.127-0.816,0.521-1.421,1.19-1.727c0.289-0.132,0.588-0.204,0.877-0.221
				c0.462-0.028,0.88,0,1.255,0.082c0.374,0.083,0.745,0.257,1.114,0.521s0.659,0.489,0.871,0.672
				c0.211,0.183,0.539,0.497,0.979,0.929c0.255,0.251,0.608,0.637,1.049,1.158c0.441,0.521,0.787,0.923,0.795,0.922
				c0.209-0.036,0.725-2.509,0.649-4.202c-0.075-1.665-0.428-2.917-1.065-3.756c-0.638-0.839-1.427-1.326-2.333-1.481
				c-0.293-0.05-0.575-0.072-0.838-0.058c-0.746,0.041-1.483,0.284-2.21,0.73c-0.728,0.447-1.315,1.058-1.765,1.799
				c-0.22,0.361-0.582,0.562-1.075,0.594c-0.073,0.005-0.186-0.002-0.331-0.021c-0.394-0.052-0.606-0.243-0.628-0.562
				c-0.008-0.11,0.021-0.225,0.086-0.34c0.583-1.028,1.441-1.887,2.566-2.569c1.125-0.682,2.315-1.059,3.562-1.125
				c0.557-0.03,1.071,0.005,1.528,0.089c1.351,0.247,2.447,0.902,3.246,1.986c0.799,1.085,1.231,2.56,1.306,4.419
				c0.059,1.472-0.125,2.849-0.544,4.131c-0.419,1.282-1.131,1.986-1.937,2.231c-0.04,0.012-0.113,0.025-0.212,0.03
				c-0.256,0.012-0.488-0.029-0.67-0.133c-0.189-0.108-0.43-0.319-0.715-0.61c-0.286-0.291-0.64-0.671-1.065-1.136
				c-0.425-0.464-0.82-0.86-1.164-1.188c-1.032-0.985-2.187-1.689-2.338-1.596c-0.082,0.05-0.117,0.55-0.094,0.925
				c0.03,0.485,0.097,0.999,0.203,1.542c0.105,0.543,0.202,0.964,0.292,1.265c0.054,0.18,0.081,0.272,0.135,0.452
				c0.001,0.014,0.004,0.031,0.013,0.051c0.008,0.021,0.013,0.038,0.014,0.051c0.011,0.18-0.062,0.354-0.224,0.524
				C630.334,246.086,630.124,246.21,629.874,246.278z"/>
			<path d="M650.021,240.438c0.203,0.122,0.306,0.28,0.308,0.475c0.002,0.195-0.11,0.386-0.338,0.565
				c-2.145,1.698-4.058,2.57-5.685,2.613c-0.094,0.002-0.142,0.004-0.235,0.007c-0.814-0.019-1.435-0.228-1.862-0.631
				c-0.429-0.403-0.654-0.904-0.674-1.501c-0.01-0.277,0.023-0.55,0.101-0.816c0.052-0.182,0.198-0.347,0.438-0.494
				c0.24-0.146,0.5-0.226,0.773-0.234c0.018,0,0.026,0,0.044,0c0.23,0.007,0.427,0.07,0.589,0.19
				c0.161,0.121,0.243,0.266,0.248,0.433c0.002,0.07-0.003,0.124-0.016,0.166c-0.053,0.168-0.076,0.344-0.071,0.524
				c0.008,0.278,0.091,0.487,0.253,0.628c0.162,0.142,0.358,0.217,0.588,0.225c0.018,0,0.025,0,0.043-0.001
				c1.003-0.026,2.326-0.715,3.987-2.001c0.239-0.185,0.54-0.282,0.9-0.287C649.657,240.294,649.862,240.342,650.021,240.438z
				 M649.896,234c0.217,0.109,0.33,0.296,0.333,0.518c0.002,0.181-0.091,0.362-0.277,0.523c-2.118,1.827-4.104,2.757-5.727,2.8
				c-0.087,0.002-0.129,0.003-0.216,0.006c-0.827-0.019-1.443-0.237-1.849-0.655c-0.405-0.417-0.617-0.932-0.638-1.542
				c-0.009-0.264,0.026-0.576,0.12-0.921c0.049-0.18,0.202-0.347,0.446-0.493s0.503-0.223,0.781-0.231
				c0.018,0,0.028-0.001,0.046-0.002c0.234,0.007,0.434,0.071,0.598,0.191s0.248,0.264,0.253,0.431
				c0.002,0.069-0.006,0.125-0.018,0.167c-0.07,0.244-0.096,0.455-0.092,0.607c0.008,0.292,0.096,0.523,0.261,0.692
				s0.334,0.257,0.509,0.267c0.018,0,0.027,0,0.045-0.001c0.901-0.023,2.222-0.746,3.892-2.166c0.244-0.208,0.556-0.322,0.937-0.327
				C649.491,233.859,649.701,233.901,649.896,234z"/>
			<path d="M655.037,245.528c-0.043,0-0.063,0-0.106,0c-0.256,0-0.469-0.061-0.64-0.186s-0.257-0.278-0.258-0.458
				c0-0.008,0-0.013,0-0.021c0.186-4.417,0.28-7.056,0.278-7.917c-0.003-1.375-0.1-2.312-0.291-2.812
				c-0.015-0.042-0.024-0.097-0.024-0.166c-0.001-0.319,0.203-0.562,0.593-0.731c1.295-0.565,3.28-0.875,5.923-0.843
				c1.175,0.015,2.152,0.292,2.926,0.828c0.773,0.536,1.146,1.298,1.125,2.284c-0.005,0.208-0.056,0.993-0.15,2.352
				c-0.095,1.359-0.153,2.554-0.176,3.581c-0.022,1.041-0.016,1.999,0.022,2.875c0,0.008,0.001,0.012,0.001,0.021
				c-0.004,0.195-0.104,0.373-0.301,0.536c-0.196,0.163-0.457,0.285-0.723,0.299c-0.013,0-0.051,0.002-0.107,0.008
				c-0.058,0.006-0.093,0.009-0.106,0.008c-0.242-0.004-0.444-0.063-0.605-0.178c-0.162-0.114-0.251-0.262-0.261-0.441
				c-0.048-0.897-0.052-1.89-0.034-2.96c0.018-1.055,0.069-2.267,0.157-3.634c0.088-1.366,0.134-2.133,0.137-2.3
				c0.02-1.167-0.725-1.766-2.231-1.783c-1.551-0.018-3.73,0.101-3.883,0.329c-0.103,0.153,0.148,1.423,0.146,2.52
				c-0.002,0.889-0.058,3.604-0.322,7.957c-0.012,0.192-0.129,0.379-0.342,0.553C655.569,245.42,655.321,245.514,655.037,245.528z"
				/>
			<path d="M667.86,237.072c-0.231-0.021-0.423-0.096-0.571-0.226c-0.149-0.129-0.22-0.277-0.215-0.444
				c0.001-0.042,0.015-0.105,0.047-0.187c0.385-0.966,1.108-1.798,2.105-2.467c0.996-0.668,2.062-1.015,3.195-1.039
				c0.123,0.005,0.186,0.008,0.309,0.013c0.982,0.041,1.738,0.361,2.269,0.956c0.529,0.595,0.771,1.393,0.722,2.392
				c-0.011,0.222-0.028,0.39-0.046,0.498c-0.491,3.057-0.716,5.771-0.82,7.949c-0.016,0.325-0.023,0.485-0.039,0.81
				c-0.01,0.195-0.116,0.374-0.323,0.538c-0.207,0.164-0.453,0.253-0.738,0.269c-0.068-0.003-0.102-0.004-0.17-0.007
				c-0.256-0.012-0.468-0.078-0.634-0.196s-0.243-0.266-0.235-0.447c0.015-0.333,0.02-0.5,0.034-0.833
				c0.096-2.248,0.307-5,0.783-8.057c0.017-0.108,0.031-0.27,0.04-0.478c0.03-0.694-0.087-1.185-0.353-1.475
				s-0.565-0.441-0.901-0.455c-0.035-0.001-0.053-0.003-0.088-0.004c-0.483,0.008-1.039,0.216-1.66,0.624
				c-0.622,0.408-1.072,0.957-1.357,1.642c-0.08,0.192-0.238,0.347-0.475,0.464s-0.494,0.172-0.77,0.164
				C667.925,237.075,667.904,237.074,667.86,237.072z"/>
			<path d="M688.279,235.872c-0.277,0.192-0.616,0.285-1.01,0.255c-0.218-0.017-0.403-0.072-0.537-0.167
				c-0.042-0.029-0.106-0.069-0.198-0.118c-0.092-0.048-0.175-0.094-0.245-0.134s-0.132-0.075-0.188-0.105
				c-0.998-0.545-2.016-0.835-2.95-0.897c-1.022-0.068-1.762,0.089-2.21,0.465c-0.231,0.195-0.355,0.464-0.377,0.811
				c-0.025,0.416,0.18,0.871,0.615,1.364s1.151,0.986,2.134,1.484c1.39,0.705,2.4,1.478,3.04,2.306
				c0.639,0.828,0.926,1.631,0.865,2.406c-0.014,0.18-0.053,0.367-0.108,0.556c-0.205,0.698-0.655,1.299-1.37,1.775
				c-0.715,0.476-1.533,0.683-2.456,0.619c-1.377-0.095-2.527-0.547-3.382-1.366c-0.135-0.129-0.196-0.285-0.187-0.451
				c0.014-0.235,0.165-0.44,0.446-0.599c0.247-0.139,0.527-0.197,0.827-0.178c0.286,0.018,0.501,0.108,0.649,0.25
				c0.546,0.524,1.251,0.812,2.049,0.868c0.285,0.02,0.569-0.052,0.853-0.212c0.283-0.16,0.475-0.446,0.579-0.835
				c0.036-0.135,0.06-0.246,0.065-0.329c0.038-0.526-0.195-1.111-0.705-1.753s-1.372-1.259-2.554-1.854
				c-1.146-0.578-2.021-1.228-2.612-1.923s-0.875-1.381-0.837-2.061c0.035-0.638,0.341-1.205,0.911-1.701
				c0.987-0.859,2.356-1.24,4.102-1.123c1.378,0.093,2.763,0.48,4.044,1.189c0.084,0.046,0.353,0.181,0.741,0.413
				c0.221,0.132,0.325,0.326,0.308,0.547C688.565,235.581,688.461,235.747,688.279,235.872z"/>
			<path d="M702.902,230.241c0.044,0.005,0.066,0.008,0.11,0.013c0.266,0.03,0.485,0.118,0.656,0.264
				c0.17,0.146,0.244,0.307,0.224,0.487c-0.001,0.008,0,0.013-0.001,0.021c-0.307,2.006-0.73,5.362-1.271,10.067
				c-0.173,1.507-0.259,2.258-0.432,3.765c-0.03,0.262-0.067,0.461-0.111,0.596c-0.293,0.899-0.967,1.557-2.023,1.964
				c-1.057,0.408-2.29,0.538-3.706,0.395c-3.64-0.369-5.389-1.354-5.242-3.028c0.07-0.803,0.19-2.004,0.36-3.606
				s0.286-2.75,0.347-3.442c0.039-0.443,0.045-0.854,0.02-1.233c-0.025-0.379-0.06-0.66-0.103-0.845
				c-0.043-0.185-0.096-0.301-0.144-0.348c-0.121-0.119-0.177-0.273-0.165-0.411c0.022-0.263,0.191-0.463,0.494-0.604
				c0.245-0.115,0.523-0.164,0.83-0.136s0.537,0.125,0.686,0.271c0.326,0.324,0.531,0.736,0.58,1.236s0.031,1.184-0.05,2.055
				c-0.067,0.72-0.186,1.876-0.363,3.471s-0.303,2.786-0.376,3.574c-0.041,0.443,0.198,0.783,0.722,1.021s1.475,0.423,2.854,0.564
				c1.819,0.186,2.899-0.196,3.185-1.13c0.049-0.159,0.075-0.292,0.086-0.389c0.166-1.516,0.25-2.274,0.416-3.791
				c0.515-4.694,0.893-8.097,1.22-10.093c0.033-0.203,0.172-0.379,0.404-0.521C702.341,230.284,702.605,230.222,702.902,230.241z"/>
			<path d="M706.965,223.164c0.144,0.025,0.268,0.1,0.354,0.201s0.123,0.207,0.109,0.317c-0.01,0.083-0.048,0.15-0.091,0.199
				c-0.501,0.567-1.227,1.271-2.198,1.814c-0.972,0.544-2.051,0.966-3.226,1.271c-0.264,0.068-0.508,0.091-0.731,0.067
				c-0.327-0.035-0.477-0.177-0.45-0.426c0.009-0.083,0.043-0.183,0.102-0.303c0.252-0.517,0.397-0.978,0.44-1.378
				c0.038-0.359-0.013-0.647-0.156-0.865s-0.397-0.416-0.758-0.593c-0.217-0.106-0.313-0.257-0.293-0.451
				c0.013-0.125,0.076-0.227,0.191-0.313c0.247-0.183,0.536-0.259,0.867-0.224c0.105,0.011,0.22,0.043,0.332,0.098
				c1.029,0.504,1.499,1.317,1.384,2.352c-0.038,0.346-0.238,0.707-0.238,0.707c0.011,0.016,1.335-0.591,1.921-0.999
				s1.039-0.806,1.312-1.189c0.187-0.261,0.501-0.383,0.952-0.329c0.03,0.003,0.062,0.011,0.099,0.022
				S706.951,223.161,706.965,223.164z"/>
			<path d="M706.992,239.77c-0.429-0.156-0.635-0.386-0.596-0.703c0.007-0.055,0.047-0.161,0.125-0.279
				c0.545-0.828,1.443-1.507,2.43-1.983c0.985-0.475,2.039-0.704,3.123-0.658c0.321,0.014,0.559,0.035,0.704,0.055
				c1.662,0.229,2.936,1.019,3.805,2.354c0.869,1.336,1.142,3.03,0.831,5.076c-0.285,1.881-1.029,3.319-2.221,4.322
				c-1.191,1.003-2.601,1.483-4.207,1.417c-0.312-0.013-0.55-0.031-0.705-0.052c-1.355-0.185-2.45-0.711-3.29-1.581
				s-1.189-1.887-1.044-3.059c0.091-0.73,0.395-1.329,0.911-1.733c0.278-0.217,0.597-0.371,0.912-0.454
				c0.435-0.114,0.872-0.14,1.304-0.083c0.632,0.083,1.254,0.332,1.855,0.69c0.25,0.149,0.37,0.344,0.336,0.592
				c-0.022,0.165-0.124,0.306-0.277,0.425c-0.261,0.203-0.613,0.295-1.056,0.236c-0.186-0.025-0.343-0.073-0.464-0.145
				c-0.336-0.199-0.642-0.314-0.913-0.35c-0.025-0.003-0.041-0.006-0.066-0.01c-0.031,0.01-0.069,0.042-0.12,0.099
				c-0.051,0.057-0.107,0.157-0.17,0.303s-0.106,0.31-0.13,0.489c-0.11,0.854,0.12,1.561,0.689,2.126
				c0.568,0.565,1.255,0.903,2.063,1.014c0.155,0.021,0.278,0.03,0.363,0.03c0.378,0,0.776-0.047,1.163-0.175
				c0.387-0.127,0.782-0.342,1.188-0.642c0.405-0.3,0.764-0.756,1.079-1.371c0.314-0.613,0.538-1.346,0.663-2.198
				c0.139-0.948,0.137-1.803-0.002-2.567c-0.14-0.764-0.381-1.372-0.73-1.822s-0.729-0.799-1.131-1.044s-0.82-0.397-1.256-0.457
				c-0.044-0.006-0.095-0.011-0.153-0.012c-0.06,0-0.104-0.004-0.132-0.007c-1.239-0.103-2.499,0.57-3.403,1.798
				c-0.109,0.148-0.277,0.269-0.507,0.344c-0.23,0.076-0.466,0.098-0.712,0.067C707.137,239.809,707.049,239.79,706.992,239.77z"/>
			<path d="M723.069,240.051c-0.167-0.146-0.235-0.327-0.204-0.519c0.036-0.219,0.185-0.39,0.441-0.517
				c1.229-0.606,2.354-0.834,3.356-0.662c1.612,0.277,2.539,1.359,2.747,3.212c0.109,0.975,0.036,2.144-0.209,3.497
				s-0.64,2.546-1.174,3.578c-1.146,2.215-2.561,3.182-4.262,2.892c-0.45-0.077-0.857-0.254-1.224-0.534
				c-0.365-0.279-0.675-0.64-0.928-1.083c-0.253-0.443-0.459-0.861-0.613-1.252c-0.154-0.391-0.303-0.854-0.452-1.381
				c-0.138-0.485-0.389-1.7-0.758-3.643c-0.008-0.044-0.007-0.101,0.004-0.169c0.025-0.165,0.128-0.311,0.302-0.438
				c0.175-0.127,0.389-0.191,0.617-0.217c0.088-0.01,0.225-0.008,0.396,0.02c0.488,0.078,0.769,0.281,0.832,0.599
				c0.385,1.942,0.6,3.153,0.71,3.559c0.219,0.806,0.52,1.52,0.869,2.121c0.349,0.602,0.661,0.987,0.794,0.99
				c0.045,0.001,0.167-0.079,0.324-0.186c0.156-0.107,0.372-0.316,0.645-0.629c0.272-0.312,0.51-0.682,0.716-1.093
				c0.478-0.954,0.844-2.058,1.062-3.303c0.224-1.272,0.287-2.339,0.185-3.202c-0.071-0.604-0.223-1.066-0.451-1.381
				s-0.461-0.492-0.692-0.531c-0.333-0.057-0.845,0.095-1.521,0.418c-0.285,0.136-0.593,0.175-0.91,0.122
				C723.44,240.281,723.231,240.192,723.069,240.051z"/>
			<path d="M732.23,252.855c-0.042-0.008-0.062-0.012-0.104-0.02c-0.253-0.048-0.454-0.15-0.599-0.305s-0.2-0.321-0.167-0.499
				c0.002-0.008,0.004-0.014,0.006-0.022c1.02-4.302,1.612-6.873,1.773-7.719c0.257-1.351,0.342-2.289,0.248-2.815
				c-0.007-0.043-0.007-0.101,0.006-0.169c0.06-0.313,0.307-0.513,0.723-0.605c1.384-0.309,3.4-0.237,6.002,0.299
				c1.156,0.238,2.068,0.698,2.73,1.371c0.662,0.674,0.888,1.493,0.68,2.457c-0.044,0.203-0.242,0.964-0.594,2.281
				c-0.352,1.317-0.635,2.478-0.852,3.483c-0.22,1.018-0.395,1.962-0.522,2.83c-0.002,0.008-0.001,0.011-0.003,0.019
				c-0.041,0.19-0.173,0.346-0.397,0.469c-0.224,0.122-0.505,0.191-0.771,0.155c-0.013-0.002-0.051-0.007-0.107-0.013
				c-0.058-0.005-0.094-0.009-0.107-0.012c-0.238-0.051-0.427-0.147-0.564-0.29c-0.139-0.143-0.196-0.305-0.172-0.483
				c0.122-0.89,0.306-1.867,0.525-2.914c0.217-1.033,0.499-2.211,0.845-3.537c0.346-1.325,0.536-2.069,0.57-2.232
				c0.24-1.142-0.381-1.871-1.864-2.175c-1.526-0.313-3.704-0.613-3.897-0.418c-0.129,0.131-0.121,1.426-0.332,2.502
				c-0.171,0.873-0.739,3.528-1.824,7.752c-0.048,0.187-0.196,0.348-0.439,0.478C732.778,252.852,732.514,252.896,732.23,252.855z"
				/>
			<path d="M748.571,235.464c0.347,0.164,0.491,0.379,0.431,0.65c-0.021,0.095-0.08,0.191-0.178,0.282
				c-1.194,1.108-2.529,1.884-3.943,2.332c-1.413,0.448-2.71,0.549-3.901,0.303c-0.188-0.039-0.327-0.08-0.409-0.106
				c-0.716-0.235-1.322-0.553-1.689-1.023s-0.493-0.992-0.379-1.564c0.065-0.327,0.194-0.618,0.354-0.864
				c0.093-0.144,0.254-0.259,0.488-0.326s0.476-0.075,0.725-0.024c0.044,0.009,0.065,0.014,0.109,0.022
				c0.203,0.056,0.361,0.152,0.471,0.288c0.109,0.136,0.147,0.277,0.117,0.427c-0.014,0.068-0.032,0.123-0.056,0.16
				c-0.134,0.213-0.22,0.403-0.253,0.566c-0.114,0.558,0.18,0.936,0.883,1.138c0.07,0.015,0.106,0.021,0.177,0.036
				c0.423,0.088,0.9,0.096,1.44,0.025c0.54-0.07,1.199-0.29,1.973-0.656c0.773-0.366,1.522-0.875,2.229-1.529
				c0.271-0.25,0.646-0.328,1.131-0.22C748.421,235.408,748.516,235.438,748.571,235.464z"/>
			<path d="M745.255,255.132c0.854-3.78,1.284-5.669,2.139-9.449c0.189-0.84,0.22-1.438,0.077-1.754
				c-0.057-0.125-0.077-0.245-0.053-0.354c0.058-0.257,0.264-0.431,0.596-0.529c0.209-0.062,0.453-0.07,0.727-0.007
				c0.303,0.069,0.514,0.197,0.639,0.383c0.305,0.455,0.314,1.292,0.033,2.51c-0.301,1.299-0.629,2.758-0.989,4.378
				s-0.672,2.999-0.672,2.999c0.035,0.022,1.151-0.88,1.652-1.177c1.484-0.878,3.411-1.211,3.736-1.485
				c0.555-0.468,0.977-3.363,1.67-5.19c0.067-0.179,0.237-0.321,0.481-0.419s0.496-0.121,0.758-0.07
				c0.025,0.006,0.039,0.009,0.064,0.016c0.243,0.06,0.434,0.168,0.57,0.323c0.136,0.155,0.182,0.316,0.142,0.478
				c-0.004,0.016-0.006,0.023-0.01,0.039c-0.236,0.643-0.558,1.505-0.962,2.585s-0.688,1.864-0.854,2.353
				c0.102,0.025,0.153,0.039,0.255,0.064c0.777,0.193,1.369,0.545,1.766,1.054c0.396,0.508,0.609,1.033,0.644,1.572
				c0.034,0.54-0.028,1.112-0.184,1.717c-0.083,0.323-0.199,0.631-0.346,0.921c-0.342,0.68-0.854,1.184-1.539,1.49
				c-0.685,0.306-1.4,0.364-2.15,0.178c-0.417-0.104-0.746-0.267-0.986-0.49s-0.387-0.512-0.44-0.868
				c-0.054-0.356-0.061-0.726-0.019-1.109c0.041-0.383,0.127-0.852,0.262-1.405c0.171-0.702,0.445-1.685,0.438-1.694
				c-0.071-0.077-1.382,0.402-2.072,0.808c-1.002,0.589-2.157,1.444-3.453,2.528c-0.36,0.301-0.72,0.411-1.068,0.332
				c-0.126-0.029-0.257-0.103-0.398-0.221c-0.142-0.117-0.257-0.228-0.336-0.332C745.325,255.237,745.301,255.202,745.255,255.132z
				 M753.995,254.095c-0.167,0.674-0.249,1.22-0.248,1.635s0.031,0.666,0.092,0.752c0.06,0.087,0.123,0.138,0.193,0.155
				c0.083,0.021,0.185,0.024,0.307,0.012c0.121-0.013,0.289-0.103,0.502-0.271c0.213-0.168,0.404-0.414,0.554-0.731
				c0.101-0.214,0.182-0.462,0.25-0.731c0.397-1.576,0.123-2.484-0.821-2.718c-0.102-0.025-0.153-0.036-0.255-0.061
				C754.342,252.81,754.152,253.461,753.995,254.095z"/>
		</g>
	</g>
	<g>
		<g>
			<path d="M583.667,280.124c-1.678-1.36-2.958-2.299-3.798-2.762c-0.473-0.261-1.173-0.579-1.173-0.579
				c-0.116,0.094,0.406,2.247,0.429,2.809c0.033,0.829-0.19,1.464-0.683,1.879c-0.263,0.222-0.604,0.382-1.014,0.483
				c-0.973,0.239-1.793,0.14-2.467-0.305c-0.675-0.444-1.146-1.178-1.409-2.201c-0.08-0.309-0.116-0.589-0.123-0.828
				c-0.023-0.766,0.19-1.508,0.687-2.185s1.216-1.132,2.154-1.362c0.025-0.006,0.038-0.008,0.063-0.015
				c-0.213-0.874-0.319-1.312-0.533-2.186c-0.161-0.661-0.337-1.194-0.526-1.598s-0.359-0.663-0.508-0.776
				c-0.149-0.114-0.286-0.156-0.414-0.125c-0.242,0.06-0.505,0.231-0.787,0.475c-0.167,0.145-0.367,0.243-0.58,0.296
				c-0.297,0.075-0.536,0.065-0.712-0.034c-0.123-0.068-0.2-0.164-0.231-0.285c-0.055-0.215,0.023-0.463,0.235-0.685
				c0.538-0.562,1.271-0.942,2.055-1.135c0.457-0.112,0.867-0.125,1.228-0.042s0.642,0.214,0.849,0.386
				c0.207,0.172,0.4,0.438,0.577,0.803c0.177,0.364,0.303,0.674,0.378,0.927c0.075,0.253,0.166,0.604,0.272,1.05
				c0.008,0.033,0.011,0.049,0.019,0.082c0.09,0.378,0.207,0.885,0.351,1.522s0.223,1.259,0.306,1.341
				c0.011,0.01,0.08,0.019,0.144,0.04c0.063,0.021,0.113,0.034,0.143,0.041c0.495,0.12,1.322,0.508,2.363,1.138
				c1.074,0.65,2.072,1.387,2.072,1.387c0.288-0.175-1.805-8.715-1.885-9.184c-0.032-0.188,0.038-0.385,0.198-0.578
				c0.16-0.192,0.374-0.325,0.642-0.399c0.043-0.009,0.065-0.015,0.108-0.024c0.243-0.054,0.458-0.045,0.647,0.028
				c0.188,0.073,0.301,0.191,0.336,0.354c0.002,0.008,0.003,0.012,0.005,0.02c0.214,1.189,0.922,5.025,2.249,11.323
				c0.04,0.189,0.006,0.382-0.103,0.576c-0.109,0.195-0.265,0.315-0.471,0.361c-0.166,0.037-0.34,0.051-0.523,0.042
				c-0.183-0.009-0.318-0.027-0.41-0.049C583.762,280.139,583.73,280.135,583.667,280.124z M576.7,276.384
				c-0.173,0.014-0.311,0.034-0.408,0.058c-0.32,0.079-0.597,0.258-0.831,0.538c-0.233,0.28-0.326,0.689-0.308,1.204
				c0.004,0.126,0.039,0.335,0.109,0.618c0.192,0.768,0.501,1.292,0.922,1.574s1.097,0.435,1.217,0.32
				c0.133-0.127-0.121-1.75-0.632-4.026C576.741,276.555,576.728,276.498,576.7,276.384z"/>
			<path d="M591.086,278.636c-0.13,0.056-0.233,0.089-0.302,0.103c-0.483,0.097-0.817-0.012-0.97-0.315
				c-0.025-0.05-0.099-0.22-0.222-0.507c-0.123-0.286-0.28-0.712-0.468-1.276c-0.188-0.563-0.333-1.105-0.439-1.622
				c-0.075-0.367-0.108-0.647-0.105-0.83c0.015-0.826,0.319-1.477,0.938-1.869c0.267-0.169,0.553-0.28,0.835-0.335
				c0.451-0.089,0.867-0.116,1.247-0.084c0.379,0.033,0.768,0.156,1.166,0.37s0.713,0.398,0.946,0.552
				c0.232,0.154,0.595,0.422,1.084,0.794c0.284,0.216,0.682,0.552,1.184,1.012c0.502,0.459,0.896,0.813,0.903,0.811
				c0.2-0.062,0.386-2.579,0.092-4.248c-0.289-1.641-0.798-2.84-1.537-3.589c-0.739-0.749-1.584-1.127-2.5-1.163
				c-0.296-0.011-0.577,0.001-0.835,0.05c-0.731,0.138-1.43,0.478-2.088,1.017c-0.66,0.54-1.156,1.224-1.5,2.019
				c-0.168,0.388-0.499,0.634-0.98,0.733c-0.071,0.015-0.183,0.023-0.329,0.023c-0.396,0.001-0.631-0.16-0.697-0.473
				c-0.022-0.108-0.009-0.223,0.04-0.347c0.436-1.097,1.167-2.065,2.188-2.892c1.021-0.826,2.149-1.355,3.374-1.585
				c0.547-0.103,1.058-0.137,1.521-0.113c1.369,0.068,2.539,0.577,3.468,1.551c0.929,0.974,1.545,2.38,1.856,4.215
				c0.246,1.452,0.241,2.84-0.005,4.165c-0.247,1.325-0.855,2.114-1.613,2.46c-0.038,0.017-0.106,0.042-0.203,0.06
				c-0.25,0.045-0.482,0.032-0.674-0.047c-0.199-0.083-0.463-0.264-0.782-0.516c-0.319-0.252-0.718-0.58-1.197-0.985
				c-0.479-0.405-0.916-0.747-1.297-1.028c-1.145-0.842-2.379-1.383-2.515-1.272c-0.074,0.061-0.042,0.559,0.03,0.927
				c0.094,0.477,0.231,0.979,0.407,1.503c0.176,0.524,0.327,0.929,0.455,1.215c0.077,0.171,0.117,0.257,0.194,0.429
				c0.003,0.014,0.008,0.031,0.019,0.05c0.011,0.019,0.018,0.036,0.02,0.05c0.035,0.177-0.015,0.359-0.15,0.549
				C591.51,278.385,591.322,278.535,591.086,278.636z"/>
			<path d="M612.912,261.888c0.035-0.004,0.052-0.007,0.086-0.011c0.232-0.028,0.439,0.006,0.62,0.103
				c0.18,0.097,0.282,0.229,0.302,0.395c0.002,0.017,0.003,0.024,0.005,0.041c0.029,1.102,0.128,2.61,0.301,4.527
				c0.172,1.917,0.32,3.55,0.439,4.899c0.12,1.349,0.167,2.139,0.104,2.285c-0.201,0.477-0.63,0.79-1.02,0.839
				c-0.279,0.035-0.535-0.083-0.767-0.345c-0.245-0.276-0.662-0.878-1.246-1.803c-0.584-0.925-1.28-2.041-2.092-3.347
				s-1.807-2.843-1.807-2.843c-0.048,0.007-0.392,1.489-0.734,2.892c-0.341,1.404-0.635,2.597-0.883,3.582
				c-0.249,0.984-0.438,1.759-0.623,2.209c-0.018,0.044-0.047,0.112-0.076,0.201c-0.03,0.088-0.052,0.174-0.076,0.202
				c-0.268,0.309-0.878,0.492-1.239,0.548c-0.361,0.056-0.564-0.066-0.612-0.368c-0.283-1.797-0.626-3.582-1.029-5.353
				c-0.404-1.771-0.757-3.152-1.062-4.144c-0.306-0.992-0.544-1.594-0.665-1.793c-0.043-0.072-0.065-0.137-0.072-0.178
				c-0.053-0.329,0.153-0.621,0.618-0.858c0.122-0.062,0.257-0.104,0.402-0.127c0.448-0.07,0.75,0.029,0.909,0.281
				c0.507,0.801,2.176,8.203,2.176,8.203c0.021,0,0.447-1.771,0.709-2.94c0.262-1.168,0.484-2.131,0.661-2.886
				c0.176-0.755,0.309-1.217,0.383-1.381c0.204-0.449,0.471-0.719,0.817-0.768c0.144-0.02,0.298-0.003,0.46,0.052
				s0.284,0.111,0.365,0.17c0.059,0.042,0.089,0.064,0.147,0.106c0.122,0.138,0.402,0.558,0.841,1.263
				c0.438,0.705,0.987,1.598,1.644,2.682c0.656,1.083,1.68,2.714,1.68,2.714c0.114-0.04-0.635-6.995-0.637-8.151
				c0-0.191,0.1-0.385,0.284-0.562C612.41,262.046,612.637,261.936,612.912,261.888z"/>
			<path d="M611.631,260.136c-0.729-0.642-4.694-0.056-5.659-0.145c-0.769-0.07-1.358-0.21-1.763-0.417
				c-0.404-0.207-0.637-0.516-0.699-0.928c-0.066-0.439,0.144-0.903,0.628-1.389c0.485-0.485,1.138-0.842,1.948-1.049
				c0.26-0.066,0.445-0.104,0.548-0.118c0.68-0.095,1.325-0.084,1.934,0.031c0.609,0.115,1.128,0.285,1.554,0.51
				c0.426,0.225,0.825,0.512,1.197,0.857s0.659,0.652,0.863,0.921c0.205,0.269,0.419,0.752,0.561,0.834
				c0.183,0.106,0.629,0.056,0.641,0.152c0.003,0.028-0.004,0.08-0.029,0.13c-0.058,0.116-0.294,0.251-0.337,0.334
				c-0.068,0.13-0.155,0.494-0.459,0.603c-0.136,0.048-0.244,0.071-0.303,0.079c-0.262,0.032-0.505-0.088-0.567-0.286
				c-0.003-0.011-0.011-0.033-0.029-0.059S611.634,260.139,611.631,260.136z M606.47,257.333c-0.029,0.004-0.073,0.015-0.131,0.03
				c-0.058,0.015-0.094,0.021-0.108,0.024c-0.25,0.048-0.466,0.168-0.619,0.309c-0.152,0.141-0.219,0.287-0.197,0.438
				c0.038,0.261,0.153,0.449,0.349,0.561c0.195,0.113,0.598,0.196,1.202,0.251c1.405,0.128,4.011,0.243,4.011,0.243
				C611.053,259.034,608.251,257.083,606.47,257.333z"/>
			<path d="M629.253,263.121c0.002,0.028,0.011,0.061,0.029,0.102c0.017,0.041,0.025,0.07,0.028,0.082
				c0.053,0.286,0.154,0.615,0.175,0.906c0.066,0.914,0.153,2.091,0.264,3.531c0.111,1.44,0.171,2.208,0.178,2.305
				c0.02,0.277,0.018,0.481,0,0.607c-0.127,0.902-0.649,1.665-1.589,2.261s-2.093,0.95-3.461,1.072
				c-3.546,0.315-5.403-0.303-5.577-1.946c-0.085-0.801-0.197-2.004-0.338-3.609s-0.249-2.752-0.322-3.443
				c-0.047-0.442-0.119-0.847-0.215-1.214c-0.097-0.367-0.186-0.636-0.263-0.809c-0.077-0.173-0.149-0.293-0.211-0.335
				c-0.126-0.085-0.22-0.208-0.237-0.373c-0.025-0.234,0.085-0.46,0.327-0.642c0.221-0.166,0.472-0.26,0.719-0.286
				c0.262-0.027,0.496,0.017,0.695,0.137c0.39,0.233,0.66,0.6,0.803,1.081s0.257,1.157,0.344,2.027
				c0.072,0.719,0.172,1.878,0.303,3.478s0.236,2.793,0.315,3.581c0.044,0.442,0.354,0.736,0.927,0.882
				c0.574,0.147,1.541,0.154,2.901,0.034c1.837-0.162,2.829-0.749,2.933-1.749c0.018-0.166,0.019-0.302,0.011-0.398
				c-0.009-0.11-0.054-0.915-0.135-2.413s-0.228-3.618-0.228-3.618c-0.075-0.03-1.246,0.808-1.992,0.871
				c-0.832,0.07-1.498-0.114-2.001-0.557c-0.503-0.442-0.785-0.975-0.843-1.597c-0.01-0.111-0.01-0.251,0.005-0.418
				c0.047-0.501,0.314-0.982,0.78-1.422c0.466-0.439,1.107-0.693,1.922-0.761c1.121-0.093,2.774,1.4,2.94,1.397
				c0.075-0.001,0.65-0.874,1.252-1.763c0.173-0.256,0.478-0.409,0.916-0.438c0.088-0.006,0.194,0,0.31,0.021
				c0.334,0.064,0.522,0.245,0.54,0.508c0.006,0.097-0.022,0.183-0.072,0.255c-0.35,0.503-1.021,1.36-2.012,2.518
				C629.326,263.04,629.302,263.067,629.253,263.121z M627.402,263.115c-0.02-0.032-0.031-0.05-0.051-0.082
				c-0.253-0.453-0.567-0.793-0.943-1.021c-0.376-0.227-0.732-0.327-1.066-0.299c-0.595,0.05-0.915,0.322-0.959,0.813
				c-0.015,0.169-0.017,0.288-0.011,0.356c0.031,0.36,0.172,0.647,0.423,0.862c0.251,0.215,0.586,0.306,1.003,0.271
				c0.476-0.04,0.98-0.414,1.482-0.789C627.303,263.211,627.349,263.175,627.402,263.115z"/>
			<path d="M644.102,272.534c-0.059,0.001-0.088,0.002-0.146,0.004c-0.238,0.007-0.437-0.045-0.594-0.151s-0.239-0.242-0.244-0.409
				c-0.024-0.792-0.036-1.798-0.038-3.021s-0.011-2.056-0.024-2.5c-0.026-0.86-0.074-1.621-0.145-2.278s-0.151-1.18-0.243-1.566
				c-0.092-0.386-0.2-0.698-0.323-0.938c-0.124-0.239-0.238-0.404-0.342-0.49c-0.104-0.086-0.216-0.128-0.332-0.124
				c-0.77,0.026-1.617,1.382-2.51,4.058c-0.343,1.029-0.66,2.082-0.945,3.159c-0.286,1.077-0.517,2.012-0.698,2.807
				s-0.274,1.437-0.357,1.529c-0.221,0.249-1.036,0.345-1.414,0.366c-0.322,0.018-0.487-0.065-0.497-0.245
				c-0.07-1.262-0.232-2.945-0.486-5.053s-0.503-3.724-0.718-4.832c-0.217-1.12-0.365-1.743-0.414-1.832
				c-0.038-0.07-0.051-0.142-0.053-0.184c-0.02-0.333,0.215-0.604,0.699-0.793c0.127-0.05,0.266-0.078,0.411-0.085
				c0.452-0.025,0.746,0.101,0.874,0.371c0.083,0.175,0.228,0.884,0.458,2.083c0.092,0.479,0.658,4.847,0.658,4.847
				c0.003,0,0.117-0.416,0.243-0.909c0.125-0.493,0.225-0.865,0.303-1.099c0.023-0.07,0.103-0.318,0.234-0.741
				c0.131-0.424,0.225-0.706,0.284-0.848c0.059-0.142,0.161-0.405,0.311-0.788c0.148-0.382,0.278-0.657,0.387-0.829
				c0.108-0.171,0.257-0.411,0.448-0.718c0.19-0.307,0.382-0.534,0.572-0.681c0.19-0.146,0.412-0.308,0.668-0.485
				c0.256-0.177,0.533-0.304,0.829-0.385c0.296-0.08,0.619-0.127,0.97-0.139c0.467-0.016,0.876,0.035,1.223,0.149
				c0.346,0.115,0.627,0.323,0.846,0.622c0.219,0.3,0.396,0.598,0.526,0.893c0.131,0.295,0.229,0.729,0.294,1.304
				c0.064,0.575,0.108,1.068,0.133,1.477s0.046,1.003,0.064,1.781c0.003,0.133,0.005,0.2,0.008,0.333
				c0.011,0.458,0.014,1.298,0.009,2.521c-0.006,1.223,0.001,2.223,0.021,3c0.005,0.181-0.088,0.354-0.273,0.518
				C644.592,272.398,644.367,272.499,644.102,272.534z"/>
			<path d="M648.229,263.965c-0.23-0.01-0.422-0.076-0.575-0.198s-0.232-0.268-0.235-0.435c-0.001-0.042,0.012-0.106,0.04-0.189
				c0.338-0.982,1.015-1.845,1.975-2.557c0.959-0.711,2.006-1.103,3.13-1.174c0.123,0,0.184,0,0.307,0
				c0.978,0,1.744,0.29,2.294,0.863c0.549,0.573,0.816,1.361,0.807,2.361c-0.002,0.222-0.016,0.39-0.028,0.499
				c-0.368,3.074-0.479,5.796-0.497,7.976c-0.003,0.325-0.004,0.486-0.007,0.812c-0.002,0.195-0.103,0.377-0.3,0.55
				c-0.198,0.172-0.437,0.271-0.717,0.298c-0.067,0-0.099,0-0.166,0c-0.252-0.001-0.461-0.057-0.629-0.169s-0.252-0.256-0.252-0.437
				c0.001-0.333-0.001-0.501,0-0.834c0.004-2.25,0.101-5.007,0.449-8.083c0.013-0.109,0.021-0.271,0.021-0.479
				c0.002-0.694-0.135-1.182-0.41-1.46s-0.58-0.417-0.914-0.417c-0.035,0-0.053,0-0.088,0c-0.479,0.028-1.021,0.259-1.619,0.693
				c-0.6,0.435-1.022,1.001-1.275,1.698c-0.07,0.195-0.219,0.356-0.447,0.483s-0.482,0.193-0.756,0.197
				C648.293,263.964,648.272,263.964,648.229,263.965z"/>
			<path d="M661.504,261.693c-0.184-0.122-0.277-0.292-0.272-0.487c0.006-0.222,0.13-0.413,0.365-0.573
				c1.125-0.768,2.2-1.145,3.207-1.108c1.619,0.059,2.668,1.009,3.112,2.818c0.233,0.952,0.314,2.122,0.249,3.495
				s-0.298,2.608-0.687,3.701c-0.834,2.348-2.081,3.493-3.774,3.435c-0.448-0.016-0.869-0.137-1.262-0.364s-0.741-0.542-1.047-0.946
				c-0.306-0.404-0.559-0.79-0.762-1.156c-0.202-0.366-0.41-0.805-0.626-1.307c-0.199-0.462-0.607-1.631-1.231-3.504
				c-0.014-0.042-0.021-0.098-0.021-0.168c0.003-0.167,0.083-0.324,0.236-0.474s0.357-0.245,0.578-0.302
				c0.085-0.022,0.215-0.038,0.387-0.034c0.488,0.011,0.79,0.174,0.895,0.48c0.637,1.872,1.008,3.041,1.169,3.428
				c0.32,0.769,0.71,1.435,1.13,1.982c0.419,0.549,0.77,0.889,0.898,0.874c0.043-0.005,0.156-0.1,0.295-0.227
				s0.32-0.366,0.545-0.712c0.226-0.346,0.408-0.741,0.556-1.176c0.342-1.01,0.555-2.153,0.606-3.416
				c0.053-1.291-0.022-2.359-0.235-3.2c-0.149-0.589-0.36-1.024-0.626-1.305s-0.514-0.426-0.745-0.435
				c-0.335-0.012-0.818,0.206-1.438,0.618c-0.261,0.173-0.559,0.254-0.877,0.246C661.896,261.87,661.682,261.811,661.504,261.693z"
				/>
			<path d="M671.429,264.131c-0.432-0.127-0.653-0.342-0.636-0.662c0.003-0.055,0.033-0.163,0.103-0.286
				c0.483-0.863,1.328-1.601,2.273-2.141c0.944-0.539,1.969-0.838,3.046-0.862c0.319-0.007,0.56-0.002,0.705,0.009
				c1.661,0.122,2.969,0.83,3.909,2.109c0.94,1.28,1.309,2.954,1.122,5.015c-0.172,1.895-0.823,3.376-1.936,4.451
				c-1.112,1.076-2.469,1.646-4.049,1.684c-0.308,0.007-0.539,0.001-0.693-0.009c-1.342-0.096-2.448-0.545-3.329-1.356
				s-1.296-1.805-1.229-2.983c0.041-0.735,0.305-1.353,0.788-1.791c0.26-0.235,0.561-0.408,0.866-0.512
				c0.421-0.143,0.85-0.199,1.278-0.171c0.628,0.041,1.263,0.247,1.878,0.566c0.256,0.132,0.385,0.32,0.367,0.57
				c-0.012,0.166-0.104,0.312-0.247,0.441c-0.244,0.219-0.588,0.334-1.027,0.305c-0.185-0.013-0.338-0.052-0.462-0.115
				c-0.344-0.176-0.655-0.272-0.925-0.289c-0.025-0.001-0.039-0.001-0.064-0.003c-0.03,0.012-0.067,0.047-0.114,0.106
				s-0.094,0.165-0.146,0.314c-0.052,0.15-0.082,0.314-0.094,0.495c-0.054,0.86,0.221,1.55,0.815,2.076
				c0.595,0.526,1.29,0.818,2.091,0.876c0.154,0.011,0.275,0.01,0.358,0.005c0.371-0.024,0.761-0.097,1.133-0.249
				c0.372-0.152,0.745-0.39,1.126-0.715c0.38-0.325,0.709-0.805,0.983-1.438c0.272-0.632,0.448-1.375,0.521-2.233
				c0.08-0.955,0.027-1.811-0.156-2.565c-0.184-0.753-0.462-1.344-0.835-1.771s-0.767-0.75-1.18-0.97s-0.839-0.344-1.273-0.375
				c-0.044-0.003-0.095-0.004-0.152-0.001c-0.059,0.003-0.104,0.001-0.131,0c-1.231-0.022-2.434,0.733-3.248,2.02
				c-0.099,0.155-0.257,0.287-0.479,0.377c-0.223,0.091-0.457,0.128-0.702,0.114C671.568,264.16,671.484,264.147,671.429,264.131z"
				/>
			<path d="M684.892,265.52c-0.228-0.036-0.412-0.125-0.551-0.264s-0.198-0.292-0.183-0.458c0.004-0.042,0.022-0.104,0.06-0.183
				c0.447-0.938,1.221-1.72,2.256-2.318c1.035-0.598,2.118-0.869,3.244-0.812c0.122,0.014,0.185,0.021,0.307,0.035
				c0.973,0.111,1.701,0.485,2.184,1.117c0.481,0.632,0.658,1.445,0.536,2.438c-0.027,0.221-0.057,0.386-0.082,0.493
				c-0.714,3.013-1.133,5.703-1.396,7.867c-0.039,0.323-0.059,0.484-0.098,0.807c-0.023,0.193-0.146,0.363-0.361,0.512
				c-0.217,0.148-0.463,0.221-0.745,0.216c-0.066-0.008-0.1-0.012-0.166-0.02c-0.251-0.03-0.454-0.11-0.608-0.24
				s-0.223-0.283-0.202-0.462c0.038-0.331,0.058-0.498,0.096-0.829c0.258-2.235,0.664-4.963,1.357-7.98
				c0.024-0.107,0.052-0.266,0.076-0.473c0.081-0.689,0-1.188-0.242-1.496c-0.243-0.308-0.528-0.48-0.86-0.518
				c-0.035-0.004-0.053-0.006-0.088-0.01c-0.48-0.026-1.046,0.142-1.69,0.506c-0.646,0.364-1.132,0.878-1.462,1.542
				c-0.092,0.186-0.259,0.33-0.501,0.431s-0.499,0.137-0.771,0.109C684.956,265.524,684.935,265.524,684.892,265.52z"/>
			<path d="M696.391,275.594c-0.042-0.006-0.062-0.007-0.104-0.013c-0.25-0.035-0.451-0.126-0.602-0.272s-0.214-0.309-0.189-0.488
				c0.001-0.008,0.002-0.013,0.003-0.021c0.791-4.35,1.248-6.948,1.365-7.802c0.187-1.362,0.223-2.304,0.103-2.825
				c-0.009-0.043-0.008-0.101,0.002-0.169c0.043-0.316,0.276-0.527,0.684-0.642c1.355-0.382,3.356-0.415,5.96-0.008
				c1.157,0.181,2.08,0.595,2.767,1.236c0.687,0.642,0.945,1.45,0.781,2.422c-0.035,0.205-0.199,0.974-0.489,2.305
				c-0.291,1.332-0.52,2.504-0.69,3.518c-0.173,1.027-0.305,1.977-0.395,2.849c-0.001,0.008-0.004,0.014-0.005,0.021
				c-0.032,0.192-0.156,0.352-0.371,0.485c-0.215,0.133-0.485,0.216-0.748,0.192c-0.013-0.001-0.048-0.004-0.104-0.007
				c-0.057-0.002-0.096-0.003-0.109-0.006c-0.236-0.039-0.425-0.127-0.566-0.263c-0.143-0.136-0.205-0.295-0.188-0.474
				c0.082-0.895,0.217-1.878,0.388-2.934c0.169-1.042,0.395-2.231,0.677-3.572c0.282-1.34,0.438-2.092,0.464-2.257
				c0.188-1.151-0.461-1.851-1.943-2.081c-1.526-0.237-3.692-0.425-3.875-0.22c-0.123,0.138-0.052,1.432-0.208,2.517
				c-0.127,0.88-0.561,3.558-1.425,7.834c-0.038,0.189-0.178,0.357-0.41,0.5C696.927,275.561,696.671,275.619,696.391,275.594z"/>
			<path d="M710.179,269.039c-0.226-0.054-0.4-0.157-0.527-0.307c-0.128-0.149-0.178-0.306-0.148-0.471
				c0.007-0.041,0.029-0.101,0.073-0.176c0.521-0.899,1.354-1.619,2.436-2.134c1.081-0.514,2.187-0.699,3.308-0.553
				c0.121,0.023,0.185,0.036,0.306,0.059c0.964,0.188,1.663,0.619,2.096,1.287c0.432,0.668,0.546,1.491,0.346,2.471
				c-0.045,0.218-0.088,0.382-0.121,0.487c-0.949,2.946-1.58,5.596-2.014,7.732c-0.064,0.318-0.097,0.479-0.161,0.797
				c-0.039,0.191-0.173,0.351-0.4,0.482c-0.228,0.131-0.481,0.183-0.763,0.155c-0.066-0.013-0.098-0.02-0.164-0.033
				c-0.248-0.049-0.447-0.146-0.591-0.288c-0.145-0.142-0.2-0.3-0.165-0.477c0.064-0.327,0.095-0.49,0.159-0.817
				c0.434-2.208,1.054-4.897,1.983-7.85c0.033-0.104,0.074-0.261,0.114-0.465c0.135-0.681,0.094-1.185-0.124-1.511
				c-0.219-0.326-0.493-0.521-0.822-0.585c-0.034-0.007-0.054-0.01-0.088-0.017c-0.478-0.064-1.055,0.059-1.728,0.37
				c-0.674,0.312-1.201,0.786-1.583,1.422c-0.106,0.178-0.285,0.308-0.535,0.389s-0.51,0.098-0.779,0.049
				C710.242,269.05,710.222,269.047,710.179,269.039z"/>
			<path d="M734.527,268.834c0.18,0.179,0.247,0.371,0.202,0.545c-0.049,0.188-0.19,0.322-0.401,0.413
				c-0.848,0.363-2.249,1.024-2.311,1.244c-0.109,0.39,0.634,2.315,0.293,3.661c-0.103,0.404-0.228,0.781-0.374,1.13
				c-0.304,0.724-0.688,1.521-1.148,2.386c-0.461,0.865-0.834,1.544-1.124,2.037c-0.292,0.493-0.463,0.758-0.493,0.792
				c-0.271,0.302-0.665,0.478-1.2,0.347c-0.041-0.01-0.062-0.015-0.103-0.025c-0.216-0.067-0.376-0.174-0.479-0.32
				c-0.103-0.146-0.136-0.291-0.1-0.44c0.017-0.067,0.038-0.122,0.062-0.159c1.137-1.809,2.043-3.538,2.645-5.058
				c0.173-0.437,0.277-0.762,0.324-0.951c0.189-0.769,0.067-2.231,0.035-2.243c-0.274-0.101-2.84,2.32-4.17,3.691
				s-2.403,3.005-3.279,3.904c-0.354,0.363-0.922,0.496-1.307,0.41c-0.275-0.062-0.459-0.263-0.562-0.593
				c-0.09-0.289-0.186-1.091-0.278-2.398c-0.093-1.307-0.118-2.578-0.055-3.796c0.023-0.461,0.075-0.856,0.146-1.183
				c0.386-1.792,1.367-3.061,2.949-3.792c1.284-0.594,2.7-0.718,4.23-0.358c1.244,0.292,2.644,1.576,3.026,1.627
				c0.357,0.048,1.488-0.845,2.019-1.087c0.284-0.13,0.602-0.151,0.931-0.068C734.206,268.6,734.389,268.696,734.527,268.834z
				 M729.578,270.673c0.03-0.226-1.255-1.094-2.123-1.297c-0.798-0.187-1.545-0.141-2.233,0.125
				c-1.235,0.477-2.025,1.448-2.351,2.912c-0.081,0.366-0.127,0.719-0.145,1.056c-0.049,0.967,0.043,3.553,0.043,3.553
				C722.98,277.091,729.498,271.273,729.578,270.673z"/>
		</g>
	</g>
</g>
</svg>
