<?xml version="1.0" encoding="utf-8"?>
<!-- Generator: Adobe Illustrator 16.0.0, SVG Export Plug-In . SVG Version: 6.00 Build 0)  -->
<!DOCTYPE svg PUBLIC "-//W3C//DTD SVG 1.1//EN" "http://www.w3.org/Graphics/SVG/1.1/DTD/svg11.dtd">
<svg version="1.1" id="Layer_1" xmlns="http://www.w3.org/2000/svg" xmlns:xlink="http://www.w3.org/1999/xlink" x="0px" y="0px"
	 width="1280px" height="720px" viewBox="0 0 1280 720" enable-background="new 0 0 1280 720" xml:space="preserve">
<g id="sky">
	
		<linearGradient id="SVGID_1_" gradientUnits="userSpaceOnUse" x1="539.0005" y1="876.7969" x2="539.0005" y2="1268.0347" gradientTransform="matrix(1 0 0 -1 101 1269.5)">
		<stop  offset="0" style="stop-color:#FFE899"/>
		<stop  offset="0.1062" style="stop-color:#FFE9CF"/>
		<stop  offset="0.2606" style="stop-color:#FFFFDB"/>
		<stop  offset="0.442" style="stop-color:#EDFFED"/>
		<stop  offset="0.6486" style="stop-color:#E0FFFA"/>
		<stop  offset="0.8342" style="stop-color:#DBFFFF"/>
		<stop  offset="1" style="stop-color:#B0E7FF"/>
	</linearGradient>
	<polygon fill="url(#SVGID_1_)" points="0,0 0,622.371 1280,615.5 1280,0 	"/>
</g>
<g id="cloud1_1_">
	
		<linearGradient id="SVGID_2_" gradientUnits="userSpaceOnUse" x1="925.3594" y1="972.082" x2="925.3594" y2="1060.1973" gradientTransform="matrix(1 0 0 -1 101 1269.5)">
		<stop  offset="0" style="stop-color:#9FC7D3"/>
		<stop  offset="0.3154" style="stop-color:#C0D5DF"/>
		<stop  offset="0.7674" style="stop-color:#E9E6EE"/>
		<stop  offset="1" style="stop-color:#F9EDF4"/>
	</linearGradient>
	<path fill="url(#SVGID_2_)" d="M1131.979,264.876c-1.627-3.062-3.572-6.06-5.758-6.553c-1.666-3.215-3.855-5.641-6.265-5.641
		c-2.667,0-5.066,2.155-6.797,5.981c-0.207-3.121-1.386-5.656-2.876-5.656c-0.603,0-1.128,0.43-1.591,1.078
		c-0.839-8.768-4.413-15.386-8.707-15.386c-1.087,0-2.12,0.479-3.087,1.251c0.656-2.606,1.062-5.545,1.062-8.723
		c0-10.102-3.771-18.292-8.421-18.292c-2.35,0-4.466,2.088-5.996,5.453c-0.575-1.237-1.289-2.159-2.078-2.74
		c0.151-1.979,0.078-4.274-0.506-5.883c-0.263-0.719-0.524-1.434-0.784-2.157c-0.692-1.889-1.389-3.356-2.538-4.005
		c-0.115-0.064-0.247-0.081-0.368-0.126c0.188-2.587-0.171-5.286-1.146-7.365c-0.256-0.549-0.516-1.097-0.771-1.647
		c-0.339-0.722-0.75-1.26-1.189-1.677c-0.477-1.166-1.004-2.228-1.553-3.226c-0.01-0.692-0.043-1.374-0.145-1.999
		c-0.682-4.336-2.961-7.596-5.226-6.096c-0.604,0.408-1.206,0.808-1.813,1.207c-0.016,0.016-0.027,0.031-0.046,0.041
		c-0.565-0.15-1.142-0.25-1.727-0.25c-0.173,0-0.341,0.055-0.513,0.063c-0.654-1.126-1.525-1.857-2.627-1.857
		c-2.144,0-3.438,2.699-3.898,5.964c-1.464,1.86-2.77,4.252-3.835,7.094c-0.215-0.06-0.421-0.134-0.652-0.134
		c-3.413,0-4.698,6.801-3.849,11.915c-1.271,0.059-2.375,1.392-3.103,3.411c-1.946-4.955-4.809-8.167-8.043-8.167
		c-5.592,0-10.172,9.428-10.562,21.359c-0.435-0.311-0.905-0.518-1.445-0.518c-0.756,0-1.392,0.36-1.938,0.938
		c-0.438-0.625-1.03-1.003-1.529-1.097c-0.191-0.421-0.41-0.796-0.68-1.079c-0.237-0.25-0.479-0.505-0.715-0.746
		c-0.722-0.762-1.521-1.077-2.317-0.623c-0.063,0.037-0.128,0.1-0.188,0.149c-0.181-0.19-0.367-0.342-0.568-0.428
		c-0.622-0.265-1.256-0.391-1.879-0.05c-0.108-0.346-0.228-0.678-0.375-0.979l-0.359-0.744c-0.199-0.409-0.438-0.729-0.688-1.002
		c-0.264-1.041-0.636-1.939-1.146-2.552c-0.646-0.776-1.595-1.1-2.318-0.624c-0.104,0.072-0.205,0.174-0.304,0.259
		c-0.084-0.403-0.167-0.795-0.248-1.192c-0.267-0.927-0.624-1.668-1.077-2.217c-0.442-0.685-1.019-1.166-1.565-1.355
		c-0.361-0.126-0.722-0.202-1.077-0.212c-1.588-2.33-3.498-3.688-5.561-3.688c-2.202,0-4.232,1.569-5.879,4.214
		c-0.079-0.008-0.151-0.048-0.235-0.048c-0.392,0-0.816,0.197-1.211,0.543c-0.946-0.791-2.003-0.566-2.885,0.688
		c-0.098,0.142-0.204,0.263-0.312,0.375c-0.583,0.539-1.097,1.362-1.427,2.526c-0.014,0.044-0.021,0.112-0.032,0.168
		c-1.064,0.724-1.791,2.367-2.052,4.381c-0.074,0.138-0.147,0.262-0.218,0.409c-0.114-0.045-0.227-0.115-0.344-0.136
		c-0.351-0.746-0.795-1.338-1.324-1.708c-0.592-0.41-1.185-0.822-1.774-1.233c-0.711-0.499-1.684-0.143-2.316,0.619
		c-0.094,0.115-0.182,0.273-0.273,0.42c-0.461,0.019-0.92,0.283-1.329,0.873c-0.865,1.229-1.775,2.292-2.731,3.202
		c-0.612,0.586-1.139,2.162-1.35,3.486c-0.795,0.314-1.52,1.218-1.881,2.822c-0.461,2.028-0.737,4.136-0.774,6.283
		c-0.361,0.063-0.714,0.275-1.05,0.596c-0.428-0.155-0.867-0.137-1.336,0.056c-0.676,0.277-1.35,0.554-2.021,0.833
		c-0.709,0.294-1.441,1.588-1.799,2.836c-0.125,0.443-0.213,0.963-0.285,1.509c-0.222,0.409-0.425,0.897-0.589,1.422
		c-0.081,0.104-0.169,0.198-0.248,0.299c-0.714-0.405-1.464-0.247-2.147,0.453c-0.559-0.022-1.118,0.226-1.593,0.801
		c-0.358,0.431-0.694,1.11-0.96,1.881c-0.127-0.028-0.252-0.073-0.381-0.059c-0.58,0.049-1.229,0.369-1.727,1.079
		c-0.619,0.197-1.293,0.985-1.676,1.777c-0.391,0.793-0.704,1.978-0.827,3.156c-0.121-0.105-0.241-0.191-0.372-0.25
		c-0.268-0.075-0.53-0.151-0.803-0.221c-0.541,0-1.047,0.284-1.519,0.844c-0.536,0.496-1.073,0.988-1.614,1.483
		c-0.564,0.53-1.064,1.958-1.301,3.207c-0.023,0.004-0.055,0.015-0.086,0.019c-0.747-1.243-1.707-1.74-2.607-1.359
		c-0.72-0.366-1.498-0.03-2.146,0.765c-0.107-0.171-0.225-0.314-0.345-0.446c-0.665-0.725-1.585-1.233-2.315-0.62
		c-0.263,0.22-0.527,0.375-0.803,0.507c-0.246,0.018-0.493,0.018-0.742-0.042c-0.464-0.101-1.012,0.269-1.477,0.82
		c-0.609-0.098-1.254,0.14-1.856,0.684c-1.783,1.582-3.447,4.979-4.987,7.406c-0.022,0-0.046,1.374-0.068,1.374h-0.501
		c-0.802,0-1.578-0.908-2.146,0.25c-0.027-0.02-0.052-0.862-0.074-0.88c-1.037-0.673-2.185-0.873-3.166,0.049
		c-0.522-0.351-1.099-0.615-1.688-0.304c-0.335,0.174-0.668,0.25-1.003,0.43c-0.102,0.049-0.199,0.154-0.297,0.312
		c-0.121-0.074-0.241-0.175-0.362-0.271c-0.588-0.479-1.438,1.978-2.048,2.528c-0.529,0.208-1.029,3.626-1.441,3.626h46.941h96.462
		h69.635C1132.605,268.792,1132.316,265.515,1131.979,264.876z"/>
</g>
<g id="cloud1">
	
		<linearGradient id="SVGID_3_" gradientUnits="userSpaceOnUse" x1="51.2798" y1="1062.0195" x2="51.2798" y2="1170.9307" gradientTransform="matrix(1 0 0 -1 101 1269.5)">
		<stop  offset="0" style="stop-color:#9FC7D3"/>
		<stop  offset="0.3154" style="stop-color:#C0D5DF"/>
		<stop  offset="0.7674" style="stop-color:#E9E6EE"/>
		<stop  offset="1" style="stop-color:#F9EDF4"/>
	</linearGradient>
	<path fill="url(#SVGID_3_)" d="M288.948,167.263c-2.105-3.785-4.625-7.489-7.451-8.1c-2.156-3.973-4.99-6.972-8.105-6.972
		c-3.451,0-6.556,2.665-8.795,7.393c-0.268-3.857-1.794-6.991-3.721-6.991c-0.777,0-1.46,0.532-2.059,1.332
		c-1.085-10.836-5.711-19.016-11.266-19.016c-1.407,0-2.745,0.593-3.995,1.547c0.851-3.221,1.374-6.854,1.374-10.78
		c0-12.485-4.879-22.607-10.895-22.607c-3.038,0-5.778,2.581-7.758,6.739c-0.745-1.528-1.669-2.668-2.689-3.387
		c0.196-2.445,0.102-5.283-0.655-7.271c-0.338-0.889-0.678-1.772-1.015-2.666c-0.896-2.334-1.795-4.148-3.284-4.951
		c-0.151-0.079-0.32-0.1-0.476-0.156c0.241-3.197-0.222-6.532-1.483-9.102c-0.333-0.68-0.667-1.356-0.997-2.036
		c-0.438-0.893-0.969-1.558-1.541-2.073c-0.615-1.44-1.299-2.753-2.01-3.987c-0.01-0.855-0.055-1.698-0.184-2.47
		c-0.882-5.359-3.831-9.388-6.761-7.535c-0.78,0.505-1.561,0.999-2.348,1.492c-0.019,0.02-0.038,0.039-0.059,0.051
		c-0.733-0.186-1.477-0.309-2.234-0.309c-0.222,0-0.439,0.067-0.661,0.079c-0.85-1.392-1.976-2.296-3.398-2.296
		c-2.774,0-4.45,3.335-5.048,7.372c-1.894,2.299-3.581,5.255-4.962,8.768c-0.278-0.074-0.544-0.167-0.844-0.167
		c-4.417,0-6.08,8.405-4.98,14.726c-1.641,0.074-3.072,1.721-4.011,4.216c-2.521-6.123-6.222-10.093-10.407-10.093
		c-7.236,0-13.163,11.653-13.667,26.398c-0.561-0.384-1.171-0.64-1.871-0.64c-0.977,0-1.799,0.445-2.508,1.156
		c-0.564-0.772-1.333-1.24-1.979-1.354c-0.249-0.521-0.531-0.983-0.879-1.333c-0.307-0.309-0.619-0.625-0.925-0.922
		c-0.931-0.942-1.97-1.331-2.999-0.77c-0.082,0.044-0.166,0.123-0.244,0.185c-0.235-0.235-0.477-0.423-0.738-0.529
		c-0.805-0.328-1.625-0.483-2.432-0.062c-0.139-0.427-0.291-0.838-0.484-1.21l-0.466-0.919c-0.258-0.506-0.564-0.901-0.889-1.239
		c-0.339-1.286-0.822-2.397-1.484-3.153c-0.833-0.96-2.062-1.36-2.999-0.771c-0.136,0.088-0.267,0.214-0.394,0.321
		c-0.108-0.498-0.216-0.983-0.322-1.475c-0.344-1.145-0.807-2.061-1.393-2.739c-0.574-0.847-1.318-1.441-2.028-1.675
		c-0.468-0.156-0.932-0.25-1.394-0.262c-2.055-2.879-4.525-4.559-7.192-4.559c-2.851,0-5.479,1.939-7.608,5.209
		c-0.101-0.011-0.198-0.06-0.307-0.06c-0.504,0-1.056,0.244-1.566,0.672c-1.224-0.977-2.588-0.7-3.729,0.851
		c-0.127,0.175-0.265,0.325-0.407,0.463c-0.754,0.666-1.418,1.684-1.845,3.122c-0.015,0.055-0.026,0.139-0.042,0.208
		c-1.375,0.895-2.317,2.926-2.654,5.415c-0.096,0.17-0.19,0.323-0.279,0.505c-0.149-0.056-0.293-0.142-0.444-0.167
		c-0.454-0.921-1.029-1.655-1.714-2.112c-0.765-0.508-1.532-1.016-2.298-1.524c-0.921-0.616-2.176-0.176-2.998,0.766
		c-0.121,0.142-0.235,0.338-0.355,0.52c-0.595,0.023-1.189,0.351-1.721,1.078c-1.12,1.519-2.296,2.832-3.534,3.958
		c-0.793,0.724-1.474,2.672-1.746,4.309c-1.029,0.388-1.965,1.505-2.434,3.488c-0.595,2.506-0.955,5.112-1.003,7.765
		c-0.468,0.077-0.924,0.339-1.358,0.735c-0.551-0.192-1.123-0.169-1.729,0.07c-0.871,0.343-1.744,0.684-2.613,1.029
		c-0.918,0.364-1.868,1.963-2.328,3.506c-0.161,0.548-0.275,1.19-0.369,1.866c-0.288,0.505-0.55,1.108-0.762,1.758
		c-0.105,0.128-0.219,0.245-0.322,0.369c-0.924-0.5-1.895-0.305-2.779,0.56c-0.722-0.027-1.448,0.279-2.061,0.991
		c-0.466,0.532-0.901,1.372-1.242,2.325c-0.164-0.035-0.326-0.091-0.493-0.073c-0.75,0.061-1.59,0.456-2.233,1.333
		c-0.801,0.244-1.673,1.218-2.167,2.197c-0.504,0.98-0.913,2.443-1.071,3.9c-0.156-0.13-0.312-0.235-0.482-0.309
		c-0.344-0.092-0.687-0.187-1.035-0.272c-0.7,0-1.355,0.352-1.964,1.044c-0.695,0.612-1.389,1.221-2.089,1.833
		c-0.732,0.654-1.381,2.421-1.684,3.963c-0.032,0.005-0.071,0.019-0.11,0.023c-0.967-1.536-2.209-2.15-3.375-1.68
		c-0.931-0.453-1.939-0.037-2.78,0.945c-0.138-0.212-0.289-0.389-0.444-0.551c-0.862-0.896-2.051-1.524-2.997-0.766
		c-0.34,0.271-0.684,0.463-1.039,0.627c-0.319,0.021-0.638,0.021-0.961-0.052c-0.6-0.125-1.31,0.333-1.909,1.014
		c-0.79-0.122-1.621,0.172-2.402,0.845c-2.308,1.956-4.461,6.153-6.454,9.153c-0.031,0-0.06,1.698-0.09,1.698h-0.649
		c-1.035,0-2.042-1.122-2.773,0.308c-0.036-0.024-0.066-1.064-0.097-1.087c-1.344-0.832-2.825-1.079-4.099,0.06
		c-0.675-0.434-1.418-0.76-2.182-0.376c-0.433,0.216-0.864,0.311-1.297,0.532c-0.129,0.061-0.258,0.191-0.384,0.387
		c-0.156-0.093-0.312-0.216-0.468-0.334c-0.762-0.592-1.861,2.444-2.65,3.124c-0.685,0.256-1.332,4.481-1.865,4.481h60.738h124.814
		h90.101C289.759,172.102,289.383,168.053,288.948,167.263z"/>
</g>
<g id="skyy">
	
		<linearGradient id="SVGID_4_" gradientUnits="userSpaceOnUse" x1="249.561" y1="591.8896" x2="249.5607" y2="1160.9912" gradientTransform="matrix(1 0 0 -1 101 1269.5)">
		<stop  offset="0" style="stop-color:#9FC7D3"/>
		<stop  offset="0.3154" style="stop-color:#C0D5DF"/>
		<stop  offset="0.7674" style="stop-color:#E9E6EE"/>
		<stop  offset="1" style="stop-color:#F9EDF4"/>
	</linearGradient>
	<path fill="url(#SVGID_4_)" d="M675.452,311.177c-7.855,0-14.771,3.952-18.677,9.815c-1.688,0.092-3.307,0.354-4.896,0.766
		c-1.188-12.302-13.229-22.267-25.784-22.267c-6.647,0-12.508,2.441-16.965,6.396c-0.56-0.051-1.129-0.062-1.705-0.062
		c-4.576,0-8.709,1.485-11.684,3.854c-1.295-7.347-9.188-13.435-19.965-16.062c-0.308-2.214-0.979-4.25-2.062-6.258
		c-1.045-3.122-2.829-5.669-5.353-7.95c-2.349-2.456-5.121-3.624-8.326-4.639c-3.082-1.577-6.406-1.284-9.972-1.284h-1.061
		c-0.761,0-1.514-0.836-2.257-0.772c-3.479-1.511-7.739-3.156-12.358-3.156c-4.843,0-9.293,0.924-12.854,2.563
		c-0.194-0.437-0.403-0.888-0.632-1.312c-1.043-3.123-2.827-5.82-5.354-8.104c-2.346-2.458-5.122-3.634-8.328-4.646
		c-3.084-1.582-6.399-1.566-9.969-1.566h-1.06c-4.668,0-9.021,0.562-13.062,2.842c-1.745,1.314-3.489,2.287-5.231,3.604
		c-3.204,3.145-5.43,6.75-6.651,11.016c-0.218,1.583-0.438,3.16-0.655,4.742c-0.146-0.146-0.298-0.212-0.455-0.354
		c-2.345-2.453-5.121-3.043-8.328-4.06c-3.084-1.579-6.399-0.787-9.968-0.787h-1.058c-4.67,0-9.024-0.226-13.062,2.054
		c-1.746,1.312-3.488,1.705-5.23,3.021c-2.659,2.604-4.626,5.395-5.931,8.771c-0.077,0-0.15-0.074-0.229-0.074
		c-2.629,0-5.146,0.385-7.493,1.01c-1.695-1.232-3.562-1.655-5.611-2.303c-3.083-1.578-6.399-3.477-9.968-1.477h-1.055
		c-4.671,0-9.025,0.436-13.062,2.711c-1.746,1.312-3.489,2.085-5.234,3.396c-3.207,3.145-5.429,6.759-6.657,11.021
		c-0.209,1.536-0.421,3.025-0.633,4.562c-0.478,0.429-0.938,0.847-1.372,1.308c-2.808-1.734-6.271-2.777-10.019-2.777
		c-0.68,0-1.352,0.032-2.008,0.102c-0.271-0.339-0.542-0.688-0.81-1.023c-3.229-3.122-7.036-5.281-11.419-6.479
		c-2.292-0.305-4.586-0.604-6.88-0.899c-2.055-0.077-4.021,0.146-5.913,0.633c-3.35-8.264-13.68-14.285-25.904-14.285
		c-8.48,0-16.047,2.896-21.006,7.426c-2.249-4.863-7.437-8.854-14.146-11c0.021-0.297,0.028-0.602,0.028-0.896
		c0-7.062-4.64-13.128-11.297-15.838c-3.575-9.417-15.189-16.319-28.963-16.319c-2.358,0-4.654,0.202-6.856,0.588
		c1.104-2.339,1.716-4.907,1.716-7.601c0-10.88-9.982-19.708-22.3-19.708c-0.459,0-0.907,0.036-1.36,0.062
		c-1.355-7.94-7.211-14.734-14.631-18.234c0.518-1.137,0.964-2.314,1.319-3.543c0.307-2.232,0.614-4.464,0.924-6.696
		c-0.015-4.548-1.193-8.791-3.534-12.72l-4.047-5.099c-2.001-2.099-4.324-3.668-6.959-4.716
		c-1.804-9.836-11.659-17.575-21.899-17.575c-7.857,0-14.416,3.957-18.326,9.818c-3.941,0.22-7.642,1.302-11.098,3.251
		c-1.675,1.26-3.35,2.521-5.025,3.779c-2.419,2.19-4.13,4.784-5.131,7.778c-1.554,2.882-2.267,5.986-2.137,9.313
		c-0.013,0.358-0.012,0.711-0.007,1.065c-0.416,0.249-0.832,0.505-1.232,0.777c-1.286-0.58-2.623-1.075-4.027-1.458
		c-2.293-0.298-4.586-0.601-6.879-0.898c-3.194-0.119-6.197,0.456-9.009,1.715c-0.995-0.091-2.002-0.152-3.029-0.152
		c-2.405,0-4.73,0.255-6.938,0.729c0.931-2.028,1.437-4.197,1.437-6.452c0-11.281-12.556-20.427-28.053-20.427
		c-10.561,0-19.743,4.252-24.531,10.526c-4.516-3.047-10.171-4.841-16.157-4.841c-7.6,0-15.322,0.561-19.843,5.238L0,720h701.826
		l-9.102-400.581C687.631,314.688,681.902,311.177,675.452,311.177z"/>
	
		<linearGradient id="SVGID_5_" gradientUnits="userSpaceOnUse" x1="5396.1729" y1="590.7363" x2="5396.1729" y2="1144.4111" gradientTransform="matrix(-1 0 0 -1 6344.5918 1269.5)">
		<stop  offset="0" style="stop-color:#9FC7D3"/>
		<stop  offset="0.3154" style="stop-color:#C0D5DF"/>
		<stop  offset="0.7674" style="stop-color:#E9E6EE"/>
		<stop  offset="1" style="stop-color:#F9EDF4"/>
	</linearGradient>
	<path fill="url(#SVGID_5_)" d="M639.22,317.995c7.438,0,13.979,3.74,17.672,9.288c1.6,0.087,3.122,0.337,4.64,0.725
		c1.123-11.64,12.519-21.062,24.396-21.062c6.297,0,11.835,2.311,16.053,6.051c0.528-0.043,1.066-0.06,1.612-0.06
		c4.329,0,8.24,1.4,11.057,3.646c1.229-6.944,8.691-12.707,18.896-15.19c0.284-2.1,0.924-4.021,1.95-5.926
		c0.981-2.949,2.677-5.361,5.062-7.521c2.219-2.324,4.849-3.354,7.879-4.313c2.916-1.49,6.062-1.14,9.438-1.14h0.999
		c0.719,0,1.432-0.866,2.135-0.808c3.293-1.43,7.323-3.026,11.693-3.026c4.58,0,8.791,0.854,12.16,2.41
		c0.188-0.413,0.386-0.853,0.602-1.254c0.986-2.956,2.675-5.515,5.062-7.671c2.228-2.326,4.854-3.323,7.885-4.284
		c2.921-1.496,6.062-2.367,9.435-1.367h0.997c4.418,0,8.537,0.416,12.354,2.569c1.648,1.244,3.307,2.104,4.952,3.35
		c3.033,2.977,5.14,6.357,6.298,10.395c0.206,1.498,0.413,2.978,0.618,4.475c0.146-0.139,0.282-0.207,0.437-0.346
		c2.218-2.319,4.845-2.809,7.88-3.77c2.917-1.494,6.062-1.673,9.431-0.673h1.003c4.42,0,8.537-0.288,12.354,1.865
		c1.646,1.243,3.304,1.575,4.955,2.815c2.516,2.467,4.377,5.083,5.604,8.278c0.075,0,0.147-0.081,0.228-0.081
		c2.481,0,4.863,0.358,7.09,0.951c1.604-1.167,3.372-1.199,5.311-1.812c2.916-1.49,6.062-4.021,9.436-1.021h0.998
		c4.419,0,8.536,0.037,12.354,2.193c1.651,1.237,3.306,1.783,4.954,3.024c3.034,2.978,5.134,6.3,6.298,10.337
		c0.198,1.453,0.396,2.816,0.604,4.271c0.443,0.401,0.886,0.771,1.299,1.215c2.651-1.643,5.932-2.642,9.477-2.642
		c0.646,0,1.278,0.021,1.898,0.085c0.258-0.318,0.515-0.646,0.77-0.976c3.058-2.954,6.655-5,10.806-6.134
		c2.17-0.285,4.342-0.568,6.513-0.854c1.938-0.07,3.804,0.137,5.596,0.602c3.167-7.819,12.938-13.521,24.513-13.521
		c8.021,0,15.185,2.74,19.875,7.027c2.127-4.604,7.032-8.379,13.384-10.408c-0.021-0.279-0.022-0.562-0.022-0.849
		c0-6.681,4.393-12.421,10.688-14.983c3.384-8.91,14.37-15.438,27.4-15.438c2.229,0,4.401,0.188,6.483,0.555
		c-1.045-2.211-1.623-4.643-1.623-7.188c0-10.296,9.443-18.647,21.104-18.647c0.437,0,0.854,0.034,1.286,0.06
		c1.278-7.513,6.819-13.939,13.845-17.253c-0.488-1.074-0.911-2.188-1.248-3.353c-0.291-2.112-0.582-4.224-0.875-6.336
		c0.016-4.303,1.132-8.317,3.346-12.035l3.829-4.824c1.896-1.986,4.092-3.472,6.584-4.462c1.707-9.307,11.03-16.629,20.721-16.629
		c7.438,0,13.643,3.743,17.341,9.289c3.729,0.208,7.229,1.231,10.5,3.076c1.586,1.191,3.17,2.385,4.756,3.575
		c2.289,2.072,3.906,4.526,4.854,7.359c1.471,2.728,2.146,5.663,2.021,8.812c0.016,0.339,0.013,0.673,0.007,1.008
		c0.396,0.235,0.786,0.479,1.166,0.735c1.22-0.548,2.479-1.017,3.812-1.379c2.17-0.282,4.339-0.567,6.511-0.85
		c3.021-0.112,5.861,0.431,8.521,1.622c0.938-0.086,1.896-0.144,2.864-0.144c2.271,0,4.478,0.241,6.562,0.69
		c-0.882-1.919-1.356-3.972-1.356-6.105c0-10.674,11.882-19.326,26.543-19.326c9.992,0,18.683,4.022,23.212,9.959
		c4.271-2.884,9.623-4.581,15.286-4.581c7.188,0,14.496,0.531,18.771,4.956V720h-661.19l5.06-394.205
		C627.698,321.319,633.117,317.995,639.22,317.995z"/>
</g>
<g id="cloud4">
	
		<linearGradient id="SVGID_6_" gradientUnits="userSpaceOnUse" x1="975.1631" y1="1065.0479" x2="975.1631" y2="1262.0726" gradientTransform="matrix(1 0 0 -1 101 1269.5)">
		<stop  offset="0" style="stop-color:#9FC7D3"/>
		<stop  offset="0.3154" style="stop-color:#C0D5DF"/>
		<stop  offset="0.7674" style="stop-color:#E9E6EE"/>
		<stop  offset="1" style="stop-color:#F9EDF4"/>
	</linearGradient>
	<path fill="url(#SVGID_6_)" d="M1259.5,124.5c-0.598,0-1.235-2.291-1.982-3.117c-3.582-3.978-7.89-6.892-12.709-7.526
		c-3.686-4.178-8.514-6.851-13.836-6.851c-5.881,0-11.179,3.057-14.999,8.021c-0.458-4.048-3.062-7.219-6.354-7.219
		c-1.32,0-2.479,0.618-3.511,1.458c-1.854-11.385-9.739-19.955-19.217-19.955c-2.396,0-4.688,0.646-6.815,1.646
		c1.454-3.385,2.341-7.199,2.341-11.328c0-13.12-8.322-23.75-18.591-23.75c-5.185,0-9.854,2.719-13.235,7.087
		c-1.271-1.615-2.849-2.801-4.584-3.556c0.33-2.575,0.175-5.565-1.118-7.643c-0.58-0.935-1.164-1.869-1.739-2.801
		c-1.52-2.456-3.059-4.363-5.603-5.209c-0.253-0.086-0.54-0.102-0.808-0.158c0.41-3.362-0.377-6.87-2.527-9.571
		c-0.562-0.714-1.134-1.426-1.702-2.134c-0.749-0.938-1.651-1.636-2.627-2.177c-1.049-1.516-2.219-2.894-3.435-4.189
		c-0.021-0.906-0.101-1.796-0.312-2.598c-1.507-5.63-6.535-9.875-11.536-7.918c-1.33,0.521-2.668,1.043-4,1.57
		c-0.038,0.013-0.062,0.035-0.104,0.047c-1.257-0.199-2.521-0.322-3.817-0.322c-0.375,0-0.742,0.068-1.121,0.081
		c-1.447-1.465-3.369-2.411-5.801-2.411c-4.738,0-7.592,3.502-8.613,7.745c-3.228,2.417-6.113,5.521-8.461,9.213
		c-0.472-0.076-0.935-0.172-1.441-0.172c-7.532,0-10.366,8.834-8.507,15.47c-2.788,0.083-5.229,1.815-6.836,4.432
		c-4.296-6.439-10.607-10.603-17.759-10.603c-12.35,0-22.451,12.241-23.316,27.741c-0.953-0.402-1.994-0.674-3.188-0.674
		c-5.25,0-8.215,4.292-8.9,9.137c-0.81-0.086-1.63-0.137-2.453-0.137c-11.249,0-21.027,8.012-26.044,19.793
		c-1.688-1.898-3.883-3.081-6.312-3.081c-3.938,0-7.312,3.011-8.812,7.311c-1.212-0.88-2.664-1.43-4.39-1.506
		c-1.37-3.225-3.976-5.639-7.901-5.639c-6.857,0-9.796,7.308-8.85,13.634c-1.354-1.069-3.011-1.744-5.037-1.744
		c-3.009,0-5.271,1.414-6.78,3.531c-2.467-0.03-4.938,0.602-7.002,2.255c-0.177,0.147-0.352,0.284-0.521,0.431
		c-0.923-0.364-1.926-0.619-3.062-0.619c-1.764,0-3.247,0.524-4.485,1.358c-0.653,0.076-1.312,0.196-1.979,0.368
		c-1.166,0.296-2.339,0.592-3.515,0.889c-3.329,0.849-6.726,4.35-8.4,7.812c-0.271,0.571-0.333,1.211-0.552,1.846
		c-1.512-2.172-4.348-3.194-6.688-3.194c-3.343,0-5.689-2.298-7.128,4.924H1259.5V124.5z"/>
</g>
<g id="cloud2">
	
		<linearGradient id="SVGID_7_" gradientUnits="userSpaceOnUse" x1="357.3433" y1="1101.3486" x2="357.3433" y2="1206.6162" gradientTransform="matrix(1 0 0 -1 101 1269.5)">
		<stop  offset="0" style="stop-color:#9FC7D3"/>
		<stop  offset="0.3154" style="stop-color:#C0D5DF"/>
		<stop  offset="0.7674" style="stop-color:#E9E6EE"/>
		<stop  offset="1" style="stop-color:#F9EDF4"/>
	</linearGradient>
	<path fill="url(#SVGID_7_)" d="M588.146,129.279c-1.998-3.658-4.396-7.238-7.076-7.828c-2.047-3.84-4.739-6.738-7.698-6.738
		c-3.277,0-6.228,2.575-8.354,7.145c-0.254-3.729-1.699-6.757-3.53-6.757c-0.738,0-1.391,0.514-1.955,1.288
		c-1.031-10.474-5.425-18.38-10.702-18.38c-1.335,0-2.605,0.572-3.793,1.495c0.808-3.114,1.305-6.625,1.305-10.42
		c0-12.067-4.634-21.851-10.348-21.851c-2.885,0-5.487,2.495-7.369,6.514c-0.707-1.478-1.585-2.579-2.553-3.273
		c0.186-2.364,0.098-5.106-0.622-7.028c-0.322-0.859-0.646-1.712-0.964-2.576c-0.854-2.257-1.709-4.01-3.118-4.786
		c-0.146-0.076-0.307-0.097-0.451-0.15c0.228-3.09-0.211-6.314-1.411-8.797c-0.312-0.657-0.633-1.311-0.946-1.968
		c-0.417-0.863-0.921-1.506-1.461-2.004c-0.585-1.392-1.231-2.661-1.91-3.854c-0.011-0.827-0.054-1.642-0.175-2.387
		c-0.838-5.18-3.638-9.074-6.421-7.282c-0.741,0.488-1.48,0.965-2.229,1.441c-0.021,0.019-0.036,0.038-0.058,0.049
		c-0.693-0.179-1.399-0.298-2.122-0.298c-0.211,0-0.417,0.065-0.627,0.076c-0.807-1.345-1.876-2.219-3.228-2.219
		c-2.632,0-4.229,3.224-4.793,7.125c-1.799,2.222-3.401,5.08-4.713,8.475c-0.27-0.072-0.521-0.161-0.806-0.161
		c-4.19,0-5.771,8.125-4.729,14.233c-1.561,0.071-2.917,1.663-3.812,4.075c-2.394-5.918-5.904-9.755-9.884-9.755
		c-6.872,0-12.5,11.263-12.979,25.515c-0.532-0.372-1.113-0.618-1.776-0.618c-0.93,0-1.709,0.43-2.382,1.117
		c-0.536-0.747-1.271-1.198-1.879-1.31c-0.239-0.503-0.505-0.951-0.835-1.289c-0.291-0.299-0.587-0.604-0.878-0.892
		c-0.886-0.91-1.87-1.286-2.851-0.744c-0.079,0.043-0.156,0.118-0.229,0.178c-0.224-0.227-0.453-0.409-0.701-0.511
		c-0.766-0.316-1.543-0.467-2.312-0.06c-0.131-0.413-0.273-0.81-0.459-1.17l-0.441-0.888c-0.245-0.489-0.536-0.871-0.845-1.197
		c-0.321-1.243-0.781-2.317-1.409-3.048c-0.791-0.928-1.959-1.314-2.848-0.745c-0.132,0.085-0.256,0.207-0.375,0.31
		c-0.104-0.482-0.204-0.951-0.309-1.426c-0.327-1.106-0.764-1.992-1.323-2.647c-0.542-0.819-1.252-1.393-1.925-1.619
		c-0.441-0.151-0.885-0.242-1.325-0.253c-1.948-2.783-4.297-4.407-6.83-4.407c-2.708,0-5.205,1.875-7.226,5.035
		c-0.094-0.011-0.188-0.059-0.292-0.059c-0.479,0-1.002,0.236-1.487,0.65c-1.164-0.945-2.458-0.676-3.543,0.822
		c-0.122,0.169-0.25,0.314-0.386,0.447c-0.716,0.645-1.348,1.628-1.753,3.018c-0.015,0.053-0.022,0.134-0.04,0.202
		c-1.304,0.865-2.201,2.828-2.52,5.234c-0.092,0.165-0.181,0.313-0.268,0.489c-0.143-0.054-0.277-0.138-0.422-0.162
		c-0.43-0.891-0.978-1.599-1.628-2.041c-0.727-0.491-1.455-0.982-2.185-1.474c-0.875-0.595-2.065-0.17-2.847,0.74
		c-0.116,0.137-0.224,0.326-0.338,0.502c-0.566,0.022-1.128,0.339-1.634,1.042c-1.063,1.468-2.182,2.737-3.356,3.825
		c-0.753,0.7-1.399,2.583-1.659,4.165c-0.977,0.375-1.865,1.454-2.31,3.372c-0.567,2.422-0.907,4.94-0.953,7.505
		c-0.445,0.075-0.877,0.327-1.29,0.71c-0.525-0.185-1.066-0.164-1.642,0.068c-0.827,0.331-1.656,0.661-2.482,0.994
		c-0.871,0.352-1.771,1.897-2.21,3.389c-0.153,0.529-0.262,1.15-0.35,1.803c-0.274,0.488-0.524,1.071-0.723,1.699
		c-0.1,0.125-0.208,0.236-0.306,0.356c-0.877-0.483-1.8-0.295-2.64,0.541c-0.685-0.026-1.377,0.27-1.958,0.958
		c-0.443,0.515-0.856,1.326-1.181,2.247c-0.155-0.033-0.309-0.087-0.466-0.07c-0.715,0.059-1.511,0.441-2.121,1.289
		c-0.761,0.236-1.589,1.177-2.058,2.124c-0.479,0.947-0.867,2.361-1.018,3.77c-0.148-0.125-0.296-0.227-0.458-0.298
		c-0.326-0.089-0.652-0.181-0.983-0.263c-0.665,0-1.286,0.339-1.866,1.009c-0.66,0.592-1.319,1.18-1.984,1.772
		c-0.696,0.633-1.311,2.34-1.598,3.831c-0.03,0.005-0.067,0.018-0.105,0.022c-0.918-1.485-2.099-2.079-3.206-1.624
		c-0.885-0.438-1.844-0.035-2.64,0.914c-0.131-0.205-0.275-0.375-0.422-0.533c-0.818-0.865-1.948-1.473-2.846-0.739
		c-0.323,0.262-0.649,0.447-0.986,0.606c-0.303,0.021-0.607,0.021-0.913-0.051c-0.57-0.121-1.243,0.322-1.812,0.98
		c-0.752-0.118-1.54,0.166-2.283,0.816c-2.191,1.891-4.238,5.948-6.128,8.848c-0.029,0-0.057,1.641-0.088,1.641h-0.615
		c-0.983,0-1.938-1.084-2.633,0.297c-0.035-0.023-0.064-1.028-0.092-1.05c-1.274-0.804-2.683-1.043-3.893,0.058
		c-0.641-0.419-1.345-0.735-2.072-0.363c-0.412,0.208-0.821,0.299-1.231,0.514c-0.124,0.059-0.244,0.185-0.363,0.374
		c-0.146-0.089-0.297-0.209-0.446-0.323c-0.723-0.573-1.769,2.362-2.516,3.02c-0.65,0.248-1.264,4.332-1.771,4.332h57.685h118.542
		h85.572C588.917,133.957,588.559,130.043,588.146,129.279z"/>
</g>
<g>
	<g>
		<path fill="#E8E8E8" d="M1200.055,160.284c8.238-16.013,1.799-34.223-11.792-25.095c17.255-13.441,2.425-35.695-12.65-24.095
			c16.775-24.036-0.006-48.425-21.691-23.045c-32.161,37.635-14.165,105.947,5.686,103.315
			C1171.841,189.741,1193.677,172.675,1200.055,160.284z"/>
		<path fill="#F5F5F5" d="M1219.595,183.893c15.4-9.341,19.433-28.23,3.072-27.555c21.735-2.436,20.731-29.153,1.813-27.157
			c26.865-11.717,25.319-41.275-6.438-30.988c-47.095,15.264-67.476,82.901-49.182,91.038
			C1180.145,194.247,1207.68,191.119,1219.595,183.893z"/>
		<g>
			<path fill="#3D392F" d="M1156.239,241.272c0,0,2.249,5.765,0.748,11.376c-0.193,0.703-0.942,4.435,0.703,8.03
				c1.764,3.769,7.077,2.128,9.021-2.983c2.551-6.831-2.882-20.423-2.882-20.423L1156.239,241.272z"/>
			<path fill="#3D392F" d="M1111.369,252.472c0,0-0.123,2.542,2.175,6.696c2.334,4.14,5.256,4.428,8.728,7.156
				c3.475,2.723,3.729,10.396-2.541,9.529c-6.271-0.889-9.754-6.119-12.599-10.39c-2.487-3.74-6.805-13.885-6.805-13.885
				L1111.369,252.472z"/>
		</g>
		<path fill="#71C1E8" d="M1175.797,206.136c3.344,34.907-24.855,51.616-58.499,51.376c-31.39-0.222-41.61-19.276-45.474-42.748
			c-3.866-23.475,2.966-62.716,4.376-66.534c1.413-3.818,2.791-31.768,42.234-34.035c39.453-2.263,49.069,37.411,49.069,37.411
			S1172.447,171.216,1175.797,206.136z"/>
		<path fill="#533E29" d="M1201.343,244.595l31.148,9.979l16.472-44.037l-30.289-12.165l-5.734,15.3l-4.641-2.459l-6.682,15.622
			l5.602,2.101L1201.343,244.595z M1212.167,215.726l-4.147,11.062l-2.818-0.981l4.238-10.959L1212.167,215.726z"/>
		<path fill="#231F20" d="M1087.311,152.306c-1.166,0.313-1.586,2.553-0.936,5.017c0.649,2.461,2.126,4.206,3.295,3.892
			c1.167-0.313,1.588-2.562,0.936-5.023C1089.952,153.736,1088.479,151.993,1087.311,152.306z"/>
		<path fill="#231F20" d="M1117.327,145.455c-1.17,0.312-1.588,2.555-0.935,5.018c0.647,2.465,2.127,4.207,3.291,3.897
			c1.177-0.312,1.593-2.562,0.939-5.026C1119.971,146.883,1118.492,145.141,1117.327,145.455z"/>
		<path fill="#D93637" d="M1110.156,181.604c15.385-4.634,9.855-16.853,9.855-16.853c-10.834,0.669-26.554,7.202-26.554,7.202
			S1094.928,186.192,1110.156,181.604z"/>
		<g>
			<path fill="#3D392F" d="M1193.823,209.674c0,0-0.442,2.148,3.524,9.155c3.965,7.007,10.332,4.637,12.291,0.738
				c1.957-3.894-2.931-7.364-2.931-7.364c2.118,1.358,6.455,1.201,5.158-1.842c-1.294-3.042-12.595-4.143-12.595-4.143
				L1193.823,209.674z"/>
			<path fill="#E6E7E8" d="M1192.505,208.306c0,0,0.121,2.371,1.616,2.636c2.654,0.473,5.67-2.116,6.353-4.171
				c0.685-2.056-2.329-2.921-2.329-2.921L1192.505,208.306z"/>
			<path fill="#71C1E8" d="M1169.518,192.723c7.911,2.882,23.438,15.961,23.438,15.961l0.39-0.051
				c2.402-0.314,4.364-2.072,4.947-4.417l0,0c-9.295-22.914-26.705-28.09-26.705-28.09
				C1165.895,175.58,1161.607,189.841,1169.518,192.723z"/>
		</g>
		<g>
			<path fill="#3D392F" d="M1055.178,163.945c0,0,0.443-2.145-3.522-9.16c-3.965-7.001-10.333-4.631-12.294-0.736
				c-1.953,3.887,2.928,7.366,2.928,7.366c-2.116-1.362-6.451-1.207-5.154,1.836c1.294,3.04,12.594,4.141,12.594,4.141
				L1055.178,163.945z"/>
			<path fill="#E6E7E8" d="M1056.496,165.316c0,0-0.125-2.376-1.616-2.637c-2.654-0.471-5.672,2.109-6.356,4.165
				c-0.681,2.055,2.334,2.927,2.334,2.927L1056.496,165.316z"/>
			<path fill="#71C1E8" d="M1079.48,180.9c-7.908-2.891-23.437-15.963-23.437-15.963l-0.392,0.051
				c-2.4,0.313-4.365,2.063-4.947,4.415l0,0c9.295,22.913,26.705,28.086,26.705,28.086
				C1083.107,198.042,1087.395,183.781,1079.48,180.9z"/>
		</g>
	</g>
	<path fill="#533E29" d="M1123.158,194.946l1.969,3.537l-6.352,6.352c0,0-8.372,13.979,23.725,25.666l3.547,11.898l-15.788,2.969
		c-33.474-21.439-18.383-41.276-18.383-41.276l-0.702-4.024l1.882-2.817L1123.158,194.946z"/>
</g>
<g>
	<path fill="#272A2B" d="M939.404,333.33H340.593c-6.748,0-12.219,4.921-12.219,10.992v327.037c0,6.067,5.471,10.989,12.219,10.989
		h598.815c6.745,0,12.218-4.92,12.218-10.989V344.322C951.624,338.251,946.152,333.33,939.404,333.33z M519.035,381.699
		c-5.301,0-9.597-4.297-9.597-9.594c0-5.302,4.296-9.597,9.597-9.597c5.3,0,9.596,4.295,9.596,9.597
		C528.631,377.402,524.335,381.699,519.035,381.699z M790.752,380.611c-5.3,0-9.596-4.295-9.596-9.595
		c0-5.299,4.296-9.596,9.596-9.596s9.596,4.297,9.596,9.596C800.348,376.316,796.052,380.611,790.752,380.611z"/>
	<g>
		<g>
			<g>
				<path fill="#FFFFFF" d="M540.693,258.058c31.461,0,56.963,26.28,56.963,57.739c0,4.346-0.488,36.143-1.411,38.516h-7.557
					c1.06-2.373,1.625-34.146,1.625-38.516c0-27.405-22.215-50.009-49.621-50.009c-27.404,0-49.618,22.882-49.618,50.286
					c0,4.369,0.567,9.749,1.625,13.311h-7.557c-0.922-3.562-1.412-9.158-1.412-13.504
					C483.732,284.424,509.237,258.058,540.693,258.058z"/>
				<path fill="#FFFFFF" d="M540.693,265.399c27.406,0,49.621,22.399,49.621,49.805c0,4.371-0.567,35.548-1.625,37.922h-7.066
					c1.23-2.374,1.896-33.521,1.896-37.922c0-23.651-19.171-42.915-42.824-42.915c-23.648,0-42.816,19.396-42.816,43.046
					c0,4.4,0.662,9.304,1.895,12.865h-7.069c-1.058-3.562-1.625-8.54-1.625-12.91C491.074,287.883,513.289,265.399,540.693,265.399z
					"/>
				<g>
					<path fill="#FFFFFF" d="M540.693,272.197c23.652,0,42.823,19.355,42.823,43.006c0,4.4-0.666,35.548-1.896,37.922h-8.056
						c1.509-2.374,2.338-33.466,2.338-37.922c0-19.446-15.763-35.302-35.209-35.302c-19.443,0-35.208,15.986-35.208,35.433
						c0,4.458,0.829,9.304,2.341,12.864h-8.056c-1.232-3.562-1.896-8.507-1.896-12.91
						C497.875,291.637,517.045,272.197,540.693,272.197z"/>
					<path fill="#FFFFFF" d="M540.693,272.197c23.652,0,42.823,19.355,42.823,43.006c0,4.4-0.666,35.548-1.896,37.922h-8.056
						c1.509-2.374,2.338-33.466,2.338-37.922c0-19.446-15.763-35.302-35.209-35.302c-19.443,0-35.208,15.986-35.208,35.433
						c0,4.458,0.829,9.304,2.341,12.864h-8.056c-1.232-3.562-1.896-8.507-1.896-12.91
						C497.875,291.637,517.045,272.197,540.693,272.197z"/>
				</g>
				<path fill="#FFFFFF" d="M540.693,279.811c19.447,0,35.209,15.946,35.209,35.392c0,4.456-0.828,35.548-2.338,37.922h-8.335
					c1.956-2.374,3.062-33.366,3.062-37.922c0-15.24-12.356-27.691-27.599-27.691c-15.238,0-27.596,12.582-27.596,27.822
					c0,4.557,1.107,9.304,3.062,12.864h-8.334c-1.51-3.562-2.34-8.452-2.34-12.91C505.486,295.842,521.25,279.811,540.693,279.811z"
					/>
				<path fill="#FFFFFF" d="M540.693,287.423c15.242,0,27.599,12.539,27.599,27.779c0,4.556-1.105,35.548-3.062,37.922h-8.369
					c2.73-2.374,4.362-33.152,4.362-37.922c0-11.338-9.191-20.62-20.529-20.62c-11.336,0-20.525,9.414-20.525,20.75
					c0,4.771,1.632,9.304,4.361,12.864h-8.369c-1.955-3.562-3.062-8.354-3.062-12.91
					C513.098,300.048,525.455,287.423,540.693,287.423z"/>
			</g>
			<g>
				<path fill="#F9F9F7" d="M540.693,258.058c31.461,0,56.963,26.28,56.963,57.739c0,4.346-0.488,36.143-1.411,38.516h-7.557
					c1.06-2.373,1.625-34.146,1.625-38.516c0-27.405-22.215-50.009-49.621-50.009c-27.404,0-49.618,22.882-49.618,50.286
					c0,4.369,0.567,9.749,1.625,13.311h-7.557c-0.922-3.562-1.412-9.158-1.412-13.504
					C483.732,284.424,509.237,258.058,540.693,258.058z"/>
				<path fill="#FFE400" d="M540.693,265.399c27.406,0,49.621,22.399,49.621,49.805c0,4.371-0.567,35.548-1.625,37.922h-7.066
					c1.23-2.374,1.896-33.521,1.896-37.922c0-23.651-19.171-42.915-42.824-42.915c-23.648,0-42.816,19.396-42.816,43.046
					c0,4.4,0.662,9.304,1.895,12.865h-7.069c-1.058-3.562-1.625-8.54-1.625-12.91C491.074,287.883,513.289,265.399,540.693,265.399z
					"/>
				<g>
					<path fill="#71C1E8" d="M540.693,272.197c23.652,0,42.823,19.355,42.823,43.006c0,4.4-0.666,35.548-1.896,37.922h-8.056
						c1.509-2.374,2.338-33.466,2.338-37.922c0-19.446-15.763-35.302-35.209-35.302c-19.443,0-35.208,15.986-35.208,35.433
						c0,4.458,0.829,9.304,2.341,12.864h-8.056c-1.232-3.562-1.896-8.507-1.896-12.91
						C497.875,291.637,517.045,272.197,540.693,272.197z"/>
				</g>
				<path fill="#FFFFFF" d="M540.693,279.811c19.447,0,35.209,15.946,35.209,35.392c0,4.456-0.828,35.548-2.338,37.922h-8.335
					c1.956-2.374,3.062-33.366,3.062-37.922c0-15.24-12.356-27.691-27.599-27.691c-15.238,0-27.596,12.582-27.596,27.822
					c0,4.557,1.107,9.304,3.062,12.864h-8.334c-1.51-3.562-2.34-8.452-2.34-12.91C505.486,295.842,521.25,279.811,540.693,279.811z"
					/>
				<path fill="#FF8EBD" d="M540.693,287.423c15.242,0,27.599,12.539,27.599,27.779c0,4.556-1.105,35.548-3.062,37.922h-8.369
					c2.73-2.374,4.362-33.152,4.362-37.922c0-11.338-9.191-20.62-20.529-20.62c-11.336,0-20.525,9.414-20.525,20.75
					c0,4.771,1.632,9.304,4.361,12.864h-8.369c-1.955-3.562-3.062-8.354-3.062-12.91
					C513.098,300.048,525.455,287.423,540.693,287.423z"/>
			</g>
		</g>
		<g>
			<path fill="#F9F9F7" d="M549.413,346.318c-1.112-18.713,16.082-13.457,17.233-13.134c0.819-6.69,3.317-13.295,13.526-12.014
				c13.485,1.691,13.439,16.196,13.087,17.396c0.855-0.175,17.458,1.009,16.271,14.861c-0.634,7.407-6.2,15.129-13.632,15.129
				c-7.43,0-41.94,0-45.913,0c-4.753,0-8.513-4.055-8.72-10.213C540.977,349.593,549.45,346.933,549.413,346.318z"/>
			<ellipse fill="#FF91AD" cx="586.504" cy="355.154" rx="5.546" ry="3.563"/>
			<ellipse fill="#FF91AD" cx="567.488" cy="355.154" rx="5.547" ry="3.563"/>
			<path fill="none" stroke="#684C40" stroke-width="1.2533" stroke-linecap="round" stroke-miterlimit="10" d="M582.641,346.845
				c0,2.745,2.227,4.972,4.97,4.972c2.744,0,4.969-2.226,4.969-4.972"/>
			<path fill="none" stroke="#684C40" stroke-width="1.2533" stroke-linecap="round" stroke-miterlimit="10" d="M561.318,346.845
				c0,2.745,2.226,4.972,4.971,4.972c2.744,0,4.968-2.226,4.968-4.972"/>
		</g>
		<g>
			<g>
				<g>
					<path fill="#F9F9F7" d="M414.432,338.887c0,0-7.685,6.405-16.972,10.248c-9.289,3.843-18.575,3.203-17.295,8.969
						c1.278,5.764,6.404,9.928,6.404,9.928l34.909-16.655L414.432,338.887z"/>
					<path fill="#F9F9F7" d="M507.629,344.333c0,0,9.287,8.966,22.417,10.246c13.13,1.282,6.087,8.969,3.842,13.452
						c-2.241,4.483-36.187-12.489-36.187-12.489L507.629,344.333z"/>
					<path fill="#F9F9F7" d="M390.734,362.105c12.008-2.882,25.62-17.136,25.62-17.136s-5.452-16.771-6.73-55.815
						c0.188,0.057,0.371,0.122,0.56,0.174c4.076,1.623,20.677,6.036,24.714,6.444c0.402,5.911,2.116,14.329,8.2,19.256
						c0,0,37.265-16.375,55.246-1.924c13.855,11.137,8.562,36.015,4.325,38.432c0,0,1.938,4.049,7.205,7.848
						c5.371,3.875,14.121,7.515,19.215,8.485c10.089,1.924,1.257,11.305-2.883,14.893c-4.802,4.164-31.226-4.803-40.831-20.178
						l-14.414-4.8c0,0-17.454,8.326-36.028,0.479c0,0-8.647,8.648-26.422,15.852c-17.772,7.205-22.097,6.246-24.5,0.963
						C381.606,369.793,378.725,364.988,390.734,362.105z"/>
				</g>
				<g>
					<g>
						<path fill="#F9F9F7" d="M375.841,282.18c3.911-1.915,8.111-3.209,12.055-5.069c4.356-2.05,24.583-14.396,24.611-14.689
							c-0.382-2.06-1.459-8.155-1.441-8.735c0.117-3.54,3.524-4.593,5.891-3.198c1.411,0.562,2.352,2.123,2.541,3.595
							c0.916,1.666,4.864,8.878,5.863,10.838c1.665,3.269,6.478,37.012,4.138,39.039c-0.939,3.085-22.595,7.167-23.515,7.344
							c-2.874,0.547-5.208,2.169-8.139,2.057c-2.453,0.45-8.188-1.073-10.979-1.78C387.013,311.58,372.769,283.685,375.841,282.18z"
							/>
						<path fill="#FFFFFF" d="M379.051,310.841c0.028,0.028,0.058,0.048,0.086,0.075
							C379.197,310.977,379.124,310.94,379.051,310.841z"/>
					</g>
				</g>
				<path fill="#71C1E8" d="M376.627,308.76c-2.334-2.396-4.583-4.929-6.232-7.863c-3.208-5.711,4.644-18.222,5.046-18.251
					c10.936-0.768,13.041,17.002,13.423,25.642C389.141,314.546,378.753,310.943,376.627,308.76z"/>
				<g>
					<path fill="#71C1E8" stroke="#7CC9E8" stroke-width="1.187" stroke-miterlimit="10" d="M398.748,270.583
						c0,0,11.302-0.369,13.374-6.966l-19.377-25.462L398.748,270.583z"/>
					
						<path fill="none" stroke="#7CC9E8" stroke-width="1.1887" stroke-linecap="round" stroke-linejoin="round" stroke-miterlimit="10" d="
						M398.149,266.619c0,0-0.601-2.362,2.602-3.962c3.203-1.603,5.726-3.806,5.083-7.327"/>
					
						<path fill="none" stroke="#7CC9E8" stroke-width="1.1887" stroke-linecap="round" stroke-linejoin="round" stroke-miterlimit="10" d="
						M396.107,256.249c0,0,0.96-1.48,2.883-2.12c1.922-0.641,2.643-1.76,2.643-4.324"/>
				</g>
				<path fill="#71C1E8" d="M525.243,320.554c0,0,8.042-3.437,12.97,3.604c3.659,5.229,9.396,3.251,12.492,0.719
					c0,0,3.521,16.252-17.776,18.176L525.243,320.554z"/>
				<path fill="#FFE400" d="M514.433,312.627c0,0,7.207-1.441,11.531,6.486c4.323,7.925,6.757,20.51,13.45,22.577
					c0,0-16.092,4.803-21.139-2.401C513.232,332.083,514.433,312.627,514.433,312.627z"/>
				<path fill="#71C1E8" d="M445.719,304.954c0,0,11.73,10.343,3.768,21.05c-7.968,10.71-17.955,24.225-10.559,28.305
					c5.657,3.12,10.108,0.303,10.649-3.99c0,0,4.474,9.136-2.786,14.487c-7.264,5.354-33.042,4.207-22.706-33.365L445.719,304.954z"
					/>
				<path fill="#FFE400" d="M435.886,276.684c0,0,12.253,10.703,11.569,23.552c-1.026,19.139-19.363,27.54-25.186,40.276
					c-1.459-3.883-0.634-17.76,8.855-35.34c4.901-9.091,4.06-19.89,4.06-19.89L435.886,276.684z"/>
				<path fill="#FF8EBD" d="M424.681,261.257c0,0,11.207,6.187,13.381,18.866c3.16,18.476-12.258,29.371-14.867,44.829
					c-2.301-3.934-6.872-12.64-1.24-31.685c2.927-9.908,2.784-23.38,2.784-23.38L424.681,261.257z"/>
				<path fill="#FF8EBD" d="M497.859,313.105c0,0,3.124-7.688,11.29-5.042c8.166,2.643,7.986,12.438,10.811,20.896
					c2.969,8.884,6.482,13.693,6.482,13.693s-15.552,1.405-19.934-13.933C503.145,316.949,497.859,313.105,497.859,313.105z"/>
				<path fill="none" stroke="#684C40" stroke-width="1.1887" stroke-linecap="round" stroke-miterlimit="10" d="M402.638,284.694
					c-1.278,2.917,0.05,6.318,2.965,7.595c2.917,1.277,6.318-0.052,7.595-2.969"/>
				<circle fill="#684C40" cx="379.863" cy="298.03" r="1.52"/>
			</g>
			<path fill="#71C1E8" d="M494.695,319.889c-3.781-1.926-5.318,1.76-5.318,1.76s1.12-3.833-3.03-4.715
				c-4.151-0.882-6.908,6.247-0.035,13.377C496.138,329.09,498.477,321.814,494.695,319.889z"/>
			<path fill="#FFE400" d="M496.169,332.328c-2.859,0.672-2.026,3.306-2.026,3.306s-1.12-2.525-3.707-1.136
				c-2.589,1.389-0.859,6.39,5.96,7.086C501.045,336.545,499.028,331.654,496.169,332.328z"/>
			<path fill="#FF8EBD" d="M486.317,337.665c-1.979-0.884-2.669,1.036-2.669,1.036s0.473-1.984-1.669-2.328
				c-2.141-0.342-3.364,3.368,0.329,6.828C487.292,342.324,488.298,338.548,486.317,337.665z"/>
		</g>
	</g>
	<text transform="matrix(1 0 0 1 554.6382 511.123)" font-family="'MyriadPro-Regular'" font-size="45.1661">youtube</text>
	<g>
		<g>
			<g>
				<path fill="#FFFFFF" d="M773.268,256.871c-31.462,0-56.964,26.281-56.964,57.739c0,4.346,0.489,36.142,1.411,38.516h7.557
					c-1.059-2.374-1.626-34.146-1.626-38.516c0-27.404,22.216-50.008,49.622-50.008c27.404,0,49.618,22.881,49.618,50.286
					c0,4.369-0.569,9.749-1.625,13.311h7.556c0.922-3.562,1.41-9.157,1.41-13.503C830.228,283.237,804.724,256.871,773.268,256.871z
					"/>
				<path fill="#FFFFFF" d="M773.268,264.212c-27.407,0-49.622,22.399-49.622,49.804c0,4.372,0.569,35.55,1.626,37.924h7.068
					c-1.231-2.374-1.896-33.521-1.896-37.924c0-23.65,19.169-42.915,42.821-42.915c23.65,0,42.819,19.396,42.819,43.045
					c0,4.4-0.662,9.305-1.896,12.865h7.07c1.057-3.562,1.625-8.54,1.625-12.91C822.886,286.696,800.672,264.212,773.268,264.212z"/>
				<g>
					<path fill="#FFFFFF" d="M773.268,271.01c-23.652,0-42.823,19.354-42.823,43.005c0,4.401,0.665,35.549,1.896,37.923h8.055
						c-1.51-2.374-2.338-33.467-2.338-37.923c0-19.445,15.762-35.301,35.21-35.301c19.444,0,35.206,15.986,35.206,35.433
						c0,4.459-0.828,9.304-2.339,12.864h8.055c1.233-3.562,1.896-8.508,1.896-12.91C816.086,290.45,796.916,271.01,773.268,271.01z"
						/>
					<path fill="#FFFFFF" d="M773.268,271.01c-23.652,0-42.823,19.354-42.823,43.005c0,4.401,0.665,35.549,1.896,37.923h8.055
						c-1.51-2.374-2.338-33.467-2.338-37.923c0-19.445,15.762-35.301,35.21-35.301c19.444,0,35.206,15.986,35.206,35.433
						c0,4.459-0.828,9.304-2.339,12.864h8.055c1.233-3.562,1.896-8.508,1.896-12.91C816.086,290.45,796.916,271.01,773.268,271.01z"
						/>
				</g>
				<path fill="#FFFFFF" d="M773.268,278.624c-19.448,0-35.21,15.947-35.21,35.392c0,4.456,0.826,35.549,2.338,37.922h8.334
					c-1.954-2.373-3.061-33.365-3.061-37.922c0-15.24,12.354-27.69,27.599-27.69c15.238,0,27.596,12.582,27.596,27.821
					c0,4.558-1.105,9.305-3.062,12.865h8.334c1.51-3.562,2.339-8.453,2.339-12.91C808.475,294.656,792.712,278.624,773.268,278.624z
					"/>
				<path fill="#FFFFFF" d="M773.268,286.236c-15.244,0-27.599,12.539-27.599,27.779c0,4.557,1.105,35.548,3.061,37.922h8.37
					c-2.729-2.374-4.363-33.15-4.363-37.922c0-11.337,9.191-20.62,20.531-20.62c11.336,0,20.524,9.414,20.524,20.75
					c0,4.771-1.632,9.305-4.362,12.865h8.371c1.956-3.562,3.062-8.354,3.062-12.91C800.863,298.861,788.506,286.236,773.268,286.236
					z"/>
			</g>
			<g>
				<path fill="#F9F9F7" d="M773.268,256.871c-31.462,0-56.964,26.281-56.964,57.739c0,4.346,0.489,36.142,1.411,38.516h7.557
					c-1.059-2.374-1.626-34.146-1.626-38.516c0-27.404,22.216-50.008,49.622-50.008c27.404,0,49.618,22.881,49.618,50.286
					c0,4.369-0.569,9.749-1.625,13.311h7.556c0.922-3.562,1.41-9.157,1.41-13.503C830.228,283.237,804.724,256.871,773.268,256.871z
					"/>
				<path fill="#FFE400" d="M773.268,264.212c-27.407,0-49.622,22.399-49.622,49.804c0,4.372,0.569,35.55,1.626,37.924h7.068
					c-1.231-2.374-1.896-33.521-1.896-37.924c0-23.65,19.169-42.915,42.821-42.915c23.65,0,42.819,19.396,42.819,43.045
					c0,4.4-0.662,9.305-1.896,12.865h7.07c1.057-3.562,1.625-8.54,1.625-12.91C822.886,286.696,800.672,264.212,773.268,264.212z"/>
				<g>
					<path fill="#71C1E8" d="M773.268,271.01c-23.652,0-42.823,19.354-42.823,43.005c0,4.401,0.665,35.549,1.896,37.923h8.055
						c-1.51-2.374-2.338-33.467-2.338-37.923c0-19.445,15.762-35.301,35.21-35.301c19.444,0,35.206,15.986,35.206,35.433
						c0,4.459-0.828,9.304-2.339,12.864h8.055c1.233-3.562,1.896-8.508,1.896-12.91C816.086,290.45,796.916,271.01,773.268,271.01z"
						/>
				</g>
				<path fill="#FFFFFF" d="M773.268,278.624c-19.448,0-35.21,15.947-35.21,35.392c0,4.456,0.826,35.549,2.338,37.922h8.334
					c-1.954-2.373-3.061-33.365-3.061-37.922c0-15.24,12.354-27.69,27.599-27.69c15.238,0,27.596,12.582,27.596,27.821
					c0,4.558-1.105,9.305-3.062,12.865h8.334c1.51-3.562,2.339-8.453,2.339-12.91C808.475,294.656,792.712,278.624,773.268,278.624z
					"/>
				<path fill="#FF8EBD" d="M773.268,286.236c-15.244,0-27.599,12.539-27.599,27.779c0,4.557,1.105,35.548,3.061,37.922h8.37
					c-2.729-2.374-4.363-33.15-4.363-37.922c0-11.337,9.191-20.62,20.531-20.62c11.336,0,20.524,9.414,20.524,20.75
					c0,4.771-1.632,9.305-4.362,12.865h8.371c1.956-3.562,3.062-8.354,3.062-12.91C800.863,298.861,788.506,286.236,773.268,286.236
					z"/>
			</g>
		</g>
		<g>
			<path fill="#F9F9F7" d="M764.548,345.13c1.114-18.713-16.08-13.457-17.232-13.133c-0.82-6.69-3.317-13.295-13.527-12.014
				c-13.483,1.69-13.438,16.195-13.086,17.396c-0.856-0.174-17.458,1.008-16.271,14.862c0.633,7.406,6.2,15.128,13.631,15.128
				c7.433,0,41.941,0,45.913,0c4.753,0,8.514-4.055,8.72-10.212C772.984,348.407,764.511,345.747,764.548,345.13z"/>
			<ellipse fill="#FF91AD" cx="727.458" cy="353.967" rx="5.546" ry="3.563"/>
			<ellipse fill="#FF91AD" cx="746.473" cy="353.967" rx="5.545" ry="3.563"/>
			<path fill="none" stroke="#684C40" stroke-width="1.2533" stroke-linecap="round" stroke-miterlimit="10" d="M731.32,345.658
				c0,2.745-2.226,4.971-4.969,4.971c-2.744,0-4.968-2.225-4.968-4.971"/>
			<path fill="none" stroke="#684C40" stroke-width="1.2533" stroke-linecap="round" stroke-miterlimit="10" d="M752.643,345.658
				c0,2.745-2.226,4.971-4.969,4.971c-2.744,0-4.969-2.225-4.969-4.971"/>
		</g>
		<g>
			<g>
				<g>
					<path fill="#F9F9F7" d="M899.529,337.7c0,0,7.687,6.406,16.973,10.249c9.288,3.844,18.575,3.203,17.296,8.969
						c-1.28,5.764-6.405,9.926-6.405,9.926l-34.908-16.654L899.529,337.7z"/>
					<path fill="#F9F9F7" d="M806.333,343.146c0,0-9.289,8.967-22.418,10.245c-13.132,1.282-6.087,8.97-3.843,13.452
						c2.239,4.484,36.188-12.487,36.188-12.487L806.333,343.146z"/>
					<path fill="#F9F9F7" d="M923.227,360.92c-12.006-2.882-25.62-17.136-25.62-17.136s5.454-16.773,6.733-55.815
						c-0.188,0.057-0.371,0.121-0.561,0.174c-4.075,1.623-20.677,6.036-24.714,6.443c-0.403,5.911-2.114,14.329-8.2,19.256
						c0,0-37.267-16.375-55.244-1.923c-13.854,11.137-8.562,36.014-4.326,38.431c0,0-1.938,4.051-7.203,7.849
						c-5.371,3.877-14.121,7.516-19.216,8.484c-10.091,1.925-1.257,11.306,2.884,14.894c4.803,4.164,31.226-4.803,40.831-20.176
						l14.412-4.803c0,0,17.455,8.326,36.028,0.479c0,0,8.647,8.647,26.424,15.853c17.773,7.203,22.097,6.246,24.5,0.961
						C932.354,368.607,935.236,363.803,923.227,360.92z"/>
				</g>
				<g>
					<g>
						<path fill="#F9F9F7" d="M938.12,280.993c-3.911-1.915-8.11-3.208-12.057-5.069c-4.355-2.049-24.582-14.396-24.61-14.689
							c0.383-2.06,1.46-8.155,1.44-8.735c-0.116-3.54-3.524-4.593-5.891-3.198c-1.409,0.562-2.352,2.123-2.539,3.595
							c-0.916,1.666-4.866,8.878-5.866,10.839c-1.662,3.268-6.475,37.011-4.135,39.038c0.938,3.085,22.593,7.168,23.516,7.344
							c2.873,0.547,5.206,2.169,8.139,2.057c2.451,0.451,8.188-1.073,10.979-1.78C926.947,310.393,941.192,282.498,938.12,280.993z"
							/>
						<path fill="#FFFFFF" d="M934.908,309.655c-0.025,0.026-0.058,0.047-0.086,0.075
							C934.766,309.79,934.838,309.752,934.908,309.655z"/>
					</g>
				</g>
				<path fill="#71C1E8" d="M937.334,307.574c2.335-2.397,4.583-4.929,6.231-7.864c3.209-5.71-4.645-18.222-5.045-18.251
					c-10.936-0.767-13.041,17.003-13.425,25.643C924.82,313.359,935.208,309.756,937.334,307.574z"/>
				<g>
					<path fill="#71C1E8" stroke="#7CC9E8" stroke-width="1.187" stroke-miterlimit="10" d="M915.212,269.395
						c0,0-11.302-0.368-13.372-6.965l19.377-25.462L915.212,269.395z"/>
					
						<path fill="none" stroke="#7CC9E8" stroke-width="1.1887" stroke-linecap="round" stroke-linejoin="round" stroke-miterlimit="10" d="
						M915.811,265.432c0,0,0.603-2.362-2.601-3.962c-3.203-1.603-5.727-3.806-5.084-7.328"/>
					
						<path fill="none" stroke="#7CC9E8" stroke-width="1.1887" stroke-linecap="round" stroke-linejoin="round" stroke-miterlimit="10" d="
						M917.854,255.062c0,0-0.961-1.48-2.883-2.12c-1.921-0.641-2.643-1.76-2.643-4.324"/>
				</g>
				<path fill="#71C1E8" d="M788.719,319.368c0,0-8.044-3.438-12.971,3.603c-3.658,5.229-9.396,3.25-12.491,0.72
					c0,0-3.522,16.252,17.774,18.175L788.719,319.368z"/>
				<path fill="#FFE400" d="M799.529,311.441c0,0-7.207-1.442-11.531,6.484c-4.321,7.926-6.756,20.51-13.45,22.578
					c0,0,16.094,4.803,21.14-2.402C800.729,330.897,799.529,311.441,799.529,311.441z"/>
				<path fill="#71C1E8" d="M868.242,303.767c0,0-11.732,10.342-3.77,21.05c7.97,10.71,17.956,24.224,10.561,28.304
					c-5.657,3.121-10.108,0.302-10.65-3.99c0,0-4.475,9.135,2.786,14.487c7.264,5.354,33.043,4.207,22.706-33.365L868.242,303.767z"
					/>
				<path fill="#FFE400" d="M878.076,275.498c0,0-12.254,10.702-11.569,23.551c1.026,19.139,19.362,27.54,25.187,40.277
					c1.459-3.884,0.635-17.761-8.854-35.34c-4.902-9.092-4.06-19.89-4.06-19.89L878.076,275.498z"/>
				<path fill="#FF8EBD" d="M889.281,260.07c0,0-11.207,6.187-13.38,18.867c-3.159,18.475,12.255,29.37,14.866,44.828
					c2.303-3.932,6.873-12.639,1.24-31.685c-2.927-9.907-2.785-23.38-2.785-23.38L889.281,260.07z"/>
				<path fill="#FF8EBD" d="M816.1,311.918c0,0-3.124-7.687-11.289-5.043c-8.165,2.644-7.984,12.438-10.809,20.896
					c-2.969,8.884-6.483,13.692-6.483,13.692s15.552,1.406,19.935-13.933C810.816,315.762,816.1,311.918,816.1,311.918z"/>
				<path fill="none" stroke="#684C40" stroke-width="1.1887" stroke-linecap="round" stroke-miterlimit="10" d="M911.322,283.507
					c1.278,2.917-0.05,6.317-2.966,7.594c-2.915,1.277-6.315-0.051-7.594-2.969"/>
				<circle fill="#684C40" cx="934.097" cy="296.843" r="1.52"/>
			</g>
			<path fill="#71C1E8" d="M819.265,318.702c3.783-1.925,5.32,1.759,5.32,1.759s-1.119-3.832,3.028-4.713
				c4.152-0.883,6.909,6.246,0.036,13.377C817.824,327.904,815.484,320.627,819.265,318.702z"/>
			<path fill="#FFE400" d="M817.793,331.14c2.857,0.674,2.024,3.307,2.024,3.307s1.119-2.525,3.707-1.137
				c2.589,1.39,0.86,6.391-5.96,7.087C812.917,335.359,814.933,330.466,817.793,331.14z"/>
			<path fill="#FF8EBD" d="M827.644,336.477c1.979-0.883,2.671,1.036,2.671,1.036s-0.474-1.983,1.668-2.327
				c2.142-0.342,3.364,3.367-0.328,6.827C826.67,341.137,825.663,337.362,827.644,336.477z"/>
		</g>
	</g>
	<g>
		<g>
			<path fill="#F2F2F2" d="M564.361,276.701c-1.099-3.135-2.124-6.303-3.062-9.511c-2.948-10.074-5.383-20.296-8.178-30.407
				l-2.304,0.183c0,0-24.526,6.867-43.166,17.66l15.696,13.737l-1.961,26.489C521.387,294.852,542.09,284.768,564.361,276.701z"/>
			<polygon fill="#F9F9F7" points="545.914,270.816 564.359,276.701 556.216,256.589 			"/>
		</g>
		<g>
			<path fill="#F2F2F2" d="M750.17,276.701c1.096-3.135,2.123-6.303,3.061-9.511c2.947-10.074,5.384-20.296,8.182-30.407
				l2.302,0.183c0,0,24.526,6.867,43.166,17.66l-15.697,13.737l1.961,26.489C793.143,294.852,772.442,284.768,750.17,276.701z"/>
			<polygon fill="#F9F9F7" points="768.615,270.816 750.17,276.701 758.315,256.589 			"/>
		</g>
		<path fill="#F2F2F2" d="M653.265,204.878c-84.862,0-126.486,23.556-126.486,23.556l15.251,42.095c0,0,48.997-16.53,111.233-16.53
			c62.237,0,111.235,16.53,111.235,16.53l15.25-42.095C779.752,228.434,735.186,204.878,653.265,204.878z"/>
	</g>
	<g>
		<g>
			<path fill="#59565F" d="M553.044,275.958c-0.035,0.034-0.053,0.051-0.087,0.085c-0.208,0.206-0.425,0.335-0.652,0.384
				c-0.227,0.049-0.404,0.01-0.532-0.118c-0.006-0.006-0.008-0.009-0.014-0.015c-2.961-3.285-4.735-5.242-5.342-5.853
				c-0.97-0.975-1.711-1.559-2.227-1.752c-0.042-0.017-0.087-0.05-0.136-0.099c-0.226-0.226-0.224-0.567-0.009-1.019
				c0.711-1.499,2.206-3.397,4.545-5.523c1.04-0.945,2.093-1.523,3.136-1.742c1.044-0.218,1.883,0.058,2.523,0.808
				c0.135,0.158,0.614,0.78,1.44,1.864c0.827,1.084,1.576,2.016,2.245,2.797c0.678,0.791,1.327,1.498,1.944,2.121
				c0.005,0.006,0.007,0.009,0.012,0.016c0.126,0.148,0.162,0.355,0.105,0.624c-0.058,0.269-0.192,0.552-0.408,0.766
				c-0.011,0.01-0.041,0.04-0.085,0.087c-0.044,0.048-0.072,0.078-0.084,0.088c-0.207,0.18-0.415,0.29-0.627,0.329
				c-0.212,0.039-0.391-0.003-0.521-0.128c-0.646-0.624-1.321-1.351-2.03-2.153c-0.699-0.791-1.473-1.723-2.321-2.799
				c-0.849-1.076-1.328-1.677-1.438-1.802c-0.771-0.875-1.832-0.728-3.154,0.481c-1.362,1.244-3.182,3.149-3.131,3.43
				c0.031,0.168,1.118,0.896,1.88,1.685c0.616,0.64,2.465,2.646,5.276,5.97c0.125,0.147,0.158,0.375,0.105,0.67
				C553.406,275.455,553.266,275.719,553.044,275.958z"/>
			<path fill="#59565F" d="M558.19,259.752c-0.218,0.16-0.436,0.247-0.651,0.263c-0.217,0.016-0.377-0.04-0.483-0.169
				c-0.026-0.032-0.056-0.092-0.081-0.177c-0.297-1.02-0.204-2.2,0.253-3.464c0.458-1.263,1.2-2.333,2.215-3.194
				c0.116-0.088,0.175-0.131,0.29-0.219c0.922-0.698,1.819-1.006,2.682-0.931c0.859,0.076,1.581,0.523,2.166,1.335
				c0.13,0.18,0.22,0.325,0.271,0.421c1.477,2.718,3,4.988,4.28,6.752c0.191,0.263,0.287,0.396,0.478,0.659
				c0.114,0.158,0.133,0.372,0.057,0.643c-0.077,0.271-0.234,0.51-0.472,0.721c-0.062,0.045-0.091,0.068-0.151,0.113
				c-0.229,0.169-0.453,0.266-0.671,0.291c-0.219,0.025-0.383-0.033-0.491-0.177c-0.2-0.267-0.3-0.4-0.5-0.667
				c-1.35-1.8-2.929-4.076-4.446-6.771c-0.054-0.096-0.142-0.232-0.266-0.399c-0.415-0.557-0.835-0.851-1.26-0.879
				c-0.427-0.027-0.796,0.079-1.109,0.317c-0.033,0.025-0.048,0.038-0.081,0.062c-0.432,0.365-0.8,0.935-1.093,1.711
				c-0.293,0.776-0.341,1.533-0.146,2.267c0.056,0.205,0.017,0.439-0.116,0.706c-0.134,0.267-0.323,0.502-0.572,0.704
				C558.251,259.703,558.23,259.72,558.19,259.752z"/>
			<path fill="#59565F" d="M576.076,244.464c-0.149,0.337-0.412,0.632-0.8,0.865c-0.214,0.129-0.417,0.207-0.6,0.218
				c-0.057,0.003-0.146,0.014-0.26,0.035c-0.115,0.021-0.215,0.039-0.306,0.053c-0.09,0.015-0.173,0.026-0.242,0.038
				c-1.265,0.222-2.388,0.674-3.297,1.26c-0.994,0.641-1.582,1.274-1.768,1.881c-0.095,0.314-0.046,0.615,0.147,0.904
				c0.23,0.346,0.7,0.562,1.401,0.655c0.701,0.094,1.652,0.003,2.854-0.254c1.7-0.364,3.091-0.4,4.166-0.142
				c1.075,0.257,1.804,0.729,2.202,1.397c0.092,0.155,0.168,0.332,0.229,0.52c0.225,0.697,0.164,1.473-0.198,2.311
				c-0.361,0.839-0.969,1.523-1.828,2.068c-1.281,0.813-2.568,1.21-3.829,1.132c-0.199-0.012-0.348-0.091-0.44-0.229
				c-0.132-0.196-0.125-0.46,0.028-0.774c0.135-0.276,0.351-0.507,0.63-0.692c0.266-0.176,0.515-0.25,0.732-0.235
				c0.809,0.057,1.606-0.173,2.354-0.646c0.267-0.169,0.48-0.407,0.641-0.719s0.159-0.666,0.023-1.046
				c-0.047-0.132-0.09-0.237-0.134-0.309c-0.276-0.449-0.835-0.771-1.683-0.955c-0.847-0.184-1.999-0.113-3.437,0.206
				c-1.395,0.309-2.587,0.396-3.556,0.257c-0.968-0.139-1.647-0.481-2.034-1.041c-0.363-0.525-0.438-1.185-0.219-1.976
				c0.382-1.369,1.429-2.631,3.138-3.728c1.349-0.866,2.882-1.479,4.518-1.75c0.107-0.018,0.436-0.083,0.941-0.148
				c0.287-0.037,0.5,0.051,0.611,0.242C576.177,244.042,576.173,244.245,576.076,244.464z"/>
			<path fill="#59565F" d="M587.536,250.762c-0.188,0.216-0.383,0.369-0.546,0.458c-0.354,0.191-0.658,0.229-0.904,0.135
				c-0.833-0.318-1.687-1.149-2.474-2.539c-2.565-4.532-3.965-6.968-4.188-7.305c-0.004-0.007-0.007-0.011-0.011-0.019
				c-0.095-0.17-0.082-0.383,0.036-0.639c0.117-0.256,0.313-0.506,0.568-0.668c0.026-0.017,0.065-0.04,0.106-0.07
				c0.041-0.03,0.075-0.053,0.104-0.068c0.252-0.137,0.493-0.205,0.725-0.203c0.23,0.002,0.396,0.08,0.494,0.23
				c0.234,0.36,1.604,2.854,4.116,7.44c0.626,1.144,1.276,1.86,1.915,2.098c0.105,0.039,0.195,0.118,0.259,0.241
				C587.881,250.124,587.814,250.443,587.536,250.762z"/>
			<path fill="#59565F" d="M594.638,238.513c0.082,0.04,0.152,0.108,0.197,0.21c0.123,0.28,0.017,0.573-0.3,0.882
				c-0.502,0.489-0.827,1.136-0.972,1.918c-0.145,0.783-0.162,1.484-0.059,2.102c0.103,0.618,0.236,1.241,0.399,1.869
				c0.163,0.629,0.261,0.983,0.259,1.029c-0.014,0.509-0.407,1.019-0.812,1.212c-0.236,0.113-0.529,0.1-0.869-0.045
				c-0.281-0.12-0.876-0.668-1.79-1.62c-0.913-0.952-1.776-1.946-2.552-2.98c-0.276-0.37-0.49-0.709-0.639-1.007
				c-0.144-0.286-0.259-0.572-0.346-0.854c-0.409-1.333-0.242-2.667,0.524-3.993c0.769-1.325,1.925-2.367,3.453-3.096
				c0.092-0.041,0.138-0.062,0.23-0.103c1.697-0.757,3.329-0.91,4.854-0.471c1.523,0.439,2.584,1.458,3.207,3.019
				c0.149,0.375,0.254,0.739,0.326,1.081c0.16,0.765,0.31,1.646,0.425,2.625c0.115,0.98,0.196,1.758,0.238,2.333
				s0.052,0.893,0.046,0.939c-0.057,0.4-0.296,0.796-0.851,1.028c-0.042,0.018-0.062,0.026-0.104,0.044
				c-0.233,0.083-0.439,0.097-0.62,0.046c-0.181-0.051-0.302-0.145-0.362-0.286c-0.026-0.064-0.042-0.118-0.045-0.162
				c-0.126-2.165-0.363-4.109-0.761-5.695c-0.114-0.455-0.223-0.788-0.303-0.98c-0.532-1.283-1.36-2.081-2.496-2.376
				c-1.137-0.294-2.247-0.203-3.307,0.273c-0.056,0.024-0.081,0.037-0.137,0.062c-0.868,0.42-1.55,1.041-2.037,1.852
				c-0.486,0.811-0.555,1.759-0.265,2.804c0.067,0.242,0.157,0.494,0.277,0.744c0.084,0.176,0.258,0.463,0.521,0.86
				c0.388,0.584,1.875,2.314,1.875,2.314c0.063-0.032-0.024-3.888,1.325-5.155c0.16-0.15,0.335-0.266,0.513-0.344
				C594.088,238.411,594.41,238.4,594.638,238.513z"/>
			<path fill="#59565F" d="M607.385,241.8c-0.133,0.078-0.238,0.129-0.31,0.155c-0.505,0.181-0.869,0.134-1.077-0.142
				c-0.035-0.045-0.138-0.203-0.309-0.466c-0.17-0.263-0.392-0.658-0.67-1.185c-0.276-0.526-0.508-1.038-0.69-1.533
				c-0.13-0.352-0.202-0.624-0.224-0.806c-0.091-0.823,0.154-1.531,0.78-2.035c0.271-0.218,0.569-0.38,0.871-0.486
				c0.481-0.169,0.933-0.268,1.351-0.301c0.419-0.033,0.858,0.024,1.318,0.172c0.458,0.147,0.823,0.281,1.093,0.397
				c0.271,0.116,0.695,0.325,1.269,0.621c0.332,0.171,0.8,0.446,1.393,0.83c0.591,0.383,1.048,0.681,1.061,0.675
				c0.222-0.101,0.156-2.629-0.329-4.253c-0.479-1.597-1.155-2.719-2.047-3.355c-0.893-0.635-1.87-0.88-2.893-0.763
				c-0.332,0.038-0.642,0.1-0.924,0.192c-0.797,0.262-1.535,0.724-2.203,1.381c-0.667,0.658-1.131,1.435-1.411,2.291
				c-0.137,0.418-0.47,0.725-0.986,0.917c-0.076,0.028-0.196,0.06-0.356,0.089c-0.435,0.078-0.716-0.036-0.83-0.335
				c-0.039-0.104-0.041-0.223-0.003-0.355c0.333-1.179,1.023-2.288,2.059-3.305c1.036-1.016,2.233-1.749,3.576-2.188
				c0.602-0.196,1.168-0.314,1.688-0.366c1.539-0.155,2.893,0.177,4.015,1.015c1.121,0.838,1.924,2.162,2.432,3.952
				c0.401,1.417,0.523,2.806,0.383,4.161s-0.706,2.222-1.488,2.677c-0.039,0.023-0.113,0.057-0.215,0.088
				c-0.264,0.08-0.51,0.103-0.727,0.051c-0.223-0.053-0.525-0.194-0.896-0.398c-0.37-0.203-0.835-0.471-1.397-0.8
				c-0.562-0.328-1.075-0.6-1.521-0.817c-1.338-0.652-2.738-0.995-2.881-0.843c-0.07,0.075,0.023,0.565,0.148,0.919
				c0.162,0.458,0.371,0.935,0.626,1.427c0.255,0.492,0.469,0.869,0.644,1.132c0.104,0.158,0.156,0.238,0.261,0.396
				c0.005,0.013,0.014,0.028,0.028,0.045c0.014,0.017,0.023,0.032,0.027,0.045c0.061,0.17,0.027,0.362-0.092,0.573
				C607.805,241.479,607.625,241.66,607.385,241.8z"/>
			<path fill="#59565F" d="M603.495,226.581c-1.935,0.264-3.05,0.083-3.312-0.635c-0.062-0.169-0.094-0.307-0.095-0.409
				c-0.005-0.455,0.229-0.953,0.698-1.482c0.469-0.529,1.131-0.942,1.979-1.232c1.423-0.487,4.457,0.947,4.457,0.947
				c0.024-0.018-0.612-1.366-1.012-1.997c-0.005-0.016-0.008-0.024-0.014-0.04c-0.075-0.238,0.177-0.542,0.69-0.743
				c0.03-0.012,0.072-0.026,0.12-0.049c0.047-0.021,0.079-0.035,0.095-0.04c0.446-0.139,0.701-0.087,0.774,0.131
				c0.224,0.67,0.435,1.24,0.569,1.679c0.122,0.398,0.307,1.623,0.478,1.729c0.04,0.025,0.395-0.081,0.736-0.147
				c0.342-0.067,0.759-0.119,0.785-0.159c0.024-0.036-0.073-0.34-0.152-0.607c-0.139-0.466-0.479-1.285-1.027-2.456
				c-0.002-0.008-0.003-0.011-0.005-0.019c-0.032-0.107,0.017-0.236,0.142-0.39c0.125-0.153,0.3-0.292,0.499-0.364
				c0.03-0.011,0.074-0.024,0.121-0.046c0.048-0.021,0.081-0.035,0.098-0.04c0.413-0.12,0.672-0.075,0.764,0.127
				c0.103,0.227,0.264,0.741,0.49,1.529c0.307,1.068,0.52,1.837,0.638,2.309c0.005,0.016,0.007,0.024,0.011,0.041
				c0.092,0.32-0.136,0.559-0.682,0.718c-0.146,0.042-0.263,0.068-0.344,0.08c-0.614,0.092-1.519,0.289-2.661,0.544
				c-1.145,0.255-2.118,0.477-2.92,0.656C604.612,226.395,603.972,226.516,603.495,226.581z M607.131,224.826
				c0.029-0.142-2.82-1.256-4.215-0.777c-0.276,0.095-0.459,0.193-0.551,0.298c-0.09,0.105-0.141,0.249-0.149,0.429
				c-0.004,0.089-0.001,0.146,0.008,0.173c0.078,0.223,0.26,0.369,0.545,0.439c0.285,0.07,0.788,0.073,1.469-0.009
				C604.812,225.31,607.131,224.826,607.131,224.826z"/>
			<path fill="#59565F" d="M606.536,215.67c0.169-0.299,0.459-0.511,0.87-0.633c0.103-0.031,0.154-0.046,0.258-0.077
				c0.427-0.126,0.719-0.075,0.875,0.134c0.114,0.153,0.265,0.531,0.439,1.131c0.4,1.374,0.53,2.263,0.396,2.664
				c-0.098,0.288-0.286,0.473-0.569,0.557c-0.132,0.04-0.278,0.052-0.438,0.035c-0.159-0.018-0.289-0.04-0.39-0.067
				c-0.052-0.028-0.075-0.042-0.128-0.07c-0.031-0.048-0.241-0.577-0.622-1.586c-0.381-1.009-0.607-1.569-0.679-1.678
				C606.544,215.915,606.541,215.834,606.536,215.67z"/>
			<path fill="#59565F" d="M617.896,229.249c-0.502,0.023-0.803-0.108-0.885-0.417c-0.014-0.053-0.015-0.166,0.021-0.306
				c0.252-0.988,0.923-1.97,1.775-2.793c0.855-0.825,1.881-1.442,3.043-1.805c0.348-0.108,0.605-0.176,0.77-0.212
				c1.84-0.401,3.472-0.114,4.85,0.841c1.378,0.956,2.23,2.466,2.594,4.503c0.334,1.874,0.047,3.48-0.822,4.832
				c-0.868,1.352-2.121,2.29-3.755,2.804c-0.315,0.1-0.562,0.167-0.726,0.203c-1.42,0.317-2.698,0.237-3.863-0.252
				c-1.163-0.489-1.908-1.296-2.207-2.438c-0.186-0.712-0.101-1.388,0.273-1.963c0.202-0.31,0.466-0.571,0.76-0.771
				c0.402-0.273,0.839-0.465,1.302-0.576c0.68-0.163,1.411-0.166,2.159-0.052c0.312,0.047,0.506,0.187,0.562,0.431
				c0.036,0.163-0.021,0.33-0.135,0.498c-0.192,0.285-0.52,0.501-0.991,0.611c-0.2,0.046-0.375,0.058-0.525,0.036
				c-0.417-0.06-0.771-0.051-1.061,0.019c-0.027,0.007-0.041,0.009-0.068,0.016c-0.027,0.021-0.056,0.067-0.086,0.138
				c-0.031,0.072-0.05,0.191-0.061,0.349c-0.01,0.159,0.008,0.326,0.051,0.501c0.206,0.836,0.701,1.408,1.479,1.722
				c0.781,0.314,1.591,0.376,2.444,0.188c0.164-0.036,0.293-0.074,0.377-0.104c0.381-0.136,0.766-0.324,1.109-0.58
				c0.348-0.257,0.676-0.598,0.983-1.021c0.309-0.424,0.517-0.975,0.627-1.662c0.111-0.688,0.086-1.455-0.078-2.301
				c-0.183-0.941-0.475-1.748-0.885-2.417s-0.877-1.153-1.401-1.451c-0.523-0.298-1.047-0.488-1.556-0.572
				c-0.512-0.083-1.008-0.072-1.487,0.034c-0.047,0.01-0.103,0.026-0.167,0.047c-0.062,0.021-0.11,0.035-0.141,0.043
				c-1.345,0.368-2.407,1.474-2.886,2.968c-0.059,0.18-0.187,0.356-0.396,0.516s-0.447,0.274-0.711,0.342
				C618.059,229.229,617.96,229.246,617.896,229.249z"/>
			<path fill="#59565F" d="M634.626,234.537c-0.59-3.83-0.882-5.746-1.473-9.576c-0.131-0.852-0.333-1.421-0.602-1.657
				c-0.107-0.095-0.18-0.197-0.197-0.307c-0.041-0.26,0.103-0.498,0.41-0.717c0.192-0.136,0.446-0.237,0.756-0.283
				c0.342-0.05,0.614-0.013,0.814,0.113c0.493,0.309,0.823,1.083,0.996,2.321c0.185,1.321,0.399,2.801,0.645,4.443
				s0.448,3.041,0.448,3.041c0.046,0.01,0.829-1.241,1.225-1.698c1.174-1.355,3.027-2.328,3.257-2.709
				c0.365-0.608-0.196-3.501-0.135-5.454c0.006-0.191,0.132-0.383,0.354-0.559c0.221-0.176,0.476-0.285,0.769-0.327
				c0.029-0.003,0.046-0.004,0.075-0.007c0.278-0.026,0.517,0.01,0.714,0.111c0.199,0.101,0.308,0.235,0.322,0.401
				c0.002,0.017,0.002,0.024,0.003,0.041c-0.022,0.685-0.055,1.604-0.095,2.759c-0.04,1.155-0.057,1.99-0.056,2.506
				c0.113-0.011,0.17-0.015,0.283-0.025c0.867-0.079,1.594,0.06,2.175,0.412c0.581,0.352,0.979,0.783,1.192,1.282
				s0.34,1.062,0.383,1.686c0.022,0.333,0.007,0.664-0.045,0.985c-0.122,0.752-0.47,1.393-1.055,1.904
				c-0.583,0.511-1.278,0.802-2.09,0.876c-0.45,0.041-0.831-0.004-1.147-0.133c-0.318-0.129-0.566-0.35-0.745-0.666
				c-0.18-0.317-0.314-0.662-0.409-1.037c-0.094-0.374-0.167-0.844-0.228-1.41c-0.077-0.718-0.148-1.735-0.164-1.743
				c-0.104-0.056-1.26,0.858-1.81,1.482c-0.799,0.906-1.644,2.121-2.526,3.602c-0.246,0.412-0.562,0.646-0.935,0.701
				c-0.135,0.02-0.292,0.002-0.478-0.054c-0.185-0.056-0.338-0.118-0.454-0.185C634.734,234.608,634.697,234.584,634.626,234.537z
				 M642.995,230.46c0.064,0.692,0.171,1.233,0.314,1.625c0.145,0.392,0.259,0.619,0.35,0.68c0.09,0.062,0.175,0.089,0.249,0.082
				c0.092-0.008,0.193-0.04,0.312-0.092c0.118-0.052,0.256-0.192,0.413-0.422c0.155-0.229,0.265-0.523,0.308-0.872
				c0.029-0.235,0.025-0.497,0.003-0.774c-0.132-1.62-0.722-2.39-1.767-2.294c-0.112,0.01-0.169,0.016-0.281,0.026
				C642.901,229.13,642.934,229.81,642.995,230.46z"/>
			<path fill="#59565F" d="M659.58,233.101c-0.063-0.001-0.098-0.001-0.16-0.002c-0.258-0.004-0.468-0.062-0.633-0.175
				c-0.165-0.113-0.249-0.252-0.248-0.419c0.007-0.792,0.035-1.799,0.084-3.02c0.049-1.221,0.076-2.055,0.08-2.5
				c0.008-0.861-0.013-1.623-0.062-2.283c-0.05-0.66-0.117-1.184-0.203-1.573c-0.086-0.389-0.193-0.707-0.322-0.95
				c-0.13-0.243-0.25-0.411-0.364-0.502c-0.114-0.09-0.234-0.136-0.365-0.136c-0.864,0-1.87,1.328-2.937,3.983
				c-0.41,1.021-0.786,2.068-1.124,3.14c-0.339,1.072-0.612,2.004-0.824,2.796s-0.329,1.435-0.415,1.525
				c-0.245,0.257-1.123,0.334-1.531,0.353c-0.347,0.016-0.523-0.066-0.533-0.246c-0.062-1.262-0.216-2.948-0.471-5.055
				s-0.516-3.726-0.742-4.833c-0.229-1.118-0.386-1.743-0.439-1.833c-0.042-0.07-0.061-0.143-0.062-0.184
				c-0.019-0.333,0.25-0.604,0.798-0.794c0.146-0.05,0.3-0.077,0.466-0.085c0.51-0.024,0.841,0.102,0.979,0.372
				c0.089,0.174,0.238,0.891,0.475,2.088c0.096,0.479,0.64,4.854,0.64,4.854c0.003,0,0.137-0.415,0.285-0.907
				c0.149-0.492,0.268-0.862,0.357-1.095c0.027-0.069,0.12-0.319,0.274-0.739c0.153-0.421,0.269-0.702,0.337-0.843
				c0.067-0.141,0.188-0.402,0.364-0.781c0.178-0.379,0.329-0.653,0.455-0.823c0.126-0.169,0.301-0.406,0.522-0.708
				c0.222-0.301,0.44-0.525,0.66-0.667c0.219-0.142,0.475-0.299,0.769-0.469c0.294-0.169,0.608-0.289,0.945-0.36
				c0.335-0.071,0.703-0.105,1.097-0.104c0.527,0.001,0.981,0.068,1.366,0.197c0.385,0.129,0.694,0.349,0.927,0.658
				c0.231,0.308,0.414,0.616,0.546,0.917c0.132,0.3,0.221,0.741,0.265,1.318c0.044,0.578,0.067,1.071,0.073,1.48
				c0.007,0.409,0.002,1.005-0.016,1.783c-0.003,0.133-0.006,0.198-0.009,0.332c-0.011,0.458-0.051,1.298-0.118,2.519
				c-0.067,1.221-0.107,2.22-0.125,2.998c-0.004,0.181-0.111,0.35-0.319,0.504C660.111,232.988,659.867,233.077,659.58,233.101z"/>
			<path fill="#59565F" d="M658.942,217.155c0.019-0.005-0.132-1.634-0.323-3.066c0-0.017-0.001-0.024-0.001-0.041
				c0.001-0.139,0.104-0.278,0.311-0.415c0.206-0.136,0.452-0.231,0.697-0.241c0.032-0.001,0.065-0.004,0.101-0.011
				c0.036-0.006,0.069-0.008,0.104-0.008c0.241,0.003,0.454,0.054,0.641,0.147c0.188,0.094,0.277,0.21,0.274,0.349
				c-0.006,0.292-0.035,0.934-0.089,1.926c-0.055,0.992-0.087,1.683-0.096,2.071c-0.009,0.458-0.335,0.681-0.983,0.671
				c-0.131-0.002-0.243-0.014-0.322-0.025c-3.076-0.455-5.333-0.596-6.402-0.808c-1.874-0.37-2.85-0.941-2.885-1.731
				c-0.002-0.056,0.021-0.145,0.043-0.254c0.095-0.453,0.438-0.908,1.078-1.293c0.643-0.385,1.448-0.591,2.404-0.613
				C655.766,213.763,658.942,217.155,658.942,217.155z M653.213,215.028c-0.729,0.018-1.139,0.227-1.228,0.618
				c0.001,0.033,0.003,0.05,0.003,0.083c0.01,0.264,0.129,0.474,0.36,0.626c0.232,0.152,0.695,0.293,1.384,0.432
				c1.229,0.249,4.203,0.693,4.203,0.693C658.021,217.339,655.131,214.982,653.213,215.028z"/>
			<path fill="#59565F" d="M658.396,208.129c0.25-0.235,0.59-0.351,1.014-0.346c0.105,0.001,0.157,0.002,0.265,0.003
				c0.443,0.006,0.707,0.145,0.793,0.389c0.063,0.179,0.092,0.585,0.08,1.21c-0.027,1.43-0.167,2.316-0.413,2.659
				c-0.177,0.246-0.412,0.369-0.705,0.365c-0.136-0.001-0.273-0.033-0.421-0.097c-0.146-0.064-0.265-0.125-0.353-0.181
				c-0.039-0.042-0.061-0.063-0.101-0.105c-0.017-0.055-0.058-0.622-0.12-1.698c-0.062-1.075-0.108-1.68-0.146-1.805
				C658.334,208.365,658.353,208.287,658.396,208.129z"/>
			<path fill="#59565F" d="M676.072,221.632c0.261,0.044,0.474,0.137,0.638,0.275c0.164,0.139,0.237,0.285,0.219,0.436
				c-0.007,0.055-0.025,0.098-0.039,0.122c-0.917,1.55-1.596,3.908-2.292,6.088c-0.296,0.927-0.463,1.45-0.503,1.556
				c-0.471,1.256-0.808,2.136-1.065,2.527c-0.617,0.94-1.494,1.353-2.639,1.252c-0.241-0.021-0.46-0.071-0.658-0.15
				c-0.197-0.079-0.363-0.167-0.502-0.262c-0.138-0.095-0.263-0.24-0.376-0.437c-0.112-0.197-0.202-0.36-0.261-0.49
				c-0.059-0.13-0.12-0.33-0.185-0.6c-0.064-0.269-0.106-0.475-0.127-0.614c-0.021-0.14-0.058-0.374-0.104-0.697
				c-0.046-0.323-0.082-0.548-0.103-0.674c-0.257-1.588-0.429-3.52-0.561-5.739c-0.062-1.033-0.468-2.076-0.598-2.083
				c-0.07-0.004-0.354,0.334-0.557,0.573c-0.201,0.239-0.354,0.438-0.461,0.6c-0.062,0.105-0.096,0.158-0.158,0.263
				c-0.213,0.364-0.631,0.529-1.258,0.501c-0.077-0.003-0.114-0.004-0.191-0.008c-0.226-0.023-0.403-0.093-0.534-0.209
				c-0.131-0.116-0.195-0.251-0.189-0.405c0.004-0.097,0.036-0.177,0.06-0.227c0.023-0.054,0.054-0.167,0.106-0.288
				c0.055-0.122,0.182-0.339,0.382-0.65c0.201-0.311,0.422-0.583,0.67-0.815c0.248-0.231,0.588-0.438,1.016-0.617
				c0.428-0.179,0.896-0.254,1.406-0.223c0.459,0.028,0.849,0.127,1.167,0.295c0.315,0.167,0.562,0.355,0.733,0.562
				c0.172,0.206,0.309,0.484,0.403,0.825c0.097,0.341,0.154,0.628,0.178,0.859c0.024,0.231,0.044,0.54,0.062,0.916
				c0.108,2.174,0.271,4.058,0.491,5.621c0.186,1.322,0.598,2.624,0.626,2.626c0.099,0.008,0.887-1.786,1.565-3.974
				c0.7-2.253,1.398-4.421,2.213-6.203c0.077-0.169,0.26-0.314,0.527-0.423c0.27-0.11,0.553-0.15,0.847-0.116
				C676.044,221.628,676.053,221.629,676.072,221.632z"/>
			<path fill="#59565F" d="M679.745,225.871c-0.47-0.17-0.696-0.408-0.652-0.725c0.008-0.055,0.051-0.161,0.136-0.275
				c0.602-0.814,1.606-1.463,2.711-1.897c1.104-0.434,2.28-0.611,3.494-0.5c0.358,0.033,0.625,0.069,0.787,0.099
				c1.854,0.335,3.246,1.227,4.15,2.638c0.903,1.411,1.109,3.132,0.66,5.152c-0.414,1.857-1.296,3.228-2.619,4.142
				c-1.324,0.914-2.847,1.303-4.547,1.151c-0.331-0.03-0.58-0.062-0.744-0.091c-1.434-0.252-2.579-0.816-3.461-1.714
				c-0.885-0.898-1.255-1.927-1.09-3.096c0.104-0.729,0.438-1.321,1.002-1.708c0.306-0.209,0.648-0.35,0.993-0.422
				c0.476-0.099,0.953-0.106,1.421-0.031c0.688,0.11,1.368,0.388,2.014,0.78c0.269,0.163,0.392,0.365,0.348,0.611
				c-0.029,0.164-0.145,0.299-0.313,0.41c-0.288,0.188-0.674,0.263-1.152,0.183c-0.199-0.034-0.365-0.089-0.495-0.166
				c-0.36-0.215-0.689-0.345-0.982-0.392c-0.028-0.004-0.044-0.005-0.071-0.01c-0.032,0.009-0.076,0.038-0.132,0.093
				c-0.057,0.055-0.121,0.155-0.19,0.299s-0.116,0.304-0.145,0.483c-0.134,0.851,0.104,1.566,0.701,2.155
				c0.597,0.588,1.318,0.96,2.177,1.113c0.167,0.03,0.298,0.042,0.389,0.047c0.404,0.021,0.829-0.003,1.249-0.107
				c0.417-0.104,0.851-0.294,1.296-0.567c0.448-0.273,0.854-0.704,1.221-1.294c0.367-0.59,0.642-1.307,0.815-2.151
				c0.194-0.938,0.235-1.796,0.114-2.572c-0.121-0.775-0.366-1.403-0.735-1.879s-0.774-0.85-1.215-1.123s-0.899-0.452-1.384-0.538
				c-0.048-0.008-0.105-0.016-0.17-0.021c-0.067-0.004-0.118-0.011-0.148-0.015c-1.381-0.176-2.794,0.44-3.799,1.635
				c-0.12,0.143-0.308,0.257-0.562,0.324c-0.252,0.067-0.516,0.082-0.785,0.042C679.899,225.914,679.805,225.893,679.745,225.871z"
				/>
			<path fill="#59565F" d="M697.467,227.365c-0.173-0.165-0.239-0.355-0.19-0.543c0.057-0.215,0.231-0.37,0.526-0.466
				c1.407-0.457,2.684-0.538,3.785-0.225c1.771,0.502,2.695,1.73,2.736,3.613c0.021,0.99-0.183,2.146-0.593,3.459
				c-0.409,1.313-0.966,2.443-1.647,3.395c-1.466,2.042-3.05,2.815-4.822,2.321c-0.468-0.13-0.883-0.354-1.246-0.675
				c-0.363-0.321-0.657-0.716-0.891-1.186c-0.233-0.47-0.419-0.909-0.556-1.316c-0.136-0.407-0.261-0.884-0.383-1.428
				c-0.111-0.5-0.292-1.739-0.567-3.72c-0.006-0.044-0.001-0.101,0.016-0.169c0.039-0.162,0.155-0.296,0.354-0.406
				c0.199-0.11,0.439-0.151,0.692-0.154c0.095-0.001,0.243,0.016,0.431,0.062c0.526,0.13,0.819,0.364,0.864,0.689
				c0.276,1.983,0.412,3.222,0.497,3.639c0.169,0.831,0.432,1.578,0.75,2.219c0.321,0.643,0.608,1.066,0.753,1.085
				c0.048,0.006,0.189-0.059,0.366-0.146c0.175-0.086,0.421-0.271,0.743-0.547c0.321-0.276,0.612-0.612,0.873-0.995
				c0.604-0.889,1.108-1.938,1.469-3.15c0.366-1.239,0.538-2.296,0.507-3.174c-0.021-0.615-0.147-1.095-0.372-1.441
				c-0.224-0.346-0.465-0.556-0.719-0.627c-0.362-0.102-0.94-0.019-1.715,0.218c-0.326,0.1-0.671,0.1-1.021,0.008
				C697.858,227.64,697.635,227.525,697.467,227.365z"/>
			<path fill="#59565F" d="M707.688,232.512c-0.434-0.254-0.618-0.528-0.518-0.832c0.018-0.052,0.078-0.148,0.183-0.246
				c0.742-0.69,1.856-1.145,3.03-1.368c1.172-0.223,2.375-0.18,3.56,0.154c0.352,0.099,0.606,0.185,0.763,0.244
				c1.777,0.673,3.002,1.811,3.646,3.369c0.646,1.558,0.54,3.292-0.271,5.196c-0.745,1.751-1.871,2.935-3.353,3.587
				c-1.479,0.652-3.058,0.751-4.719,0.286c-0.324-0.091-0.566-0.169-0.724-0.228c-1.377-0.514-2.41-1.281-3.123-2.327
				c-0.714-1.047-0.896-2.126-0.522-3.246c0.233-0.698,0.67-1.219,1.301-1.496c0.341-0.149,0.708-0.225,1.062-0.232
				c0.488-0.01,0.967,0.072,1.417,0.232c0.662,0.235,1.283,0.634,1.853,1.139c0.237,0.21,0.321,0.432,0.233,0.666
				c-0.059,0.156-0.193,0.267-0.382,0.345c-0.32,0.132-0.717,0.135-1.178-0.033c-0.192-0.07-0.347-0.155-0.46-0.255
				c-0.318-0.278-0.622-0.467-0.905-0.567c-0.027-0.009-0.041-0.014-0.068-0.023c-0.034,0.002-0.084,0.024-0.147,0.068
				c-0.064,0.044-0.146,0.129-0.24,0.258s-0.173,0.278-0.232,0.448c-0.285,0.813-0.182,1.561,0.306,2.251
				c0.484,0.689,1.137,1.187,1.961,1.496c0.161,0.061,0.286,0.1,0.377,0.121c0.396,0.096,0.822,0.149,1.259,0.125
				c0.434-0.025,0.897-0.131,1.39-0.316c0.493-0.186,0.977-0.536,1.447-1.048c0.472-0.512,0.872-1.166,1.197-1.963
				c0.361-0.888,0.556-1.726,0.575-2.512c0.019-0.786-0.11-1.449-0.393-1.986c-0.282-0.537-0.619-0.98-1.006-1.331
				c-0.387-0.351-0.81-0.613-1.275-0.788c-0.046-0.017-0.101-0.036-0.164-0.053c-0.064-0.017-0.114-0.032-0.145-0.041
				c-1.341-0.429-2.854-0.084-4.066,0.906c-0.145,0.118-0.35,0.197-0.613,0.216c-0.264,0.02-0.524-0.014-0.785-0.103
				C707.833,232.584,707.743,232.544,707.688,232.512z"/>
			<path fill="#59565F" d="M721.752,238.381c-0.232-0.12-0.404-0.271-0.51-0.455c-0.104-0.182-0.122-0.351-0.056-0.504
				c0.018-0.038,0.057-0.091,0.121-0.152c0.776-0.729,1.829-1.19,3.129-1.365c1.299-0.174,2.557-0.008,3.75,0.497
				c0.127,0.062,0.189,0.091,0.315,0.153c1.013,0.497,1.674,1.153,1.98,1.948c0.31,0.797,0.228,1.641-0.232,2.529
				c-0.104,0.197-0.19,0.341-0.253,0.432c-1.753,2.548-3.089,4.931-4.086,6.871c-0.148,0.289-0.225,0.435-0.372,0.724
				c-0.089,0.173-0.271,0.286-0.544,0.342c-0.271,0.056-0.55,0.026-0.838-0.087c-0.066-0.034-0.102-0.049-0.167-0.083
				c-0.248-0.125-0.432-0.279-0.55-0.462c-0.115-0.182-0.134-0.353-0.054-0.515c0.147-0.299,0.223-0.449,0.37-0.748
				c0.998-2.017,2.312-4.453,4.028-7.027c0.061-0.091,0.146-0.231,0.237-0.417c0.312-0.622,0.387-1.126,0.228-1.516
				c-0.159-0.39-0.417-0.67-0.76-0.837c-0.036-0.018-0.055-0.026-0.091-0.043c-0.507-0.216-1.166-0.28-1.971-0.184
				s-1.484,0.403-2.043,0.91c-0.156,0.142-0.38,0.217-0.668,0.223c-0.29,0.005-0.575-0.059-0.857-0.186
				C721.819,238.411,721.796,238.401,721.752,238.381z"/>
			<path fill="#59565F" d="M730.434,252.46c-0.04-0.023-0.062-0.034-0.104-0.057c-0.243-0.138-0.415-0.307-0.518-0.506
				c-0.103-0.201-0.109-0.379-0.021-0.537c0.004-0.007,0.008-0.011,0.012-0.019c2.336-3.756,3.729-6.002,4.148-6.754
				c0.671-1.201,1.022-2.082,1.084-2.615c0.005-0.043,0.026-0.097,0.061-0.158c0.155-0.279,0.477-0.376,0.949-0.305
				c1.574,0.238,3.718,1.103,6.32,2.715c1.157,0.717,1.979,1.553,2.459,2.484c0.478,0.932,0.438,1.812-0.105,2.635
				c-0.114,0.174-0.578,0.808-1.389,1.903c-0.812,1.096-1.497,2.074-2.062,2.933c-0.572,0.87-1.074,1.689-1.504,2.455
				c-0.005,0.007-0.008,0.011-0.013,0.018c-0.107,0.163-0.294,0.251-0.563,0.274c-0.27,0.022-0.574-0.025-0.832-0.169
				c-0.013-0.007-0.05-0.029-0.104-0.057c-0.059-0.029-0.091-0.047-0.104-0.056c-0.225-0.146-0.382-0.312-0.475-0.504
				c-0.091-0.19-0.099-0.369-0.014-0.527c0.422-0.792,0.934-1.645,1.508-2.548c0.565-0.891,1.246-1.895,2.044-3.009
				c0.797-1.114,1.244-1.741,1.334-1.882c0.628-0.984,0.21-1.95-1.268-2.86c-1.521-0.938-3.754-2.107-4.01-1.981
				c-0.156,0.077-0.562,1.318-1.112,2.268c-0.444,0.77-1.857,3.096-4.271,6.726c-0.106,0.16-0.31,0.258-0.6,0.292
				C730.995,252.655,730.711,252.601,730.434,252.46z"/>
			<path fill="#59565F" d="M747.062,252.725c-0.211-0.164-0.352-0.347-0.426-0.55c-0.074-0.203-0.062-0.373,0.032-0.51
				c0.022-0.034,0.07-0.079,0.146-0.126c0.889-0.572,2.039-0.816,3.369-0.731s2.561,0.5,3.666,1.238
				c0.116,0.086,0.173,0.128,0.288,0.215c0.924,0.692,1.473,1.476,1.641,2.326s-0.062,1.67-0.679,2.457
				c-0.137,0.175-0.251,0.302-0.329,0.379c-2.204,2.169-3.964,4.26-5.303,5.981c-0.199,0.256-0.298,0.385-0.497,0.641
				c-0.12,0.154-0.322,0.231-0.603,0.232c-0.282,0.001-0.558-0.085-0.825-0.256c-0.062-0.046-0.092-0.069-0.152-0.115
				c-0.227-0.173-0.383-0.363-0.467-0.566s-0.071-0.377,0.037-0.522c0.2-0.266,0.301-0.399,0.501-0.665
				c1.354-1.797,3.102-3.946,5.269-6.151c0.077-0.078,0.186-0.199,0.312-0.365c0.42-0.553,0.584-1.04,0.493-1.457
				c-0.092-0.417-0.296-0.743-0.61-0.979c-0.032-0.024-0.051-0.038-0.083-0.062c-0.47-0.315-1.117-0.508-1.939-0.573
				c-0.821-0.065-1.561,0.101-2.204,0.493c-0.18,0.109-0.418,0.138-0.709,0.085c-0.29-0.053-0.562-0.169-0.821-0.35
				C747.125,252.767,747.104,252.753,747.062,252.725z"/>
			<path fill="#59565F" d="M771.976,266.569c0.097,0.278,0.073,0.495-0.054,0.622c-0.139,0.138-0.344,0.166-0.602,0.109
				c-1.015-0.223-2.768-0.487-2.896-0.362c-0.255,0.249-0.453,2.479-1.428,3.469c-0.293,0.297-0.599,0.552-0.907,0.773
				c-0.643,0.458-1.396,0.933-2.256,1.421c-0.861,0.488-1.55,0.867-2.067,1.13c-0.517,0.263-0.805,0.394-0.851,0.406
				c-0.396,0.105-0.875,0.028-1.334-0.407c-0.035-0.033-0.053-0.051-0.088-0.084c-0.181-0.189-0.282-0.379-0.313-0.569
				c-0.031-0.191,0.001-0.345,0.105-0.457c0.047-0.051,0.091-0.086,0.131-0.105c1.956-0.961,3.664-1.941,4.965-2.934
				c0.373-0.284,0.63-0.511,0.764-0.652c0.547-0.573,1.138-1.925,1.08-1.993c-0.258-0.311-3.911,0.346-5.855,0.794
				c-1.946,0.448-3.779,1.311-5.012,1.621c-0.518,0.13-1.129-0.07-1.47-0.362c-0.243-0.208-0.332-0.497-0.288-0.849
				c0.039-0.311,0.302-1.086,0.784-2.323c0.481-1.236,1.01-2.409,1.604-3.479c0.225-0.404,0.447-0.738,0.659-0.995
				c1.167-1.415,2.711-2.019,4.645-1.759c1.571,0.211,3.073,0.942,4.466,2.203c1.133,1.026,1.893,3.016,2.322,3.349
				c0.371,0.288,1.891,0.179,2.538,0.303c0.349,0.066,0.674,0.251,0.967,0.54C771.762,266.151,771.9,266.354,771.976,266.569z
				 M766.145,265.085c0.123-0.162-0.766-1.761-1.555-2.472c-0.725-0.652-1.506-1.057-2.319-1.223
				c-1.467-0.299-2.69,0.127-3.663,1.271c-0.242,0.286-0.443,0.579-0.608,0.875c-0.474,0.847-1.536,3.241-1.536,3.241
				C756.662,266.99,765.898,265.408,766.145,265.085z"/>
		</g>
	</g>
</g>
<g>
	<path fill="#5FBBE8" d="M297.812,109.065c0,0,10.879,2.641,17.553,1.834c6.673-0.807,13.305-3.269,12.481-1.908
		c-0.823,1.362-11.309,4.138-13.7,5.317c-2.392,1.179-13.945,1.952-17.996-0.128C292.099,112.101,297.812,109.065,297.812,109.065z"
		/>
	<path fill="#E8E8E8" d="M266.219,128.649c9.177-1.788,6.979-34.697-12.853-46.569c-13.373-8.006-17.172,5.284-6.169,13.426
		c-8.4-2.887-11.657,9.165-2.021,12.547c-7.372-2.018-7.511,6.999-1.483,12.86C248.36,125.448,260.562,129.752,266.219,128.649z"/>
	<path fill="#3D392F" d="M279.27,141.916c0,0-0.401,5.135-0.946,7.157c-0.621,2.312-1.388,5.145-4.03,6.472
		c-2.644,1.319-3.672-2.114-2.542-3.839c1.133-1.723,2.381-2.286,2.796-4.465c0.401-2.182-0.032-3.287-0.032-3.287L279.27,141.916z"
		/>
	<path fill="#3D392F" d="M299.152,141.173c0,0-0.402,5.135-0.941,7.156c-0.625,2.312-1.392,5.145-4.037,6.471
		c-2.644,1.321-3.671-2.113-2.537-3.839c1.128-1.723,2.379-2.285,2.793-4.465c0.405-2.182-0.029-3.288-0.029-3.288L299.152,141.173z
		"/>
	<path fill="#71C1E8" d="M257.468,106.524c0,0-1.648-18.992,16.15-23.859c17.793-4.865,22.562,7.301,23.754,8.779
		c1.195,1.478,10.058,17.829,11.836,28.794c1.78,10.964,0.092,20.916-13.766,25.684c-14.855,5.11-29.821,1.914-33.534-14.036
		C258.197,115.935,257.468,106.524,257.468,106.524z"/>
	<polygon fill="#D6A332" points="341.802,103.314 347.917,103.336 342.92,106.879 343.054,104.917 	"/>
	<g>
		<g>
			<path fill="#604D40" d="M329.546,104.6c-2.018-1.813-4.556-9.984-7.878-16.778c-3.323-6.794-10.84-5.438-10.84-5.438
				s-0.576-4.541-2.851-3.916c-2.28,0.625-0.777,6.135,0.901,5.819c1.68-0.316,6.683-0.781,9.86,2.438
				c3.176,3.22,4.461,15.758,6.031,19.165c0.305,0.652,0.622,1.194,0.939,1.63c-0.212,0.499-0.397,1.098-0.543,1.803
				c-0.74,3.679,0.898,16.174-1.451,20.041c-2.347,3.865-7.323,4.565-9.031,4.646c-1.708,0.08-1.899,5.788,0.462,5.872
				c2.358,0.083,1.868-4.468,1.868-4.468s7.63-0.413,9.293-7.789c1.668-7.377,2.777-15.436,4.323-17.667
				C331.803,108.285,331.062,105.962,329.546,104.6z"/>
			<path fill="none" stroke="#604D40" stroke-width="0.3125" stroke-miterlimit="10" d="M308.58,82.784
				c0,0,2.823,23.327,0.498,26.811c-2.32,3.484-2.196-3.687,1.886,3.04c4.076,6.725,4.827,22.769,4.827,22.769"/>
			
				<rect x="304.331" y="109.981" transform="matrix(0.9539 -0.3 0.3 0.9539 -18.1325 102.7217)" fill="#7A4927" width="42.234" height="0.856"/>
			<polygon fill="#D6A332" points="303.468,114.3 305.638,116.3 311.498,114.485 309.334,112.578 308.795,113.245 307.136,113.221 
				306.834,113.965 305.355,113.765 305.099,114.517 			"/>
		</g>
		<polygon fill="#D6A332" points="305.25,119.748 305.865,116.863 311.697,114.958 311.032,117.765 310.206,117.53 308.868,118.509 
			308.19,118.077 307.099,119.095 306.455,118.628 		"/>
	</g>
	<path fill="#5FBBE8" d="M314.642,113.553c0,0-11.229,4.776-14.184,4.071c-2.958-0.705-9.485-8.235-11.893-8.193
		c-2.408,0.042-4.752,5.27-0.065,9.068c4.688,3.798,13.164,8.016,17.46,5.308c4.297-2.707,9.387-5.599,10.216-9.388
		C316.764,111.724,314.642,113.553,314.642,113.553z"/>
	<path fill="#3D392F" d="M312.018,114.623c0,0,2.268,2.447,3.09,2.115c0.819-0.333,1.846-2.635,3.222-2.453
		c1.375,0.182,0.089-2.183-0.85-2.623c-0.938-0.44-2.667-0.072-3.511,0.691C313.123,113.116,312.018,114.623,312.018,114.623z"/>
	<path fill="#D93637" d="M294.798,109.816c0,0,0.941,1.552,2.786,0.69c1.846-0.86,0.784-3.041,0.784-3.041"/>
	<ellipse transform="matrix(1 0.0068 -0.0068 1 0.6837 -1.9478)" fill="#231F20" cx="285.102" cy="98.985" rx="1.499" ry="1.983"/>
	<ellipse transform="matrix(1 0.007 -0.007 1 0.6709 -2.0675)" fill="#231F20" cx="295.509" cy="94.746" rx="1.499" ry="1.983"/>
	<path fill="#F5F5F5" d="M261.804,129.084c6.882-6.324-12.197-33.225-35.309-32.975c-15.586,0.169-11.874,13.483,1.761,14.672
		c-8.667,1.93-5.139,13.905,4.843,11.749c-7.334,2.135-2.746,9.895,5.46,11.737C244.907,135.693,257.559,132.981,261.804,129.084z"
		/>
</g>
</svg>
