<?xml version="1.0" encoding="utf-8"?>
<!-- Generator: Adobe Illustrator 16.0.0, SVG Export Plug-In . SVG Version: 6.00 Build 0)  -->
<!DOCTYPE svg PUBLIC "-//W3C//DTD SVG 1.1//EN" "http://www.w3.org/Graphics/SVG/1.1/DTD/svg11.dtd">
<svg version="1.1" id="Layer_1" xmlns="http://www.w3.org/2000/svg" xmlns:xlink="http://www.w3.org/1999/xlink" x="0px" y="0px"
	 width="235px" height="258px" viewBox="0 0 235 258" enable-background="new 0 0 235 258" xml:space="preserve">
<g>
	<path fill="#F1FFFE" d="M201.154,151.789c-5.193-3.025-11.582-2.154-15.781,1.717l-6.494-3.781l18.217-8.943
		c1.953-0.961,2.758-3.32,1.799-5.273c-0.959-1.955-3.32-2.76-5.271-1.801l-22.92,11.258l-2.371-1.381l17.381-9.621
		c1.904-1.055,2.596-3.451,1.541-5.355s-3.453-2.594-5.354-1.539l-16.717,9.25c-0.387-1.57-1.074-3.086-2.072-4.445l-6.6-9.015
		l25.588-0.137c1.689-0.008,3.057-1.388,3.049-3.08c-0.012-1.693-1.389-3.061-3.082-3.049l-25.238,0.135l6.283-8.586
		c0.906-1.236,1.558-2.594,1.959-4.009l16.922,9.675c0.617,0.352,1.289,0.52,1.951,0.52c1.367,0,2.697-0.713,3.426-1.985
		c1.078-1.89,0.424-4.296-1.467-5.376l-17.508-10.01l2.373-1.339l23.041,11.714c0.57,0.291,1.182,0.429,1.779,0.429
		c1.438,0,2.82-0.788,3.518-2.155c0.984-1.939,0.215-4.312-1.729-5.299l-18.367-9.338l6.695-3.775
		c4.146,3.928,10.521,4.888,15.756,1.936c6.432-3.625,8.703-11.777,5.078-18.207c-3.627-6.43-11.777-8.703-18.207-5.077
		c-5.234,2.952-7.713,8.903-6.498,14.484l-6.545,3.69l1.488-20.239c0.16-2.17-1.469-4.059-3.639-4.219
		c-2.174-0.158-4.061,1.47-4.221,3.64l-1.875,25.467l-2.389,1.348l0.486-19.861c0.053-2.175-1.666-3.982-3.844-4.036
		c-2.174-0.059-3.98,1.667-4.033,3.843l-0.465,18.84c-1.629-0.519-3.377-0.715-5.156-0.52L140.408,89.5
		c-0.074,0.008-0.146,0.002-0.219,0.006l12.602-22.511c0.827-1.477,0.301-3.344-1.178-4.171c-1.477-0.826-3.344-0.299-4.17,1.178
		l-12.211,21.809l-4.144-9.397c-0.649-1.474-1.543-2.767-2.618-3.847l16.449-9.816c1.869-1.115,2.479-3.534,1.365-5.403
		c-1.115-1.869-3.535-2.481-5.402-1.365l-17.318,10.334v-2.726l21.521-14.315c1.812-1.205,2.304-3.65,1.099-5.462
		s-3.648-2.302-5.463-1.099l-17.154,11.411V46.44c5.457-1.682,9.425-6.764,9.425-12.773c0-7.382-5.984-13.366-13.366-13.366
		c-7.381,0-13.365,5.984-13.365,13.366c0,6.01,3.967,11.092,9.426,12.773v7.515l-16.898-11.24c-1.811-1.205-4.258-0.714-5.462,1.099
		c-1.206,1.812-0.714,4.258,1.099,5.462l21.262,14.143v2.744l-17.061-10.18c-1.869-1.115-4.288-0.504-5.402,1.365
		c-1.115,1.869-0.505,4.288,1.364,5.403l16.292,9.721c-1.121,1.1-2.051,2.424-2.72,3.942l-4.56,10.34
		c-0.016,0.038-0.041,0.071-0.059,0.109L90.424,64.712c-0.862-1.456-2.741-1.938-4.198-1.076c-1.457,0.862-1.938,2.742-1.076,4.199
		l12.77,21.566L87.606,88.28c-1.686-0.184-3.341-0.021-4.893,0.435L82.505,69.19c-0.021-2.162-1.781-3.898-3.938-3.898
		c-0.015,0-0.028,0-0.042,0c-2.177,0.023-3.922,1.806-3.898,3.982l0.211,19.866l-2.37-1.38l-1.524-25.49
		c-0.13-2.172-1.996-3.821-4.168-3.699c-2.172,0.13-3.828,1.996-3.699,4.168l1.211,20.258l-6.059-3.527
		c1.294-5.562-1.102-11.548-6.295-14.573c-6.379-3.714-14.561-1.555-18.275,4.825c-3.715,6.379-1.555,14.561,4.824,18.275
		c5.193,3.024,11.581,2.153,15.781-1.717l6.206,3.613l-18.495,9.084c-1.953,0.959-2.758,3.32-1.799,5.273
		c0.685,1.395,2.084,2.204,3.539,2.204c0.584,0,1.176-0.13,1.734-0.404l23.199-11.394l2.355,1.371l-17.646,9.767
		c-1.903,1.054-2.592,3.451-1.539,5.355c0.72,1.3,2.064,2.033,3.451,2.033c0.646,0,1.301-0.159,1.904-0.494l16.818-9.308
		c0.366,1.684,1.084,3.305,2.146,4.758l6.357,8.684l-25.316-0.094c-0.004,0-0.008,0-0.012,0c-1.688,0-3.059,1.365-3.064,3.054
		c-0.006,1.692,1.361,3.069,3.053,3.075l25.512,0.094l-6.529,8.919c-0.969,1.323-1.646,2.789-2.035,4.313l-17.024-9.731
		c-1.89-1.084-4.296-0.424-5.376,1.465c-1.08,1.888-0.424,4.294,1.465,5.375l17.247,9.86l-2.39,1.349l-22.762-11.574
		c-1.939-0.985-4.312-0.213-5.299,1.729c-0.986,1.938-0.213,4.311,1.727,5.297l18.09,9.197l-6.105,3.441
		c-4.146-3.928-10.521-4.887-15.756-1.936c-6.43,3.625-8.703,11.775-5.077,18.205c3.626,6.432,11.777,8.703,18.207,5.076
		c5.235-2.951,7.713-8.9,6.497-14.482l6.256-3.525L62.29,176.48c-0.16,2.17,1.471,4.059,3.641,4.219
		c0.099,0.006,0.195,0.01,0.293,0.01c2.045,0,3.773-1.58,3.926-3.65l1.898-25.775l2.374-1.34l-0.495,20.162
		c-0.053,2.178,1.668,3.982,3.843,4.035c0.032,0.002,0.065,0.002,0.099,0.002c2.131,0,3.885-1.701,3.938-3.844l0.469-19.145
		c1.678,0.561,3.487,0.777,5.332,0.576l10.596-1.152l-12.753,21.791c-0.855,1.461-0.364,3.338,1.097,4.193
		c0.486,0.283,1.02,0.42,1.545,0.42c1.053,0,2.078-0.543,2.648-1.52l12.918-22.074l4.501,10.205
		c0.733,1.664,1.778,3.098,3.046,4.254l-16.618,9.916c-1.869,1.113-2.479,3.531-1.364,5.4c0.736,1.234,2.045,1.922,3.387,1.922
		c0.687,0,1.383-0.18,2.016-0.559l17.061-10.182v2.744l-21.262,14.143c-1.812,1.207-2.305,3.652-1.099,5.463
		c0.759,1.145,2.009,1.762,3.284,1.762c0.75,0,1.508-0.213,2.178-0.66l16.898-11.238v7.01c-5.459,1.682-9.426,6.764-9.426,12.771
		c0,7.385,5.984,13.365,13.365,13.365c7.382,0,13.366-5.98,13.366-13.365c0-6.01-3.969-11.092-9.426-12.771v-7.184l17.156,11.412
		c1.811,1.203,4.258,0.713,5.463-1.102c1.205-1.811,0.713-4.256-1.1-5.463l-21.521-14.312v-2.729l17.318,10.336
		c1.869,1.115,4.287,0.506,5.402-1.363s0.504-4.287-1.365-5.402l-16.775-10.012c1.223-1.141,2.23-2.537,2.944-4.156l4.548-10.314
		l12.994,22.119c0.57,0.973,1.594,1.514,2.645,1.514c0.527,0,1.062-0.137,1.552-0.424c1.459-0.855,1.946-2.734,1.09-4.193
		l-12.75-21.703l10.478,1.139c1.621,0.178,3.217,0.035,4.719-0.381l0.205,19.215c0.021,2.162,1.781,3.898,3.938,3.898
		c0.016,0,0.027,0,0.042,0c2.179-0.023,3.923-1.805,3.896-3.982l-0.215-20.166l2.355,1.371l1.541,25.801
		c0.125,2.094,1.861,3.705,3.93,3.705c0.078,0,0.158-0.002,0.238-0.008c2.172-0.129,3.828-1.994,3.699-4.168l-1.229-20.567
		l6.643,3.868c-1.295,5.562,1.102,11.551,6.295,14.572c6.379,3.715,14.561,1.555,18.275-4.824S207.533,155.504,201.154,151.789z"/>
</g>
<text transform="matrix(0.9434 0 0 1 77.6621 106.2207)" font-family="'BoonJot-Regular'" font-size="19">ทรัพยากรหิน</text>
<text transform="matrix(0.9434 0 0 1 110.1636 139.1465)" font-family="'BoonJot-Regular'" font-size="19">แร่ธาตุ</text>
<text transform="matrix(0.9434 0 0 1 85.1636 139.0303)" font-family="'BoonJot-Regular'" font-size="14">และ</text>
</svg>
