<?xml version="1.0" encoding="utf-8"?>
<!-- Generator: Adobe Illustrator 16.0.0, SVG Export Plug-In . SVG Version: 6.00 Build 0)  -->
<!DOCTYPE svg PUBLIC "-//W3C//DTD SVG 1.1//EN" "http://www.w3.org/Graphics/SVG/1.1/DTD/svg11.dtd">
<svg version="1.1" id="Layer_1" xmlns="http://www.w3.org/2000/svg" xmlns:xlink="http://www.w3.org/1999/xlink" x="0px" y="0px"
	 width="235px" height="258px" viewBox="0 0 235 258" enable-background="new 0 0 235 258" xml:space="preserve">
<g>
	<g>
		<path fill="#E4F2F2" d="M-115.847,56.885l11.06-10.671c2.323-2.241,2.39-5.941,0.147-8.264c-2.24-2.322-5.94-2.389-8.264-0.148
			l-13.589,13.112l-10.686,0.013l11.327-10.93c2.323-2.241,2.39-5.941,0.148-8.264c-2.241-2.323-5.941-2.388-8.264-0.148
			l-20.066,19.36l-8.684,0.01l-22.771-39.442l4.021-6.982l27.137-7.249c3.117-0.833,4.971-4.036,4.137-7.155
			c-0.833-3.117-4.033-4.976-7.154-4.137l-15.883,4.242l5.262-9.133l19.116-5.106c3.118-0.833,4.971-4.036,4.138-7.155
			c-0.833-3.117-4.036-4.974-7.154-4.137l-14.848,3.966l-3.71-14.915c-0.778-3.132-3.95-5.042-7.081-4.261
			c-3.133,0.779-5.041,3.95-4.262,7.082l4.762,19.144l-5.334,9.26l-4.004-16.093c-0.777-3.132-3.952-5.041-7.08-4.261
			c-3.133,0.779-5.041,3.95-4.262,7.082l6.934,27.876l-3.836,6.659h-46.942l-4.827-7.972l6.584-26.594
			c0.775-3.134-1.136-6.302-4.269-7.079c-3.132-0.774-6.301,1.135-7.078,4.27l-3.785,15.289l-4.938-8.155l4.573-18.473
			c0.776-3.134-1.135-6.302-4.268-7.078c-3.133-0.774-6.302,1.135-7.078,4.269l-3.693,14.918l-14.853-3.95
			c-3.117-0.829-6.321,1.027-7.15,4.146c-0.83,3.119,1.027,6.32,4.146,7.15l18.181,4.835l4.964,8.197l-15.078-4.01
			c-3.115-0.829-6.32,1.026-7.15,4.146c-0.83,3.119,1.027,6.32,4.146,7.15l26.812,7.131l5.401,8.918l-21.786,37.734l-9.974,0.011
			l-19.361-19.384c-2.28-2.284-5.981-2.287-8.265-0.005c-2.284,2.281-2.287,5.981-0.005,8.265l11.13,11.144l-9.534,0.01
			l-13.448-13.465c-2.282-2.285-5.981-2.286-8.265-0.005c-2.284,2.281-2.286,5.982-0.004,8.265l10.86,10.875l-11.06,10.67
			c-2.323,2.241-2.389,5.941-0.148,8.264c1.147,1.188,2.676,1.787,4.207,1.787c1.46,0,2.923-0.545,4.057-1.64l13.539-13.062
			l9.583-0.011l-11.228,10.833c-2.322,2.241-2.389,5.941-0.148,8.264c1.147,1.188,2.676,1.787,4.206,1.787
			c1.461,0,2.924-0.545,4.058-1.64l19.966-19.263l10.112-0.012l22.649,39.23l-4.608,8l-27.267,7.283
			c-3.119,0.832-4.972,4.038-4.138,7.155c0.832,3.116,4.031,4.972,7.155,4.137l16.014-4.275l-4.759,8.26l-19.184,5.125
			c-3.118,0.834-4.971,4.036-4.138,7.155c0.832,3.117,4.033,4.972,7.155,4.138l14.848-3.968l3.709,14.917
			c0.661,2.656,3.045,4.434,5.667,4.434c0.467,0,0.941-0.055,1.415-0.174c3.132-0.778,5.04-3.951,4.261-7.084l-4.745-19.072
			l4.784-8.305l3.969,15.957c0.661,2.658,3.045,4.437,5.667,4.437c0.466,0,0.941-0.058,1.415-0.177
			c3.133-0.775,5.04-3.947,4.261-7.08l-6.899-27.739l4.601-7.986h46.468l4.531,7.48l-6.551,26.463
			c-0.776,3.133,1.136,6.302,4.268,7.079c0.473,0.115,0.944,0.17,1.41,0.17c2.623,0,5.01-1.779,5.668-4.439l3.752-15.156
			l5.459,9.016l-4.557,18.405c-0.775,3.132,1.137,6.301,4.27,7.078c0.472,0.115,0.943,0.172,1.408,0.172
			c2.625,0,5.01-1.778,5.67-4.439l3.691-14.92l14.854,3.949c3.117,0.835,6.32-1.025,7.149-4.146c0.83-3.119-1.026-6.318-4.146-7.148
			l-18.25-4.854l-5.534-9.141l15.212,4.046c3.119,0.835,6.32-1.023,7.15-4.146c0.83-3.119-1.027-6.32-4.146-7.149l-26.946-7.167
			l-4.843-7.998l21.733-37.644l9.151-0.01l19.264,19.288c1.143,1.144,2.639,1.715,4.136,1.715c1.493,0,2.989-0.569,4.13-1.71
			c2.283-2.28,2.287-5.98,0.005-8.264l-11.034-11.048l10.541-0.012l13.398,13.416c1.143,1.144,2.639,1.714,4.136,1.714
			c1.493,0,2.989-0.568,4.13-1.708c2.283-2.281,2.287-5.982,0.005-8.266L-115.847,56.885z"/>
	</g>
	<g>
		<path fill="#E4F2F2" d="M-218.917-7.806c3.598-0.069,6.457-3.042,6.389-6.64l-0.66-34.164c-0.068-3.598-3.043-6.458-6.64-6.389
			c-3.598,0.069-6.458,3.042-6.389,6.64l0.659,34.165C-225.487-10.597-222.515-7.737-218.917-7.806z"/>
	</g>
	<g>
		<path fill="#E4F2F2" d="M-216.402,122.5c-3.598,0.068-6.458,3.041-6.389,6.64l0.659,34.165c0.07,3.598,3.043,6.459,6.641,6.389
			c3.598-0.068,6.457-3.041,6.389-6.641l-0.66-34.164C-209.832,125.29-212.805,122.43-216.402,122.5z"/>
	</g>
	<g>
		<path fill="#E4F2F2" d="M-311.105,7.196l29.06,17.978c1.106,0.685,2.337,0.998,3.547,0.975c2.138-0.042,4.212-1.133,5.421-3.087
			c1.893-3.061,0.947-7.076-2.112-8.97l-29.06-17.978c-3.061-1.893-7.076-0.947-8.969,2.112
			C-315.11,1.288-314.165,5.303-311.105,7.196z"/>
	</g>
	<g>
		<path fill="#E4F2F2" d="M-124.216,107.498l-29.059-17.979c-3.061-1.893-7.076-0.945-8.969,2.113
			c-1.894,3.061-0.948,7.076,2.111,8.97l29.061,17.979c1.106,0.684,2.336,0.997,3.547,0.974c2.139-0.042,4.213-1.133,5.422-3.088
			C-120.21,113.406-121.155,109.39-124.216,107.498z"/>
	</g>
	<g>
		<path fill="#E4F2F2" d="M-273.562,90.835c-1.85-3.087-5.851-4.091-8.937-2.241l-29.314,17.562c-3.086,1.849-4.09,5.85-2.24,8.938
			c1.244,2.075,3.461,3.211,5.721,3.167c1.098-0.021,2.207-0.322,3.216-0.927l29.314-17.561
			C-272.717,97.923-271.714,93.921-273.562,90.835z"/>
	</g>
	<g>
		<path fill="#E4F2F2" d="M-161.758,23.859c1.243,2.077,3.462,3.21,5.721,3.167c1.099-0.021,2.207-0.321,3.216-0.926l29.314-17.56
			c3.086-1.85,4.09-5.851,2.24-8.938c-1.849-3.086-5.852-4.091-8.937-2.241l-29.313,17.561
			C-162.604,16.771-163.607,20.772-161.758,23.859z"/>
	</g>
</g>
<g>
	<path fill="#F4FAFA" d="M218.971,168.389c-6.392-3.723-14.251-2.65-19.419,2.112l-7.989-4.651l22.414-11.008
		c2.403-1.182,3.395-4.086,2.213-6.488c-1.18-2.405-4.086-3.396-6.487-2.217l-28.203,13.854l-2.918-1.699l21.388-11.839
		c2.344-1.298,3.191-4.247,1.897-6.591c-1.3-2.342-4.25-3.19-6.593-1.894l-20.568,11.384c-0.475-1.934-1.32-3.797-2.549-5.471
		l-8.12-11.096l31.483-0.168c2.082-0.008,3.762-1.706,3.752-3.789c-0.012-2.084-1.707-3.765-3.793-3.751l-31.056,0.166l7.731-10.564
		c1.113-1.521,1.916-3.192,2.41-4.934l20.822,11.905c0.758,0.432,1.586,0.639,2.399,0.639c1.685,0,3.319-0.876,4.216-2.443
		c1.326-2.325,0.521-5.286-1.804-6.615l-21.544-12.318l2.919-1.646l28.353,14.414c0.704,0.357,1.453,0.527,2.192,0.527
		c1.768,0,3.47-0.969,4.325-2.651c1.215-2.387,0.264-5.306-2.125-6.52l-22.602-11.49l8.239-4.646
		c5.103,4.833,12.946,6.015,19.388,2.382c7.911-4.46,10.709-14.491,6.248-22.403c-4.464-7.913-14.49-10.709-22.404-6.248
		c-6.44,3.632-9.488,10.955-7.994,17.823l-8.053,4.541l1.832-24.904c0.197-2.67-1.807-4.994-4.477-5.191
		c-2.676-0.194-4.998,1.809-5.193,4.479l-2.308,31.337l-2.938,1.659l0.6-24.439c0.064-2.677-2.053-4.9-4.729-4.967
		c-2.675-0.072-4.901,2.052-4.965,4.729l-0.569,23.183c-2.006-0.638-4.156-0.879-6.348-0.639l-13.824,1.501
		c-0.09,0.01-0.178,0.002-0.27,0.007l15.507-27.699c1.019-1.817,0.37-4.115-1.449-5.133c-1.815-1.016-4.114-0.368-5.132,1.45
		l-15.023,26.835l-5.098-11.562c-0.8-1.813-1.898-3.405-3.224-4.734l20.241-12.079c2.301-1.373,3.053-4.349,1.681-6.648
		c-1.372-2.299-4.349-3.053-6.646-1.679l-21.312,12.716v-3.354l26.48-17.614c2.229-1.482,2.834-4.492,1.351-6.721
		c-1.482-2.23-4.489-2.833-6.722-1.352l-21.109,14.041v-9.458c6.716-2.069,11.597-8.322,11.597-15.717
		c0-9.083-7.362-16.447-16.446-16.447c-9.082,0-16.445,7.363-16.445,16.447c0,7.395,4.881,13.648,11.598,15.717v9.247l-20.792-13.83
		c-2.229-1.483-5.239-0.879-6.721,1.352c-1.485,2.229-0.879,5.239,1.351,6.721L113.8,59.651v3.375L92.808,50.5
		c-2.3-1.372-5.276-0.62-6.648,1.679c-1.372,2.299-0.621,5.275,1.679,6.648l20.048,11.961c-1.38,1.353-2.524,2.982-3.348,4.852
		l-5.611,12.722c-0.019,0.046-0.049,0.088-0.071,0.135L82.718,61.241c-1.062-1.792-3.374-2.384-5.167-1.324
		c-1.792,1.062-2.384,3.375-1.323,5.167L91.94,91.621l-12.69-1.379c-2.074-0.226-4.11-0.025-6.02,0.534l-0.257-24.024
		c-0.027-2.661-2.192-4.797-4.846-4.797c-0.02,0-0.036,0-0.053,0.001c-2.677,0.028-4.825,2.222-4.797,4.899l0.26,24.445
		l-2.916-1.697l-1.873-31.367c-0.161-2.673-2.457-4.702-5.13-4.551c-2.672,0.16-4.71,2.457-4.551,5.128l1.49,24.927l-7.455-4.34
		c1.592-6.845-1.356-14.21-7.747-17.932c-7.85-4.571-17.916-1.912-22.488,5.938c-4.571,7.85-1.913,17.917,5.937,22.488
		c6.391,3.721,14.25,2.65,19.418-2.113l7.636,4.447l-22.756,11.177c-2.404,1.18-3.395,4.086-2.214,6.489
		c0.842,1.715,2.564,2.712,4.354,2.712c0.719,0,1.447-0.16,2.134-0.498l28.546-14.02l2.899,1.687l-21.713,12.018
		c-2.342,1.296-3.19,4.246-1.895,6.59c0.886,1.599,2.541,2.501,4.248,2.501c0.795,0,1.6-0.195,2.343-0.607l20.694-11.454
		c0.452,2.072,1.334,4.067,2.642,5.854l7.823,10.685l-31.152-0.115c-0.004,0-0.009,0-0.014,0c-2.077,0-3.763,1.68-3.77,3.757
		c-0.008,2.082,1.674,3.777,3.755,3.782l31.392,0.115l-8.034,10.979c-1.191,1.628-2.025,3.432-2.504,5.309l-20.949-11.977
		c-2.326-1.333-5.286-0.521-6.615,1.803c-1.329,2.324-0.522,5.285,1.803,6.614l21.222,12.134l-2.941,1.658L27.15,145.18
		c-2.387-1.213-5.307-0.262-6.521,2.127c-1.212,2.387-0.261,5.305,2.125,6.52l22.259,11.316l-7.512,4.237
		c-5.102-4.834-12.947-6.014-19.388-2.382c-7.911,4.459-10.709,14.492-6.247,22.402c4.461,7.912,14.492,10.711,22.403,6.246
		c6.442-3.633,9.491-10.953,7.995-17.822l7.697-4.34l-1.863,25.287c-0.196,2.67,1.81,4.992,4.479,5.19
		c0.123,0.008,0.241,0.013,0.36,0.013c2.517,0,4.644-1.945,4.831-4.492l2.336-31.719l2.921-1.646l-0.609,24.809
		c-0.066,2.678,2.052,4.9,4.728,4.965c0.04,0.002,0.082,0.002,0.122,0.002c2.623,0,4.78-2.093,4.845-4.729l0.577-23.557
		c2.064,0.689,4.292,0.955,6.561,0.709l13.038-1.418l-15.692,26.812c-1.053,1.799-0.448,4.109,1.35,5.16
		c0.598,0.35,1.254,0.518,1.899,0.518c1.297,0,2.559-0.668,3.26-1.867L99,170.357l5.537,12.56c0.904,2.048,2.188,3.81,3.748,5.231
		L87.836,200.35c-2.3,1.373-3.051,4.348-1.679,6.647c0.907,1.521,2.518,2.364,4.168,2.364c0.844,0,1.701-0.221,2.48-0.685
		l20.993-12.528v3.377l-26.162,17.401c-2.229,1.484-2.836,4.493-1.351,6.722c0.933,1.406,2.472,2.166,4.04,2.166
		c0.923,0,1.855-0.263,2.681-0.812l20.792-13.832v8.626c-6.717,2.07-11.598,8.324-11.598,15.72c0,9.084,7.364,16.444,16.446,16.444
		c9.082,0,16.445-7.36,16.445-16.444c0-7.396-4.881-13.648-11.597-15.72v-8.837l21.108,14.043c2.229,1.48,5.239,0.878,6.723-1.354
		c1.482-2.229,0.878-5.236-1.352-6.722l-26.479-17.612v-3.356l21.312,12.72c2.301,1.372,5.274,0.618,6.646-1.681
		c1.372-2.3,0.62-5.274-1.68-6.647l-20.645-12.318c1.504-1.4,2.747-3.122,3.625-5.114l5.598-12.694l15.988,27.217
		c0.702,1.197,1.961,1.864,3.253,1.864c0.648,0,1.31-0.168,1.908-0.522c1.795-1.053,2.396-3.364,1.34-5.159l-15.688-26.706
		l12.891,1.402c1.994,0.216,3.959,0.043,5.807-0.469l0.252,23.644c0.027,2.659,2.192,4.797,4.849,4.797c0.017,0,0.032,0,0.052,0
		c2.678-0.028,4.825-2.22,4.797-4.899l-0.267-24.814l2.897,1.688l1.897,31.747c0.153,2.575,2.29,4.56,4.836,4.56
		c0.096,0,0.192-0.002,0.292-0.01c2.673-0.158,4.711-2.453,4.552-5.129l-1.511-25.309l8.174,4.761
		c-1.595,6.845,1.355,14.212,7.745,17.931c7.849,4.572,17.916,1.914,22.487-5.937C229.477,183.027,226.818,172.96,218.971,168.389z"
		/>
</g>
<text transform="matrix(1 0 0 1 64.4771 111.7271)" font-family="'BoonJot-Regular'" font-size="20">ทรัพยากรป่าไม้</text>
<text transform="matrix(1 0 0 1 76.1431 145.3711)" font-family="'BoonJot-Regular'" font-size="17">และ</text>
<text transform="matrix(1 0 0 1 112.0449 154.3691)" font-family="'BoonJot-Regular'" font-size="20">สัตว์ป่า</text>
</svg>
