<?xml version="1.0" encoding="utf-8"?>
<!-- Generator: Adobe Illustrator 16.0.0, SVG Export Plug-In . SVG Version: 6.00 Build 0)  -->
<!DOCTYPE svg PUBLIC "-//W3C//DTD SVG 1.1//EN" "http://www.w3.org/Graphics/SVG/1.1/DTD/svg11.dtd">
<svg version="1.1" id="Layer_1" xmlns="http://www.w3.org/2000/svg" xmlns:xlink="http://www.w3.org/1999/xlink" x="0px" y="0px"
	 width="180px" height="200px" viewBox="0 0 180 200" enable-background="new 0 0 180 200" xml:space="preserve">
<g>
	<g>
		<path fill="#F1FFFE" d="M169.501,107.602l-5.985,6.477l-3.779-1.243l5.604-6.062c1.542-1.668,1.438-4.271-0.229-5.811
			c-1.668-1.542-4.271-1.441-5.812,0.229l-8.146,8.816l-3.381-1.111l7.414-8.021c1.543-1.667,1.438-4.27-0.229-5.81
			c-1.667-1.542-4.271-1.44-5.811,0.228l-9.863,10.672c-0.071-0.057-0.135-0.117-0.207-0.169l-2.909-11.962l1.817-11.96l1.248-0.406
			l9.92,10.815c0.811,0.885,1.918,1.333,3.031,1.333c0.99,0,1.985-0.358,2.774-1.082c1.675-1.535,1.787-4.135,0.252-5.809
			l-7.382-8.05l3.382-1.098l8.115,8.849c0.812,0.884,1.918,1.332,3.026,1.332c0.994,0,1.992-0.357,2.78-1.083
			c1.673-1.534,1.784-4.134,0.249-5.808l-5.576-6.082l3.787-1.23l5.957,6.497c0.812,0.885,1.92,1.333,3.031,1.333
			c0.994,0,1.986-0.357,2.775-1.081c1.674-1.535,1.789-4.136,0.254-5.809l-6.479-7.062l1.097-9.521
			c0.256-2.256-1.361-4.294-3.619-4.553c-2.258-0.249-4.293,1.362-4.554,3.617l-1.005,8.758l-3.785,1.23l0.939-8.199
			c0.259-2.256-1.36-4.294-3.618-4.553c-2.26-0.25-4.293,1.362-4.553,3.617l-1.367,11.927l-3.384,1.098l1.244-10.851
			c0.26-2.255-1.36-4.293-3.615-4.552c-2.262-0.249-4.294,1.362-4.555,3.617l-1.672,14.56c-0.02,0-0.037-0.004-0.058-0.004
			l-12.126-5.79l-2.73-13.173l0.563-0.771l14.38,2.919c0.277,0.056,0.553,0.083,0.823,0.083c1.915,0,3.629-1.345,4.024-3.293
			c0.45-2.225-0.985-4.396-3.213-4.848l-10.701-2.173l2.09-2.876l11.766,2.389c0.275,0.055,0.553,0.083,0.823,0.083
			c1.913,0,3.628-1.345,4.024-3.294c0.452-2.225-0.986-4.395-3.211-4.847l-8.089-1.643l2.341-3.219l8.641,1.754
			c0.277,0.055,0.552,0.083,0.82,0.083c1.918,0,3.631-1.346,4.025-3.294c0.45-2.226-0.984-4.396-3.213-4.848l-9.389-1.907
			l-4.715-8.344c-1.115-1.976-3.623-2.674-5.604-1.557c-1.977,1.116-2.675,3.624-1.557,5.601l4.334,7.676l-2.34,3.221l-4.061-7.186
			c-1.114-1.976-3.62-2.675-5.604-1.558c-1.979,1.117-2.676,3.624-1.559,5.602l5.902,10.454l-2.092,2.877l-5.371-9.509
			c-1.115-1.978-3.623-2.674-5.603-1.559c-1.979,1.117-2.675,3.625-1.559,5.602l7.216,12.778l-0.036,0.053l-15.13,4.725l-8.04-11.86
			v-0.471l13.351-6.093c2.065-0.943,2.979-3.382,2.032-5.447c-0.942-2.066-3.382-2.974-5.446-2.033l-9.937,4.535v-3.557
			l10.922-4.984c2.065-0.943,2.976-3.381,2.032-5.448c-0.941-2.065-3.38-2.974-5.447-2.033l-7.507,3.427v-3.981l8.021-3.66
			c2.063-0.943,2.979-3.382,2.033-5.447c-0.943-2.066-3.383-2.975-5.447-2.033L88.35,8.727l-8.718-3.979
			c-2.065-0.941-4.504-0.034-5.447,2.033c-0.942,2.066-0.032,4.504,2.033,5.447l8.02,3.66v3.981l-7.507-3.427
			c-2.066-0.942-4.506-0.033-5.447,2.033c-0.943,2.067-0.033,4.505,2.032,5.448l10.922,4.984v3.557l-9.936-4.535
			c-2.066-0.941-4.504-0.033-5.447,2.033c-0.344,0.75-0.434,1.55-0.321,2.309c-0.352-0.682-0.893-1.277-1.61-1.686
			c-1.972-1.125-4.484-0.438-5.608,1.535l-5.411,9.488l-2.08-2.887l5.947-10.428c1.125-1.973,0.438-4.484-1.535-5.608
			c-1.972-1.124-4.483-0.438-5.607,1.536l-4.088,7.168l-2.328-3.23L50.58,20.5c1.125-1.972,0.438-4.482-1.535-5.608
			c-1.971-1.124-4.483-0.437-5.606,1.536l-4.747,8.324l-9.398,1.868c-2.228,0.443-3.675,2.608-3.232,4.835
			c0.389,1.956,2.106,3.311,4.029,3.311c0.266,0,0.535-0.026,0.805-0.08l8.647-1.72l2.327,3.229l-8.094,1.609
			c-2.227,0.443-3.674,2.608-3.231,4.835c0.389,1.956,2.106,3.311,4.028,3.311c0.266,0,0.536-0.026,0.806-0.08l11.775-2.341
			l2.08,2.886l-10.712,2.129c-2.228,0.442-3.673,2.607-3.232,4.833c0.389,1.958,2.106,3.311,4.028,3.311
			c0.266,0,0.536-0.025,0.806-0.08l14.394-2.86l0.144,0.199l-0.495,14.22L40.639,73.64l-0.556-0.183l-1.615-14.586
			c-0.251-2.257-2.282-3.885-4.54-3.634c-2.256,0.25-3.883,2.282-3.634,4.538l1.203,10.857l-3.379-1.112l-1.321-11.933
			c-0.251-2.256-2.278-3.882-4.539-3.634c-2.258,0.25-3.885,2.282-3.634,4.539l0.908,8.203l-3.781-1.245l-0.971-8.763
			c-0.251-2.257-2.283-3.883-4.539-3.634c-2.258,0.25-3.884,2.282-3.635,4.539l1.055,9.524l-6.504,7.037
			c-1.54,1.667-1.438,4.269,0.228,5.81c0.792,0.73,1.792,1.091,2.791,1.091c1.106,0,2.21-0.443,3.021-1.32l5.984-6.475l3.782,1.244
			l-5.602,6.061c-1.541,1.667-1.439,4.269,0.229,5.81c0.791,0.73,1.792,1.092,2.789,1.092c1.107,0,2.21-0.444,3.021-1.321
			l8.149-8.816l3.379,1.111l-7.413,8.021c-1.542,1.667-1.439,4.267,0.228,5.809c0.791,0.731,1.792,1.093,2.791,1.093
			c1.106,0,2.21-0.445,3.019-1.321l9.96-10.776l0.609,0.2L43.167,94.5l-5.545,11.295c-0.016,0.012-0.029,0.025-0.045,0.036
			l-0.112,0.036l-9.919-10.814c-1.535-1.672-4.135-1.786-5.809-0.251c-1.673,1.535-1.785,4.135-0.251,5.81l7.382,8.052l-3.382,1.099
			l-8.115-8.848c-1.535-1.674-4.136-1.787-5.809-0.252c-1.673,1.533-1.785,4.136-0.251,5.811l5.578,6.082L13.1,113.78l-5.958-6.497
			c-1.535-1.676-4.135-1.786-5.809-0.252c-1.674,1.535-1.786,4.136-0.252,5.81l6.478,7.062l-1.092,9.521
			c-0.259,2.256,1.36,4.294,3.616,4.555c0.16,0.02,0.317,0.025,0.473,0.025c2.062,0,3.839-1.546,4.08-3.645l1.004-8.758l3.787-1.229
			l-0.941,8.196c-0.259,2.259,1.361,4.296,3.616,4.555c0.16,0.021,0.317,0.025,0.474,0.025c2.061,0,3.838-1.547,4.079-3.644
			l1.368-11.927l3.383-1.1l-1.244,10.851c-0.259,2.257,1.36,4.295,3.616,4.554c0.159,0.018,0.317,0.026,0.474,0.026
			c2.061,0,3.838-1.548,4.079-3.644l1.672-14.578l1.317-0.43l14.847,3.242l-1.543,16.57l-0.272,0.375l-14.381-2.92
			c-2.227-0.447-4.395,0.983-4.848,3.209c-0.452,2.228,0.986,4.396,3.211,4.85l10.704,2.174l-2.091,2.875l-11.765-2.389
			c-2.224-0.447-4.396,0.986-4.846,3.213c-0.453,2.225,0.985,4.396,3.21,4.848l8.088,1.645l-2.34,3.22l-8.641-1.754
			c-2.223-0.447-4.396,0.983-4.848,3.211c-0.45,2.228,0.986,4.396,3.212,4.851l9.391,1.903l4.711,8.345
			c0.756,1.34,2.149,2.09,3.583,2.09c0.686,0,1.38-0.172,2.018-0.531c1.978-1.116,2.675-3.625,1.558-5.602l-4.334-7.679l2.34-3.22
			l4.059,7.187c0.755,1.339,2.148,2.093,3.583,2.093c0.684,0,1.379-0.174,2.018-0.533c1.977-1.115,2.674-3.625,1.558-5.604
			l-5.904-10.452l2.091-2.879l5.372,9.514c0.755,1.336,2.149,2.09,3.583,2.09c0.686,0,1.38-0.172,2.019-0.532
			c1.977-1.116,2.674-3.624,1.557-5.601l-7.216-12.778l0.723-0.994l13.106-4.125l9.402,11.786v0.883l-13.35,6.094
			c-2.065,0.942-2.976,3.383-2.033,5.449c0.689,1.512,2.183,2.402,3.743,2.402c0.57,0,1.151-0.119,1.705-0.37l9.936-4.535v3.556
			l-10.922,4.986c-2.065,0.941-2.975,3.38-2.032,5.447c0.942,2.062,3.38,2.975,5.447,2.031l7.507-3.428v3.981l-8.02,3.657
			c-2.065,0.941-2.976,3.383-2.033,5.449c0.691,1.51,2.183,2.404,3.743,2.404c0.572,0,1.152-0.122,1.705-0.373l8.718-3.979
			l8.718,3.979c2.062,0.941,4.504,0.032,5.447-2.031c0.939-2.066,0.027-4.508-2.035-5.449l-8.021-3.657v-3.981l7.507,3.428
			c0.556,0.254,1.138,0.373,1.705,0.373c1.562,0,3.056-0.896,3.742-2.404c0.94-2.067,0.032-4.506-2.032-5.447l-10.922-4.986v-3.556
			l9.938,4.534c2.063,0.943,4.506,0.033,5.445-2.031c0.346-0.752,0.438-1.553,0.32-2.312c0.354,0.686,0.896,1.277,1.609,1.688
			c0.644,0.367,1.345,0.541,2.031,0.541c1.43,0,2.817-0.745,3.576-2.075l5.411-9.486l2.079,2.886l-5.949,10.431
			c-1.123,1.973-0.436,4.48,1.537,5.605c0.643,0.367,1.342,0.541,2.032,0.541c1.428,0,2.815-0.745,3.575-2.074l4.086-7.169
			l2.328,3.229l-4.367,7.658c-1.123,1.975-0.438,4.483,1.537,5.608c0.643,0.366,1.343,0.541,2.031,0.541
			c1.428,0,2.814-0.746,3.574-2.075l4.745-8.325l9.396-1.866c2.229-0.443,3.676-2.604,3.231-4.834
			c-0.442-2.229-2.606-3.677-4.833-3.229l-8.646,1.718l-2.325-3.229l8.093-1.607c2.229-0.443,3.674-2.607,3.23-4.834
			c-0.441-2.229-2.602-3.68-4.834-3.232l-11.773,2.34l-2.08-2.883l10.712-2.13c2.229-0.442,3.677-2.606,3.231-4.835
			c-0.442-2.227-2.604-3.676-4.836-3.23l-14.35,2.854c-0.029-0.104-0.051-0.215-0.088-0.321l-0.627-15.104l13.172-4.91l1.934,0.638
			l1.613,14.586c0.233,2.104,2.018,3.66,4.084,3.657c0.149,0,0.301-0.007,0.455-0.021c2.258-0.25,3.885-2.283,3.635-4.539
			l-1.201-10.856l3.38,1.11l1.319,11.936c0.232,2.104,2.017,3.658,4.082,3.658c0.15,0,0.305-0.01,0.457-0.025
			c2.256-0.25,3.883-2.279,3.633-4.539l-0.903-8.202l3.778,1.245l0.972,8.764c0.231,2.104,2.016,3.659,4.083,3.659
			c0.148,0,0.304-0.011,0.458-0.024c2.257-0.25,3.884-2.281,3.634-4.539l-1.057-9.521l6.506-7.037
			c1.54-1.666,1.438-4.27-0.229-5.811C173.645,105.831,171.041,105.936,169.501,107.602z M68.458,36.193
			c0.488-0.858,0.617-1.814,0.463-2.717c0.405,0.822,1.068,1.524,1.966,1.934l13.35,6.093v0.47L75.5,53.5l-13.864-3.937
			l-0.448-0.622L68.458,36.193z M108.239,151.143c-0.488,0.857-0.617,1.814-0.464,2.719c-0.404-0.82-1.067-1.522-1.965-1.936
			l-13.354-6.094v-0.885l8.71-10.447l13.224,2.342l1.115,1.553L108.239,151.143z"/>
	</g>
</g>
<text transform="matrix(1 0 0 1 42.146 97.3125)" font-family="'BoonJot-Regular'" font-size="20">ทรัพยากรดิน</text>
</svg>
