<?xml version="1.0" encoding="utf-8"?>
<!-- Generator: Adobe Illustrator 16.0.0, SVG Export Plug-In . SVG Version: 6.00 Build 0)  -->
<!DOCTYPE svg PUBLIC "-//W3C//DTD SVG 1.1//EN" "http://www.w3.org/Graphics/SVG/1.1/DTD/svg11.dtd">
<svg version="1.1" id="Layer_1" xmlns="http://www.w3.org/2000/svg" xmlns:xlink="http://www.w3.org/1999/xlink" x="0px" y="0px"
	 width="180px" height="200px" viewBox="0 0 180 200" enable-background="new 0 0 180 200" xml:space="preserve">
<g>
	<g>
		<path fill="#F1FFFE" d="M-75.722,303.236c-1.017,0-1.973,0.256-2.81,0.705l-2.504-0.824l5.991-6.48
			c1.647-1.783,1.539-4.566-0.245-6.214c-1.782-1.647-4.565-1.54-6.213,0.245l-8.715,9.428l-3.613-1.188l7.929-8.576
			c1.647-1.783,1.539-4.563-0.244-6.214c-1.783-1.646-4.565-1.538-6.214,0.244l-10.652,11.523l-14.489-4.768
			c0.583-2.741,0.896-5.581,0.896-8.493c0-2.856-0.299-5.646-0.86-8.338l14.505-4.71l10.607,11.564
			c0.867,0.946,2.052,1.426,3.241,1.426c1.062,0,2.127-0.381,2.971-1.155c1.79-1.642,1.91-4.423,0.269-6.212l-7.895-8.609
			l3.618-1.174l8.678,9.462c0.867,0.944,2.053,1.425,3.241,1.425c1.062,0,2.127-0.383,2.972-1.156
			c1.789-1.642,1.909-4.424,0.268-6.213l-5.964-6.504l2.888-0.938c0.748,0.339,1.575,0.531,2.45,0.531
			c3.286,0,5.95-2.664,5.95-5.949c0-3.287-2.664-5.951-5.95-5.951c-2.214,0-4.142,1.211-5.166,3.005l-2.889,0.938l1.006-8.769
			c0.277-2.413-1.455-4.592-3.867-4.869c-2.413-0.268-4.593,1.454-4.869,3.867l-1.463,12.754l-3.618,1.177l1.331-11.604
			c0.276-2.413-1.455-4.593-3.867-4.87c-2.416-0.271-4.593,1.454-4.869,3.868l-1.788,15.591l-14.52,4.714
			c-2.322-5.149-5.674-9.739-9.806-13.489l8.979-12.354l15.38,3.123c0.296,0.06,0.59,0.089,0.88,0.089
			c2.048,0,3.881-1.438,4.304-3.521c0.484-2.381-1.054-4.701-3.434-5.186l-11.446-2.325l2.235-3.075l12.583,2.555
			c0.296,0.061,0.59,0.09,0.88,0.09c2.048,0,3.881-1.439,4.304-3.523c0.483-2.379-1.054-4.701-3.434-5.184l-8.649-1.758l1.807-2.484
			c2.712-0.554,4.753-2.953,4.753-5.83c0-3.285-2.664-5.949-5.951-5.949c-3.286,0-5.95,2.664-5.95,5.949
			c0,0.223,0.015,0.441,0.038,0.657l-1.809,2.487l-4.341-7.685c-1.193-2.112-3.877-2.858-5.99-1.666
			c-2.114,1.193-2.86,3.877-1.666,5.99l6.313,11.181l-2.236,3.076l-5.744-10.171c-1.193-2.112-3.877-2.858-5.99-1.666
			c-2.114,1.194-2.86,3.877-1.666,5.991l7.718,13.665l-8.979,12.354c-4.77-2.743-10.14-4.557-15.866-5.174v-15.255l14.277-6.518
			c2.209-1.008,3.183-3.616,2.174-5.825c-1.008-2.208-3.616-3.181-5.825-2.175l-10.626,4.851v-3.804l11.68-5.33
			c2.21-1.01,3.183-3.616,2.175-5.825s-3.614-3.181-5.826-2.176l-8.028,3.665v-3.086c0.962-1.057,1.554-2.457,1.554-3.998
			c0-3.286-2.664-5.95-5.95-5.95s-5.95,2.664-5.95,5.95c0,1.541,0.591,2.941,1.553,4v3.084l-8.028-3.665
			c-2.209-1.007-4.817-0.035-5.825,2.176c-1.009,2.209-0.035,4.815,2.174,5.825l11.68,5.33v3.804l-10.625-4.851
			c-2.209-1.006-4.817-0.035-5.826,2.174c-0.366,0.804-0.464,1.658-0.343,2.472c-0.377-0.729-0.956-1.367-1.723-1.804
			c-2.108-1.203-4.794-0.469-5.997,1.642l-5.785,10.146l-2.225-3.086l6.359-11.152c1.203-2.107,0.469-4.794-1.641-5.997
			c-2.11-1.203-4.795-0.47-5.998,1.642l-4.371,7.668l-1.8-2.498c0.025-0.224,0.042-0.449,0.042-0.681c0-3.286-2.664-5.95-5.95-5.95
			c-3.287,0-5.951,2.664-5.951,5.95c0,2.867,2.028,5.261,4.728,5.824l1.798,2.494l-8.657,1.721
			c-2.381,0.474-3.929,2.787-3.455,5.169c0.416,2.094,2.253,3.54,4.308,3.54c0.284,0,0.572-0.026,0.862-0.084l12.593-2.504
			l2.224,3.086l-11.456,2.276c-2.382,0.474-3.929,2.789-3.456,5.171c0.417,2.092,2.254,3.54,4.309,3.54
			c0.284,0,0.572-0.027,0.861-0.086l15.394-3.059l8.93,12.393c-4.149,3.736-7.523,8.312-9.866,13.455l-14.501-4.771l-1.727-15.601
			c-0.267-2.414-2.436-4.151-4.854-3.887c-2.413,0.269-4.152,2.441-3.886,4.854l1.285,11.61l-3.613-1.188l-1.413-12.763
			c-0.267-2.413-2.437-4.154-4.854-3.887c-2.414,0.269-4.153,2.441-3.887,4.854l0.972,8.772l-2.925-0.963
			c-1.021-1.805-2.956-3.024-5.179-3.024c-3.286,0-5.95,2.663-5.95,5.948c0,3.287,2.664,5.951,5.95,5.951
			c0.866,0,1.688-0.188,2.43-0.521l2.925,0.962l-5.99,6.481c-1.648,1.783-1.539,4.564,0.244,6.213
			c0.846,0.781,1.916,1.168,2.983,1.168c1.184,0,2.363-0.476,3.229-1.412l8.715-9.43l3.613,1.189l-7.928,8.578
			c-1.648,1.781-1.539,4.562,0.244,6.213c0.846,0.781,1.916,1.168,2.983,1.168c1.184,0,2.363-0.477,3.23-1.413l10.651-11.524
			l14.49,4.769c-0.583,2.742-0.896,5.582-0.896,8.495c0,2.855,0.299,5.645,0.86,8.337l-14.506,4.711l-10.606-11.565
			c-1.641-1.791-4.422-1.91-6.212-0.271c-1.79,1.642-1.91,4.422-0.27,6.212l7.895,8.607l-3.618,1.177l-8.677-9.463
			c-1.642-1.789-4.423-1.911-6.213-0.269c-1.789,1.641-1.909,4.422-0.269,6.211l5.965,6.504l-2.867,0.933
			c-0.736-0.326-1.55-0.513-2.407-0.513c-3.286,0-5.95,2.664-5.95,5.95s2.664,5.95,5.95,5.95c2.231,0,4.173-1.229,5.191-3.047
			l2.799-0.908l-1.006,8.769c-0.276,2.412,1.455,4.592,3.867,4.869c0.171,0.019,0.34,0.026,0.507,0.026
			c2.204,0,4.105-1.653,4.362-3.896l1.463-12.755l3.618-1.175l-1.331,11.604c-0.276,2.412,1.455,4.592,3.867,4.869
			c0.171,0.019,0.339,0.026,0.507,0.026c2.204,0,4.105-1.651,4.362-3.896l1.788-15.592l14.52-4.715
			c2.322,5.15,5.674,9.74,9.806,13.491l-8.979,12.354l-15.38-3.122c-2.377-0.48-4.701,1.054-5.184,3.434
			c-0.483,2.379,1.054,4.701,3.434,5.185l11.446,2.324l-2.235,3.075l-12.582-2.555c-2.382-0.478-4.701,1.055-5.185,3.434
			c-0.483,2.381,1.055,4.701,3.434,5.186l8.649,1.757l-1.841,2.531c-2.549,0.673-4.432,2.986-4.432,5.748
			c0,3.286,2.664,5.949,5.951,5.949c3.286,0,5.95-2.663,5.95-5.949c0-0.325-0.033-0.644-0.083-0.953l1.567-2.156l4.34,7.684
			c0.809,1.433,2.298,2.236,3.832,2.236c0.732,0,1.475-0.184,2.158-0.57c2.114-1.192,2.86-3.876,1.666-5.989l-6.313-11.181
			l2.236-3.075l5.744,10.17c0.809,1.431,2.298,2.234,3.832,2.234c0.733,0,1.476-0.184,2.159-0.568
			c2.114-1.193,2.859-3.877,1.666-5.99l-7.718-13.665l8.979-12.354c4.771,2.745,10.141,4.559,15.866,5.175v15.256l-14.276,6.516
			c-2.209,1.009-3.183,3.617-2.175,5.826c0.738,1.617,2.334,2.572,4.003,2.572c0.61,0,1.231-0.128,1.823-0.398l10.625-4.85v3.804
			l-11.68,5.331c-2.209,1.008-3.183,3.616-2.174,5.826c1.008,2.209,3.616,3.18,5.825,2.174l8.028-3.664v3.055
			c-0.954,1.056-1.54,2.45-1.54,3.985c0,3.286,2.664,5.95,5.95,5.95c3.286,0,5.95-2.664,5.95-5.95c0-1.549-0.597-2.955-1.566-4.014
			v-3.026l8.028,3.664c0.593,0.27,1.213,0.396,1.823,0.396c1.669,0,3.265-0.955,4.003-2.57c1.008-2.21,0.035-4.818-2.175-5.826
			l-11.68-5.331v-3.804l10.626,4.85c2.208,1.006,4.815,0.036,5.825-2.174c0.366-0.803,0.464-1.658,0.343-2.471
			c0.377,0.729,0.956,1.366,1.723,1.805c0.688,0.392,1.436,0.578,2.174,0.578c1.528,0,3.013-0.799,3.823-2.222l5.786-10.146
			l2.224,3.086l-6.359,11.154c-1.203,2.107-0.469,4.794,1.642,5.997c0.687,0.392,1.436,0.577,2.173,0.577
			c1.528,0,3.013-0.798,3.824-2.22l4.371-7.667l1.758,2.439c-0.014,0.163-0.024,0.327-0.024,0.495c0,3.286,2.664,5.949,5.95,5.949
			s5.95-2.663,5.95-5.949c0-2.927-2.114-5.354-4.897-5.853l-1.602-2.224l8.656-1.72c2.382-0.475,3.929-2.789,3.455-5.171
			c-0.474-2.383-2.79-3.932-5.169-3.456l-12.594,2.504l-2.224-3.086l11.456-2.276c2.382-0.474,3.929-2.788,3.456-5.17
			c-0.475-2.382-2.79-3.932-5.17-3.456l-15.393,3.061l-8.93-12.394c4.149-3.735,7.523-8.312,9.866-13.455l14.5,4.771l1.728,15.6
			c0.249,2.25,2.153,3.914,4.364,3.914c0.161,0,0.325-0.01,0.489-0.027c2.414-0.268,4.153-2.439,3.887-4.854l-1.285-11.61
			l3.612,1.188l1.413,12.763c0.249,2.25,2.153,3.914,4.365,3.914c0.161,0,0.325-0.011,0.489-0.027
			c2.413-0.267,4.153-2.44,3.886-4.854l-0.971-8.772l3.116,1.025c1.067,1.593,2.884,2.642,4.945,2.642c3.286,0,5.95-2.664,5.95-5.95
			S-72.436,303.236-75.722,303.236z M-125.399,282.624c0,1.954-0.186,3.864-0.522,5.722l-8.464-2.785
			c0.122-0.963,0.192-1.94,0.192-2.937c0-0.965-0.065-1.913-0.181-2.849l8.474-2.75
			C-125.577,278.844-125.399,280.713-125.399,282.624z M-161.775,259.861c-1.869,0.361-3.658,0.947-5.34,1.729l-5.207-7.227
			c3.229-1.715,6.784-2.889,10.547-3.408V259.861z M-152.981,305.385c1.869-0.359,3.658-0.945,5.34-1.728l5.207,7.227
			c-3.229,1.714-6.784,2.89-10.547,3.409V305.385z M-128.615,268.66l-8.478,2.753c-0.928-1.673-2.058-3.218-3.354-4.606l5.234-7.201
			C-132.517,262.201-130.271,265.261-128.615,268.66z M-142.317,254.424l-5.237,7.205c-1.706-0.802-3.525-1.4-5.427-1.768v-8.906
			C-149.172,251.48-145.577,252.676-142.317,254.424z M-178.649,221.158c0.522-0.917,0.659-1.939,0.496-2.906
			c0.432,0.881,1.141,1.63,2.102,2.068l14.276,6.517v15.255c-5.668,0.611-10.986,2.393-15.721,5.09l-8.928-12.389L-178.649,221.158z
			 M-179.448,259.516l5.205,7.224c-1.304,1.384-2.44,2.926-3.375,4.596l-8.466-2.785
			C-184.413,265.154-182.156,262.102-179.448,259.516z M-189.356,282.624c0-1.954,0.186-3.865,0.522-5.724l8.464,2.785
			c-0.123,0.963-0.193,1.941-0.193,2.938c0,0.964,0.066,1.913,0.182,2.847l-8.475,2.753
			C-189.178,286.402-189.356,284.534-189.356,282.624z M-186.141,296.587l8.478-2.753c0.928,1.673,2.058,3.218,3.355,4.605
			l-5.234,7.201C-182.238,303.045-184.484,299.986-186.141,296.587z M-172.439,310.824l5.237-7.207
			c1.707,0.803,3.525,1.4,5.427,1.768v8.908C-165.583,313.766-169.179,312.572-172.439,310.824z M-136.106,344.088
			c-0.523,0.918-0.66,1.94-0.496,2.906c-0.432-0.879-1.141-1.629-2.102-2.068l-14.277-6.516v-15.256
			c5.668-0.609,10.987-2.393,15.722-5.09l8.928,12.391L-136.106,344.088z M-135.307,305.732l-5.205-7.226
			c1.304-1.383,2.44-2.925,3.375-4.596l8.466,2.786C-130.342,300.092-132.6,303.145-135.307,305.732z"/>
	</g>
</g>
<g>
	<path fill="#FCFFFE" d="M-74.959,90.667c-5.085-2.962-11.34-2.109-15.451,1.682l-6.358-3.702l17.836-8.759
		c1.912-0.939,2.7-3.251,1.761-5.163c-0.938-1.914-3.252-2.702-5.163-1.764l-22.44,11.022l-2.322-1.352l17.019-9.42
		c1.864-1.033,2.539-3.379,1.509-5.244c-1.033-1.864-3.381-2.539-5.244-1.507l-16.367,9.059c-0.377-1.539-1.051-3.021-2.028-4.354
		l-6.461-8.828l25.052-0.134c1.656-0.007,2.992-1.357,2.985-3.016c-0.01-1.657-1.358-2.996-3.018-2.984l-24.711,0.132l6.152-8.406
		c0.887-1.21,1.524-2.54,1.917-3.925l16.568,9.473c0.604,0.344,1.263,0.508,1.91,0.508c1.339,0,2.642-0.697,3.354-1.943
		c1.056-1.85,0.415-4.206-1.436-5.264l-17.143-9.801l2.323-1.311l22.56,11.469c0.561,0.285,1.157,0.42,1.744,0.42
		c1.407,0,2.762-0.771,3.442-2.11c0.966-1.899,0.21-4.222-1.69-5.188l-17.983-9.143l6.556-3.697
		c4.06,3.846,10.302,4.786,15.427,1.896c6.295-3.549,8.521-11.531,4.972-17.827c-3.553-6.295-11.533-8.52-17.829-4.97
		c-5.126,2.891-7.551,8.717-6.361,14.182l-6.408,3.613l1.459-19.816c0.156-2.125-1.438-3.974-3.562-4.131
		c-2.129-0.155-3.977,1.438-4.133,3.563l-1.836,24.935l-2.339,1.32l0.477-19.446c0.053-2.13-1.632-3.899-3.762-3.952
		c-2.129-0.057-3.899,1.632-3.951,3.763l-0.453,18.446c-1.595-0.507-3.307-0.7-5.05-0.508l-11,1.195
		c-0.072,0.008-0.143,0.002-0.214,0.006l12.338-22.04c0.81-1.446,0.295-3.274-1.153-4.084c-1.445-0.809-3.273-0.293-4.083,1.153
		l-11.954,21.353l-4.057-9.201c-0.637-1.443-1.511-2.709-2.564-3.767l16.106-9.611c1.83-1.092,2.429-3.46,1.337-5.29
		c-1.092-1.829-3.461-2.429-5.289-1.336l-16.958,10.119V4.312l21.071-14.016c1.773-1.18,2.255-3.574,1.074-5.348
		c-1.18-1.774-3.572-2.254-5.349-1.076l-16.797,11.172v-7.525c5.344-1.646,9.229-6.622,9.229-12.506
		c0-7.228-5.859-13.086-13.087-13.086c-7.227,0-13.086,5.859-13.086,13.086c0,5.884,3.884,10.86,9.229,12.506v7.358l-16.545-11.005
		c-1.772-1.18-4.168-0.7-5.348,1.076c-1.181,1.774-0.699,4.168,1.076,5.348l20.817,13.848V6.83l-16.704-9.967
		c-1.83-1.091-4.198-0.493-5.29,1.336c-1.092,1.83-0.494,4.198,1.336,5.29l15.952,9.518c-1.098,1.077-2.008,2.373-2.663,3.86
		l-4.464,10.124c-0.015,0.037-0.04,0.07-0.057,0.107L-183.375,5.41c-0.844-1.425-2.684-1.897-4.11-1.053
		c-1.427,0.845-1.898,2.685-1.054,4.111l12.502,21.115l-10.097-1.098c-1.65-0.18-3.271-0.02-4.791,0.425l-0.205-19.116
		c-0.021-2.117-1.744-3.817-3.856-3.817c-0.015,0-0.028,0-0.042,0.001c-2.131,0.022-3.84,1.768-3.817,3.898l0.207,19.451
		l-2.32-1.351l-1.491-24.958c-0.127-2.127-1.955-3.741-4.081-3.622c-2.126,0.127-3.748,1.955-3.622,4.081l1.186,19.834l-5.932-3.454
		c1.267-5.446-1.079-11.307-6.164-14.269c-6.246-3.637-14.256-1.522-17.894,4.724c-3.637,6.246-1.522,14.256,4.724,17.894
		c5.085,2.961,11.339,2.108,15.452-1.681l6.076,3.538l-18.108,8.894c-1.913,0.939-2.7,3.251-1.761,5.163
		c0.67,1.365,2.04,2.158,3.465,2.158c0.572,0,1.151-0.127,1.698-0.396l22.714-11.155l2.306,1.342l-17.278,9.562
		c-1.863,1.032-2.538,3.379-1.507,5.244c0.705,1.272,2.021,1.991,3.379,1.991c0.633,0,1.273-0.156,1.864-0.484l16.467-9.113
		c0.359,1.648,1.062,3.236,2.102,4.659l6.225,8.502l-24.787-0.092c-0.004,0-0.008,0-0.012,0c-1.652,0-2.995,1.337-3,2.99
		c-0.006,1.656,1.333,3.005,2.989,3.01l24.979,0.092l-6.393,8.734c-0.948,1.296-1.611,2.73-1.992,4.224l-16.669-9.529
		c-1.85-1.061-4.206-0.414-5.264,1.435c-1.058,1.85-0.415,4.205,1.435,5.263l16.886,9.655l-2.339,1.319L-227.591,72.2
		c-1.899-0.966-4.223-0.209-5.188,1.692c-0.966,1.898-0.208,4.221,1.69,5.187l17.711,9.005l-5.978,3.371
		c-4.06-3.846-10.302-4.784-15.427-1.895c-6.295,3.549-8.521,11.531-4.971,17.826c3.55,6.296,11.531,8.521,17.827,4.97
		c5.126-2.89,7.552-8.715,6.361-14.182l6.125-3.453l-1.482,20.121c-0.157,2.125,1.44,3.975,3.564,4.131
		c0.097,0.006,0.191,0.01,0.287,0.01c2.002,0,3.694-1.547,3.844-3.573l1.859-25.239l2.324-1.31l-0.485,19.74
		c-0.052,2.131,1.633,3.899,3.763,3.951c0.031,0.002,0.064,0.002,0.096,0.002c2.086,0,3.804-1.666,3.855-3.764l0.459-18.744
		c1.643,0.549,3.415,0.761,5.221,0.564l10.374-1.129l-12.486,21.336c-0.837,1.431-0.356,3.269,1.074,4.104
		c0.476,0.277,0.999,0.411,1.513,0.411c1.031,0,2.035-0.531,2.593-1.484l12.648-21.616l4.407,9.995
		c0.718,1.629,1.741,3.029,2.982,4.162L-179.3,116.1c-1.83,1.092-2.428,3.459-1.336,5.289c0.721,1.211,2.002,1.883,3.316,1.883
		c0.672,0,1.354-0.177,1.974-0.545l16.704-9.97v2.687l-20.817,13.848c-1.774,1.182-2.256,3.576-1.076,5.35
		c0.743,1.118,1.967,1.724,3.215,1.724c0.734,0,1.477-0.21,2.132-0.646l16.545-11.006v6.863c-5.345,1.646-9.229,6.623-9.229,12.507
		c0,7.229,5.859,13.086,13.086,13.086c7.228,0,13.087-5.857,13.087-13.086c0-5.884-3.885-10.859-9.229-12.507v-7.031l16.797,11.174
		c1.773,1.179,4.169,0.698,5.349-1.077c1.181-1.771,0.699-4.166-1.074-5.349l-21.071-14.015v-2.67l16.958,10.119
		c1.83,1.092,4.197,0.494,5.289-1.336c1.092-1.83,0.493-4.197-1.337-5.289l-16.426-9.804c1.196-1.114,2.186-2.483,2.884-4.069
		l4.453-10.102l12.723,21.657c0.559,0.952,1.561,1.481,2.589,1.481c0.517,0,1.041-0.134,1.518-0.414
		c1.429-0.838,1.907-2.679,1.067-4.105l-12.483-21.25l10.257,1.115c1.587,0.172,3.15,0.034,4.62-0.373l0.2,18.812
		c0.022,2.116,1.745,3.816,3.857,3.816c0.014,0,0.026,0,0.041,0c2.131-0.021,3.84-1.768,3.816-3.899l-0.211-19.744l2.307,1.343
		l1.509,25.261c0.122,2.049,1.822,3.628,3.848,3.628c0.076,0,0.154-0.002,0.233-0.008c2.126-0.126,3.748-1.952,3.621-4.08
		l-1.202-20.139l6.504,3.788c-1.269,5.446,1.078,11.308,6.163,14.268c6.245,3.638,14.256,1.521,17.894-4.725
		C-66.599,102.314-68.713,94.305-74.959,90.667z"/>
</g>
<g>
	<g>
		<path fill="#F1FFFE" d="M171.686,106.587l-5.944,6.433l-3.755-1.234l5.563-6.021c1.531-1.656,1.431-4.24-0.228-5.771
			c-1.656-1.531-4.24-1.431-5.772,0.226l-8.093,8.759l-3.359-1.104l7.365-7.968c1.532-1.656,1.432-4.241-0.227-5.771
			c-1.655-1.532-4.241-1.431-5.771,0.227l-9.799,10.603c-0.069-0.057-0.133-0.118-0.206-0.168L133,93l7.378-11.971l1.239-0.403
			l9.854,10.744c0.807,0.879,1.905,1.324,3.012,1.324c0.986,0,1.977-0.355,2.76-1.075c1.664-1.524,1.773-4.107,0.25-5.77
			l-7.333-7.997l3.358-1.091l8.062,8.791c0.806,0.878,1.906,1.323,3.01,1.323c0.987,0,1.979-0.355,2.762-1.075
			c1.662-1.524,1.772-4.107,0.248-5.77l-5.541-6.042l3.764-1.222l5.919,6.454c0.805,0.879,1.905,1.325,3.011,1.325
			c0.986,0,1.975-0.355,2.758-1.074c1.663-1.525,1.776-4.109,0.254-5.771l-6.437-7.016l1.087-9.458
			c0.255-2.242-1.354-4.266-3.594-4.523c-2.245-0.247-4.266,1.353-4.524,3.593l-0.998,8.7l-3.761,1.222l0.936-8.146
			c0.258-2.241-1.353-4.266-3.595-4.522c-2.244-0.249-4.265,1.353-4.521,3.593l-1.358,11.849l-3.362,1.091l1.237-10.78
			c0.257-2.24-1.353-4.265-3.593-4.522c-2.245-0.248-4.266,1.353-4.522,3.593L139.1,72.837c-0.021,0-0.037-0.004-0.058-0.004
			L124.5,68l-0.217-14.005l0.56-0.767l14.285,2.9c0.274,0.055,0.549,0.083,0.817,0.083c1.902,0,3.604-1.337,4-3.272
			c0.445-2.21-0.98-4.367-3.192-4.816l-10.631-2.159l2.075-2.857l11.688,2.373c0.274,0.054,0.549,0.082,0.817,0.082
			c1.901,0,3.604-1.336,3.998-3.272c0.45-2.21-0.98-4.366-3.188-4.815l-8.033-1.632l2.322-3.198l8.583,1.743
			c0.275,0.055,0.55,0.082,0.815,0.082c1.904,0,3.607-1.337,4.001-3.272c0.446-2.211-0.979-4.367-3.191-4.816l-9.327-1.894
			L136,16.199c-1.107-1.963-3.6-2.656-5.564-1.547c-1.965,1.108-2.658,3.6-1.547,5.564l4.307,7.625l-2.325,3.199l-4.031-7.138
			c-1.108-1.962-3.597-2.657-5.565-1.548c-1.963,1.109-2.655,3.6-1.547,5.565l5.864,10.384l-2.077,2.858l-5.336-9.446
			c-1.107-1.965-3.599-2.656-5.564-1.548c-1.963,1.109-2.656,3.601-1.547,5.565l7.168,12.693l-0.037,0.053L102.5,52l-7.344-10.608
			v-0.468l13.263-6.053c2.052-0.937,2.955-3.36,2.019-5.411c-0.936-2.053-3.358-2.955-5.41-2.02l-9.87,4.505v-3.534l10.85-4.951
			c2.052-0.937,2.956-3.359,2.021-5.413c-0.938-2.051-3.358-2.954-5.412-2.02l-7.457,3.404v-3.956l7.967-3.636
			c2.051-0.937,2.957-3.36,2.021-5.411c-0.938-2.053-3.359-2.956-5.41-2.02L91.075,8.36l-8.66-3.952
			c-2.052-0.936-4.474-0.034-5.411,2.02c-0.937,2.052-0.032,4.475,2.02,5.411l7.966,3.636v3.956l-7.456-3.404
			c-2.052-0.936-4.477-0.033-5.412,2.02c-0.937,2.053-0.033,4.476,2.018,5.413l10.85,4.951v3.534l-9.87-4.505
			c-2.053-0.935-4.474-0.033-5.412,2.02c-0.341,0.745-0.431,1.54-0.318,2.293c-0.351-0.678-0.888-1.269-1.601-1.674
			c-1.958-1.118-4.454-0.435-5.57,1.524l-5.375,9.426l-2.066-2.868l5.908-10.36c1.118-1.959,0.435-4.454-1.525-5.571
			c-1.958-1.116-4.454-0.435-5.57,1.526l-4.061,7.121l-2.312-3.208l4.338-7.608c1.118-1.958,0.435-4.453-1.524-5.571
			c-1.958-1.116-4.453-0.434-5.569,1.525l-4.716,8.269l-9.336,1.856c-2.213,0.44-3.65,2.59-3.211,4.803
			c0.387,1.943,2.094,3.289,4.003,3.289c0.264,0,0.531-0.026,0.799-0.079l8.59-1.708l2.312,3.208l-8.04,1.598
			c-2.212,0.441-3.65,2.591-3.21,4.803c0.386,1.943,2.092,3.289,4.002,3.289c0.264,0,0.532-0.026,0.801-0.079l11.697-2.326
			l2.065,2.867l-10.64,2.115c-2.214,0.439-3.65,2.59-3.211,4.802c0.386,1.945,2.092,3.289,4.002,3.289
			c0.265,0,0.533-0.025,0.8-0.079l14.299-2.842l0.143,0.198L60,69.5l-16.326,3.35l-0.552-0.181l-1.605-14.49
			c-0.25-2.242-2.267-3.86-4.51-3.61c-2.241,0.248-3.857,2.267-3.609,4.507l1.194,10.786l-3.356-1.105l-1.312-11.854
			c-0.249-2.241-2.263-3.856-4.509-3.61c-2.243,0.249-3.859,2.267-3.61,4.509l0.901,8.148l-3.755-1.236l-0.964-8.705
			c-0.249-2.243-2.268-3.857-4.509-3.61c-2.243,0.248-3.858,2.268-3.611,4.509l1.049,9.461L4.454,73.36
			c-1.529,1.656-1.429,4.24,0.226,5.771c0.788,0.726,1.78,1.084,2.773,1.084c1.098,0,2.195-0.44,3-1.312l5.944-6.432l3.757,1.236
			l-5.565,6.021c-1.531,1.655-1.429,4.241,0.228,5.771c0.785,0.726,1.78,1.085,2.77,1.085c1.1,0,2.196-0.44,3.001-1.312l8.095-8.758
			l3.356,1.104l-7.363,7.968c-1.533,1.656-1.43,4.239,0.226,5.771c0.786,0.726,1.78,1.085,2.771,1.085c1.099,0,2.197-0.442,3-1.312
			l9.896-10.705l0.604,0.199L51.5,92l-10.823,12.793c-0.016,0.012-0.028,0.025-0.044,0.035l-0.111,0.036l-9.854-10.743
			c-1.525-1.661-4.107-1.775-5.77-0.25s-1.773,4.108-0.25,5.771l7.333,7.997l-3.36,1.092l-8.062-8.79
			c-1.525-1.664-4.108-1.774-5.77-0.25c-1.662,1.525-1.773,4.108-0.25,5.771l5.542,6.042l-3.762,1.223l-5.917-6.455
			c-1.525-1.664-4.109-1.773-5.771-0.25c-1.664,1.524-1.774,4.107-0.25,5.771l6.435,7.015l-1.084,9.457
			c-0.258,2.241,1.351,4.267,3.591,4.522c0.159,0.019,0.315,0.026,0.469,0.026c2.049,0,3.815-1.535,4.054-3.619l0.998-8.698
			l3.762-1.224l-0.935,8.146c-0.257,2.242,1.353,4.267,3.592,4.522c0.159,0.019,0.315,0.026,0.472,0.026
			c2.047,0,3.812-1.536,4.051-3.618l1.36-11.849l3.361-1.091l-1.236,10.777c-0.257,2.241,1.35,4.267,3.591,4.522
			c0.159,0.019,0.315,0.026,0.471,0.026c2.047,0,3.813-1.537,4.052-3.618l1.662-14.483l1.308-0.424L57.5,117.5l0.072,14.389
			l-0.271,0.373l-14.287-2.902c-2.212-0.442-4.366,0.98-4.815,3.189c-0.449,2.212,0.98,4.367,3.19,4.816l10.634,2.158l-2.079,2.856
			l-11.688-2.373c-2.209-0.444-4.367,0.979-4.814,3.192c-0.45,2.209,0.979,4.365,3.189,4.814l8.035,1.631l-2.324,3.198l-8.584-1.741
			c-2.208-0.445-4.366,0.979-4.815,3.188c-0.447,2.21,0.98,4.366,3.191,4.815L41.463,161l4.68,8.287
			c0.751,1.33,2.135,2.076,3.56,2.076c0.681,0,1.371-0.172,2.004-0.529c1.965-1.107,2.657-3.602,1.548-5.562l-4.306-7.627
			l2.325-3.199l4.032,7.141c0.75,1.328,2.134,2.076,3.56,2.076c0.679,0,1.37-0.171,2.004-0.528c1.964-1.108,2.656-3.602,1.547-5.565
			l-5.865-10.385l2.077-2.858l5.336,9.448c0.75,1.328,2.135,2.076,3.559,2.076c0.681,0,1.371-0.17,2.006-0.529
			c1.964-1.108,2.656-3.6,1.546-5.562l-7.169-12.693l0.719-0.987L77.5,131.5l9.486,12.188v0.877l-13.261,6.054
			c-2.052,0.937-2.956,3.358-2.02,5.413c0.685,1.5,2.169,2.388,3.718,2.388c0.567,0,1.144-0.119,1.693-0.369l9.87-4.505v3.532
			l-10.85,4.954c-2.051,0.936-2.955,3.355-2.018,5.41c0.936,2.051,3.358,2.955,5.412,2.02l7.456-3.402v3.955l-7.966,3.635
			c-2.052,0.937-2.956,3.358-2.02,5.412c0.687,1.502,2.168,2.391,3.717,2.391c0.568,0,1.145-0.121,1.694-0.37l8.66-3.953
			l8.661,3.953c2.051,0.937,4.474,0.032,5.41-2.021c0.937-2.054,0.029-4.477-2.021-5.412l-7.967-3.635v-3.955l7.457,3.402
			c0.551,0.251,1.128,0.369,1.693,0.369c1.549,0,3.032-0.889,3.719-2.389c0.937-2.055,0.031-4.476-2.021-5.41l-10.851-4.954v-3.532
			l9.871,4.505c2.052,0.937,4.476,0.033,5.41-2.019c0.342-0.747,0.434-1.541,0.318-2.297c0.352,0.679,0.889,1.27,1.602,1.676
			c0.638,0.365,1.334,0.538,2.02,0.538c1.42,0,2.798-0.74,3.553-2.062l5.375-9.426l2.065,2.866l-5.91,10.361
			c-1.116,1.957-0.433,4.451,1.526,5.568c0.639,0.365,1.332,0.537,2.02,0.537c1.419,0,2.797-0.738,3.553-2.062l4.06-7.121
			l2.312,3.207l-4.337,7.609c-1.116,1.959-0.437,4.453,1.526,5.57c0.639,0.365,1.334,0.538,2.019,0.538
			c1.419,0,2.798-0.74,3.552-2.062l4.715-8.271l9.336-1.855c2.214-0.441,3.65-2.589,3.211-4.802c-0.44-2.214-2.59-3.651-4.801-3.209
			l-8.592,1.705l-2.312-3.206l8.039-1.6c2.213-0.439,3.649-2.59,3.211-4.801c-0.44-2.214-2.583-3.654-4.802-3.213l-11.697,2.325
			l-2.066-2.864l10.641-2.115c2.216-0.44,3.65-2.59,3.213-4.803c-0.44-2.213-2.586-3.65-4.805-3.21l-14.254,2.833
			c-0.029-0.104-0.051-0.213-0.086-0.32L124.5,117l12.598-4.814l1.92,0.631l1.604,14.49c0.23,2.09,2.002,3.637,4.057,3.635
			c0.149,0,0.301-0.008,0.452-0.022c2.242-0.248,3.858-2.269,3.609-4.509l-1.193-10.785l3.356,1.104l1.312,11.855
			c0.231,2.089,2.001,3.635,4.056,3.635c0.149,0,0.301-0.009,0.453-0.023c2.242-0.25,3.859-2.27,3.61-4.51l-0.899-8.148l3.756,1.236
			l0.961,8.705c0.234,2.088,2.003,3.635,4.058,3.635c0.149,0,0.302-0.01,0.456-0.025c2.241-0.249,3.857-2.268,3.609-4.509
			l-1.049-9.462l6.461-6.989c1.529-1.656,1.43-4.239-0.229-5.771C175.801,104.828,173.216,104.932,171.686,106.587z M71.31,35.65
			c0.485-0.852,0.614-1.802,0.46-2.7c0.403,0.817,1.06,1.514,1.953,1.921l13.261,6.053v0.467L80,55l-15.467-6.068l-0.446-0.617
			L71.31,35.65z M110.828,149.841c-0.484,0.853-0.612,1.804-0.459,2.7c-0.403-0.816-1.062-1.516-1.953-1.922l-13.264-6.055v-0.879
			L103,132.5l13.939,3.135l1.109,1.543L110.828,149.841z"/>
	</g>
</g>
<text transform="matrix(1 0 0 1 51.8828 97.7578)" font-family="'BoonJot-Regular'" font-size="18">ทรัพยากรน้ำ</text>
</svg>
