<?xml version="1.0" encoding="utf-8"?>
<!-- Generator: Adobe Illustrator 16.0.0, SVG Export Plug-In . SVG Version: 6.00 Build 0)  -->
<!DOCTYPE svg PUBLIC "-//W3C//DTD SVG 1.1//EN" "http://www.w3.org/Graphics/SVG/1.1/DTD/svg11.dtd">
<svg version="1.1" id="Layer_1" xmlns="http://www.w3.org/2000/svg" xmlns:xlink="http://www.w3.org/1999/xlink" x="0px" y="0px"
	 width="454.544px" height="454.545px" viewBox="0 0 454.544 454.545" enable-background="new 0 0 454.544 454.545"
	 xml:space="preserve">
<g>
	<linearGradient id="SVGID_1_" gradientUnits="userSpaceOnUse" x1="9.4238" y1="331.3994" x2="245.4941" y2="331.3994">
		<stop  offset="0" style="stop-color:#9FC7D3"/>
		<stop  offset="0.5507" style="stop-color:#E9E6EE"/>
		<stop  offset="1" style="stop-color:#F9EDF4"/>
	</linearGradient>
	<path fill="url(#SVGID_1_)" d="M223.854,322.219c-4.381,0-8.452,1.307-11.861,3.543c-3.208-15.5-16.936-27.149-33.389-27.149
		c-4.373,0-8.548,0.833-12.393,2.335c0.385-1.811,0.592-3.688,0.592-5.615c0-14.847-12.038-26.885-26.887-26.885
		c-14.467,0-26.256,11.428-26.855,25.743c-3.232-1.373-6.785-2.137-10.521-2.137c-8.757,0-16.525,4.184-21.438,10.664
		c-3.989-3.76-9.367-6.074-15.282-6.074c-12.313,0-22.297,9.981-22.297,22.294c0,0.335,0.014,0.667,0.024,0.996
		c-2.301-0.643-4.729-0.996-7.238-0.996c-14.848,0-26.885,12.038-26.885,26.887c0,14.85,12.037,26.887,26.885,26.887
		c8.885,0,16.764-4.312,21.653-10.958c5.724,10.809,17.077,18.17,30.153,18.17c5.293,0,10.303-1.208,14.775-3.355
		c1.818,10.109,10.654,17.784,21.289,17.784c8.451,0,15.768-4.853,19.33-11.914c3.692,2.938,8.368,4.699,13.459,4.699
		c6.055,0,11.528-2.487,15.455-6.502c4.215,7.777,12.449,13.058,21.921,13.058c13.759,0,24.915-11.153,24.915-24.915
		c0-1.307-0.102-2.587-0.294-3.841c1.569,0.362,3.206,0.561,4.888,0.561c11.949,0,21.641-9.689,21.641-21.636
		C245.494,331.907,235.803,322.219,223.854,322.219z"/>
	<g>
		<rect x="206.046" y="83.79" fill="#BF5C81" width="44.526" height="64.167"/>
		<path fill="#F9F980" d="M228.309,109.133c-3.831,0-8.096,3.518-8.096,7.855v21.802h16.191v-21.802
			C236.405,112.65,232.141,109.133,228.309,109.133z"/>
		<polygon fill="#820058" points="237.897,23.759 233.104,26.68 228.309,29.601 228.309,23.759 228.309,17.915 233.104,20.837 		"/>
		<path fill="#FFFFFF" d="M228.309,36.521c-0.28,0-0.506-0.256-0.506-0.574V14.642c0-0.318,0.227-0.572,0.506-0.572
			c0.279,0,0.506,0.254,0.506,0.572v21.305C228.815,36.265,228.588,36.521,228.309,36.521z"/>
		<polygon fill="#EFEF62" points="228.523,31.391 243.04,58.735 257.553,86.081 228.523,86.081 199.494,86.081 214.008,58.735 		"/>
		<rect x="193.902" y="86.081" fill="#CE116B" width="68.813" height="6.875"/>
		<polygon fill="#BF5C81" points="218.189,163.998 218.189,168.582 214.142,168.582 214.142,163.998 206.046,163.998 
			206.046,168.582 204.022,168.582 204.022,163.998 195.926,163.998 195.926,168.582 191.878,168.582 191.878,163.998 
			183.783,163.998 183.783,168.582 181.759,168.582 181.759,163.998 175.687,163.998 175.687,168.582 169.615,168.582 
			169.615,163.998 163.543,163.998 163.543,168.582 161.52,168.582 161.52,163.998 153.424,163.998 153.424,168.582 
			149.376,168.582 149.376,163.998 143.304,163.998 143.304,168.582 137.233,168.582 137.233,163.998 133.185,163.998 
			133.185,175.457 135.209,175.457 135.209,184.623 141.442,184.623 141.659,317.54 214.383,317.54 214.043,184.623 
			220.213,184.623 220.213,175.457 224.261,175.457 224.261,163.998 		"/>
		<polygon fill="#FF7BAC" points="250.572,131.915 250.572,136.498 246.524,136.498 246.524,131.915 236.405,131.915 
			236.405,136.498 234.381,136.498 234.381,131.915 224.261,131.915 224.261,136.498 218.189,136.498 218.189,131.915 
			210.094,131.915 210.094,136.498 206.046,136.498 206.046,131.915 195.926,131.915 195.926,143.373 197.95,143.373 
			197.95,157.123 210.094,157.123 210.094,317.54 246.524,317.54 246.524,157.123 258.667,157.123 258.667,143.373 262.715,143.373 
			262.715,131.915 		"/>
		<path fill="#F9F980" d="M228.309,178.59c-3.831,0-8.096,3.521-8.096,7.859v25.674h16.191v-25.674
			C236.405,182.11,232.141,178.59,228.309,178.59z"/>
		<path fill="#F9F980" d="M177.711,255.513c-7.661,0-14.167,7.029-14.167,15.711v46.316h28.335v-46.316
			C191.878,262.542,185.372,255.513,177.711,255.513z"/>
		<rect x="106.874" y="83.79" fill="#BF5C81" width="40.478" height="64.167"/>
		<path fill="#F9F980" d="M125.089,110.654c-3.831,0-8.096,3.516-8.096,7.855v24.863h16.191V118.51
			C133.185,114.17,128.921,110.654,125.089,110.654z"/>
		<polygon fill="#820058" points="135.191,25.28 130.828,28.199 126.465,31.122 126.465,25.28 126.465,19.436 130.828,22.358 		"/>
		<path fill="#FFFFFF" d="M126.465,38.129c-0.28,0-0.506-0.257-0.506-0.573V19.157c0-0.317,0.226-0.572,0.506-0.572
			s0.506,0.255,0.506,0.572v18.398C126.971,37.872,126.745,38.129,126.465,38.129z"/>
		<polygon fill="#EFEF62" points="126.465,32.91 140.979,60.641 155.495,88.374 126.465,88.374 97.434,88.374 111.95,60.641 		"/>
		<rect x="92.707" y="86.081" fill="#CE116B" width="68.813" height="6.875"/>
		<polygon fill="#FF7BAC" points="149.376,134.207 149.376,138.79 145.329,138.79 145.329,134.207 137.233,134.207 137.233,138.79 
			133.185,138.79 133.185,134.207 121.042,134.207 121.042,138.79 116.994,138.79 116.994,134.207 108.898,134.207 108.898,138.79 
			102.826,138.79 102.826,134.207 92.707,134.207 92.707,143.373 98.778,143.373 98.778,157.123 106.874,157.123 106.874,317.54 
			145.329,317.54 145.329,157.123 155.448,157.123 155.448,143.373 159.496,143.373 159.496,134.207 		"/>
		<path fill="#F9F980" d="M125.089,180.111c-3.833,0-8.096,3.519-8.096,7.857v24.154h16.191v-24.154
			C133.185,183.63,128.919,180.111,125.089,180.111z"/>
		<rect x="106.874" y="157.123" fill="#EA5E96" width="38.455" height="12.224"/>
		<rect x="210.094" y="157.123" fill="#EA5E96" width="36.431" height="12.224"/>
	</g>
	<linearGradient id="SVGID_2_" gradientUnits="userSpaceOnUse" x1="99.5239" y1="365.4307" x2="376.2861" y2="365.4307">
		<stop  offset="0" style="stop-color:#9FC7D3"/>
		<stop  offset="0.141" style="stop-color:#C0D5DF"/>
		<stop  offset="0.7674" style="stop-color:#E9E6EE"/>
		<stop  offset="1" style="stop-color:#F9EDF4"/>
	</linearGradient>
	<path fill="url(#SVGID_2_)" d="M350.915,354.667c-5.136,0-9.909,1.532-13.906,4.153c-3.761-18.172-19.855-31.829-39.144-31.829
		c-5.127,0-10.021,0.977-14.529,2.737c0.451-2.122,0.694-4.323,0.694-6.583c0-17.405-14.113-31.519-31.521-31.519
		c-16.96,0-30.782,13.397-31.485,30.181c-3.79-1.61-7.955-2.505-12.335-2.505c-10.266,0-19.374,4.904-25.133,12.502
		c-4.677-4.408-10.982-7.121-17.917-7.121c-14.436,0-26.14,11.702-26.14,26.137c0,0.393,0.016,0.782,0.029,1.168
		c-2.697-0.754-5.545-1.168-8.486-1.168c-17.407,0-31.519,14.113-31.519,31.521c0,17.409,14.112,31.521,31.519,31.521
		c10.416,0,19.653-5.055,25.386-12.847c6.71,12.672,20.021,21.302,35.351,21.302c6.206,0,12.079-1.416,17.322-3.934
		c2.132,11.852,12.491,20.85,24.959,20.85c9.908,0,18.485-5.689,22.662-13.968c4.329,3.444,9.811,5.51,15.779,5.51
		c7.098,0,13.515-2.917,18.119-7.623c4.941,9.118,14.595,15.309,25.699,15.309c16.13,0,29.209-13.076,29.209-29.21
		c0-1.532-0.119-3.033-0.344-4.503c1.84,0.425,3.758,0.657,5.73,0.657c14.009,0,25.371-11.359,25.371-25.365
		C376.286,366.025,364.924,354.667,350.915,354.667z"/>
	<linearGradient id="SVGID_3_" gradientUnits="userSpaceOnUse" x1="169.7139" y1="309.1079" x2="446.4761" y2="309.1079">
		<stop  offset="0" style="stop-color:#9FC7D3"/>
		<stop  offset="0.3154" style="stop-color:#C0D5DF"/>
		<stop  offset="0.7674" style="stop-color:#E9E6EE"/>
		<stop  offset="1" style="stop-color:#F9EDF4"/>
	</linearGradient>
	<path fill="url(#SVGID_3_)" d="M421.105,298.345c-5.136,0-9.909,1.532-13.906,4.153c-3.761-18.172-19.854-31.829-39.144-31.829
		c-5.127,0-10.021,0.977-14.529,2.737c0.451-2.122,0.694-4.323,0.694-6.583c0-17.405-14.113-31.519-31.521-31.519
		c-16.96,0-30.782,13.397-31.485,30.181c-3.79-1.61-7.955-2.505-12.335-2.505c-10.266,0-19.374,4.904-25.133,12.502
		c-4.677-4.408-10.982-7.121-17.917-7.121c-14.436,0-26.14,11.702-26.14,26.137c0,0.393,0.016,0.782,0.029,1.168
		c-2.697-0.754-5.545-1.168-8.486-1.168c-17.407,0-31.519,14.113-31.519,31.521c0,17.409,14.112,31.521,31.519,31.521
		c10.416,0,19.653-5.055,25.386-12.847c6.71,12.672,20.021,21.302,35.351,21.302c6.206,0,12.079-1.416,17.322-3.934
		c2.132,11.852,12.491,20.85,24.959,20.85c9.908,0,18.485-5.689,22.662-13.968c4.329,3.444,9.811,5.51,15.779,5.51
		c7.098,0,13.515-2.917,18.119-7.623c4.941,9.118,14.596,15.309,25.699,15.309c16.131,0,29.21-13.076,29.21-29.21
		c0-1.532-0.118-3.033-0.345-4.503c1.84,0.425,3.759,0.657,5.73,0.657c14.009,0,25.371-11.359,25.371-25.365
		C446.476,309.703,435.114,298.345,421.105,298.345z"/>
	<g>
		<path fill="#4D4D4F" d="M40.031,336.02c0.5-0.76,0.83-1.59,0.99-2.49c0.04-0.279,0.215-0.52,0.525-0.719s0.655-0.301,1.035-0.301
			c0.34,0,0.625,0.09,0.855,0.27c0.229,0.182,0.345,0.391,0.345,0.631v0.119c-0.3,1.621-1.05,3.061-2.25,4.32
			c0.9,1.541,1.35,3.451,1.35,5.73c0,2.1-0.325,4.055-0.975,5.865c-0.65,1.811-1.575,2.834-2.775,3.074
			c-0.06,0.02-0.15,0.031-0.27,0.031c-0.34,0-0.64-0.08-0.9-0.24c-0.26-0.18-0.575-0.49-0.945-0.93
			c-0.37-0.439-0.84-1.01-1.41-1.711c-0.57-0.699-1.085-1.299-1.545-1.799c-1.38-1.541-2.46-2.371-3.24-2.49
			c-0.161,0.359-0.24,0.82-0.24,1.379c0,0.701,0.05,1.445,0.15,2.236c0.1,0.789,0.2,1.414,0.3,1.875l0.15,0.658
			c0,0.021,0.004,0.045,0.015,0.076c0.01,0.029,0.015,0.055,0.015,0.074c0,0.24-0.11,0.465-0.33,0.676
			c-0.22,0.209-0.5,0.355-0.84,0.436c-0.2,0.039-0.34,0.059-0.42,0.059c-0.66,0-1.061-0.23-1.2-0.689
			c-0.02-0.08-0.075-0.334-0.165-0.766c-0.09-0.43-0.185-1.068-0.285-1.92c-0.101-0.85-0.15-1.654-0.15-2.414
			c0-0.541,0.03-0.939,0.09-1.201c0.22-1.119,0.78-1.879,1.68-2.279c0.399-0.18,0.82-0.27,1.26-0.27c0.82,0,1.58,0.176,2.28,0.525
			s1.245,0.715,1.635,1.094c0.39,0.381,0.935,0.98,1.635,1.801c0.32,0.379,0.785,0.955,1.395,1.725
			c0.61,0.77,1.005,1.266,1.185,1.484c0.76-1.799,1.14-3.818,1.14-6.059c0-1.621-0.27-3.051-0.81-4.291c-2,1.16-4.26,1.74-6.78,1.74
			c-2.44,0-4.19-0.529-5.25-1.59c-0.44-0.439-0.66-0.961-0.66-1.561c0-1.059,0.63-1.975,1.89-2.744c1.26-0.77,2.7-1.246,4.32-1.426
			c0.52-0.039,0.92-0.061,1.2-0.061C36.491,333.949,38.49,334.641,40.031,336.02z M38.17,337.82c-1.12-1.221-2.63-1.83-4.53-1.83
			c-0.36,0-0.63,0.01-0.81,0.029c-1.04,0.102-1.875,0.352-2.505,0.75c-0.63,0.4-0.945,0.771-0.945,1.111c0,0.18,0.12,0.379,0.36,0.6
			c0.66,0.52,1.74,0.779,3.24,0.779C34.98,339.26,36.71,338.779,38.17,337.82z"/>
		<path fill="#4D4D4F" d="M47.11,340.461c-0.32-0.02-0.585-0.121-0.795-0.301S46,339.77,46,339.529c0-0.059,0.02-0.148,0.06-0.27
			c0.52-1.42,1.445-2.635,2.775-3.645s2.765-1.564,4.305-1.666h0.42c1.34,0,2.39,0.41,3.15,1.23c0.76,0.82,1.14,1.951,1.14,3.391
			c0,0.32-0.01,0.561-0.03,0.721c-0.4,4.52-0.6,8.35-0.6,11.488v1.17c0,0.281-0.14,0.545-0.42,0.797
			c-0.28,0.248-0.62,0.395-1.02,0.434h-0.24c-0.36,0-0.66-0.08-0.9-0.24c-0.24-0.16-0.36-0.369-0.36-0.629v-1.201
			c0-3.238,0.2-7.119,0.6-11.639c0.02-0.16,0.03-0.391,0.03-0.691c0-0.998-0.19-1.699-0.57-2.1c-0.38-0.398-0.8-0.6-1.26-0.6h-0.12
			c-0.66,0.041-1.405,0.371-2.235,0.99c-0.83,0.619-1.425,1.43-1.785,2.43c-0.1,0.281-0.31,0.51-0.63,0.689
			c-0.32,0.182-0.67,0.271-1.05,0.271H47.11z"/>
		<path fill="#4D4D4F" d="M67.39,353.121c-0.36,0.139-0.66,0.209-0.9,0.209c-0.52,0-0.89-0.15-1.11-0.449
			c-0.78-0.98-1.18-2.621-1.2-4.92c-0.06-7.5-0.11-11.541-0.15-12.121v-0.029c0-0.279,0.135-0.541,0.405-0.781
			c0.27-0.238,0.595-0.389,0.975-0.449c0.04,0,0.09-0.004,0.15-0.016c0.06-0.01,0.11-0.014,0.15-0.014c0.34,0,0.63,0.08,0.87,0.24
			c0.24,0.16,0.37,0.369,0.39,0.629c0.04,0.621,0.09,4.701,0.15,12.24c0.02,1.881,0.32,3.199,0.9,3.961
			c0.1,0.119,0.15,0.279,0.15,0.479C68.17,352.539,67.91,352.881,67.39,353.121z"/>
		<path fill="#4D4D4F" d="M85.09,345.17c1.1,2.08,2.51,4.109,4.23,6.09c0.08,0.102,0.12,0.23,0.12,0.391
			c0,0.4-0.25,0.721-0.75,0.959c-0.24,0.121-0.52,0.182-0.84,0.182c-0.48,0-0.83-0.131-1.05-0.391c-1.08-1.34-2.18-3-3.3-4.98
			c-2.78,3.82-5.25,5.73-7.41,5.73c-0.62,0-1.16-0.205-1.62-0.615c-0.46-0.41-0.81-0.914-1.05-1.516
			c-0.24-0.6-0.43-1.359-0.57-2.279c-0.14-0.92-0.23-1.76-0.27-2.52c-0.041-0.76-0.06-1.641-0.06-2.641c0-3.119,0.25-5.82,0.75-8.1
			c0.06-0.279,0.245-0.52,0.555-0.721c0.31-0.199,0.655-0.299,1.035-0.299c0.34,0,0.625,0.084,0.855,0.254s0.345,0.375,0.345,0.615
			c0,0.02-0.005,0.045-0.015,0.074c-0.01,0.031-0.015,0.057-0.015,0.076c-0.5,2.4-0.75,5-0.75,7.799c0,4.381,0.45,6.971,1.35,7.771
			c0.68-0.24,1.57-0.885,2.67-1.936s2.13-2.285,3.09-3.705c-0.021-0.039-0.045-0.09-0.075-0.15c-0.03-0.061-0.055-0.1-0.075-0.119
			l-0.45-0.811c-1.46-2.779-2.19-4.83-2.19-6.15c0-0.24,0.04-0.58,0.12-1.02c0.18-0.92,0.69-1.664,1.53-2.234s1.91-0.855,3.21-0.855
			c1.34,0,2.315,0.34,2.925,1.02s0.915,1.51,0.915,2.49c0,1-0.265,2.076-0.795,3.225c-0.53,1.15-1.295,2.525-2.295,4.125
			c-0.02,0.021-0.045,0.057-0.075,0.105c-0.03,0.051-0.045,0.086-0.045,0.105V345.17z M83.8,343.43c1.3-2.32,1.95-4.219,1.95-5.699
			c0-0.68-0.14-1.166-0.42-1.455c-0.28-0.289-0.71-0.436-1.29-0.436c-0.68,0-1.13,0.09-1.35,0.27c-0.22,0.182-0.38,0.531-0.48,1.051
			c-0.04,0.281-0.06,0.52-0.06,0.721C82.15,339.381,82.7,341.23,83.8,343.43z"/>
		<path fill="#4D4D4F" d="M107.71,352.791c-0.101,0.02-0.24,0.029-0.42,0.029c-0.68,0-1.07-0.23-1.17-0.689
			c-0.12-0.5-0.18-1.891-0.18-4.17c0-1.021,0.015-2.641,0.045-4.861c0.03-2.219,0.045-3.76,0.045-4.619v-0.6
			c-1.58,1.02-2.76,1.66-3.54,1.92c-0.44,0.18-0.84,0.27-1.2,0.27c-0.521,0-0.78-0.24-0.78-0.721c0-0.059,0.02-0.209,0.06-0.449
			c0.06-0.279,0.09-0.529,0.09-0.75c0-0.68-0.195-1.201-0.585-1.561c-0.39-0.359-0.805-0.539-1.245-0.539h-0.15
			c-0.26,0.02-0.56,0.145-0.9,0.375c-0.34,0.23-0.715,0.594-1.125,1.094c-0.41,0.5-0.75,1.25-1.02,2.25s-0.405,2.172-0.405,3.51
			c0,1.201,0.105,2.281,0.315,3.24c0.21,0.961,0.46,1.715,0.75,2.266c0.29,0.551,0.615,1.006,0.975,1.365
			c0.36,0.359,0.665,0.6,0.915,0.721c0.25,0.119,0.465,0.18,0.645,0.18h0.03c0.04,0,0.09-0.01,0.15-0.031
			c0.06-0.02,0.14-0.068,0.24-0.148c0.1-0.08,0.19-0.186,0.27-0.316c0.08-0.129,0.15-0.305,0.21-0.525
			c0.06-0.219,0.09-0.469,0.09-0.75c0-0.26,0.135-0.504,0.405-0.734c0.27-0.229,0.595-0.365,0.975-0.404h0.21
			c0.34,0,0.62,0.08,0.84,0.24c0.22,0.16,0.33,0.359,0.33,0.6c0,1.02-0.33,1.92-0.99,2.699c-0.66,0.781-1.58,1.23-2.76,1.35
			c-0.12,0.021-0.311,0.031-0.57,0.031c-1.74,0-3.14-0.84-4.2-2.52c-1.061-1.682-1.59-4-1.59-6.961c0-2.799,0.565-5.035,1.695-6.705
			c1.129-1.67,2.635-2.605,4.515-2.805c0.14-0.02,0.35-0.029,0.63-0.029c1.1,0,1.99,0.34,2.67,1.02c0.68,0.68,1.02,1.469,1.02,2.369
			c0.919-0.539,2.07-1.34,3.45-2.4c0.5-0.398,0.93-0.6,1.29-0.6c0.24,0,0.445,0.08,0.615,0.24c0.169,0.16,0.274,0.32,0.315,0.48
			l0.06,0.27c0,0.041,0.004,0.1,0.015,0.18c0.01,0.08,0.015,0.15,0.015,0.211c0.04,0.881,0.06,1.889,0.06,3.029
			c0,0.881-0.01,2.361-0.03,4.439c-0.021,2.082-0.03,3.57-0.03,4.471c0,2.121,0.04,3.381,0.12,3.779
			c0,0.021,0.005,0.045,0.015,0.076c0.01,0.029,0.015,0.055,0.015,0.074c0,0.24-0.115,0.465-0.345,0.676
			C108.335,352.564,108.05,352.711,107.71,352.791z"/>
		<path fill="#4D4D4F" d="M103.09,357.291c-0.16-0.162-0.24-0.33-0.24-0.512c0-0.34,0.2-0.629,0.6-0.869
			c0.98-0.561,1.9-0.84,2.76-0.84c0.26,0,0.53,0.029,0.81,0.09c0.5,0.119,0.88,0.359,1.14,0.721c0.26,0.359,0.39,0.76,0.39,1.199
			c0,0.34-0.01,0.785-0.03,1.336c-0.02,0.549-0.03,0.943-0.03,1.184c0,0.461,0.03,0.891,0.09,1.291v0.09
			c0,0.24-0.115,0.465-0.345,0.674c-0.229,0.211-0.515,0.346-0.855,0.406c-0.08,0.02-0.18,0.029-0.3,0.029
			c-0.3,0-0.56-0.07-0.78-0.209c-0.22-0.141-0.34-0.311-0.36-0.51c-0.06-0.461-0.09-1.16-0.09-2.102v-1.889
			c0-0.221-0.02-0.352-0.06-0.391c-0.26,0.039-0.54,0.16-0.84,0.359c-0.24,0.16-0.55,0.24-0.93,0.24
			C103.6,357.59,103.29,357.49,103.09,357.291z"/>
		<path fill="#4D4D4F" d="M128.98,352.73c-0.36,0.32-0.81,0.48-1.35,0.48c-0.3,0-0.55-0.061-0.75-0.182
			c-0.76-0.439-1.275-1.09-1.545-1.949s-0.405-2.01-0.405-3.449c0-6.941-0.05-10.861-0.15-11.76v-0.092
			c0-0.279,0.135-0.533,0.405-0.764c0.27-0.23,0.595-0.375,0.975-0.436c0.08-0.02,0.18-0.029,0.3-0.029
			c0.34,0,0.63,0.074,0.87,0.225c0.24,0.15,0.37,0.355,0.39,0.615c0.1,1.1,0.15,5.08,0.15,11.939c0,1.121,0.115,2.016,0.345,2.686
			c0.229,0.67,0.465,1.074,0.705,1.215c0.3,0.18,0.45,0.42,0.45,0.719C129.37,352.23,129.239,352.49,128.98,352.73z M136.33,352.49
			c-0.3,0.18-0.63,0.27-0.99,0.27c-0.44,0-0.791-0.131-1.05-0.389c-0.84-0.9-1.26-2.682-1.26-5.342c0-6.799-0.05-10.619-0.15-11.459
			v-0.09c0-0.279,0.13-0.529,0.39-0.75c0.259-0.221,0.58-0.371,0.96-0.451c0.08-0.02,0.2-0.029,0.36-0.029
			c0.32,0,0.595,0.08,0.825,0.24c0.229,0.16,0.364,0.359,0.405,0.6c0.1,0.82,0.15,3.461,0.15,7.92v3.721
			c0,0.84,0.055,1.59,0.165,2.25c0.11,0.66,0.225,1.135,0.345,1.424c0.12,0.291,0.229,0.486,0.33,0.586
			c0.14,0.141,0.21,0.32,0.21,0.539C137.02,351.93,136.79,352.25,136.33,352.49z"/>
		<path fill="#4D4D4F" d="M144.49,352.85c-0.2,0.041-0.35,0.061-0.45,0.061c-0.701,0-1.121-0.24-1.26-0.721
			c-0.02-0.078-0.075-0.34-0.165-0.779s-0.185-1.084-0.285-1.936c-0.1-0.85-0.15-1.654-0.15-2.414c0-0.541,0.03-0.939,0.09-1.201
			c0.24-1.18,0.84-1.969,1.8-2.369c0.42-0.16,0.83-0.24,1.23-0.24c0.64,0,1.215,0.074,1.725,0.225c0.51,0.15,1.01,0.432,1.5,0.84
			c0.49,0.41,0.875,0.756,1.155,1.035c0.28,0.281,0.71,0.75,1.29,1.41c0.34,0.381,0.8,0.961,1.38,1.74s0.93,1.24,1.05,1.381
			c0.78-1.561,1.17-3.561,1.17-6c0-2.4-0.41-4.225-1.23-5.477c-0.82-1.248-1.85-2.014-3.09-2.295c-0.4-0.1-0.78-0.148-1.14-0.148
			c-1.02,0-2.045,0.289-3.075,0.869c-1.03,0.58-1.885,1.391-2.565,2.43c-0.34,0.5-0.85,0.75-1.53,0.75
			c-0.101,0-0.25-0.02-0.45-0.061c-0.54-0.119-0.81-0.408-0.81-0.869c0-0.16,0.05-0.32,0.15-0.48c0.9-1.42,2.145-2.568,3.735-3.449
			c1.59-0.881,3.235-1.32,4.935-1.32c0.76,0,1.45,0.08,2.07,0.24c1.84,0.439,3.275,1.465,4.305,3.074
			c1.03,1.611,1.545,3.756,1.545,6.436c0,2.121-0.33,4.09-0.99,5.91c-0.66,1.82-1.61,2.85-2.85,3.09
			c-0.06,0.02-0.16,0.029-0.3,0.029c-0.36,0-0.67-0.08-0.93-0.238c-0.26-0.182-0.58-0.49-0.96-0.932
			c-0.38-0.439-0.85-1.01-1.41-1.709c-0.561-0.699-1.07-1.301-1.53-1.801c-1.36-1.52-2.4-2.35-3.12-2.49
			c-0.14,0.342-0.21,0.781-0.21,1.32c0,0.701,0.05,1.445,0.15,2.236c0.1,0.789,0.2,1.404,0.3,1.844l0.15,0.66
			c0,0.02,0.005,0.045,0.015,0.074c0.01,0.031,0.015,0.057,0.015,0.076c0,0.26-0.12,0.506-0.36,0.734
			C145.15,352.615,144.85,352.77,144.49,352.85z"/>
		<path fill="#4D4D4F" d="M172.929,345.529c0.28,0.182,0.42,0.41,0.42,0.691c0,0.279-0.161,0.549-0.48,0.809
			c-3.06,2.4-5.73,3.602-8.01,3.602h-0.33c-1.14-0.061-2-0.391-2.58-0.99s-0.87-1.33-0.87-2.191c0-0.398,0.06-0.789,0.18-1.17
			c0.08-0.26,0.29-0.488,0.63-0.689c0.34-0.199,0.7-0.299,1.08-0.299h0.06c0.32,0.02,0.59,0.119,0.81,0.299
			c0.22,0.18,0.33,0.391,0.33,0.631c0,0.1-0.01,0.18-0.03,0.24c-0.081,0.238-0.12,0.49-0.12,0.75c0,0.4,0.109,0.705,0.33,0.914
			c0.22,0.211,0.49,0.326,0.81,0.346h0.06c1.4,0,3.27-0.92,5.61-2.76c0.34-0.26,0.76-0.391,1.26-0.391
			C172.429,345.32,172.708,345.391,172.929,345.529z M172.869,336.26c0.3,0.18,0.45,0.432,0.45,0.75c0,0.26-0.13,0.51-0.39,0.75
			c-3.06,2.58-5.71,3.871-7.95,3.871h-0.3c-1.14-0.061-1.98-0.4-2.52-1.021c-0.54-0.619-0.81-1.369-0.81-2.25
			c0-0.379,0.07-0.818,0.21-1.318c0.08-0.26,0.29-0.49,0.63-0.691c0.34-0.199,0.7-0.299,1.08-0.299h0.06
			c0.319,0.02,0.589,0.119,0.81,0.299c0.22,0.18,0.33,0.391,0.33,0.631c0,0.1-0.01,0.18-0.03,0.24
			c-0.101,0.359-0.15,0.65-0.15,0.869c0,0.42,0.109,0.756,0.33,1.006c0.22,0.25,0.45,0.385,0.69,0.404h0.06c1.24,0,3.04-1,5.4-3
			c0.34-0.301,0.77-0.449,1.29-0.449C172.319,336.051,172.588,336.121,172.869,336.26z"/>
	</g>
	<g>
		<path fill="#4D4D4F" d="M187.141,341.701h-0.15c-0.36,0-0.66-0.091-0.9-0.271c-0.24-0.18-0.36-0.399-0.36-0.66v-0.03
			c0.28-6.359,0.42-10.159,0.42-11.399c0-1.98-0.13-3.33-0.39-4.05c-0.021-0.061-0.03-0.14-0.03-0.24c0-0.46,0.27-0.811,0.81-1.05
			c1.78-0.84,4.47-1.261,8.07-1.261c1.6,0,2.935,0.375,4.005,1.125c1.069,0.75,1.605,1.836,1.605,3.256c0,0.3-0.045,1.43-0.135,3.39
			c-0.09,1.96-0.135,3.68-0.135,5.16c0,1.5,0.04,2.88,0.12,4.14v0.03c0,0.28-0.135,0.54-0.405,0.78
			c-0.27,0.239-0.605,0.39-1.005,0.449c-0.02,0-0.07,0.006-0.15,0.016c-0.08,0.01-0.13,0.015-0.15,0.015
			c-0.34,0-0.625-0.079-0.855-0.24c-0.23-0.159-0.355-0.369-0.375-0.63c-0.08-1.3-0.12-2.72-0.12-4.26
			c0-1.52,0.045-3.265,0.135-5.235c0.09-1.97,0.135-3.074,0.135-3.314c0-1.681-1.03-2.521-3.09-2.521c-2.12,0-3.89,0.171-5.31,0.511
			c0.14,0.84,0.21,2.05,0.21,3.63c0,1.28-0.141,5.1-0.42,11.46c-0.02,0.28-0.18,0.545-0.48,0.795
			C187.891,341.546,187.541,341.681,187.141,341.701z"/>
		<path fill="#4D4D4F" d="M204.81,329.251c-0.32-0.02-0.585-0.12-0.795-0.3c-0.21-0.181-0.315-0.391-0.315-0.631
			c0-0.06,0.02-0.149,0.06-0.27c0.52-1.42,1.445-2.635,2.775-3.646c1.33-1.009,2.765-1.564,4.305-1.665h0.42
			c1.34,0,2.39,0.41,3.15,1.23c0.76,0.82,1.14,1.95,1.14,3.39c0,0.32-0.01,0.561-0.03,0.721c-0.4,4.52-0.6,8.35-0.6,11.489v1.17
			c0,0.281-0.14,0.545-0.42,0.796c-0.28,0.249-0.62,0.395-1.02,0.435h-0.24c-0.36,0-0.66-0.08-0.9-0.24
			c-0.24-0.16-0.36-0.37-0.36-0.63v-1.2c0-3.239,0.2-7.119,0.6-11.64c0.02-0.16,0.03-0.39,0.03-0.69c0-0.999-0.19-1.699-0.57-2.1
			c-0.38-0.399-0.8-0.6-1.26-0.6h-0.12c-0.66,0.04-1.405,0.37-2.235,0.989c-0.83,0.62-1.425,1.431-1.785,2.431
			c-0.1,0.28-0.31,0.51-0.63,0.689c-0.32,0.181-0.67,0.271-1.05,0.271H204.81z"/>
		<path fill="#4D4D4F" d="M232.709,325.921c-0.36,0.32-0.81,0.479-1.35,0.479c-0.3,0-0.55-0.06-0.75-0.18
			c-0.06-0.04-0.155-0.09-0.285-0.15c-0.13-0.06-0.245-0.114-0.345-0.165c-0.1-0.049-0.19-0.095-0.27-0.135
			c-1.46-0.66-2.83-0.99-4.11-0.99c-1.4,0-2.39,0.291-2.97,0.87c-0.3,0.301-0.45,0.7-0.45,1.2c0,0.601,0.319,1.235,0.96,1.905
			c0.64,0.67,1.66,1.315,3.06,1.935c1.98,0.881,3.455,1.881,4.425,3c0.97,1.12,1.455,2.24,1.455,3.36c0,0.26-0.03,0.53-0.09,0.81
			c-0.2,1.04-0.775,1.94-1.725,2.7c-0.95,0.76-2.075,1.141-3.375,1.141c-1.94,0-3.56-0.551-4.86-1.65c-0.2-0.18-0.3-0.39-0.3-0.63
			c0-0.34,0.19-0.64,0.57-0.9c0.34-0.22,0.72-0.33,1.14-0.33c0.4,0,0.71,0.101,0.93,0.3c0.84,0.701,1.819,1.051,2.94,1.051
			c0.4,0,0.79-0.13,1.17-0.391c0.38-0.26,0.62-0.68,0.72-1.26c0.04-0.199,0.06-0.36,0.06-0.479c0-0.761-0.385-1.575-1.155-2.445
			c-0.77-0.87-2.005-1.675-3.705-2.415c-1.64-0.74-2.895-1.585-3.765-2.535c-0.87-0.949-1.305-1.915-1.305-2.895
			c0-0.92,0.37-1.76,1.11-2.521c1.28-1.32,3.11-1.979,5.49-1.979c1.879,0,3.75,0.43,5.61,1.29c0.12,0.06,0.47,0.229,1.05,0.51
			c0.32,0.18,0.48,0.43,0.48,0.75C233.069,325.471,232.95,325.721,232.709,325.921z"/>
		<path fill="#4D4D4F" d="M251.729,315.841h0.15c0.36,0,0.665,0.09,0.915,0.27c0.25,0.181,0.375,0.4,0.375,0.66v0.03
			c-0.101,2.92-0.15,7.79-0.15,14.61v5.46c0,0.38-0.02,0.67-0.06,0.869c-0.26,1.341-1.095,2.386-2.505,3.136
			c-1.41,0.75-3.115,1.125-5.115,1.125c-5.141,0-7.71-1.21-7.71-3.63c0-1.16,0.02-2.9,0.06-5.221c0.04-2.319,0.06-3.979,0.06-4.979
			c0-0.64-0.04-1.23-0.12-1.771c-0.081-0.54-0.161-0.939-0.24-1.199c-0.08-0.26-0.16-0.421-0.24-0.48
			c-0.18-0.18-0.27-0.37-0.27-0.57c0-0.379,0.2-0.689,0.6-0.93c0.32-0.199,0.69-0.3,1.11-0.3s0.74,0.101,0.96,0.3
			c0.5,0.42,0.814,0.985,0.945,1.695c0.13,0.71,0.195,1.694,0.195,2.955c0,1.04-0.021,2.715-0.06,5.024
			c-0.041,2.311-0.06,4.035-0.06,5.175c0,0.641,0.379,1.096,1.14,1.365c0.76,0.271,2.11,0.405,4.05,0.405
			c2.56,0,3.979-0.7,4.26-2.101c0.04-0.239,0.06-0.43,0.06-0.569v-5.49c0-6.8,0.05-11.68,0.15-14.64
			c0.02-0.301,0.175-0.57,0.465-0.811C250.984,315.99,251.33,315.861,251.729,315.841z"/>
		<path fill="#4D4D4F" d="M256.019,305.041c0.2,0.02,0.365,0.095,0.495,0.225c0.13,0.131,0.195,0.275,0.195,0.436
			c0,0.119-0.03,0.22-0.09,0.3c-0.54,1.04-1.41,2.03-2.61,2.97c-1.2,0.94-2.56,1.721-4.08,2.34c-0.34,0.141-0.66,0.21-0.96,0.21
			c-0.44,0-0.66-0.18-0.66-0.54c0-0.12,0.03-0.27,0.09-0.45c0.26-0.779,0.39-1.459,0.39-2.04c0-0.52-0.109-0.925-0.33-1.215
			c-0.22-0.289-0.58-0.534-1.08-0.734c-0.3-0.12-0.45-0.32-0.45-0.601c0-0.18,0.07-0.34,0.21-0.479c0.3-0.3,0.67-0.45,1.11-0.45
			c0.14,0,0.291,0.03,0.45,0.09c1.44,0.601,2.16,1.65,2.16,3.15c0,0.5-0.07,0.85-0.21,1.05c0.88-0.48,1.675-1.06,2.385-1.74
			c0.71-0.68,1.226-1.32,1.545-1.92c0.2-0.42,0.6-0.63,1.2-0.63c0.04,0,0.085,0.005,0.135,0.015
			C255.964,305.036,256,305.041,256.019,305.041z"/>
		<path fill="#4D4D4F" d="M258.779,328.771c-0.62-0.14-0.93-0.439-0.93-0.899c0-0.08,0.04-0.221,0.12-0.42
			c0.72-1.32,1.705-2.41,2.955-3.271c1.25-0.859,2.615-1.37,4.095-1.53c0.44-0.039,0.76-0.06,0.96-0.06c2.28,0,4.14,0.86,5.58,2.58
			s2.16,4.07,2.16,7.05c0,2.74-0.72,4.95-2.16,6.63s-3.29,2.64-5.55,2.88c-0.44,0.04-0.77,0.061-0.99,0.061
			c-1.92,0-3.54-0.546-4.86-1.636s-1.98-2.484-1.98-4.185c0-1.06,0.32-1.939,0.96-2.64c0.36-0.36,0.75-0.63,1.17-0.811
			c0.58-0.24,1.17-0.359,1.77-0.359c0.88,0,1.77,0.21,2.67,0.63c0.38,0.16,0.57,0.42,0.57,0.779c0,0.24-0.101,0.461-0.3,0.66
			c-0.32,0.36-0.79,0.54-1.41,0.54c-0.26,0-0.48-0.04-0.66-0.12c-0.5-0.22-0.94-0.33-1.32-0.33h-0.09
			c-0.04,0.021-0.09,0.075-0.15,0.165c-0.06,0.091-0.12,0.245-0.18,0.466c-0.06,0.22-0.09,0.46-0.09,0.72
			c0,1.24,0.445,2.21,1.335,2.91c0.89,0.7,1.905,1.05,3.045,1.05c0.22,0,0.39-0.01,0.51-0.03c0.54-0.06,1.065-0.22,1.575-0.479
			c0.51-0.26,1.015-0.646,1.515-1.155s0.905-1.234,1.215-2.175c0.31-0.94,0.465-2.03,0.465-3.271c0-1.38-0.17-2.6-0.51-3.66
			c-0.34-1.06-0.79-1.875-1.35-2.444c-0.561-0.57-1.136-0.99-1.725-1.261c-0.59-0.27-1.185-0.404-1.785-0.404
			c-0.06,0-0.13,0.005-0.21,0.015c-0.08,0.011-0.14,0.015-0.18,0.015c-1.78,0.2-3.21,1.271-4.29,3.21
			c-0.12,0.24-0.33,0.436-0.63,0.586c-0.3,0.149-0.62,0.225-0.96,0.225C258.979,328.801,258.859,328.791,258.779,328.771z"/>
		<path fill="#4D4D4F" d="M280.619,325.86c-0.26-0.18-0.39-0.409-0.39-0.689c0-0.32,0.16-0.601,0.48-0.84
			c1.52-1.16,2.97-1.74,4.35-1.74c2.22,0,3.7,1.29,4.44,3.87c0.38,1.36,0.57,3.029,0.57,5.01s-0.24,3.771-0.72,5.37
			c-1.02,3.44-2.74,5.16-5.16,5.16c-0.641,0-1.245-0.155-1.815-0.465c-0.57-0.311-1.08-0.75-1.53-1.32s-0.825-1.115-1.125-1.635
			c-0.3-0.521-0.61-1.141-0.93-1.86c-0.3-0.66-0.91-2.33-1.83-5.01c-0.02-0.061-0.03-0.14-0.03-0.24c0-0.24,0.105-0.47,0.315-0.69
			c0.21-0.22,0.475-0.369,0.795-0.449c0.12-0.04,0.3-0.061,0.54-0.061c0.68,0,1.1,0.221,1.26,0.66c0.94,2.7,1.53,4.33,1.77,4.89
			c0.5,1.101,1.06,2.036,1.68,2.806c0.62,0.77,1.06,1.175,1.32,1.215c0.08-0.04,0.214-0.155,0.405-0.345
			c0.19-0.19,0.435-0.54,0.735-1.051c0.3-0.51,0.54-1.084,0.72-1.725c0.439-1.479,0.66-3.13,0.66-4.95c0-1.859-0.17-3.39-0.51-4.59
			c-0.24-0.84-0.55-1.455-0.93-1.845c-0.38-0.391-0.73-0.585-1.05-0.585c-0.46,0-1.11,0.32-1.95,0.96
			c-0.36,0.26-0.761,0.39-1.2,0.39C281.168,326.101,280.878,326.021,280.619,325.86z"/>
		<path fill="#4D4D4F" d="M296.189,341.701h-0.15c-0.36,0-0.66-0.091-0.9-0.271c-0.24-0.18-0.36-0.399-0.36-0.66v-0.03
			c0.28-6.359,0.42-10.159,0.42-11.399c0-1.98-0.13-3.33-0.39-4.05c-0.021-0.061-0.03-0.14-0.03-0.24c0-0.46,0.27-0.811,0.81-1.05
			c1.78-0.84,4.47-1.261,8.07-1.261c1.6,0,2.935,0.375,4.005,1.125c1.069,0.75,1.605,1.836,1.605,3.256c0,0.3-0.045,1.43-0.135,3.39
			c-0.09,1.96-0.135,3.68-0.135,5.16c0,1.5,0.04,2.88,0.12,4.14v0.03c0,0.28-0.135,0.54-0.405,0.78
			c-0.27,0.239-0.605,0.39-1.005,0.449c-0.02,0-0.07,0.006-0.15,0.016c-0.08,0.01-0.13,0.015-0.15,0.015
			c-0.34,0-0.625-0.079-0.855-0.24c-0.23-0.159-0.355-0.369-0.375-0.63c-0.08-1.3-0.12-2.72-0.12-4.26
			c0-1.52,0.045-3.265,0.135-5.235c0.09-1.97,0.135-3.074,0.135-3.314c0-1.681-1.03-2.521-3.09-2.521c-2.12,0-3.89,0.171-5.31,0.511
			c0.14,0.84,0.21,2.05,0.21,3.63c0,1.28-0.141,5.1-0.42,11.46c-0.02,0.28-0.18,0.545-0.48,0.795
			C296.939,341.546,296.589,341.681,296.189,341.701z"/>
		<path fill="#4D4D4F" d="M313.198,312.391c0.5,0.12,0.75,0.38,0.75,0.78c0,0.14-0.05,0.29-0.15,0.45
			c-1.26,1.939-2.755,3.439-4.485,4.5c-1.729,1.06-3.415,1.59-5.055,1.59c-0.259,0-0.45-0.01-0.57-0.03
			c-1.06-0.08-1.895-0.399-2.505-0.96c-0.61-0.56-0.915-1.26-0.915-2.1c0-0.48,0.08-0.92,0.24-1.32
			c0.081-0.24,0.266-0.439,0.555-0.6c0.29-0.16,0.605-0.24,0.945-0.24h0.15c0.28,0.02,0.51,0.11,0.69,0.27
			c0.18,0.16,0.27,0.351,0.27,0.57c0,0.101-0.01,0.18-0.03,0.24c-0.12,0.34-0.18,0.63-0.18,0.87c0,0.82,0.49,1.27,1.47,1.35h0.24
			c0.58,0,1.215-0.13,1.905-0.39s1.49-0.766,2.4-1.516c0.911-0.75,1.735-1.694,2.475-2.835c0.28-0.439,0.75-0.66,1.41-0.66
			C312.988,312.36,313.118,312.371,313.198,312.391z"/>
		<path fill="#4D4D4F" d="M314.668,341.07v-13.949c0-1.24-0.14-2.07-0.42-2.49c-0.12-0.16-0.18-0.32-0.18-0.48
			c0-0.379,0.21-0.689,0.63-0.93c0.259-0.16,0.58-0.24,0.96-0.24c0.42,0,0.74,0.11,0.96,0.33c0.54,0.54,0.81,1.71,0.81,3.51
			c0,1.92,0.01,4.076,0.03,6.466c0.02,2.39,0.03,3.865,0.03,4.425c0.66-0.88,1.279-1.61,1.86-2.19c1.72-1.72,3.229-2.83,4.53-3.33
			c0.1-2.34,0.28-4.95,0.54-7.83c0.04-0.279,0.205-0.529,0.495-0.75c0.29-0.22,0.615-0.34,0.975-0.359h0.09
			c0.34,0,0.625,0.085,0.855,0.255c0.229,0.17,0.345,0.375,0.345,0.615v0.06c-0.101,0.98-0.24,2.295-0.42,3.945
			c-0.18,1.649-0.3,2.845-0.36,3.585h0.36c1.1,0,2,0.285,2.7,0.854c0.7,0.57,1.165,1.226,1.395,1.965
			c0.229,0.74,0.345,1.561,0.345,2.46c0,0.48-0.05,0.95-0.15,1.41c-0.22,1.08-0.74,1.955-1.56,2.625
			c-0.82,0.67-1.77,1.005-2.85,1.005c-0.6,0-1.1-0.115-1.5-0.345c-0.4-0.23-0.695-0.585-0.885-1.064
			c-0.19-0.48-0.32-0.995-0.39-1.545c-0.07-0.551-0.105-1.235-0.105-2.056c0-1.039,0.01-1.88,0.03-2.52
			c-0.88,0.42-1.72,1.03-2.52,1.83c-1.16,1.16-2.45,2.72-3.87,4.68c-0.4,0.54-0.85,0.81-1.35,0.81c-0.18,0-0.385-0.06-0.615-0.18
			c-0.23-0.12-0.416-0.24-0.555-0.36L314.668,341.07z M326.158,336.721c0,1,0.07,1.79,0.21,2.37c0.14,0.58,0.265,0.92,0.375,1.02
			c0.109,0.101,0.214,0.15,0.315,0.15c0.12,0,0.26-0.03,0.42-0.09c0.16-0.061,0.355-0.245,0.585-0.556
			c0.23-0.31,0.395-0.715,0.495-1.215c0.06-0.34,0.09-0.709,0.09-1.109c0-2.34-0.67-3.511-2.01-3.511h-0.36
			C326.198,334.801,326.158,335.781,326.158,336.721z"/>
		<path fill="#4D4D4F" d="M346.647,341.521c-1.9-2.439-3.35-4.14-4.35-5.1c-0.581-0.521-1.05-0.92-1.41-1.2
			c-0.06,1.92-0.17,3.28-0.33,4.08c-0.22,1.181-0.74,1.979-1.56,2.4c-0.44,0.22-0.96,0.329-1.56,0.329
			c-1.42,0-2.515-0.43-3.285-1.29c-0.771-0.859-1.155-2.05-1.155-3.569c0-0.46,0.04-0.86,0.12-1.2c0.22-1.1,0.78-2.035,1.68-2.805
			c0.9-0.77,2.02-1.155,3.36-1.155h0.09v-3.24c0-0.979-0.06-1.785-0.18-2.415c-0.12-0.63-0.26-1.05-0.42-1.26
			s-0.33-0.315-0.51-0.315c-0.34,0-0.74,0.131-1.2,0.391c-0.28,0.14-0.57,0.21-0.87,0.21c-0.42,0-0.73-0.1-0.93-0.3
			c-0.14-0.14-0.21-0.301-0.21-0.48c0-0.319,0.18-0.609,0.54-0.87c0.96-0.58,1.99-0.87,3.09-0.87c0.64,0,1.185,0.12,1.635,0.36
			c0.45,0.24,0.785,0.516,1.005,0.825c0.22,0.311,0.39,0.75,0.51,1.319c0.12,0.57,0.19,1.046,0.21,1.426s0.03,0.899,0.03,1.56v0.12
			c0,0.561-0.005,1.311-0.015,2.25c-0.01,0.94-0.015,1.601-0.015,1.98c0.04,0.02,0.1,0.055,0.18,0.104
			c0.08,0.05,0.14,0.085,0.18,0.105c0.64,0.359,1.59,1.149,2.85,2.369c1.26,1.301,2.06,2.171,2.4,2.61c0.14-8.3,0.22-12.8,0.24-13.5
			c0.02-0.279,0.165-0.529,0.435-0.75c0.27-0.22,0.595-0.34,0.975-0.36h0.15c0.34,0,0.625,0.081,0.855,0.24
			c0.229,0.16,0.345,0.36,0.345,0.601v0.029c-0.06,1.74-0.161,7.28-0.3,16.62c0,0.28-0.105,0.54-0.315,0.78s-0.465,0.36-0.765,0.36
			c-0.24,0-0.485-0.035-0.735-0.105c-0.25-0.07-0.435-0.135-0.555-0.195L346.647,341.521z M338.308,333.99
			c-0.24-0.039-0.43-0.06-0.57-0.06c-0.46,0-0.896,0.155-1.305,0.465c-0.41,0.311-0.685,0.836-0.825,1.575
			c-0.04,0.18-0.06,0.48-0.06,0.9c0,1.14,0.24,1.979,0.72,2.52s1,0.83,1.56,0.87c0.26-0.54,0.42-2.49,0.48-5.85V333.99z"/>
		<path fill="#4D4D4F" d="M357.387,341.641c-0.2,0.04-0.35,0.061-0.45,0.061c-0.701,0-1.121-0.24-1.26-0.721
			c-0.02-0.079-0.075-0.34-0.165-0.779c-0.09-0.44-0.185-1.085-0.285-1.936c-0.1-0.85-0.15-1.654-0.15-2.415
			c0-0.54,0.03-0.939,0.09-1.2c0.24-1.18,0.84-1.97,1.8-2.37c0.42-0.159,0.83-0.239,1.23-0.239c0.64,0,1.215,0.074,1.725,0.225
			c0.51,0.15,1.01,0.431,1.5,0.84c0.49,0.41,0.875,0.756,1.155,1.035c0.28,0.28,0.71,0.75,1.29,1.41c0.34,0.38,0.8,0.96,1.38,1.74
			c0.58,0.779,0.93,1.24,1.05,1.38c0.78-1.561,1.17-3.56,1.17-6c0-2.4-0.41-4.225-1.23-5.476c-0.82-1.249-1.85-2.015-3.09-2.295
			c-0.4-0.1-0.78-0.149-1.14-0.149c-1.02,0-2.045,0.29-3.075,0.87c-1.03,0.58-1.885,1.39-2.565,2.43c-0.34,0.5-0.85,0.75-1.53,0.75
			c-0.101,0-0.25-0.02-0.45-0.061c-0.54-0.119-0.81-0.409-0.81-0.869c0-0.16,0.05-0.32,0.15-0.48c0.9-1.42,2.145-2.569,3.735-3.45
			c1.59-0.88,3.235-1.319,4.935-1.319c0.76,0,1.45,0.08,2.07,0.239c1.84,0.44,3.275,1.466,4.305,3.075
			c1.03,1.61,1.545,3.755,1.545,6.436c0,2.12-0.33,4.09-0.99,5.909c-0.66,1.82-1.61,2.851-2.85,3.091
			c-0.06,0.02-0.16,0.029-0.3,0.029c-0.36,0-0.67-0.08-0.93-0.239c-0.26-0.181-0.58-0.49-0.96-0.931
			c-0.38-0.439-0.85-1.01-1.41-1.71c-0.561-0.699-1.07-1.3-1.53-1.8c-1.36-1.52-2.4-2.35-3.12-2.49c-0.14,0.341-0.21,0.78-0.21,1.32
			c0,0.7,0.05,1.445,0.15,2.235c0.1,0.79,0.2,1.405,0.3,1.845l0.15,0.66c0,0.02,0.005,0.045,0.015,0.074
			c0.01,0.03,0.015,0.056,0.015,0.075c0,0.261-0.12,0.506-0.36,0.735C358.047,341.405,357.747,341.561,357.387,341.641z"/>
		<path fill="#4D4D4F" d="M391.136,322.801h0.12c0.32,0,0.595,0.085,0.825,0.255c0.229,0.17,0.345,0.375,0.345,0.615v0.06
			c-0.14,1.58-0.25,3.756-0.33,6.525c-0.08,2.771-0.15,5.13-0.21,7.08s-0.14,3.045-0.24,3.285c-0.5,0.68-1.03,1.02-1.59,1.02
			c-0.4,0-0.74-0.21-1.02-0.63c-0.3-0.439-0.775-1.375-1.425-2.805s-1.415-3.155-2.295-5.176c-0.88-2.02-1.53-3.489-1.95-4.409
			c-0.3,0.72-0.825,2.045-1.575,3.975c-0.75,1.931-1.4,3.57-1.95,4.92c-0.55,1.35-0.995,2.355-1.335,3.015
			c-0.04,0.061-0.09,0.15-0.15,0.271s-0.11,0.21-0.15,0.27c-0.72,0.34-1.34,0.511-1.86,0.511s-0.78-0.221-0.78-0.66
			c0-2.62-0.085-5.235-0.255-7.845c-0.17-2.61-0.355-4.655-0.555-6.136c-0.2-1.479-0.37-2.38-0.51-2.7
			c-0.041-0.119-0.06-0.21-0.06-0.27c0-0.48,0.34-0.84,1.02-1.08c0.18-0.06,0.37-0.09,0.57-0.09c0.62,0,1.01,0.2,1.17,0.6
			c0.54,1.261,0.96,5.311,1.26,12.15c0.459-1.08,0.99-2.425,1.59-4.035c0.6-1.609,1.095-2.935,1.485-3.975
			c0.39-1.04,0.655-1.67,0.795-1.891c0.36-0.619,0.78-0.93,1.26-0.93c0.2,0,0.405,0.056,0.615,0.165
			c0.21,0.11,0.365,0.215,0.465,0.315l0.18,0.18c0.14,0.22,0.445,0.875,0.915,1.965c0.47,1.09,1.06,2.471,1.77,4.14
			c0.71,1.671,1.325,3.065,1.845,4.186c0.2-6.14,0.379-10.06,0.54-11.76c0.04-0.28,0.2-0.53,0.48-0.75
			C390.426,322.94,390.756,322.821,391.136,322.801z"/>
		<path fill="#4D4D4F" d="M389.697,320.07c-3.78-0.54-6.31-0.97-7.59-1.29c-1.02-0.259-1.78-0.579-2.28-0.96
			c-0.5-0.379-0.75-0.869-0.75-1.47c0-0.64,0.37-1.255,1.11-1.845c0.74-0.59,1.67-0.955,2.79-1.095c0.36-0.04,0.61-0.061,0.75-0.061
			c0.92,0,1.775,0.141,2.565,0.42c0.791,0.28,1.451,0.62,1.98,1.021c0.53,0.4,1.016,0.88,1.455,1.439
			c0.44,0.561,0.775,1.05,1.005,1.471c0.23,0.42,0.435,0.85,0.615,1.289c0.56,0.081,0.84,0.19,0.84,0.33
			c0,0.041-0.02,0.101-0.06,0.181c-0.12,0.16-0.29,0.3-0.51,0.42c-0.04,0.4-0.28,0.66-0.72,0.78c-0.2,0.04-0.34,0.06-0.42,0.06
			c-0.36,0-0.6-0.17-0.72-0.51c0-0.02-0.01-0.05-0.03-0.09C389.707,320.121,389.697,320.091,389.697,320.07z M383.277,315.091
			c-0.04,0-0.1,0.005-0.18,0.015c-0.08,0.011-0.13,0.016-0.15,0.016c-0.36,0.04-0.655,0.145-0.885,0.314
			c-0.229,0.17-0.345,0.365-0.345,0.585c0,0.38,0.12,0.671,0.36,0.87c0.24,0.2,0.76,0.4,1.56,0.6c1.86,0.461,3.64,0.831,5.34,1.11
			C387.597,316.261,385.697,315.091,383.277,315.091z"/>
		<path fill="#4D4D4F" d="M413.337,326.851c0,0.04,0.01,0.09,0.03,0.15c0.02,0.06,0.03,0.1,0.03,0.12
			c0.1,0.46,0.15,0.899,0.15,1.319c0,1.32,0.004,3.021,0.015,5.101c0.01,2.08,0.015,3.19,0.015,3.33c0,0.4-0.02,0.689-0.06,0.869
			c-0.26,1.301-1.09,2.325-2.49,3.075c-1.4,0.75-3.081,1.125-5.04,1.125c-5.081,0-7.62-1.189-7.62-3.569c0-1.16,0.02-2.9,0.06-5.221
			c0.04-2.319,0.06-3.979,0.06-4.979c0-0.64-0.041-1.23-0.12-1.771c-0.08-0.54-0.16-0.939-0.24-1.199s-0.16-0.431-0.24-0.511
			c-0.18-0.14-0.27-0.33-0.27-0.569c0-0.34,0.18-0.631,0.54-0.87c0.34-0.2,0.68-0.3,1.02-0.3c0.36,0,0.67,0.1,0.93,0.3
			c0.5,0.4,0.815,0.955,0.945,1.665c0.13,0.71,0.195,1.694,0.195,2.955c0,1.04-0.02,2.715-0.06,5.024
			c-0.04,2.311-0.06,4.035-0.06,5.175c0,0.641,0.395,1.105,1.185,1.396s2.155,0.435,4.095,0.435c2.62,0,4.07-0.72,4.35-2.16
			c0.04-0.239,0.06-0.43,0.06-0.569c0-0.16,0.024-1.32,0.075-3.48c0.05-2.16,0.075-3.899,0.075-5.22
			c-0.86,0.68-1.811,1.02-2.85,1.02c-1.16,0-2.06-0.35-2.7-1.05c-0.64-0.699-0.96-1.5-0.96-2.399c0-0.16,0.02-0.36,0.06-0.601
			c0.14-0.72,0.555-1.364,1.245-1.935s1.595-0.855,2.715-0.855c1.54,0,2.83,0.78,3.87,2.34c0.32-0.379,0.95-1.18,1.89-2.399
			c0.26-0.36,0.69-0.54,1.29-0.54c0.12,0,0.259,0.021,0.42,0.06c0.46,0.141,0.69,0.4,0.69,0.78c0,0.141-0.041,0.26-0.12,0.36
			c-0.52,0.72-1.52,1.859-3,3.42L413.337,326.851z M410.787,326.641l-0.06-0.12c-0.3-0.68-0.695-1.204-1.185-1.575
			c-0.49-0.369-0.965-0.555-1.425-0.555c-0.82,0-1.29,0.351-1.41,1.05c-0.04,0.24-0.06,0.41-0.06,0.511
			c0,0.52,0.16,0.949,0.48,1.289c0.32,0.341,0.77,0.511,1.35,0.511c0.66,0,1.37-0.32,2.13-0.96
			C410.646,326.771,410.707,326.721,410.787,326.641z"/>
	</g>
	<g>
		<path fill="#4D4D4F" d="M180.049,402.58h-0.21c-0.34,0-0.62-0.08-0.84-0.24c-0.22-0.16-0.33-0.36-0.33-0.6
			c0-1.141,0.025-2.59,0.075-4.351c0.049-1.76,0.075-2.96,0.075-3.6c0-1.24-0.035-2.335-0.105-3.285
			c-0.07-0.95-0.16-1.705-0.27-2.265c-0.11-0.561-0.245-1.016-0.405-1.365c-0.161-0.35-0.311-0.59-0.45-0.72
			c-0.14-0.13-0.29-0.195-0.45-0.195c-1.061,0-2.291,1.9-3.69,5.7c-0.54,1.46-1.045,2.955-1.515,4.484
			c-0.47,1.53-0.86,2.86-1.17,3.99c-0.311,1.13-0.516,1.855-0.615,2.175c-0.82,0.28-1.5,0.42-2.04,0.42c-0.46,0-0.69-0.13-0.69-0.39
			c0-1.819-0.095-4.255-0.285-7.305s-0.395-5.386-0.615-7.005c-0.2-1.64-0.34-2.53-0.42-2.671c-0.041-0.119-0.06-0.21-0.06-0.27
			c0-0.48,0.34-0.84,1.02-1.08c0.18-0.06,0.37-0.09,0.57-0.09c0.62,0,1.01,0.2,1.17,0.6c0.1,0.261,0.26,1.271,0.48,3.03
			c0.1,0.7,0.29,3.04,0.57,7.021c0.06-0.16,0.195-0.59,0.405-1.29s0.375-1.22,0.495-1.561c0.04-0.1,0.165-0.45,0.375-1.05
			s0.36-1,0.45-1.2c0.09-0.199,0.25-0.57,0.48-1.11c0.23-0.539,0.425-0.93,0.585-1.17c0.16-0.239,0.379-0.574,0.66-1.005
			c0.28-0.43,0.555-0.744,0.825-0.944s0.585-0.42,0.945-0.66s0.745-0.41,1.155-0.51c0.41-0.101,0.855-0.15,1.335-0.15
			c0.64,0,1.195,0.09,1.665,0.27c0.47,0.181,0.85,0.49,1.14,0.931c0.29,0.439,0.52,0.875,0.69,1.305
			c0.17,0.431,0.29,1.061,0.36,1.89c0.07,0.83,0.115,1.541,0.135,2.131s0.03,1.444,0.03,2.564v0.48c0,0.659-0.025,1.87-0.075,3.63
			c-0.05,1.76-0.075,3.2-0.075,4.319c0,0.261-0.135,0.506-0.405,0.735S180.429,402.539,180.049,402.58z"/>
		<path fill="#4D4D4F" d="M186.108,390.37c-0.32-0.02-0.585-0.12-0.795-0.3c-0.21-0.181-0.315-0.391-0.315-0.631
			c0-0.06,0.02-0.149,0.06-0.27c0.52-1.42,1.445-2.635,2.775-3.646c1.33-1.009,2.765-1.564,4.305-1.665h0.42
			c1.34,0,2.39,0.41,3.15,1.23c0.76,0.82,1.14,1.95,1.14,3.39c0,0.32-0.01,0.561-0.03,0.721c-0.4,4.52-0.6,8.35-0.6,11.489v1.17
			c0,0.281-0.14,0.545-0.42,0.796c-0.28,0.249-0.62,0.395-1.02,0.435h-0.24c-0.36,0-0.66-0.08-0.9-0.24
			c-0.24-0.16-0.36-0.37-0.36-0.63v-1.2c0-3.239,0.2-7.119,0.6-11.64c0.02-0.16,0.03-0.39,0.03-0.69c0-0.999-0.19-1.699-0.57-2.1
			c-0.38-0.399-0.8-0.6-1.26-0.6h-0.12c-0.66,0.04-1.405,0.37-2.235,0.989c-0.83,0.62-1.425,1.431-1.785,2.431
			c-0.1,0.28-0.31,0.51-0.63,0.689c-0.32,0.181-0.67,0.271-1.05,0.271H186.108z"/>
		<path fill="#4D4D4F" d="M204.468,386.979c-0.26-0.18-0.39-0.409-0.39-0.689c0-0.32,0.16-0.601,0.48-0.84
			c1.52-1.16,2.97-1.74,4.35-1.74c2.22,0,3.7,1.29,4.44,3.87c0.38,1.36,0.57,3.029,0.57,5.01s-0.24,3.771-0.72,5.37
			c-1.02,3.44-2.74,5.16-5.16,5.16c-0.641,0-1.245-0.155-1.815-0.465c-0.57-0.311-1.08-0.75-1.53-1.32s-0.825-1.115-1.125-1.635
			c-0.3-0.521-0.61-1.141-0.93-1.86c-0.3-0.66-0.91-2.33-1.83-5.01c-0.02-0.061-0.03-0.14-0.03-0.24c0-0.24,0.105-0.47,0.315-0.69
			c0.21-0.22,0.475-0.369,0.795-0.449c0.12-0.04,0.3-0.061,0.54-0.061c0.68,0,1.1,0.221,1.26,0.66c0.94,2.7,1.53,4.33,1.77,4.89
			c0.5,1.101,1.06,2.036,1.68,2.806c0.62,0.77,1.06,1.175,1.32,1.215c0.08-0.04,0.214-0.155,0.405-0.345
			c0.19-0.19,0.435-0.54,0.735-1.051c0.3-0.51,0.54-1.084,0.72-1.725c0.439-1.479,0.66-3.13,0.66-4.95c0-1.859-0.17-3.39-0.51-4.59
			c-0.24-0.84-0.55-1.455-0.93-1.845c-0.38-0.391-0.73-0.585-1.05-0.585c-0.46,0-1.11,0.32-1.95,0.96
			c-0.36,0.26-0.761,0.39-1.2,0.39C205.018,387.22,204.728,387.141,204.468,386.979z"/>
		<path fill="#4D4D4F" d="M218.328,389.89c-0.62-0.14-0.93-0.439-0.93-0.899c0-0.08,0.04-0.221,0.12-0.42
			c0.72-1.32,1.705-2.41,2.955-3.271c1.25-0.859,2.615-1.37,4.095-1.53c0.44-0.039,0.76-0.06,0.96-0.06c2.28,0,4.14,0.86,5.58,2.58
			s2.16,4.07,2.16,7.05c0,2.74-0.72,4.95-2.16,6.63s-3.29,2.64-5.55,2.88c-0.44,0.04-0.77,0.061-0.99,0.061
			c-1.92,0-3.54-0.546-4.86-1.636s-1.98-2.484-1.98-4.185c0-1.06,0.32-1.939,0.96-2.64c0.36-0.36,0.75-0.63,1.17-0.811
			c0.58-0.24,1.17-0.359,1.77-0.359c0.88,0,1.77,0.21,2.67,0.63c0.38,0.16,0.57,0.42,0.57,0.779c0,0.24-0.101,0.461-0.3,0.66
			c-0.32,0.36-0.79,0.54-1.41,0.54c-0.26,0-0.48-0.04-0.66-0.12c-0.5-0.22-0.94-0.33-1.32-0.33h-0.09
			c-0.04,0.021-0.09,0.075-0.15,0.165c-0.06,0.091-0.12,0.245-0.18,0.466c-0.06,0.22-0.09,0.46-0.09,0.72
			c0,1.24,0.445,2.21,1.335,2.91c0.89,0.7,1.905,1.05,3.045,1.05c0.22,0,0.39-0.01,0.51-0.03c0.54-0.06,1.065-0.22,1.575-0.479
			c0.51-0.26,1.015-0.646,1.515-1.155s0.905-1.234,1.215-2.175c0.31-0.94,0.465-2.03,0.465-3.271c0-1.38-0.17-2.6-0.51-3.66
			c-0.34-1.06-0.79-1.875-1.35-2.444c-0.561-0.57-1.136-0.99-1.725-1.261c-0.59-0.27-1.185-0.404-1.785-0.404
			c-0.06,0-0.13,0.005-0.21,0.015c-0.08,0.011-0.14,0.015-0.18,0.015c-1.78,0.2-3.21,1.271-4.29,3.21
			c-0.12,0.24-0.33,0.436-0.63,0.586c-0.3,0.149-0.62,0.225-0.96,0.225C218.528,389.92,218.408,389.91,218.328,389.89z"/>
		<path fill="#4D4D4F" d="M237.107,390.37c-0.32-0.02-0.585-0.12-0.795-0.3c-0.21-0.181-0.315-0.391-0.315-0.631
			c0-0.06,0.02-0.149,0.06-0.27c0.52-1.42,1.445-2.635,2.775-3.646c1.33-1.009,2.765-1.564,4.305-1.665h0.42
			c1.34,0,2.39,0.41,3.15,1.23c0.76,0.82,1.14,1.95,1.14,3.39c0,0.32-0.01,0.561-0.03,0.721c-0.4,4.52-0.6,8.35-0.6,11.489v1.17
			c0,0.281-0.14,0.545-0.42,0.796c-0.28,0.249-0.62,0.395-1.02,0.435h-0.24c-0.36,0-0.66-0.08-0.9-0.24
			c-0.24-0.16-0.36-0.37-0.36-0.63v-1.2c0-3.239,0.2-7.119,0.6-11.64c0.02-0.16,0.03-0.39,0.03-0.69c0-0.999-0.19-1.699-0.57-2.1
			c-0.38-0.399-0.8-0.6-1.26-0.6h-0.12c-0.66,0.04-1.405,0.37-2.235,0.989c-0.83,0.62-1.425,1.431-1.785,2.431
			c-0.1,0.28-0.31,0.51-0.63,0.689c-0.32,0.181-0.67,0.271-1.05,0.271H237.107z"/>
		<path fill="#4D4D4F" d="M254.837,402.82h-0.15c-0.36,0-0.66-0.091-0.9-0.271c-0.24-0.18-0.36-0.399-0.36-0.66v-0.03
			c0.28-6.359,0.42-10.159,0.42-11.399c0-1.98-0.13-3.33-0.39-4.05c-0.021-0.061-0.03-0.14-0.03-0.24c0-0.46,0.27-0.811,0.81-1.05
			c1.78-0.84,4.47-1.261,8.07-1.261c1.6,0,2.935,0.375,4.005,1.125c1.069,0.75,1.605,1.836,1.605,3.256c0,0.3-0.045,1.43-0.135,3.39
			c-0.09,1.96-0.135,3.68-0.135,5.16c0,1.5,0.04,2.88,0.12,4.14v0.03c0,0.28-0.135,0.54-0.405,0.78
			c-0.27,0.239-0.605,0.39-1.005,0.449c-0.02,0-0.07,0.006-0.15,0.016c-0.08,0.01-0.13,0.015-0.15,0.015
			c-0.34,0-0.625-0.079-0.855-0.24c-0.23-0.159-0.355-0.369-0.375-0.63c-0.08-1.3-0.12-2.72-0.12-4.26
			c0-1.52,0.045-3.265,0.135-5.235c0.09-1.97,0.135-3.074,0.135-3.314c0-1.681-1.03-2.521-3.09-2.521c-2.12,0-3.89,0.171-5.31,0.511
			c0.14,0.84,0.21,2.05,0.21,3.63c0,1.28-0.141,5.1-0.42,11.46c-0.02,0.28-0.18,0.545-0.48,0.795
			C255.587,402.665,255.237,402.8,254.837,402.82z"/>
		<path fill="#4D4D4F" d="M272.506,390.37c-0.32-0.02-0.585-0.12-0.795-0.3c-0.21-0.181-0.315-0.391-0.315-0.631
			c0-0.06,0.02-0.149,0.06-0.27c0.52-1.42,1.445-2.635,2.775-3.646c1.33-1.009,2.765-1.564,4.305-1.665h0.42
			c1.34,0,2.39,0.41,3.15,1.23c0.76,0.82,1.14,1.95,1.14,3.39c0,0.32-0.01,0.561-0.03,0.721c-0.4,4.52-0.6,8.35-0.6,11.489v1.17
			c0,0.281-0.14,0.545-0.42,0.796c-0.28,0.249-0.62,0.395-1.02,0.435h-0.24c-0.36,0-0.66-0.08-0.9-0.24
			c-0.24-0.16-0.36-0.37-0.36-0.63v-1.2c0-3.239,0.2-7.119,0.6-11.64c0.02-0.16,0.03-0.39,0.03-0.69c0-0.999-0.19-1.699-0.57-2.1
			c-0.38-0.399-0.8-0.6-1.26-0.6h-0.12c-0.66,0.04-1.405,0.37-2.235,0.989c-0.83,0.62-1.425,1.431-1.785,2.431
			c-0.1,0.28-0.31,0.51-0.63,0.689c-0.32,0.181-0.67,0.271-1.05,0.271H272.506z"/>
		<path fill="#4D4D4F" d="M305.056,382.63c0.3,0.2,0.45,0.431,0.45,0.69c0,0.28-0.13,0.52-0.39,0.72c-1,0.86-1.88,1.71-2.64,2.55
			c1.08,1.34,1.62,3.011,1.62,5.01c0,0.601-0.04,1.17-0.12,1.71c-0.16,1.12-0.405,2.365-0.735,3.735s-0.61,2.45-0.84,3.24
			c-0.23,0.79-0.365,1.215-0.405,1.274c-0.24,0.601-0.75,0.9-1.53,0.9h-0.15c-0.32-0.021-0.575-0.115-0.765-0.285
			c-0.19-0.17-0.285-0.364-0.285-0.585c0-0.1,0.01-0.18,0.03-0.24c0.94-2.959,1.58-5.619,1.92-7.979c0.08-0.68,0.12-1.16,0.12-1.44
			c0-1.14-0.23-2.189-0.69-3.149c-1.581,2.02-3.056,4.21-4.425,6.569c-1.37,2.36-2.455,4.541-3.255,6.54
			c-0.56,0.66-1.12,0.99-1.68,0.99c-0.4,0-0.72-0.221-0.96-0.66c-0.22-0.38-0.59-1.475-1.11-3.285c-0.521-1.81-0.92-3.585-1.2-5.325
			c-0.1-0.659-0.15-1.229-0.15-1.71c0-2.64,0.95-4.72,2.85-6.239c1.54-1.24,3.38-1.86,5.52-1.86c1.74,0,3.25,0.42,4.53,1.26
			c0.92-0.939,1.69-1.68,2.31-2.22c0.34-0.28,0.74-0.42,1.2-0.42C304.556,382.42,304.816,382.49,305.056,382.63z M299.116,386.92
			c-0.94-0.74-2.02-1.11-3.24-1.11c-1.121,0-2.1,0.3-2.94,0.9c-1.521,1.061-2.28,2.67-2.28,4.83c0,0.54,0.04,1.05,0.12,1.53
			c0.22,1.38,0.6,3.04,1.14,4.979C293.956,393.93,296.356,390.22,299.116,386.92z"/>
	</g>
</g>
</svg>
