<?xml version="1.0" encoding="utf-8"?>
<!-- Generator: Adobe Illustrator 16.0.0, SVG Export Plug-In . SVG Version: 6.00 Build 0)  -->
<!DOCTYPE svg PUBLIC "-//W3C//DTD SVG 1.1//EN" "http://www.w3.org/Graphics/SVG/1.1/DTD/svg11.dtd">
<svg version="1.1" id="Layer_1" xmlns="http://www.w3.org/2000/svg" xmlns:xlink="http://www.w3.org/1999/xlink" x="0px" y="0px"
	 width="312.987px" height="301.299px" viewBox="0 0 312.987 301.299" enable-background="new 0 0 312.987 301.299"
	 xml:space="preserve">
<g>
	<path fill="#E8E8E8" d="M228.018,150.889c14.195-27.592,3.099-58.971-20.32-43.241c29.732-23.16,4.176-61.507-21.798-41.517
		c28.912-41.416-0.008-83.438-37.375-39.71c-55.417,64.851-24.406,182.555,9.795,178.024
		C179.405,201.645,217.03,172.24,228.018,150.889z"/>
	<path fill="#F5F5F5" d="M261.688,191.57c26.538-16.096,33.486-48.645,5.293-47.479c37.449-4.198,35.722-50.235,3.127-46.795
		c46.291-20.188,43.629-71.121-11.094-53.395c-81.149,26.299-116.267,142.844-84.748,156.867
		C193.713,209.411,241.156,204.021,261.688,191.57z"/>
	<path fill="#533E29" d="M194.332,272.716l67.074,21.486l35.475-94.831l-65.226-26.202l-12.354,32.952l-9.989-5.298l-14.391,33.639
		l12.058,4.529L194.332,272.716z M217.641,210.544l-8.93,23.825l-6.078-2.114l9.129-23.599L217.641,210.544z"/>
	<g>
		<g>
			<path fill="#3D392F" d="M148.161,247.186c0,0,2.556,6.561,0.85,12.946c-0.219,0.801-1.071,5.048,0.802,9.141
				c2.007,4.29,8.054,2.42,10.267-3.395c2.903-7.775-3.279-23.246-3.279-23.246L148.161,247.186z"/>
			<path fill="#3D392F" d="M97.091,259.933c0,0-0.137,2.894,2.474,7.62c2.659,4.712,5.984,5.038,9.933,8.147
				c3.956,3.096,4.242,11.829-2.892,10.844c-7.141-1.013-11.102-6.965-14.34-11.825c-2.827-4.26-7.744-15.802-7.744-15.802
				L97.091,259.933z"/>
		</g>
		<path fill="#71C1E8" d="M170.42,207.197c3.803,39.729-28.293,58.744-66.581,58.473c-35.724-0.253-47.358-21.938-51.754-48.653
			c-4.4-26.718,3.376-71.38,4.979-75.725c1.61-4.346,3.18-36.157,48.071-38.737c44.904-2.576,55.847,42.577,55.847,42.577
			S166.607,167.453,170.42,207.197z"/>
		<path fill="#231F20" d="M69.708,145.93c-1.327,0.356-1.805,2.903-1.065,5.708c0.74,2.801,2.422,4.787,3.752,4.43
			c1.328-0.355,1.808-2.914,1.064-5.718C72.718,147.558,71.037,145.574,69.708,145.93z"/>
		<path fill="#231F20" d="M103.874,138.133c-1.331,0.357-1.807,2.906-1.062,5.709c0.738,2.805,2.419,4.788,3.743,4.438
			c1.339-0.357,1.816-2.917,1.072-5.722C106.882,139.758,105.197,137.777,103.874,138.133z"/>
		<path fill="#D93637" d="M95.712,179.276c17.51-5.274,11.216-19.182,11.216-19.182c-12.33,0.762-30.219,8.199-30.219,8.199
			S78.379,184.498,95.712,179.276z"/>
		<g>
			<path fill="#3D392F" d="M190.938,211.224c0,0-0.506,2.445,4.009,10.419c4.514,7.975,11.76,5.279,13.991,0.84
				c2.227-4.432-3.335-8.381-3.335-8.381c2.41,1.545,7.346,1.367,5.869-2.095c-1.472-3.462-14.335-4.717-14.335-4.717
				L190.938,211.224z"/>
			<path fill="#E6E7E8" d="M189.435,209.666c0,0,0.137,2.698,1.84,3c3.021,0.538,6.453-2.408,7.229-4.747
				c0.778-2.34-2.651-3.324-2.651-3.324L189.435,209.666z"/>
			<path fill="#71C1E8" d="M163.275,191.931c9.003,3.281,26.673,18.166,26.673,18.166l0.442-0.059
				c2.733-0.357,4.969-2.357,5.632-5.028l0,0c-10.58-26.078-30.396-31.971-30.396-31.971
				C159.146,172.42,154.271,188.65,163.275,191.931z"/>
		</g>
		<g>
			<path fill="#3D392F" d="M33.14,159.178c0,0,0.503-2.443-4.011-10.425c-4.513-7.971-11.762-5.272-13.993-0.839
				c-2.223,4.422,3.332,8.385,3.332,8.385c-2.408-1.551-7.341-1.377-5.867,2.086c1.473,3.46,14.333,4.713,14.333,4.713
				L33.14,159.178z"/>
			<path fill="#E6E7E8" d="M34.637,160.737c0,0-0.139-2.707-1.841-3.002c-3.018-0.532-6.452,2.4-7.23,4.739
				c-0.775,2.339,2.656,3.334,2.656,3.334L34.637,160.737z"/>
			<path fill="#71C1E8" d="M60.8,178.475c-9.002-3.293-26.675-18.167-26.675-18.167l-0.447,0.057
				c-2.729,0.354-4.967,2.348-5.628,5.025l0,0c10.579,26.077,30.394,31.964,30.394,31.964
				C64.927,197.985,69.805,181.752,60.8,178.475z"/>
		</g>
		<path fill="#533E29" d="M107.414,187.461l2.24,4.028l-7.229,7.229c0,0-9.53,15.91,27.001,29.209l4.035,13.542l-17.97,3.38
			c-38.095-24.4-20.922-46.978-20.922-46.978l-0.801-4.579l2.145-3.206L107.414,187.461z"/>
	</g>
	<g>
		<path d="M154.544,93.436h0.122c0.292,0,0.539,0.073,0.742,0.219c0.203,0.146,0.304,0.325,0.304,0.536v0.024
			c-0.082,2.369-0.122,6.32-0.122,11.853v4.43c0,0.308-0.017,0.543-0.049,0.705c-0.211,1.087-0.888,1.935-2.032,2.544
			c-1.144,0.608-2.527,0.913-4.149,0.913c-4.17,0-6.255-0.982-6.255-2.945c0-0.941,0.016-2.353,0.049-4.235
			c0.032-1.882,0.048-3.229,0.048-4.04c0-0.519-0.033-0.998-0.097-1.436c-0.065-0.438-0.13-0.762-0.195-0.973
			c-0.065-0.21-0.13-0.341-0.195-0.39c-0.146-0.146-0.219-0.3-0.219-0.463c0-0.307,0.162-0.559,0.486-0.754
			c0.259-0.162,0.56-0.243,0.901-0.243s0.6,0.082,0.779,0.243c0.405,0.34,0.661,0.799,0.767,1.375
			c0.105,0.576,0.158,1.375,0.158,2.397c0,0.844-0.017,2.203-0.049,4.076c-0.033,1.875-0.048,3.273-0.048,4.198
			c0,0.52,0.308,0.889,0.924,1.107c0.617,0.22,1.712,0.329,3.286,0.329c2.076,0,3.228-0.568,3.456-1.704
			c0.033-0.194,0.049-0.349,0.049-0.462v-4.454c0-5.517,0.041-9.476,0.122-11.877c0.016-0.244,0.142-0.462,0.377-0.657
			C153.939,93.557,154.22,93.453,154.544,93.436z"/>
		<path d="M169.901,101.614c-0.292,0.26-0.657,0.389-1.095,0.389c-0.243,0-0.446-0.048-0.608-0.146
			c-0.049-0.032-0.125-0.073-0.231-0.122c-0.106-0.048-0.199-0.093-0.28-0.134c-0.082-0.04-0.155-0.077-0.219-0.109
			c-1.185-0.536-2.296-0.803-3.334-0.803c-1.136,0-1.939,0.236-2.409,0.706c-0.244,0.244-0.365,0.568-0.365,0.974
			c0,0.487,0.259,1.002,0.779,1.545c0.519,0.543,1.347,1.067,2.483,1.569c1.606,0.715,2.802,1.526,3.589,2.434
			c0.787,0.909,1.181,1.817,1.181,2.726c0,0.211-0.025,0.43-0.073,0.657c-0.163,0.844-0.629,1.574-1.4,2.19
			c-0.771,0.617-1.683,0.926-2.738,0.926c-1.574,0-2.888-0.447-3.943-1.339c-0.162-0.146-0.243-0.316-0.243-0.511
			c0-0.276,0.154-0.519,0.462-0.73c0.276-0.178,0.584-0.268,0.925-0.268c0.324,0,0.576,0.082,0.754,0.243
			c0.681,0.569,1.476,0.853,2.385,0.853c0.324,0,0.64-0.105,0.949-0.317c0.308-0.21,0.503-0.551,0.584-1.022
			c0.032-0.162,0.048-0.292,0.048-0.389c0-0.617-0.312-1.278-0.937-1.984s-1.627-1.359-3.006-1.959
			c-1.331-0.6-2.349-1.286-3.054-2.057c-0.706-0.77-1.059-1.553-1.059-2.348c0-0.746,0.3-1.428,0.9-2.045
			c1.038-1.071,2.523-1.606,4.454-1.606c1.525,0,3.042,0.349,4.551,1.047c0.097,0.048,0.381,0.186,0.852,0.414
			c0.259,0.146,0.389,0.349,0.389,0.608C170.193,101.249,170.096,101.451,169.901,101.614z"/>
		<path d="M182.289,108.428c0.228,0.147,0.341,0.333,0.341,0.561c0,0.227-0.13,0.446-0.389,0.657
			c-2.482,1.947-4.648,2.921-6.499,2.921h-0.268c-0.925-0.049-1.623-0.317-2.093-0.803c-0.471-0.487-0.706-1.079-0.706-1.777
			c0-0.324,0.049-0.64,0.146-0.949c0.064-0.211,0.235-0.397,0.511-0.56s0.568-0.243,0.876-0.243h0.049
			c0.259,0.016,0.479,0.097,0.657,0.243c0.178,0.146,0.268,0.316,0.268,0.511c0,0.082-0.008,0.146-0.024,0.195
			c-0.065,0.194-0.097,0.397-0.097,0.608c0,0.325,0.089,0.572,0.268,0.742c0.178,0.17,0.397,0.264,0.657,0.28h0.049
			c1.136,0,2.653-0.747,4.552-2.239c0.275-0.211,0.616-0.317,1.022-0.317C181.883,108.258,182.11,108.314,182.289,108.428z
			 M182.241,100.908c0.243,0.146,0.365,0.35,0.365,0.608c0,0.211-0.105,0.414-0.316,0.609c-2.482,2.093-4.632,3.14-6.449,3.14
			h-0.244c-0.924-0.049-1.606-0.325-2.044-0.828c-0.438-0.502-0.657-1.111-0.657-1.825c0-0.308,0.057-0.665,0.17-1.07
			c0.064-0.211,0.235-0.398,0.511-0.56c0.276-0.162,0.568-0.244,0.876-0.244h0.048c0.259,0.017,0.479,0.098,0.657,0.244
			c0.179,0.146,0.268,0.316,0.268,0.511c0,0.082-0.008,0.146-0.024,0.195c-0.081,0.292-0.121,0.528-0.121,0.706
			c0,0.341,0.088,0.612,0.268,0.815c0.178,0.203,0.365,0.312,0.56,0.329h0.049c1.006,0,2.466-0.812,4.381-2.434
			c0.275-0.244,0.624-0.365,1.046-0.365C181.794,100.737,182.013,100.794,182.241,100.908z"/>
		<path d="M190.491,114.659c-0.146,0.048-0.292,0.073-0.438,0.073c-0.487,0-0.795-0.17-0.925-0.511
			c-0.357-0.989-0.535-2.515-0.535-4.576c0-1.719,0.073-5.014,0.219-9.881c0-0.113,0.004-0.279,0.012-0.499
			c0.008-0.219,0.012-0.377,0.012-0.475c0-1.768-0.211-3.058-0.633-3.869c-0.422-0.812-1.209-1.468-2.361-1.972
			c-0.032,0-0.073-0.016-0.122-0.048c-0.049-0.032-0.082-0.048-0.098-0.048c-0.097-0.227-0.146-0.462-0.146-0.706
			c0-0.568,0.308-0.852,0.925-0.852h0.097c0.098,0,0.227,0.004,0.389,0.012s0.292,0.012,0.39,0.012c2.855,0,5.744-0.471,8.665-1.412
			c0.146-0.048,0.3-0.073,0.462-0.073c0.502,0,0.819,0.162,0.949,0.487c0.033,0.098,0.049,0.17,0.049,0.219
			c0,0.39-0.276,0.682-0.828,0.876c-2.304,0.746-4.721,1.226-7.252,1.436c0.649,0.617,1.103,1.375,1.363,2.275
			c0.259,0.901,0.39,2.041,0.39,3.419c0,0.114-0.004,0.28-0.012,0.499c-0.008,0.219-0.012,0.394-0.012,0.523
			c-0.13,4.933-0.195,8.105-0.195,9.517c0,2.125,0.154,3.626,0.462,4.502c0.016,0.048,0.024,0.114,0.024,0.195
			c0,0.178-0.077,0.353-0.231,0.523C190.957,114.476,190.75,114.594,190.491,114.659z"/>
		<path d="M202.052,114.659c-1.46,0-2.653-0.475-3.578-1.424s-1.387-2.024-1.387-3.225c0-1.314,0.527-2.377,1.582-3.188
			c-0.909-0.244-1.684-0.669-2.324-1.278c-0.641-0.608-0.961-1.391-0.961-2.348c0-0.308,0.024-0.592,0.073-0.853
			c0.178-0.94,0.677-1.719,1.497-2.336c0.819-0.617,1.781-0.925,2.884-0.925c1.054,0,2.044,0.308,2.969,0.925
			c0.21,0.13,0.316,0.309,0.316,0.535c0,0.228-0.122,0.43-0.365,0.608c-0.26,0.195-0.576,0.292-0.949,0.292
			c-0.276,0-0.495-0.057-0.657-0.17c-0.536-0.357-1.087-0.536-1.655-0.536c-1.006,0-1.606,0.528-1.801,1.583
			c-0.049,0.194-0.073,0.405-0.073,0.632c0,0.277,0.028,0.528,0.085,0.755c0.057,0.227,0.158,0.425,0.304,0.596
			c0.146,0.17,0.276,0.321,0.39,0.451c0.113,0.13,0.3,0.243,0.56,0.341c0.259,0.097,0.451,0.174,0.572,0.231
			c0.122,0.057,0.345,0.109,0.67,0.157c0.324,0.049,0.531,0.078,0.62,0.086c0.089,0.008,0.308,0.028,0.657,0.061
			c0.349,0.032,0.531,0.048,0.548,0.048c0.454,0.048,0.681,0.203,0.681,0.462c0,0.13-0.065,0.289-0.195,0.475
			s-0.259,0.337-0.389,0.45l-0.17,0.195c-0.114,0.032-0.312,0.057-0.596,0.073c-0.284,0.017-0.523,0.048-0.718,0.098
			c-0.195,0.048-0.402,0.142-0.621,0.279c-0.219,0.138-0.39,0.382-0.511,0.73c-0.122,0.349-0.183,0.791-0.183,1.327
			c0,0.86,0.32,1.598,0.961,2.215c0.641,0.616,1.343,0.925,2.105,0.925c1.412,0,2.41-1.42,2.994-4.259
			c0.308-1.542,0.462-3.301,0.462-5.281c0-1.104-0.024-2.118-0.073-3.042v-0.024c0-0.227,0.11-0.438,0.329-0.633
			c0.219-0.195,0.49-0.316,0.815-0.365c0.016,0,0.057-0.003,0.122-0.012s0.105-0.012,0.122-0.012c0.276,0,0.507,0.065,0.694,0.194
			c0.186,0.13,0.288,0.301,0.304,0.512c0.048,0.973,0.073,2.02,0.073,3.139c0,2.126-0.154,3.968-0.462,5.525
			C206.976,112.655,205.069,114.659,202.052,114.659z"/>
		<path d="M223.955,98.279c0.211,0.146,0.317,0.325,0.317,0.536c0,0.21-0.106,0.414-0.317,0.608c-1.574,1.314-3.407,2.531-5.5,3.65
			c1.606,0.617,2.852,1.513,3.736,2.69c0.884,1.176,1.326,2.396,1.326,3.663c0,0.357-0.032,0.69-0.097,0.998
			c-0.243,1.201-0.913,2.219-2.008,3.055c-1.095,0.835-2.519,1.253-4.271,1.253c-1.119,0-1.874-0.422-2.263-1.266
			c-0.39-0.843-0.584-2.328-0.584-4.453c0-1.136,0.065-2.767,0.195-4.892c0.033-0.356,0.049-0.608,0.049-0.754
			c0.016-0.228,0.024-0.551,0.024-0.974c0-0.714-0.097-1.209-0.292-1.485c-0.422,0.341-0.835,0.949-1.241,1.826
			c-0.195,0.438-0.608,0.657-1.242,0.657h-0.194c-0.228-0.016-0.41-0.089-0.548-0.219s-0.207-0.284-0.207-0.463
			c0-0.113,0.016-0.203,0.049-0.268c0.536-1.184,1.079-2.012,1.631-2.482c0.6-0.503,1.282-0.754,2.044-0.754
			c0.52,0,0.941,0.097,1.266,0.292s0.552,0.471,0.682,0.828s0.21,0.669,0.244,0.937c0.032,0.268,0.048,0.597,0.048,0.986
			c1.574-0.763,3.424-2.028,5.549-3.797c0.275-0.227,0.6-0.341,0.974-0.341C223.55,98.109,223.761,98.166,223.955,98.279z
			 M216.703,104.243c-0.114,2.076-0.17,3.585-0.17,4.526c0,2.872,0.308,4.308,0.925,4.308h0.024c2.125,0,3.359-0.876,3.699-2.628
			c0.064-0.324,0.098-0.584,0.098-0.779c0-1.103-0.41-2.178-1.229-3.225C219.229,105.398,218.114,104.664,216.703,104.243z"/>
		<path d="M227.265,113.904v-11.316c0-1.006-0.113-1.68-0.34-2.02c-0.098-0.13-0.146-0.26-0.146-0.39
			c0-0.307,0.17-0.559,0.511-0.754c0.21-0.13,0.47-0.195,0.779-0.195c0.341,0,0.6,0.089,0.779,0.268
			c0.438,0.438,0.657,1.387,0.657,2.847c0,1.558,0.008,3.307,0.024,5.246c0.016,1.939,0.024,3.136,0.024,3.59
			c0.535-0.714,1.038-1.307,1.509-1.777c1.396-1.396,2.62-2.296,3.675-2.702c0.081-1.898,0.227-4.016,0.438-6.353
			c0.032-0.227,0.167-0.429,0.401-0.608c0.235-0.178,0.499-0.276,0.792-0.292h0.073c0.276,0,0.507,0.069,0.693,0.207
			c0.187,0.138,0.28,0.305,0.28,0.5v0.048c-0.082,0.795-0.195,1.862-0.341,3.201c-0.146,1.338-0.243,2.308-0.292,2.908h0.292
			c0.892,0,1.622,0.231,2.19,0.693c0.567,0.462,0.945,0.994,1.132,1.594c0.186,0.601,0.28,1.266,0.28,1.996
			c0,0.39-0.041,0.771-0.122,1.144c-0.178,0.876-0.6,1.586-1.265,2.13c-0.666,0.543-1.436,0.815-2.312,0.815
			c-0.487,0-0.893-0.093-1.217-0.279c-0.325-0.187-0.564-0.475-0.718-0.864c-0.155-0.39-0.26-0.807-0.316-1.253
			c-0.057-0.447-0.085-1.002-0.085-1.667c0-0.843,0.008-1.525,0.025-2.044c-0.714,0.34-1.396,0.835-2.045,1.484
			c-0.941,0.941-1.987,2.207-3.14,3.796c-0.325,0.438-0.689,0.657-1.095,0.657c-0.146,0-0.312-0.048-0.499-0.146
			c-0.187-0.098-0.337-0.195-0.45-0.292L227.265,113.904z M236.586,110.375c0,0.811,0.057,1.452,0.17,1.923
			c0.113,0.47,0.215,0.746,0.304,0.827c0.089,0.082,0.174,0.122,0.255,0.122c0.098,0,0.211-0.024,0.341-0.073
			c0.13-0.049,0.288-0.199,0.475-0.451c0.187-0.251,0.32-0.58,0.402-0.986c0.048-0.275,0.073-0.575,0.073-0.9
			c0-1.898-0.544-2.848-1.63-2.848h-0.292C236.619,108.818,236.586,109.613,236.586,110.375z"/>
		<path d="M236.44,90.126c-0.146,0.065-0.333,0.098-0.56,0.098c-0.438,0-0.722-0.13-0.852-0.39
			c-0.244-0.438-0.365-0.884-0.365-1.338c0-0.941,0.536-1.623,1.606-2.045c0.26-0.097,0.722-0.255,1.387-0.475
			c0.666-0.218,1.112-0.377,1.339-0.475c0.26-0.097,0.43-0.268,0.511-0.511c0.179-0.471,0.535-0.706,1.071-0.706h0.122
			c0.471,0.049,0.706,0.252,0.706,0.608c0,0.065-0.016,0.146-0.049,0.243c-0.227,0.698-0.787,1.258-1.679,1.68l-2.629,0.999
			c-0.178,0.081-0.268,0.218-0.268,0.414c0,0.21,0.097,0.486,0.292,0.827c0.048,0.065,0.073,0.154,0.073,0.268
			C237.146,89.697,236.911,89.964,236.44,90.126z"/>
		<path d="M254.158,99.569c0.259,0.017,0.479,0.094,0.657,0.231c0.178,0.138,0.268,0.296,0.268,0.475
			c0,0.065-0.008,0.114-0.024,0.146c-0.584,2.287-1.111,4.746-1.582,7.375c-0.194,1.119-0.308,1.744-0.341,1.874
			c-0.325,1.558-0.601,2.58-0.827,3.067c-0.552,1.167-1.444,1.752-2.677,1.752c-0.26,0-0.499-0.037-0.718-0.11
			c-0.219-0.073-0.405-0.158-0.56-0.255c-0.154-0.098-0.3-0.256-0.438-0.475c-0.138-0.22-0.243-0.402-0.317-0.547
			c-0.073-0.146-0.154-0.373-0.243-0.682c-0.089-0.308-0.15-0.543-0.183-0.705c-0.032-0.163-0.085-0.43-0.158-0.804
			c-0.073-0.373-0.126-0.633-0.158-0.778c-0.374-1.85-0.698-4.064-0.974-6.645c-0.13-1.2-0.374-1.996-0.73-2.385
			c-0.163,0.179-0.337,0.414-0.523,0.706c-0.187,0.292-0.329,0.535-0.426,0.73l-0.146,0.316c-0.195,0.438-0.609,0.657-1.241,0.657
			h-0.195c-0.228-0.016-0.41-0.089-0.547-0.22c-0.138-0.129-0.208-0.284-0.208-0.462c0-0.113,0.017-0.203,0.049-0.268
			c0.016-0.081,0.049-0.195,0.098-0.341c0.049-0.146,0.166-0.406,0.353-0.779s0.397-0.702,0.633-0.985s0.56-0.543,0.974-0.779
			c0.414-0.235,0.872-0.354,1.375-0.354c0.455,0,0.844,0.085,1.168,0.256c0.325,0.17,0.58,0.369,0.767,0.596
			c0.186,0.228,0.341,0.536,0.462,0.925c0.122,0.389,0.203,0.718,0.244,0.986c0.04,0.268,0.085,0.62,0.133,1.059
			c0.276,2.531,0.6,4.697,0.974,6.498c0.309,1.526,0.608,2.523,0.9,2.994c0.341-0.568,0.755-2.166,1.242-4.794
			c0.487-2.709,1.014-5.2,1.582-7.472c0.065-0.211,0.223-0.398,0.475-0.56c0.251-0.163,0.523-0.244,0.815-0.244H254.158z"/>
		<path d="M258.344,103.926c-0.503-0.113-0.754-0.357-0.754-0.73c0-0.065,0.032-0.179,0.097-0.341
			c0.584-1.071,1.383-1.955,2.397-2.653c1.014-0.697,2.121-1.112,3.322-1.242c0.357-0.032,0.617-0.048,0.779-0.048
			c1.85,0,3.359,0.698,4.527,2.093c1.168,1.395,1.752,3.302,1.752,5.719c0,2.223-0.584,4.016-1.752,5.378
			c-1.168,1.363-2.669,2.142-4.502,2.336c-0.357,0.033-0.625,0.049-0.804,0.049c-1.558,0-2.872-0.443-3.942-1.327
			c-1.071-0.884-1.606-2.016-1.606-3.395c0-0.86,0.259-1.574,0.779-2.142c0.292-0.292,0.608-0.511,0.949-0.658
			c0.47-0.195,0.949-0.292,1.436-0.292c0.714,0,1.436,0.17,2.166,0.511c0.308,0.13,0.462,0.34,0.462,0.632
			c0,0.195-0.082,0.374-0.244,0.536c-0.259,0.292-0.641,0.438-1.144,0.438c-0.211,0-0.39-0.032-0.536-0.097
			c-0.406-0.178-0.763-0.268-1.071-0.268h-0.073c-0.032,0.017-0.073,0.061-0.122,0.134c-0.048,0.074-0.097,0.199-0.146,0.378
			c-0.048,0.178-0.073,0.373-0.073,0.583c0,1.006,0.361,1.793,1.083,2.361c0.722,0.568,1.545,0.852,2.47,0.852
			c0.179,0,0.316-0.008,0.414-0.025c0.438-0.048,0.864-0.178,1.277-0.389c0.414-0.211,0.823-0.524,1.229-0.938
			s0.734-1.001,0.986-1.764c0.251-0.763,0.377-1.647,0.377-2.653c0-1.12-0.138-2.109-0.414-2.969
			c-0.276-0.86-0.641-1.521-1.095-1.983c-0.455-0.463-0.921-0.804-1.399-1.023c-0.479-0.219-0.961-0.328-1.448-0.328
			c-0.048,0-0.105,0.004-0.17,0.012c-0.065,0.008-0.114,0.012-0.146,0.012c-1.444,0.163-2.604,1.031-3.48,2.604
			c-0.097,0.195-0.267,0.354-0.511,0.476c-0.243,0.121-0.503,0.182-0.779,0.182C258.506,103.95,258.409,103.942,258.344,103.926z"/>
		<path d="M276.062,101.564c-0.211-0.146-0.316-0.332-0.316-0.559c0-0.26,0.13-0.487,0.39-0.682c1.233-0.941,2.41-1.412,3.529-1.412
			c1.801,0,3.002,1.047,3.603,3.14c0.308,1.104,0.462,2.458,0.462,4.064c0,1.606-0.194,3.059-0.584,4.356
			c-0.827,2.791-2.223,4.187-4.186,4.187c-0.52,0-1.01-0.126-1.473-0.377c-0.462-0.252-0.876-0.608-1.241-1.071
			c-0.365-0.463-0.669-0.905-0.913-1.326c-0.243-0.422-0.495-0.926-0.754-1.509c-0.243-0.536-0.739-1.891-1.485-4.064
			c-0.016-0.049-0.024-0.113-0.024-0.195c0-0.195,0.085-0.381,0.255-0.56c0.17-0.178,0.385-0.3,0.645-0.365
			c0.097-0.032,0.244-0.049,0.438-0.049c0.551,0,0.892,0.179,1.022,0.536c0.763,2.19,1.241,3.513,1.436,3.967
			c0.405,0.893,0.859,1.652,1.362,2.276c0.503,0.625,0.86,0.953,1.071,0.986c0.064-0.033,0.174-0.126,0.329-0.28
			c0.154-0.155,0.353-0.438,0.596-0.853c0.244-0.414,0.438-0.879,0.584-1.399c0.356-1.201,0.536-2.54,0.536-4.016
			c0-1.508-0.138-2.75-0.414-3.724c-0.194-0.681-0.446-1.18-0.754-1.497c-0.309-0.317-0.593-0.475-0.853-0.475
			c-0.373,0-0.9,0.26-1.582,0.779c-0.292,0.211-0.617,0.316-0.974,0.316C276.508,101.76,276.273,101.695,276.062,101.564z"/>
		<path d="M182.775,138.973c-0.503-0.113-0.754-0.357-0.754-0.73c0-0.065,0.032-0.179,0.097-0.34
			c0.584-1.071,1.383-1.956,2.397-2.653c1.014-0.697,2.121-1.112,3.322-1.242c0.356-0.032,0.617-0.048,0.778-0.048
			c1.85,0,3.359,0.698,4.527,2.093c1.168,1.395,1.752,3.302,1.752,5.719c0,2.223-0.584,4.016-1.752,5.378
			c-1.168,1.363-2.669,2.142-4.502,2.336c-0.357,0.033-0.625,0.049-0.803,0.049c-1.558,0-2.872-0.443-3.943-1.327
			s-1.606-2.016-1.606-3.395c0-0.86,0.26-1.574,0.779-2.142c0.292-0.292,0.608-0.511,0.949-0.658
			c0.471-0.195,0.949-0.292,1.436-0.292c0.714,0,1.436,0.17,2.166,0.511c0.308,0.13,0.462,0.34,0.462,0.632
			c0,0.195-0.082,0.374-0.243,0.536c-0.26,0.292-0.641,0.438-1.144,0.438c-0.211,0-0.389-0.033-0.536-0.098
			c-0.405-0.178-0.763-0.268-1.07-0.268h-0.073c-0.033,0.017-0.073,0.061-0.122,0.134c-0.048,0.074-0.097,0.199-0.146,0.378
			c-0.048,0.178-0.073,0.373-0.073,0.584c0,1.006,0.361,1.792,1.083,2.361c0.722,0.568,1.546,0.852,2.47,0.852
			c0.179,0,0.316-0.008,0.414-0.025c0.438-0.048,0.864-0.178,1.277-0.389c0.414-0.211,0.824-0.524,1.229-0.938
			c0.406-0.413,0.734-1.001,0.986-1.764c0.251-0.763,0.377-1.647,0.377-2.653c0-1.12-0.138-2.109-0.414-2.969
			c-0.276-0.86-0.641-1.521-1.095-1.983c-0.455-0.463-0.921-0.804-1.399-1.023c-0.479-0.219-0.961-0.328-1.448-0.328
			c-0.049,0-0.106,0.004-0.17,0.012c-0.065,0.008-0.114,0.012-0.146,0.012c-1.444,0.163-2.604,1.031-3.48,2.604
			c-0.097,0.195-0.268,0.354-0.511,0.476c-0.243,0.121-0.503,0.182-0.779,0.182C182.938,138.997,182.84,138.989,182.775,138.973z"/>
		<path d="M198.011,139.362c-0.26-0.016-0.475-0.098-0.645-0.243c-0.17-0.146-0.255-0.317-0.255-0.512
			c0-0.048,0.016-0.122,0.049-0.219c0.422-1.152,1.172-2.138,2.251-2.958c1.079-0.818,2.243-1.269,3.493-1.351h0.34
			c1.087,0,1.939,0.333,2.556,0.999c0.616,0.666,0.925,1.582,0.925,2.75c0,0.26-0.008,0.455-0.024,0.584
			c-0.324,3.667-0.486,6.774-0.486,9.321v0.949c0,0.228-0.114,0.442-0.341,0.646c-0.227,0.202-0.503,0.32-0.828,0.353h-0.194
			c-0.292,0-0.536-0.065-0.73-0.195c-0.195-0.13-0.292-0.3-0.292-0.511v-0.974c0-2.628,0.162-5.776,0.487-9.443
			c0.017-0.13,0.025-0.316,0.025-0.56c0-0.811-0.155-1.379-0.463-1.704c-0.308-0.324-0.649-0.486-1.022-0.486h-0.097
			c-0.536,0.032-1.14,0.3-1.813,0.802c-0.673,0.503-1.156,1.161-1.448,1.972c-0.081,0.228-0.251,0.414-0.511,0.559
			c-0.26,0.147-0.544,0.22-0.852,0.22H198.011z"/>
		<path d="M212.394,149.463h-0.122c-0.292,0-0.536-0.074-0.73-0.22c-0.194-0.146-0.292-0.324-0.292-0.536v-0.024
			c0.227-5.159,0.341-8.242,0.341-9.248c0-1.606-0.105-2.702-0.316-3.285c-0.017-0.049-0.024-0.113-0.024-0.195
			c0-0.373,0.219-0.657,0.657-0.852c1.444-0.681,3.626-1.023,6.547-1.023c1.298,0,2.381,0.305,3.249,0.913
			c0.868,0.608,1.302,1.489,1.302,2.641c0,0.243-0.037,1.16-0.11,2.75c-0.073,1.59-0.109,2.985-0.109,4.187
			c0,1.217,0.032,2.336,0.098,3.358v0.025c0,0.227-0.11,0.438-0.329,0.633c-0.219,0.194-0.491,0.316-0.815,0.364
			c-0.016,0-0.057,0.005-0.122,0.013c-0.065,0.008-0.106,0.012-0.122,0.012c-0.275,0-0.507-0.064-0.693-0.195
			c-0.187-0.129-0.288-0.3-0.305-0.511c-0.064-1.054-0.097-2.207-0.097-3.456c0-1.233,0.036-2.649,0.109-4.248
			c0.073-1.598,0.109-2.494,0.109-2.689c0-1.363-0.835-2.044-2.507-2.044c-1.72,0-3.156,0.138-4.308,0.414
			c0.114,0.681,0.171,1.663,0.171,2.945c0,1.039-0.114,4.137-0.341,9.297c-0.016,0.228-0.146,0.442-0.389,0.645
			C213.002,149.337,212.718,149.446,212.394,149.463z"/>
		<path d="M226.729,139.362c-0.259-0.016-0.475-0.098-0.645-0.243c-0.17-0.146-0.255-0.317-0.255-0.512
			c0-0.048,0.016-0.122,0.049-0.219c0.422-1.152,1.172-2.138,2.251-2.958c1.079-0.818,2.243-1.269,3.493-1.351h0.341
			c1.087,0,1.938,0.333,2.555,0.999s0.925,1.582,0.925,2.75c0,0.26-0.008,0.455-0.025,0.584c-0.324,3.667-0.486,6.774-0.486,9.321
			v0.949c0,0.228-0.114,0.442-0.341,0.646c-0.228,0.202-0.503,0.32-0.828,0.353h-0.194c-0.292,0-0.536-0.065-0.73-0.195
			c-0.195-0.13-0.292-0.3-0.292-0.511v-0.974c0-2.628,0.162-5.776,0.487-9.443c0.016-0.13,0.024-0.316,0.024-0.56
			c0-0.811-0.154-1.379-0.463-1.704c-0.308-0.324-0.648-0.486-1.021-0.486h-0.098c-0.536,0.032-1.14,0.3-1.813,0.802
			c-0.673,0.503-1.156,1.161-1.448,1.972c-0.082,0.228-0.251,0.414-0.511,0.559c-0.26,0.147-0.544,0.22-0.852,0.22H226.729z"/>
		<path d="M253.135,133.083c0.244,0.162,0.365,0.349,0.365,0.56c0,0.228-0.106,0.421-0.316,0.584
			c-0.812,0.698-1.525,1.387-2.142,2.068c0.876,1.087,1.314,2.442,1.314,4.064c0,0.487-0.033,0.949-0.098,1.387
			c-0.13,0.909-0.328,1.918-0.596,3.03c-0.268,1.111-0.495,1.988-0.681,2.628c-0.187,0.641-0.296,0.986-0.329,1.034
			c-0.195,0.487-0.609,0.73-1.241,0.73h-0.122c-0.26-0.017-0.467-0.094-0.621-0.231c-0.155-0.138-0.231-0.295-0.231-0.475
			c0-0.081,0.008-0.146,0.024-0.195c0.763-2.4,1.282-4.559,1.558-6.474c0.064-0.551,0.098-0.941,0.098-1.168
			c0-0.924-0.187-1.776-0.56-2.555c-1.282,1.639-2.479,3.416-3.59,5.33c-1.112,1.915-1.992,3.684-2.641,5.306
			c-0.455,0.536-0.909,0.804-1.363,0.804c-0.325,0-0.584-0.179-0.779-0.536c-0.178-0.308-0.479-1.196-0.9-2.665
			c-0.422-1.468-0.747-2.909-0.974-4.32c-0.081-0.535-0.122-0.998-0.122-1.387c0-2.142,0.771-3.829,2.312-5.062
			c1.249-1.006,2.742-1.509,4.478-1.509c1.412,0,2.637,0.341,3.675,1.022c0.747-0.762,1.371-1.363,1.874-1.801
			c0.276-0.228,0.6-0.341,0.974-0.341C252.729,132.913,252.94,132.97,253.135,133.083z M248.316,136.563
			c-0.763-0.6-1.639-0.9-2.628-0.9c-0.909,0-1.704,0.243-2.385,0.73c-1.233,0.86-1.85,2.166-1.85,3.918
			c0,0.438,0.032,0.852,0.097,1.241c0.178,1.12,0.487,2.466,0.925,4.04C244.13,142.25,246.077,139.24,248.316,136.563z"/>
	</g>
</g>
</svg>
