<?xml version="1.0" encoding="utf-8"?>
<!-- Generator: Adobe Illustrator 16.0.0, SVG Export Plug-In . SVG Version: 6.00 Build 0)  -->
<!DOCTYPE svg PUBLIC "-//W3C//DTD SVG 1.1//EN" "http://www.w3.org/Graphics/SVG/1.1/DTD/svg11.dtd">
<svg version="1.1" id="Layer_1" xmlns="http://www.w3.org/2000/svg" xmlns:xlink="http://www.w3.org/1999/xlink" x="0px" y="0px"
	 width="311.688px" height="296.104px" viewBox="0 0 311.688 296.104" enable-background="new 0 0 311.688 296.104"
	 xml:space="preserve">
<g>
	<linearGradient id="SVGID_1_" gradientUnits="userSpaceOnUse" x1="8.7876" y1="209.7905" x2="303.8623" y2="209.7905">
		<stop  offset="0" style="stop-color:#9FC7D3"/>
		<stop  offset="0.1691" style="stop-color:#C0D5DF"/>
		<stop  offset="0.4002" style="stop-color:#C0D5DF"/>
		<stop  offset="0.5785" style="stop-color:#CAD9E3"/>
		<stop  offset="0.8843" style="stop-color:#E6E5ED"/>
		<stop  offset="0.9154" style="stop-color:#E9E6EE"/>
		<stop  offset="1" style="stop-color:#F9EDF4"/>
	</linearGradient>
	<path fill="url(#SVGID_1_)" d="M276.812,198.315c-5.475,0-10.564,1.634-14.824,4.429c-4.012-19.374-21.17-33.936-41.734-33.936
		c-5.467,0-10.686,1.042-15.49,2.919c0.48-2.264,0.74-4.609,0.74-7.019c0-18.558-15.047-33.604-33.607-33.604
		c-18.084,0-32.818,14.284-33.568,32.177c-4.041-1.716-8.48-2.67-13.15-2.67c-10.947,0-20.657,5.229-26.795,13.329
		c-4.987-4.699-11.709-7.592-19.103-7.592c-15.392,0-27.871,12.476-27.871,27.866c0,0.417,0.019,0.833,0.031,1.244
		c-2.875-0.803-5.912-1.244-9.047-1.244c-18.559,0-33.604,15.046-33.604,33.606s15.046,33.606,33.604,33.606
		c11.104,0,20.953-5.39,27.064-13.696c7.154,13.51,21.346,22.711,37.69,22.711c6.616,0,12.877-1.509,18.469-4.194
		c2.271,12.637,13.316,22.229,26.609,22.229c10.562,0,19.709-6.065,24.162-14.892c4.615,3.672,10.459,5.874,16.822,5.874
		c7.568,0,14.408-3.11,19.318-8.128c5.27,9.721,15.561,16.321,27.398,16.321c17.199,0,31.143-13.94,31.143-31.143
		c0-1.634-0.125-3.232-0.365-4.801c1.961,0.453,4.006,0.701,6.107,0.701c14.938,0,27.051-12.111,27.051-27.044
		C303.862,210.424,291.749,198.315,276.812,198.315z"/>
	<g id="แมท">
		<g>
			<path fill="#594A42" d="M129.089,63.758c-10.94,13.292-44.977,130.876-1.506,142.953c43.473,12.071,93.428,3.758,90.49-27.904
				c-2.486-26.778-12.066-82.521-22.662-98.694C170.542,42.15,140.144,50.328,129.089,63.758z"/>
			<path fill="#ECECEC" d="M161.554,124.424c9.992-9.456,20.857-17.83,31.928-25.826c13.996-10.116,29.635-20.047,46.562-18.988
				c4.869,0.305,10.904,3.184,10.4,8.313c-0.141,1.439-0.824,2.758-1.568,3.973c-2.859,4.672-6.863,8.552-11.516,11.146
				c6.922,2.053,13.223,6.389,17.799,12.242c2.348,2.996,4.318,7.041,2.965,10.653c-1.42,3.79-5.785,5.25-9.637,5.479
				c-5.162,0.312-10.396-0.728-15.092-3.007c1.682,5.607,3.369,11.218,5.055,16.818c0.85,2.827,1.711,5.757,1.436,8.716
				c-0.637,6.763-7.631,11.591-14.014,10.743c-6.383-0.847-11.648-6.267-14.008-12.587c1.953,7.636,2.705,15.628,2.207,23.519
				c-0.246,3.956-1.033,8.322-4.039,10.7c-2.863,2.263-6.881,1.981-10.285,0.843c-18.49-6.179-25.16-31.374-42.244-41.084"/>
			<path fill="#ECECEC" d="M148.907,126.759c-9.994-9.453-20.857-17.83-31.928-25.824C102.98,90.82,87.343,80.888,70.417,81.947
				c-4.869,0.305-10.905,3.184-10.399,8.313c0.141,1.438,0.823,2.758,1.566,3.974c2.858,4.671,6.863,8.551,11.516,11.146
				c-6.921,2.054-13.223,6.388-17.802,12.241c-2.345,2.997-4.315,7.042-2.963,10.66c1.419,3.789,5.785,5.247,9.636,5.472
				c5.163,0.318,10.394-0.728,15.096-2.998l-5.058,16.812c-0.85,2.829-1.713,5.758-1.437,8.721
				c0.635,6.758,7.633,11.587,14.015,10.739c6.383-0.848,11.646-6.266,14.009-12.587c-1.955,7.64-2.706,15.628-2.21,23.521
				c0.248,3.956,1.036,8.317,4.043,10.698c2.861,2.264,6.878,1.98,10.284,0.844c18.49-6.18,25.16-31.378,42.242-41.089"/>
			<g>
				<path fill="#3D392F" d="M198.356,136.9c0,0,2.148-13.314,5.668-14.589c3.521-1.269,3.352,3.881,1.65,6.282
					c0,0,4.293-5.503,8.504-2.847c4.215,2.653,6.367,10.409-1.818,14.511c-8.186,4.114-12.637,3.712-12.637,3.712L198.356,136.9z"/>
			</g>
			<g>
				<path fill="#3D392F" d="M121.671,140.784c0,0-2.151-13.311-5.668-14.587c-3.521-1.27-3.354,3.877-1.65,6.281
					c0,0-4.292-5.503-8.505-2.859c-4.216,2.659-6.368,10.413,1.819,14.522c8.188,4.114,10.56,3.404,10.56,3.404L121.671,140.784z"/>
			</g>
			<path fill="#3D392F" d="M131.386,191.459c0,0-2.65,11.674,0.078,16.914c2.064,3.917,6.336,4.618,7.264,1.345
				c0.869-3.114-0.125-6.049-0.355-6.6c-1.783-4.383-0.699-9.328-0.699-9.328L131.386,191.459z"/>
			<path fill="#3D392F" d="M181.778,195.54c0,0-2.176,8.752-3.672,12.076c-1.707,3.797-3.795,8.452-8.51,9.925
				c-4.721,1.446-5.383-4.806-3.023-7.434c2.357-2.624,4.574-3.2,5.902-6.841c1.303-3.647,0.918-5.695,0.918-5.695L181.778,195.54z"
				/>
			<path fill="#71C1E8" d="M118.357,113.928c0,0,3.064-36.525,34.851-39.646c31.797-3.111,36.17,21.569,37.734,24.777
				c1.572,3.215,11.615,37.212,11.271,58.577c-0.357,21.384-6.283,39.64-31.357,43.937c-26.852,4.577-51.349-6.614-52.752-38.086
				C116.706,132,118.357,113.928,118.357,113.928z"/>
			<g>
				<g>
					<path fill="#594A42" d="M166.503,107.498c4.814,6.051,12.215,4.363,17.229-0.393c0.42-0.39-0.215-1.031-0.635-0.625
						c-4.693,4.452-11.502,5.99-15.959,0.389C166.774,106.412,166.147,107.05,166.503,107.498L166.503,107.498z"/>
				</g>
			</g>
			<g>
				<g>
					<path fill="#594A42" d="M150.062,108.492c-4.453,5.605-11.262,4.068-15.961-0.387c-0.42-0.396-1.055,0.235-0.633,0.631
						c5.014,4.758,12.412,6.439,17.227,0.39C151.048,108.679,150.419,108.039,150.062,108.492L150.062,108.492z"/>
				</g>
			</g>
			<path fill="#FCC8B1" d="M127.999,125.146c0.102,1.008,2.828,1.537,6.117,1.185c3.287-0.375,5.875-1.465,5.785-2.479
				c-0.09-1.024-2.828-1.559-6.105-1.202C130.507,123.016,127.919,124.121,127.999,125.146z"/>
			<path fill="#FCC8B1" d="M181.601,119.297c0.078,1.016,2.816,1.552,6.105,1.198c3.287-0.356,5.879-1.474,5.789-2.49
				c-0.088-0.999-2.83-1.538-6.115-1.185C184.097,117.174,181.497,118.293,181.601,119.297z"/>
			<path opacity="0.48" fill="#F9B2BD" enable-background="new    " d="M156.11,130.817c0.449,5.212,3.775,7.433,6.807,7.109
				c3.006-0.336,4.617-3.099,4.154-8.306c-0.459-5.201-3.492-2.11-6.525-1.776C157.513,128.193,155.651,125.617,156.11,130.817z"/>
			<g>
				<path fill="#594A42" d="M156.431,57.425c-20.441,0-35.859,14.814-36.735,39.035c26.29,1.59,36.733-16.354,36.733-16.354
					s11.865,14.442,38.156,12.851C193.708,68.727,176.87,57.425,156.431,57.425z"/>
				<path fill="#594A42" d="M121.077,96.558c0,0,23.211,1.947,35.371-16.449c0,0,8.658,11.485,32.148,12.946
					c0,0,3.035-3.171-1.08-9.702c0,0,1.104,3.81-0.393,7.568c1.801,0.144-22.213-2.715-30.693-18.051
					C156.431,72.863,145.972,93.074,121.077,96.558z"/>
			</g>
			<g>
				<path fill="#FFE400" d="M187.419,50.875l-9.686,4.337l-4.689-16.635l-10.146,13.699l-10.312-22.771l0,0l-8.475,23.701
					l-10.324-12.693l-3.225,17.016l-9.939-3.367l6.191,17.165c4.859-2.208,18.332-4.081,27.787-4.622
					c9.467-0.383,23.016,0.151,28.039,1.879L187.419,50.875z"/>
				<path fill="#00CDED" d="M152.456,16.052c1.111-3.732,6.213-6.215,8.416-2.125c2.076,3.865-0.805,11.014-8.145,15.763
					c0.102-0.063-10.059-4.686-9.076-12.985C144.493,9.559,151.554,12.332,152.456,16.052z"/>
				<path fill="#FFFFFF" d="M118.891,51.32c-1.507-1.348-3.634-1.27-4.373,1.193c-0.751,2.471,2.945,6.119,7.887,5.149
					c-0.037,0.065,3.355-5.467,0.703-8.952C120.813,45.716,118.317,49.31,118.891,51.32z"/>
				<path fill="#FFFFFF" d="M132.562,34.845c-1.156-1.803-3.301-2.358-4.648-0.145c-1.367,2.223,1.408,6.994,6.586,7.538
					c-0.064,0.05,4.691-4.399,2.904-8.696C135.862,29.866,132.489,32.681,132.562,34.845z"/>
				<path fill="#FFFFFF" d="M188.972,47.858c1.404-1.482,3.518-1.612,4.459,0.762c0.945,2.388-2.445,6.378-7.453,5.907
					c0.037,0.049-3.789-5.128-1.412-8.856C186.63,42.468,189.396,45.808,188.972,47.858z"/>
				<path fill="#FFFFFF" d="M174.038,32.8c1.021-1.911,3.111-2.691,4.627-0.605c1.529,2.09-0.855,7.1-5.953,8.162
					c0.051,0.055-5.033-3.932-3.596-8.381C170.351,28.153,173.95,30.634,174.038,32.8z"/>
				<polygon fill="#D682ED" points="153.821,47.048 149.743,54.566 154.382,61.041 158.36,54.134 				"/>
				<path fill="#FF8EBD" d="M140.021,59.172c0.471,1.946,0.117,3.768-0.844,4.046c-0.938,0.298-2.102-1.032-2.586-2.988
					c-0.484-1.947-0.113-3.758,0.844-4.054C138.378,55.882,139.532,57.232,140.021,59.172z"/>
				<path fill="#FF8EBD" d="M168.554,57.769c-0.328,1.982,0.189,3.758,1.162,3.961c0.955,0.188,2.014-1.254,2.346-3.236
					c0.318-1.982-0.189-3.759-1.162-3.945C169.933,54.336,168.888,55.777,168.554,57.769z"/>
			</g>
		</g>
		<path fill="#F4F1EF" d="M135.581,188.585c0.854,0.659-0.322,3.741,1.795,5.464c1.631,1.325,3.156,1.325,5.086,0.513
			c-0.049-0.689,0.156,4.021,2.389,4.973c2.234,0.951,5.361-0.356,4.926-2.306c-0.473,1.879,0.48,4.233,2.729,5.173
			c2.248,0.931,5.367-0.458,4.801-2.401c0.438,1.232,1.117,2.471,2.293,3.38c1.174,0.908,2.928,1.426,4.338,1.005
			c1.412-0.416,2.172-1.917,1.293-3.024c0.924,0.979,1.953,1.935,3.268,2.544c1.316,0.607,2.973,0.811,4.176,0.244
			c1.203-0.559,1.682-2.015,0.758-2.997c1.277,0.783,2.633,1.536,4.143,1.879c1.512,0.342,3.217,0.201,4.238-0.633
			c1.02-0.839,1.043-2.456-0.184-3.298c1.75,1.039,4.322,1.11,5.697-0.034c1.377-1.136,1.039-3.437-0.809-4.352
			c1.516,0.188,3.078,0.353,4.496,0.032c1.418-0.322,2.666-1.235,2.744-2.438c0.076-1.207-1.406-2.549-2.873-2.346
			c1.959-0.128,4.025-0.292,5.516-1.236c1.49-0.938,2.07-2.946,0.654-4.183c-0.783-0.687-1.965-0.966-2.834-1.591
			c1.578,0.158,3.68,0.018,3.811-1.235c0.062-0.568-0.371-1.136-0.814-1.624c-0.84-0.932-1.787-1.8-2.822-2.593
			c1.189,0.354,2.49,0.361,3.611,0.035c-0.35-2.084-1.791-4.134-3.893-5.523c1.434,0.312,2.34-1.285,1.605-2.35
			c-0.732-1.066-2.301-1.565-3.74-1.858c1.498-0.118,1.879-1.834,1-2.902c-0.881-1.065-2.451-1.6-3.912-2.063
			c1.709-0.116,1.867-2.252,0.561-3.268c-1.303-1.021-3.221-1.183-4.957-1.282c1.334-0.021,1.703-1.574,0.881-2.488
			c-0.826-0.91-2.252-1.298-3.564-1.611c0.895,0.32,1.746-0.593,1.375-1.315c-0.369-0.728-1.451-1.107-2.393-1.1
			c0.674,0.214,1.293-0.395,1.176-0.965c-0.117-0.562-0.684-1.024-1.236-1.418c-1.234-0.872-2.168-0.455-3.574-1.127
			c-3.084,1.665-7.645,0.364-11.535,0.21c-11-0.434-22.316-0.931-32.723-4.632c-0.744,0.639-1.336,1.4-1.738,2.222
			c-1.127-0.353-2.559-0.364-3.172,0.39s0.645,2.153,1.59,1.676c-1.217,0.126-2.463,0.26-3.504,0.729
			c-1.043,0.467-1.857,1.343-1.762,2.352c0.096,1.001,1.373,2.009,2.57,1.811c-2.248,0.098-4.119,1.584-4.27,3.39
			c0.701,0.326,1.492,0.508,2.268,0.524c-1.832,0.456-3.322,1.565-4.014,2.996c-0.318,0.655-0.465,1.416-0.088,2.105
			c0.375,0.688,1.422,1.205,2.225,0.939c-1.908,1.27-3.205,3.106-3.628,5.133c1.158,0.627,2.662,0.772,3.849,0.368
			c-1.342,0.795-2.33,1.957-2.791,3.282c-0.254,0.728-0.312,1.609,0.318,2.254c0.633,0.641,2.135,0.671,2.326-0.08
			c-0.447,1-1.277,1.846-1.799,2.818c-0.52,0.975-0.684,2.218,0.15,3.153s2.9,1.109,3.361,0.116
			c-0.625,0.998-1.256,2.035-1.361,3.188c-0.104,1.155,0.441,2.47,1.697,3.156c1.256,0.683,3.203,0.39,3.551-0.714
			c0.047,1.265,0.092,2.524,0.143,3.792c0.043,1.125,0.477,2.624,1.877,2.803c0.525,0.063,1.021-0.106,1.457-0.308
			C133.896,191.205,135.065,190,135.581,188.585z"/>
		<path fill="#F2EDE8" stroke="#1B1F30" stroke-width="0.8086" stroke-miterlimit="10" d="M136.155,144.595
			c0,0-10.84,21.356-2.957,36.284c7.881,14.929,28.455,19.027,38.621,17.625c12.021-1.658,17.342-14.922,14.189-26.955
			c-3.154-12.025-5.518-16.581-9.062-22.394L136.155,144.595z"/>
		<path fill="#F4F1EF" d="M201.552,144.175c-4.416,1.476-20.684,3.227-26.047,3.318c-17.801,0.303-40.947-4.084-57.661-10.296
			c-0.39-0.145-0.17,7.814-0.102,7.822c10.327,1.253,12.086,2.102,22.655,3.487c4.361,0.572,11.24,2.371,22.258,3.382
			c11.572,1.063,30.188-0.399,39.711-0.399C202.433,151.49,201.976,144.034,201.552,144.175z"/>
	</g>
	<g>
		<path fill="#4D4D4F" d="M58.895,227.724c0.5-0.76,0.83-1.59,0.99-2.49c0.04-0.279,0.215-0.52,0.525-0.72
			c0.31-0.199,0.654-0.3,1.035-0.3c0.34,0,0.625,0.09,0.854,0.27c0.229,0.181,0.345,0.391,0.345,0.631v0.119
			c-0.3,1.62-1.05,3.061-2.25,4.32c0.9,1.54,1.35,3.45,1.35,5.73c0,2.1-0.324,4.055-0.975,5.864
			c-0.65,1.811-1.574,2.835-2.775,3.075c-0.059,0.02-0.149,0.03-0.27,0.03c-0.34,0-0.641-0.08-0.9-0.24
			c-0.26-0.18-0.574-0.489-0.944-0.93c-0.37-0.439-0.84-1.01-1.41-1.71c-0.569-0.7-1.085-1.3-1.545-1.8
			c-1.38-1.54-2.46-2.37-3.239-2.49c-0.161,0.359-0.24,0.82-0.24,1.38c0,0.7,0.049,1.445,0.149,2.235s0.2,1.415,0.3,1.875
			l0.15,0.659c0,0.021,0.004,0.045,0.016,0.075c0.01,0.03,0.014,0.056,0.014,0.075c0,0.24-0.109,0.465-0.33,0.675
			c-0.22,0.21-0.5,0.355-0.84,0.436c-0.199,0.039-0.34,0.06-0.42,0.06c-0.66,0-1.061-0.23-1.199-0.689
			c-0.021-0.08-0.075-0.335-0.166-0.766c-0.09-0.43-0.185-1.069-0.284-1.92c-0.101-0.85-0.149-1.654-0.149-2.415
			c0-0.54,0.029-0.939,0.09-1.2c0.219-1.119,0.779-1.879,1.68-2.279c0.399-0.181,0.82-0.271,1.26-0.271
			c0.82,0,1.58,0.176,2.279,0.525c0.701,0.35,1.246,0.715,1.636,1.095s0.935,0.98,1.635,1.8c0.319,0.38,0.784,0.955,1.396,1.726
			c0.609,0.77,1.005,1.265,1.185,1.484c0.76-1.8,1.14-3.819,1.14-6.06c0-1.62-0.27-3.05-0.81-4.29c-2,1.16-4.26,1.74-6.78,1.74
			c-2.439,0-4.189-0.53-5.25-1.591c-0.439-0.439-0.66-0.96-0.66-1.56c0-1.06,0.631-1.975,1.891-2.745
			c1.26-0.77,2.699-1.245,4.32-1.425c0.52-0.04,0.92-0.061,1.199-0.061C55.356,225.654,57.355,226.344,58.895,227.724z
			 M57.036,229.524c-1.121-1.22-2.631-1.83-4.53-1.83c-0.36,0-0.63,0.011-0.81,0.03c-1.041,0.101-1.875,0.351-2.506,0.75
			c-0.629,0.4-0.945,0.771-0.945,1.11c0,0.18,0.121,0.38,0.361,0.6c0.659,0.521,1.739,0.78,3.239,0.78
			C53.845,230.964,55.575,230.484,57.036,229.524z"/>
		<path fill="#4D4D4F" d="M78.665,244.434c-1.899-2.439-3.35-4.14-4.35-5.1c-0.58-0.521-1.05-0.92-1.41-1.2
			c-0.06,1.92-0.17,3.28-0.33,4.08c-0.22,1.181-0.74,1.979-1.56,2.4c-0.44,0.22-0.96,0.329-1.56,0.329
			c-1.42,0-2.516-0.43-3.285-1.29c-0.771-0.859-1.155-2.05-1.155-3.569c0-0.46,0.04-0.86,0.12-1.2c0.22-1.1,0.779-2.035,1.68-2.805
			s2.02-1.155,3.36-1.155h0.09v-3.24c0-0.979-0.06-1.785-0.18-2.415s-0.261-1.05-0.421-1.26s-0.329-0.315-0.51-0.315
			c-0.34,0-0.74,0.131-1.199,0.391c-0.281,0.14-0.57,0.21-0.87,0.21c-0.421,0-0.73-0.1-0.931-0.3c-0.14-0.14-0.209-0.301-0.209-0.48
			c0-0.319,0.18-0.609,0.539-0.87c0.961-0.58,1.99-0.87,3.09-0.87c0.641,0,1.186,0.12,1.636,0.36s0.784,0.516,1.005,0.825
			c0.22,0.311,0.391,0.75,0.51,1.319c0.12,0.57,0.189,1.046,0.21,1.426s0.03,0.899,0.03,1.56v0.12c0,0.561-0.006,1.311-0.016,2.25
			c-0.01,0.94-0.015,1.601-0.015,1.98c0.04,0.02,0.101,0.055,0.181,0.104c0.079,0.05,0.139,0.085,0.18,0.105
			c0.64,0.359,1.59,1.149,2.85,2.369c1.26,1.301,2.061,2.171,2.4,2.61c0.14-8.3,0.22-12.8,0.24-13.5
			c0.02-0.279,0.164-0.529,0.435-0.75c0.271-0.22,0.595-0.34,0.976-0.36h0.149c0.34,0,0.625,0.081,0.854,0.24
			c0.23,0.16,0.346,0.36,0.346,0.601v0.029c-0.061,1.74-0.16,7.28-0.301,16.62c0,0.28-0.104,0.54-0.314,0.78s-0.465,0.36-0.766,0.36
			c-0.239,0-0.484-0.035-0.734-0.105s-0.436-0.135-0.555-0.195L78.665,244.434z M70.325,236.904c-0.239-0.039-0.43-0.06-0.569-0.06
			c-0.46,0-0.896,0.155-1.306,0.465c-0.41,0.311-0.685,0.836-0.824,1.575c-0.041,0.18-0.061,0.48-0.061,0.9
			c0,1.14,0.24,1.979,0.721,2.52c0.479,0.54,1,0.83,1.56,0.87c0.26-0.54,0.42-2.49,0.479-5.85V236.904z"/>
		<path fill="#4D4D4F" d="M101.195,225.955h0.149c0.361,0,0.666,0.09,0.916,0.27s0.375,0.4,0.375,0.66v0.03
			c-0.101,2.92-0.15,6.11-0.15,9.569v3.301c0,0.4-0.02,0.7-0.061,0.899c-0.26,1.32-1.074,2.355-2.444,3.105
			s-3.045,1.125-5.024,1.125c-5.041,0-7.561-1.21-7.561-3.63c0-1.16,0.02-2.9,0.061-5.221c0.039-2.319,0.059-3.979,0.059-4.979
			c0-0.64-0.039-1.23-0.119-1.771s-0.16-0.939-0.24-1.199s-0.16-0.421-0.24-0.48c-0.18-0.18-0.27-0.37-0.27-0.57
			c0-0.379,0.199-0.689,0.6-0.93c0.32-0.199,0.69-0.3,1.11-0.3s0.739,0.101,0.96,0.3c0.5,0.42,0.814,0.985,0.945,1.695
			c0.129,0.71,0.195,1.694,0.195,2.955c0,1.04-0.021,2.715-0.061,5.024c-0.041,2.311-0.061,4.035-0.061,5.175
			c0,0.641,0.36,1.096,1.08,1.365c0.721,0.271,2.041,0.405,3.961,0.405c1.359,0,2.35-0.17,2.969-0.51c0.62-0.34,1-0.86,1.141-1.561
			c0.04-0.24,0.061-0.439,0.061-0.6v-3.3c0-3.46,0.049-6.67,0.149-9.631c0.02-0.3,0.175-0.569,0.465-0.81
			S100.794,225.974,101.195,225.955z"/>
		<path fill="#4D4D4F" d="M106.715,215.304c0.499,0.12,0.75,0.38,0.75,0.78c0,0.14-0.051,0.29-0.15,0.45
			c-1.26,1.939-2.756,3.439-4.485,4.5c-1.729,1.06-3.415,1.59-5.056,1.59c-0.259,0-0.449-0.01-0.569-0.03
			c-1.06-0.08-1.895-0.399-2.505-0.96c-0.609-0.56-0.915-1.26-0.915-2.1c0-0.48,0.08-0.92,0.239-1.32
			c0.081-0.24,0.266-0.439,0.556-0.6s0.604-0.24,0.944-0.24h0.15c0.281,0.02,0.51,0.11,0.69,0.27c0.18,0.16,0.271,0.351,0.271,0.57
			c0,0.101-0.01,0.18-0.031,0.24c-0.119,0.34-0.18,0.63-0.18,0.87c0,0.82,0.49,1.27,1.471,1.35h0.24c0.58,0,1.215-0.13,1.904-0.39
			s1.49-0.766,2.4-1.516s1.734-1.694,2.475-2.835c0.28-0.439,0.75-0.66,1.41-0.66C106.504,215.274,106.634,215.285,106.715,215.304z
			"/>
		<path fill="#4D4D4F" d="M122.825,244.495c-0.102,0.02-0.24,0.029-0.42,0.029c-0.68,0-1.07-0.229-1.17-0.689
			c-0.121-0.5-0.18-1.891-0.18-4.17c0-1.021,0.014-2.641,0.045-4.86c0.029-2.22,0.045-3.76,0.045-4.62v-0.6
			c-1.581,1.02-2.76,1.66-3.542,1.92c-0.439,0.18-0.84,0.27-1.199,0.27c-0.521,0-0.78-0.239-0.78-0.72c0-0.06,0.021-0.21,0.06-0.45
			c0.061-0.279,0.09-0.529,0.09-0.75c0-0.68-0.194-1.2-0.584-1.56c-0.391-0.36-0.806-0.54-1.245-0.54h-0.15
			c-0.26,0.021-0.56,0.146-0.899,0.375c-0.341,0.23-0.716,0.595-1.125,1.095c-0.41,0.5-0.75,1.25-1.021,2.25
			s-0.405,2.171-0.405,3.51c0,1.2,0.105,2.28,0.315,3.24s0.46,1.715,0.75,2.266c0.29,0.55,0.614,1.005,0.976,1.364
			c0.359,0.36,0.664,0.601,0.914,0.721c0.25,0.119,0.465,0.18,0.646,0.18h0.03c0.039,0,0.09-0.01,0.149-0.03
			c0.06-0.02,0.14-0.069,0.24-0.149c0.1-0.08,0.19-0.186,0.271-0.315c0.079-0.13,0.149-0.305,0.209-0.525
			c0.061-0.22,0.09-0.47,0.09-0.75c0-0.26,0.136-0.505,0.406-0.734c0.27-0.229,0.594-0.365,0.975-0.405h0.209
			c0.34,0,0.621,0.08,0.841,0.24s0.33,0.359,0.33,0.6c0,1.021-0.33,1.92-0.99,2.7s-1.58,1.23-2.76,1.35
			c-0.12,0.021-0.311,0.03-0.57,0.03c-1.739,0-3.14-0.84-4.2-2.52c-1.061-1.681-1.59-4-1.59-6.96c0-2.8,0.564-5.035,1.695-6.705
			c1.129-1.67,2.635-2.605,4.515-2.806c0.14-0.02,0.351-0.029,0.63-0.029c1.1,0,1.99,0.34,2.67,1.02
			c0.68,0.681,1.021,1.47,1.021,2.37c0.919-0.54,2.07-1.34,3.451-2.4c0.5-0.399,0.93-0.6,1.289-0.6c0.24,0,0.445,0.08,0.615,0.24
			s0.275,0.32,0.314,0.479l0.061,0.271c0,0.04,0.004,0.1,0.016,0.18c0.01,0.08,0.014,0.15,0.014,0.21
			c0.041,0.881,0.061,1.89,0.061,3.03c0,0.88-0.01,2.36-0.029,4.439c-0.021,2.081-0.031,3.57-0.031,4.471
			c0,2.12,0.041,3.38,0.121,3.779c0,0.021,0.004,0.045,0.016,0.075c0.01,0.03,0.014,0.056,0.014,0.075
			c0,0.24-0.115,0.465-0.344,0.675C123.45,244.269,123.165,244.415,122.825,244.495z"/>
		<path fill="#4D4D4F" d="M121.114,222.984c-3.78-0.54-6.31-0.97-7.59-1.29c-1.02-0.259-1.779-0.579-2.279-0.96
			c-0.5-0.379-0.75-0.869-0.75-1.47c0-0.64,0.369-1.255,1.109-1.845s1.67-0.955,2.79-1.095c0.36-0.04,0.61-0.061,0.75-0.061
			c0.921,0,1.775,0.141,2.565,0.42c0.79,0.28,1.45,0.62,1.979,1.021c0.531,0.4,1.015,0.88,1.455,1.439
			c0.441,0.561,0.775,1.05,1.006,1.471c0.23,0.42,0.436,0.85,0.615,1.289c0.561,0.081,0.84,0.19,0.84,0.33
			c0,0.041-0.02,0.101-0.061,0.181c-0.119,0.16-0.289,0.3-0.51,0.42c-0.039,0.4-0.279,0.66-0.721,0.78
			c-0.199,0.04-0.34,0.06-0.42,0.06c-0.359,0-0.6-0.17-0.719-0.51c0-0.02-0.01-0.05-0.031-0.09
			C121.124,223.035,121.114,223.004,121.114,222.984z M114.694,218.004c-0.039,0-0.1,0.005-0.18,0.015
			c-0.08,0.011-0.13,0.016-0.15,0.016c-0.359,0.04-0.654,0.145-0.885,0.314c-0.229,0.17-0.345,0.365-0.345,0.585
			c0,0.38,0.12,0.671,0.36,0.87c0.24,0.2,0.76,0.4,1.56,0.6c1.86,0.461,3.64,0.831,5.339,1.11
			C119.014,219.174,117.114,218.004,114.694,218.004z"/>
		<path fill="#4D4D4F" d="M142.235,226.314c0.318,0.021,0.588,0.115,0.809,0.285s0.33,0.365,0.33,0.585
			c0,0.08-0.01,0.141-0.029,0.181c-0.721,2.819-1.371,5.85-1.951,9.09c-0.238,1.38-0.379,2.149-0.42,2.31
			c-0.4,1.92-0.74,3.18-1.02,3.78c-0.68,1.439-1.779,2.16-3.299,2.16c-0.32,0-0.615-0.045-0.887-0.136
			c-0.27-0.09-0.5-0.194-0.689-0.314s-0.369-0.315-0.539-0.585c-0.17-0.271-0.301-0.495-0.391-0.675
			c-0.09-0.181-0.189-0.46-0.301-0.841c-0.109-0.379-0.184-0.669-0.225-0.869c-0.039-0.2-0.105-0.53-0.195-0.99
			s-0.154-0.78-0.193-0.96c-0.461-2.28-0.861-5.01-1.201-8.19c-0.16-1.479-0.461-2.46-0.9-2.939c-0.199,0.22-0.414,0.51-0.645,0.87
			c-0.23,0.359-0.404,0.659-0.525,0.899l-0.18,0.391c-0.24,0.539-0.75,0.81-1.529,0.81h-0.24c-0.281-0.02-0.506-0.109-0.676-0.271
			c-0.17-0.159-0.254-0.35-0.254-0.569c0-0.14,0.02-0.25,0.059-0.33c0.021-0.1,0.061-0.24,0.121-0.42
			c0.061-0.181,0.205-0.5,0.436-0.96c0.229-0.46,0.488-0.865,0.779-1.215c0.289-0.35,0.689-0.67,1.199-0.96s1.076-0.436,1.695-0.436
			c0.561,0,1.041,0.105,1.439,0.315c0.4,0.21,0.715,0.455,0.945,0.734c0.23,0.28,0.42,0.66,0.57,1.141
			c0.15,0.479,0.25,0.885,0.301,1.215c0.049,0.33,0.105,0.765,0.164,1.305c0.34,3.12,0.74,5.79,1.201,8.01
			c0.379,1.881,0.75,3.11,1.109,3.69c0.42-0.7,0.93-2.67,1.529-5.91c0.602-3.34,1.25-6.409,1.951-9.21
			c0.08-0.26,0.273-0.49,0.584-0.689c0.311-0.2,0.645-0.301,1.006-0.301H142.235z"/>
		<path fill="#4D4D4F" d="M147.396,231.684c-0.621-0.14-0.932-0.439-0.932-0.899c0-0.08,0.041-0.221,0.121-0.42
			c0.721-1.32,1.705-2.41,2.955-3.271c1.25-0.859,2.615-1.37,4.094-1.53c0.441-0.039,0.762-0.06,0.961-0.06
			c2.279,0,4.141,0.86,5.58,2.58s2.16,4.07,2.16,7.05c0,2.74-0.721,4.95-2.16,6.63s-3.291,2.64-5.551,2.88
			c-0.439,0.04-0.77,0.061-0.99,0.061c-1.92,0-3.539-0.546-4.859-1.636s-1.98-2.484-1.98-4.185c0-1.06,0.32-1.939,0.961-2.64
			c0.359-0.36,0.75-0.63,1.17-0.811c0.58-0.24,1.17-0.359,1.77-0.359c0.881,0,1.77,0.21,2.67,0.63c0.381,0.16,0.57,0.42,0.57,0.779
			c0,0.24-0.1,0.461-0.301,0.66c-0.318,0.36-0.789,0.54-1.408,0.54c-0.262,0-0.48-0.04-0.66-0.12c-0.5-0.22-0.941-0.33-1.32-0.33
			h-0.09c-0.041,0.021-0.09,0.075-0.15,0.165c-0.061,0.091-0.121,0.245-0.18,0.466c-0.061,0.22-0.09,0.46-0.09,0.72
			c0,1.24,0.443,2.21,1.334,2.91s1.906,1.05,3.045,1.05c0.221,0,0.391-0.01,0.51-0.03c0.541-0.06,1.066-0.22,1.576-0.479
			s1.014-0.646,1.514-1.155s0.906-1.234,1.217-2.175c0.309-0.94,0.465-2.03,0.465-3.271c0-1.38-0.172-2.6-0.512-3.66
			c-0.34-1.06-0.789-1.875-1.35-2.444c-0.561-0.57-1.135-0.99-1.725-1.261c-0.59-0.27-1.186-0.404-1.785-0.404
			c-0.061,0-0.131,0.005-0.209,0.015c-0.08,0.011-0.141,0.015-0.182,0.015c-1.779,0.2-3.209,1.271-4.289,3.21
			c-0.119,0.24-0.33,0.436-0.631,0.586c-0.299,0.149-0.619,0.225-0.959,0.225C147.595,231.714,147.474,231.705,147.396,231.684z"/>
		<path fill="#4D4D4F" d="M169.233,228.774c-0.26-0.18-0.389-0.409-0.389-0.689c0-0.32,0.16-0.601,0.479-0.84
			c1.521-1.16,2.971-1.74,4.352-1.74c2.219,0,3.699,1.29,4.439,3.87c0.379,1.36,0.57,3.029,0.57,5.01s-0.24,3.771-0.721,5.37
			c-1.02,3.44-2.74,5.16-5.16,5.16c-0.641,0-1.244-0.155-1.814-0.465c-0.57-0.311-1.08-0.75-1.529-1.32
			c-0.451-0.57-0.826-1.115-1.125-1.635c-0.301-0.521-0.611-1.141-0.932-1.86c-0.299-0.66-0.91-2.33-1.83-5.01
			c-0.02-0.061-0.029-0.14-0.029-0.24c0-0.24,0.105-0.47,0.314-0.69c0.211-0.22,0.477-0.369,0.795-0.449
			c0.121-0.04,0.301-0.061,0.541-0.061c0.68,0,1.1,0.221,1.26,0.66c0.939,2.7,1.529,4.33,1.77,4.89
			c0.5,1.101,1.061,2.036,1.68,2.806c0.621,0.77,1.061,1.175,1.32,1.215c0.08-0.04,0.215-0.155,0.406-0.345
			c0.189-0.19,0.434-0.54,0.734-1.051c0.301-0.51,0.539-1.084,0.721-1.725c0.439-1.479,0.66-3.13,0.66-4.95
			c0-1.859-0.172-3.39-0.512-4.59c-0.238-0.84-0.549-1.455-0.93-1.845c-0.379-0.391-0.73-0.585-1.049-0.585
			c-0.461,0-1.111,0.32-1.951,0.96c-0.359,0.26-0.76,0.39-1.199,0.39C169.784,229.014,169.493,228.935,169.233,228.774z"/>
		<path fill="#4D4D4F" d="M183.095,231.684c-0.621-0.14-0.932-0.439-0.932-0.899c0-0.08,0.041-0.221,0.121-0.42
			c0.721-1.32,1.705-2.41,2.955-3.271c1.25-0.859,2.615-1.37,4.094-1.53c0.441-0.039,0.762-0.06,0.961-0.06
			c2.279,0,4.141,0.86,5.58,2.58s2.16,4.07,2.16,7.05c0,2.74-0.721,4.95-2.16,6.63s-3.291,2.64-5.551,2.88
			c-0.439,0.04-0.77,0.061-0.99,0.061c-1.92,0-3.539-0.546-4.859-1.636s-1.98-2.484-1.98-4.185c0-1.06,0.32-1.939,0.961-2.64
			c0.359-0.36,0.75-0.63,1.17-0.811c0.58-0.24,1.17-0.359,1.77-0.359c0.881,0,1.77,0.21,2.67,0.63c0.381,0.16,0.57,0.42,0.57,0.779
			c0,0.24-0.1,0.461-0.301,0.66c-0.318,0.36-0.789,0.54-1.408,0.54c-0.262,0-0.48-0.04-0.66-0.12c-0.5-0.22-0.941-0.33-1.32-0.33
			h-0.09c-0.041,0.021-0.09,0.075-0.15,0.165c-0.061,0.091-0.121,0.245-0.18,0.466c-0.061,0.22-0.09,0.46-0.09,0.72
			c0,1.24,0.443,2.21,1.334,2.91s1.906,1.05,3.045,1.05c0.221,0,0.391-0.01,0.51-0.03c0.541-0.06,1.066-0.22,1.576-0.479
			s1.014-0.646,1.514-1.155s0.906-1.234,1.217-2.175c0.309-0.94,0.465-2.03,0.465-3.271c0-1.38-0.172-2.6-0.512-3.66
			c-0.34-1.06-0.789-1.875-1.35-2.444c-0.561-0.57-1.135-0.99-1.725-1.261c-0.59-0.27-1.186-0.404-1.785-0.404
			c-0.061,0-0.131,0.005-0.209,0.015c-0.08,0.011-0.141,0.015-0.182,0.015c-1.779,0.2-3.209,1.271-4.289,3.21
			c-0.119,0.24-0.33,0.436-0.631,0.586c-0.299,0.149-0.619,0.225-0.959,0.225C183.294,231.714,183.173,231.705,183.095,231.684z"/>
		<path fill="#4D4D4F" d="M201.874,232.165c-0.32-0.02-0.586-0.12-0.795-0.3c-0.211-0.181-0.316-0.391-0.316-0.631
			c0-0.06,0.02-0.149,0.061-0.27c0.52-1.42,1.445-2.635,2.775-3.646c1.33-1.009,2.764-1.564,4.305-1.665h0.42
			c1.34,0,2.391,0.41,3.15,1.23s1.141,1.95,1.141,3.39c0,0.32-0.012,0.561-0.031,0.721c-0.4,4.52-0.6,8.35-0.6,11.489v1.17
			c0,0.281-0.141,0.545-0.42,0.796c-0.281,0.249-0.621,0.395-1.02,0.435h-0.24c-0.359,0-0.66-0.08-0.9-0.24s-0.359-0.37-0.359-0.63
			v-1.2c0-3.239,0.199-7.119,0.6-11.64c0.02-0.16,0.029-0.39,0.029-0.69c0-0.999-0.189-1.699-0.57-2.1
			c-0.379-0.399-0.799-0.6-1.26-0.6h-0.119c-0.66,0.04-1.406,0.37-2.234,0.989c-0.83,0.62-1.426,1.431-1.785,2.431
			c-0.102,0.28-0.311,0.51-0.631,0.689c-0.32,0.181-0.67,0.271-1.051,0.271H201.874z"/>
		<path fill="#4D4D4F" d="M219.603,244.615h-0.148c-0.361,0-0.66-0.091-0.9-0.271s-0.361-0.399-0.361-0.66v-0.03
			c0.281-6.359,0.42-10.159,0.42-11.399c0-1.98-0.129-3.33-0.389-4.05c-0.021-0.061-0.031-0.14-0.031-0.24
			c0-0.46,0.271-0.811,0.811-1.05c1.779-0.84,4.471-1.261,8.07-1.261c1.6,0,2.936,0.375,4.006,1.125
			c1.068,0.75,1.604,1.836,1.604,3.256c0,0.3-0.045,1.43-0.135,3.39s-0.135,3.68-0.135,5.16c0,1.5,0.039,2.88,0.121,4.14v0.03
			c0,0.28-0.137,0.54-0.406,0.78c-0.27,0.239-0.605,0.39-1.004,0.449c-0.021,0-0.07,0.006-0.15,0.016s-0.131,0.015-0.15,0.015
			c-0.34,0-0.625-0.079-0.855-0.24c-0.23-0.159-0.355-0.369-0.375-0.63c-0.08-1.3-0.119-2.72-0.119-4.26
			c0-1.52,0.045-3.265,0.135-5.235c0.09-1.97,0.135-3.074,0.135-3.314c0-1.681-1.029-2.521-3.09-2.521
			c-2.121,0-3.891,0.171-5.311,0.511c0.141,0.84,0.211,2.05,0.211,3.63c0,1.28-0.141,5.1-0.42,11.46
			c-0.021,0.28-0.18,0.545-0.48,0.795S220.003,244.594,219.603,244.615z"/>
		<path fill="#4D4D4F" d="M237.272,232.165c-0.32-0.02-0.584-0.12-0.795-0.3c-0.209-0.181-0.314-0.391-0.314-0.631
			c0-0.06,0.02-0.149,0.061-0.27c0.52-1.42,1.443-2.635,2.773-3.646c1.33-1.009,2.766-1.564,4.307-1.665h0.42
			c1.34,0,2.389,0.41,3.148,1.23s1.141,1.95,1.141,3.39c0,0.32-0.01,0.561-0.029,0.721c-0.4,4.52-0.6,8.35-0.6,11.489v1.17
			c0,0.281-0.141,0.545-0.422,0.796c-0.279,0.249-0.619,0.395-1.02,0.435h-0.24c-0.359,0-0.66-0.08-0.898-0.24
			c-0.24-0.16-0.361-0.37-0.361-0.63v-1.2c0-3.239,0.199-7.119,0.6-11.64c0.021-0.16,0.031-0.39,0.031-0.69
			c0-0.999-0.191-1.699-0.57-2.1c-0.381-0.399-0.801-0.6-1.26-0.6h-0.121c-0.66,0.04-1.404,0.37-2.234,0.989
			c-0.83,0.62-1.426,1.431-1.785,2.431c-0.1,0.28-0.311,0.51-0.629,0.689c-0.32,0.181-0.672,0.271-1.051,0.271H237.272z"/>
		<path fill="#4D4D4F" d="M269.821,224.424c0.301,0.2,0.451,0.431,0.451,0.69c0,0.28-0.131,0.52-0.391,0.72
			c-1,0.86-1.879,1.71-2.641,2.55c1.08,1.34,1.621,3.011,1.621,5.01c0,0.601-0.041,1.17-0.121,1.71
			c-0.16,1.12-0.404,2.365-0.734,3.735s-0.609,2.45-0.84,3.24s-0.365,1.215-0.404,1.274c-0.24,0.601-0.75,0.9-1.531,0.9h-0.148
			c-0.32-0.021-0.576-0.115-0.766-0.285c-0.191-0.17-0.285-0.364-0.285-0.585c0-0.1,0.01-0.18,0.029-0.24
			c0.941-2.959,1.58-5.619,1.92-7.979c0.08-0.68,0.121-1.16,0.121-1.44c0-1.14-0.23-2.189-0.689-3.149
			c-1.582,2.02-3.057,4.21-4.426,6.569c-1.371,2.36-2.455,4.541-3.256,6.54c-0.559,0.66-1.119,0.99-1.68,0.99
			c-0.4,0-0.719-0.221-0.959-0.66c-0.221-0.38-0.59-1.475-1.111-3.285c-0.52-1.81-0.92-3.585-1.199-5.325
			c-0.1-0.659-0.15-1.229-0.15-1.71c0-2.64,0.949-4.72,2.85-6.239c1.541-1.24,3.381-1.86,5.521-1.86c1.738,0,3.25,0.42,4.529,1.26
			c0.92-0.939,1.689-1.68,2.311-2.22c0.34-0.28,0.738-0.42,1.199-0.42C269.321,224.214,269.583,224.285,269.821,224.424z
			 M263.882,228.714c-0.939-0.74-2.02-1.11-3.24-1.11c-1.119,0-2.1,0.3-2.939,0.9c-1.52,1.061-2.279,2.67-2.279,4.83
			c0,0.54,0.039,1.05,0.119,1.53c0.221,1.38,0.6,3.04,1.141,4.979C258.722,235.724,261.122,232.014,263.882,228.714z"/>
	</g>
</g>
</svg>
