<?xml version="1.0" encoding="utf-8"?>
<!-- Generator: Adobe Illustrator 16.0.0, SVG Export Plug-In . SVG Version: 6.00 Build 0)  -->
<!DOCTYPE svg PUBLIC "-//W3C//DTD SVG 1.1//EN" "http://www.w3.org/Graphics/SVG/1.1/DTD/svg11.dtd">
<svg version="1.1" id="Layer_1" xmlns="http://www.w3.org/2000/svg" xmlns:xlink="http://www.w3.org/1999/xlink" x="0px" y="0px"
	 width="269px" height="250px" viewBox="0 0 269 250" enable-background="new 0 0 269 250" xml:space="preserve">
<path fill="#AB8E52" d="M96.315,120.732c-16.72-11.795-52.47-12.166-59.057,18.604C33.508,156.848,13.514,180.077,0,175.884v5.138
	c17.498,0.787,37.394-20.363,41.079-39.289c5.845-30.016,53.521-26.229,61.442-12.527"/>
<ellipse fill="#B7BBA5" cx="90.607" cy="62.371" rx="11.647" ry="12.783"/>
<path fill="#909584" d="M97.77,72.45c-1.976,1.694-4.462,2.704-7.163,2.704c-6.434,0-11.647-5.723-11.647-12.783
	c0-4.321,1.954-8.142,4.944-10.456C84.602,58.975,86.189,68.549,97.77,72.45z"/>
<path opacity="0.5" fill="#FFFFFF" enable-background="new    " d="M178.807,91.808c0,0,7.373-18.261,8.172-24.764
	c0.453-3.718,0.16-11.448-1.104-14.952c-1.039-2.881-4.659-8.073-7.067-9.812c-6.846-7.943-26.359-11.765-35.552-10.747
	c-3.079,0.341-9.071,2.85-11.482,4.907c-1.299,1.107-3.863,5.335-4.555,6.941c-2.959,6.873-6.486,28.101-6.486,28.101l19.023,3.731
	l21.103,7.295l16.475,9.807L178.807,91.808z"/>
<path fill="#71C1E8" d="M150.488,82.143c-16.791-3.382-32.073-4.206-32.073-4.206l9.197-24.181
	c16.871-26.606,39.328-11.415,39.328-11.415c20.457,10.132,11.16,52.242,11.16,52.242C176.904,95.476,167.516,85.576,150.488,82.143
	z"/>
<path fill="#D4D8BD" stroke="#D4D8BD" stroke-width="0.6203" stroke-miterlimit="10" d="M103.778,65.202
	c5.47,5.991,10.777,5.124,17.43,5.872c2.09-3.343,5.983-4.978,9.708-3.742l36.291,12.04c4.084,1.355,8.434,6.757,7.979,11.25
	c11.232,0.281,16.469-3.474,20.855-6.021c5.244-4.477,22.807,13.554,10.57,18.244c-21.133,11-32.455,7.816-37.648,3.202
	l-12.536,45.51l-26.272-8.312l-26.702-9.265l11.5-41.75c-8.632,1.104-20.177-5.74-30.216-18.527
	C78.522,67.946,97.307,58.112,103.778,65.202z"/>
<path fill="#C8CCB3" d="M161.552,133.744l7.525-27.322c5.192,4.615,14.762,7.615,36.956-2.71c5.697-2.185,7.54-4.849,4-10.06
	c-4.178,3.578-17.278,18.225-40.088,5.974"/>
<path fill="#C8CCB3" d="M117.144,86.126C104.769,83.463,93.529,75.65,87.921,65.21c-2.4,0.054-6.71,5.376-3.763,8.106
	c10.04,12.788,21.782,20.314,30.414,19.21l-6.66,24.326"/>
<ellipse fill="#B7BBA5" cx="208.46" cy="88.039" rx="11.646" ry="12.782"/>
<path fill="#909584" d="M201.298,98.119c1.978,1.694,4.461,2.703,7.162,2.703c6.435,0,11.646-5.723,11.646-12.782
	c0-4.321-1.953-8.141-4.941-10.456C214.466,84.644,212.878,94.217,201.298,98.119z"/>
<path fill="#D4D8BD" d="M97.346,177.339c-2.369-6.499-4.421-24.696,16.008-39.319l-2.961-11.694
	c-22.206-6.5-40.323,20.267-36.649,59.741"/>
<path fill="#B7BBA5" d="M161.335,121.062c-5.739-6.597-32.834-18.375-47.3-14.841l1.376,9.187l39.724,11.541L161.335,121.062z"/>
<path fill="#D4D8BD" d="M157.577,193.591c0,0,5.42-34.552-9.386-41.375l7.203-13.872c16.832,7.988,27.354,12.779,31.638,28.938
	c0.112,0.424,0.226,0.852,0.34,1.282C191.812,185.461,165.273,191.966,157.577,193.591z"/>
<path fill="#C8CCB3" d="M149.073,150.367l-0.882,1.849c14.806,6.823,9.386,41.375,9.386,41.375
	c4.981-1.052,17.856-4.147,25.116-10.782C178.698,166.1,160.003,148.926,149.073,150.367z"/>
<path fill="#B7BBA5" d="M157.577,193.591c1.669-9.047,16.883-39.97,36.127-32.323C218.118,169.146,169.652,203.973,157.577,193.591z
	"/>
<path fill="#909584" d="M157.816,193.68c1.668-9.047,19.188-37.262,38.436-29.615C217.066,172.332,164.57,205.014,157.816,193.68z"
	/>
<path fill="#B7BBA5" d="M171.857,89.212C162.79,82.9,162.79,82.9,162.79,82.9s-13.937-10.145-38.927-11.166
	c-3.319-0.243-2.212-4.612,3.095-5.34c15.119-3.342,44.196,11.214,46.671,18.206C174.514,86.785,175.177,89.698,171.857,89.212z"/>
<path fill="#B7BBA5" d="M158.714,139.105c-10-5.732-10-5.732-10-5.732s-15.402-9.273-41.65-7.93
	c-3.493,0.066-2.686-4.613,2.813-5.889c15.558-4.959,47.169,7.471,50.318,14.551C161.298,136.307,162.229,139.292,158.714,139.105z"
	/>
<path fill="#F2C572" d="M96.315,118.898c-16.72-11.796-52.47-12.167-59.057,18.604C33.508,155.014,13.514,178.244,0,174.05v5.136
	c17.498,0.787,37.394-20.36,41.079-39.287c5.845-30.017,50.893-24.396,58.814-10.692l-1.191-9.783"/>
<path fill="#C8CCB3" d="M156.145,151.479c0,0,0.192,9.457-9.647,5.982s-37.826-12.545-37.826-12.545s-3.667-3.859-1.737-10.035
	L156.145,151.479z"/>
<path fill="#C8CCB3" d="M112.559,138.658L112.559,138.658c-19.986,14.926-17.71,32.439-15.342,38.938l-15.31,7.85
	C69.994,142.543,98.633,123.784,112.559,138.658z"/>
<path fill="#B7BBA5" d="M61.035,174.003c1.641-4.411,29.858-5.741,36.497,3.677C97.605,192.648,62.865,188.275,61.035,174.003z"/>
<path fill="#909584" d="M60.547,176.576c-0.365-4.693,29.859-5.742,36.498,3.676C98.376,189.818,61.579,189.818,60.547,176.576z"/>
<path opacity="0.26" fill="#FFFFFF" enable-background="new    " d="M167.264,52.903c-5.818-6.653-2.193-10.783,3.435-8.166
	c3.147,2.303,8.106,8.061,2.673,12.249C171.469,57.716,169.552,55.52,167.264,52.903z"/>
<path fill="#AB8E52" d="M160.721,184.73l-77.098-18.744c-5.666-1.379-8.726-7.529-6.836-13.738l22.879-75.211
	c1.89-6.21,8.013-10.126,13.678-8.75l77.098,18.747c5.666,1.377,8.727,7.527,6.836,13.737L174.4,175.98
	C172.509,182.191,166.385,186.107,160.721,184.73z"/>
<path fill="#F2C572" d="M161.43,181.667l-76.635-18.634c-5.632-1.367-8.716-7.354-6.886-13.358l22.139-72.782
	c1.829-6.01,7.876-9.77,13.508-8.402l76.639,18.635c5.631,1.37,8.715,7.352,6.884,13.36l-22.142,72.78
	C173.114,179.273,167.062,183.035,161.43,181.667z"/>
<g>
	<path fill="#A3A3A3" d="M168.867,160.311l10.527-38.716l3.142,0.854l-10.528,38.714
		C170.471,166.814,167.066,165.062,168.867,160.311z"/>
	<g>
		<circle fill="#AA111D" cx="180.964" cy="122.024" r="7.598"/>
		<circle fill="#C51E24" cx="180.964" cy="122.024" r="5.608"/>
	</g>
	<g>
		<circle fill="#D18622" cx="177.053" cy="136.408" r="4.539"/>
		<circle fill="#F7AD3B" cx="177.053" cy="136.408" r="3.349"/>
	</g>
	<g>
		<circle fill="#D18622" cx="174.038" cy="147.5" r="4.538"/>
		<circle fill="#F7AD3B" cx="174.038" cy="147.499" r="3.349"/>
	</g>
</g>
<text transform="matrix(0.9941 0.1085 -0.1085 0.9941 97.5942 99.0762)" font-family="'BoonJot-Regular'" font-size="14">การขึ้นและการตก</text>
<text transform="matrix(0.9995 0.0331 -0.0331 0.9995 87.3936 128.7344)" font-family="'BoonJot-Regular'" font-size="15">ของดวงอาทิตย์</text>
<text transform="matrix(0.9226 0.3858 -0.3858 0.9226 87.0732 146.8145)" font-family="'BoonJot-Regular'" font-size="12">และ</text>
<text transform="matrix(0.9851 0.1719 -0.1719 0.9851 106.6982 153.5127)" font-family="'BoonJot-Regular'" font-size="15">ดวงจันทร์ </text>
</svg>
