<?xml version="1.0" encoding="utf-8"?>
<!-- Generator: Adobe Illustrator 16.0.0, SVG Export Plug-In . SVG Version: 6.00 Build 0)  -->
<!DOCTYPE svg PUBLIC "-//W3C//DTD SVG 1.1//EN" "http://www.w3.org/Graphics/SVG/1.1/DTD/svg11.dtd">
<svg version="1.1" id="Layer_1" xmlns="http://www.w3.org/2000/svg" xmlns:xlink="http://www.w3.org/1999/xlink" x="0px" y="0px"
	 width="248px" height="266px" viewBox="0 0 248 266" enable-background="new 0 0 248 266" xml:space="preserve">
<g>
	<g>
		<path fill="#3D392F" d="M-116.143,220.311c0,0,5.629,5.807,7.074,8.102c0,0,15.5-4.237,20.092,1.215
			c2.922,3.466-20.092,4.896-23.877,5.121c-3.91,0.229-9.617-8.812-9.617-8.812L-116.143,220.311z"/>
	</g>
	<g>
		<path fill="#3D392F" d="M-230.715,217.059c0,0-5.63,5.803-7.074,8.101c0,0-15.5-4.237-20.093,1.214
			c-2.922,3.466,20.093,4.896,23.877,5.122c3.909,0.229,9.617-8.812,9.617-8.812L-230.715,217.059z"/>
	</g>
	<g>
		<path fill="#71C1E8" d="M-256.23,78.05c0,0,11.46-62.78,80.247-62.913c68.807-0.109,74.901,43.385,77.85,49.192
			c2.966,5.828,20.014,66.392,16.42,103.356c-3.612,36.994-18.819,67.648-73.316,70.896
			c-58.386,3.487-109.578-19.972-108.375-74.731C-262.212,109.077-256.23,78.05-256.23,78.05z"/>
		<g>
			<path fill="#D93637" d="M-200.198,85.501c-13.794-5.995-17.91-3.887-14.931,18.727c0,0,5.562,19.84,31.342,22.515
				c0,0,26.42,6.749,43.436-15.291c0,0,11.307-14.518,4.438-25.372c0,0-7.648-7.89-27.555,2.214
				C-163.471,88.295-186.409,91.49-200.198,85.501z"/>
		</g>
		<g>
			<polygon fill="#575756" points="-126.979,175.59 -175.129,175.59 -175.129,260 -107.17,260 			"/>
			<polygon fill="#575756" points="-223.276,175.59 -243.086,260 -175.129,260 -175.129,175.59 			"/>
			<path fill="#575756" d="M-59.589,162.784h-229.134v6.7c0,7.445,6.035,13.479,13.48,13.479h202.175
				c7.442,0,13.479-6.033,13.479-13.479V162.784L-59.589,162.784z"/>
			<path fill="#3F3F3E" d="M-59.589,160.989V87.91c0-5.574-4.519-10.092-10.093-10.092l0,0c-5.571,0-10.09,4.518-10.09,10.092
				v73.079c0,5.571,4.519,10.09,10.09,10.09l0,0C-64.107,171.079-59.589,166.562-59.589,160.989z"/>
			<path fill="#494947" d="M-268.541,160.989V87.91c0-5.574-4.518-10.092-10.091-10.092l0,0c-5.574,0-10.092,4.518-10.092,10.092
				v73.079c0,5.571,4.518,10.09,10.092,10.09l0,0C-273.058,171.079-268.541,166.562-268.541,160.989z"/>
			<path fill="#3F3F3E" d="M-253.928,142.214c-9.535,4.405-14.816,15.31-8.35,24.972c14.154,21.154,39.339,40.758,65.169,52.231
				c3.841,1.707,12.951,2.687,21.772,2.804v-91.419C-216.514,130.844-235.838,133.857-253.928,142.214z"/>
			<path fill="#3F3F3E" d="M-96.745,142.214c9.535,4.405,14.817,15.31,8.353,24.972c-14.155,21.154-39.342,40.758-65.17,52.231
				c-3.84,1.707-12.951,2.687-21.772,2.804v-91.419C-134.159,130.844-114.833,133.857-96.745,142.214z"/>
			<path fill="#575756" d="M-217.849,120.496c-5.159,5.127-8.015,17.82-4.518,29.07c7.658,24.627,21.281,47.447,35.253,60.809
				c2.078,1.986,7.005,3.126,11.777,3.261V107.21C-197.61,107.258-208.064,110.768-217.849,120.496z"/>
			<path fill="#575756" d="M-132.823,120.496c5.159,5.127,8.017,17.82,4.519,29.07c-7.656,24.627-21.28,47.447-35.254,60.809
				c-2.075,1.986-7.004,3.126-11.776,3.261V107.21C-153.062,107.258-142.607,110.768-132.823,120.496z"/>
		</g>
		<path fill="#3D392F" d="M-276.083,89.782c-14.999,1.035-24.667,18.083-17.827,32.556c6.834,14.479,28.947,10.059,29.351-10.05
			c0,0-1.181,10.856,8.252,8.441C-246.871,118.319-252.401,88.143-276.083,89.782z"/>
		<path fill="#3D392F" d="M-71.917,87.83c14.998,1.035,24.667,18.083,17.826,32.556c-6.834,14.479-28.947,10.058-29.351-10.05
			c0,0,1.182,10.856-8.252,8.441C-101.13,116.367-95.6,86.19-71.917,87.83z"/>
		<g>
			<path fill="#231F20" d="M-223.629,62.576c-0.74-0.27-1.142-1.078-0.899-1.839c0.481-1.51,4.895-14.76,12.004-14.905
				c4.46-0.088,8.42,4.791,12.091,14.915c0.277,0.772-0.12,1.62-0.889,1.898c-0.768,0.278-1.619-0.118-1.897-0.888
				c-4.118-11.36-7.562-13.001-9.244-12.962c-4.24,0.085-8.192,9.536-9.241,12.839c-0.248,0.783-1.082,1.213-1.861,0.966
				C-223.585,62.592-223.608,62.583-223.629,62.576z"/>
		</g>
		<g>
			<path fill="#231F20" d="M-149.628,62.481c-0.737-0.273-1.14-1.082-0.897-1.841c0.48-1.512,4.896-14.762,12.006-14.905
				c4.463-0.086,8.416,4.791,12.09,14.915c0.277,0.77-0.119,1.618-0.889,1.896c-0.771,0.282-1.619-0.118-1.897-0.886
				c-4.118-11.356-7.56-12.997-9.245-12.962c-4.238,0.085-8.189,9.536-9.24,12.839c-0.248,0.781-1.081,1.211-1.861,0.966
				C-149.584,62.494-149.604,62.486-149.628,62.481z"/>
		</g>
	</g>
</g>
<path fill="#AB8E52" d="M179.738,190.539c1.25,4.674-1.498,9.673-6.141,11.164l-69.374,22.316c-4.64,1.49-9.412-1.088-10.66-5.762
	l-25.573-95.761c-1.249-4.674,1.5-9.672,6.14-11.165l69.375-22.315c4.641-1.493,9.412,1.085,10.659,5.76L179.738,190.539z"/>
<path fill="#F2C572" d="M178.91,186.898c1.248,4.676-1.5,9.674-6.139,11.166l-69.375,22.313c-4.64,1.493-9.413-1.088-10.661-5.76
	l-25.572-95.76c-1.249-4.674,1.5-9.672,6.14-11.164l69.375-22.317c4.641-1.492,9.411,1.086,10.659,5.761L178.91,186.898z"/>
<g>
	<path fill="#AB8E52" d="M148.508,206.984c10.456,15.888,10.447,49.629-17.309,55.563c-3.01,0.646-6.213,1.845-9.399,3.45
		c-13.539,6.827-26.801,21.023-23.85,31.38l-4.622-0.046c-0.372-11.344,8.574-23.658,19.742-31.334
		c5.099-3.504,10.659-6.041,16.008-7.078c27.068-5.242,25.695-41.729,13.441-49.33"/>
	<path fill="#F2C572" d="M151.667,204.918c10.459,15.889,8.106,49.464-19.647,55.4c-15.796,3.38-36.832,24.222-33.186,37.016h-5.417
		c-0.542-16.521,19.414-37.338,36.479-40.645c27.068-5.242,25.695-41.729,13.441-49.328l8.16-2.443"/>
</g>
<ellipse fill="#B7BBA5" cx="188.078" cy="94.505" rx="13.262" ry="14.556"/>
<path fill="#909584" d="M179.922,105.982c2.25,1.929,5.081,3.078,8.156,3.078c7.326,0,13.262-6.517,13.262-14.556
	c0-4.92-2.225-9.27-5.629-11.905C194.916,90.638,193.109,101.541,179.922,105.982z"/>
<path fill="#C6A35F" d="M161.766,184.122l0.024-0.022l-0.043-0.02l-1.367-3.482l-3.476,1.307l-17.23-7.739l-28.701,15.177
	c-0.654-0.601-1.316-0.845-1.316-0.845l-13.54,5.458l1.382,26.688l3.062,0.195c0,0-0.231-10.23,5.356-18.471
	c10.478,0.294,38.536-9.354,49.385-14.024c2.748,1.88,6.36,4.8,9.829,12.216l3.042-0.731L161.766,184.122z"/>
<path opacity="0.5" fill="#FFFFFF" enable-background="new    " d="M74.239,114.726c0,0-6.029-19.791-6.111-26.584
	c-0.046-3.884,1.263-11.789,3.132-15.216c1.536-2.817,6.279-7.653,9.218-9.106c8.733-7.217,31.258-8.443,41.515-6.125
	c3.437,0.776,9.892,4.185,12.354,6.633c1.324,1.318,3.689,6.019,4.271,7.765c2.476,7.473,3.786,29.782,3.786,29.782l-21.961,1.2
	l-24.757,4.577l-19.844,7.799L74.239,114.726z"/>
<g>
	<path fill="#71C1E8" d="M80.25,115.75c0,0-15.142-29.214,5.75-44.25c0,0,30.75-16.25,46.096,6.332
		c2.812,4.14,8.404,22.918,8.404,22.918s-12.414,0.286-30.886,5.69C90.878,111.927,81.693,116.377,80.25,115.75z"/>
	<g>
		<path fill="#36495C" d="M109.917,72.659c0.633,1.589,0.415,3.074-0.486,3.316c-0.902,0.244-2.142-0.847-2.771-2.437
			c-0.631-1.588-0.413-3.072,0.487-3.316C108.045,69.981,109.288,71.071,109.917,72.659z"/>
		<path fill="#36495C" d="M84.164,87.242c0.626,1.59,0.41,3.069-0.48,3.317c-0.899,0.243-2.146-0.852-2.769-2.437
			c-0.631-1.588-0.415-3.074,0.484-3.32C82.294,84.566,83.534,85.654,84.164,87.242z"/>
	</g>
	<g>
		<path fill="#D93637" d="M97.507,88.071c-3.786-0.538-4.778,0.119-3.196,4.689c0,0,2.153,3.861,8.931,3.083
			c0,0,7.09,0.036,10.714-5.456c0,0,2.406-3.624,0.236-5.532c0,0-2.263-1.253-7.067,1.89C107.125,86.749,101.3,88.607,97.507,88.071
			z"/>
	</g>
</g>
<path fill="#D4D8BD" stroke="#D4D8BD" stroke-width="0.7994" stroke-miterlimit="10" d="M169.779,94.271
	c-7.861,6.923-15.485,5.92-25.047,6.786c-3.004-3.863-66.103,9.589-66.103,9.589c-5.869,1.566-12.119,7.808-11.467,12.999
	c-16.143,0.325-23.667-4.014-29.972-6.956c-7.537-5.174-32.774,15.663-15.19,21.081c30.368,12.713,46.639,9.033,54.103,3.7
	l18.014,52.589l37.756-9.605l38.371-10.705l-7.995-47.997c12.406,1.275,20.466-6.88,34.891-21.656
	C206.073,97.442,179.078,86.079,169.779,94.271z"/>
<path fill="#C8CCB3" d="M90.062,183.359l-13.586-38.193c-5.915,5.254-16.808,8.672-42.081-3.086
	c-6.49-2.487-8.588-5.521-4.556-11.455c4.755,4.075,19.674,20.752,45.646,6.803"/>
<path fill="#C8CCB3" d="M159.861,118.806c14.092-3.033,26.891-11.929,33.273-23.817c2.732,0.062,8.471,5.402,5.114,8.511
	c-11.435,14.562-25.632,23.852-35.461,22.595l6.336,38.155"/>
<path fill="#FFFFFF" d="M165.316,151.717c0,0-7.096-36.879-17.444-41.615c-13.813-5.021-57.069,8.252-65.793,20.809
	c-5.719,9.495,8.36,43.415,8.36,43.415l9.815,8.968l62.887-17.583L165.316,151.717z"/>
<ellipse fill="#B7BBA5" cx="25.131" cy="126.233" rx="13.262" ry="14.556"/>
<path fill="#909584" d="M33.287,137.711c-2.25,1.93-5.081,3.078-8.155,3.078c-7.325,0-13.263-6.518-13.263-14.556
	c0-4.919,2.224-9.27,5.63-11.905C18.292,122.367,20.1,133.269,33.287,137.711z"/>
<path fill="#D4D8BD" d="M168.154,221.919c2.697-7.401,5.033-28.123-18.229-44.772l3.372-13.318
	c25.285-7.4,45.914,23.076,41.73,68.027"/>
<path fill="#D4D8BD" d="M99.571,240.424c0,0-6.172-39.344,10.684-47.113l-8.201-15.795c-19.166,9.096-31.149,14.553-36.024,32.948
	c-0.129,0.481-0.256,0.97-0.386,1.462C60.587,231.166,90.805,238.574,99.571,240.424z"/>
<path fill="#C8CCB3" d="M109.254,191.206l1.002,2.104c-16.856,7.77-10.684,47.11-10.684,47.11
	c-5.674-1.194-20.334-4.724-28.601-12.276C75.521,209.119,96.808,189.564,109.254,191.206z"/>
<path fill="#B7BBA5" d="M99.571,240.424c-1.901-10.301-19.225-45.512-41.139-36.807C30.633,212.589,85.819,252.245,99.571,240.424z"
	/>
<path fill="#909584" d="M99.298,240.523c-1.901-10.301-21.852-42.431-43.765-33.724C31.83,216.218,91.605,253.432,99.298,240.523z"
	/>
<path fill="#B7BBA5" d="M76.106,119.58c12.97-6.267,12.97-6.267,12.97-6.267s19.975-10.145,54.138-8.486
	c4.548,0.097,3.371-5.793-3.796-7.239c-20.287-5.581-61.235,8.657-65.28,16.46C72.724,116.472,71.538,119.765,76.106,119.58z"/>
<path opacity="0.2" fill="#FFFFFF" enable-background="new    " d="M77.493,112.328c0,0-7.036-17.05-7.543-23
	c-0.292-3.401,0.462-10.39,2.038-13.48c1.295-2.542,5.535-7.008,8.261-8.423c7.917-6.744,29.435-8.899,39.418-7.361
	c3.344,0.515,9.746,3.192,12.267,5.219c1.358,1.092,3.92,5.097,4.584,6.6c2.854,6.428,5.521,25.912,5.521,25.912l-62.963,15.092
	L77.493,112.328z"/>
<path fill="#C8CCB3" d="M101.202,192.471c0,0-0.22,10.771,10.988,6.812c11.207-3.956,43.071-14.284,43.071-14.284
	s4.177-4.396,1.979-11.429L101.202,192.471z"/>
<path fill="#C8CCB3" d="M150.832,177.872L150.832,177.872c22.758,16.996,20.166,36.938,17.47,44.338l17.433,8.938
	C199.301,182.296,166.689,160.936,150.832,177.872z"/>
<path fill="#B7BBA5" d="M209.501,218.12c-1.868-5.022-33.999-6.538-41.558,4.187C167.861,239.354,207.417,234.372,209.501,218.12z"
	/>
<path fill="#909584" d="M210.057,221.049c0.416-5.343-34-6.537-41.559,4.186C166.982,236.129,208.882,236.129,210.057,221.049z"/>
<path opacity="0.26" fill="#FFFFFF" enable-background="new    " d="M87.792,78.475c6.626-7.575,2.498-12.278-3.91-9.298
	c-3.584,2.622-9.232,9.179-3.042,13.947C83.002,83.955,85.185,81.455,87.792,78.475z"/>
<g>
	<text transform="matrix(0.9671 -0.2545 0.2545 0.9671 89.6045 153.71)" font-family="'BoonJot-Regular'" font-size="19">ทิศบนโลก</text>
</g>
<path fill="#B7BBA5" d="M91.771,179.656c9.088-10.047,51.98-27.987,74.879-22.605l-1.9,12.449l-63.163,19.126L91.771,179.656z"/>
</svg>
