<?xml version="1.0" encoding="utf-8"?>
<!-- Generator: Adobe Illustrator 16.0.0, SVG Export Plug-In . SVG Version: 6.00 Build 0)  -->
<!DOCTYPE svg PUBLIC "-//W3C//DTD SVG 1.1//EN" "http://www.w3.org/Graphics/SVG/1.1/DTD/svg11.dtd">
<svg version="1.1" id="Layer_1" xmlns="http://www.w3.org/2000/svg" xmlns:xlink="http://www.w3.org/1999/xlink" x="0px" y="0px"
	 width="269px" height="250px" viewBox="0 0 269 250" enable-background="new 0 0 269 250" xml:space="preserve">
<path fill="#AB8E52" d="M159.328,123.127c19.039-13.431,59.746-13.852,67.246,21.186c4.271,19.938,27.037,46.395,42.426,41.617
	v5.848c-19.926,0.896-42.579-23.188-46.775-44.733c-6.656-34.179-50.656-31.973-59.677-16.373"/>
<path fill="#F2C572" d="M159.328,121.038c19.039-13.432,59.746-13.852,67.246,21.185c4.271,19.94,27.037,46.395,42.426,41.616v5.849
	c-19.926,0.896-42.579-23.188-46.775-44.733c-6.656-34.179-50.656-31.973-59.677-16.374l-1.587,0.521l-4.352-7.464"/>
<path fill="#AB8E52" d="M180.738,182.539c1.25,4.674-1.498,9.673-6.141,11.164l-69.374,22.316c-4.64,1.49-9.412-1.088-10.66-5.762
	l-25.573-95.761c-1.249-4.674,1.5-9.672,6.14-11.165l69.375-22.315c4.641-1.493,9.412,1.085,10.659,5.76L180.738,182.539z"/>
<path fill="#F2C572" d="M179.91,178.898c1.248,4.676-1.5,9.674-6.139,11.166l-69.375,22.313c-4.64,1.493-9.413-1.088-10.661-5.76
	l-25.572-95.76c-1.249-4.674,1.5-9.672,6.14-11.164l69.375-22.317c4.641-1.492,9.411,1.086,10.659,5.761L179.91,178.898z"/>
<ellipse fill="#B7BBA5" cx="189.078" cy="86.505" rx="13.262" ry="14.556"/>
<path fill="#909584" d="M180.922,97.982c2.25,1.929,5.081,3.078,8.156,3.078c7.326,0,13.262-6.517,13.262-14.556
	c0-4.92-2.225-9.27-5.629-11.905C195.916,82.638,194.109,93.541,180.922,97.982z"/>
<path fill="#C6A35F" d="M162.766,176.122l0.024-0.022l-0.043-0.02l-1.367-3.482l-3.476,1.307l-17.23-7.739l-28.701,15.177
	c-0.654-0.601-1.316-0.845-1.316-0.845l-13.54,5.458l1.382,26.688l3.062,0.195c0,0-0.231-10.23,5.356-18.471
	c10.478,0.294,38.536-9.354,49.385-14.024c2.748,1.88,6.36,4.8,9.829,12.216l3.042-0.731L162.766,176.122z"/>
<path opacity="0.5" fill="#FFFFFF" enable-background="new    " d="M75.239,106.726c0,0-6.029-19.791-6.111-26.584
	c-0.046-3.884,1.263-11.789,3.132-15.216c1.536-2.817,6.279-7.653,9.218-9.106c8.733-7.217,31.258-8.443,41.515-6.125
	c3.436,0.776,9.892,4.185,12.354,6.633c1.324,1.318,3.689,6.019,4.271,7.765c2.476,7.473,3.786,29.782,3.786,29.782l-21.961,1.2
	l-24.757,4.577l-19.844,7.799L75.239,106.726z"/>
<g>
	<path fill="#71C1E8" d="M81.25,107.75c0,0-15.142-29.214,5.75-44.25c0,0,30.75-16.25,46.095,6.332
		c2.813,4.14,8.405,22.918,8.405,22.918s-12.414,0.286-30.886,5.69C91.878,103.927,82.693,108.377,81.25,107.75z"/>
	<g>
		<path fill="#36495C" d="M110.917,64.659c0.633,1.589,0.415,3.074-0.486,3.316c-0.902,0.244-2.142-0.847-2.771-2.437
			c-0.631-1.588-0.413-3.072,0.487-3.316C109.045,61.981,110.288,63.071,110.917,64.659z"/>
		<path fill="#36495C" d="M85.164,79.242c0.626,1.59,0.41,3.069-0.48,3.317c-0.899,0.243-2.146-0.852-2.769-2.437
			c-0.631-1.588-0.415-3.074,0.484-3.32C83.294,76.566,84.534,77.654,85.164,79.242z"/>
	</g>
	<g>
		<path fill="#D93637" d="M98.507,80.071c-3.786-0.538-4.778,0.119-3.196,4.689c0,0,2.153,3.861,8.931,3.083
			c0,0,7.09,0.036,10.714-5.456c0,0,2.406-3.624,0.236-5.532c0,0-2.263-1.253-7.067,1.89C108.125,78.749,102.3,80.607,98.507,80.071
			z"/>
	</g>
</g>
<path fill="#D4D8BD" stroke="#D4D8BD" stroke-width="0.7994" stroke-miterlimit="10" d="M170.779,86.271
	c-7.861,6.923-15.485,5.92-25.047,6.786c-3.004-3.863-66.103,9.589-66.103,9.589c-5.869,1.566-12.119,7.808-11.467,12.999
	c-16.143,0.325-23.667-4.014-29.972-6.956c-7.537-5.174-32.774,15.663-15.19,21.081c30.368,12.713,46.639,9.033,54.103,3.7
	l18.014,52.589l37.756-9.605l38.371-10.705l-7.995-47.997c12.406,1.275,20.466-6.88,34.891-21.656
	C207.073,89.442,180.078,78.079,170.779,86.271z"/>
<path fill="#C8CCB3" d="M91.062,175.359l-13.586-38.193c-5.915,5.254-16.808,8.672-42.081-3.086
	c-6.49-2.487-8.588-5.521-4.556-11.455c4.755,4.075,19.674,20.752,45.646,6.803"/>
<path fill="#C8CCB3" d="M160.861,110.806c14.092-3.033,26.891-11.929,33.273-23.817c2.732,0.062,8.471,5.402,5.114,8.511
	c-11.435,14.562-25.632,23.852-35.461,22.595l6.336,38.155"/>
<path fill="#FFFFFF" d="M165.65,140.583c0,0-7.151-38.204-17.584-43.109c-13.922-5.201-57.518,8.548-66.311,21.556
	c-5.765,9.836,8.425,44.973,8.425,44.973l9.893,9.289l63.382-18.215L165.65,140.583z"/>
<ellipse fill="#B7BBA5" cx="26.131" cy="118.233" rx="13.262" ry="14.556"/>
<path fill="#909584" d="M34.287,129.711c-2.25,1.93-5.081,3.078-8.155,3.078c-7.325,0-13.263-6.518-13.263-14.556
	c0-4.919,2.224-9.27,5.63-11.905C19.292,114.367,21.1,125.269,34.287,129.711z"/>
<path fill="#D4D8BD" d="M169.154,213.919c2.697-7.401,5.033-28.123-18.229-44.772l3.372-13.318
	c25.285-7.4,45.914,23.076,41.73,68.027"/>
<path fill="#D4D8BD" d="M100.571,232.424c0,0-6.172-39.344,10.684-47.113l-8.201-15.795c-19.166,9.096-31.149,14.553-36.024,32.948
	c-0.129,0.481-0.256,0.97-0.386,1.462C61.587,223.166,91.805,230.574,100.571,232.424z"/>
<path fill="#C8CCB3" d="M110.254,183.206l1.002,2.104c-16.856,7.77-10.684,47.11-10.684,47.11
	c-5.674-1.194-20.334-4.724-28.601-12.276C76.521,201.119,97.808,181.564,110.254,183.206z"/>
<path fill="#B7BBA5" d="M100.571,232.424c-1.901-10.301-19.225-45.512-41.139-36.807C31.633,204.589,86.819,244.245,100.571,232.424
	z"/>
<path fill="#909584" d="M100.298,232.523c-1.901-10.301-21.852-42.431-43.765-33.724C32.83,208.218,92.605,245.432,100.298,232.523z
	"/>
<path fill="#B7BBA5" d="M77.693,113.212c12.646-6.898,12.646-6.898,12.646-6.898s19.451-11.116,53.655-11.143
	c4.547-0.127,3.081-5.952-4.148-7.043c-20.537-4.575-60.734,11.663-64.39,19.655C74.162,110.275,73.14,113.622,77.693,113.212z"/>
<path opacity="0.2" fill="#FFFFFF" enable-background="new    " d="M79.357,105.272c0,0-7.599-16.807-8.304-22.736
	c-0.405-3.389,0.116-10.399,1.588-13.541c1.209-2.584,5.299-7.188,7.976-8.694c7.688-7.003,29.123-9.874,39.151-8.667
	c3.359,0.403,9.846,2.866,12.433,4.808c1.395,1.046,4.087,4.963,4.802,6.443c3.063,6.33,6.379,25.714,6.379,25.714l-62.426,17.178
	L79.357,105.272z"/>
<path fill="#C8CCB3" d="M102.202,184.471c0,0-0.22,10.771,10.988,6.812c11.207-3.956,43.071-14.284,43.071-14.284
	s4.177-4.396,1.979-11.429L102.202,184.471z"/>
<path fill="#C8CCB3" d="M151.832,169.872L151.832,169.872c22.758,16.996,20.166,36.938,17.47,44.338l17.433,8.938
	C200.301,174.296,167.689,152.936,151.832,169.872z"/>
<path fill="#B7BBA5" d="M210.501,210.12c-1.868-5.022-33.999-6.538-41.558,4.187C168.861,231.354,208.417,226.372,210.501,210.12z"
	/>
<path fill="#909584" d="M211.057,213.049c0.416-5.343-34-6.537-41.559,4.186C167.982,228.129,209.882,228.129,211.057,213.049z"/>
<path opacity="0.26" fill="#FFFFFF" enable-background="new    " d="M88.792,70.475c6.626-7.575,2.498-12.278-3.91-9.298
	c-3.584,2.622-9.232,9.179-3.042,13.947C84.002,75.955,86.185,73.455,88.792,70.475z"/>
<path fill="#B7BBA5" d="M92.771,171.656c9.088-10.047,51.98-27.987,74.879-22.605l-1.9,12.449l-63.163,19.126L92.771,171.656z"/>
<text transform="matrix(0.9498 -0.3129 0.3129 0.9498 83.4141 138.0098)" font-family="'BoonJot-Regular'" font-size="12">การเกิด</text>
<text transform="matrix(0.9498 -0.3129 0.3129 0.9498 110.0479 150.1426)" font-family="'BoonJot-Regular'" font-size="14"> กลางคืน</text>
<text transform="matrix(0.9439 -0.3303 0.3303 0.9439 116.9551 127.6562)" font-family="'BoonJot-Regular'" font-size="14">กลางวัน</text>
<text transform="matrix(0.9555 -0.2951 0.2951 0.9555 94.6611 154.6172)" font-family="'BoonJot-Regular'" font-size="11">และ</text>
</svg>
