<?xml version="1.0" encoding="utf-8"?>
<!-- Generator: Adobe Illustrator 16.0.0, SVG Export Plug-In . SVG Version: 6.00 Build 0)  -->
<!DOCTYPE svg PUBLIC "-//W3C//DTD SVG 1.1//EN" "http://www.w3.org/Graphics/SVG/1.1/DTD/svg11.dtd">
<svg version="1.1" id="Layer_1" xmlns="http://www.w3.org/2000/svg" xmlns:xlink="http://www.w3.org/1999/xlink" x="0px" y="0px"
	 width="1283px" height="725px" viewBox="0 0 1283 725" enable-background="new 0 0 1283 725" xml:space="preserve">
<path fill="#71C1E8" d="M382.891,287.039c0,0,17.396-150.394,197.92-163.248c180.586-12.812,205.425,88.821,214.312,102.033
	c8.921,13.242,65.953,153.218,64.008,241.188c-2.035,88.068-35.688,163.253-178.085,180.903
	c-152.496,18.856-291.623-27.229-299.594-156.82C373.495,361.447,382.891,287.039,382.891,287.039z"/>
<g>
	<path fill="#3D392F" d="M575.402,241.002c-8.032-5.167-9.479,6.736-4.193,10.179c14.049,9.151,26.995-16.417,40.75-6.011
		c-11.005-5.637-29.944,21.881-46.799,11.736C553.646,249.976,563.78,230.371,575.402,241.002z"/>
	<path fill="#3D392F" d="M648.991,237.901c7.295-6.164,10.271,5.45,5.479,9.55c-12.744,10.896-28.896-12.777-41.187-0.675
		c10.181-7.017,32.529,17.812,47.925,5.567C671.729,243.978,659.139,225.854,648.991,237.901z"/>
	<path fill="#3D392F" d="M612.649,245.262c2.703,0.855,4.012,4.404,2.928,7.925c-1.09,3.521-4.161,5.678-6.864,4.822
		c-2.705-0.857-4.017-4.405-2.932-7.923C606.87,246.566,609.942,244.406,612.649,245.262z"/>
</g>
<g>
	<path fill="#614227" d="M630.323,118.404C594.729,112.82,523,92.513,511.575,99.953c-11.562,7.532,0.79,56.325,109.009,72.613
		c0.529,0.077,1.03,0.144,1.555,0.225c0.521,0.082,1.02,0.163,1.549,0.245c108.227,16.288,134.39-26.702,125.558-37.306
		C740.52,125.253,665.985,123.542,630.323,118.404z"/>
	<path fill="#3B2715" d="M630.026,120.384c-31.158-4.832-94.292-20.219-103.942-16.002c-9.774,4.278,2.807,35.257,97.506,49.517
		c0.466,0.069,0.904,0.127,1.36,0.195c0.456,0.077,0.896,0.143,1.361,0.212c94.697,14.258,115.834-11.653,107.76-18.611
		C726.091,128.814,661.227,124.944,630.026,120.384z"/>
	<path fill="#C6AB84" d="M635.75,93c-28.87-4.421-89.33-18.15-95.435,8.584c-1.959,8.584-3.575,16.731-4.751,23.719
		c13.721,10.088,40.538,21.446,88.023,28.597c0.465,0.07,0.904,0.126,1.361,0.195c0.456,0.07,0.896,0.144,1.359,0.212
		c45.993,6.927,74.622,4.363,90.982-0.896c0.976-7.196,1.868-15.751,2.547-24.862C721.875,101.215,664.641,97.282,635.75,93z"/>
	<path fill="#614227" d="M644.335,21.993c-29.403-4.434-65.334-10.864-79.811,8.515c-9.866,13.192-18.05,44.536-24.274,70.992
		c14.308,9.901,40.175,19.687,87.202,26.657c0.47,0.074,0.914,0.131,1.39,0.192c0.463,0.073,0.902,0.148,1.379,0.217
		c45.606,6.762,72.914,4.919,89.779-0.066c2.013-27.25,3.601-59.635-1.929-75.238C710.027,30.547,673.759,26.287,644.335,21.993z"/>
	<path fill="#3B2715" d="M644.091,20.979c-21.372-3.271-46.334-6.944-63.591-1.146c14.778,10.625,39.928,13.091,61.317,16.261
		c21.381,3.263,46.273,7.63,63.522,1.829C690.562,27.306,665.488,24.147,644.091,20.979z"/>
</g>
<g>
	<g>
		<g>
			<path fill="#594A42" d="M636.225,197.42c4.708,5.398,11.51,9.24,18.251,11.383c15.542,4.939,30.737-2.457,42.29-12.615
				c1.453-1.277-0.674-3.387-2.117-2.117c-11.59,10.19-25.965,16.524-41.216,11.234c-5.562-1.931-11.19-5.532-15.091-10.002
				C637.069,193.845,634.961,195.972,636.225,197.42L636.225,197.42z"/>
		</g>
	</g>
	<g>
		<g>
			<path fill="#594A42" d="M578.277,200.487c-3.957,4.535-9.521,7.907-15.099,10.001c-15.021,5.638-29.894-1.284-41.224-11.255
				c-1.442-1.271-3.568,0.839-2.116,2.117c11.825,10.407,26.499,17.185,42.296,12.636c6.725-1.937,13.62-6.066,18.258-11.382
				C581.658,201.156,579.55,199.029,578.277,200.487L578.277,200.487z"/>
		</g>
	</g>
</g>
<g>
	<g>
		<path fill="#1EA5B0" d="M869.801,290.862c-44.751-10.573-90.154-15.932-135.431-15.932c-43.979,0-86.933,5.098-127.631,15.121
			c-43.612-10.023-87.987-15.121-132.067-15.121c-45.254,0-89.199,5.382-130.947,15.991L332,293.993v361.741l16.461-1.304
			c42.782-3.308,85.649-4.987,128.313-4.987c37.823,0,69.226,1.326,108.226,3.933v2.358c0,0,3.752,5.159,21.457,5.159
			c17.704,0,21.543-5.159,21.543-5.159v-2.365c39-2.604,70.5-3.926,108.297-3.926c42.662,0,86.131,1.681,128.91,4.987L882,655.734
			V293.772L869.801,290.862z"/>
	</g>
	<g>
		<path fill="#CAE7D1" d="M866.547,639.208c-86.717-6.256-173.077-6.256-259.792,0c0-102.692,0-205.391,0-308.088
			c84.408-20.008,175.271-18.618,259.792,0C866.547,433.817,866.547,536.516,866.547,639.208z"/>
	</g>
	<g>
		<path fill="#CAE7D1" d="M606.755,639.208c-86.716-6.256-173.077-6.256-259.792,0c0-102.692,0-205.391,0-308.088
			c84.407-20.008,175.272-18.618,259.792,0C606.755,433.817,606.755,536.516,606.755,639.208z"/>
	</g>
	<g>
		<g>
			<path fill="#FFFFFF" d="M606.755,639.208c-82.604-23.314-161.485-23.31-244.092,0c0-102.373,0-204.741,0-307.112
				c82.66-36.234,161.271-35.25,244.092,0C606.755,434.467,606.76,536.835,606.755,639.208z"/>
		</g>
	</g>
	<g>
		<g>
			<path fill="#FFFFFF" d="M604.793,639.208c82.604-23.314,161.483-23.31,244.089,0c-0.004-102.373,0-204.741,0-307.112
				c-82.661-36.234-161.266-35.25-244.091,0C604.794,434.467,604.797,536.835,604.793,639.208z"/>
		</g>
	</g>
</g>
<g>
	<path fill="#594A42" d="M381.904,662.592c-17.564,29.085-100.15-41.311-111.169-55.469c-11.018-14.156,3.738-29.333,43.226-8.024
		C353.45,620.399,393.887,642.738,381.904,662.592z"/>
	<path fill="#796D6A" d="M277.6,600.347c-4.326,9.053,52.458,47.596,52.458,47.596l16.356-22.206
		C346.414,625.735,283.396,588.214,277.6,600.347z"/>
	<path fill="#796D6A" d="M342.063,652.492l12.844-18.153c0,0,23.221,11.098,17.062,21.439
		C363.942,669.259,342.063,652.492,342.063,652.492z"/>
</g>
<g>
	<path fill="#594A42" d="M830.53,663.243c18.173,28.71,99.261-43.404,109.98-57.791c10.717-14.386-4.355-29.25-43.389-7.117
		C858.092,620.462,818.132,643.645,830.53,663.243z"/>
	<path fill="#796D6A" d="M933.505,598.821c4.514,8.96-51.447,48.688-51.447,48.688l-16.82-21.859
		C865.238,625.648,927.453,586.812,933.505,598.821z"/>
	<path fill="#796D6A" d="M870.149,652.309l-13.223-17.88c0,0-22.982,11.583-16.607,21.794
		C848.627,669.53,870.149,652.309,870.149,652.309z"/>
</g>
<path fill="#3D392F" d="M384.13,285.188c-24.198,1.511-39.974,28.898-29.094,52.312c10.867,23.421,46.576,16.527,47.438-15.896
	c0,0-2.02,17.494,13.221,13.701C430.938,331.52,422.339,282.795,384.13,285.188z"/>
<path fill="#3D392F" d="M827.729,280.696c24.198,1.51,39.975,28.899,29.095,52.312c-10.867,23.422-46.576,16.527-47.438-15.896
	c0,0,2.021,17.496-13.22,13.701C780.922,327.027,789.52,278.305,827.729,280.696z"/>
<g enable-background="new    ">
	<path d="M534.809,290.998c0.217,0.055,0.389,0.153,0.518,0.296c0.13,0.144,0.181,0.291,0.152,0.441
		c-0.01,0.055-0.024,0.095-0.043,0.119c-0.846,1.836-1.67,3.823-2.473,5.964c-0.337,0.912-0.529,1.42-0.577,1.524
		c-0.514,1.262-0.904,2.079-1.17,2.454c-0.646,0.897-1.488,1.252-2.526,1.061c-0.218-0.04-0.414-0.108-0.587-0.203
		s-0.317-0.197-0.432-0.302c-0.115-0.105-0.214-0.261-0.296-0.467s-0.143-0.376-0.181-0.51c-0.039-0.135-0.072-0.338-0.1-0.612
		c-0.028-0.273-0.043-0.48-0.044-0.622c-0.004-0.142-0.006-0.375-0.01-0.701c-0.004-0.325-0.008-0.552-0.014-0.681
		c-0.027-1.615,0.042-3.529,0.209-5.744c0.076-1.031-0.005-1.738-0.246-2.121c-0.164,0.125-0.347,0.296-0.549,0.513
		c-0.203,0.217-0.359,0.4-0.472,0.548l-0.172,0.244c-0.232,0.339-0.614,0.459-1.146,0.361l-0.164-0.03
		c-0.189-0.048-0.332-0.138-0.428-0.269s-0.131-0.271-0.103-0.421c0.018-0.096,0.045-0.168,0.083-0.218
		c0.025-0.066,0.071-0.157,0.134-0.272c0.063-0.115,0.203-0.315,0.418-0.601c0.215-0.285,0.443-0.529,0.686-0.732
		c0.241-0.202,0.555-0.371,0.94-0.505c0.384-0.134,0.788-0.163,1.212-0.085c0.382,0.07,0.696,0.203,0.943,0.396
		s0.432,0.4,0.554,0.621c0.121,0.219,0.203,0.502,0.245,0.85c0.044,0.347,0.062,0.635,0.053,0.867
		c-0.007,0.232-0.023,0.536-0.051,0.912c-0.159,2.174-0.221,4.047-0.186,5.621c0.024,1.332,0.122,2.219,0.295,2.66
		c0.375-0.425,0.971-1.707,1.787-3.845c0.829-2.206,1.657-4.221,2.487-6.045c0.087-0.167,0.249-0.3,0.486-0.397
		c0.236-0.098,0.479-0.124,0.725-0.079L534.809,290.998z"/>
	<path d="M537.659,295.313c-0.405-0.173-0.58-0.417-0.522-0.731c0.01-0.055,0.056-0.146,0.136-0.272
		c0.657-0.812,1.466-1.432,2.428-1.862c0.962-0.43,1.958-0.607,2.989-0.531c0.305,0.028,0.526,0.055,0.662,0.08
		c1.559,0.286,2.721,1.107,3.488,2.462s0.965,3.051,0.591,5.086c-0.344,1.872-1.113,3.291-2.308,4.257
		c-1.194,0.967-2.578,1.391-4.151,1.271c-0.306-0.028-0.534-0.055-0.685-0.083c-1.312-0.241-2.349-0.817-3.114-1.727
		c-0.765-0.91-1.04-1.945-0.826-3.106c0.133-0.724,0.461-1.285,0.986-1.683c0.292-0.201,0.591-0.336,0.901-0.406
		c0.426-0.091,0.844-0.099,1.254-0.024c0.602,0.111,1.182,0.366,1.745,0.766c0.238,0.157,0.336,0.358,0.29,0.604
		c-0.029,0.164-0.126,0.302-0.287,0.414c-0.265,0.206-0.607,0.27-1.031,0.192c-0.178-0.033-0.322-0.087-0.435-0.165
		c-0.314-0.212-0.602-0.343-0.861-0.391l-0.062-0.011c-0.029,0.009-0.071,0.041-0.122,0.094c-0.053,0.054-0.114,0.152-0.182,0.295
		c-0.068,0.143-0.119,0.303-0.151,0.48c-0.156,0.847,0.025,1.565,0.546,2.155c0.52,0.589,1.169,0.957,1.948,1.099
		c0.149,0.028,0.267,0.042,0.352,0.044c0.377,0.026,0.755-0.017,1.136-0.131c0.381-0.113,0.774-0.313,1.181-0.598
		c0.404-0.286,0.771-0.73,1.102-1.333s0.573-1.328,0.729-2.175c0.174-0.942,0.21-1.797,0.111-2.564
		c-0.1-0.767-0.305-1.38-0.615-1.839c-0.312-0.46-0.651-0.819-1.021-1.078c-0.369-0.258-0.758-0.425-1.168-0.5
		c-0.041-0.007-0.091-0.013-0.146-0.017c-0.057-0.002-0.098-0.007-0.125-0.012c-1.241-0.087-2.352,0.464-3.333,1.654
		c-0.112,0.148-0.278,0.255-0.504,0.32c-0.223,0.064-0.452,0.076-0.684,0.033C537.792,295.359,537.711,295.337,537.659,295.313z"/>
	<path d="M552.941,296.066c-0.155-0.156-0.216-0.329-0.181-0.521c0.04-0.218,0.186-0.39,0.435-0.514
		c1.183-0.601,2.245-0.815,3.188-0.643c1.516,0.279,2.366,1.346,2.547,3.201c0.088,0.976,0.009,2.141-0.24,3.493
		c-0.248,1.353-0.636,2.545-1.165,3.577c-1.128,2.222-2.519,3.181-4.172,2.877c-0.437-0.081-0.83-0.262-1.182-0.545
		c-0.35-0.283-0.643-0.648-0.879-1.094c-0.235-0.445-0.423-0.865-0.562-1.258c-0.141-0.393-0.273-0.855-0.402-1.387
		c-0.122-0.488-0.329-1.705-0.621-3.651c-0.006-0.043-0.003-0.099,0.01-0.168c0.03-0.164,0.131-0.308,0.302-0.432
		c0.171-0.124,0.37-0.193,0.6-0.208c0.087-0.012,0.212-0.004,0.376,0.026c0.464,0.085,0.724,0.289,0.778,0.609
		c0.303,1.962,0.501,3.149,0.595,3.562c0.203,0.814,0.469,1.523,0.796,2.126c0.326,0.604,0.576,0.936,0.749,0.996
		c0.059-0.017,0.166-0.079,0.319-0.185c0.153-0.105,0.364-0.314,0.634-0.625c0.27-0.31,0.504-0.673,0.708-1.088
		c0.486-0.955,0.845-2.054,1.073-3.297c0.233-1.271,0.309-2.337,0.227-3.199c-0.06-0.604-0.193-1.063-0.404-1.377
		c-0.21-0.314-0.425-0.491-0.643-0.531c-0.314-0.058-0.798,0.079-1.453,0.411c-0.278,0.132-0.568,0.171-0.868,0.116
		C553.286,296.299,553.098,296.208,552.941,296.066z"/>
</g>
<g enable-background="new    ">
	<path d="M421.564,302.557l-0.104,0.002c-0.25,0.004-0.459-0.055-0.628-0.177c-0.169-0.122-0.255-0.273-0.258-0.454v-0.021
		c0.12-4.42,0.174-7.06,0.159-7.921c-0.022-1.375-0.129-2.311-0.318-2.808c-0.015-0.042-0.022-0.097-0.023-0.167
		c-0.005-0.319,0.179-0.566,0.551-0.739c1.227-0.604,3.09-0.927,5.589-0.969c1.111-0.019,2.042,0.227,2.794,0.735
		c0.752,0.509,1.136,1.256,1.152,2.242c0.003,0.208-0.015,0.994-0.055,2.356s-0.051,2.556-0.034,3.583
		c0.018,1.042,0.062,2,0.132,2.874l0.001,0.021c0.003,0.194-0.088,0.376-0.272,0.546c-0.185,0.17-0.416,0.278-0.693,0.324
		c-0.014,0-0.048,0.004-0.104,0.012s-0.09,0.012-0.104,0.013c-0.236,0.004-0.436-0.048-0.597-0.157
		c-0.162-0.108-0.251-0.252-0.269-0.433c-0.07-0.901-0.114-1.887-0.132-2.957c-0.018-1.056-0.007-2.268,0.033-3.636
		c0.039-1.369,0.058-2.137,0.055-2.304c-0.02-1.166-0.745-1.738-2.175-1.714c-1.472,0.024-2.699,0.163-3.682,0.416
		c0.107,0.582,0.171,1.421,0.189,2.518c0.015,0.89-0.039,3.542-0.159,7.963c-0.012,0.195-0.119,0.381-0.325,0.557
		C422.083,302.441,421.842,302.539,421.564,302.557z"/>
	<path d="M433.689,293.708c-0.222-0.01-0.406-0.077-0.555-0.2s-0.224-0.267-0.227-0.434c-0.001-0.041,0.012-0.104,0.039-0.188
		c0.345-0.992,0.972-1.846,1.884-2.563c0.912-0.717,1.902-1.119,2.971-1.206l0.292-0.005c0.93-0.016,1.664,0.257,2.201,0.818
		c0.536,0.561,0.813,1.341,0.83,2.341c0.003,0.222-0.001,0.389-0.013,0.5c-0.226,3.143-0.32,5.805-0.283,7.986l0.014,0.812
		c0.003,0.194-0.091,0.379-0.281,0.557c-0.192,0.177-0.426,0.281-0.704,0.313l-0.166,0.002c-0.25,0.004-0.46-0.048-0.628-0.155
		c-0.169-0.108-0.254-0.254-0.257-0.434l-0.014-0.834c-0.038-2.25,0.056-4.946,0.28-8.089c0.012-0.111,0.018-0.272,0.014-0.48
		c-0.012-0.694-0.152-1.178-0.421-1.451c-0.269-0.274-0.562-0.408-0.882-0.402l-0.083,0.001c-0.457,0.036-0.972,0.273-1.541,0.713
		s-0.973,1.01-1.211,1.708c-0.066,0.196-0.21,0.358-0.43,0.487c-0.221,0.129-0.463,0.195-0.727,0.2L433.689,293.708z"/>
	<path d="M453.024,291.071c-0.247,0.226-0.558,0.342-0.933,0.349c-0.208,0.003-0.382-0.036-0.522-0.116
		c-0.042-0.027-0.109-0.061-0.2-0.101c-0.091-0.04-0.171-0.076-0.241-0.11c-0.07-0.033-0.134-0.063-0.188-0.091
		c-1.022-0.441-1.978-0.654-2.866-0.64c-0.972,0.016-1.656,0.229-2.052,0.639c-0.205,0.212-0.304,0.492-0.298,0.838
		c0.007,0.417,0.235,0.854,0.688,1.312c0.452,0.458,1.168,0.894,2.147,1.309c1.386,0.588,2.421,1.266,3.107,2.031
		c0.687,0.767,1.036,1.539,1.05,2.317c0.003,0.181-0.015,0.369-0.054,0.563c-0.126,0.724-0.516,1.356-1.167,1.895
		c-0.65,0.539-1.427,0.815-2.33,0.83c-1.347,0.022-2.479-0.34-3.394-1.089c-0.141-0.123-0.212-0.267-0.215-0.434
		c-0.004-0.236,0.124-0.447,0.385-0.632c0.234-0.156,0.496-0.238,0.788-0.243c0.277-0.004,0.493,0.062,0.649,0.198
		c0.591,0.477,1.274,0.708,2.053,0.694c0.277-0.004,0.548-0.099,0.809-0.284s0.423-0.479,0.485-0.884
		c0.024-0.139,0.037-0.25,0.036-0.333c-0.009-0.528-0.286-1.089-0.831-1.685c-0.544-0.595-1.412-1.14-2.6-1.634
		c-1.148-0.495-2.029-1.067-2.645-1.716c-0.615-0.65-0.929-1.315-0.939-1.996c-0.011-0.639,0.236-1.226,0.741-1.763
		c0.873-0.932,2.137-1.411,3.789-1.439c1.305-0.022,2.608,0.255,3.911,0.831c0.083,0.041,0.328,0.155,0.735,0.342
		c0.224,0.121,0.338,0.293,0.342,0.515C453.269,290.755,453.188,290.93,453.024,291.071z"/>
	<path d="M465.118,289.119c0.222,0.01,0.41,0.073,0.565,0.188c0.154,0.116,0.233,0.25,0.236,0.402
		c0.001,0.056-0.006,0.098-0.02,0.125c-0.467,1.967-0.883,4.079-1.248,6.334c-0.151,0.962-0.239,1.499-0.266,1.609
		c-0.256,1.339-0.477,2.218-0.664,2.637c-0.456,1.008-1.211,1.521-2.266,1.538c-0.223,0.004-0.428-0.024-0.616-0.083
		s-0.35-0.129-0.482-0.211c-0.134-0.081-0.261-0.214-0.382-0.4s-0.214-0.34-0.278-0.464c-0.064-0.124-0.139-0.317-0.219-0.579
		c-0.081-0.263-0.136-0.463-0.167-0.602c-0.029-0.138-0.078-0.366-0.146-0.686c-0.068-0.318-0.118-0.539-0.147-0.664
		c-0.346-1.579-0.655-3.468-0.929-5.673c-0.129-1.026-0.348-1.703-0.659-2.031c-0.136,0.155-0.282,0.358-0.438,0.611
		c-0.155,0.253-0.273,0.464-0.354,0.631l-0.12,0.273c-0.16,0.378-0.512,0.571-1.054,0.58l-0.166,0.003
		c-0.195-0.01-0.353-0.07-0.472-0.18c-0.12-0.109-0.182-0.24-0.185-0.394c-0.001-0.097,0.011-0.173,0.038-0.229
		c0.013-0.07,0.04-0.168,0.078-0.293c0.04-0.125,0.138-0.349,0.292-0.672c0.154-0.322,0.33-0.606,0.527-0.853
		c0.196-0.246,0.472-0.473,0.822-0.68c0.351-0.208,0.741-0.315,1.172-0.323c0.389-0.006,0.723,0.062,1.004,0.202
		c0.28,0.142,0.502,0.308,0.665,0.5c0.163,0.191,0.299,0.453,0.409,0.785c0.109,0.332,0.184,0.611,0.222,0.84
		c0.038,0.228,0.083,0.53,0.13,0.904c0.272,2.162,0.581,4.011,0.927,5.548c0.285,1.301,0.557,2.151,0.812,2.549
		c0.284-0.491,0.614-1.865,0.994-4.122c0.378-2.325,0.794-4.465,1.247-6.417c0.052-0.182,0.186-0.344,0.398-0.486
		c0.213-0.143,0.444-0.216,0.694-0.22L465.118,289.119z"/>
	<path d="M461.552,283.989c0.213-0.558,0.582-0.933,1.106-1.122c0.25-0.088,0.499-0.133,0.749-0.138
		c0.639-0.011,1.11,0.179,1.416,0.57c0.306,0.391,0.461,0.836,0.47,1.336c0.008,0.472-0.103,0.904-0.332,1.297
		c-0.473,0.814-1.16,1.229-2.063,1.244c-0.027,0-0.072-0.002-0.135-0.008c-0.064-0.006-0.116-0.009-0.158-0.008
		c-2.043-0.146-3.664-0.341-4.863-0.585c-0.753-0.154-1.312-0.409-1.681-0.764c-0.367-0.355-0.555-0.761-0.562-1.22
		c-0.002-0.166,0.01-0.292,0.036-0.376c0.117-0.446,0.441-0.847,0.97-1.204c0.529-0.355,1.189-0.54,1.981-0.554
		C459.624,282.438,460.646,282.95,461.552,283.989z M461.4,286.077c-0.585-0.908-1.116-1.531-1.595-1.871
		c-0.506-0.367-1.044-0.545-1.613-0.536c-0.486,0.008-0.769,0.18-0.846,0.514c-0.013,0.029-0.02,0.071-0.019,0.125
		c0.012,0.681,0.435,1.111,1.272,1.292C459.423,285.783,460.356,285.94,461.4,286.077z M462.673,286.221
		c0.057,0.014,0.133,0.02,0.23,0.018c0.097-0.001,0.166,0.004,0.208,0.017l0.042,0c0.264-0.004,0.49-0.167,0.68-0.491
		c0.147-0.28,0.219-0.58,0.214-0.899c-0.007-0.389-0.103-0.707-0.287-0.954s-0.395-0.369-0.631-0.365l-0.042,0.001
		c-0.3,0.311-0.447,0.653-0.441,1.028c0.004,0.194-0.112,0.35-0.347,0.464c0.043,0.083,0.09,0.169,0.141,0.259
		c0.05,0.09,0.085,0.159,0.106,0.206c0.022,0.049,0.04,0.08,0.055,0.093c0.085,0.124,0.129,0.256,0.131,0.395
		C462.733,286.075,462.713,286.151,462.673,286.221z"/>
	<path d="M466.572,276.342c0.139,0.012,0.254,0.062,0.346,0.151c0.092,0.089,0.14,0.189,0.141,0.299
		c0.002,0.084-0.019,0.154-0.059,0.21c-0.363,0.728-0.956,1.426-1.778,2.093c-0.823,0.667-1.758,1.224-2.807,1.672
		c-0.234,0.102-0.455,0.153-0.664,0.157c-0.305,0.005-0.46-0.117-0.464-0.367c-0.001-0.083,0.018-0.188,0.057-0.314
		c0.172-0.545,0.253-1.018,0.247-1.421c-0.007-0.36-0.087-0.64-0.243-0.84c-0.155-0.199-0.408-0.364-0.758-0.497
		c-0.21-0.081-0.315-0.218-0.319-0.412c-0.002-0.125,0.045-0.237,0.141-0.335c0.204-0.212,0.46-0.32,0.765-0.325
		c0.097-0.001,0.202,0.017,0.312,0.057c1.007,0.399,1.521,1.121,1.538,2.163c0.006,0.347-0.039,0.591-0.135,0.731
		c0.605-0.343,1.152-0.755,1.636-1.236c0.485-0.48,0.837-0.931,1.052-1.351c0.134-0.294,0.409-0.445,0.825-0.452
		c0.028,0,0.06,0.002,0.094,0.008C466.534,276.34,466.559,276.342,466.572,276.342z"/>
	<path d="M468.968,301.328l-0.161-9.687c-0.015-0.861-0.122-1.436-0.321-1.725c-0.084-0.109-0.128-0.22-0.129-0.331
		c-0.005-0.264,0.136-0.482,0.425-0.654c0.18-0.113,0.4-0.173,0.665-0.177c0.291-0.005,0.515,0.068,0.67,0.217
		c0.381,0.37,0.582,1.179,0.603,2.429c0.022,1.333,0.055,2.83,0.097,4.488c0.041,1.66,0.065,2.685,0.072,3.073
		c0.448-0.619,0.869-1.133,1.267-1.542c1.174-1.215,2.21-2.003,3.106-2.365c0.042-1.626,0.137-3.441,0.283-5.444
		c0.025-0.195,0.137-0.37,0.335-0.526c0.199-0.156,0.424-0.243,0.674-0.261l0.062-0.001c0.235-0.004,0.435,0.051,0.597,0.167
		c0.161,0.115,0.243,0.257,0.246,0.424l0.001,0.041c-0.059,0.682-0.141,1.596-0.246,2.745c-0.106,1.147-0.176,1.979-0.209,2.493
		l0.25-0.004c0.764-0.013,1.393,0.175,1.885,0.562c0.493,0.387,0.824,0.836,0.993,1.347c0.168,0.512,0.257,1.08,0.268,1.705
		c0.006,0.333-0.024,0.661-0.088,0.981c-0.14,0.752-0.491,1.366-1.053,1.84c-0.562,0.475-1.218,0.719-1.968,0.731
		c-0.417,0.007-0.766-0.067-1.046-0.222c-0.28-0.155-0.489-0.398-0.626-0.73c-0.138-0.331-0.234-0.687-0.288-1.068
		c-0.056-0.381-0.088-0.856-0.098-1.426c-0.012-0.722-0.015-1.306-0.009-1.75c-0.606,0.302-1.182,0.736-1.729,1.301
		c-0.792,0.819-1.67,1.917-2.633,3.295c-0.272,0.379-0.582,0.572-0.929,0.578c-0.125,0.002-0.268-0.038-0.429-0.118
		c-0.161-0.082-0.292-0.163-0.39-0.244L468.968,301.328z M476.896,298.174c0.012,0.694,0.068,1.242,0.173,1.643
		c0.104,0.402,0.194,0.637,0.272,0.705c0.077,0.068,0.15,0.101,0.221,0.1c0.083-0.001,0.179-0.023,0.29-0.067
		c0.11-0.042,0.244-0.174,0.399-0.391c0.156-0.219,0.267-0.502,0.33-0.85c0.038-0.237,0.054-0.494,0.05-0.772
		c-0.027-1.625-0.506-2.43-1.437-2.415l-0.25,0.004C476.901,296.839,476.886,297.521,476.896,298.174z"/>
	<path d="M482.556,293.933c0.065-0.195,0.208-0.357,0.429-0.486c0.22-0.129,0.461-0.195,0.725-0.2l0.105-0.002
		c1.182,0.092,2.564,0.124,4.148,0.097c0.944-0.016,1.937-0.053,2.977-0.112l0.042-0.001c0.25-0.004,0.459,0.052,0.628,0.167
		s0.255,0.263,0.258,0.443l0.001,0.084c-0.024,0.195-0.146,0.374-0.366,0.538c-0.22,0.163-0.468,0.254-0.745,0.272
		c-1.082,0.06-2.109,0.098-3.081,0.114c-1.625,0.027-3.085-0.003-4.379-0.093c-0.222-0.01-0.407-0.077-0.555-0.2
		c-0.148-0.123-0.223-0.267-0.226-0.434C482.516,294.08,482.528,294.017,482.556,293.933z"/>
	<path d="M505.596,301.07c-0.07,0.015-0.167,0.023-0.292,0.025c-0.473,0.008-0.746-0.147-0.82-0.465
		c-0.089-0.346-0.147-1.311-0.174-2.895c-0.012-0.708-0.02-1.833-0.025-3.375c-0.005-1.542-0.012-2.612-0.021-3.208l-0.008-0.417
		c-1.084,0.727-1.896,1.186-2.435,1.374c-0.304,0.13-0.581,0.197-0.831,0.202c-0.361,0.006-0.543-0.157-0.549-0.491
		c-0.001-0.041,0.011-0.146,0.036-0.313c0.038-0.195,0.056-0.368,0.054-0.521c-0.008-0.472-0.149-0.831-0.425-1.077
		c-0.274-0.245-0.564-0.365-0.87-0.36l-0.104,0.002c-0.181,0.017-0.388,0.107-0.621,0.27c-0.233,0.164-0.489,0.422-0.769,0.774
		c-0.279,0.352-0.506,0.876-0.682,1.574c-0.176,0.697-0.256,1.511-0.24,2.442c0.014,0.832,0.099,1.581,0.256,2.246
		c0.156,0.665,0.339,1.186,0.547,1.564c0.207,0.378,0.439,0.691,0.693,0.937s0.468,0.408,0.644,0.489
		c0.175,0.08,0.325,0.12,0.45,0.118l0.021,0c0.028,0,0.062-0.008,0.104-0.023c0.042-0.015,0.097-0.05,0.166-0.106
		c0.068-0.057,0.129-0.131,0.184-0.222c0.053-0.092,0.1-0.214,0.14-0.368c0.039-0.153,0.057-0.328,0.054-0.522
		c-0.003-0.181,0.088-0.352,0.272-0.515c0.185-0.163,0.409-0.26,0.672-0.292l0.146-0.002c0.235-0.004,0.431,0.048,0.586,0.157
		c0.154,0.109,0.233,0.246,0.236,0.413c0.012,0.708-0.207,1.337-0.656,1.886c-0.449,0.549-1.083,0.872-1.901,0.97
		c-0.082,0.015-0.215,0.024-0.395,0.027c-1.209,0.021-2.191-0.546-2.945-1.701c-0.756-1.155-1.151-2.759-1.186-4.814
		c-0.032-1.944,0.334-3.502,1.1-4.676c0.765-1.172,1.799-1.839,3.102-2c0.098-0.016,0.243-0.025,0.438-0.028
		c0.764-0.013,1.386,0.213,1.866,0.678c0.479,0.464,0.725,1.009,0.735,1.634c0.633-0.386,1.421-0.955,2.368-1.707
		c0.342-0.283,0.638-0.428,0.888-0.432c0.167-0.002,0.31,0.051,0.431,0.16c0.119,0.109,0.194,0.219,0.225,0.33l0.044,0.187
		c0.001,0.027,0.005,0.069,0.013,0.125c0.008,0.055,0.013,0.103,0.014,0.145c0.037,0.611,0.062,1.312,0.076,2.104
		c0.01,0.611,0.021,1.639,0.031,3.083c0.01,1.444,0.021,2.479,0.031,3.104c0.024,1.473,0.066,2.347,0.127,2.624
		c0,0.014,0.003,0.031,0.011,0.052c0.008,0.021,0.011,0.039,0.011,0.053c0.003,0.166-0.074,0.323-0.231,0.473
		C506.026,300.907,505.83,301.011,505.596,301.07z"/>
	<path d="M511.138,301.061l-0.104,0.001c-0.25,0.004-0.458-0.055-0.627-0.177c-0.169-0.122-0.255-0.273-0.258-0.454v-0.021
		c0.12-4.42,0.174-7.06,0.159-7.921c-0.022-1.375-0.129-2.311-0.318-2.808c-0.015-0.042-0.022-0.097-0.023-0.167
		c-0.005-0.319,0.179-0.565,0.551-0.739c1.226-0.604,3.089-0.927,5.589-0.969c1.111-0.019,2.041,0.227,2.793,0.735
		c0.752,0.509,1.136,1.256,1.152,2.242c0.003,0.208-0.015,0.994-0.055,2.356s-0.051,2.556-0.034,3.583
		c0.018,1.042,0.062,2,0.132,2.874l0.001,0.021c0.003,0.194-0.088,0.377-0.272,0.546c-0.185,0.17-0.416,0.278-0.693,0.324
		c-0.014,0-0.049,0.005-0.104,0.012c-0.056,0.008-0.09,0.013-0.104,0.013c-0.236,0.004-0.436-0.048-0.597-0.157
		c-0.162-0.108-0.251-0.252-0.269-0.433c-0.07-0.901-0.114-1.887-0.132-2.957c-0.018-1.056-0.007-2.268,0.033-3.636
		c0.039-1.369,0.058-2.137,0.055-2.304c-0.02-1.166-0.744-1.738-2.175-1.714c-1.472,0.024-2.699,0.164-3.682,0.416
		c0.107,0.582,0.171,1.421,0.189,2.518c0.015,0.89-0.039,3.543-0.159,7.963c-0.012,0.195-0.119,0.381-0.325,0.558
		C511.656,300.945,511.415,301.042,511.138,301.061z"/>
</g>
<g enable-background="new    ">
	<path d="M711.436,298.555l0.139,0.007c0.24,0.012,0.437,0.078,0.592,0.199c0.153,0.121,0.227,0.269,0.219,0.44
		c-0.033,0.667-0.283,1.266-0.75,1.796c-0.466,0.531-1.107,0.83-1.926,0.896c-0.214,0.017-0.375,0.022-0.48,0.017
		c-1.119-0.055-1.984-0.66-2.595-1.819c-0.611-1.157-0.918-2.785-0.923-4.88c0.004-0.067,0.004-0.16,0.004-0.28
		c-0.001-0.121,0-0.208,0.002-0.26c0.094-1.638,0.656-2.942,1.685-3.913s2.285-1.494,3.771-1.567
		c0.295-0.012,0.521-0.014,0.682-0.006c1.357,0.066,2.499,0.492,3.422,1.278c0.922,0.785,1.354,1.778,1.296,2.977l-0.003,0.061
		c-0.074,1.224-0.162,2.534-0.264,3.931c-0.102,1.397-0.162,2.309-0.184,2.734c-0.023,0.493-0.035,0.859-0.033,1.101l-0.002,0.02
		c-0.008,0.187-0.11,0.355-0.305,0.505c-0.194,0.15-0.425,0.233-0.693,0.247l-0.159-0.008c-0.227-0.012-0.417-0.074-0.571-0.188
		s-0.234-0.258-0.239-0.432c-0.001-0.254,0.011-0.633,0.036-1.14c0.021-0.439,0.082-1.354,0.184-2.744s0.189-2.697,0.263-3.922
		l0.002-0.04c0.042-0.866-0.257-1.565-0.898-2.097c-0.642-0.532-1.396-0.819-2.261-0.862c-0.16-0.008-0.28-0.006-0.36,0.003
		c-0.843,0.039-1.597,0.37-2.261,0.99c-0.666,0.622-1.038,1.611-1.117,2.97l-0.023,0.459c-0.002,0.881,0.062,1.668,0.195,2.362
		s0.284,1.226,0.453,1.594c0.169,0.37,0.357,0.677,0.566,0.919c0.207,0.244,0.377,0.399,0.506,0.466
		c0.131,0.066,0.229,0.102,0.297,0.104c0.039,0.002,0.107-0.024,0.203-0.08c0.097-0.056,0.203-0.181,0.319-0.376
		c0.116-0.193,0.182-0.431,0.195-0.711c0.009-0.187,0.114-0.354,0.314-0.504C710.933,298.65,711.166,298.568,711.436,298.555z"/>
	<path d="M719.543,294.065c-0.225-0.037-0.404-0.116-0.538-0.236c-0.135-0.12-0.198-0.26-0.19-0.42
		c0.004-0.066,0.013-0.12,0.028-0.159c0.368-0.983,0.993-1.804,1.872-2.461c0.881-0.658,1.862-1.021,2.947-1.088
		c0.268-0.013,0.455-0.018,0.561-0.013c1.372,0.067,2.444,0.654,3.219,1.761c0.773,1.104,1.113,2.617,1.019,4.534
		c-0.052,1.066-0.212,2.006-0.478,2.821c-0.391,1.154-0.989,2.062-1.797,2.725c-0.807,0.661-1.688,0.968-2.646,0.921l-0.141-0.007
		c-0.665-0.059-1.168-0.274-1.51-0.644c-0.342-0.371-0.501-0.822-0.475-1.355c0.011-0.226,0.048-0.438,0.111-0.636
		c0.062-0.184,0.206-0.336,0.434-0.458c0.225-0.123,0.465-0.178,0.719-0.166l0.039,0.002c0.226,0.025,0.409,0.101,0.55,0.228
		c0.141,0.128,0.207,0.27,0.199,0.43c-0.003,0.066-0.013,0.113-0.026,0.139c-0.047,0.132-0.073,0.257-0.079,0.377
		c-0.011,0.227,0.04,0.396,0.155,0.508c0.115,0.113,0.231,0.172,0.352,0.178c0.054,0.003,0.131-0.006,0.231-0.028
		c0.102-0.021,0.238-0.081,0.409-0.181c0.172-0.099,0.342-0.228,0.51-0.384c0.168-0.159,0.347-0.398,0.536-0.716
		c0.188-0.318,0.354-0.687,0.495-1.106c0.247-0.71,0.396-1.556,0.443-2.542c0.045-0.905-0.014-1.699-0.173-2.382
		c-0.161-0.682-0.392-1.196-0.695-1.545s-0.604-0.607-0.903-0.775s-0.607-0.261-0.928-0.276c-0.027-0.001-0.063,0.001-0.109,0.005
		c-0.048,0.005-0.078,0.007-0.091,0.006c-0.522,0.027-1.058,0.246-1.604,0.652c-0.547,0.407-0.958,0.971-1.234,1.691
		c-0.075,0.184-0.22,0.333-0.433,0.449c-0.212,0.116-0.445,0.169-0.698,0.156L719.543,294.065z"/>
	<path d="M733.242,292.373c-0.168-0.129-0.246-0.285-0.236-0.472c0.01-0.213,0.125-0.395,0.346-0.544
		c1.05-0.723,2.035-1.062,2.954-1.017c1.478,0.072,2.421,0.98,2.83,2.722c0.208,0.917,0.28,2.036,0.216,3.354
		c-0.064,1.319-0.282,2.503-0.654,3.553c-0.791,2.256-1.993,3.346-3.604,3.267c-0.428-0.021-0.824-0.143-1.193-0.368
		c-0.37-0.226-0.695-0.534-0.977-0.929c-0.281-0.394-0.513-0.77-0.695-1.125c-0.184-0.356-0.369-0.779-0.559-1.27
		c-0.179-0.449-0.531-1.58-1.056-3.396c-0.011-0.041-0.015-0.095-0.013-0.161c0.008-0.159,0.086-0.31,0.232-0.449
		c0.147-0.14,0.329-0.231,0.545-0.273c0.081-0.022,0.201-0.03,0.361-0.022c0.452,0.022,0.725,0.183,0.816,0.48
		c0.539,1.829,0.879,2.934,1.02,3.314c0.297,0.749,0.641,1.389,1.028,1.922s0.667,0.818,0.839,0.853
		c0.055-0.023,0.148-0.097,0.281-0.217c0.132-0.12,0.307-0.346,0.523-0.675c0.217-0.331,0.395-0.705,0.535-1.126
		c0.342-0.971,0.542-2.062,0.602-3.274c0.061-1.238-0.003-2.262-0.19-3.073c-0.132-0.566-0.319-0.986-0.559-1.259
		c-0.241-0.271-0.468-0.413-0.681-0.424c-0.307-0.015-0.749,0.178-1.329,0.576c-0.249,0.161-0.519,0.235-0.812,0.221
		C733.601,292.551,733.41,292.489,733.242,292.373z"/>
	<path d="M741.893,294.419c-0.328-0.123-0.484-0.324-0.471-0.604c0.006-0.12,0.052-0.238,0.137-0.354
		c0.612-0.772,1.354-1.393,2.225-1.864c0.87-0.471,1.781-0.729,2.731-0.777c0.294-0.012,0.507-0.016,0.641-0.009
		c1.372,0.067,2.454,0.588,3.248,1.561c0.793,0.974,1.149,2.285,1.068,3.937c-0.048,0.973-0.226,1.893-0.535,2.758
		c-0.31,0.866-0.682,1.575-1.115,2.128c-0.435,0.552-0.819,0.991-1.156,1.314c-0.336,0.324-0.642,0.567-0.917,0.728
		c-0.289,0.198-0.582,0.291-0.874,0.276c-0.333-0.017-0.558-0.2-0.674-0.553c0.001-0.014-0.106-0.437-0.318-1.268
		c-0.213-0.832-0.454-1.58-0.721-2.248c-0.268-0.666-0.539-1.061-0.813-1.182l-0.123,0.074c-0.234,0.149-0.499,0.217-0.791,0.202
		c-0.254-0.013-0.457-0.082-0.611-0.21c-0.141-0.114-0.207-0.263-0.197-0.45c0.012-0.24,0.133-0.428,0.367-0.563
		c0.537-0.333,1.072-0.494,1.605-0.481l0.08,0.004c0.506,0.024,0.918,0.198,1.236,0.521c0.254,0.252,0.5,0.695,0.736,1.327
		s0.392,1.114,0.47,1.444c0.077,0.332,0.192,0.827,0.348,1.488c0.354-0.422,0.653-0.811,0.897-1.167
		c0.244-0.354,0.496-0.903,0.752-1.645s0.405-1.539,0.447-2.392c0.068-1.411-0.184-2.452-0.758-3.12
		c-0.576-0.669-1.262-1.023-2.061-1.062c-0.027-0.001-0.074,0-0.141,0.003c-0.068,0.004-0.121,0.005-0.16,0.003
		c-0.521,0.027-1.071,0.198-1.647,0.51c-0.575,0.312-1.092,0.75-1.546,1.316c-0.229,0.295-0.576,0.432-1.041,0.409
		C742.064,294.467,741.958,294.449,741.893,294.419z"/>
	<path d="M754.176,284.408c0.33,0.096,0.488,0.277,0.475,0.543c-0.004,0.094-0.043,0.191-0.114,0.295
		c-0.902,1.251-1.946,2.201-3.133,2.85c-1.187,0.649-2.326,0.948-3.419,0.895c-0.172-0.009-0.299-0.021-0.378-0.039
		c-0.702-0.087-1.249-0.328-1.637-0.72c-0.388-0.394-0.567-0.869-0.54-1.429c0.016-0.319,0.083-0.609,0.202-0.871
		c0.062-0.157,0.191-0.284,0.39-0.382c0.198-0.097,0.41-0.14,0.637-0.129l0.1,0.005c0.187,0.022,0.336,0.09,0.451,0.202
		c0.114,0.113,0.168,0.242,0.161,0.389c-0.003,0.067-0.013,0.119-0.028,0.158c-0.091,0.223-0.141,0.414-0.148,0.574
		c-0.026,0.546,0.286,0.861,0.936,0.947l0.16,0.008c0.387,0.02,0.812-0.047,1.281-0.198c0.467-0.15,1.017-0.46,1.646-0.931
		c0.631-0.47,1.211-1.071,1.74-1.807c0.201-0.283,0.521-0.415,0.961-0.394C754.038,284.381,754.124,284.392,754.176,284.408z"/>
	<path d="M754.221,303.554l0.455-9.29c0.039-0.825-0.026-1.383-0.199-1.671c-0.074-0.111-0.109-0.22-0.104-0.326
		c0.012-0.252,0.162-0.452,0.449-0.599c0.179-0.099,0.395-0.142,0.646-0.129c0.281,0.014,0.49,0.097,0.629,0.251
		c0.342,0.378,0.484,1.166,0.426,2.364c-0.062,1.278-0.127,2.714-0.191,4.306s-0.105,2.575-0.124,2.947
		c0.468-0.564,0.904-1.029,1.31-1.397c1.201-1.09,2.243-1.779,3.125-2.069c0.143-1.556,0.348-3.288,0.615-5.197
		c0.035-0.186,0.153-0.345,0.354-0.482c0.201-0.138,0.421-0.207,0.661-0.209l0.06,0.003c0.227,0.012,0.414,0.078,0.562,0.199
		c0.147,0.12,0.218,0.261,0.21,0.419l-0.002,0.04c-0.099,0.65-0.234,1.521-0.408,2.613c-0.174,1.094-0.293,1.886-0.357,2.376
		l0.24,0.012c0.732,0.036,1.322,0.255,1.77,0.657c0.447,0.403,0.736,0.854,0.865,1.354c0.129,0.5,0.179,1.05,0.149,1.648
		c-0.016,0.319-0.064,0.632-0.146,0.935c-0.182,0.712-0.557,1.278-1.125,1.697c-0.567,0.419-1.211,0.611-1.931,0.576
		c-0.399-0.02-0.729-0.112-0.987-0.279c-0.258-0.166-0.443-0.412-0.555-0.737c-0.111-0.326-0.18-0.673-0.209-1.041
		c-0.029-0.369-0.029-0.826-0.003-1.372c0.034-0.692,0.067-1.252,0.103-1.678c-0.6,0.252-1.18,0.631-1.738,1.137
		c-0.811,0.734-1.721,1.731-2.729,2.991c-0.285,0.345-0.594,0.511-0.926,0.495c-0.12-0.006-0.255-0.053-0.404-0.141
		c-0.148-0.087-0.269-0.174-0.357-0.258L754.221,303.554z M762.014,301.03c-0.033,0.666-0.013,1.195,0.062,1.585
		c0.074,0.392,0.146,0.621,0.216,0.691s0.138,0.107,0.205,0.11c0.08,0.004,0.173-0.012,0.282-0.047
		c0.109-0.034,0.244-0.151,0.408-0.35c0.163-0.199,0.285-0.464,0.369-0.793c0.051-0.225,0.083-0.471,0.096-0.736
		c0.076-1.558-0.332-2.359-1.225-2.403l-0.238-0.012C762.103,299.754,762.044,300.404,762.014,301.03z"/>
	<path d="M776.201,304.889l-0.141-0.007c-0.227-0.011-0.41-0.073-0.551-0.188c-0.142-0.112-0.208-0.25-0.2-0.41
		c0.037-0.759,0.101-1.724,0.192-2.894c0.09-1.17,0.146-1.969,0.166-2.396c0.041-0.825,0.053-1.556,0.037-2.189
		c-0.016-0.636-0.051-1.142-0.105-1.518c-0.055-0.377-0.13-0.683-0.225-0.922c-0.096-0.238-0.188-0.402-0.276-0.494
		s-0.187-0.14-0.293-0.145c-0.706-0.034-1.587,1.19-2.644,3.675c-0.406,0.955-0.793,1.934-1.154,2.937
		c-0.363,1.004-0.666,1.878-0.909,2.619c-0.243,0.742-0.403,1.219-0.481,1.429c-0.555,0.159-1.012,0.23-1.371,0.213
		c-0.307-0.016-0.455-0.109-0.447-0.282c0.061-1.211,0.076-2.836,0.049-4.874c-0.027-2.036-0.088-3.598-0.182-4.684
		c-0.08-1.099-0.144-1.696-0.192-1.792c-0.022-0.082-0.033-0.142-0.031-0.181c0.016-0.32,0.253-0.549,0.714-0.687
		c0.123-0.034,0.25-0.049,0.383-0.042c0.412,0.02,0.666,0.166,0.76,0.438c0.059,0.176,0.131,0.854,0.221,2.033
		c0.043,0.469,0.094,2.033,0.15,4.693c0.046-0.104,0.149-0.388,0.312-0.847c0.162-0.46,0.289-0.8,0.38-1.022
		c0.03-0.065,0.124-0.295,0.284-0.688c0.159-0.393,0.272-0.653,0.34-0.784c0.065-0.13,0.184-0.371,0.355-0.724
		c0.17-0.352,0.312-0.604,0.428-0.759c0.113-0.155,0.271-0.371,0.472-0.647c0.2-0.278,0.394-0.479,0.58-0.604
		c0.187-0.122,0.403-0.259,0.65-0.407c0.248-0.148,0.509-0.249,0.786-0.302c0.276-0.054,0.574-0.073,0.894-0.058
		c0.427,0.021,0.792,0.1,1.1,0.235c0.308,0.134,0.55,0.354,0.729,0.656c0.178,0.302,0.318,0.6,0.416,0.891
		c0.1,0.292,0.158,0.716,0.179,1.271c0.02,0.554,0.026,1.029,0.021,1.422c-0.006,0.395-0.027,0.963-0.064,1.709l-0.016,0.319
		c-0.021,0.439-0.078,1.244-0.168,2.415c-0.09,1.17-0.154,2.128-0.19,2.874c-0.009,0.173-0.106,0.333-0.294,0.477
		S776.455,304.874,776.201,304.889z"/>
	<path d="M789.133,295.149c-0.25,0.202-0.555,0.294-0.914,0.276c-0.2-0.01-0.365-0.058-0.494-0.145
		c-0.039-0.028-0.1-0.064-0.186-0.108c-0.084-0.045-0.158-0.086-0.224-0.122s-0.124-0.069-0.175-0.099
		c-0.951-0.487-1.854-0.751-2.705-0.793c-0.932-0.046-1.601,0.115-2.006,0.482c-0.209,0.19-0.322,0.452-0.338,0.784
		c-0.02,0.4,0.172,0.832,0.576,1.301c0.404,0.466,1.062,0.929,1.975,1.388c1.29,0.649,2.238,1.363,2.849,2.143
		c0.608,0.776,0.896,1.538,0.859,2.283c-0.009,0.174-0.038,0.352-0.086,0.536c-0.168,0.686-0.58,1.268-1.237,1.742
		s-1.419,0.691-2.285,0.649c-1.291-0.063-2.352-0.483-3.182-1.258c-0.127-0.126-0.188-0.269-0.18-0.429
		c0.012-0.227,0.148-0.421,0.41-0.58c0.232-0.136,0.49-0.196,0.77-0.183c0.266,0.013,0.469,0.089,0.609,0.229
		c0.537,0.493,1.177,0.759,1.923,0.795c0.267,0.013,0.53-0.062,0.792-0.222s0.435-0.432,0.521-0.815
		c0.033-0.133,0.052-0.238,0.056-0.317c0.024-0.507-0.205-1.062-0.689-1.666s-1.281-1.18-2.389-1.729
		c-1.067-0.546-1.875-1.149-2.424-1.81c-0.549-0.662-0.807-1.317-0.774-1.971c0.03-0.611,0.304-1.16,0.821-1.642
		c0.895-0.838,2.135-1.218,3.72-1.14c1.251,0.062,2.483,0.408,3.693,1.042c0.078,0.044,0.306,0.168,0.683,0.373
		c0.207,0.131,0.306,0.303,0.295,0.516C789.387,294.861,789.299,295.024,789.133,295.149z"/>
	<path d="M786.678,285.579c-0.123,0.046-0.277,0.065-0.463,0.057c-0.359-0.018-0.588-0.136-0.685-0.354
		c-0.182-0.37-0.264-0.74-0.245-1.114c0.037-0.771,0.504-1.31,1.4-1.613c0.217-0.069,0.604-0.181,1.158-0.333
		c0.555-0.154,0.928-0.266,1.117-0.337c0.217-0.068,0.364-0.202,0.439-0.398c0.166-0.378,0.469-0.559,0.908-0.537l0.1,0.005
		c0.385,0.06,0.569,0.235,0.555,0.528c-0.002,0.054-0.019,0.12-0.049,0.198c-0.215,0.563-0.697,1-1.446,1.311l-2.198,0.714
		c-0.148,0.061-0.228,0.169-0.236,0.328c-0.008,0.174,0.061,0.404,0.207,0.692c0.037,0.055,0.054,0.128,0.049,0.222
		C787.274,285.254,787.07,285.464,786.678,285.579z"/>
</g>
<g enable-background="new    ">
	<path d="M604.797,312.258c-0.441,0.009-0.699-0.143-0.775-0.453c-0.014-0.054-0.01-0.155,0.011-0.303
		c0.269-1.01,0.753-1.907,1.454-2.694s1.538-1.355,2.51-1.708c0.291-0.099,0.503-0.166,0.639-0.198
		c1.538-0.376,2.934-0.103,4.189,0.819c1.255,0.923,2.129,2.39,2.62,4.399c0.452,1.849,0.331,3.458-0.362,4.829
		c-0.695,1.371-1.784,2.323-3.27,2.859c-0.29,0.1-0.51,0.167-0.658,0.203c-1.295,0.317-2.478,0.217-3.548-0.299
		c-1.07-0.518-1.745-1.351-2.026-2.497c-0.175-0.716-0.104-1.362,0.212-1.939c0.184-0.303,0.402-0.549,0.656-0.74
		c0.351-0.258,0.729-0.437,1.134-0.536c0.594-0.145,1.229-0.15,1.905-0.015c0.282,0.045,0.454,0.189,0.514,0.433
		c0.039,0.161,0.008,0.326-0.094,0.494c-0.157,0.296-0.444,0.495-0.862,0.597c-0.176,0.043-0.33,0.053-0.465,0.029
		c-0.373-0.067-0.688-0.069-0.945-0.006l-0.061,0.015c-0.023,0.021-0.049,0.066-0.073,0.136c-0.026,0.07-0.041,0.186-0.045,0.344
		c-0.004,0.159,0.016,0.326,0.058,0.5c0.205,0.837,0.665,1.418,1.381,1.744c0.716,0.325,1.459,0.393,2.227,0.205
		c0.148-0.037,0.263-0.07,0.34-0.104c0.354-0.13,0.682-0.324,0.984-0.583c0.301-0.26,0.577-0.603,0.83-1.03
		c0.253-0.425,0.407-0.982,0.461-1.666c0.055-0.686-0.021-1.447-0.226-2.284c-0.228-0.931-0.544-1.726-0.948-2.385
		s-0.843-1.134-1.314-1.427c-0.471-0.292-0.929-0.479-1.371-0.565c-0.442-0.084-0.865-0.078-1.271,0.021
		c-0.039,0.01-0.087,0.024-0.139,0.044c-0.053,0.021-0.092,0.034-0.119,0.041c-1.168,0.429-1.955,1.386-2.363,2.873
		c-0.042,0.181-0.151,0.347-0.329,0.499c-0.178,0.15-0.381,0.254-0.611,0.311C604.937,312.246,604.854,312.259,604.797,312.258z"/>
	<path d="M617.545,309.484c-0.22,0.039-0.415,0.015-0.586-0.072c-0.172-0.087-0.277-0.21-0.316-0.373
		c-0.01-0.04-0.012-0.104-0.004-0.193c0.116-1.042,0.539-2.015,1.271-2.917c0.729-0.9,1.606-1.511,2.629-1.833l0.283-0.069
		c0.903-0.221,1.68-0.117,2.328,0.311c0.647,0.428,1.091,1.127,1.329,2.099c0.053,0.216,0.085,0.38,0.098,0.491
		c0.476,3.114,0.974,5.731,1.492,7.85l0.192,0.789c0.046,0.188-0.005,0.391-0.152,0.605c-0.147,0.214-0.354,0.368-0.616,0.461
		l-0.162,0.04c-0.242,0.06-0.459,0.054-0.646-0.013c-0.188-0.069-0.305-0.191-0.348-0.366l-0.197-0.81
		c-0.535-2.186-1.04-4.836-1.516-7.951c-0.014-0.111-0.045-0.269-0.094-0.471c-0.165-0.675-0.409-1.115-0.731-1.322
		c-0.322-0.208-0.639-0.273-0.949-0.198l-0.08,0.02c-0.438,0.136-0.888,0.481-1.345,1.037c-0.458,0.555-0.726,1.2-0.803,1.933
		c-0.021,0.206-0.126,0.396-0.312,0.57c-0.187,0.175-0.407,0.293-0.663,0.356L617.545,309.484z"/>
	<path d="M639.352,312.879l-0.143,0.035c-0.229,0.057-0.432,0.049-0.605-0.023c-0.176-0.072-0.282-0.188-0.322-0.351
		c-0.188-0.769-0.41-1.75-0.666-2.946c-0.258-1.195-0.438-2.009-0.544-2.441c-0.205-0.837-0.409-1.569-0.613-2.199
		c-0.204-0.63-0.39-1.124-0.556-1.483c-0.167-0.36-0.332-0.645-0.499-0.854c-0.165-0.208-0.306-0.346-0.422-0.411
		s-0.228-0.084-0.336-0.058c-0.715,0.175-1.231,1.66-1.549,4.454c-0.123,1.074-0.218,2.166-0.281,3.276
		c-0.064,1.109-0.108,2.071-0.131,2.884c-0.023,0.814-0.042,1.336-0.056,1.569c-0.508,0.324-0.943,0.53-1.308,0.619
		c-0.311,0.076-0.486,0.027-0.529-0.149c-0.301-1.228-0.767-2.854-1.398-4.88c-0.631-2.026-1.155-3.568-1.57-4.625
		c-0.405-1.072-0.647-1.65-0.724-1.731c-0.047-0.075-0.075-0.132-0.085-0.173c-0.079-0.323,0.091-0.623,0.51-0.897
		c0.111-0.071,0.234-0.122,0.37-0.155c0.418-0.102,0.714-0.032,0.889,0.212c0.109,0.159,0.384,0.813,0.822,1.964
		c0.184,0.456,0.697,2.003,1.543,4.641c0.014-0.117,0.034-0.43,0.061-0.937c0.026-0.506,0.052-0.884,0.076-1.133
		c0.012-0.074,0.037-0.331,0.08-0.77c0.043-0.44,0.078-0.734,0.105-0.884c0.027-0.149,0.074-0.426,0.141-0.828
		s0.133-0.697,0.201-0.887c0.068-0.187,0.162-0.449,0.28-0.786c0.118-0.336,0.251-0.594,0.4-0.773
		c0.149-0.18,0.325-0.38,0.528-0.602s0.436-0.399,0.695-0.534c0.26-0.135,0.552-0.243,0.876-0.322
		c0.432-0.106,0.82-0.137,1.168-0.092c0.347,0.043,0.653,0.191,0.922,0.439c0.269,0.249,0.495,0.505,0.681,0.766
		c0.186,0.262,0.371,0.667,0.555,1.216c0.185,0.549,0.332,1.02,0.443,1.414c0.11,0.396,0.258,0.971,0.442,1.726l0.079,0.323
		c0.109,0.446,0.292,1.266,0.549,2.462s0.478,2.171,0.662,2.926c0.043,0.176-0.008,0.363-0.151,0.563
		C639.798,312.645,639.601,312.79,639.352,312.879z"/>
	<path d="M635.012,298.648c-2.639,0.259-4.416,0.387-5.333,0.382c-0.73-0.008-1.296-0.097-1.696-0.272
		c-0.399-0.173-0.649-0.462-0.748-0.867c-0.105-0.432,0.043-0.907,0.444-1.428c0.401-0.52,0.969-0.92,1.701-1.199
		c0.236-0.086,0.401-0.141,0.496-0.164c0.62-0.151,1.221-0.198,1.8-0.14s1.08,0.179,1.504,0.361c0.424,0.182,0.83,0.427,1.219,0.732
		c0.389,0.304,0.696,0.579,0.921,0.825c0.225,0.246,0.433,0.502,0.627,0.769c0.392-0.039,0.599-0.01,0.622,0.084
		c0.006,0.027,0.003,0.07-0.012,0.131c-0.055,0.128-0.146,0.25-0.274,0.368c0.04,0.276-0.08,0.491-0.357,0.645
		c-0.128,0.06-0.219,0.097-0.272,0.11c-0.243,0.059-0.434-0.017-0.57-0.226c-0.003-0.014-0.015-0.032-0.035-0.056
		C635.027,298.681,635.016,298.662,635.012,298.648z M629.859,296.348c-0.027,0.007-0.066,0.021-0.119,0.041
		s-0.085,0.03-0.099,0.034c-0.236,0.088-0.417,0.207-0.545,0.359c-0.127,0.153-0.173,0.304-0.136,0.452
		c0.062,0.257,0.191,0.432,0.387,0.527c0.194,0.095,0.578,0.145,1.15,0.148c1.33,0.003,2.593-0.041,3.786-0.132
		C632.967,296.424,631.492,295.948,629.859,296.348z"/>
	<path d="M653.881,309.412c-0.064,0.029-0.157,0.059-0.279,0.089c-0.458,0.112-0.759,0.022-0.902-0.272
		c-0.164-0.318-0.434-1.245-0.81-2.784c-0.168-0.688-0.425-1.783-0.771-3.286c-0.346-1.503-0.59-2.544-0.731-3.124l-0.1-0.405
		c-0.897,0.948-1.588,1.576-2.071,1.879c-0.267,0.194-0.521,0.321-0.765,0.38c-0.351,0.086-0.565-0.032-0.645-0.357
		c-0.01-0.039-0.021-0.144-0.034-0.313c-0.005-0.199-0.026-0.372-0.063-0.52c-0.111-0.458-0.329-0.777-0.652-0.956
		c-0.321-0.178-0.632-0.231-0.928-0.159l-0.102,0.024c-0.172,0.057-0.354,0.191-0.545,0.401c-0.191,0.212-0.385,0.521-0.578,0.925
		c-0.194,0.405-0.3,0.967-0.317,1.686c-0.017,0.718,0.085,1.531,0.307,2.434c0.198,0.81,0.446,1.521,0.747,2.134
		c0.299,0.614,0.593,1.081,0.879,1.404s0.581,0.577,0.884,0.76c0.302,0.184,0.547,0.294,0.735,0.335
		c0.188,0.039,0.344,0.044,0.465,0.015l0.021-0.005c0.026-0.007,0.059-0.022,0.097-0.045c0.036-0.024,0.082-0.07,0.137-0.14
		c0.054-0.071,0.098-0.157,0.13-0.258s0.051-0.23,0.055-0.389c0.005-0.158-0.017-0.332-0.062-0.521
		c-0.043-0.176,0.008-0.363,0.151-0.563c0.145-0.199,0.342-0.344,0.591-0.435l0.142-0.034c0.229-0.056,0.432-0.048,0.607,0.023
		c0.174,0.072,0.281,0.188,0.32,0.351c0.169,0.688,0.095,1.35-0.222,1.985c-0.316,0.634-0.863,1.09-1.639,1.367
		c-0.078,0.032-0.205,0.07-0.38,0.113c-1.174,0.287-2.257-0.048-3.249-1.007c-0.993-0.958-1.732-2.435-2.222-4.433
		c-0.462-1.889-0.449-3.489,0.037-4.802c0.487-1.312,1.348-2.191,2.583-2.637c0.091-0.037,0.231-0.079,0.42-0.125
		c0.743-0.182,1.399-0.098,1.97,0.249c0.571,0.346,0.931,0.823,1.08,1.429c0.531-0.516,1.175-1.245,1.931-2.188
		c0.271-0.352,0.528-0.558,0.771-0.617c0.162-0.04,0.314-0.019,0.455,0.061s0.238,0.17,0.292,0.272l0.085,0.172
		c0.006,0.027,0.02,0.066,0.04,0.12c0.02,0.052,0.034,0.098,0.045,0.138c0.172,0.587,0.352,1.266,0.54,2.035
		c0.145,0.594,0.383,1.593,0.712,2.999c0.33,1.407,0.569,2.414,0.718,3.021c0.35,1.431,0.585,2.273,0.705,2.53
		c0.003,0.014,0.01,0.03,0.021,0.048c0.012,0.019,0.02,0.036,0.023,0.049c0.039,0.161-0.002,0.332-0.121,0.512
		C654.266,309.156,654.098,309.301,653.881,309.412z"/>
	<path d="M662.976,307.487c-1.214,0.297-2.302,0.145-3.265-0.456c-0.961-0.601-1.564-1.4-1.809-2.399
		c-0.268-1.093-0.046-2.085,0.666-2.973c-0.805-0.018-1.535-0.214-2.192-0.59c-0.656-0.375-1.082-0.961-1.276-1.758
		c-0.062-0.256-0.101-0.497-0.112-0.723c-0.044-0.818,0.213-1.568,0.769-2.247c0.556-0.681,1.293-1.132,2.211-1.356
		c0.877-0.214,1.762-0.16,2.657,0.166c0.201,0.066,0.325,0.192,0.371,0.38c0.046,0.189-0.014,0.383-0.18,0.58
		c-0.177,0.215-0.42,0.36-0.729,0.436c-0.229,0.056-0.424,0.054-0.581-0.008c-0.519-0.188-1.014-0.224-1.485-0.109
		c-0.837,0.205-1.229,0.765-1.176,1.682c-0.001,0.172,0.021,0.353,0.068,0.542c0.056,0.229,0.13,0.433,0.225,0.609
		c0.093,0.178,0.218,0.322,0.373,0.434c0.156,0.112,0.295,0.211,0.416,0.296c0.12,0.084,0.299,0.141,0.535,0.168
		c0.235,0.029,0.409,0.054,0.522,0.076c0.112,0.023,0.309,0.021,0.588-0.004c0.28-0.026,0.458-0.044,0.533-0.056
		c0.076-0.011,0.263-0.039,0.56-0.082c0.296-0.044,0.451-0.068,0.465-0.071c0.388-0.052,0.607,0.029,0.66,0.246
		c0.027,0.108,0.006,0.252-0.064,0.434c-0.07,0.181-0.148,0.333-0.232,0.453l-0.103,0.197c-0.087,0.051-0.248,0.11-0.48,0.182
		c-0.232,0.072-0.425,0.147-0.577,0.228c-0.152,0.08-0.306,0.2-0.459,0.358c-0.154,0.16-0.247,0.396-0.277,0.711
		c-0.029,0.315,0.01,0.694,0.118,1.141c0.175,0.715,0.592,1.264,1.25,1.646c0.659,0.383,1.305,0.497,1.938,0.341
		c1.175-0.287,1.715-1.671,1.623-4.151c-0.057-1.344-0.287-2.839-0.689-4.485c-0.225-0.918-0.451-1.756-0.68-2.516l-0.004-0.021
		c-0.047-0.188,0.001-0.386,0.144-0.593c0.143-0.207,0.344-0.362,0.604-0.469c0.014-0.003,0.047-0.015,0.099-0.036
		c0.053-0.02,0.086-0.031,0.1-0.034c0.229-0.056,0.435-0.048,0.615,0.02c0.183,0.07,0.302,0.192,0.357,0.363
		c0.238,0.801,0.472,1.666,0.699,2.596c0.433,1.768,0.679,3.331,0.739,4.688C666.663,304.818,665.485,306.873,662.976,307.487z"/>
	<path d="M660.476,286.479c-0.108,0.083-0.257,0.147-0.446,0.194c-0.364,0.089-0.626,0.04-0.787-0.15
		c-0.292-0.315-0.483-0.661-0.576-1.038c-0.191-0.783,0.115-1.458,0.92-2.028c0.196-0.133,0.549-0.359,1.057-0.677
		c0.51-0.317,0.848-0.54,1.018-0.667c0.195-0.134,0.303-0.309,0.32-0.528c0.053-0.427,0.302-0.696,0.747-0.805l0.102-0.025
		c0.401-0.056,0.638,0.066,0.71,0.363c0.014,0.055,0.017,0.125,0.01,0.212c-0.047,0.627-0.398,1.207-1.055,1.738l-1.983,1.365
		c-0.131,0.104-0.178,0.236-0.139,0.398c0.043,0.176,0.181,0.385,0.411,0.629c0.054,0.044,0.093,0.114,0.115,0.208
		C660.975,285.978,660.834,286.249,660.476,286.479z"/>
</g>
<g enable-background="new    ">
	<path d="M569.322,307.616l0.138,0.051c0.233,0.088,0.407,0.217,0.523,0.385c0.114,0.169,0.141,0.338,0.077,0.508
		c-0.243,0.65-0.68,1.165-1.311,1.545c-0.631,0.379-1.363,0.474-2.195,0.281c-0.218-0.052-0.38-0.097-0.483-0.136
		c-1.093-0.408-1.759-1.283-1.999-2.626s-0.031-3.055,0.628-5.136c0.024-0.065,0.056-0.157,0.093-0.277s0.064-0.205,0.084-0.257
		c0.61-1.596,1.58-2.713,2.908-3.351c1.328-0.639,2.74-0.759,4.238-0.363c0.296,0.081,0.521,0.15,0.679,0.209
		c1.326,0.495,2.324,1.278,2.991,2.351s0.781,2.194,0.345,3.365l-0.022,0.059c-0.46,1.191-0.961,2.464-1.504,3.818
		s-0.891,2.24-1.047,2.656c-0.18,0.48-0.307,0.841-0.381,1.08l-0.008,0.02c-0.068,0.183-0.222,0.318-0.462,0.405
		c-0.241,0.089-0.496,0.097-0.767,0.025l-0.156-0.058c-0.221-0.083-0.39-0.205-0.507-0.368s-0.151-0.331-0.101-0.505
		c0.078-0.252,0.211-0.625,0.396-1.119c0.16-0.43,0.511-1.318,1.051-2.665c0.54-1.348,1.04-2.617,1.5-3.81l0.015-0.04
		c0.316-0.845,0.24-1.634-0.229-2.363c-0.469-0.732-1.126-1.255-1.972-1.57c-0.156-0.059-0.275-0.096-0.358-0.112
		c-0.849-0.229-1.701-0.138-2.557,0.269c-0.856,0.406-1.539,1.271-2.048,2.594l-0.167,0.448c-0.281,0.874-0.467,1.676-0.554,2.406
		c-0.088,0.731-0.106,1.307-0.056,1.726c0.051,0.42,0.142,0.782,0.271,1.091c0.13,0.308,0.249,0.515,0.356,0.622
		c0.108,0.106,0.195,0.173,0.261,0.197c0.039,0.015,0.115,0.01,0.228-0.015c0.113-0.025,0.258-0.115,0.435-0.271
		s0.316-0.371,0.419-0.645c0.067-0.182,0.226-0.316,0.472-0.401C568.794,307.553,569.053,307.546,569.322,307.616z"/>
	<path d="M578.791,305.726c-0.212-0.108-0.365-0.243-0.461-0.404c-0.095-0.162-0.113-0.321-0.055-0.478
		c0.023-0.065,0.05-0.115,0.077-0.148c0.677-0.859,1.556-1.477,2.637-1.851c1.081-0.375,2.171-0.424,3.269-0.147
		c0.27,0.071,0.457,0.126,0.561,0.165c1.341,0.5,2.219,1.422,2.638,2.764c0.418,1.343,0.278,2.949-0.422,4.823
		c-0.389,1.041-0.845,1.924-1.367,2.648c-0.753,1.022-1.634,1.734-2.644,2.137c-1.01,0.401-1.983,0.427-2.92,0.077l-0.137-0.051
		c-0.641-0.27-1.072-0.642-1.295-1.118c-0.223-0.476-0.236-0.974-0.042-1.494c0.082-0.221,0.187-0.42,0.311-0.595
		c0.12-0.163,0.312-0.27,0.575-0.319s0.519-0.029,0.766,0.063l0.04,0.014c0.216,0.097,0.373,0.229,0.473,0.4
		c0.1,0.17,0.12,0.334,0.062,0.49c-0.023,0.064-0.048,0.107-0.07,0.129c-0.087,0.115-0.152,0.231-0.196,0.349
		c-0.083,0.221-0.086,0.405-0.007,0.554c0.078,0.148,0.176,0.243,0.293,0.287c0.052,0.02,0.131,0.034,0.239,0.045
		c0.106,0.01,0.261-0.006,0.463-0.05c0.2-0.042,0.41-0.116,0.628-0.222c0.217-0.104,0.469-0.284,0.757-0.539
		c0.288-0.257,0.568-0.569,0.842-0.943c0.47-0.625,0.885-1.418,1.244-2.381c0.331-0.885,0.524-1.69,0.581-2.418
		s-0.01-1.312-0.201-1.755c-0.191-0.441-0.408-0.793-0.651-1.056c-0.243-0.26-0.521-0.449-0.834-0.566
		c-0.025-0.01-0.062-0.02-0.11-0.029c-0.049-0.011-0.078-0.02-0.092-0.023c-0.527-0.138-1.126-0.09-1.798,0.14
		c-0.672,0.231-1.259,0.661-1.76,1.289c-0.134,0.158-0.324,0.261-0.571,0.31c-0.248,0.048-0.496,0.026-0.743-0.066L578.791,305.726z
		"/>
	<path d="M592.922,308.378c-0.126-0.18-0.154-0.361-0.087-0.543c0.078-0.209,0.25-0.352,0.517-0.431
		c1.271-0.385,2.354-0.41,3.253-0.075c1.444,0.539,2.094,1.738,1.948,3.597c-0.083,0.977-0.365,2.11-0.847,3.397
		c-0.48,1.289-1.071,2.395-1.772,3.318c-1.499,1.991-3.036,2.692-4.609,2.104c-0.418-0.155-0.773-0.404-1.068-0.744
		c-0.295-0.341-0.521-0.75-0.675-1.23c-0.154-0.48-0.267-0.925-0.335-1.337c-0.068-0.411-0.12-0.89-0.152-1.436
		c-0.035-0.502-0.027-1.737,0.025-3.704c0.002-0.044,0.015-0.099,0.039-0.163c0.059-0.156,0.183-0.28,0.373-0.373
		c0.189-0.092,0.398-0.125,0.626-0.1c0.088,0.004,0.21,0.034,0.366,0.092c0.442,0.166,0.662,0.411,0.659,0.736
		c-0.044,1.984-0.057,3.188-0.037,3.611c0.059,0.836,0.196,1.581,0.412,2.232s0.404,1.021,0.563,1.111
		c0.062-0.007,0.178-0.048,0.348-0.127c0.17-0.077,0.414-0.245,0.732-0.504c0.319-0.259,0.615-0.574,0.889-0.947
		c0.645-0.855,1.189-1.876,1.631-3.06c0.452-1.21,0.713-2.247,0.783-3.11c0.048-0.604-0.004-1.08-0.156-1.426
		c-0.153-0.346-0.334-0.559-0.541-0.636c-0.3-0.112-0.801-0.062-1.502,0.151c-0.298,0.082-0.59,0.068-0.875-0.038
		C593.221,308.668,593.052,308.546,592.922,308.378z"/>
</g>
<g enable-background="new    ">
	<path d="M674.648,303.196c-0.221,0.195-0.496,0.293-0.826,0.293c-0.183,0-0.336-0.036-0.457-0.11
		c-0.465-0.269-0.779-0.666-0.945-1.191c-0.164-0.525-0.247-1.229-0.247-2.108c0-4.241-0.03-6.637-0.092-7.187v-0.055
		c0-0.171,0.083-0.327,0.247-0.468c0.166-0.141,0.364-0.229,0.597-0.266c0.048-0.012,0.11-0.019,0.183-0.019
		c0.208,0,0.386,0.046,0.532,0.138s0.226,0.217,0.238,0.376c0.062,0.672,0.092,3.104,0.092,7.297c0,0.685,0.069,1.231,0.211,1.641
		c0.14,0.409,0.284,0.657,0.431,0.742c0.184,0.11,0.275,0.257,0.275,0.44C674.887,302.891,674.807,303.05,674.648,303.196z
		 M679.14,303.05c-0.184,0.109-0.386,0.165-0.604,0.165c-0.27,0-0.483-0.08-0.643-0.239c-0.514-0.55-0.77-1.638-0.77-3.263
		c0-4.155-0.031-6.49-0.092-7.004v-0.055c0-0.171,0.08-0.323,0.238-0.458s0.354-0.227,0.587-0.275
		c0.048-0.012,0.122-0.019,0.22-0.019c0.195,0,0.363,0.05,0.504,0.147s0.223,0.22,0.248,0.366c0.061,0.501,0.092,2.114,0.092,4.84
		v2.273c0,0.514,0.033,0.972,0.101,1.375s0.138,0.694,0.211,0.871s0.14,0.296,0.202,0.357c0.084,0.086,0.127,0.195,0.127,0.33
		C679.561,302.707,679.42,302.902,679.14,303.05z"/>
	<path d="M684.127,303.27c-0.123,0.024-0.215,0.036-0.275,0.036c-0.428,0-0.686-0.146-0.771-0.439
		c-0.013-0.049-0.046-0.208-0.101-0.477s-0.113-0.663-0.174-1.183c-0.062-0.52-0.092-1.012-0.092-1.476
		c0-0.33,0.018-0.575,0.055-0.733c0.146-0.722,0.514-1.204,1.1-1.448c0.258-0.098,0.508-0.147,0.752-0.147
		c0.391,0,0.742,0.046,1.055,0.138c0.312,0.092,0.617,0.263,0.916,0.514c0.3,0.25,0.535,0.461,0.706,0.632
		c0.171,0.172,0.434,0.459,0.788,0.862c0.208,0.232,0.489,0.587,0.844,1.063s0.568,0.758,0.642,0.843
		c0.477-0.953,0.715-2.175,0.715-3.666c0-1.467-0.251-2.582-0.751-3.347c-0.502-0.764-1.131-1.23-1.889-1.402
		c-0.244-0.061-0.477-0.092-0.697-0.092c-0.623,0-1.25,0.178-1.879,0.532s-1.152,0.85-1.567,1.485
		c-0.208,0.305-0.52,0.458-0.935,0.458c-0.062,0-0.153-0.012-0.275-0.037c-0.33-0.073-0.495-0.25-0.495-0.531
		c0-0.098,0.03-0.195,0.092-0.294c0.55-0.867,1.311-1.57,2.282-2.107c0.972-0.538,1.977-0.807,3.016-0.807
		c0.465,0,0.887,0.049,1.266,0.146c1.124,0.269,2.001,0.896,2.631,1.879c0.629,0.984,0.943,2.295,0.943,3.933
		c0,1.296-0.201,2.499-0.604,3.611s-0.983,1.742-1.741,1.889c-0.037,0.012-0.098,0.019-0.184,0.019c-0.221,0-0.41-0.05-0.568-0.147
		c-0.159-0.109-0.354-0.299-0.587-0.568c-0.231-0.269-0.52-0.616-0.861-1.045c-0.343-0.428-0.654-0.794-0.935-1.1
		c-0.832-0.929-1.467-1.436-1.907-1.521c-0.086,0.208-0.128,0.477-0.128,0.807c0,0.428,0.029,0.883,0.092,1.365
		c0.061,0.483,0.121,0.859,0.183,1.128l0.092,0.403c0,0.013,0.003,0.027,0.009,0.046s0.01,0.034,0.01,0.046
		c0,0.159-0.074,0.309-0.221,0.449S684.346,303.221,684.127,303.27z"/>
	<path d="M701.506,298.796c0.172,0.11,0.257,0.251,0.257,0.422s-0.098,0.336-0.294,0.495c-1.869,1.467-3.501,2.2-4.895,2.2h-0.201
		c-0.697-0.037-1.223-0.238-1.577-0.605c-0.354-0.366-0.531-0.812-0.531-1.338c0-0.245,0.036-0.483,0.11-0.716
		c0.049-0.158,0.176-0.299,0.385-0.421c0.207-0.122,0.428-0.184,0.66-0.184h0.036c0.195,0.013,0.36,0.073,0.495,0.184
		c0.135,0.109,0.201,0.238,0.201,0.385c0,0.062-0.006,0.11-0.018,0.146c-0.049,0.146-0.074,0.3-0.074,0.458
		c0,0.245,0.067,0.432,0.202,0.56c0.134,0.128,0.3,0.199,0.495,0.211h0.037c0.855,0,1.998-0.562,3.428-1.687
		c0.208-0.159,0.465-0.238,0.77-0.238C701.201,298.668,701.371,298.711,701.506,298.796z M701.469,293.131
		c0.184,0.11,0.275,0.263,0.275,0.459c0,0.158-0.079,0.312-0.238,0.458c-1.869,1.576-3.489,2.365-4.857,2.365h-0.184
		c-0.697-0.037-1.211-0.245-1.541-0.624c-0.33-0.378-0.494-0.837-0.494-1.375c0-0.231,0.043-0.501,0.128-0.807
		c0.049-0.158,0.177-0.299,0.386-0.422c0.207-0.121,0.428-0.183,0.66-0.183h0.036c0.195,0.012,0.36,0.073,0.495,0.183
		c0.135,0.11,0.201,0.239,0.201,0.386c0,0.062-0.006,0.109-0.018,0.146c-0.062,0.22-0.092,0.397-0.092,0.531
		c0,0.257,0.066,0.462,0.201,0.614c0.135,0.153,0.275,0.235,0.422,0.248h0.037c0.758,0,1.857-0.611,3.299-1.834
		c0.209-0.183,0.471-0.274,0.789-0.274C701.133,293.003,701.299,293.046,701.469,293.131z"/>
</g>
</svg>
