<?xml version="1.0" encoding="utf-8"?>
<!-- Generator: Adobe Illustrator 16.0.0, SVG Export Plug-In . SVG Version: 6.00 Build 0)  -->
<!DOCTYPE svg PUBLIC "-//W3C//DTD SVG 1.1//EN" "http://www.w3.org/Graphics/SVG/1.1/DTD/svg11.dtd">
<svg version="1.1" id="Layer_1" xmlns="http://www.w3.org/2000/svg" xmlns:xlink="http://www.w3.org/1999/xlink" x="0px" y="0px"
	 width="1280px" height="720px" viewBox="0 0 1280 720" enable-background="new 0 0 1280 720" xml:space="preserve">
<g>
	
		<linearGradient id="SVGID_1_" gradientUnits="userSpaceOnUse" x1="160.3591" y1="1412.2246" x2="160.3591" y2="1864.835" gradientTransform="matrix(1 0 0 1 479.6406 -1148.1953)">
		<stop  offset="0.0439" style="stop-color:#1A3545"/>
		<stop  offset="0.2651" style="stop-color:#003C58"/>
		<stop  offset="0.378" style="stop-color:#134A65"/>
		<stop  offset="0.4855" style="stop-color:#295B73"/>
		<stop  offset="0.6038" style="stop-color:#295B73"/>
		<stop  offset="0.7255" style="stop-color:#2B5D74"/>
		<stop  offset="0.7694" style="stop-color:#316279"/>
		<stop  offset="0.8005" style="stop-color:#3D6B80"/>
		<stop  offset="0.8135" style="stop-color:#457185"/>
		<stop  offset="0.841" style="stop-color:#4A778C"/>
		<stop  offset="0.8787" style="stop-color:#5A889D"/>
		<stop  offset="0.9224" style="stop-color:#73A4BA"/>
		<stop  offset="0.9702" style="stop-color:#97CBE2"/>
		<stop  offset="1" style="stop-color:#B0E7FF"/>
	</linearGradient>
	<rect x="0" y="-1.666" fill="url(#SVGID_1_)" width="1280" height="720"/>
</g>
<g>
	<path fill="#FFFFFF" d="M117.082,420.225c-3.396,0-6.146-2.75-6.146-6.145c0,3.395-2.751,6.145-6.146,6.145
		c3.395,0,6.146,2.752,6.146,6.146C110.937,422.977,113.688,420.225,117.082,420.225z"/>
	<path fill="#FFFFFF" d="M284.87,577.074c-3.396,0-6.146-2.75-6.146-6.146c0,3.396-2.752,6.146-6.146,6.146
		c3.396,0,6.146,2.754,6.146,6.145C278.724,579.828,281.475,577.074,284.87,577.074z"/>
	<path fill="#FFFFFF" d="M149.456,577.074c-3.396,0-6.146-2.75-6.146-6.146c0,3.396-2.752,6.146-6.146,6.146
		c3.394,0,6.146,2.754,6.146,6.145C143.311,579.828,146.062,577.074,149.456,577.074z"/>
	<path fill="#E62E7B" d="M454.396,198.609l0.621,1.701h2.018c0.285,0,0.402,0.325,0.176,0.475l-1.632,1.051l0.623,1.702
		c0.089,0.242-0.227,0.443-0.456,0.293l-1.629-1.052l-1.627,1.052c-0.229,0.15-0.545-0.051-0.457-0.293l0.623-1.702l-1.633-1.051
		c-0.229-0.149-0.11-0.475,0.177-0.475h2.016l0.624-1.701C453.916,198.367,454.306,198.367,454.396,198.609z"/>
	<path fill="#9ED8F5" d="M466.384,208.477l0.242,0.673h0.796c0.107,0,0.154,0.127,0.062,0.188l-0.644,0.414l0.246,0.669
		c0.03,0.098-0.093,0.176-0.187,0.116l-0.645-0.414l-0.645,0.414c-0.098,0.06-0.221-0.019-0.186-0.116l0.246-0.669l-0.646-0.414
		c-0.096-0.061-0.046-0.188,0.062-0.188h0.794l0.244-0.673C466.196,208.383,466.349,208.383,466.384,208.477z"/>
	<path fill="#9ED8F5" d="M360.701,123.845l2.02-0.048l0.564-1.716c0.081-0.244,0.469-0.253,0.562-0.014l0.674,1.686l2.017-0.048
		c0.285-0.007,0.414,0.315,0.188,0.47l-1.6,1.09l0.677,1.687c0.098,0.239-0.208,0.448-0.443,0.303l-1.662-1.012l-1.6,1.092
		c-0.229,0.154-0.545-0.04-0.462-0.283l0.564-1.716l-1.659-1.011C360.305,124.181,360.411,123.852,360.701,123.845z"/>
	<path fill="#9ED8F5" d="M519.737,100.776l2.017-0.048l0.567-1.715c0.081-0.244,0.467-0.253,0.562-0.014l0.674,1.686l2.017-0.049
		c0.285-0.007,0.416,0.316,0.188,0.47l-1.604,1.091l0.678,1.686c0.098,0.239-0.209,0.448-0.443,0.304l-1.659-1.012l-1.599,1.091
		c-0.229,0.154-0.545-0.039-0.465-0.283l0.564-1.716l-1.66-1.011C519.339,101.112,519.449,100.784,519.737,100.776z"/>
	<path fill="#E62E7B" d="M539.587,72.563l0.794-0.019l0.225-0.677c0.033-0.096,0.188-0.1,0.226-0.005l0.27,0.664l0.793-0.019
		c0.115-0.002,0.166,0.125,0.076,0.188l-0.631,0.43l0.268,0.664c0.037,0.095-0.084,0.177-0.176,0.12l-0.656-0.399l-0.629,0.43
		c-0.088,0.061-0.213-0.015-0.188-0.111l0.229-0.676l-0.653-0.399C539.431,72.695,539.474,72.565,539.587,72.563z"/>
	<path fill="#F5EA6A" d="M257.614,201.631l0.311,0.831h0.979c0.146,0,0.198,0.16,0.085,0.232l-0.795,0.514l0.307,0.831
		c0.044,0.117-0.106,0.215-0.225,0.143l-0.794-0.513l-0.796,0.513c-0.114,0.072-0.267-0.025-0.223-0.143l0.304-0.831l-0.795-0.514
		c-0.114-0.072-0.06-0.232,0.083-0.232h0.979l0.309-0.831C257.384,201.514,257.572,201.514,257.614,201.631z"/>
	<path fill="#9ED8F5" d="M151.523,251.904l0.572,1.563h1.852c0.267,0,0.373,0.301,0.159,0.438l-1.497,0.967l0.572,1.562
		c0.08,0.223-0.206,0.405-0.42,0.271l-1.497-0.968l-1.498,0.968c-0.212,0.137-0.499-0.048-0.419-0.271l0.573-1.562l-1.498-0.967
		c-0.213-0.138-0.104-0.438,0.161-0.438h1.851l0.572-1.562C151.087,251.683,151.441,251.683,151.523,251.904z"/>
	<path fill="#9ED8F5" d="M272.399,322.601l0.88,2.397h2.845c0.404,0,0.573,0.459,0.247,0.67l-2.305,1.484l0.88,2.4
		c0.125,0.344-0.312,0.625-0.644,0.412l-2.303-1.48l-2.307,1.48c-0.324,0.213-0.768-0.068-0.642-0.412l0.879-2.4l-2.301-1.484
		c-0.328-0.211-0.159-0.67,0.246-0.67h2.844l0.879-2.397C271.729,322.257,272.272,322.257,272.399,322.601z"/>
	<path fill="#49BDD3" d="M248.292,338.472l0.479,1.312h1.549c0.227,0,0.312,0.25,0.138,0.365l-1.256,0.807l0.479,1.312
		c0.066,0.188-0.17,0.344-0.352,0.227l-1.254-0.811l-1.254,0.811c-0.178,0.117-0.417-0.039-0.35-0.227l0.479-1.312l-1.252-0.807
		c-0.179-0.115-0.086-0.365,0.139-0.365h1.549l0.479-1.312C247.928,338.286,248.227,338.286,248.292,338.472z"/>
	<path fill="#065252" stroke="#52514B" stroke-width="0.2691" stroke-miterlimit="10" d="M491.475,76.676
		c0.035-2.958-5.671-3.032-5.707-0.067C485.737,79.567,491.44,79.641,491.475,76.676z"/>
	<path fill="#065252" stroke="#52514B" stroke-width="0.2691" stroke-miterlimit="10" d="M764.288,57.929
		c0.033-2.959-5.67-3.031-5.704-0.068C758.553,60.82,764.26,60.893,764.288,57.929z"/>
	<path fill="#065252" stroke="#52514B" stroke-width="0.2691" stroke-miterlimit="10" d="M819.45,328.899
		c-0.06-1.246-1.228-2.312-2.825-2.332l-0.636-0.009c-1.489-0.021-2.935,1.021-2.879,2.269c0.055,1.246,1.229,2.312,2.821,2.332
		l0.638,0.008C818.062,331.188,819.506,330.144,819.45,328.899z"/>
	<path fill="#065252" stroke="#52514B" stroke-width="0.2691" stroke-miterlimit="10" d="M887.477,149.833l0.002-0.317
		c0.035-2.959-5.672-3.031-5.705-0.068l-0.004,0.316C881.734,152.725,887.441,152.796,887.477,149.833z"/>
	<path fill="#065252" stroke="#52514B" stroke-width="0.2691" stroke-miterlimit="10" d="M443.334,181.372
		c0.032-2.958-5.67-3.03-5.701-0.067C437.599,184.265,443.303,184.336,443.334,181.372z"/>
	<path fill="#065252" stroke="#52514B" stroke-width="0.2691" stroke-miterlimit="10" d="M535.175,53.176
		c0.045-3.945-7.562-4.042-7.604-0.09C527.523,57.031,535.125,57.128,535.175,53.176z"/>
	<path fill="#065252" stroke="#52514B" stroke-width="0.2691" stroke-miterlimit="10" d="M824.493,141.423l0.015-1.022
		c0.021-1.604-1.713-3.161-3.771-3.11c-2.062,0.05-3.812,1.302-3.838,3.02l-0.015,1.023c-0.021,1.604,1.716,3.161,3.771,3.11
		C822.719,144.392,824.475,143.141,824.493,141.423z"/>
	<path fill="#065252" stroke="#52514B" stroke-width="0.2691" stroke-miterlimit="10" d="M479.132,129.163
		c0.048-3.945-7.562-4.042-7.604-0.09C471.48,133.018,479.082,133.115,479.132,129.163z"/>
	<path fill="#065252" stroke="#52514B" stroke-width="0.2691" stroke-miterlimit="10" d="M916.409,87.833
		c-0.067-1.663-1.635-3.086-3.771-3.112l-0.633-0.008c-1.99-0.022-3.912,1.366-3.847,3.021c0.071,1.661,1.644,3.084,3.771,3.109
		l0.638,0.009C914.562,90.877,916.482,89.49,916.409,87.833z"/>
	<path fill="#065252" stroke="#52514B" stroke-width="0.2691" stroke-miterlimit="10" d="M911.637,333.567
		c0.047-3.941-7.562-4.041-7.604-0.091C903.984,337.423,911.59,337.519,911.637,333.567z"/>
	<path fill="#065252" stroke="#52514B" stroke-width="0.2691" stroke-miterlimit="10" d="M507.327,103.435
		c0.021-1.973-3.775-2.021-3.807-0.045C503.5,105.363,507.306,105.41,507.327,103.435z"/>
	<path fill="#065252" stroke="#52514B" stroke-width="0.2691" stroke-miterlimit="10" d="M500.384,46.633
		c0.021-1.973-3.78-2.021-3.807-0.045C496.556,48.558,500.362,48.608,500.384,46.633z"/>
	<path fill="#065252" stroke="#52514B" stroke-width="0.2691" stroke-miterlimit="10" d="M445.801,106.285l0.004-0.511
		c0.012-0.803-0.854-1.582-1.882-1.555c-1.03,0.024-1.91,0.65-1.925,1.51l-0.006,0.51c-0.01,0.803,0.854,1.581,1.888,1.556
		C444.911,107.77,445.788,107.144,445.801,106.285z"/>
	<path fill="#065252" stroke="#52514B" stroke-width="0.2691" stroke-miterlimit="10" d="M702.062,39.82
		c0.021-1.973-3.781-2.021-3.806-0.045C698.234,41.746,702.036,41.795,702.062,39.82z"/>
	<path fill="#065252" stroke="#52514B" stroke-width="0.2691" stroke-miterlimit="10" d="M811.656,100.901
		c-0.039-0.831-0.819-1.543-1.889-1.555l-0.634-0.007c-0.991-0.012-1.955,0.682-1.918,1.51c0.03,0.832,0.812,1.544,1.883,1.557
		l0.636,0.007C810.732,102.423,811.691,101.729,811.656,100.901z"/>
	<path fill="#065252" stroke="#52514B" stroke-width="0.2691" stroke-miterlimit="10" d="M846.909,74.297
		c0.213-0.167,0.433-0.334,0.646-0.502c0.711-0.559,0.771-1.599,0.022-2.169c-0.754-0.569-1.936-0.627-2.688-0.031
		c-0.211,0.168-0.426,0.336-0.644,0.504c-0.711,0.559-0.771,1.599-0.021,2.168C844.975,74.838,846.15,74.895,846.909,74.297z"/>
	<path fill="#065252" stroke="#52514B" stroke-width="0.2691" stroke-miterlimit="10" d="M929.666,200.922
		c0.021-1.975-3.777-2.023-3.808-0.046C925.846,202.848,929.646,202.896,929.666,200.922z"/>
	<path fill="#065252" stroke="#52514B" stroke-width="0.2691" stroke-miterlimit="10" d="M876.456,197.226
		c0.021-1.975-3.774-2.021-3.807-0.048C872.635,199.152,876.438,199.2,876.456,197.226z"/>
	<path fill="#065252" stroke="#52514B" stroke-width="0.2691" stroke-miterlimit="10" d="M895.288,267.455l0.013-0.51
		c0.006-0.806-0.856-1.582-1.894-1.56c-1.022,0.026-1.903,0.649-1.92,1.512l-0.006,0.511c-0.011,0.805,0.854,1.582,1.885,1.558
		C894.404,268.939,895.282,268.314,895.288,267.455z"/>
	<path fill="#065252" stroke="#52514B" stroke-width="0.2691" stroke-miterlimit="10" d="M940.475,144.327
		c0.021-1.973-3.778-2.021-3.81-0.045C936.648,146.256,940.452,146.304,940.475,144.327z"/>
	<path fill="#065252" stroke="#52514B" stroke-width="0.2691" stroke-miterlimit="10" d="M857.549,350.812
		c0.021-1.977-3.779-2.021-3.81-0.044C853.721,352.743,857.527,352.788,857.549,350.812z"/>
	<path fill="#9ED8F5" d="M1128.646,441.291l0.729,1.988h2.354c0.341,0,0.479,0.381,0.203,0.557l-1.903,1.229l0.729,1.986
		c0.104,0.283-0.267,0.521-0.531,0.348l-1.903-1.229l-1.907,1.229c-0.271,0.176-0.636-0.062-0.527-0.348l0.73-1.986l-1.91-1.229
		c-0.271-0.176-0.129-0.557,0.203-0.557h2.354l0.729-1.988C1128.092,441.006,1128.536,441.006,1128.646,441.291z"/>
	<path fill="#E62E7B" d="M1013.846,381.938l0.621,1.695h2.016c0.285,0,0.404,0.326,0.175,0.48l-1.631,1.053l0.622,1.701
		c0.091,0.242-0.225,0.441-0.454,0.293l-1.632-1.053l-1.627,1.053c-0.231,0.148-0.545-0.051-0.457-0.293l0.623-1.701l-1.629-1.053
		c-0.229-0.146-0.112-0.48,0.174-0.48h2.015l0.625-1.695C1013.368,381.695,1013.756,381.695,1013.846,381.938z"/>
	<path fill="#9ED8F5" d="M1025.829,391.807l0.242,0.678h0.795c0.113,0,0.158,0.127,0.063,0.188l-0.644,0.412l0.244,0.67
		c0.03,0.098-0.09,0.176-0.185,0.115l-0.642-0.414l-0.646,0.414c-0.094,0.061-0.217-0.021-0.182-0.115l0.245-0.67l-0.646-0.412
		c-0.092-0.061-0.045-0.188,0.068-0.188h0.795l0.244-0.678C1025.646,391.711,1025.799,391.711,1025.829,391.807z"/>
	<path fill="#9ED8F5" d="M920.152,307.173l2.014-0.049l0.57-1.715c0.082-0.244,0.467-0.254,0.562-0.016l0.68,1.688l2.017-0.049
		c0.282-0.011,0.412,0.312,0.188,0.471l-1.604,1.09l0.677,1.688c0.1,0.239-0.205,0.449-0.438,0.307l-1.662-1.014l-1.599,1.094
		c-0.229,0.15-0.545-0.041-0.467-0.283l0.567-1.719l-1.662-1.012C919.756,307.509,919.865,307.181,920.152,307.173z"/>
	<path fill="#9ED8F5" d="M1079.186,284.104l2.02-0.051l0.566-1.718c0.08-0.241,0.466-0.254,0.562-0.014l0.676,1.688l2.019-0.052
		c0.284-0.008,0.416,0.312,0.188,0.472l-1.6,1.094l0.674,1.686c0.1,0.238-0.209,0.447-0.441,0.307l-1.66-1.014l-1.6,1.092
		c-0.229,0.152-0.547-0.039-0.465-0.281l0.566-1.717l-1.659-1.014C1078.786,284.44,1078.898,284.11,1079.186,284.104z"/>
	<path fill="#E62E7B" d="M1099.036,255.89l0.793-0.019l0.229-0.677c0.033-0.098,0.187-0.102,0.226-0.006l0.267,0.664l0.793-0.02
		c0.112-0.003,0.166,0.124,0.073,0.188l-0.629,0.43l0.269,0.664c0.035,0.094-0.084,0.176-0.179,0.119l-0.653-0.398l-0.631,0.43
		c-0.089,0.062-0.214-0.016-0.185-0.109l0.228-0.678l-0.651-0.396C1098.883,256.022,1098.926,255.892,1099.036,255.89z"/>
	<path fill="#F5EA6A" d="M817.064,384.959l0.307,0.832h0.982c0.141,0,0.196,0.158,0.084,0.23l-0.795,0.514l0.303,0.83
		c0.045,0.117-0.104,0.217-0.222,0.145l-0.795-0.512l-0.797,0.512c-0.112,0.072-0.271-0.021-0.229-0.145l0.312-0.83l-0.797-0.514
		c-0.113-0.072-0.062-0.23,0.079-0.23h0.979l0.308-0.832C816.829,384.842,817.023,384.842,817.064,384.959z"/>
	<path fill="#F5EA6A" d="M1044.982,542.941l0.321,0.875h1.033c0.146,0,0.209,0.168,0.09,0.242l-0.838,0.533l0.313,0.875
		c0.045,0.123-0.115,0.23-0.229,0.15l-0.838-0.541l-0.841,0.541c-0.118,0.078-0.274-0.027-0.229-0.15l0.316-0.875l-0.839-0.533
		c-0.118-0.074-0.062-0.242,0.091-0.242h1.034l0.315-0.875C1044.738,542.816,1044.939,542.816,1044.982,542.941z"/>
	<path fill="#9ED8F5" d="M385.433,429.145l0.729,1.986h2.354c0.338,0,0.477,0.381,0.203,0.562l-1.906,1.229l0.729,1.988
		c0.104,0.283-0.265,0.52-0.53,0.346l-1.906-1.229l-1.906,1.229c-0.271,0.176-0.637-0.062-0.53-0.346l0.729-1.988l-1.908-1.229
		c-0.271-0.182-0.13-0.562,0.201-0.562h2.354l0.729-1.986C384.875,428.861,385.327,428.861,385.433,429.145z"/>
	<path fill="#E62E7B" d="M270.632,369.793l0.619,1.699h2.018c0.285,0,0.405,0.324,0.174,0.477l-1.63,1.057l0.623,1.695
		c0.089,0.242-0.226,0.441-0.456,0.293l-1.629-1.051l-1.627,1.051c-0.234,0.148-0.544-0.051-0.457-0.293l0.623-1.695l-1.63-1.057
		c-0.231-0.146-0.113-0.477,0.174-0.477h2.013l0.624-1.699C270.156,369.551,270.543,369.551,270.632,369.793z"/>
	<path fill="#9ED8F5" d="M282.62,379.66l0.244,0.676h0.794c0.112,0,0.158,0.127,0.067,0.188l-0.644,0.414l0.244,0.67
		c0.033,0.099-0.091,0.177-0.182,0.11l-0.644-0.414l-0.645,0.414c-0.093,0.062-0.216-0.021-0.181-0.11l0.246-0.67l-0.646-0.414
		c-0.092-0.062-0.045-0.188,0.068-0.188h0.794l0.244-0.676C282.433,379.566,282.583,379.566,282.62,379.66z"/>
	<path fill="#9ED8F5" d="M176.939,295.026l2.018-0.047l0.566-1.719c0.081-0.242,0.466-0.252,0.562-0.017l0.674,1.688l2.015-0.047
		c0.285-0.011,0.414,0.312,0.188,0.471l-1.601,1.092l0.678,1.688c0.096,0.236-0.208,0.445-0.445,0.305l-1.662-1.014l-1.598,1.094
		c-0.229,0.152-0.545-0.039-0.462-0.278l0.566-1.72l-1.662-1.014C176.542,295.364,176.651,295.034,176.939,295.026z"/>
	<path fill="#9ED8F5" d="M335.973,271.958l2.014-0.047l0.571-1.717c0.081-0.244,0.466-0.254,0.561-0.016l0.677,1.688l2.018-0.049
		c0.287-0.008,0.416,0.312,0.188,0.471l-1.599,1.092l0.674,1.688c0.102,0.236-0.209,0.445-0.44,0.308l-1.661-1.017l-1.604,1.095
		c-0.227,0.151-0.544-0.039-0.462-0.283l0.57-1.713l-1.663-1.017C335.576,272.294,335.687,271.966,335.973,271.958z"/>
	<path fill="#E62E7B" d="M355.823,243.744l0.793-0.021l0.229-0.677c0.03-0.096,0.184-0.1,0.223-0.006l0.264,0.664l0.794-0.018
		c0.114-0.005,0.165,0.124,0.075,0.186l-0.629,0.43l0.271,0.664c0.032,0.096-0.084,0.177-0.182,0.119l-0.65-0.396l-0.631,0.43
		c-0.092,0.061-0.217-0.017-0.186-0.111l0.229-0.676l-0.656-0.398C355.666,243.877,355.709,243.747,355.823,243.744z"/>
	<path fill="#F5EA6A" d="M73.853,372.814l0.306,0.828h0.982c0.14,0,0.198,0.154,0.085,0.229l-0.795,0.515l0.304,0.831
		c0.043,0.117-0.105,0.22-0.222,0.146l-0.794-0.521l-0.796,0.521c-0.114,0.071-0.271-0.023-0.227-0.146l0.308-0.831l-0.795-0.515
		c-0.114-0.072-0.059-0.229,0.083-0.229h0.979l0.308-0.828C73.622,372.697,73.811,372.697,73.853,372.814z"/>
	<path fill="#9ED8F5" d="M-32.241,423.088l0.572,1.562h1.852c0.263,0,0.373,0.299,0.159,0.438l-1.496,0.967l0.572,1.562
		c0.08,0.225-0.206,0.406-0.42,0.27l-1.497-0.967l-1.498,0.967c-0.212,0.145-0.499-0.047-0.419-0.27l0.569-1.562l-1.498-0.967
		c-0.213-0.141-0.104-0.438,0.161-0.438h1.854l0.569-1.562C-32.676,422.865-32.322,422.865-32.241,423.088z"/>
	<path fill="#9ED8F5" d="M88.636,493.783l0.88,2.4h2.844c0.405,0,0.574,0.459,0.247,0.672l-2.304,1.479l0.88,2.402
		c0.125,0.342-0.314,0.625-0.643,0.414l-2.305-1.484l-2.304,1.484c-0.327,0.211-0.768-0.072-0.642-0.414l0.879-2.402l-2.302-1.479
		c-0.327-0.213-0.158-0.672,0.243-0.672h2.848l0.879-2.4C87.965,493.439,88.508,493.439,88.636,493.783z"/>
	<path fill="#F5EA6A" d="M301.771,530.797l0.322,0.873h1.029c0.146,0,0.21,0.168,0.095,0.244l-0.842,0.541l0.317,0.875
		c0.046,0.121-0.115,0.227-0.229,0.148l-0.84-0.541l-0.84,0.541c-0.119,0.068-0.273-0.027-0.229-0.148l0.315-0.875l-0.838-0.541
		c-0.115-0.076-0.058-0.244,0.094-0.244h1.032l0.319-0.873C301.525,530.672,301.727,530.672,301.771,530.797z"/>
	<path fill="#49BDD3" d="M64.528,509.654l0.479,1.311h1.549c0.221,0,0.312,0.25,0.134,0.363l-1.253,0.809l0.479,1.312
		c0.064,0.186-0.17,0.342-0.353,0.225l-1.252-0.809l-1.253,0.809c-0.178,0.117-0.417-0.039-0.35-0.225l0.478-1.312l-1.251-0.809
		c-0.179-0.113-0.086-0.363,0.133-0.363h1.553l0.479-1.311C64.166,509.469,64.462,509.469,64.528,509.654z"/>
	<path fill="#9ED8F5" d="M1174.784,466.373l0.729,1.99h2.354c0.339,0,0.479,0.381,0.203,0.557l-1.905,1.229l0.729,1.99
		c0.104,0.277-0.266,0.52-0.53,0.344l-1.905-1.229l-1.906,1.229c-0.271,0.176-0.637-0.062-0.528-0.344l0.729-1.99l-1.908-1.229
		c-0.271-0.176-0.131-0.557,0.201-0.557h2.356l0.729-1.99C1174.232,466.09,1174.682,466.09,1174.784,466.373z"/>
	<path fill="#E62E7B" d="M1059.986,407.02l0.621,1.695h2.016c0.285,0,0.406,0.326,0.177,0.48l-1.631,1.051l0.623,1.701
		c0.088,0.242-0.226,0.438-0.457,0.293l-1.63-1.051l-1.627,1.051c-0.229,0.146-0.543-0.051-0.457-0.293l0.623-1.701l-1.629-1.051
		c-0.229-0.15-0.112-0.48,0.174-0.48h2.019l0.623-1.695C1059.512,406.777,1059.896,406.777,1059.986,407.02z"/>
	<path fill="#9ED8F5" d="M1071.975,416.889l0.246,0.678h0.793c0.106,0,0.154,0.129,0.062,0.188l-0.644,0.414l0.246,0.67
		c0.032,0.098-0.09,0.176-0.187,0.115l-0.644-0.414l-0.644,0.414c-0.096,0.061-0.219-0.021-0.186-0.115l0.245-0.67l-0.646-0.414
		c-0.096-0.061-0.045-0.188,0.062-0.188h0.795l0.244-0.678C1071.786,416.795,1071.941,416.795,1071.975,416.889z"/>
	<path fill="#9ED8F5" d="M966.288,332.255l2.021-0.047l0.564-1.717c0.081-0.244,0.471-0.253,0.562-0.015l0.674,1.687l2.019-0.048
		c0.282-0.007,0.412,0.312,0.188,0.47l-1.599,1.09l0.674,1.688c0.099,0.232-0.207,0.445-0.442,0.303l-1.662-1.012l-1.601,1.092
		c-0.229,0.154-0.545-0.04-0.461-0.283l0.563-1.716l-1.655-1.011C965.896,332.591,966.006,332.263,966.288,332.255z"/>
	<path fill="#9ED8F5" d="M1125.325,309.188l2.021-0.055l0.563-1.715c0.082-0.244,0.468-0.252,0.562-0.014l0.675,1.686l2.016-0.049
		c0.287-0.007,0.416,0.316,0.188,0.471l-1.604,1.097l0.681,1.687c0.096,0.238-0.209,0.447-0.444,0.303l-1.66-1.012l-1.599,1.092
		c-0.229,0.153-0.545-0.039-0.463-0.277l0.563-1.723l-1.662-1.01C1124.93,309.522,1125.036,309.194,1125.325,309.188z"/>
	<path fill="#E62E7B" d="M1145.178,280.974l0.793-0.02l0.228-0.677c0.03-0.099,0.185-0.103,0.224-0.005l0.271,0.664l0.793-0.021
		c0.112-0.002,0.166,0.125,0.076,0.188l-0.632,0.432l0.271,0.664c0.035,0.095-0.084,0.177-0.178,0.119l-0.654-0.397l-0.631,0.433
		c-0.088,0.062-0.213-0.019-0.188-0.109l0.229-0.678l-0.656-0.397C1145.021,281.104,1145.066,280.976,1145.178,280.974z"/>
	<path fill="#F5EA6A" d="M863.202,410.043l0.31,0.83h0.979c0.146,0,0.197,0.16,0.084,0.232l-0.795,0.514l0.308,0.83
		c0.043,0.117-0.104,0.215-0.226,0.145l-0.793-0.514l-0.797,0.514c-0.113,0.07-0.269-0.021-0.226-0.145l0.308-0.83l-0.797-0.514
		c-0.113-0.072-0.061-0.232,0.081-0.232h0.979l0.31-0.83C862.975,409.926,863.161,409.926,863.202,410.043z"/>
	<path fill="#9ED8F5" d="M877.99,531.012l0.879,2.402h2.845c0.405,0,0.573,0.459,0.248,0.67l-2.306,1.484l0.881,2.396
		c0.125,0.347-0.312,0.625-0.646,0.414l-2.301-1.479l-2.31,1.479c-0.328,0.211-0.771-0.067-0.646-0.414l0.879-2.396l-2.301-1.484
		c-0.328-0.211-0.158-0.67,0.243-0.67h2.847l0.879-2.402C877.32,530.668,877.863,530.668,877.99,531.012z"/>
	<path fill="#F5EA6A" d="M1091.12,568.025l0.322,0.873h1.03c0.146,0,0.209,0.168,0.091,0.242l-0.839,0.541l0.32,0.875
		c0.045,0.117-0.117,0.229-0.234,0.146l-0.836-0.541l-0.838,0.541c-0.121,0.076-0.279-0.025-0.233-0.146l0.319-0.875l-0.838-0.541
		c-0.117-0.074-0.062-0.242,0.09-0.242h1.037l0.315-0.873C1090.879,567.9,1091.077,567.9,1091.12,568.025z"/>
	<path fill="#49BDD3" d="M853.883,546.883l0.479,1.312h1.551c0.226,0,0.312,0.25,0.134,0.357l-1.252,0.812l0.479,1.311
		c0.062,0.189-0.17,0.345-0.354,0.229l-1.253-0.812l-1.254,0.812c-0.178,0.114-0.416-0.039-0.353-0.229l0.479-1.311l-1.252-0.812
		c-0.18-0.107-0.086-0.357,0.14-0.357h1.549l0.479-1.312C853.52,546.697,853.818,546.697,853.883,546.883z"/>
</g>
<g>
	<g id="Mars_2_">
		<circle fill="#FF4F54" cx="349.019" cy="87.089" r="26.725"/>
		<g>
			<path fill="#EA4753" d="M322.814,92.373c7.601,0.255,28.229-0.467,51.73-13.191c-0.912-2.939-2.326-5.697-4.168-8.15
				c-7.636,5.253-25.093,14.999-47.979,13.631C322.159,87.284,322.311,89.877,322.814,92.373z"/>
			<path fill="#EA4753" d="M374.886,93.807c0.71-2.736,0.968-5.482,0.823-8.163c-6.031,4.523-24.525,16.509-49.622,15.169
				c1.162,1.944,2.57,3.741,4.194,5.341c7.928,0.051,24.604-1.152,43.949-10.218C374.477,95.242,374.697,94.533,374.886,93.807z"/>
			<path fill="#EA4753" d="M347.141,113.751c6.331,0.454,12.476-1.385,17.435-4.93C359.573,110.882,353.709,112.71,347.141,113.751z
				"/>
			<path fill="#EA4753" d="M365.465,66.018c-2.796-2.185-6.073-3.844-9.729-4.795c-12.847-3.335-25.938,3.263-31.142,15.015
				C333.353,75.937,348.377,74.046,365.465,66.018z"/>
		</g>
		<circle fill="#D83A4E" cx="360.308" cy="78.526" r="5.073"/>
		<g opacity="0.1">
			<path d="M362.467,75.204c1.078,0.28,1.984,0.888,2.644,1.688c-0.528-1.56-1.812-2.83-3.524-3.276
				c-2.71-0.702-5.479,0.923-6.188,3.636c-0.423,1.633-0.001,3.286,0.992,4.499c-0.312-0.907-0.366-1.912-0.105-2.909
				C356.983,76.127,359.755,74.5,362.467,75.204z"/>
		</g>
		<circle fill="#D83A4E" cx="345.17" cy="90.302" r="3.46"/>
		<g opacity="0.1">
			<path d="M346.643,88.038c0.734,0.191,1.354,0.605,1.804,1.151c-0.36-1.062-1.233-1.931-2.403-2.233
				c-1.854-0.481-3.736,0.629-4.219,2.478c-0.289,1.114-0.003,2.24,0.677,3.066c-0.21-0.617-0.25-1.302-0.071-1.983
				C342.904,88.667,344.793,87.556,346.643,88.038z"/>
		</g>
		<circle fill="#D83A4E" cx="358.222" cy="67.11" r="2.249"/>
		<g opacity="0.1">
			<path d="M359.179,65.638c0.479,0.124,0.881,0.393,1.172,0.748c-0.233-0.691-0.806-1.256-1.562-1.452
				c-1.201-0.312-2.433,0.408-2.741,1.61c-0.188,0.725,0,1.457,0.438,1.994c-0.136-0.403-0.16-0.849-0.048-1.289
				C356.748,66.048,357.977,65.326,359.179,65.638z"/>
		</g>
		<circle fill="#D83A4E" cx="332.448" cy="86.999" r="3.459"/>
		<g opacity="0.1">
			<path d="M333.924,84.734c0.734,0.191,1.354,0.606,1.803,1.151c-0.363-1.062-1.233-1.93-2.406-2.232
				c-1.849-0.481-3.734,0.628-4.218,2.477c-0.29,1.115-0.001,2.24,0.676,3.067c-0.21-0.618-0.25-1.303-0.069-1.982
				C330.185,85.364,332.073,84.253,333.924,84.734z"/>
		</g>
		<circle fill="#D83A4E" cx="344.477" cy="106.733" r="3.46"/>
		<g opacity="0.1">
			<path d="M345.948,104.469c0.733,0.192,1.354,0.604,1.803,1.152c-0.361-1.064-1.234-1.931-2.403-2.235
				c-1.853-0.479-3.738,0.63-4.22,2.479c-0.29,1.113-0.001,2.241,0.678,3.066c-0.211-0.617-0.25-1.303-0.073-1.983
				C342.212,105.098,344.101,103.989,345.948,104.469z"/>
		</g>
		<circle fill="#D83A4E" cx="357.279" cy="104.565" r="3.46"/>
		<g opacity="0.1">
			<path d="M358.752,102.3c0.733,0.19,1.354,0.605,1.805,1.151c-0.363-1.062-1.236-1.931-2.406-2.234
				c-1.85-0.479-3.734,0.63-4.218,2.479c-0.289,1.113-0.001,2.239,0.675,3.067c-0.211-0.619-0.25-1.304-0.07-1.983
				C355.015,102.929,356.9,101.819,358.752,102.3z"/>
		</g>
		<circle fill="#D83A4E" cx="367.394" cy="92.245" r="1.98"/>
		<g opacity="0.1">
			<path d="M368.238,90.949c0.421,0.108,0.772,0.346,1.029,0.659c-0.208-0.61-0.706-1.104-1.376-1.279
				c-1.062-0.274-2.141,0.361-2.413,1.418c-0.166,0.637-0.001,1.284,0.39,1.755c-0.121-0.354-0.146-0.744-0.042-1.135
				C366.099,91.309,367.181,90.674,368.238,90.949z"/>
		</g>
		<circle fill="#D83A4E" cx="342.668" cy="69.292" r="1.98"/>
		<g opacity="0.1">
			<path d="M343.511,67.996c0.421,0.109,0.772,0.347,1.028,0.659c-0.208-0.608-0.707-1.104-1.376-1.278
				c-1.062-0.275-2.142,0.361-2.414,1.419c-0.165,0.64-0.001,1.283,0.39,1.753c-0.121-0.352-0.146-0.743-0.042-1.133
				C341.37,68.357,342.451,67.721,343.511,67.996z"/>
		</g>
		<circle fill="#D83A4E" cx="330.794" cy="72.031" r="1.04"/>
		<g opacity="0.1">
			<path d="M331.234,71.351c0.224,0.058,0.407,0.183,0.545,0.345c-0.108-0.319-0.372-0.582-0.728-0.673
				c-0.559-0.144-1.124,0.19-1.271,0.744c-0.087,0.336,0,0.675,0.203,0.922c-0.062-0.187-0.075-0.392-0.021-0.596
				C330.113,71.541,330.683,71.207,331.234,71.351z"/>
		</g>
		<circle fill="#D83A4E" cx="373.215" cy="86.251" r="1.04"/>
		<g opacity="0.1">
			<path d="M373.656,85.57c0.222,0.058,0.404,0.182,0.542,0.344c-0.108-0.318-0.372-0.58-0.726-0.672
				c-0.559-0.145-1.124,0.191-1.271,0.746c-0.087,0.334,0,0.674,0.202,0.92c-0.062-0.187-0.074-0.391-0.021-0.594
				C372.532,85.759,373.102,85.425,373.656,85.57z"/>
		</g>
		<circle fill="#D83A4E" cx="329.195" cy="95.395" r="1.04"/>
		<g opacity="0.1">
			<path d="M329.638,94.713c0.221,0.059,0.405,0.183,0.542,0.347c-0.109-0.32-0.372-0.582-0.726-0.674
				c-0.559-0.143-1.124,0.191-1.271,0.746c-0.087,0.336,0,0.675,0.203,0.922c-0.062-0.188-0.075-0.396-0.021-0.596
				C328.515,94.903,329.08,94.569,329.638,94.713z"/>
		</g>
		<circle fill="#D83A4E" cx="336.747" cy="104.83" r="1.04"/>
		<g opacity="0.1">
			<path d="M337.188,104.149c0.224,0.057,0.407,0.182,0.542,0.345c-0.106-0.318-0.372-0.581-0.723-0.672
				c-0.559-0.146-1.123,0.188-1.271,0.745c-0.088,0.335,0,0.673,0.201,0.921c-0.062-0.188-0.073-0.393-0.021-0.596
				C336.065,104.337,336.636,104.005,337.188,104.149z"/>
		</g>
		<path opacity="0.1" enable-background="new    " d="M366.061,66.5c1.831,4.945,2.224,10.479,0.795,15.971
			c-3.71,14.288-18.298,22.859-32.583,19.149c-3.917-1.017-7.4-2.853-10.323-5.275c2.933,7.921,9.562,14.327,18.354,16.612
			c14.286,3.71,28.874-4.864,32.584-19.149C377.577,83.438,373.799,72.911,366.061,66.5z"/>
	</g>
	<g id="Star_2_">
		<g>
			<path fill="#FFFFFF" d="M298.969,118.668c-0.014,1.684-1.646,3.036-3.652,3.023c2.01,0.014,3.621,1.392,3.609,3.075
				c0.011-1.686,1.646-3.037,3.65-3.023C300.572,121.729,298.957,120.351,298.969,118.668z"/>
		</g>
		<g>
			<path fill="#FFFFFF" d="M380.508,99.88c-0.014,1.684-1.646,3.038-3.651,3.024c2.006,0.015,3.621,1.391,3.608,3.073
				c0.013-1.684,1.646-3.038,3.65-3.023C382.109,102.94,380.495,101.564,380.508,99.88z"/>
		</g>
		<g>
			<path fill="#FFFFFF" d="M310.936,53.436c-0.022,3.54-3.463,6.386-7.681,6.355c4.218,0.03,7.611,2.925,7.589,6.467
				c0.022-3.542,3.463-6.388,7.678-6.357C314.308,59.871,310.909,56.976,310.936,53.436z"/>
		</g>
	</g>
</g>
<g id="Saturn_3_">
	<g id="Saturn_4_">
		<circle fill="#F4C18A" cx="1016.465" cy="146.309" r="29.632"/>
		<g>
			<path fill="#EFB576" d="M1006.025,141.877c0,0,16.926,3.368,36.8-9.1c-1.574-3.067-3.681-5.848-6.215-8.201
				C1031.559,130.433,1022.45,137.066,1006.025,141.877z"/>
			<path fill="#E8B276" d="M1043.991,157.284c-17.21,9.199-34.754,11.744-45.84,12.327c0.778,0.613,1.591,1.188,2.435,1.724
				c6.69,0.206,18.329-0.343,28.084-5.461c0,0-5.455,7.044-19.215,9.225c0.749,0.183,1.508,0.337,2.274,0.459
				c2.229,0.36,4.44,0.463,6.604,0.327c2.95-0.806,5.905-1.899,8.706-3.366c0,0-0.734,0.949-2.348,2.26
				C1033.355,172.271,1040.579,165.869,1043.991,157.284z"/>
			<path fill="#FEE3C5" d="M1021.193,117.057c-12.81-2.069-25.026,4.401-30.842,15.225c11.256-2.691,26.504-6.957,39.008-12.659
				C1026.836,118.406,1024.098,117.525,1021.193,117.057z"/>
			<path fill="#EFB576" d="M1024.479,146.61c-8.89,5.125-24.902,7.05-36.535,7.77c0.345,1.216,0.77,2.408,1.269,3.563
				C1013.797,155.495,1024.479,146.61,1024.479,146.61z"/>
			<path fill="#FEC689" d="M1045.991,143.807c-10.26,6.93-31,18.416-54.957,17.717c1.238,2.07,2.728,3.982,4.427,5.688
				c0.845,0.85,1.738,1.648,2.688,2.396c11.084-0.582,28.63-3.129,45.84-12.327c0.41-1.029,0.766-2.091,1.062-3.18
				c0.271-0.998,0.492-2.021,0.664-3.064C1046.112,148.594,1046.193,146.17,1045.991,143.807z"/>
			<path fill="#FEC689" d="M1028.672,165.874c-9.756,5.118-21.398,5.665-28.083,5.462c2.674,1.698,5.65,2.987,8.868,3.764
				C1023.217,172.919,1028.672,165.874,1028.672,165.874z"/>
			<path fill="#F4C18A" d="M1018.334,175.888c2.181-0.137,4.311-0.513,6.357-1.107c1.61-1.312,2.35-2.26,2.35-2.26
				C1024.24,173.988,1021.281,175.081,1018.334,175.888z"/>
			<path fill="#EFB576" d="M1035.534,140.138c0,0,4.583-0.129,9.368-2.176c-0.254-0.852-0.542-1.687-0.863-2.508
				C1041.526,137.167,1038.584,138.902,1035.534,140.138z"/>
		</g>
		<g>
			<path fill="#C18448" d="M1066.463,136.043c-0.655-3.187-9.957-4.206-23.576-3.142c0.501,0.987,0.949,2.001,1.338,3.042
				c5.772,0.076,9.426,0.953,9.771,2.659c0.351,1.703-2.659,3.95-7.934,6.293c-6.575,2.919-16.673,5.991-28.177,8.352
				c-11.504,2.361-21.995,3.519-29.188,3.425c-5.771-0.076-9.422-0.952-9.771-2.658c-0.35-1.708,2.66-3.953,7.935-6.296
				c-0.052-1.096-0.042-2.205,0.03-3.321c-12.937,4.386-21.084,8.988-20.426,12.176c0.657,3.188,9.956,4.207,23.575,3.145
				c8.191-0.642,17.946-2.036,28.322-4.166c10.375-2.13,19.893-4.692,27.671-7.333
				C1058.97,143.833,1067.116,139.23,1066.463,136.043z"/>
		</g>
	</g>
	<g id="Star_1_">
		<g>
			<path fill="#FFFFFF" d="M999.895,107.552c-1.789-0.476-2.854-2.311-2.377-4.098c-0.477,1.788-2.312,2.851-4.102,2.374
				c1.789,0.477,2.854,2.312,2.378,4.099C996.271,108.141,998.109,107.077,999.895,107.552z"/>
		</g>
		<g>
			<path fill="#FFFFFF" d="M1001.135,185.616c-1.79-0.477-2.853-2.312-2.375-4.101c-0.478,1.788-2.312,2.853-4.104,2.376
				c1.79,0.477,2.854,2.312,2.38,4.099C997.512,186.204,999.347,185.14,1001.135,185.616z"/>
		</g>
		<g>
			<path fill="#FFFFFF" d="M1054.305,174.72c-1.789-0.477-2.854-2.312-2.376-4.102c-0.478,1.791-2.312,2.854-4.103,2.377
				c1.791,0.477,2.854,2.311,2.379,4.1C1050.678,175.306,1052.516,174.244,1054.305,174.72z"/>
		</g>
	</g>
</g>
<g>
	<g>
		<g>
			
				<radialGradient id="SVGID_2_" cx="-508.2566" cy="826.0137" r="216.9682" gradientTransform="matrix(0.8048 0 0 -0.7906 529.4528 782.8773)" gradientUnits="userSpaceOnUse">
				<stop  offset="0" style="stop-color:#F18129;stop-opacity:0.992"/>
				<stop  offset="0.1852" style="stop-color:#F17D27;stop-opacity:0.8148"/>
				<stop  offset="1" style="stop-color:#F25A22;stop-opacity:0"/>
			</radialGradient>
			<path fill="url(#SVGID_2_)" d="M105.325,299.516C8.596,291.217-63.068,208.522-54.737,114.807
				c8.332-93.713,93.5-162.959,190.229-154.663c96.73,8.296,168.392,90.995,160.061,184.706
				C287.224,238.566,202.054,307.812,105.325,299.516z"/>
		</g>
	</g>
	
		<linearGradient id="SVGID_3_" gradientUnits="userSpaceOnUse" x1="-477.3318" y1="720.3184" x2="-247.8533" y2="720.3184" gradientTransform="matrix(1 0 0 -1 479.6406 853.0547)">
		<stop  offset="0" style="stop-color:#FF8200"/>
		<stop  offset="1" style="stop-color:#FFDC3A"/>
	</linearGradient>
	<ellipse opacity="0.1" fill="url(#SVGID_3_)" enable-background="new    " cx="117.048" cy="132.737" rx="114.739" ry="112.707"/>
	
		<linearGradient id="SVGID_4_" gradientUnits="userSpaceOnUse" x1="-460.9451" y1="715.4902" x2="-254.4128" y2="715.4902" gradientTransform="matrix(1 0 0 -1 479.6406 853.0547)">
		<stop  offset="0" style="stop-color:#FF8200"/>
		<stop  offset="1" style="stop-color:#FFDC3A"/>
	</linearGradient>
	<ellipse opacity="0.1" fill="url(#SVGID_4_)" enable-background="new    " cx="121.962" cy="137.564" rx="103.266" ry="101.438"/>
	
		<linearGradient id="SVGID_5_" gradientUnits="userSpaceOnUse" x1="-462.9099" y1="719.8359" x2="-256.3777" y2="719.8359" gradientTransform="matrix(1 0 0 -1 479.6406 853.0547)">
		<stop  offset="0" style="stop-color:#FF8200"/>
		<stop  offset="1" style="stop-color:#FFDC3A"/>
	</linearGradient>
	<ellipse opacity="0.1" fill="url(#SVGID_5_)" enable-background="new    " cx="119.997" cy="133.219" rx="103.266" ry="101.436"/>
	
		<linearGradient id="SVGID_6_" gradientUnits="userSpaceOnUse" x1="-458.2751" y1="725.8457" x2="-251.7419" y2="725.8457" gradientTransform="matrix(1 0 0 -1 479.6406 853.0547)">
		<stop  offset="0" style="stop-color:#FF8200"/>
		<stop  offset="1" style="stop-color:#FFDC3A"/>
	</linearGradient>
	<ellipse opacity="0.1" fill="url(#SVGID_6_)" enable-background="new    " cx="124.632" cy="127.209" rx="103.267" ry="101.438"/>
	
		<linearGradient id="SVGID_7_" gradientUnits="userSpaceOnUse" x1="-462.9099" y1="719.8359" x2="-256.3777" y2="719.8359" gradientTransform="matrix(1 0 0 -1 479.6406 853.0547)">
		<stop  offset="0" style="stop-color:#FF8200"/>
		<stop  offset="1" style="stop-color:#FFDC3A"/>
	</linearGradient>
	<ellipse opacity="0.1" fill="url(#SVGID_7_)" enable-background="new    " cx="119.997" cy="133.219" rx="103.266" ry="101.436"/>
	
		<linearGradient id="SVGID_8_" gradientUnits="userSpaceOnUse" x1="-453.0818" y1="719.8359" x2="-246.5496" y2="719.8359" gradientTransform="matrix(1 0 0 -1 479.6406 853.0547)">
		<stop  offset="0" style="stop-color:#FF8200"/>
		<stop  offset="1" style="stop-color:#FFDC3A"/>
	</linearGradient>
	<ellipse opacity="0.1" fill="url(#SVGID_8_)" enable-background="new    " cx="129.825" cy="133.219" rx="103.266" ry="101.436"/>
	
		<linearGradient id="SVGID_9_" gradientUnits="userSpaceOnUse" x1="-448.1697" y1="723.2148" x2="-297.6541" y2="723.2148" gradientTransform="matrix(1 0 0 -1 479.6406 853.0547)">
		<stop  offset="0" style="stop-color:#FF8200"/>
		<stop  offset="1" style="stop-color:#FFDC3A"/>
	</linearGradient>
	<ellipse opacity="0.1" fill="url(#SVGID_9_)" enable-background="new    " cx="106.729" cy="129.84" rx="75.258" ry="73.925"/>
	
		<linearGradient id="SVGID_10_" gradientUnits="userSpaceOnUse" x1="-443.2537" y1="723.2148" x2="-292.7419" y2="723.2148" gradientTransform="matrix(1 0 0 -1 479.6406 853.0547)">
		<stop  offset="0" style="stop-color:#FF8200"/>
		<stop  offset="1" style="stop-color:#FFDC3A"/>
	</linearGradient>
	<ellipse opacity="0.1" fill="url(#SVGID_10_)" enable-background="new    " cx="111.643" cy="129.84" rx="75.256" ry="73.925"/>
	
		<linearGradient id="SVGID_11_" gradientUnits="userSpaceOnUse" x1="-441.2175" y1="737.4219" x2="-290.7039" y2="737.4219" gradientTransform="matrix(1 0 0 -1 479.6406 853.0547)">
		<stop  offset="0" style="stop-color:#FF8200"/>
		<stop  offset="1" style="stop-color:#FFDC3A"/>
	</linearGradient>
	<ellipse opacity="0.1" fill="url(#SVGID_11_)" enable-background="new    " cx="113.68" cy="115.633" rx="75.257" ry="73.923"/>
	
		<linearGradient id="SVGID_12_" gradientUnits="userSpaceOnUse" x1="-428.5134" y1="703.9053" x2="-277.9998" y2="703.9053" gradientTransform="matrix(1 0 0 -1 479.6406 853.0547)">
		<stop  offset="0" style="stop-color:#FF8200"/>
		<stop  offset="1" style="stop-color:#FFDC3A"/>
	</linearGradient>
	<ellipse opacity="0.1" fill="url(#SVGID_12_)" enable-background="new    " cx="126.384" cy="149.149" rx="75.257" ry="73.923"/>
	
		<linearGradient id="SVGID_13_" gradientUnits="userSpaceOnUse" x1="-433.4265" y1="703.9053" x2="-282.9128" y2="703.9053" gradientTransform="matrix(1 0 0 -1 479.6406 853.0547)">
		<stop  offset="0" style="stop-color:#FF8200"/>
		<stop  offset="1" style="stop-color:#FFDC3A"/>
	</linearGradient>
	<ellipse opacity="0.1" fill="url(#SVGID_13_)" enable-background="new    " cx="121.471" cy="149.149" rx="75.257" ry="73.923"/>
	
		<linearGradient id="SVGID_14_" gradientUnits="userSpaceOnUse" x1="-428.5134" y1="730.4521" x2="-312.3914" y2="730.4521" gradientTransform="matrix(1 0 0 -1 479.6406 853.0547)">
		<stop  offset="0" style="stop-color:#FF8200"/>
		<stop  offset="1" style="stop-color:#FFDC3A"/>
	</linearGradient>
	<ellipse opacity="0.1" fill="url(#SVGID_14_)" enable-background="new    " cx="109.188" cy="122.603" rx="58.062" ry="57.032"/>
	
		<linearGradient id="SVGID_15_" gradientUnits="userSpaceOnUse" x1="-418.6843" y1="706.3164" x2="-302.5642" y2="706.3164" gradientTransform="matrix(1 0 0 -1 479.6406 853.0547)">
		<stop  offset="0" style="stop-color:#FF8200"/>
		<stop  offset="1" style="stop-color:#FFDC3A"/>
	</linearGradient>
	<ellipse opacity="0.1" fill="url(#SVGID_15_)" enable-background="new    " cx="119.016" cy="146.738" rx="58.061" ry="57.032"/>
	
		<linearGradient id="SVGID_16_" gradientUnits="userSpaceOnUse" x1="-413.7712" y1="706.3164" x2="-297.6492" y2="706.3164" gradientTransform="matrix(1 0 0 -1 479.6406 853.0547)">
		<stop  offset="0" style="stop-color:#FF8200"/>
		<stop  offset="1" style="stop-color:#FFDC3A"/>
	</linearGradient>
	<ellipse opacity="0.1" fill="url(#SVGID_16_)" enable-background="new    " cx="123.93" cy="146.738" rx="58.062" ry="57.032"/>
	
		<linearGradient id="SVGID_17_" gradientUnits="userSpaceOnUse" x1="-413.7712" y1="711.1445" x2="-297.6492" y2="711.1445" gradientTransform="matrix(1 0 0 -1 479.6406 853.0547)">
		<stop  offset="0" style="stop-color:#FF8200"/>
		<stop  offset="1" style="stop-color:#FFDC3A"/>
	</linearGradient>
	<ellipse opacity="0.1" fill="url(#SVGID_17_)" enable-background="new    " cx="123.93" cy="141.91" rx="58.062" ry="57.033"/>
	
		<linearGradient id="SVGID_18_" gradientUnits="userSpaceOnUse" x1="-408.8572" y1="715.9717" x2="-292.7361" y2="715.9717" gradientTransform="matrix(1 0 0 -1 479.6406 853.0547)">
		<stop  offset="0" style="stop-color:#FF8200"/>
		<stop  offset="1" style="stop-color:#FFDC3A"/>
	</linearGradient>
	<ellipse opacity="0.1" fill="url(#SVGID_18_)" enable-background="new    " cx="128.844" cy="137.083" rx="58.061" ry="57.032"/>
	
		<linearGradient id="SVGID_19_" gradientUnits="userSpaceOnUse" x1="-403.9451" y1="696.6641" x2="-287.823" y2="696.6641" gradientTransform="matrix(1 0 0 -1 479.6406 853.0547)">
		<stop  offset="0" style="stop-color:#FF8200"/>
		<stop  offset="1" style="stop-color:#FFDC3A"/>
	</linearGradient>
	<ellipse opacity="0.1" fill="url(#SVGID_19_)" enable-background="new    " cx="133.757" cy="156.39" rx="58.061" ry="57.033"/>
	
		<linearGradient id="SVGID_20_" gradientUnits="userSpaceOnUse" x1="-384.2878" y1="715.9717" x2="-268.1677" y2="715.9717" gradientTransform="matrix(1 0 0 -1 479.6406 853.0547)">
		<stop  offset="0" style="stop-color:#FF8200"/>
		<stop  offset="1" style="stop-color:#FFDC3A"/>
	</linearGradient>
	<ellipse opacity="0.1" fill="url(#SVGID_20_)" enable-background="new    " cx="153.413" cy="137.083" rx="58.06" ry="57.032"/>
	
		<linearGradient id="SVGID_21_" gradientUnits="userSpaceOnUse" x1="-408.8572" y1="712.1104" x2="-334.0134" y2="712.1104" gradientTransform="matrix(1 0 0 -1 479.6406 853.0547)">
		<stop  offset="0" style="stop-color:#FF8200"/>
		<stop  offset="1" style="stop-color:#FFDC3A"/>
	</linearGradient>
	<ellipse opacity="0.1" fill="url(#SVGID_21_)" enable-background="new    " cx="108.205" cy="140.944" rx="37.422" ry="36.759"/>
	
		<linearGradient id="SVGID_22_" gradientUnits="userSpaceOnUse" x1="-418.6853" y1="678.3223" x2="-343.8416" y2="678.3223" gradientTransform="matrix(1 0 0 -1 479.6406 853.0547)">
		<stop  offset="0" style="stop-color:#FF8200"/>
		<stop  offset="1" style="stop-color:#FFDC3A"/>
	</linearGradient>
	<ellipse opacity="0.1" fill="url(#SVGID_22_)" enable-background="new    " cx="98.377" cy="174.732" rx="37.422" ry="36.761"/>
	
		<linearGradient id="SVGID_23_" gradientUnits="userSpaceOnUse" x1="-389.2019" y1="731.418" x2="-314.3572" y2="731.418" gradientTransform="matrix(1 0 0 -1 479.6406 853.0547)">
		<stop  offset="0" style="stop-color:#FF8200"/>
		<stop  offset="1" style="stop-color:#FFDC3A"/>
	</linearGradient>
	<ellipse opacity="0.1" fill="url(#SVGID_23_)" enable-background="new    " cx="127.861" cy="121.637" rx="37.423" ry="36.76"/>
	
		<linearGradient id="SVGID_24_" gradientUnits="userSpaceOnUse" x1="-384.2878" y1="736.2451" x2="-309.4441" y2="736.2451" gradientTransform="matrix(1 0 0 -1 479.6406 853.0547)">
		<stop  offset="0" style="stop-color:#FF8200"/>
		<stop  offset="1" style="stop-color:#FFDC3A"/>
	</linearGradient>
	<ellipse opacity="0.1" fill="url(#SVGID_24_)" enable-background="new    " cx="132.775" cy="116.81" rx="37.422" ry="36.759"/>
	
		<linearGradient id="SVGID_25_" gradientUnits="userSpaceOnUse" x1="-384.2878" y1="726.5908" x2="-309.4441" y2="726.5908" gradientTransform="matrix(1 0 0 -1 479.6406 853.0547)">
		<stop  offset="0" style="stop-color:#FF8200"/>
		<stop  offset="1" style="stop-color:#FFDC3A"/>
	</linearGradient>
	<ellipse opacity="0.1" fill="url(#SVGID_25_)" enable-background="new    " cx="132.775" cy="126.464" rx="37.422" ry="36.759"/>
	
		<linearGradient id="SVGID_26_" gradientUnits="userSpaceOnUse" x1="-384.2878" y1="716.9375" x2="-309.4441" y2="716.9375" gradientTransform="matrix(1 0 0 -1 479.6406 853.0547)">
		<stop  offset="0" style="stop-color:#FF8200"/>
		<stop  offset="1" style="stop-color:#FFDC3A"/>
	</linearGradient>
	<ellipse opacity="0.1" fill="url(#SVGID_26_)" enable-background="new    " cx="132.775" cy="136.117" rx="37.422" ry="36.759"/>
	
		<linearGradient id="SVGID_27_" gradientUnits="userSpaceOnUse" x1="-389.2019" y1="716.9375" x2="-314.3572" y2="716.9375" gradientTransform="matrix(1 0 0 -1 479.6406 853.0547)">
		<stop  offset="0" style="stop-color:#FF8200"/>
		<stop  offset="1" style="stop-color:#FFDC3A"/>
	</linearGradient>
	<ellipse opacity="0.1" fill="url(#SVGID_27_)" enable-background="new    " cx="127.861" cy="136.117" rx="37.423" ry="36.759"/>
	
		<linearGradient id="SVGID_28_" gradientUnits="userSpaceOnUse" x1="-384.2878" y1="716.9375" x2="-309.4441" y2="716.9375" gradientTransform="matrix(1 0 0 -1 479.6406 853.0547)">
		<stop  offset="0" style="stop-color:#FF8200"/>
		<stop  offset="1" style="stop-color:#FFDC3A"/>
	</linearGradient>
	<ellipse opacity="0.1" fill="url(#SVGID_28_)" enable-background="new    " cx="132.775" cy="136.117" rx="37.422" ry="36.759"/>
	
		<linearGradient id="SVGID_29_" gradientUnits="userSpaceOnUse" x1="-381.5046" y1="713.3877" x2="-306.6628" y2="713.3877" gradientTransform="matrix(1 0 0 -1 479.6406 853.0547)">
		<stop  offset="0" style="stop-color:#FF8200"/>
		<stop  offset="1" style="stop-color:#FFDC3A"/>
	</linearGradient>
	<ellipse opacity="0.1" fill="url(#SVGID_29_)" enable-background="new    " cx="135.557" cy="139.667" rx="37.421" ry="36.76"/>
	
		<linearGradient id="SVGID_30_" gradientUnits="userSpaceOnUse" x1="-384.2878" y1="720.9072" x2="-327.3552" y2="720.9072" gradientTransform="matrix(1 0 0 -1 479.6406 853.0547)">
		<stop  offset="0" style="stop-color:#FF8200"/>
		<stop  offset="1" style="stop-color:#FFDC3A"/>
	</linearGradient>
	<ellipse opacity="0.1" fill="url(#SVGID_30_)" enable-background="new    " cx="123.819" cy="132.147" rx="28.467" ry="27.962"/>
	
		<linearGradient id="SVGID_31_" gradientUnits="userSpaceOnUse" x1="-381.9255" y1="721.3457" x2="-324.9939" y2="721.3457" gradientTransform="matrix(1 0 0 -1 479.6406 853.0547)">
		<stop  offset="0" style="stop-color:#FF8200"/>
		<stop  offset="1" style="stop-color:#FFDC3A"/>
	</linearGradient>
	<ellipse opacity="0.1" fill="url(#SVGID_31_)" enable-background="new    " cx="126.181" cy="131.709" rx="28.466" ry="27.962"/>
	
		<linearGradient id="SVGID_32_" gradientUnits="userSpaceOnUse" x1="-408.8562" y1="749.8691" x2="-351.9246" y2="749.8691" gradientTransform="matrix(1 0 0 -1 479.6406 853.0547)">
		<stop  offset="0" style="stop-color:#FF8200"/>
		<stop  offset="1" style="stop-color:#FFDC3A"/>
	</linearGradient>
	<ellipse opacity="0.1" fill="url(#SVGID_32_)" enable-background="new    " cx="99.25" cy="103.186" rx="28.466" ry="27.961"/>
</g>
<g>
	
		<radialGradient id="SVGID_33_" cx="4319.7207" cy="-2586.9937" r="78.8872" gradientTransform="matrix(-0.0774 0.997 0.997 0.0774 4104.3145 -4027.6431)" gradientUnits="userSpaceOnUse">
		<stop  offset="0" style="stop-color:#FFFFFF"/>
		<stop  offset="1" style="stop-color:#FFFFFF;stop-opacity:0"/>
	</radialGradient>
	<circle fill="url(#SVGID_33_)" cx="1190.735" cy="78.884" r="78.884"/>
	<g>
		<circle fill="#DFE0E1" cx="1194.906" cy="77.754" r="56.375"/>
		<path fill="#F5F5F6" d="M1173.525,26.915c3.106-1.86,6.779-2.756,10.312-3.388c2.45-0.439,4.933-0.734,7.418-0.9
			c0.011-0.046,0.04-0.089,0.101-0.107c1.364-0.43,2.837-0.419,4.25-0.515c0.914-0.062,1.972-0.117,2.896-0.432
			c-1.545-0.126-3.102-0.194-4.677-0.194c-2.388,0-4.741,0.15-7.05,0.438c-0.172,0.042-0.34,0.085-0.51,0.127
			c-4.188,1.041-8.421,2.118-12.396,3.833c-4.059,1.75-7.296,4.663-10.736,7.362c-1.699,1.333-3.455,2.604-5.357,3.636
			c-1.688,0.916-3.209,2.017-4.4,3.54c-2.128,2.714-3.251,6.095-5.199,8.939c-0.1,0.144-0.32,0.056-0.281-0.119
			c0.151-0.682,0.199-1.378,0.302-2.067c-2.302,2.925-3.668,6.483-4.692,10.03c-1.047,3.623-1.724,7.336-2.503,11.022
			c-0.023,0.116-0.181,0.146-0.258,0.068c-0.187-0.184-0.388-0.333-0.603-0.47c-0.319,1.879-0.681,3.752-0.989,5.634
			c-0.3,1.837-0.75,3.876-0.589,5.745c0.125,1.427,0.906,2.725,1,4.147c0.037,0.581-0.108,1.166-0.229,1.729
			c-0.16,0.75-0.196,1.476-0.153,2.238c0.171,2.979,1.482,5.593,2.275,8.417c0.61,2.181,1.059,4.539,1.686,6.827
			c1.117,2.291,2.386,4.492,3.792,6.595c0.036-0.024,0.086-0.038,0.125-0.023c2.041,0.691,2.292,3.342,4.102,4.215
			c-0.088-0.997-0.481-1.89-0.987-2.756c-0.087-0.149,0.127-0.321,0.241-0.188c2.177,2.552,4.111,5.316,6.459,7.717
			c2.094,2.141,4.901,3.098,7.553,4.353c2.171,1.028,4.02,2.499,5.936,3.927c3.708,2.764,8.438,6.198,13.286,4.619
			c-2.688-1.684-4.816-4.128-7.645-5.605c-2.393-1.252-5.171-2.193-6.945-4.325c-0.062,0.151-0.125,0.3-0.18,0.457
			c-0.149,0.438-0.062,0.82,0.069,1.254c0.031,0.104-0.08,0.234-0.189,0.19c-1.2-0.487-2.2-1.525-3.008-2.505
			c-0.729-0.882-1.579-2-1.625-3.192c-0.004-0.086,0.07-0.151,0.151-0.154c0.466-0.02,0.918-0.124,1.377-0.177
			c-0.676-1.025-1.518-2.064-1.739-3.29c-0.234-1.304,0.655-2.041,1.771-2.422c-0.646-1.011-1.472-1.981-1.761-3.162
			c-0.032-0.13,0.106-0.241,0.228-0.173c0.707,0.398,2.384,1.308,2.781,0.052c0.281-0.896-0.137-2.033-0.47-2.859
			c-0.614-1.514-1.558-3.079-3.061-3.822c-1.568-0.776-3.17-1.486-4.729-2.28c-1.49-0.759-3.232-1.542-4.418-2.762
			c-0.793-0.817-0.399-1.423,0.529-1.656c-0.875-1.422-0.892-3.005-0.093-4.494c0.052-0.095,0.17-0.091,0.241-0.031
			c0.561,0.452,1.101,0.963,1.74,1.302c0.169,0.089,1.053,0.523,1.211,0.32c0.144-0.183-0.072-0.869-0.112-1.081
			c-0.232-1.249-0.579-2.471-0.91-3.696c-0.614-2.282-1.073-4.582-0.634-6.941c0.265-1.403,0.863-2.673,1.365-3.998
			c0.451-1.196,0.873-2.414,1.474-3.545c0.531-1.008,1.216-1.834,1.989-2.663c0.797-0.856,1.597-1.73,1.81-2.908
			c-2.58-0.802-4.636,1.418-6.492,2.88c-0.1,0.077-0.269,0.037-0.264-0.109c0.017-0.63,0.104-1.245,0.211-1.865
			c0.062-0.361,0.182-0.775,0.174-1.14c-0.009-0.445-0.077-0.344-0.543-0.25c-1.085,0.217-2.053,0.648-3.181,0.532
			c-0.113-0.012-0.196-0.124-0.134-0.232c0.396-0.689,0.37-1.524,0.521-2.295c-1.082,0.595-2.088,1.322-3.188,1.889
			c-0.1,0.051-0.235-0.01-0.231-0.133c0.15-3.514,1.162-7.107,2.751-10.236c1.514-2.984,3.923-5.978,7.473-6.356
			c0.141-0.015,0.192,0.176,0.108,0.263c-1.106,1.15-1.864,2.664-1.823,4.273c1.951-1.858,3.819-3.804,5.621-5.809
			c1.807-2.008,3.743-4.062,5.266-6.296c0.791-1.163,0.94-2.499,1.552-3.726c0.655-1.316,2.082-1.914,3.427-2.342
			c-2.447-1.012-5.054-0.546-7.616-1.06c-0.092-0.018-0.146-0.147-0.092-0.225c1.273-1.83,3.301-2.812,5.312-3.636
			c-0.471-0.234-0.922-0.417-1.479-0.447c-0.115-0.006-0.193-0.126-0.136-0.229C1170.895,28.788,1172.155,27.735,1173.525,26.915z"
			/>
		<path fill="#CFD0D2" d="M1196.834,21.536c0.479,0.077,0.957,0.173,1.418,0.271c1.775,0.382,3.506,0.938,5.275,1.336
			c1.636,0.367,3.275,0.705,4.903,1.109c3.104,0.774,6.663,1.773,8.859,4.265c0.104,0.118,0.002,0.288-0.15,0.257
			c-2.348-0.462-4.695-1.425-7.109-0.962c0.693,1.088,2.355,1.625,3.478,2.046c1.535,0.575,3.113,1.02,4.673,1.524
			c2.856,0.924,5.602,2.629,7.923,4.519c2.646,2.155,4.591,4.858,6.205,7.842c0.641,1.183,1.354,2.31,1.883,3.556
			c0.436,1.03,0.969,2.354,0.479,3.453c-0.391,0.871-1.082,0.952-1.86,0.488c-0.907-0.538-1.828-1.671-2.957-1.664
			c0.259,1.321,1.139,2.474,1.05,3.861c-0.009,0.118-0.125,0.191-0.23,0.133c-0.649-0.346-1.188-0.869-1.756-1.33
			c-0.576-0.467-1.5-1.296-2.312-1.012c-1.646,0.578-1.072,3.413-0.867,4.628c0.251,1.472,0.505,2.957,0.799,4.419
			c0.346,1.721,0.77,3.426,0.973,5.171c0.176,1.503,0.254,3.178-0.478,4.557h-0.002c0.016,0.021,0.021,0.045,0.021,0.076
			c-0.003,4.175-0.126,8.383-0.896,12.497c-0.349,1.876-1.053,3.56-1.897,5.262c-0.833,1.678-1.759,3.363-2.106,5.221
			c2.439,0.291,4.526-2.138,6.363-3.388c0.098-0.066,0.234,0.022,0.23,0.132c-0.038,2.546-1.117,5.146-2.681,7.134
			c-0.704,0.897-1.61,1.607-2.483,2.333c-0.474,0.393-0.946,0.791-1.377,1.232c-0.188,0.194-0.368,0.396-0.535,0.609
			c-0.236,0.304-0.324,0.301-0.077,0.547c1.149,1.142,2.944-0.032,3.882-0.83c1.275-1.088,2.333-2.419,3.406-3.701
			c0.719-0.859,1.51-2.042,2.562-2.527c0.083-0.038,0.207-0.014,0.226,0.092c0.35,1.787-0.534,3.562-1.496,5.127
			c0.746-0.775,1.521-1.514,2.505-1.982c0.099-0.047,0.188-0.005,0.229,0.092c1.957,4.761-3.403,7.988-5.328,11.675
			c1.476,0.596,3.274-0.586,4.447-1.369c1.306-0.871,2.484-1.902,3.734-2.847c0.128-0.096,0.284,0.087,0.211,0.211
			c-2.425,4.121-4.45,8.561-7.517,12.265c-2.571,3.107-5.574,5.866-8.812,8.264c-2.129,1.576-4.424,3.083-6.846,4.267
			c21.159-8.123,36.181-28.629,36.181-52.646C1248.967,48.045,1225.988,23.705,1196.834,21.536z"/>
		<path fill="#CFD0D2" d="M1156.25,76.741c0,0-0.181,0.953,0.163,1.356c0.26,0.304,0.516-0.591,0.354-1.217
			c-0.043-0.051-0.098-0.08-0.171-0.059c-0.24,0.069-0.268,0.423-0.268,0.423s-0.022-0.367,0.11-0.481
			c0.082-0.07,0.188-0.086,0.242-0.107c-0.057-0.108-0.129-0.197-0.228-0.255c0,0,0.56-0.204,0.515,1.056
			c-0.047,1.26-0.547,1.179-0.751,0.62C1156.018,77.518,1156.25,76.741,1156.25,76.741z"/>
		<path fill="#CFD0D2" d="M1183.287,101.449c0,0-1.104,4.501,2.001,6.563c2.334,1.551,4.104-2.643,2.457-5.707
			c-0.379-0.259-0.855-0.419-1.467-0.345c-2.033,0.245-2.075,1.935-2.075,1.935s-0.363-1.771,0.727-2.271
			c0.667-0.304,1.559-0.342,2.008-0.427c-0.517-0.536-1.186-0.991-2.028-1.308c0,0,4.647-0.775,4.841,5.249
			c0.188,6.023-4.11,5.451-6.104,2.7C1181.656,105.086,1183.287,101.449,1183.287,101.449z"/>
		<path fill="#CFD0D2" d="M1181.338,122.541c0,0,0.169,1.654,1.467,1.979c0.977,0.243,1.07-1.389,0.145-2.227
			c-0.158-0.042-0.341-0.038-0.537,0.061c-0.658,0.328-0.47,0.903-0.47,0.903s-0.336-0.554-0.025-0.854
			c0.188-0.185,0.484-0.304,0.627-0.387c-0.239-0.118-0.521-0.191-0.846-0.197c0,0,1.479-0.822,2.27,1.193
			c0.788,2.014-0.732,2.337-1.739,1.647C1181.223,123.966,1181.338,122.541,1181.338,122.541z"/>
		<path fill="#CFD0D2" d="M1184.293,117.75c0,0,0.072,0.715,0.634,0.855c0.422,0.106,0.462-0.6,0.062-0.961
			c-0.067-0.019-0.146-0.018-0.23,0.025c-0.285,0.142-0.204,0.391-0.204,0.391s-0.145-0.239-0.012-0.369
			c0.081-0.08,0.208-0.131,0.271-0.167c-0.104-0.052-0.226-0.083-0.364-0.086c0,0,0.64-0.355,0.979,0.515
			c0.341,0.871-0.316,1.011-0.751,0.712C1184.243,118.366,1184.293,117.75,1184.293,117.75z"/>
		<path fill="#CFD0D2" d="M1193.716,106.866c0,0-0.276,1.128,0.502,1.646c0.585,0.389,1.028-0.662,0.615-1.431
			c-0.094-0.064-0.216-0.105-0.366-0.087c-0.511,0.062-0.521,0.486-0.521,0.486s-0.094-0.444,0.181-0.569
			c0.168-0.077,0.391-0.086,0.504-0.108c-0.131-0.133-0.297-0.248-0.511-0.327c0,0,1.166-0.195,1.216,1.316
			c0.047,1.51-1.03,1.367-1.529,0.676C1193.306,107.777,1193.716,106.866,1193.716,106.866z"/>
		<path fill="#CFD0D2" d="M1192.926,97.739c0,0-0.569,2.334,1.039,3.403c1.21,0.803,2.127-1.371,1.272-2.959
			c-0.196-0.134-0.444-0.216-0.763-0.179c-1.053,0.127-1.073,1.003-1.073,1.003s-0.188-0.917,0.375-1.177
			c0.346-0.157,0.81-0.177,1.042-0.221c-0.27-0.278-0.616-0.513-1.055-0.678c0,0,2.412-0.402,2.51,2.721
			c0.099,3.124-2.13,2.826-3.162,1.399C1192.08,99.625,1192.926,97.739,1192.926,97.739z"/>
		<path fill="#CFD0D2" d="M1207.097,93.954c0,0-1.738,0.834-1.585,2.377c0.118,1.162,1.937,0.623,2.487-0.717
			c-0.018-0.19-0.093-0.386-0.276-0.563c-0.616-0.59-1.17-0.156-1.17-0.156s0.475-0.586,0.924-0.366
			c0.271,0.134,0.521,0.411,0.668,0.533c0.035-0.308,0.006-0.643-0.116-0.999c0,0,1.479,1.293-0.412,2.945
			c-1.89,1.651-2.839,0.116-2.479-1.251C1205.493,94.389,1207.097,93.954,1207.097,93.954z"/>
		<path fill="#CFD0D2" d="M1199.818,101.539c0,0-0.688,0.332-0.629,0.944c0.048,0.46,0.771,0.246,0.987-0.285
			c-0.007-0.076-0.036-0.153-0.109-0.223c-0.244-0.235-0.466-0.063-0.466-0.063s0.188-0.232,0.367-0.146
			c0.107,0.054,0.207,0.163,0.266,0.211c0.015-0.122,0.002-0.254-0.047-0.396c0,0,0.587,0.512-0.162,1.167
			c-0.75,0.656-1.129,0.046-0.983-0.496C1199.184,101.712,1199.818,101.539,1199.818,101.539z"/>
		<path fill="#CFD0D2" d="M1176.927,88.556c0,0-0.482,1.978,0.879,2.883c1.024,0.682,1.805-1.16,1.079-2.508
			c-0.166-0.113-0.377-0.183-0.645-0.151c-0.895,0.109-0.911,0.85-0.911,0.85s-0.161-0.778,0.316-0.997
			c0.293-0.135,0.687-0.151,0.884-0.188c-0.228-0.236-0.521-0.436-0.893-0.574c0,0,2.042-0.34,2.126,2.305
			c0.083,2.647-1.806,2.396-2.681,1.187C1176.211,90.153,1176.927,88.556,1176.927,88.556z"/>
		<path fill="#CFD0D2" d="M1162.507,115.261c0,0,0.32,1.072,0.888,1.303c0.427,0.175,0.213-0.878-0.283-1.435
			c-0.068-0.03-0.143-0.031-0.205,0.029c-0.213,0.201-0.049,0.577-0.049,0.577s-0.22-0.365-0.142-0.552
			c0.047-0.115,0.146-0.188,0.188-0.239c-0.111-0.082-0.236-0.133-0.365-0.143c0,0,0.464-0.506,1.087,0.81
			c0.623,1.315,0.062,1.498-0.44,1.035C1162.68,116.181,1162.507,115.261,1162.507,115.261z"/>
		<path fill="#CFD0D2" d="M1169.601,57.945c0,0-1.229,4.248,0.155,6.229c1.043,1.49,2.592-2.46,2.134-5.376
			c-0.167-0.249-0.403-0.403-0.743-0.34c-1.135,0.211-1.395,1.81-1.395,1.81s0.052-1.679,0.713-2.141
			c0.4-0.282,0.889-0.308,1.146-0.384c-0.203-0.511-0.5-0.948-0.912-1.256c0,0,2.622-0.688,1.874,5.013
			c-0.748,5.702-2.988,5.117-3.678,2.494C1168.204,61.37,1169.601,57.945,1169.601,57.945z"/>
		<path fill="#CFD0D2" d="M1150.477,41.976c0,0-0.842,1.346-0.557,2.167c0.214,0.616,1.136-0.596,1.264-1.648
			c-0.033-0.102-0.1-0.179-0.224-0.19c-0.413-0.037-0.659,0.489-0.659,0.489s0.184-0.575,0.455-0.67
			c0.167-0.057,0.338-0.018,0.434-0.02c-0.021-0.196-0.079-0.377-0.191-0.523c0,0,0.973,0.02,0.157,1.915
			c-0.817,1.896-1.535,1.474-1.517,0.501C1149.659,43.022,1150.477,41.976,1150.477,41.976z"/>
	</g>
	<g>
		<g id="Moon_3_">
			<g id="Moon_4_">
				<g id="Moon_5_">
					
						<radialGradient id="SVGID_34_" cx="490.7092" cy="984.1924" r="51.665" gradientTransform="matrix(1 0 0 -1 704.5605 1061.7188)" gradientUnits="userSpaceOnUse">
						<stop  offset="0" style="stop-color:#FFFFFF"/>
						<stop  offset="1" style="stop-color:#FFFFFF;stop-opacity:0"/>
					</radialGradient>
					<circle fill="url(#SVGID_34_)" cx="1195.27" cy="77.527" r="51.665"/>
					<path opacity="0.1" enable-background="new    " d="M1211.225,28.375c7.104,8.848,11.355,20.083,11.355,32.312
						c0,28.534-23.131,51.664-51.668,51.664c-5.565,0-10.928-0.883-15.953-2.513c9.473,11.798,24.008,19.354,40.312,19.354
						c28.532,0,51.664-23.13,51.664-51.665C1246.938,54.562,1231.95,35.096,1211.225,28.375z"/>
				</g>
			</g>
		</g>
	</g>
</g>
<text transform="matrix(1 0 0 1 646.1624 -116.9043)" font-family="'MyriadPro-Regular'" font-size="38.0498">youtube</text>
</svg>
