<?xml version="1.0" encoding="utf-8"?>
<!-- Generator: Adobe Illustrator 16.0.0, SVG Export Plug-In . SVG Version: 6.00 Build 0)  -->
<!DOCTYPE svg PUBLIC "-//W3C//DTD SVG 1.1//EN" "http://www.w3.org/Graphics/SVG/1.1/DTD/svg11.dtd">
<svg version="1.1" id="Layer_1" xmlns="http://www.w3.org/2000/svg" xmlns:xlink="http://www.w3.org/1999/xlink" x="0px" y="0px"
	 width="1280px" height="720px" viewBox="0 0 1280 720" enable-background="new 0 0 1280 720" xml:space="preserve">
<g id="sky">
	<g>
		<g id="sky_1_">
			
				<linearGradient id="SVGID_1_" gradientUnits="userSpaceOnUse" x1="-909.7812" y1="1131.4062" x2="-909.7812" y2="1522.6443" gradientTransform="matrix(1 0 0 -1 1549.7812 1524.1094)">
				<stop  offset="0" style="stop-color:#FFE899"/>
				<stop  offset="0.1062" style="stop-color:#FFE9CF"/>
				<stop  offset="0.2606" style="stop-color:#FFFFDB"/>
				<stop  offset="0.442" style="stop-color:#EDFFED"/>
				<stop  offset="0.6486" style="stop-color:#E0FFFA"/>
				<stop  offset="0.8342" style="stop-color:#DBFFFF"/>
				<stop  offset="1" style="stop-color:#B0E7FF"/>
			</linearGradient>
			<polygon fill="url(#SVGID_1_)" points="0,0 0,622.371 1280,615.5 1280,0 			"/>
		</g>
		<g id="skyy">
			
				<linearGradient id="SVGID_2_" gradientUnits="userSpaceOnUse" x1="-1199.4043" y1="838.6768" x2="-1199.4043" y2="1302.7285" gradientTransform="matrix(1 0 0 -1 1549.7812 1524.1094)">
				<stop  offset="0" style="stop-color:#9FC7D3"/>
				<stop  offset="0.3154" style="stop-color:#C0D5DF"/>
				<stop  offset="0.7674" style="stop-color:#E9E6EE"/>
				<stop  offset="1" style="stop-color:#F9EDF4"/>
			</linearGradient>
			<path fill="url(#SVGID_2_)" d="M676.617,416.188c-7.854,0-14.771,3.952-18.677,9.815c-1.688,0.092-3.312,0.356-4.896,0.766
				c-1.188-12.302-13.229-22.267-25.784-22.267c-6.646,0-12.508,2.441-16.965,6.396c-0.562-0.061-1.13-0.062-1.705-0.062
				c-4.576,0-8.709,1.487-11.686,3.856c-1.295-7.354-9.188-13.438-19.965-16.062c-0.312-2.214-0.979-4.25-2.062-6.258
				c-1.046-3.122-2.829-5.669-5.354-7.95c-2.354-2.456-5.121-3.624-8.326-4.639c-3.082-1.577-6.406-1.284-9.971-1.284h-1.062
				c-0.762,0-1.515-0.836-2.258-0.772c-3.479-1.511-7.737-3.146-12.356-3.146c-4.845,0-9.293,0.924-12.854,2.562
				c-0.192-0.438-0.401-0.889-0.633-1.312c-1.044-3.123-2.826-5.82-5.354-8.104c-2.347-2.459-5.121-3.635-8.327-4.646
				c-3.084-1.582-6.396-1.566-9.971-1.566h-1.06c-4.668,0-9.021,0.562-13.062,2.843c-1.744,1.313-3.488,2.287-5.229,3.604
				c-3.199,3.146-5.431,6.75-6.646,11.018c-0.218,1.582-0.438,3.158-0.653,4.74c-0.146-0.146-0.298-0.212-0.455-0.354
				c-2.346-2.449-5.121-3.047-8.328-4.062c-3.084-1.579-6.396-0.787-9.968-0.787h-1.06c-4.67,0-9.022-0.226-13.062,2.058
				c-1.746,1.312-3.483,1.703-5.229,3.021c-2.658,2.604-4.626,5.396-5.937,8.771c-0.072,0-0.146-0.065-0.229-0.065
				c-2.629,0-5.146,0.385-7.491,1.01c-1.695-1.229-3.562-1.652-5.611-2.303c-3.083-1.578-6.396-3.479-9.968-1.479h-1.057
				c-4.671,0-9.023,0.438-13.062,2.711c-1.746,1.312-3.489,2.084-5.234,3.396c-3.207,3.146-5.429,6.759-6.657,11.021
				c-0.209,1.534-0.421,3.023-0.633,4.562c-0.479,0.427-0.938,0.845-1.372,1.306c-2.808-1.729-6.271-2.771-10.02-2.771
				c-0.681,0-1.354,0.028-2.008,0.104c-0.271-0.339-0.542-0.688-0.812-1.021c-3.229-3.12-7.036-5.275-11.419-6.479
				c-2.292-0.306-4.586-0.604-6.88-0.896c-2.055-0.073-4.021,0.146-5.913,0.637c-3.35-8.269-13.68-14.282-25.904-14.282
				c-8.479,0-16.046,2.896-21.005,7.427c-2.249-4.862-7.438-8.854-14.146-11c0.021-0.297,0.028-0.604,0.028-0.896
				c0-7.062-4.642-13.128-11.297-15.84c-3.575-9.416-15.189-16.313-28.965-16.313c-2.356,0-4.652,0.2-6.854,0.589
				c1.104-2.341,1.716-4.907,1.716-7.604c0-10.882-9.98-19.709-22.3-19.709c-0.459,0-0.907,0.035-1.36,0.062
				c-1.354-7.938-7.211-14.733-14.631-18.233c0.52-1.137,0.964-2.312,1.319-3.542c0.307-2.232,0.613-4.464,0.924-6.696
				c-0.015-4.548-1.193-8.791-3.534-12.72l-4.047-5.099c-2.001-2.099-4.324-3.668-6.959-4.716
				c-1.804-9.836-11.659-17.575-21.899-17.575c-7.855,0-14.416,3.957-18.324,9.818c-3.941,0.22-7.644,1.302-11.1,3.251
				c-1.675,1.26-3.35,2.521-5.023,3.779c-2.419,2.19-4.13,4.784-5.132,7.778c-1.555,2.882-2.268,5.986-2.138,9.313
				c-0.013,0.358-0.012,0.711-0.007,1.065c-0.416,0.249-0.832,0.505-1.232,0.777c-1.284-0.58-2.622-1.075-4.025-1.458
				c-2.293-0.298-4.586-0.601-6.879-0.897c-3.194-0.119-6.197,0.456-9.01,1.715c-0.994-0.091-2.003-0.152-3.028-0.152
				c-2.405,0-4.73,0.255-6.938,0.729c0.933-2.028,1.438-4.197,1.438-6.452c0-11.281-12.558-20.427-28.053-20.427
				c-10.562,0-19.743,4.252-24.531,10.526c-4.518-3.047-10.171-4.841-16.157-4.841c-7.6,0-15.322,0.561-19.843,5.238l-0.21,444.142
				L700.5,720l-6.606-295.57C688.798,419.699,683.069,416.188,676.617,416.188z"/>
			
				<linearGradient id="SVGID_3_" gradientUnits="userSpaceOnUse" x1="8213.6445" y1="837.5254" x2="8213.6445" y2="1286.207" gradientTransform="matrix(-1 0 0 -1 9164.377 1524.1094)">
				<stop  offset="0" style="stop-color:#9FC7D3"/>
				<stop  offset="0.3154" style="stop-color:#C0D5DF"/>
				<stop  offset="0.7674" style="stop-color:#E9E6EE"/>
				<stop  offset="1" style="stop-color:#F9EDF4"/>
			</linearGradient>
			<path fill="url(#SVGID_3_)" d="M640.387,423.006c7.438,0,13.979,3.74,17.672,9.288c1.604,0.087,3.122,0.337,4.646,0.725
				c1.123-11.64,12.521-21.062,24.396-21.062c6.301,0,11.836,2.311,16.061,6.051c0.521-0.043,1.062-0.059,1.604-0.059
				c4.329,0,8.24,1.396,11.062,3.646c1.229-6.938,8.688-12.707,18.896-15.188c0.284-2.104,0.926-4.021,1.95-5.926
				c0.979-2.949,2.677-5.361,5.062-7.521c2.22-2.323,4.853-3.354,7.882-4.312c2.916-1.49,6.062-1.146,9.438-1.146h0.999
				c0.722,0,1.436-0.865,2.138-0.809c3.294-1.438,7.32-3.025,11.69-3.025c4.58,0,8.791,0.854,12.16,2.41
				c0.188-0.413,0.386-0.854,0.603-1.254c0.985-2.956,2.679-5.521,5.062-7.672c2.227-2.325,4.854-3.322,7.883-4.283
				c2.921-1.496,6.062-2.367,9.437-1.367H810c4.418,0,8.535,0.416,12.354,2.568c1.65,1.244,3.312,2.104,4.954,3.351
				c3.033,2.979,5.146,6.356,6.296,10.396c0.207,1.498,0.414,2.979,0.619,4.477c0.146-0.141,0.283-0.207,0.438-0.347
				c2.22-2.318,4.847-2.812,7.881-3.771c2.916-1.494,6.062-1.674,9.432-0.674h1.003c4.42,0,8.537-0.288,12.354,1.865
				c1.646,1.242,3.306,1.574,4.955,2.812c2.518,2.474,4.377,5.081,5.604,8.276c0.075,0,0.146-0.081,0.229-0.081
				c2.479,0,4.861,0.358,7.092,0.951c1.604-1.167,3.37-1.199,5.311-1.812c2.916-1.481,6.062-4.021,9.438-1.021h0.998
				c4.42,0,8.535,0.037,12.354,2.188c1.646,1.232,3.307,1.778,4.95,3.021c3.034,2.979,5.138,6.3,6.302,10.337
				c0.194,1.453,0.396,2.816,0.604,4.271c0.441,0.396,0.886,0.771,1.299,1.214c2.648-1.646,5.937-2.646,9.479-2.646
				c0.646,0,1.271,0.021,1.896,0.085c0.258-0.312,0.516-0.646,0.771-0.978c3.062-2.954,6.653-5,10.811-6.135
				c2.17-0.284,4.342-0.567,6.514-0.854c1.938-0.062,3.809,0.145,5.6,0.604c3.168-7.818,12.938-13.521,24.515-13.521
				c8.021,0,15.187,2.74,19.875,7.027c2.127-4.604,7.032-8.381,13.386-10.408c-0.021-0.274-0.021-0.562-0.021-0.852
				c0-6.687,4.395-12.422,10.688-14.98c3.387-8.91,14.369-15.438,27.397-15.438c2.229,0,4.4,0.188,6.482,0.558
				c-1.048-2.211-1.623-4.646-1.623-7.188c0-10.298,9.439-18.646,21.104-18.646c0.438,0,0.854,0.034,1.285,0.061
				c1.277-7.514,6.816-13.938,13.846-17.254c-0.484-1.067-0.91-2.188-1.248-3.353c-0.291-2.112-0.582-4.229-0.875-6.336
				c0.021-4.304,1.134-8.317,3.351-12.036l3.826-4.824c1.896-1.986,4.097-3.472,6.584-4.462
				c1.707-9.307,11.028-16.629,20.726-16.629c7.438,0,13.646,3.743,17.343,9.289c3.729,0.208,7.229,1.23,10.5,3.076
				c1.586,1.191,3.17,2.385,4.756,3.575c2.289,2.072,3.903,4.526,4.854,7.359c1.475,2.728,2.146,5.663,2.021,8.812
				c0.019,0.339,0.014,0.673,0.008,1.008c0.396,0.234,0.785,0.479,1.166,0.734c1.222-0.547,2.479-1.017,3.812-1.379
				c2.171-0.281,4.341-0.566,6.514-0.85c3.021-0.112,5.858,0.431,8.521,1.622c0.938-0.086,1.896-0.145,2.862-0.145
				c2.271,0,4.479,0.24,6.562,0.689c-0.884-1.919-1.354-3.972-1.354-6.105c0-10.674,11.881-19.326,26.542-19.326
				c9.991,0,18.687,4.022,23.212,9.959c4.271-2.884,9.623-4.581,15.287-4.581c7.188,0,14.494,0.531,18.771,4.956L1280,720
				l-658.745-0.076l2.788-289.118C628.865,426.33,634.282,423.006,640.387,423.006z"/>
		</g>
	</g>
</g>
<g id="cloud5">
	
		<linearGradient id="SVGID_4_" gradientUnits="userSpaceOnUse" x1="-632.7832" y1="1150.2314" x2="-632.7832" y2="1286.6653" gradientTransform="matrix(1 0 0 -1 1549.7812 1524.1094)">
		<stop  offset="0" style="stop-color:#9FC7D3"/>
		<stop  offset="0.3154" style="stop-color:#C0D5DF"/>
		<stop  offset="0.7674" style="stop-color:#E9E6EE"/>
		<stop  offset="1" style="stop-color:#F9EDF4"/>
	</linearGradient>
	<path fill="url(#SVGID_4_)" d="M1039.5,318.503c-0.399,0-0.825-1.586-1.324-2.159c-2.396-2.754-5.271-4.771-8.492-5.211
		c-2.463-2.894-5.688-4.744-9.234-4.744c-3.938,0-7.479,2.116-10.021,5.562c-0.307-2.812-2.045-4.999-4.237-4.999
		c-0.888,0-1.649,0.428-2.354,1.01c-1.232-7.883-6.509-13.816-12.833-13.816c-1.604,0-3.138,0.447-4.562,1.139
		c0.977-2.344,1.562-4.984,1.562-7.843c0-9.084-5.562-16.444-12.421-16.444c-3.462,0-6.582,1.883-8.847,4.907
		c-0.854-1.118-1.9-1.939-3.062-2.462c0.226-1.783,0.116-3.854-0.747-5.292c-0.389-0.647-0.773-1.293-1.163-1.939
		c-1.017-1.7-2.044-3.021-3.739-3.607c-0.173-0.059-0.354-0.07-0.539-0.109c0.271-2.329-0.252-4.757-1.688-6.627
		c-0.377-0.494-0.759-0.987-1.14-1.479c-0.501-0.649-1.104-1.132-1.758-1.506c-0.698-1.05-1.479-2.004-2.296-2.901
		c-0.018-0.627-0.062-1.243-0.209-1.799c-1.012-3.898-4.361-6.837-7.704-5.482c-0.895,0.36-1.777,0.722-2.682,1.087
		c-0.021,0.009-0.046,0.024-0.062,0.032c-0.842-0.137-1.688-0.222-2.555-0.222c-0.25,0-0.489,0.047-0.75,0.056
		c-0.972-1.014-2.25-1.669-3.878-1.669c-3.166,0-5.067,2.425-5.758,5.362c-2.149,1.674-4.084,3.823-5.646,6.38
		c-0.315-0.053-0.624-0.119-0.971-0.119c-5.03,0-6.933,6.116-5.688,10.711c-1.861,0.058-3.498,1.257-4.562,3.069
		c-2.865-4.458-7.095-7.341-11.861-7.341c-8.25,0-14.999,8.476-15.58,19.208c-0.646-0.279-1.334-0.467-2.131-0.467
		c-3.516,0-5.486,2.971-5.942,6.327c-0.544-0.059-1.09-0.095-1.646-0.095c-7.521,0-14.062,5.547-17.396,13.705
		c-1.129-1.314-2.597-2.133-4.226-2.133c-2.63,0-4.884,2.085-5.889,5.062c-0.812-0.609-1.774-0.99-2.936-1.043
		c-0.916-2.232-2.656-3.904-5.28-3.904c-4.584,0-6.543,5.059-5.905,9.438c-0.9-0.74-2.019-1.208-3.36-1.208
		c-2.019,0-3.521,0.979-4.531,2.444c-1.646-0.021-3.303,0.417-4.679,1.562c-0.116,0.103-0.232,0.188-0.354,0.298
		c-0.611-0.252-1.279-0.438-2.047-0.438c-1.181,0-2.17,0.364-3,0.94c-0.438,0.053-0.875,0.136-1.314,0.255
		c-0.773,0.205-1.562,0.41-2.353,0.615c-2.228,0.588-4.489,3.012-5.608,5.41c-0.188,0.396-0.228,0.837-0.363,1.271
		c-1.014-1.504-2.902-2.212-4.479-2.212c-2.229,0-3.809-1.59-4.764,3.41L1039.5,318.503L1039.5,318.503z"/>
</g>
<g id="star">
	<g>
		<g>
			<g>
				<path fill="#C9F4F2" d="M166.967,491.658c-3.396,0-6.146-2.75-6.146-6.146c0,3.396-2.75,6.146-6.146,6.146
					c3.396,0,6.146,2.752,6.146,6.146C160.822,494.41,163.572,491.658,166.967,491.658z"/>
				<path fill="#C9F4F2" d="M334.755,648.508c-3.396,0-6.146-2.75-6.146-6.146c0,3.396-2.752,6.146-6.146,6.146
					c3.396,0,6.146,2.754,6.146,6.146C328.61,651.262,331.361,648.508,334.755,648.508z"/>
				<path fill="#C9F4F2" d="M199.341,648.508c-3.396,0-6.146-2.75-6.146-6.146c0,3.396-2.753,6.146-6.146,6.146
					c3.394,0,6.146,2.754,6.146,6.146C193.195,651.262,195.947,648.508,199.341,648.508z"/>
			</g>
			<g>
				<path fill="#C9F4F2" d="M619.08,329.398l0.729,1.983h2.354c0.34,0,0.479,0.381,0.201,0.562l-1.902,1.229l0.729,1.99
					c0.104,0.283-0.271,0.52-0.533,0.344l-1.905-1.229l-1.906,1.229c-0.271,0.176-0.637-0.061-0.521-0.344l0.729-1.99l-1.908-1.229
					c-0.271-0.181-0.131-0.562,0.201-0.562h2.355l0.729-1.983C618.525,329.113,618.977,329.113,619.08,329.398z"/>
				<path fill="#C9F4F2" d="M504.281,270.045l0.622,1.701h2.018c0.283,0,0.402,0.326,0.176,0.476l-1.632,1.051l0.623,1.702
					c0.09,0.242-0.227,0.443-0.456,0.293l-1.629-1.052l-1.629,1.052c-0.229,0.15-0.544-0.051-0.456-0.293l0.622-1.702l-1.631-1.051
					c-0.229-0.149-0.11-0.476,0.176-0.476h2.017l0.624-1.701C503.804,269.803,504.192,269.803,504.281,270.045z"/>
				<path fill="#C9F4F2" d="M516.271,279.914l0.235,0.672h0.796c0.105,0,0.154,0.128,0.062,0.188l-0.646,0.414l0.246,0.669
					c0.028,0.098-0.095,0.176-0.188,0.116l-0.646-0.414l-0.646,0.414c-0.1,0.06-0.223-0.019-0.188-0.116l0.245-0.669l-0.646-0.414
					c-0.098-0.062-0.049-0.188,0.062-0.188h0.794l0.244-0.672C516.079,279.82,516.235,279.82,516.271,279.914z"/>
				<path fill="#C9F4F2" d="M410.587,195.282l2.021-0.049l0.562-1.716c0.08-0.244,0.468-0.253,0.562-0.015l0.674,1.687l2.019-0.048
					c0.284-0.007,0.414,0.314,0.188,0.471l-1.604,1.09l0.682,1.687c0.099,0.239-0.209,0.448-0.442,0.303l-1.66-1.012l-1.601,1.092
					c-0.229,0.154-0.546-0.04-0.465-0.282l0.562-1.717l-1.659-1.011C410.191,195.618,410.297,195.288,410.587,195.282z"/>
				<path fill="#C9F4F2" d="M569.62,172.212l2.019-0.047l0.565-1.715c0.081-0.244,0.469-0.254,0.562-0.015l0.681,1.687l2.017-0.049
					c0.285-0.008,0.416,0.315,0.188,0.469l-1.604,1.092l0.678,1.686c0.104,0.239-0.209,0.448-0.438,0.305l-1.659-1.012l-1.6,1.09
					c-0.229,0.154-0.547-0.039-0.47-0.283l0.563-1.715l-1.66-1.012C569.226,172.549,569.335,172.22,569.62,172.212z"/>
				<path fill="#C9F4F2" d="M589.474,143.999l0.794-0.02l0.229-0.677c0.033-0.096,0.188-0.1,0.227-0.005l0.271,0.663l0.793-0.019
					c0.114-0.002,0.166,0.125,0.075,0.188l-0.631,0.43l0.27,0.664c0.036,0.096-0.084,0.177-0.177,0.12l-0.655-0.399l-0.63,0.43
					c-0.088,0.062-0.213-0.015-0.188-0.11l0.229-0.676l-0.653-0.399C589.317,144.132,589.36,144.001,589.474,143.999z"/>
				<path fill="#C9F4F2" d="M307.5,273.067l0.31,0.831h0.979c0.146,0,0.197,0.16,0.084,0.232l-0.795,0.514l0.309,0.831
					c0.044,0.117-0.104,0.215-0.227,0.144l-0.793-0.514l-0.797,0.514c-0.113,0.071-0.267-0.025-0.223-0.144l0.304-0.831
					l-0.795-0.514c-0.112-0.072-0.06-0.232,0.083-0.232h0.979l0.31-0.831C307.271,272.951,307.456,272.951,307.5,273.067z"/>
				<path fill="#C9F4F2" d="M201.408,323.341l0.57,1.564h1.854c0.267,0,0.373,0.3,0.16,0.438l-1.498,0.967l0.57,1.562
					c0.08,0.224-0.205,0.406-0.42,0.271l-1.497-0.968l-1.497,0.968c-0.213,0.144-0.5-0.048-0.42-0.271l0.573-1.562l-1.498-0.967
					c-0.213-0.138-0.104-0.438,0.161-0.438h1.852l0.571-1.564C200.973,323.119,201.326,323.119,201.408,323.341z"/>
				<path fill="#C9F4F2" d="M322.283,394.037l0.879,2.396h2.847c0.403,0,0.571,0.459,0.247,0.668l-2.307,1.484l0.882,2.402
					c0.125,0.342-0.312,0.625-0.645,0.411l-2.304-1.481l-2.309,1.481c-0.322,0.214-0.768-0.069-0.642-0.411l0.879-2.402
					l-2.301-1.484c-0.328-0.209-0.159-0.668,0.246-0.668h2.844l0.879-2.396C321.615,393.691,322.156,393.691,322.283,394.037z"/>
				<path fill="#C9F4F2" d="M535.418,431.049l0.319,0.873h1.034c0.146,0,0.207,0.168,0.09,0.244l-0.839,0.541l0.312,0.875
					c0.049,0.123-0.107,0.229-0.229,0.146l-0.838-0.541l-0.843,0.541c-0.116,0.076-0.271-0.021-0.229-0.146l0.315-0.875
					l-0.838-0.541c-0.114-0.076-0.062-0.244,0.094-0.244h1.033l0.312-0.873C535.172,430.924,535.372,430.924,535.418,431.049z"/>
				<path fill="#C9F4F2" d="M298.177,409.908l0.479,1.312h1.551c0.227,0,0.312,0.25,0.137,0.365l-1.256,0.807l0.479,1.312
					c0.066,0.187-0.17,0.343-0.352,0.226l-1.254-0.81l-1.254,0.81c-0.18,0.117-0.416-0.039-0.352-0.226l0.479-1.312l-1.252-0.807
					c-0.18-0.115-0.086-0.365,0.139-0.365h1.549l0.479-1.312C297.814,409.722,298.111,409.722,298.177,409.908z"/>
			</g>
			<g>
				<g>
					<path fill="#C9F4F2" d="M565.166,389.586c0.031-2.959-5.676-3.029-5.706-0.066C559.422,392.479,565.13,392.551,565.166,389.586
						z"/>
					<path fill="#C9F4F2" d="M541.361,148.112c0.035-2.957-5.671-3.031-5.707-0.066C535.62,151.003,541.323,151.077,541.361,148.112
						z"/>
					<path fill="#C9F4F2" d="M814.176,129.366c0.031-2.959-5.67-3.031-5.705-0.068C808.438,132.257,814.145,132.329,814.176,129.366
						z"/>
					<path fill="#C9F4F2" d="M869.336,400.336c-0.059-1.246-1.227-2.312-2.826-2.332l-0.635-0.008
						c-1.49-0.021-2.934,1.021-2.881,2.268c0.057,1.246,1.229,2.312,2.824,2.332l0.635,0.008
						C867.947,402.623,869.391,401.58,869.336,400.336z"/>
					<path fill="#C9F4F2" d="M937.361,221.269l0.002-0.317c0.035-2.959-5.672-3.031-5.705-0.067l-0.004,0.315
						C931.617,224.161,937.324,224.232,937.361,221.269z"/>
					<path fill="#C9F4F2" d="M493.221,252.808c0.032-2.958-5.669-3.03-5.701-0.067C487.485,255.702,493.189,255.771,493.221,252.808
						z"/>
					<path fill="#C9F4F2" d="M585.062,124.612c0.045-3.945-7.562-4.041-7.606-0.09C577.406,128.468,585.013,128.563,585.062,124.612
						z"/>
					<path fill="#C9F4F2" d="M874.379,212.859l0.018-1.022c0.021-1.604-1.713-3.16-3.771-3.109c-2.062,0.05-3.812,1.303-3.84,3.02
						l-0.013,1.023c-0.021,1.604,1.716,3.161,3.771,3.11C872.604,215.829,874.359,214.577,874.379,212.859z"/>
					<path fill="#C9F4F2" d="M529.019,200.599c0.055-3.944-7.562-4.042-7.604-0.09C521.365,204.454,528.97,204.552,529.019,200.599z
						"/>
					<path fill="#C9F4F2" d="M966.295,159.269c-0.064-1.663-1.637-3.086-3.77-3.112l-0.634-0.008
						c-1.989-0.021-3.911,1.366-3.854,3.021c0.071,1.66,1.646,3.084,3.771,3.109l0.638,0.008
						C964.447,162.312,966.365,160.927,966.295,159.269z"/>
					<path fill="#C9F4F2" d="M961.521,405.004c0.047-3.941-7.562-4.041-7.604-0.09C953.867,408.858,961.475,408.955,961.521,405.004
						z"/>
					<path fill="#C9F4F2" d="M504.255,366.381c0.053-3.938-7.562-4.041-7.604-0.09C496.605,370.234,504.211,370.334,504.255,366.381
						z"/>
					<path fill="#C9F4F2" d="M527.92,348.777c0.021-1.979-3.777-2.021-3.805-0.045C524.094,350.703,527.898,350.752,527.92,348.777z
						"/>
					<path fill="#C9F4F2" d="M600.163,405.33c0.024-1.979-3.778-2.021-3.804-0.052C596.338,407.258,600.142,407.306,600.163,405.33z
						"/>
					<path fill="#C9F4F2" d="M535.488,406.61c-0.038-0.832-0.817-1.545-1.893-1.562l-0.64-0.008
						c-0.988-0.017-1.954,0.684-1.919,1.51c0.035,0.83,0.814,1.545,1.89,1.562l0.638,0.007
						C534.562,408.131,535.521,407.438,535.488,406.61z"/>
					<path fill="#C9F4F2" d="M557.213,174.872c0.021-1.974-3.775-2.021-3.808-0.045C553.386,176.8,557.192,176.846,557.213,174.872z
						"/>
					<path fill="#C9F4F2" d="M550.271,118.069c0.021-1.973-3.781-2.021-3.812-0.045
						C546.442,119.995,550.245,120.044,550.271,118.069z"/>
					<path fill="#C9F4F2" d="M495.688,177.721l0.011-0.512c0.013-0.803-0.854-1.582-1.889-1.555c-1.023,0.024-1.903,0.65-1.924,1.51
						l-0.007,0.511c-0.012,0.803,0.854,1.581,1.888,1.556C494.797,179.206,495.674,178.581,495.688,177.721z"/>
					<path fill="#C9F4F2" d="M661.797,121.942c0.025-1.973-3.771-2.021-3.803-0.044C657.975,123.87,661.777,123.919,661.797,121.942
						z"/>
					<path fill="#C9F4F2" d="M751.947,111.257c0.021-1.973-3.78-2.021-3.812-0.045C748.117,113.182,751.922,113.231,751.947,111.257
						z"/>
					<path fill="#C9F4F2" d="M861.541,172.337c-0.039-0.83-0.819-1.543-1.889-1.555l-0.633-0.007
						c-0.992-0.012-1.955,0.683-1.918,1.511c0.024,0.832,0.812,1.543,1.883,1.557l0.633,0.007
						C860.615,173.859,861.574,173.165,861.541,172.337z"/>
					<path fill="#C9F4F2" d="M896.795,145.733c0.213-0.167,0.436-0.334,0.646-0.502c0.711-0.559,0.771-1.599,0.021-2.169
						c-0.757-0.569-1.937-0.627-2.688-0.03c-0.211,0.168-0.426,0.336-0.646,0.504c-0.712,0.559-0.771,1.599-0.021,2.168
						C894.859,146.274,896.033,146.331,896.795,145.733z"/>
					<path fill="#C9F4F2" d="M979.553,272.358c0.021-1.975-3.779-2.022-3.812-0.046C975.73,274.285,979.531,274.332,979.553,272.358
						z"/>
					<path fill="#C9F4F2" d="M926.344,268.662c0.021-1.975-3.771-2.021-3.812-0.047C922.52,270.589,926.322,270.636,926.344,268.662
						z"/>
					<path fill="#C9F4F2" d="M887.924,355.59l0.01-0.514c0.017-0.803-0.854-1.576-1.893-1.562c-1.023,0.021-1.904,0.647-1.916,1.521
						l-0.011,0.512c-0.011,0.801,0.854,1.584,1.892,1.555C887.037,357.076,887.916,356.449,887.924,355.59z"/>
					<path fill="#C9F4F2" d="M945.176,338.891l0.01-0.51c0.013-0.805-0.854-1.582-1.891-1.559c-1.025,0.021-1.906,0.646-1.925,1.51
						l-0.004,0.512c-0.011,0.812,0.854,1.582,1.888,1.562C944.287,340.376,945.168,339.751,945.176,338.891z"/>
					<path fill="#C9F4F2" d="M990.359,215.763c0.021-1.974-3.779-2.021-3.812-0.045
						C986.531,217.692,990.338,217.741,990.359,215.763z"/>
					<path fill="#C9F4F2" d="M907.434,422.248c0.021-1.977-3.772-2.021-3.808-0.043C903.605,424.178,907.41,424.223,907.434,422.248
						z"/>
				</g>
			</g>
			<g>
				<path fill="#C9F4F2" d="M738.467,584.084l0.469,1.271h1.519c0.221,0,0.309,0.238,0.131,0.354l-1.229,0.789l0.474,1.271
					c0.062,0.188-0.168,0.334-0.349,0.229l-1.229-0.789l-1.229,0.789c-0.18,0.104-0.407-0.039-0.348-0.229l0.475-1.271l-1.229-0.789
					c-0.176-0.109-0.079-0.354,0.136-0.354h1.521l0.471-1.271C738.113,583.902,738.402,583.902,738.467,584.084z"/>
				<path fill="#C9F4F2" d="M664.793,545.992l0.396,1.096h1.293c0.186,0,0.26,0.209,0.104,0.305l-1.048,0.687l0.396,1.095
					c0.061,0.153-0.146,0.282-0.293,0.188l-1.048-0.681l-1.047,0.681c-0.146,0.103-0.354-0.026-0.294-0.188l0.396-1.095l-1.05-0.687
					c-0.146-0.096-0.067-0.305,0.104-0.305h1.293l0.396-1.096C664.488,545.838,664.734,545.838,664.793,545.992z"/>
				<path fill="#C9F4F2" d="M672.486,552.326l0.149,0.436h0.517c0.067,0,0.104,0.082,0.043,0.119l-0.408,0.271l0.154,0.433
					c0.021,0.061-0.062,0.108-0.113,0.071l-0.41-0.271l-0.409,0.271c-0.062,0.037-0.142-0.021-0.106-0.071l0.147-0.433l-0.412-0.271
					c-0.062-0.037-0.021-0.119,0.049-0.119h0.515l0.158-0.436C672.365,552.266,672.463,552.266,672.486,552.326z"/>
				<path fill="#C9F4F2" d="M604.661,498.012l1.291-0.021l0.366-1.104c0.055-0.154,0.3-0.162,0.354-0.008l0.438,1.08l1.293-0.029
					c0.188-0.006,0.27,0.201,0.119,0.307l-1.021,0.693l0.438,1.082c0.062,0.149-0.136,0.289-0.285,0.19l-1.062-0.646l-1.021,0.699
					c-0.146,0.101-0.354-0.024-0.297-0.188l0.354-1.104l-1.062-0.646C604.406,498.227,604.479,498.016,604.661,498.012z"/>
				<path fill="#C9F4F2" d="M706.727,483.207l1.293-0.031l0.363-1.104c0.055-0.151,0.301-0.157,0.354-0.019l0.438,1.082l1.295-0.022
					c0.188-0.004,0.271,0.203,0.118,0.308l-1.021,0.695l0.438,1.081c0.062,0.146-0.139,0.287-0.287,0.188l-1.062-0.646l-1.023,0.688
					c-0.146,0.104-0.354-0.021-0.298-0.185l0.364-1.104l-1.064-0.646C706.473,483.422,706.543,483.211,706.727,483.207z"/>
				<path fill="#C9F4F2" d="M719.465,465.1l0.521-0.014l0.146-0.438c0.021-0.062,0.113-0.062,0.146-0.013l0.17,0.438l0.508-0.021
					c0.074-0.002,0.104,0.078,0.053,0.119l-0.401,0.273l0.181,0.426c0.021,0.062-0.062,0.108-0.111,0.076l-0.422-0.265l-0.401,0.272
					c-0.058,0.037-0.138-0.014-0.115-0.071l0.146-0.435l-0.422-0.258C719.365,465.184,719.395,465.102,719.465,465.1z"/>
				<path fill="#C9F4F2" d="M538.503,547.932l0.192,0.531h0.631c0.092,0,0.129,0.104,0.059,0.146l-0.513,0.33l0.194,0.524
					c0.021,0.072-0.069,0.146-0.146,0.099l-0.512-0.328l-0.514,0.328c-0.07,0.047-0.177-0.021-0.146-0.099l0.192-0.524l-0.517-0.33
					c-0.066-0.047-0.031-0.146,0.061-0.146h0.632l0.192-0.531C538.355,547.857,538.477,547.857,538.503,547.932z"/>
				<path fill="#C9F4F2" d="M470.413,580.197l0.366,1.005h1.188c0.168,0,0.233,0.188,0.104,0.28l-0.961,0.619l0.365,1.004
					c0.053,0.146-0.14,0.261-0.271,0.175l-0.961-0.617l-0.961,0.617c-0.14,0.086-0.317-0.027-0.271-0.175l0.362-1.004l-0.965-0.619
					c-0.138-0.099-0.062-0.28,0.104-0.28h1.188l0.366-1.005C470.133,580.055,470.363,580.055,470.413,580.197z"/>
				<path fill="#C9F4F2" d="M547.99,625.568l0.562,1.541h1.818c0.268,0,0.369,0.295,0.157,0.435l-1.479,0.953l0.562,1.543
					c0.079,0.219-0.201,0.397-0.412,0.268l-1.479-0.944l-1.479,0.944c-0.211,0.146-0.491-0.049-0.412-0.268l0.562-1.543
					l-1.479-0.953c-0.211-0.14-0.104-0.435,0.154-0.435h1.818l0.562-1.541C547.562,625.348,547.908,625.348,547.99,625.568z"/>
				<path fill="#C9F4F2" d="M684.775,649.322l0.207,0.562h0.655c0.103,0,0.142,0.104,0.062,0.156l-0.537,0.348l0.205,0.562
					c0.029,0.078-0.07,0.146-0.146,0.1l-0.528-0.35l-0.537,0.35c-0.078,0.049-0.188-0.021-0.146-0.1l0.204-0.562l-0.536-0.348
					c-0.074-0.053-0.037-0.156,0.062-0.156h0.664l0.2-0.562C684.617,649.242,684.746,649.242,684.775,649.322z"/>
				<path fill="#C9F4F2" d="M532.521,635.754l0.308,0.84h0.993c0.145,0,0.193,0.16,0.086,0.234l-0.812,0.518l0.312,0.851
					c0.045,0.11-0.106,0.219-0.229,0.146l-0.812-0.521l-0.807,0.521c-0.111,0.069-0.271-0.021-0.229-0.146l0.312-0.851l-0.808-0.518
					c-0.112-0.074-0.062-0.234,0.086-0.234h0.993l0.311-0.84C532.283,635.635,532.479,635.635,532.521,635.754z"/>
			</g>
			<g>
				<path fill="#C9F4F2" d="M1178.531,512.725l0.729,1.988h2.354c0.338,0,0.477,0.381,0.203,0.557l-1.906,1.23l0.729,1.988
					c0.104,0.273-0.267,0.521-0.524,0.346l-1.905-1.23l-1.906,1.23c-0.271,0.176-0.637-0.062-0.521-0.346l0.729-1.988l-1.91-1.23
					c-0.271-0.176-0.129-0.557,0.203-0.557h2.355l0.729-1.988C1177.977,512.439,1178.424,512.439,1178.531,512.725z"/>
				<path fill="#C9F4F2" d="M1063.73,453.371l0.614,1.696h2.021c0.285,0,0.403,0.317,0.174,0.479l-1.631,1.053l0.623,1.701
					c0.09,0.242-0.229,0.443-0.455,0.293l-1.631-1.053l-1.627,1.053c-0.23,0.15-0.545-0.051-0.457-0.293l0.623-1.701l-1.629-1.053
					c-0.229-0.146-0.113-0.479,0.174-0.479h2.016l0.625-1.696C1063.256,453.129,1063.641,453.129,1063.73,453.371z"/>
				<path fill="#C9F4F2" d="M1075.717,463.24l0.24,0.676h0.796c0.109,0,0.154,0.127,0.062,0.188l-0.646,0.412l0.242,0.67
					c0.031,0.104-0.09,0.185-0.185,0.115l-0.646-0.414l-0.646,0.414c-0.099,0.062-0.222-0.021-0.188-0.115l0.245-0.67l-0.646-0.412
					c-0.095-0.061-0.045-0.188,0.064-0.188h0.796l0.243-0.676C1075.531,463.145,1075.684,463.145,1075.717,463.24z"/>
				<path fill="#C9F4F2" d="M970.035,378.607l2.016-0.057l0.568-1.715c0.082-0.244,0.469-0.254,0.562-0.017l0.685,1.688l2.018-0.049
					c0.283-0.01,0.412,0.312,0.188,0.474l-1.604,1.095l0.678,1.688c0.104,0.24-0.203,0.449-0.438,0.312l-1.66-1.021l-1.602,1.095
					c-0.229,0.149-0.548-0.039-0.47-0.275l0.564-1.727l-1.659-1.013C969.641,378.943,969.75,378.617,970.035,378.607z"/>
				<path fill="#C9F4F2" d="M1129.07,355.541l2.02-0.051l0.566-1.717c0.08-0.242,0.465-0.262,0.562-0.021l0.679,1.688l2.021-0.06
					c0.287-0.008,0.416,0.312,0.188,0.479l-1.602,1.093l0.674,1.686c0.104,0.238-0.209,0.447-0.438,0.312l-1.659-1.021l-1.604,1.1
					c-0.229,0.146-0.547-0.039-0.465-0.283l0.566-1.715l-1.66-1.021C1128.672,355.877,1128.781,355.547,1129.07,355.541z"/>
				<path fill="#C9F4F2" d="M1148.922,327.326l0.793-0.021l0.229-0.677c0.026-0.097,0.188-0.101,0.225-0.007l0.269,0.664
					l0.793-0.021c0.113-0.003,0.166,0.124,0.074,0.188l-0.632,0.431l0.271,0.664c0.034,0.094-0.084,0.176-0.179,0.119l-0.653-0.398
					l-0.632,0.438c-0.088,0.062-0.213-0.021-0.187-0.11l0.229-0.677l-0.646-0.396
					C1148.768,327.459,1148.811,327.328,1148.922,327.326z"/>
				<path fill="#C9F4F2" d="M866.948,456.393l0.309,0.832h0.98c0.143,0,0.196,0.158,0.084,0.23l-0.795,0.514l0.303,0.83
					c0.045,0.117-0.104,0.217-0.222,0.146l-0.795-0.521l-0.803,0.521c-0.106,0.063-0.271-0.021-0.229-0.146l0.312-0.83l-0.797-0.514
					c-0.108-0.072-0.062-0.23,0.082-0.23h0.979l0.308-0.832C866.717,456.275,866.906,456.275,866.948,456.393z"/>
				<path fill="#C9F4F2" d="M760.857,506.666l0.565,1.562h1.854c0.268,0,0.373,0.308,0.156,0.439l-1.494,0.967l0.565,1.562
					c0.078,0.228-0.205,0.407-0.422,0.271l-1.494-0.969l-1.497,0.969c-0.215,0.146-0.5-0.049-0.422-0.271l0.566-1.562l-1.495-0.967
					c-0.216-0.142-0.104-0.439,0.159-0.439h1.854l0.567-1.562C760.422,506.445,760.775,506.445,760.857,506.666z"/>
				<path fill="#C9F4F2" d="M1094.865,614.375l0.322,0.875h1.026c0.146,0,0.209,0.168,0.09,0.244l-0.838,0.534l0.312,0.875
					c0.047,0.123-0.113,0.229-0.229,0.146l-0.839-0.541l-0.842,0.541c-0.117,0.078-0.272-0.021-0.229-0.146l0.312-0.875
					l-0.838-0.534c-0.119-0.076-0.062-0.244,0.09-0.244h1.035l0.312-0.875C1094.623,614.25,1094.823,614.25,1094.865,614.375z"/>
			</g>
			<g>
				<path fill="#C9F4F2" d="M435.319,500.578l0.729,1.987h2.354c0.338,0,0.478,0.382,0.203,0.56l-1.906,1.229l0.729,1.988
					c0.104,0.283-0.267,0.521-0.523,0.354l-1.906-1.229l-1.905,1.229c-0.271,0.176-0.638-0.062-0.53-0.354l0.729-1.988l-1.908-1.229
					c-0.271-0.179-0.13-0.56,0.201-0.56h2.354l0.729-1.987C434.762,500.295,435.213,500.295,435.319,500.578z"/>
				<path fill="#C9F4F2" d="M320.519,441.227l0.619,1.699h2.018c0.285,0,0.405,0.324,0.174,0.479l-1.629,1.056l0.623,1.696
					c0.088,0.242-0.227,0.438-0.457,0.293l-1.629-1.051l-1.627,1.051c-0.232,0.146-0.544-0.051-0.457-0.293l0.623-1.696l-1.63-1.056
					c-0.231-0.146-0.112-0.479,0.174-0.479h2.015l0.625-1.699C320.04,440.984,320.429,440.984,320.519,441.227z"/>
				<path fill="#C9F4F2" d="M332.505,451.094l0.245,0.676h0.793c0.111,0,0.156,0.136,0.065,0.189l-0.644,0.414l0.242,0.67
					c0.033,0.098-0.09,0.176-0.182,0.11l-0.644-0.413l-0.646,0.413c-0.094,0.062-0.217-0.021-0.182-0.11l0.246-0.67l-0.646-0.414
					c-0.092-0.062-0.045-0.189,0.068-0.189h0.794l0.244-0.676C332.319,451,332.468,451,332.505,451.094z"/>
				<path fill="#C9F4F2" d="M226.824,366.463l2.018-0.047l0.566-1.719c0.082-0.242,0.467-0.252,0.562-0.021l0.674,1.688l2.018-0.048
					c0.283-0.02,0.414,0.312,0.188,0.471l-1.6,1.092l0.677,1.688c0.096,0.229-0.208,0.438-0.445,0.307l-1.662-1.016l-1.598,1.096
					c-0.229,0.147-0.545-0.039-0.462-0.278l0.564-1.721l-1.66-1.013C226.428,366.801,226.537,366.471,226.824,366.463z"/>
				<path fill="#C9F4F2" d="M385.859,343.394l2.015-0.047l0.57-1.717c0.081-0.244,0.467-0.254,0.562-0.015l0.677,1.687l2.019-0.049
					c0.287-0.009,0.416,0.312,0.188,0.471l-1.599,1.1l0.674,1.687c0.102,0.237-0.209,0.446-0.44,0.312l-1.66-1.021l-1.604,1.096
					c-0.229,0.149-0.544-0.036-0.462-0.277l0.566-1.715l-1.662-1.021C385.462,343.729,385.572,343.402,385.859,343.394z"/>
				<path fill="#C9F4F2" d="M405.709,315.18l0.794-0.02l0.229-0.677c0.023-0.103,0.187-0.104,0.224-0.013l0.267,0.664l0.793-0.018
					c0.114-0.004,0.166,0.124,0.076,0.186l-0.63,0.437l0.271,0.664c0.025,0.095-0.085,0.176-0.188,0.118l-0.646-0.396l-0.638,0.43
					c-0.091,0.062-0.216-0.017-0.188-0.104l0.229-0.683l-0.65-0.396C405.553,315.312,405.596,315.183,405.709,315.18z"/>
				<path fill="#C9F4F2" d="M123.738,444.248l0.307,0.83h0.98c0.143,0,0.198,0.155,0.086,0.229l-0.796,0.521l0.306,0.832
					c0.043,0.108-0.105,0.22-0.224,0.146l-0.794-0.519l-0.796,0.519c-0.114,0.072-0.271-0.021-0.226-0.146l0.307-0.832l-0.795-0.521
					c-0.114-0.063-0.059-0.229,0.083-0.229h0.979l0.31-0.83C123.507,444.131,123.695,444.131,123.738,444.248z"/>
				<path fill="#C9F4F2" d="M17.646,494.521l0.572,1.562h1.852c0.266,0,0.373,0.299,0.159,0.438l-1.496,0.967l0.572,1.562
					c0.08,0.229-0.206,0.406-0.42,0.271l-1.497-0.968l-1.498,0.968c-0.212,0.141-0.499-0.048-0.419-0.271l0.569-1.562l-1.498-0.967
					c-0.213-0.146-0.104-0.438,0.162-0.438h1.854l0.568-1.562C17.209,494.299,17.564,494.299,17.646,494.521z"/>
				<path fill="#C9F4F2" d="M138.522,565.217l0.881,2.402h2.846c0.402,0,0.572,0.459,0.246,0.67l-2.306,1.479l0.88,2.402
					c0.125,0.342-0.312,0.625-0.643,0.414l-2.305-1.484l-2.306,1.484c-0.325,0.211-0.768-0.072-0.642-0.414l0.879-2.402
					l-2.303-1.479c-0.326-0.211-0.157-0.67,0.244-0.67h2.848l0.879-2.402C137.852,564.873,138.395,564.873,138.522,565.217z"/>
				<path fill="#C9F4F2" d="M351.656,602.23l0.321,0.864h1.029c0.146,0,0.21,0.17,0.095,0.244l-0.842,0.541l0.316,0.875
					c0.045,0.121-0.115,0.229-0.229,0.148l-0.84-0.541l-0.843,0.541c-0.116,0.065-0.271-0.027-0.229-0.148l0.314-0.875l-0.838-0.541
					c-0.114-0.067-0.059-0.244,0.095-0.244h1.03l0.319-0.864C351.408,602.105,351.611,602.105,351.656,602.23z"/>
				<path fill="#C9F4F2" d="M114.414,581.088l0.479,1.312h1.549c0.223,0,0.312,0.25,0.137,0.354l-1.254,0.812l0.479,1.312
					c0.065,0.188-0.17,0.342-0.353,0.229l-1.254-0.812l-1.252,0.812c-0.179,0.11-0.418-0.039-0.351-0.229l0.479-1.312l-1.25-0.812
					c-0.182-0.104-0.088-0.354,0.133-0.354h1.552l0.479-1.312C114.051,580.902,114.348,580.902,114.414,581.088z"/>
			</g>
		</g>
		<g>
			<path fill="#C9F4F2" d="M1224.672,537.807l0.729,1.992h2.354c0.339,0,0.479,0.381,0.202,0.555l-1.904,1.23l0.729,1.99
				c0.104,0.271-0.271,0.52-0.533,0.344l-1.903-1.23l-1.903,1.23c-0.271,0.176-0.64-0.062-0.522-0.344l0.729-1.99l-1.902-1.23
				c-0.271-0.174-0.137-0.555,0.195-0.555h2.354l0.729-1.992C1224.115,537.523,1224.568,537.523,1224.672,537.807z"/>
			<path fill="#C9F4F2" d="M1109.869,478.453l0.623,1.696h2.019c0.284,0,0.401,0.317,0.178,0.479l-1.635,1.051l0.623,1.701
				c0.091,0.242-0.228,0.438-0.454,0.293l-1.63-1.051l-1.627,1.051c-0.229,0.146-0.546-0.051-0.457-0.293l0.623-1.701l-1.632-1.051
				c-0.229-0.146-0.111-0.479,0.176-0.479h2.021l0.625-1.696C1109.396,478.213,1109.781,478.213,1109.869,478.453z"/>
			<path fill="#C9F4F2" d="M1121.861,488.322l0.244,0.677h0.793c0.104,0,0.149,0.129,0.062,0.188l-0.643,0.414l0.245,0.671
				c0.027,0.104-0.096,0.184-0.188,0.114l-0.643-0.414l-0.646,0.414c-0.101,0.062-0.224-0.021-0.188-0.114l0.243-0.671l-0.646-0.414
				c-0.097-0.061-0.046-0.188,0.062-0.188h0.793l0.241-0.677C1121.672,488.229,1121.824,488.229,1121.861,488.322z"/>
			<path fill="#C9F4F2" d="M1016.176,403.69l2.021-0.056l0.562-1.717c0.079-0.244,0.476-0.253,0.562-0.014l0.674,1.686l2.021-0.048
				c0.282-0.007,0.411,0.312,0.188,0.47l-1.6,1.099l0.676,1.688c0.098,0.234-0.207,0.446-0.443,0.303l-1.66-1.012l-1.602,1.092
				c-0.229,0.154-0.545-0.04-0.461-0.274l0.562-1.725l-1.654-1.011C1015.781,404.026,1015.891,403.699,1016.176,403.69z"/>
			<path fill="#C9F4F2" d="M1175.213,380.623l2.021-0.055l0.562-1.722c0.082-0.237,0.468-0.253,0.562-0.015l0.674,1.688l2.019-0.056
				c0.284-0.007,0.416,0.316,0.188,0.479l-1.604,1.095l0.678,1.688c0.103,0.231-0.209,0.44-0.438,0.306l-1.659-1.021l-1.6,1.099
				c-0.229,0.146-0.551-0.037-0.469-0.277l0.562-1.723l-1.66-1.018C1174.816,380.959,1174.922,380.631,1175.213,380.623z"/>
			<path fill="#C9F4F2" d="M1195.064,352.41l0.793-0.021l0.225-0.677c0.033-0.098,0.187-0.102,0.226-0.005l0.271,0.663l0.793-0.021
				c0.112-0.002,0.166,0.125,0.076,0.188l-0.632,0.432l0.27,0.664c0.036,0.096-0.084,0.177-0.177,0.119l-0.655-0.396l-0.63,0.432
				c-0.088,0.062-0.213-0.021-0.188-0.109l0.229-0.678l-0.652-0.397C1194.906,352.541,1194.949,352.412,1195.064,352.41z"/>
			<path fill="#C9F4F2" d="M913.088,481.477l0.312,0.83h0.979c0.146,0,0.195,0.16,0.087,0.232l-0.796,0.514l0.309,0.832
				c0.043,0.117-0.104,0.215-0.227,0.146l-0.795-0.521l-0.799,0.521c-0.11,0.063-0.266-0.021-0.223-0.146l0.305-0.832l-0.795-0.514
				c-0.111-0.072-0.062-0.232,0.082-0.232h0.979l0.312-0.83C912.861,481.359,913.047,481.359,913.088,481.477z"/>
			<path fill="#C9F4F2" d="M807,531.75l0.568,1.561h1.854c0.271,0,0.373,0.308,0.157,0.439l-1.495,0.967l0.568,1.562
				c0.08,0.229-0.205,0.399-0.42,0.271l-1.496-0.967l-1.498,0.967c-0.213,0.138-0.5-0.047-0.42-0.271l0.574-1.562l-1.498-0.967
				c-0.214-0.144-0.104-0.439,0.159-0.439h1.853l0.572-1.561C806.562,531.527,806.918,531.527,807,531.75z"/>
			<path fill="#C9F4F2" d="M927.875,602.445l0.881,2.396h2.845c0.403,0,0.573,0.459,0.245,0.67L929.543,607l0.879,2.399
				c0.125,0.345-0.312,0.625-0.645,0.413l-2.301-1.48l-2.312,1.48c-0.326,0.212-0.771-0.068-0.646-0.413L925.4,607l-2.307-1.484
				c-0.324-0.211-0.154-0.67,0.243-0.67h2.851l0.881-2.396C927.203,602.102,927.746,602.102,927.875,602.445z"/>
			<path fill="#C9F4F2" d="M1141.006,639.459l0.32,0.873h1.033c0.146,0,0.209,0.168,0.09,0.244l-0.838,0.541l0.313,0.875
				c0.045,0.118-0.112,0.229-0.229,0.146l-0.836-0.541l-0.844,0.541c-0.115,0.076-0.272-0.021-0.229-0.146l0.314-0.875l-0.839-0.541
				c-0.111-0.076-0.062-0.244,0.091-0.244h1.036l0.313-0.873C1140.764,639.334,1140.963,639.334,1141.006,639.459z"/>
			<path fill="#C9F4F2" d="M903.768,618.316l0.479,1.312h1.553c0.229,0,0.312,0.25,0.134,0.361l-1.252,0.811l0.479,1.312
				c0.062,0.188-0.17,0.342-0.354,0.227l-1.253-0.811l-1.254,0.811c-0.18,0.115-0.416-0.039-0.352-0.227l0.479-1.312l-1.252-0.811
				c-0.182-0.111-0.086-0.361,0.14-0.361h1.556l0.479-1.312C903.404,618.131,903.701,618.131,903.768,618.316z"/>
		</g>
	</g>
</g>
<g id="clude">
	<g id="cloud4">
		
			<linearGradient id="SVGID_5_" gradientUnits="userSpaceOnUse" x1="-480.6113" y1="1306.6553" x2="-480.6117" y2="1503.6823" gradientTransform="matrix(1 0 0 -1 1549.7812 1524.1094)">
			<stop  offset="0" style="stop-color:#9FC7D3"/>
			<stop  offset="0.3154" style="stop-color:#C0D5DF"/>
			<stop  offset="0.7674" style="stop-color:#E9E6EE"/>
			<stop  offset="1" style="stop-color:#F9EDF4"/>
		</linearGradient>
		<path fill="url(#SVGID_5_)" d="M1252.5,137.5c-0.6,0-1.235-2.291-1.982-3.117c-3.582-3.978-7.891-6.892-12.709-7.525
			c-3.688-4.178-8.514-6.852-13.836-6.852c-5.881,0-11.181,3.057-14.999,8.021c-0.458-4.049-3.062-7.219-6.354-7.219
			c-1.318,0-2.479,0.617-3.511,1.457c-1.854-11.385-9.739-19.955-19.223-19.955c-2.396,0-4.688,0.646-6.812,1.646
			c1.454-3.385,2.341-7.199,2.341-11.328c0-13.12-8.321-23.75-18.591-23.75c-5.188,0-9.854,2.719-13.234,7.087
			c-1.271-1.615-2.85-2.801-4.584-3.556c0.329-2.575,0.176-5.565-1.117-7.643c-0.58-0.935-1.164-1.869-1.737-2.801
			c-1.521-2.456-3.062-4.363-5.604-5.209c-0.253-0.086-0.54-0.102-0.808-0.158c0.408-3.362-0.377-6.87-2.527-9.571
			c-0.562-0.714-1.134-1.426-1.701-2.134c-0.748-0.938-1.648-1.636-2.627-2.177c-1.05-1.516-2.22-2.894-3.436-4.189
			c-0.021-0.906-0.104-1.796-0.312-2.598c-1.508-5.63-6.534-9.875-11.535-7.918c-1.33,0.521-2.668,1.043-4,1.57
			c-0.038,0.013-0.062,0.035-0.104,0.047c-1.257-0.199-2.521-0.322-3.815-0.322c-0.375,0-0.741,0.068-1.121,0.081
			c-1.445-1.465-3.368-2.411-5.803-2.411c-4.735,0-7.592,3.502-8.61,7.745c-3.229,2.417-6.112,5.521-8.462,9.213
			c-0.474-0.076-0.937-0.172-1.439-0.172c-7.528,0-10.362,8.834-8.508,15.47c-2.787,0.083-5.229,1.815-6.837,4.432
			c-4.296-6.439-10.604-10.603-17.761-10.603c-12.35,0-22.448,12.241-23.312,27.741c-0.953-0.402-1.994-0.674-3.188-0.674
			c-5.25,0-8.215,4.292-8.897,9.137c-0.812-0.086-1.63-0.137-2.452-0.137c-11.248,0-21.023,8.012-26.045,19.793
			c-1.688-1.898-3.883-3.081-6.312-3.081c-3.938,0-7.312,3.011-8.812,7.312c-1.212-0.881-2.663-1.43-4.393-1.506
			c-1.368-3.226-3.977-5.64-7.898-5.64c-6.854,0-9.796,7.308-8.853,13.634c-1.354-1.068-3.011-1.744-5.037-1.744
			c-3.009,0-5.271,1.414-6.775,3.531c-2.469-0.029-4.938,0.602-7.004,2.256c-0.18,0.146-0.354,0.283-0.521,0.431
			c-0.923-0.364-1.926-0.619-3.062-0.619c-1.767,0-3.245,0.524-4.48,1.358c-0.651,0.075-1.312,0.195-1.979,0.367
			c-1.166,0.297-2.339,0.592-3.518,0.889c-3.329,0.85-6.729,4.351-8.397,7.812c-0.271,0.571-0.333,1.211-0.553,1.846
			c-1.514-2.172-4.35-3.193-6.688-3.193c-3.347,0-5.688-2.299-7.129,4.924h366.67v0.002H1252.5z"/>
	</g>
	<g id="cloud1">
		
			<linearGradient id="SVGID_6_" gradientUnits="userSpaceOnUse" x1="-1392.374" y1="1265.7158" x2="-1392.374" y2="1388.5195" gradientTransform="matrix(1 0 0 -1 1549.7812 1524.1094)">
			<stop  offset="0" style="stop-color:#9FC7D3"/>
			<stop  offset="0.3154" style="stop-color:#C0D5DF"/>
			<stop  offset="0.7674" style="stop-color:#E9E6EE"/>
			<stop  offset="1" style="stop-color:#F9EDF4"/>
		</linearGradient>
		<path fill="url(#SVGID_6_)" d="M304.605,213.043c-2.267-4.268-4.98-8.445-8.023-9.133c-2.322-4.48-5.375-7.861-8.73-7.861
			c-3.717,0-7.061,3.004-9.473,8.336c-0.288-4.35-1.934-7.883-4.008-7.883c-0.837,0-1.572,0.6-2.219,1.502
			c-1.169-12.219-6.149-21.443-12.134-21.443c-1.515,0-2.956,0.668-4.302,1.744c0.916-3.632,1.479-7.729,1.479-12.156
			c0-14.078-5.255-25.492-11.733-25.492c-3.272,0-6.225,2.91-8.356,7.6c-0.802-1.724-1.798-3.009-2.896-3.818
			c0.211-2.758,0.108-5.957-0.705-8.199c-0.365-1.002-0.73-1.998-1.093-3.006c-0.967-2.633-1.936-4.678-3.537-5.582
			c-0.162-0.09-0.346-0.113-0.514-0.176c0.261-3.605-0.237-7.367-1.598-10.264c-0.358-0.766-0.718-1.529-1.073-2.296
			c-0.472-1.007-1.044-1.757-1.658-2.338c-0.662-1.624-1.399-3.104-2.166-4.496c-0.011-0.965-0.06-1.915-0.197-2.785
			c-0.95-6.043-4.126-10.586-7.282-8.496c-0.84,0.569-1.682,1.126-2.529,1.682c-0.02,0.022-0.041,0.044-0.062,0.057
			c-0.79-0.209-1.591-0.348-2.406-0.348c-0.239,0-0.473,0.076-0.712,0.089c-0.915-1.569-2.128-2.589-3.66-2.589
			c-2.988,0-4.793,3.761-5.437,8.313c-2.04,2.592-3.857,5.926-5.347,9.887c-0.299-0.084-0.586-0.188-0.908-0.188
			c-4.758,0-6.549,9.479-5.363,16.605c-1.769,0.082-3.311,1.939-4.32,4.754c-2.715-6.905-6.701-11.381-11.209-11.381
			c-7.793,0-14.177,13.14-14.72,29.767c-0.604-0.433-1.263-0.722-2.017-0.722c-1.052,0-1.938,0.502-2.699,1.304
			c-0.607-0.871-1.438-1.398-2.132-1.528c-0.269-0.587-0.571-1.109-0.946-1.504c-0.33-0.348-0.666-0.704-0.996-1.04
			c-1.003-1.062-2.121-1.5-3.23-0.868c-0.088,0.051-0.178,0.139-0.262,0.208c-0.253-0.265-0.514-0.477-0.795-0.597
			c-0.867-0.369-1.75-0.545-2.62-0.069c-0.148-0.481-0.312-0.944-0.521-1.364l-0.503-1.037c-0.276-0.57-0.606-1.016-0.956-1.396
			c-0.365-1.45-0.887-2.703-1.6-3.557c-0.896-1.082-2.221-1.533-3.229-0.869c-0.146,0.1-0.287,0.242-0.425,0.361
			c-0.115-0.562-0.231-1.108-0.347-1.662c-0.371-1.291-0.869-2.324-1.5-3.09c-0.618-0.955-1.42-1.625-2.184-1.889
			c-0.504-0.176-1.004-0.281-1.502-0.295c-2.213-3.247-4.874-5.141-7.746-5.141c-3.071,0-5.902,2.187-8.195,5.873
			c-0.107-0.012-0.213-0.067-0.33-0.067c-0.543,0-1.137,0.274-1.687,0.758c-1.319-1.102-2.788-0.789-4.019,0.959
			c-0.137,0.197-0.284,0.366-0.438,0.522c-0.813,0.751-1.528,1.896-1.988,3.521c-0.016,0.062-0.028,0.156-0.045,0.235
			c-1.482,1.009-2.496,3.299-2.859,6.105c-0.104,0.192-0.204,0.365-0.301,0.57c-0.161-0.062-0.314-0.16-0.479-0.189
			c-0.488-1.039-1.108-1.865-1.848-2.381c-0.822-0.572-1.648-1.146-2.475-1.719c-0.992-0.695-2.344-0.199-3.229,0.863
			c-0.131,0.16-0.254,0.381-0.383,0.586c-0.641,0.025-1.279,0.395-1.854,1.216c-1.206,1.713-2.475,3.193-3.808,4.463
			c-0.854,0.816-1.587,3.013-1.88,4.858c-1.107,0.438-2.115,1.697-2.621,3.934c-0.641,2.826-1.027,5.764-1.079,8.756
			c-0.506,0.088-0.995,0.383-1.464,0.83c-0.594-0.217-1.209-0.191-1.861,0.078c-0.938,0.387-1.878,0.771-2.815,1.16
			c-0.989,0.41-2.011,2.214-2.507,3.953c-0.174,0.618-0.297,1.342-0.397,2.104c-0.31,0.57-0.593,1.25-0.819,1.982
			c-0.113,0.145-0.236,0.275-0.348,0.416c-0.994-0.564-2.041-0.344-2.992,0.631c-0.777-0.031-1.562,0.314-2.221,1.117
			c-0.502,0.6-0.971,1.547-1.338,2.621c-0.176-0.039-0.351-0.102-0.53-0.082c-0.81,0.068-1.714,0.515-2.405,1.504
			c-0.863,0.275-1.803,1.373-2.334,2.477c-0.543,1.105-0.983,2.756-1.154,4.398c-0.168-0.146-0.336-0.266-0.519-0.348
			c-0.37-0.104-0.739-0.211-1.115-0.308c-0.754,0-1.459,0.396-2.116,1.177c-0.748,0.691-1.496,1.377-2.25,2.067
			c-0.789,0.738-1.487,2.729-1.813,4.47c-0.033,0.006-0.075,0.021-0.118,0.025c-1.041-1.732-2.38-2.425-3.637-1.895
			c-1.002-0.51-2.089-0.041-2.992,1.066c-0.148-0.238-0.312-0.438-0.479-0.621c-0.928-1.01-2.209-1.719-3.228-0.863
			c-0.366,0.307-0.736,0.522-1.118,0.707c-0.345,0.024-0.688,0.024-1.035-0.059c-0.646-0.141-1.411,0.375-2.057,1.143
			c-0.852-0.137-1.746,0.194-2.589,0.953c-2.484,2.205-4.805,6.938-6.95,10.321c-0.033,0-0.064,1.915-0.099,1.915H25.99
			c-1.114,0-2.198-1.266-2.986,0.348c-0.039-0.027-0.072-1.201-0.104-1.227c-1.446-0.938-3.043-1.217-4.415,0.068
			c-0.727-0.489-1.526-0.857-2.35-0.424c-0.466,0.243-0.931,0.35-1.397,0.6c-0.139,0.068-0.276,0.215-0.413,0.436
			c-0.168-0.104-0.337-0.244-0.505-0.377c-0.819-0.668-2.005,2.756-2.854,3.523c-0.738,0.289-1.435,5.053-2.009,5.053h65.42h134.435
			h97.046C305.479,218.5,305.074,213.934,304.605,213.043z"/>
	</g>
	<g id="cloud2">
		
			<linearGradient id="SVGID_7_" gradientUnits="userSpaceOnUse" x1="-1129.9492" y1="1342.958" x2="-1129.9492" y2="1448.2256" gradientTransform="matrix(1 0 0 -1 1549.7812 1524.1094)">
			<stop  offset="0" style="stop-color:#9FC7D3"/>
			<stop  offset="0.3154" style="stop-color:#C0D5DF"/>
			<stop  offset="0.7674" style="stop-color:#E9E6EE"/>
			<stop  offset="1" style="stop-color:#F9EDF4"/>
		</linearGradient>
		<path fill="url(#SVGID_7_)" d="M549.648,142.279c-1.999-3.658-4.396-7.238-7.077-7.828c-2.047-3.84-4.739-6.738-7.698-6.738
			c-3.275,0-6.227,2.575-8.354,7.145c-0.254-3.729-1.693-6.756-3.524-6.756c-0.736,0-1.396,0.514-1.955,1.287
			c-1.029-10.474-5.424-18.38-10.7-18.38c-1.335,0-2.604,0.572-3.795,1.495c0.81-3.113,1.307-6.625,1.307-10.42
			c0-12.067-4.634-21.851-10.35-21.851c-2.884,0-5.485,2.495-7.367,6.514c-0.707-1.478-1.585-2.579-2.555-3.273
			c0.188-2.364,0.1-5.106-0.622-7.028c-0.32-0.859-0.646-1.712-0.963-2.576c-0.854-2.257-1.709-4.01-3.119-4.786
			c-0.146-0.076-0.312-0.097-0.449-0.15c0.229-3.09-0.211-6.314-1.411-8.797c-0.312-0.657-0.633-1.311-0.942-1.968
			c-0.416-0.863-0.925-1.506-1.463-2.004c-0.587-1.392-1.229-2.661-1.906-3.854c-0.017-0.827-0.06-1.642-0.181-2.387
			c-0.838-5.18-3.638-9.074-6.421-7.282c-0.736,0.488-1.479,0.965-2.229,1.441c-0.021,0.019-0.036,0.038-0.062,0.049
			c-0.688-0.179-1.396-0.298-2.122-0.298c-0.211,0-0.417,0.065-0.627,0.076c-0.809-1.345-1.876-2.219-3.229-2.219
			c-2.632,0-4.229,3.224-4.793,7.125c-1.799,2.222-3.399,5.08-4.713,8.475c-0.271-0.072-0.521-0.161-0.812-0.161
			c-4.188,0-5.771,8.125-4.729,14.233c-1.562,0.071-2.917,1.663-3.812,4.075c-2.396-5.918-5.898-9.755-9.884-9.755
			c-6.872,0-12.5,11.263-12.979,25.515c-0.531-0.372-1.112-0.618-1.775-0.618c-0.93,0-1.709,0.43-2.382,1.117
			c-0.536-0.747-1.271-1.198-1.879-1.31c-0.239-0.503-0.505-0.951-0.835-1.289c-0.291-0.299-0.588-0.604-0.879-0.892
			c-0.891-0.91-1.869-1.286-2.854-0.744c-0.079,0.043-0.152,0.118-0.229,0.178c-0.229-0.227-0.453-0.409-0.701-0.511
			c-0.769-0.316-1.543-0.467-2.312-0.06c-0.131-0.413-0.271-0.81-0.459-1.17l-0.438-0.888c-0.245-0.489-0.536-0.871-0.848-1.197
			c-0.318-1.243-0.778-2.317-1.406-3.048c-0.791-0.928-1.959-1.314-2.854-0.745c-0.133,0.085-0.258,0.207-0.375,0.31
			c-0.104-0.482-0.203-0.951-0.311-1.426c-0.327-1.106-0.765-1.992-1.322-2.647c-0.543-0.819-1.253-1.393-1.926-1.619
			c-0.439-0.151-0.885-0.242-1.324-0.253c-1.947-2.783-4.298-4.407-6.829-4.407c-2.708,0-5.205,1.875-7.228,5.035
			c-0.094-0.011-0.188-0.059-0.292-0.059c-0.479,0-1.002,0.236-1.487,0.65c-1.162-0.945-2.458-0.676-3.543,0.822
			c-0.12,0.169-0.25,0.314-0.386,0.447c-0.716,0.645-1.348,1.628-1.753,3.018c-0.014,0.053-0.021,0.134-0.04,0.202
			c-1.304,0.865-2.201,2.828-2.521,5.234c-0.094,0.165-0.183,0.313-0.27,0.489c-0.142-0.054-0.275-0.138-0.422-0.162
			c-0.43-0.891-0.978-1.599-1.628-2.041c-0.726-0.491-1.455-0.982-2.184-1.474c-0.875-0.595-2.066-0.17-2.849,0.74
			c-0.115,0.137-0.224,0.326-0.338,0.502c-0.564,0.022-1.128,0.339-1.634,1.042c-1.062,1.468-2.181,2.737-3.355,3.825
			c-0.753,0.7-1.396,2.583-1.657,4.165c-0.979,0.375-1.865,1.454-2.312,3.372c-0.565,2.422-0.907,4.94-0.953,7.505
			c-0.443,0.075-0.877,0.327-1.29,0.71c-0.523-0.185-1.064-0.164-1.642,0.068c-0.827,0.331-1.656,0.661-2.482,0.994
			c-0.871,0.352-1.771,1.897-2.21,3.389c-0.151,0.528-0.262,1.149-0.35,1.803c-0.274,0.488-0.524,1.071-0.723,1.699
			c-0.102,0.125-0.209,0.235-0.308,0.356c-0.877-0.483-1.8-0.295-2.64,0.541c-0.688-0.026-1.377,0.27-1.958,0.957
			c-0.443,0.516-0.856,1.326-1.182,2.248c-0.154-0.033-0.311-0.088-0.467-0.07c-0.715,0.059-1.511,0.44-2.121,1.289
			c-0.761,0.235-1.589,1.177-2.058,2.123c-0.479,0.947-0.867,2.361-1.019,3.771c-0.147-0.125-0.296-0.228-0.458-0.298
			c-0.325-0.089-0.651-0.182-0.982-0.264c-0.665,0-1.286,0.34-1.866,1.01c-0.66,0.592-1.318,1.18-1.983,1.771
			c-0.695,0.633-1.312,2.34-1.599,3.832c-0.029,0.004-0.065,0.018-0.104,0.021c-0.918-1.485-2.101-2.079-3.206-1.624
			c-0.886-0.438-1.845-0.035-2.642,0.914c-0.131-0.205-0.273-0.375-0.422-0.533c-0.816-0.865-1.947-1.474-2.846-0.739
			c-0.323,0.262-0.649,0.447-0.986,0.606c-0.303,0.021-0.605,0.021-0.913-0.052c-0.568-0.121-1.242,0.322-1.812,0.98
			c-0.752-0.118-1.54,0.166-2.283,0.816c-2.189,1.891-4.238,5.947-6.128,8.848c-0.028,0-0.057,1.641-0.088,1.641h-0.615
			c-0.981,0-1.938-1.084-2.633,0.297c-0.035-0.022-0.062-1.027-0.092-1.049c-1.274-0.805-2.684-1.043-3.894,0.058
			c-0.642-0.419-1.346-0.735-2.071-0.363c-0.412,0.208-0.821,0.299-1.229,0.515c-0.124,0.059-0.243,0.185-0.361,0.373
			c-0.146-0.089-0.298-0.209-0.446-0.322c-0.724-0.573-1.771,2.361-2.517,3.02c-0.649,0.248-1.265,4.332-1.771,4.332h57.685h118.56
			h85.57C550.418,146.957,550.061,143.043,549.648,142.279z"/>
	</g>
	<g id="cloud3">
		
			<linearGradient id="SVGID_8_" gradientUnits="userSpaceOnUse" x1="-1220.3857" y1="1127.0596" x2="-1220.3857" y2="1328.2656" gradientTransform="matrix(1 0 0 -1 1549.7812 1524.1094)">
			<stop  offset="0" style="stop-color:#9FC7D3"/>
			<stop  offset="0.3154" style="stop-color:#C0D5DF"/>
			<stop  offset="0.7674" style="stop-color:#E9E6EE"/>
			<stop  offset="1" style="stop-color:#F9EDF4"/>
		</linearGradient>
		<path fill="url(#SVGID_8_)" d="M437.742,314.5c0.532,0-0.74-7.459-3.176-8.725c-0.896-0.452-1.771-0.228-2.654-0.693
			c-0.453-0.232-0.93,0.061-1.396,0.105c-0.621-0.709-1.344-0.955-2.08-1.082c-0.219-0.39-0.468-0.668-0.729-0.996
			c-2.064-2.526-4.531-2.873-6.92-2.072c-0.061,0.012-0.105,0.074-0.159,0.107c-0.334-0.795-0.758-1.478-1.288-1.967
			c-0.25-0.229-0.505-0.455-0.755-0.688c-0.863-0.8-1.804-0.886-2.757-0.729c-0.812-2.146-2.123-3.259-3.688-3.259H411
			c-0.146,0-0.288-0.26-0.438-0.235c-0.1-0.14-0.197-0.254-0.304-0.398c-0.312-0.68-0.681-1.299-1.123-1.707
			c-0.255-0.232-0.505-0.448-0.756-0.682c-0.312-0.278-0.64-0.506-0.972-0.688c-0.173-0.139-0.354-0.257-0.526-0.378
			c0.562-2.905,0.288-6.224-1.012-8.578c-0.127-0.229-0.253-0.456-0.381-0.688c-1.609-2.93-4.506-4.869-6.205-1.99
			c-0.01,0-0.024-1.653-0.041-1.653h-1.129c-0.774,0-1.529,0.146-2.195,0.908c-0.492-0.343-1.021-0.908-1.597-0.908h-0.756
			c-0.163,0-0.327,0.728-0.487,0.767c-0.716-0.91-1.582-0.767-2.544-0.767h-0.879c-0.255,0-0.508,0.056-0.76-0.056
			c-0.073-1.036-0.25-1.958-0.531-2.979c-0.127-0.466-0.255-0.851-0.382-1.311c-0.492-1.79-1.688-3.243-2.715-3.76
			c-1.091-0.549-2.533-0.274-3.503,0.854c-0.147,0.169-0.268,0.382-0.396,0.56c-0.065,0.035-0.134,0.035-0.204,0.072
			c-0.362,0.217-0.726,0.569-1.071,0.926c-0.021-0.504-0.056-0.998-0.127-1.502c-0.243-3.125-1.17-5.684-2.229-8.088
			c-0.604-1.381-1.864-2.211-2.869-2.373c-0.288-0.565-0.613-1.065-1.021-1.442c-0.36-0.337-0.726-0.673-1.085-0.999
			c-1.089-1.008-2.296-1.438-3.5-0.835c-0.096,0.045-0.188,0.143-0.285,0.206c-0.271-0.258-0.557-0.459-0.859-0.577
			c-0.938-0.347-1.896-0.521-2.842-0.07c-0.164-0.458-0.341-0.901-0.563-1.303l-0.538-0.988c-0.31-0.562-0.666-0.981-1.044-1.353
			c-0.396-1.387-0.963-2.581-1.735-3.403c-0.976-1.032-2.408-1.469-3.498-0.826c-0.161,0.084-0.312,0.22-0.471,0.345
			c-0.118-0.537-0.247-1.067-0.372-1.596c-0.398-1.242-0.939-2.23-1.627-2.966c-0.668-0.916-1.538-1.549-2.357-1.812
			c-0.554-0.166-1.1-0.27-1.642-0.275c-2.396-3.112-5.282-4.928-8.396-4.928c-3.329,0-6.396,2.091-8.886,5.621
			c-0.12-0.018-0.234-0.068-0.362-0.068c-0.588,0-1.234,0.268-1.832,0.732c-1.431-1.049-3.026-0.756-4.354,0.922
			c-0.151,0.189-0.312,0.35-0.479,0.498c-0.879,0.718-1.649,1.828-2.151,3.371c-0.021,0.071-0.031,0.154-0.059,0.228
			c-1.598,0.966-2.699,3.172-3.095,5.856c-0.114,0.184-0.229,0.351-0.328,0.551c-0.173-0.062-0.341-0.155-0.521-0.188
			c-0.529-0.985-1.199-1.78-2.003-2.272c-0.896-0.547-1.788-1.104-2.683-1.652c-1.077-0.665-2.54-0.188-3.503,0.827
			c-0.144,0.153-0.272,0.366-0.418,0.554c-0.695,0.039-1.389,0.391-2.009,1.17c-1.312,1.646-2.684,3.07-4.126,4.281
			c-0.932,0.777-1.728,2.896-2.04,4.659c-1.203,0.429-2.295,1.63-2.848,3.771c-0.688,2.708-1.112,5.53-1.171,8.398
			c-0.547,0.08-1.086,0.367-1.587,0.796c-0.648-0.2-1.312-0.188-2.021,0.071c-1.021,0.373-2.04,0.74-3.059,1.115
			c-1.072,0.387-2.18,2.125-2.715,3.795c-0.192,0.588-0.327,1.285-0.436,2.004c-0.334,0.559-0.646,1.205-0.893,1.914
			c-0.127,0.127-0.258,0.252-0.378,0.396c-1.08-0.544-2.213-0.332-3.25,0.602c-0.839-0.028-1.688,0.31-2.4,1.07
			c-0.542,0.573-1.06,1.479-1.451,2.512c-0.191-0.035-0.381-0.096-0.574-0.082c-0.875,0.069-1.861,0.498-2.61,1.444
			c-0.934,0.267-1.956,1.323-2.534,2.372c-0.589,1.064-1.062,2.643-1.254,4.225c-0.177-0.143-0.361-0.256-0.559-0.342
			c-0.404-0.092-0.808-0.195-1.208-0.289c-0.821,0.006-1.589,0.381-2.297,1.131c-0.812,0.653-1.621,1.322-2.438,1.982
			c-0.859,0.702-1.616,2.616-1.973,4.28c-0.041,0.013-0.083,0.021-0.127,0.034c-1.138-1.668-2.589-2.336-3.945-1.815
			c-1.089-0.493-2.268-0.043-3.25,1.021c-0.16-0.231-0.334-0.42-0.52-0.6c-1.007-0.972-2.396-1.643-3.501-0.822
			c-0.396,0.291-0.802,0.504-1.21,0.664c-0.374,0.023-0.749,0.023-1.124-0.046c-0.705-0.133-1.529,0.364-2.231,1.087
			c-0.922-0.121-1.894,0.192-2.81,0.914c-2.693,2.123-5.209,2.18-7.542,5.424c-0.033-0.004-0.065-2.639-0.105-2.639h-0.755
			c-1.208,0-2.39,3.258-3.244,4.812c-0.039-0.023-0.067,1.067-0.11,1.054c-1.562-0.884-3.298-0.038-4.781,1.188
			c-0.788-0.457-1.664-0.26-2.554,0.153c-0.502,0.237-1.009,0.61-1.513,0.854c-0.151,0.062-0.303,0.352-0.445,0.559
			c-0.188-0.102-0.368-0.161-0.555-0.288c-0.892-0.637-2.173-1.632-3.098-0.892c-0.8,0.271-1.555,0.561-2.18,0.561h216.8V314.5
			H437.742z M379.085,289.5c0.189-0.051,0.37-0.154,0.555-0.246c0.064,0.479,0.157,0.938,0.271,1.389
			c-0.439,0.194-0.873,0.432-1.291,0.728C378.789,290.762,378.945,290.139,379.085,289.5z"/>
	</g>
	
		<radialGradient id="SVGID_9_" cx="4630.3828" cy="6171.7852" r="106.3066" gradientTransform="matrix(-0.0774 0.997 -0.997 -0.0774 6711.6958 -4019.4932)" gradientUnits="userSpaceOnUse">
		<stop  offset="0" style="stop-color:#FFFFFF"/>
		<stop  offset="1" style="stop-color:#FFFFFF;stop-opacity:0"/>
	</radialGradient>
	<circle fill="url(#SVGID_9_)" cx="200.033" cy="119.302" r="106.302"/>
</g>
<path fill="#1B1F30" d="M-327.422,685.754c0.199-0.377-0.594-0.836-0.973-0.562"/>
<g>
	<path fill="#4EC0E7" d="M1274.175,573.208c-28.523-204.319-227.182-350.844-443.709-327.272
		C613.928,269.508,461.511,454.259,490.03,658.583c2.951,21.135,7.748,41.641,14.172,61.417h61.769
		c-11.669-25.951-19.847-53.664-23.906-82.738c-25.019-179.237,115.235-342.02,313.267-363.578
		c198.023-21.558,378.842,106.266,403.862,285.501c7.895,56.552,7.547,111.458-14.093,160.815h16.466
		C1275.093,673.738,1281.271,624.081,1274.175,573.208z"/>
	<path fill="#74B854" d="M1259.194,559.185c-25.021-179.235-205.839-307.059-403.862-285.501
		c-198.031,21.559-338.285,184.341-313.267,363.578c4.059,29.074,12.236,56.787,23.906,82.738h55.317
		c-10.584-24.36-18.109-50.338-22.038-77.559C574.672,472.069,699.867,317.63,878.875,297.492
		c179.012-20.139,344.047,101.642,368.621,272.004c7.631,52.885,0.823,104.228-17.546,150.504h17.209
		C1268.799,670.643,1267.089,615.736,1259.194,559.185z"/>
	<path fill="#FFDF2F" d="M1247.496,569.496c-24.574-170.362-189.609-292.143-368.621-272.004
		C699.867,317.63,574.672,472.069,599.25,642.441c3.928,27.221,11.453,53.198,22.038,77.559h57.101
		c-13.722-26.293-23.253-55.017-27.651-85.502c-21.83-151.321,90.892-288.666,251.773-306.766
		c160.87-18.098,308.979,89.895,330.813,241.215c7.745,53.677,2.651,105.593-19.61,151.053h16.236
		C1248.319,673.724,1255.127,622.381,1247.496,569.496z"/>
	<path fill="#F6A63C" d="M1233.324,568.947c-21.835-151.32-169.943-259.313-330.813-241.215
		c-160.882,18.1-273.603,155.444-251.773,306.766c4.398,30.485,13.93,59.209,27.651,85.502H728.3
		c-14.792-28.949-24.342-61.021-27.272-95.107c-12.224-142.038,94.801-265.029,239.045-274.714
		c144.243-9.679,271.088,97.614,283.312,239.648c4.007,46.543-4.795,91.036-23.512,130.173h13.842
		C1235.976,674.54,1241.069,622.624,1233.324,568.947z"/>
	<path fill="#EA621E" d="M1223.384,589.827C1211.16,447.793,1084.315,340.5,940.072,350.179
		c-144.244,9.685-251.269,132.676-239.045,274.714c2.931,34.087,12.48,66.158,27.272,95.107h53.674
		c-13.921-27.21-22.932-57.522-25.709-89.78c-11.178-129.876,82.884-242.085,210.089-250.627
		c127.206-8.532,239.389,89.831,250.567,219.705c3.718,43.255-6.301,84.545-23.261,120.702h6.212
		C1218.589,680.863,1227.391,636.37,1223.384,589.827z"/>
</g>
</svg>
